<svg xmlns="http://www.w3.org/2000/svg" viewBox="0 0 140 115.3" enable-background="new 0 0 140 115.3"><path fill="#BCBAB7" d="M113.8 76.5c1.7 0 3.1-1 3.8-2.5 0 0 21.4-53.6 22-55.1 1-2.4 0-5.2-1.2-7-1.7-2.5-4.2-3.9-7-3.9h-110.4l-.3.1-2.1-5.4c-.1-.3-.4-.6-.6-.9l-.3-.4c-.2-.2-.5-.4-.8-.5-.2-.1-.3-.3-.5-.3-.2-.1-.4-.1-.6-.1-.3-.1-.7-.2-1-.2h-10.7c-2.3-.3-4.1 1.5-4.1 3.8 0 2.2 1.8 4.1 4.1 4.1h7.9l33.7 85.3c-2.7 2.3-4.4 5.6-4.4 9.4 0 6.9 5.6 12.4 12.4 12.4 5.4 0 10-3.5 11.7-8.4h32c1.7 4.9 6.3 8.4 11.7 8.4 6.9 0 12.5-5.6 12.5-12.4 0-6.9-5.6-12.4-12.5-12.4-5.4 0-10 3.5-11.7 8.4h-32c-1.7-4.9-6.3-8.4-11.7-8.4-.2 0-.4 0-.5.1l-5.5-14h66.1zm17.5-60.5c.1.1.4.3.5.6-2.3 5.7-16.7 41.8-20.7 51.8h-66.69999999999999l-20.6-52.4h107.5zM100.6 59.2c-5.1-3.8-11.8-6.5-21.2-6.5-9.2 0-15.8 2.8-21 6.5v-3.6c4.3-3.3 10.9-6.8 21-6.8 10.2.1 16.8 3.5 21.2 6.8v3.6zM89.7 36.6c-3 0-5.5-2.5-5.5-5.5s2.5-5.5 5.5-5.5 5.5 2.5 5.5 5.5-2.4 5.5-5.5 5.5zM66 36.6c-3 0-5.5-2.5-5.5-5.5s2.5-5.5 5.5-5.5 5.5 2.5 5.5 5.5-2.5 5.5-5.5 5.5z"/></svg>