<svg xmlns="http://www.w3.org/2000/svg" viewBox="0 0 32.1 35" enable-background="new 0 0 32.1 35"><path fill="#DADADA" d="M11.7 13.9v13.1c0 .2-.1.4-.2.5s-.3.2-.5.2h-1.5c-.2 0-.4-.1-.5-.2s-.2-.3-.2-.5v-13.1c0-.2.1-.4.2-.5s.3-.2.5-.2h1.5c.2 0 .4.1.5.2s.2.2.2.5zM31.3 8.9h-30.6c-.2 0-.4-.1-.5-.2s-.2-.3-.2-.5v-1.5c0-.2.1-.4.2-.5s.3-.2.5-.2h30.5c.2 0 .4.1.5.2s.3.3.3.5v1.5c0 .2-.1.4-.2.5s-.3.2-.5.2zM17.5 13.9v13.1c0 .2-.1.4-.2.5s-.3.2-.5.2h-1.5c-.2 0-.4-.1-.5-.2s-.2-.3-.2-.5v-13.1c0-.2.1-.4.2-.5s.3-.2.5-.2h1.5c.2 0 .4.1.5.2s.2.2.2.5zM23.3 13.9v13.1c0 .2-.1.4-.2.5s-.3.2-.5.2h-1.5c-.2 0-.4-.1-.5-.2s-.2-.3-.2-.5v-13.1c0-.2.1-.4.2-.5s.3-.2.5-.2h1.5c.2 0 .4.1.5.2s.2.2.2.5z"/><path d="M26 9h-20v21.4c0 .3 0 .6.1.9.1.3.1.5.2.6.1.1.2.1.3.1h19s.1 0 .2-.2c.1-.1.2-.3.3-.6.1-.3 0-.6 0-.9v-21.3z" fill="none"/><path fill="#DADADA" d="M29 6h-4.7l-1.6-3.9c-.2-.6-.6-1.1-1.2-1.5-.6-.4-1.2-.6-1.8-.6h-7.3c-.6 0-1.2.2-1.8.6-.6.4-1 1-1.2 1.5l-1.6 3.9h-4.8v24.4c0 1.3.3 2.3 1 3.2.7 1 1.6 1.4 2.6 1.4h19c1 0 1.8-.5 2.5-1.4s1-2 1-3.3v-24.3zm-16.9-2.7c.1-.1.2-.3.3-.3h7.2c.2 0 .3.2.4.3l1.1 2.7h-10.2l1.2-2.7zm13.9 28c-.1.3-.2.4-.3.6-.1.1-.1.1-.2.1h-19s-.1 0-.2-.2c-.1-.1-.1-.3-.2-.6-.1-.2-.1-.5-.1-.8v-21.4h20v21.4c0 .3.1.6 0 .9z"/></svg>