<?xml version="1.0" encoding="utf-8"?>
<!-- Generator: Adobe Illustrator 19.2.1, SVG Export Plug-In . SVG Version: 6.00 Build 0)  -->
<svg version="1.1" id="Layer_1" xmlns="http://www.w3.org/2000/svg" xmlns:xlink="http://www.w3.org/1999/xlink" x="0px" y="0px"
	 width="25px" height="23px" viewBox="0 0 25 23" style="enable-background:new 0 0 25 23;" xml:space="preserve">
<style type="text/css">
	.st0{fill:#FDB933;}
</style>
<g id="FINAL">
	<path class="st0" d="M22.4,0h-12C9.3,0,8.1,1.1,8.1,2.3v4.2H2.2C1.1,6.5,0,7.6,0,8.7v7.1c0,1.2,1,2.3,2.2,2.3h1.5
		c0.1,0,0.2,0,0.2,0.2v3.9c0,0.3,0.2,0.7,0.4,0.8C4.4,23,4.5,23,4.6,23c0.5,0,1.1-0.7,2.5-2.3c0.5-0.8,1.2-1.4,1.7-2
		C9.3,18,9.3,18,9.8,18h4.6c1.2,0,2.2-1,2.2-2.3v-3.2c0.4,0.4,0.9,1,1.3,1.5c1.4,1.6,1.9,2.3,2.5,2.3c0.1,0,0.2,0,0.2-0.1
		c0.2-0.1,0.4-0.3,0.4-0.8v-3.9c0-0.2,0.1-0.2,0.2-0.2h1.5c1.2,0,2.2-1,2.2-2.3V2.2C24.7,1.1,23.6,0,22.4,0z M14.9,15.5
		c0,0.4-0.5,0.9-1,0.9H9.6c-0.9,0-1.2-0.1-2,0.8c-0.5,0.7-2,2.6-2.3,2.9v-2.3c0-0.5-0.3-1.4-1.4-1.4H2.6c-0.3,0-0.9-0.3-0.9-0.9V8.9
		C1.7,8.6,2,8,2.6,8H14C14.4,8,15,8.3,15,8.9L14.9,15.5z M16.6,10.6v-2c0-1.1-1.3-2.4-2.5-2.4H9.8V2.5c0-0.4,0.4-0.9,0.9-0.9h11.5
		c0.4,0,0.9,0.4,0.9,0.9V9c0,0.4-0.4,0.9-0.9,0.9h-1.3c-1,0-1.6,0.8-1.6,1.3v2.4C19.3,13.6,16.9,10.7,16.6,10.6z"/>
</g>
</svg>
