<?xml version="1.0" encoding="UTF-8" standalone="no"?>
<svg width="31px" height="25px" viewBox="0 0 31 25" version="1.1" xmlns="http://www.w3.org/2000/svg" xmlns:xlink="http://www.w3.org/1999/xlink">
    <!-- Generator: Sketch 3.7.2 (28276) - http://www.bohemiancoding.com/sketch -->
    <title>icon-frete-gratis</title>
    <desc>Created with Sketch.</desc>
    <defs></defs>
    <g id="Page-1" stroke="none" stroke-width="1" fill="none" fill-rule="evenodd">
        <g id="icone-copy-2" transform="translate(-578.000000, -335.000000)">
            <g id="infos" transform="translate(579.000000, 124.000000)">
                <g id="icon-frete-gratis" transform="translate(0.000000, 212.000000)">
                    <path d="M9.74810345,4.26112853 C9.74810345,4.83815635 9.53373543,5.33750735 9.1049994,5.75918152 C8.67626337,6.1808557 8.16854965,6.39169279 7.58185824,6.39169279 C6.99516683,6.39169279 6.48745311,6.1808557 6.05871707,5.75918152 C5.62998104,5.33750735 5.41561303,4.83815635 5.41561303,4.26112853 C5.41561303,3.68410071 5.62998104,3.18474971 6.05871707,2.76307553 C6.48745311,2.34140135 6.99516683,2.13056426 7.58185824,2.13056426 C8.16854965,2.13056426 8.67626337,2.34140135 9.1049994,2.76307553 C9.53373543,3.18474971 9.74810345,3.68410071 9.74810345,4.26112853 L9.74810345,4.26112853 Z M3.24936782,12.7833856 L9.74810345,12.7833856 L9.74810345,17.0445141 L7.07414452,17.0445141 C6.92747166,17.0445141 6.80336386,16.994579 6.70182112,16.8947088 L3.40168193,13.6489273 C3.30013919,13.5490571 3.24936782,13.4269935 3.24936782,13.2827366 L3.24936782,12.7833856 L3.24936782,12.7833856 Z M24.9118199,4.26112853 C24.9118199,4.83815635 24.6974519,5.33750735 24.2687159,5.75918152 C23.8399798,6.1808557 23.3322661,6.39169279 22.7455747,6.39169279 C22.1588833,6.39169279 21.6511696,6.1808557 21.2224335,5.75918152 C20.7936975,5.33750735 20.5793295,4.83815635 20.5793295,4.26112853 C20.5793295,3.68410071 20.7936975,3.18474971 21.2224335,2.76307553 C21.6511696,2.34140135 22.1588833,2.13056426 22.7455747,2.13056426 C23.3322661,2.13056426 23.8399798,2.34140135 24.2687159,2.76307553 C24.6974519,3.18474971 24.9118199,3.68410071 24.9118199,4.26112853 L24.9118199,4.26112853 Z M29.2443103,22.3709248 L29.2443103,5.32641066 C29.2443103,5.15996033 29.2217453,5.0129292 29.1766152,4.88531728 C29.1314851,4.75770535 29.055328,4.65506098 28.948144,4.57738416 C28.84096,4.49970734 28.7478792,4.43590138 28.6689015,4.38596628 C28.5899238,4.33603118 28.4573541,4.30274111 28.2711924,4.28609608 C28.0850307,4.26945104 27.9581023,4.25835435 27.8904071,4.25280601 C27.8227119,4.24725767 27.6788597,4.24725767 27.4588504,4.25280601 C27.2388411,4.25835435 27.1119127,4.26112853 27.0780651,4.26112853 C27.0780651,3.08487951 26.6549704,2.08062916 25.8087808,1.2483775 C24.9625913,0.416125833 23.9415226,-5.32907052e-15 22.7455747,-5.32907052e-15 C21.5496268,-5.32907052e-15 20.5285581,0.416125833 19.6823686,1.2483775 C18.8361791,2.08062916 18.4130843,3.08487951 18.4130843,4.26112853 L11.9143487,4.26112853 C11.9143487,3.08487951 11.4912539,2.08062916 10.6450644,1.2483775 C9.79887482,0.416125833 8.77780611,-5.32907052e-15 7.58185824,-5.32907052e-15 C6.38591036,-5.32907052e-15 5.36484165,0.416125833 4.51865212,1.2483775 C3.67246258,2.08062916 3.24936782,3.08487951 3.24936782,4.26112853 L2.16624521,4.26112853 C2.13239763,4.26112853 2.0054692,4.25835435 1.78545992,4.25280601 C1.56545064,4.24725767 1.42159842,4.24725767 1.35390326,4.25280601 C1.28620809,4.25835435 1.15927966,4.26945104 0.973117966,4.28609608 C0.786956268,4.30274111 0.654386574,4.33603118 0.575408884,4.38596628 C0.496431194,4.43590138 0.403350345,4.49970734 0.296166337,4.57738416 C0.18898233,4.65506098 0.112825271,4.75770535 0.0676951628,4.88531728 C0.0225650543,5.0129292 7.46069873e-14,5.15996033 7.46069873e-14,5.32641066 C7.46069873e-14,5.61492457 0.107184008,5.86460007 0.321552023,6.07543716 C0.535920039,6.28627425 0.7897769,6.39169279 1.08312261,6.39169279 L1.08312261,11.7181034 C1.08312261,11.806877 1.08030197,12.001069 1.07466071,12.3006796 C1.06901945,12.6002902 1.06901945,12.8111273 1.07466071,12.9331909 C1.08030197,13.0552545 1.09440513,13.2466723 1.11697019,13.5074445 C1.13953524,13.7682167 1.17620345,13.9735055 1.22697483,14.1233108 C1.2777462,14.2731161 1.35672389,14.4423406 1.4639079,14.6309843 C1.5710919,14.819628 1.69802033,14.9860783 1.84469319,15.1303353 L5.19560375,18.4260519 C5.40997176,18.636889 5.69485557,18.814436 6.05025518,18.9586929 C6.40565478,19.1029499 6.7356687,19.1750784 7.04029693,19.1750784 L9.74810345,19.1750784 L9.74810345,22.3709248 C9.74810345,22.6594387 9.85528746,22.9091142 10.0696555,23.1199513 C10.2840235,23.3307884 10.5378803,23.4362069 10.8312261,23.4362069 L28.1611877,23.4362069 C28.4545334,23.4362069 28.7083903,23.3307884 28.9227583,23.1199513 C29.1371263,22.9091142 29.2443103,22.6594387 29.2443103,22.3709248 L29.2443103,22.3709248 Z" id="path3647" stroke="#E76A25" transform="translate(14.622155, 11.718103) scale(-1, -1) translate(-14.622155, -11.718103) "></path>
                    <path d="M12.0781875,4.5 C10.9083375,4.5 10.125,5.55186772 10.125,5.55186772 C10.125,5.55186772 9.34125,4.5 8.1718125,4.5 C6.93885,4.5 6,5.5442332 6,6.78526746 C6,7.58137864 6.3733125,8.31853433 6.8278875,8.78636098 C7.2824625,9.25376349 10.125,12.1345238 10.125,12.1345238 C10.125,12.1345238 12.967125,9.25376349 13.4217,8.78636098 C13.8758625,8.31853433 14.25,7.58137864 14.25,6.78526746 C14.25,5.5442332 13.3107375,4.5 12.0781875,4.5 Z" id="Fill-3" fill="#E76A25"></path>
                </g>
            </g>
        </g>
    </g>
</svg>