<?xml version="1.0" encoding="utf-8"?>
<!-- Generator: Adobe Illustrator 19.0.0, SVG Export Plug-In . SVG Version: 6.00 Build 0)  -->
<svg version="1.1" id="Layer_1" xmlns="http://www.w3.org/2000/svg" xmlns:xlink="http://www.w3.org/1999/xlink" x="0px" y="0px"
	 width="18.3px" height="20px" viewBox="0 0 18.3 20" enable-background="new 0 0 18.3 20" xml:space="preserve">
<path id="XMLID_7_" fill="#95918D" d="M17.8,5H0.5C0.2,5,0,4.8,0,4.5V3.8c0-0.3,0.2-0.5,0.5-0.5h17.3c0.3,0,0.5,0.2,0.5,0.5v0.7
	C18.3,4.8,18.1,5,17.8,5z"/>
<path id="XMLID_11_" fill="#95918D" d="M5,15.3V8c0-0.3,0.2-0.5,0.5-0.5h0.7c0.3,0,0.5,0.2,0.5,0.5v7.3c0,0.3-0.2,0.5-0.5,0.5H5.5
	C5.2,15.8,5,15.6,5,15.3z"/>
<path id="XMLID_13_" fill="#95918D" d="M11.7,15.3V8c0-0.3,0.2-0.5,0.5-0.5h0.7c0.3,0,0.5,0.2,0.5,0.5l0,7.3c0,0.3-0.2,0.5-0.5,0.5
	h-0.7C11.9,15.8,11.7,15.6,11.7,15.3z"/>
<path id="XMLID_12_" fill="#95918D" d="M8.3,15.3V8c0-0.3,0.2-0.5,0.5-0.5h0.7C9.8,7.5,10,7.7,10,8v7.3c0,0.3-0.2,0.5-0.5,0.5H8.8
	C8.6,15.8,8.3,15.6,8.3,15.3z"/>
<path id="XMLID_8_" fill="#95918D" d="M14.6,5c0.2,0,0.3,0.1,0.3,0.3V18c0,0.2-0.1,0.3-0.3,0.3h-11c-0.2,0-0.3-0.1-0.3-0.3V5.3
	C3.4,5.2,3.5,5,3.7,5H14.6 M14.6,3.3h-11c-1.1,0-2,0.9-2,2V18c0,1.1,0.9,2,2,2h11c1.1,0,2-0.9,2-2V5.3C16.6,4.2,15.7,3.3,14.6,3.3
	L14.6,3.3z"/>
<path id="XMLID_3_" fill="#95918D" d="M12,1l0.7,2.3H5.6L6.3,1h6.2 M12.9,0H5.4C5.3,0,5.1,0.1,5,0.3l-1.2,3h10.5l-1.1-3
	C13.2,0.1,13,0,12.9,0L12.9,0z"/>
</svg>
