<svg xmlns="http://www.w3.org/2000/svg" width="140" height="116" viewBox="0 0 140 116"><path d="M113.57 76.874c1.714 0 3.126-1.008 3.832-2.521 0 0 21.58-54.051 22.185-55.563 1.008-2.42 0-5.244-1.21-7.059-1.714-2.521-4.235-3.933-7.059-3.933h-110.141l-.303.101-2.118-5.445c-.101-.303-.403-.605-.605-.908l-.303-.403c-.202-.202-.504-.403-.807-.504-.202-.101-.303-.303-.504-.303-.202-.101-.403-.101-.605-.101-.303-.101-.706-.202-1.008-.202h-10.79c-2.319-.302-4.134 1.513-4.134 3.832 0 2.218 1.815 4.134 4.134 4.134h7.966l33.983 86.017c-2.723 2.319-4.437 5.647-4.437 9.479 0 6.958 5.647 12.504 12.504 12.504 5.445 0 10.084-3.529 11.798-8.471h32.269c1.714 4.941 6.353 8.471 11.798 8.471 6.958 0 12.605-5.647 12.605-12.504 0-6.958-5.647-12.504-12.605-12.504-5.445 0-10.084 3.529-11.798 8.471h-32.267c-1.714-4.941-6.353-8.471-11.798-8.471-.202 0-.403 0-.504.101l-5.546-14.118h65.469v-.1z" fill="#DADADA"/><path d="M131.217 15.865c.101.101.403.303.504.605-2.319 5.748-16.84 42.151-20.874 52.236h-66.074l-20.773-52.841h107.217z" fill="#fff"/><path d="M100.259 59.428c-5.143-3.832-11.899-6.555-21.378-6.555-9.277 0-15.933 2.824-21.177 6.555v-3.63c4.336-3.328 10.992-6.857 21.177-6.857 10.286.101 16.941 3.529 21.378 6.857v3.63zM89.267 36.638c-3.025 0-5.546-2.521-5.546-5.546s2.521-5.546 5.546-5.546 5.546 2.521 5.546 5.546-2.42 5.546-5.546 5.546zM65.368 36.638c-3.025 0-5.546-2.521-5.546-5.546s2.521-5.546 5.546-5.546c3.025 0 5.546 2.521 5.546 5.546s-2.521 5.546-5.546 5.546z" fill="#DADADA"/></svg>