<svg xmlns="http://www.w3.org/2000/svg" width="18" height="18" viewBox="0 0 18 18"><path d="M18 3.375v.75c0 .109-.035.199-.105.27s-.161.105-.27.105h-1.125v11.109c0 .648-.184 1.209-.551 1.682s-.808.709-1.324.709h-11.25c-.516 0-.957-.229-1.324-.686s-.551-1.009-.551-1.658v-11.156h-1.125c-.109 0-.199-.035-.27-.105s-.105-.161-.105-.27v-.75c0-.109.035-.199.105-.27s.161-.105.27-.105h3.621l.82-1.957c.117-.289.328-.535.633-.738s.613-.305.926-.305h5.25c.312 0 .621.102.926.305s.516.449.633.738l.82 1.957h3.621c.109 0 .199.035.27.105s.105.161.105.27z" fill="#DADADA"/><path d="M15 15.609v-11.109h-12v11.109c0 .172.027.33.082.475s.111.25.17.316l.123.1h11.25l.123-.1s.115-.172.17-.316.082-.303.082-.475zM5.625 3h6.75l-.562-1.371c-.055-.07-.121-.113-.199-.129h-5.216c-.078.016-.144.059-.199.129l-.574 1.371z" fill="#fff"/><g fill="#DADADA"><path d="M6.75 7.125v6.75c0 .109-.035.199-.105.27s-.16.105-.27.105h-.75c-.109 0-.199-.035-.27-.105s-.105-.16-.105-.27v-6.75c0-.109.035-.199.105-.27s.16-.105.27-.105h.75c.109 0 .199.035.27.105s.105.161.105.27zM9.75 7.125v6.75c0 .109-.035.199-.105.27s-.16.105-.27.105h-.75c-.109 0-.199-.035-.27-.105s-.105-.16-.105-.27v-6.75c0-.109.035-.199.105-.27s.16-.105.27-.105h.75c.109 0 .199.035.27.105s.105.161.105.27zM12.75 7.125v6.75c0 .109-.035.199-.105.27s-.16.105-.27.105h-.75c-.109 0-.199-.035-.27-.105s-.105-.16-.105-.27v-6.75c0-.109.035-.199.105-.27s.16-.105.27-.105h.75c.109 0 .199.035.27.105s.105.161.105.27z"/></g></svg>