<svg xmlns="http://www.w3.org/2000/svg" width="21" height="18" viewBox="0 0 21 18"><path fill="#E76925" d="M14.966 2.352l3.681 3.682-8.591 8.591h-3.681v-3.682zM20.642 4.04l-1.176 1.176-3.682-3.682 1.176-1.176c.238-.239.528-.358.869-.358.341 0 .631.119.869.358l1.943 1.943c.239.239.359.529.359.869s-.12.631-.358.87z"/><path fill="#fff" d="M9.545 13.398l1.483-1.483-1.943-1.943-1.483 1.483v.715h1.227v1.228z"/><path d="M16 9.8v4.95c0 .65-.183 1.25-.833 1.25h-12c-.651 0-1.167-.6-1.167-1.25v-12c0-.65.516-.75 1.167-.75h11.258l1.645-1.745c-.287-.092-.587-.255-.903-.255h-12c-1.65 0-3.167 1.1-3.167 2.75v12c0 1.65 1.517 3.25 3.167 3.25h12c1.65 0 2.833-1.6 2.833-3.25v-6.75l-2 1.8z" fill="#E76925"/></svg>