<?xml version="1.0" encoding="utf-8"?>
<!-- Generator: Adobe Illustrator 18.0.0, SVG Export Plug-In . SVG Version: 6.00 Build 0)  -->
<!DOCTYPE svg PUBLIC "-//W3C//DTD SVG 1.1//EN" "http://www.w3.org/Graphics/SVG/1.1/DTD/svg11.dtd">
<svg version="1.1" id="Layer_1" xmlns="http://www.w3.org/2000/svg" xmlns:xlink="http://www.w3.org/1999/xlink" x="0px" y="0px"
	 width="39px" height="26px" viewBox="0 0 39 26" style="enable-background:new 0 0 39 26;" xml:space="preserve">
<g>
	<path style="fill:#F3F4F4;" d="M2.001,25.5c-0.828,0-1.501-0.674-1.501-1.501V2.001C0.5,1.173,1.173,0.5,2.001,0.5h34.998
		c0.827,0,1.501,0.673,1.501,1.501v21.998c0,0.827-0.674,1.501-1.501,1.501H2.001z"/>
	<path style="fill:#DADBD9;" d="M36.999,1C37.551,1,38,1.449,38,2.001v21.998C38,24.551,37.551,25,36.999,25H2.001
		C1.449,25,1,24.551,1,23.999V2.001C1,1.449,1.449,1,2.001,1H36.999 M36.999,0H2.001C0.896,0,0,0.896,0,2.001v21.998
		C0,25.104,0.896,26,2.001,26h34.997C38.104,26,39,25.104,39,23.999V2.001C39,0.896,38.104,0,36.999,0L36.999,0z"/>
</g>
<g>
	<path style="fill:#099DD9;" d="M30.395,2H8.475v22h21.921v-7.26c0.087-0.126,0.13-0.287,0.13-0.484c0-0.225-0.043-0.365-0.13-0.482
		"/>
	<path style="fill:#FFFFFF;" d="M10.451,11.52l-0.422-1.028L9.61,11.52 M19.741,11.111c-0.085,0.051-0.185,0.053-0.305,0.053h-0.748
		v-0.573h0.759c0.107,0,0.219,0.005,0.292,0.046c0.08,0.038,0.129,0.117,0.129,0.228C19.868,10.978,19.821,11.069,19.741,11.111z
		 M25.08,11.52l-0.426-1.028L24.23,11.52H25.08z M15.127,12.632h-0.632l-0.002-2.019L13.6,12.632h-0.541l-0.896-2.021v2.021H10.91
		l-0.237-0.575H9.39l-0.239,0.575H8.482l1.103-2.578H10.5l1.048,2.441v-2.441h1.006l0.806,1.749l0.741-1.749h1.026L15.127,12.632
		L15.127,12.632z M17.644,12.632h-2.058v-2.578h2.058v0.537h-1.442v0.465h1.407v0.528h-1.407v0.515h1.442V12.632z M20.546,10.749
		c0,0.411-0.274,0.623-0.434,0.687c0.135,0.051,0.25,0.142,0.305,0.217c0.087,0.128,0.102,0.243,0.102,0.473v0.506h-0.621
		l-0.002-0.325c0-0.155,0.015-0.378-0.097-0.502c-0.09-0.091-0.227-0.11-0.449-0.11h-0.661v0.938h-0.616v-2.578h1.417
		c0.315,0,0.547,0.008,0.746,0.123C20.429,10.293,20.546,10.461,20.546,10.749z M21.532,12.632h-0.629v-2.578h0.629V12.632z
		 M28.826,12.632h-0.873l-1.168-1.935v1.935H25.53l-0.24-0.575h-1.28l-0.233,0.575h-0.721c-0.299,0-0.679-0.066-0.893-0.285
		c-0.217-0.219-0.329-0.515-0.329-0.984c0-0.382,0.067-0.732,0.332-1.008c0.199-0.206,0.511-0.301,0.936-0.301h0.597v0.552h-0.584
		c-0.225,0-0.352,0.033-0.474,0.153c-0.105,0.109-0.177,0.314-0.177,0.584c0,0.276,0.055,0.475,0.169,0.605
		c0.095,0.102,0.267,0.133,0.429,0.133h0.277l0.868-2.027h0.923l1.043,2.438v-2.438h0.938l1.083,1.795v-1.795h0.631V12.632
		L28.826,12.632z M8.475,13.139h1.053l0.237-0.573h0.531l0.237,0.573h2.071v-0.438l0.185,0.44h1.075l0.185-0.446v0.444h5.148
		l-0.002-0.94h0.1c0.07,0.002,0.09,0.009,0.09,0.124v0.816h2.662V12.92c0.215,0.115,0.549,0.219,0.988,0.219h1.12l0.24-0.573h0.531
		l0.234,0.573h2.158v-0.544l0.327,0.544h1.73V9.543h-1.712v0.425l-0.24-0.425h-1.756v0.425l-0.22-0.425h-2.372
		c-0.397,0-0.746,0.055-1.028,0.21v-0.21h-1.637v0.21c-0.179-0.159-0.424-0.21-0.696-0.21h-5.981l-0.401,0.929l-0.412-0.929h-1.884
		v0.425l-0.207-0.425H9.221l-0.746,1.709L8.475,13.139L8.475,13.139z"/>
	<path style="fill:#FFFFFF;" d="M30.395,15.04h-1.123c-0.112,0-0.187,0.004-0.249,0.047c-0.065,0.042-0.09,0.104-0.09,0.185
		c0,0.097,0.055,0.163,0.135,0.192c0.065,0.023,0.135,0.029,0.237,0.029l0.334,0.009c0.337,0.008,0.562,0.066,0.699,0.208
		c0.025,0.02,0.04,0.042,0.057,0.064 M30.395,16.74c-0.15,0.219-0.441,0.33-0.836,0.33h-1.19v-0.553h1.185
		c0.118,0,0.2-0.015,0.249-0.064c0.043-0.04,0.073-0.098,0.073-0.168c0-0.075-0.03-0.135-0.075-0.171
		c-0.045-0.039-0.11-0.057-0.217-0.057c-0.578-0.02-1.3,0.018-1.3-0.798c0-0.374,0.237-0.768,0.884-0.768h1.227v-0.513h-1.14
		c-0.344,0-0.594,0.082-0.771,0.211v-0.211h-1.687c-0.27,0-0.586,0.067-0.736,0.211v-0.211h-3.012v0.211
		c-0.24-0.173-0.644-0.211-0.831-0.211h-1.987v0.211c-0.19-0.184-0.611-0.211-0.868-0.211H17.14l-0.509,0.551l-0.477-0.551h-3.321
		v3.598h3.259l0.524-0.559l0.494,0.559l2.009,0.002v-0.846h0.197c0.266,0.004,0.581-0.007,0.858-0.126v0.971h1.657v-0.938h0.08
		c0.102,0,0.112,0.004,0.112,0.106v0.831h5.033c0.32,0,0.654-0.082,0.839-0.23v0.23h1.596c0.332,0,0.657-0.047,0.904-0.166V16.74
		L30.395,16.74z M27.938,15.71c0.12,0.124,0.184,0.281,0.184,0.546c0,0.555-0.347,0.814-0.968,0.814h-1.2v-0.553h1.195
		c0.117,0,0.2-0.015,0.252-0.064c0.042-0.04,0.073-0.098,0.073-0.168c0-0.075-0.033-0.135-0.075-0.171
		c-0.047-0.039-0.112-0.057-0.219-0.057c-0.576-0.02-1.298,0.018-1.298-0.798c0-0.374,0.235-0.768,0.881-0.768h1.235v0.549h-1.13
		c-0.112,0-0.185,0.004-0.247,0.047c-0.067,0.042-0.092,0.104-0.092,0.185c0,0.097,0.057,0.163,0.135,0.192
		c0.065,0.023,0.135,0.029,0.24,0.029l0.332,0.009C27.568,15.51,27.798,15.568,27.938,15.71z M22.378,15.55
		c-0.082,0.049-0.184,0.053-0.304,0.053h-0.748v-0.579h0.759c0.11,0,0.219,0.002,0.294,0.047c0.08,0.042,0.128,0.122,0.128,0.232
		C22.506,15.413,22.458,15.502,22.378,15.55z M22.75,15.871c0.137,0.051,0.249,0.141,0.302,0.216c0.087,0.126,0.1,0.243,0.102,0.471
		v0.511h-0.618v-0.323c0-0.155,0.015-0.385-0.1-0.505c-0.09-0.092-0.227-0.115-0.452-0.115h-0.658v0.942h-0.619v-2.578h1.422
		c0.312,0,0.539,0.014,0.741,0.122c0.194,0.117,0.317,0.278,0.317,0.572C23.187,15.597,22.912,15.807,22.75,15.871z M23.528,14.491
		h2.056v0.533h-1.443v0.469h1.408v0.526h-1.408v0.513l1.443,0.002v0.535h-2.056V14.491z M19.372,15.681h-0.796v-0.657h0.803
		c0.222,0,0.377,0.091,0.377,0.316C19.755,15.564,19.608,15.681,19.372,15.681z M17.962,16.835l-0.946-1.05l0.946-1.017V16.835z
		 M15.519,16.532h-1.515v-0.513h1.353v-0.526h-1.353v-0.469h1.545l0.674,0.751L15.519,16.532z M20.417,15.341
		c0,0.716-0.534,0.864-1.073,0.864h-0.769v0.865h-1.198l-0.759-0.853l-0.788,0.853H13.39v-2.578h2.478l0.758,0.845l0.784-0.845
		h1.969C19.868,14.491,20.417,14.627,20.417,15.341z"/>
</g>
</svg>
