<?xml version="1.0" encoding="utf-8"?>
<!-- Generator: Adobe Illustrator 18.1.1, SVG Export Plug-In . SVG Version: 6.00 Build 0)  -->
<svg version="1.1" id="Layer_1" xmlns="http://www.w3.org/2000/svg" xmlns:xlink="http://www.w3.org/1999/xlink" x="0px" y="0px"
	 width="22px" height="22px" viewBox="0 0 22 22" enable-background="new 0 0 22 22" xml:space="preserve">
<g>
	<path fill="#FFFFFF" d="M11,21C5.5,21,1,16.5,1,11C1,5.5,5.5,1,11,1c5.5,0,10,4.5,10,10C21,16.5,16.5,21,11,21z"/>
</g>
<g>
	<path fill="#BCBAB7" d="M11,2c5,0,9,4,9,9s-4,9-9,9s-9-4-9-9S6,2,11,2 M11,0C4.9,0,0,4.9,0,11s4.9,11,11,11s11-4.9,11-11
		S17.1,0,11,0L11,0z"/>
</g>
<g>
	<g>
		<path fill="#BCBAB7" d="M15.5,16.5c-0.3,0-0.5-0.1-0.7-0.3l-9-9c-0.4-0.4-0.4-1,0-1.4s1-0.4,1.4,0l9,9c0.4,0.4,0.4,1,0,1.4
			C16,16.4,15.8,16.5,15.5,16.5z"/>
	</g>
	<g>
		<path fill="#BCBAB7" d="M6.5,16.5c-0.3,0-0.5-0.1-0.7-0.3c-0.4-0.4-0.4-1,0-1.4l9-9c0.4-0.4,1-0.4,1.4,0s0.4,1,0,1.4l-9,9
			C7,16.4,6.8,16.5,6.5,16.5z"/>
	</g>
</g>
</svg>
