<?xml version="1.0" encoding="utf-8"?>
<!-- Generator: Adobe Illustrator 18.0.0, SVG Export Plug-In . SVG Version: 6.00 Build 0)  -->
<!DOCTYPE svg PUBLIC "-//W3C//DTD SVG 1.1//EN" "http://www.w3.org/Graphics/SVG/1.1/DTD/svg11.dtd">
<svg version="1.1" id="Layer_1" xmlns="http://www.w3.org/2000/svg" xmlns:xlink="http://www.w3.org/1999/xlink" x="0px" y="0px"
	 width="39px" height="26px" viewBox="0 0 39 26" style="enable-background:new 0 0 39 26;" xml:space="preserve">
<g>
	<path style="fill:#F3F4F4;" d="M2.001,25.5c-0.828,0-1.501-0.674-1.501-1.501V2.001C0.5,1.173,1.173,0.5,2.001,0.5h34.998
		c0.827,0,1.501,0.673,1.501,1.501v21.998c0,0.827-0.674,1.501-1.501,1.501H2.001z"/>
	<path style="fill:#DADBD9;" d="M36.999,1C37.551,1,38,1.449,38,2.001v21.998C38,24.551,37.551,25,36.999,25H2.001
		C1.449,25,1,24.551,1,23.999V2.001C1,1.449,1.449,1,2.001,1H36.999 M36.999,0H2.001C0.896,0,0,0.896,0,2.001v21.998
		C0,25.104,0.896,26,2.001,26h34.997C38.104,26,39,25.104,39,23.999V2.001C39,0.896,38.104,0,36.999,0L36.999,0z"/>
</g>
<g>
	<g>
		<polygon style="fill-rule:evenodd;clip-rule:evenodd;fill:#27B3E8;" points="22.638,6.44 20.677,3 16.588,3 18.884,6.647 
			22.638,6.44 		"/>
		<polygon style="fill-rule:evenodd;clip-rule:evenodd;fill:#086FB8;" points="18.889,6.654 16.963,9.531 18.748,9.521 
			19.632,8.187 21.669,8.188 22.666,6.49 22.638,6.441 22.638,6.44 18.884,6.647 18.888,6.653 18.889,6.654 		"/>
		<polygon style="fill-rule:evenodd;clip-rule:evenodd;fill:#27B3E8;" points="25.615,11.676 25.619,11.669 25.617,11.666 
			23.941,8.725 19.866,8.709 21.492,11.567 21.55,11.669 21.546,11.676 25.615,11.676 		"/>
		<polygon style="fill-rule:evenodd;clip-rule:evenodd;fill:#27B3E8;" points="19.475,11.802 19.475,11.802 19.478,11.798 
			18.553,10.018 16.742,9.989 15.682,8.521 13.625,8.496 15.478,11.764 15.479,11.765 19.475,11.802 		"/>
		<polygon style="fill-rule:evenodd;clip-rule:evenodd;fill:#086FB8;" points="13.381,15.031 17.438,15.031 18.424,13.515 
			19.553,15.031 23.6,15.031 25.615,11.676 21.546,11.676 19.767,14.478 18.737,13.037 19.475,11.802 15.479,11.765 15.496,11.796 
			13.381,15.031 		"/>
	</g>
	<g>
		<polygon style="fill:#086FB8;" points="31.318,17.442 32.329,17.442 32.329,22.787 31.318,22.787 31.318,17.442 		"/>
		<path style="fill:#086FB8;" d="M27.223,19.326h1.127v1.754c0,0.273,0.046,0.477,0.138,0.611c0.092,0.134,0.231,0.202,0.419,0.202
			c0.213,0,0.374-0.091,0.483-0.274c0.11-0.183,0.164-0.451,0.164-0.802v-1.49h1.13v3.477h-1.026v-0.65
			c-0.129,0.231-0.296,0.408-0.499,0.529c-0.204,0.121-0.435,0.181-0.693,0.181c-0.404,0-0.713-0.131-0.925-0.391
			c-0.211-0.261-0.317-0.641-0.317-1.141V19.326L27.223,19.326z"/>
		<polygon style="fill:#086FB8;" points="22.047,19.264 23.301,19.264 23.301,22.787 22.047,22.787 22.047,19.264 		"/>
		<path style="fill:#086FB8;" d="M21.594,19.364l-0.066,0.997c-0.051-0.02-0.108-0.034-0.169-0.044
			c-0.063-0.01-0.136-0.014-0.219-0.014c-0.299,0-0.681,0.089-0.833,0.266c-0.152,0.177-0.228,0.437-0.228,0.781v1.437h-1.097
			v-3.372H20.1v0.644c0.127-0.249,0.282-0.434,0.465-0.554c0.184-0.119,0.401-0.179,0.651-0.179c0.064,0,0.183,0.012,0.353,0.035
			L21.594,19.364L21.594,19.364z"/>
		<path style="fill:#086FB8;" d="M18.384,20.801v1.998h-1.07v-1.746c0-0.276-0.044-0.483-0.132-0.618
			c-0.088-0.135-0.22-0.202-0.4-0.202c-0.187,0-0.337,0.084-0.45,0.255c-0.112,0.169-0.168,0.396-0.168,0.682v1.63h-1.079v-3.46
			h0.98v0.633c0.123-0.236,0.283-0.417,0.478-0.54c0.195-0.125,0.415-0.186,0.66-0.186c0.384,0,0.677,0.132,0.878,0.396
			C18.283,19.906,18.384,20.293,18.384,20.801L18.384,20.801z"/>
		<path style="fill:#086FB8;" d="M14.459,21.093v1.694h-1.043l-0.026-0.407c-0.142,0.201-0.314,0.349-0.516,0.443
			c-0.201,0.094-0.444,0.141-0.728,0.141c-0.356,0-0.639-0.101-0.851-0.303c-0.21-0.201-0.316-0.471-0.316-0.806
			c0-0.388,0.154-0.675,0.46-0.862c0.307-0.187,0.779-0.281,1.418-0.281h0.47v-0.047c0-0.191-0.073-0.337-0.22-0.439
			c-0.147-0.102-0.361-0.153-0.641-0.153c-0.138,0-0.295,0.024-0.47,0.073c-0.176,0.049-0.365,0.12-0.567,0.213l-0.02-0.79
			c0.196-0.082,0.407-0.143,0.635-0.183c0.228-0.04,0.479-0.06,0.752-0.06c0.574,0,0.995,0.143,1.262,0.427
			C14.325,20.037,14.459,20.484,14.459,21.093L14.459,21.093z M13.183,21.293c-0.4,0-0.69,0.043-0.866,0.128
			c-0.177,0.085-0.265,0.223-0.265,0.412c0,0.136,0.048,0.246,0.142,0.33c0.094,0.085,0.22,0.127,0.376,0.127
			c0.248,0,0.451-0.081,0.608-0.245c0.157-0.164,0.236-0.377,0.236-0.641v-0.112H13.183L13.183,21.293z"/>
		<path style="fill:#086FB8;" d="M6.671,17.889h2.021c0.843,0,1.722,0.177,1.722,1.187c0,0.506-0.419,1.026-0.865,1.148
			c0.674,0.12,1.071,0.571,1.071,1.259c0,1.129-1.109,1.329-2.028,1.329H6.671V17.889L6.671,17.889z M7.711,18.612v1.214h0.524
			c0.364,0,0.637-0.052,0.817-0.155c0.18-0.103,0.27-0.26,0.27-0.473c0-0.191-0.085-0.337-0.255-0.436
			c-0.169-0.099-0.421-0.149-0.75-0.149H7.711L7.711,18.612z M7.711,20.7v1.225h0.677c0.353,0,0.62-0.053,0.801-0.159
			c0.182-0.106,0.273-0.262,0.273-0.465c0-0.2-0.084-0.351-0.25-0.451c-0.168-0.1-0.416-0.15-0.747-0.15H7.711L7.711,20.7z"/>
		<path style="fill-rule:evenodd;clip-rule:evenodd;fill:#086FB8;" d="M22.674,17.629c0.372,0,0.673,0.281,0.673,0.627
			c0,0.346-0.301,0.627-0.673,0.627c-0.372,0-0.673-0.281-0.673-0.627C22.001,17.909,22.302,17.629,22.674,17.629L22.674,17.629z"/>
		<path style="fill-rule:evenodd;clip-rule:evenodd;fill:#086FB8;" d="M23.686,22.463c0.2-0.195,0.4-0.39,0.6-0.585
			c0.216,0.371,1.412,0.555,1.406,0.032c-0.007-0.624-1.977-0.167-1.808-1.535c0.098-0.799,0.992-1.05,1.445-1.05
			c0.46,0,0.868,0.132,1.201,0.42c-0.174,0.205-0.348,0.383-0.521,0.589c-0.086-0.153-1.129-0.467-1.237,0.024
			c-0.104,0.476,0.776,0.366,1.272,0.56c0.41,0.161,0.653,0.426,0.602,0.969c-0.065,0.701-0.624,1.119-1.538,1.112
			C24.814,22.998,24.159,22.916,23.686,22.463L23.686,22.463z"/>
	</g>
</g>
</svg>
