<?xml version="1.0" encoding="utf-8"?>
<!-- Generator: Adobe Illustrator 18.0.0, SVG Export Plug-In . SVG Version: 6.00 Build 0)  -->
<!DOCTYPE svg PUBLIC "-//W3C//DTD SVG 1.1//EN" "http://www.w3.org/Graphics/SVG/1.1/DTD/svg11.dtd">
<svg version="1.1" id="Layer_1" xmlns="http://www.w3.org/2000/svg" xmlns:xlink="http://www.w3.org/1999/xlink" x="0px" y="0px"
	 width="39px" height="26px" viewBox="0 0 39 26" style="enable-background:new 0 0 39 26;" xml:space="preserve">
<g>
	<path style="fill:#F3F4F4;" d="M2.001,25.5c-0.828,0-1.501-0.674-1.501-1.501V2.001C0.5,1.173,1.173,0.5,2.001,0.5h34.998
		c0.827,0,1.501,0.673,1.501,1.501v21.998c0,0.827-0.674,1.501-1.501,1.501H2.001z"/>
	<path style="fill:#DADBD9;" d="M36.999,1C37.551,1,38,1.449,38,2.001v21.998C38,24.551,37.551,25,36.999,25H2.001
		C1.449,25,1,24.551,1,23.999V2.001C1,1.449,1.449,1,2.001,1H36.999 M36.999,0H2.001C0.896,0,0,0.896,0,2.001v21.998
		C0,25.104,0.896,26,2.001,26h34.997C38.104,26,39,25.104,39,23.999V2.001C39,0.896,38.104,0,36.999,0L36.999,0z"/>
</g>
<g>
	<polygon style="fill:#FFF200;" points="2.421,3.5 36.579,3.5 36.579,22.5 2.421,22.5 2.421,3.5 2.421,3.5 	"/>
	<path style="fill-rule:evenodd;clip-rule:evenodd;fill:#0060A9;" d="M4.147,18.933v1.841h1.41c0.338,0,1.178-0.038,1.178-0.912
		c0-0.473-0.148-0.802-0.713-0.874c0.068-0.013,0.13-0.032,0.187-0.055L4.147,18.933L4.147,18.933L4.147,18.933z M7.318,18.933
		l-0.564,1.841h0.709l0.177-0.625h0.761l0.173,0.625h0.752l-0.553-1.841H8.095l0.193,0.782H7.744l0.176-0.782H7.318L7.318,18.933
		L7.318,18.933z M9.492,18.933v1.841h0.609v-1.841H9.492L9.492,18.933L9.492,18.933z M10.118,18.933l0.769,1.841h0.846v-1.841h-0.61
		v0.844l-0.353-0.844H10.118L10.118,18.933L10.118,18.933z M12.031,18.933c-0.008,0.137-0.009,0.284-0.009,0.438
		c0,0.848-0.026,1.486,1.072,1.486c0.623,0,0.987-0.247,0.987-1.016h-0.709c-0.009,0.227-0.013,0.586-0.278,0.586
		c-0.302,0-0.346-0.182-0.346-1.056c0-0.171,0.003-0.315,0.008-0.437L12.031,18.933L12.031,18.933L12.031,18.933z M14.3,18.933
		c-0.008,0.142-0.008,0.289-0.008,0.438c0,0.753,0,1.486,1.098,1.486c1.098,0,1.098-0.733,1.098-1.486c0-0.149,0-0.296-0.008-0.436
		l-0.736-0.001c0.007,0.125,0.009,0.271,0.009,0.438c0,0.737-0.042,1.056-0.363,1.056c-0.322,0-0.363-0.319-0.363-1.056
		c0-0.167,0.002-0.312,0.009-0.437L14.3,18.933L14.3,18.933L14.3,18.933z M17.268,18.933v1.841h1.072c1.124,0,1.05-0.996,1.05-1.43
		c0-0.147-0.004-0.284-0.016-0.41l-0.718-0.001c0.01,0.131,0.01,0.278,0.01,0.431c0,0.709-0.067,0.98-0.411,0.98h-0.273v-1.411
		H17.268L17.268,18.933L17.268,18.933z M19.665,18.933c-0.009,0.144-0.009,0.293-0.009,0.444c0,0.75,0,1.48,1.098,1.48
		c1.099,0,1.099-0.73,1.099-1.48c0-0.151,0-0.3-0.009-0.443l-0.737-0.001c0.007,0.126,0.01,0.274,0.01,0.444
		c0,0.734-0.041,1.052-0.363,1.052c-0.321,0-0.363-0.317-0.363-1.052c0-0.17,0.002-0.317,0.01-0.444H19.665L19.665,18.933
		L19.665,18.933z M22.596,18.933v1.842h1.41c0.338,0,1.178-0.038,1.178-0.912c0-0.472-0.148-0.802-0.713-0.873
		c0.07-0.014,0.135-0.033,0.193-0.057L22.596,18.933L22.596,18.933L22.596,18.933z M25.421,18.933v1.841h0.736v-1.841H25.421
		L25.421,18.933L25.421,18.933z M26.777,18.933c-0.033,0.179-0.14,0.308-0.296,0.298l-0.205,0.003l0.67,1.539h1.176l0.177-0.625
		h0.761l0.173,0.625l1.709,0c0.472,0,0.951-0.063,0.951-0.793c0-0.685-0.807-0.758-1.11-1.049l-0.972,0.001
		c0.195,0.641,1.326,0.662,1.326,1.093c0,0.191-0.103,0.32-0.312,0.32l-0.969,0l-0.424-1.413h-0.678l0.194,0.784h-0.545l0.176-0.784
		h-0.605l-0.492,1.587l-0.499-1.103c0.289-0.054,0.44-0.21,0.492-0.482L26.777,18.933L26.777,18.933L26.777,18.933z M32.159,18.933
		v1.841h0.718v-1.841H32.159L32.159,18.933L32.159,18.933z M33.298,18.933v1.841h1.555v-0.427h-0.837v-1.414H33.298L33.298,18.933
		L33.298,18.933z M5.188,19.265h0.111c0.421,0,0.555,0.186,0.555,0.492c0,0.482-0.399,0.487-0.577,0.487H5.015v-0.973L5.188,19.265
		L5.188,19.265L5.188,19.265z M23.684,19.271h0.179c0.343,0,0.452,0.186,0.452,0.492c0,0.482-0.325,0.487-0.47,0.487h-0.379v-0.973
		L23.684,19.271L23.684,19.271L23.684,19.271z"/>
	<path style="fill-rule:evenodd;clip-rule:evenodd;fill:#0060A9;" d="M6.209,18.933c0.308-0.122,0.462-0.378,0.462-0.712
		c0-0.735-0.502-0.893-1.109-0.893H4.147v1.605H6.209L6.209,18.933L6.209,18.933z M7.92,18.933l0.084-0.372l0.092,0.372h0.678
		l-0.294-0.98h-0.86l-0.3,0.98H7.92L7.92,18.933L7.92,18.933z M10.101,18.933v-0.04l0.017,0.04h0.652l-0.41-0.98H9.492v0.98H10.101
		L10.101,18.933L10.101,18.933z M11.732,18.933v-0.98h-0.61v0.98H11.732L11.732,18.933L11.732,18.933z M12.757,18.933
		c0.025-0.518,0.111-0.618,0.324-0.618c0.189,0,0.274,0.144,0.274,0.526h0.704c0.026-0.618-0.317-0.956-0.996-0.956
		c-0.828,0-0.998,0.43-1.032,1.049L12.757,18.933L12.757,18.933L12.757,18.933z M15.036,18.933c0.024-0.428,0.105-0.618,0.354-0.618
		c0.248,0,0.33,0.191,0.354,0.619l0.736,0c-0.034-0.579-0.206-1.049-1.09-1.049c-0.884,0-1.056,0.47-1.09,1.05L15.036,18.933
		L15.036,18.933L15.036,18.933z M17.982,18.933v-0.549h0.291c0.277,0,0.358,0.229,0.382,0.548l0.718,0.001
		c-0.057-0.629-0.289-0.989-1.008-0.989h-1.098v0.989H17.982L17.982,18.933L17.982,18.933z M20.401,18.933
		c0.025-0.42,0.106-0.608,0.353-0.608c0.247,0,0.329,0.187,0.353,0.608h0.737c-0.035-0.573-0.21-1.036-1.09-1.036
		c-0.88,0-1.055,0.464-1.09,1.037L20.401,18.933L20.401,18.933L20.401,18.933z M24.664,18.933c0.304-0.125,0.456-0.38,0.456-0.712
		c0-0.735-0.502-0.893-1.109-0.893h-1.415v1.605H24.664L24.664,18.933L24.664,18.933z M26.156,18.933v-0.546H26.4
		c0.208,0,0.388,0.151,0.388,0.429c0,0.041-0.004,0.081-0.011,0.119l0.698-0.002c0.014-0.071,0.02-0.152,0.021-0.242
		c0.001-0.48-0.285-0.738-0.731-0.738h-1.345v0.98H26.156L26.156,18.933L26.156,18.933z M28.579,18.933l0.083-0.37l0.091,0.37h0.678
		l-0.294-0.98h-0.86l-0.304,0.98H28.579L28.579,18.933L28.579,18.933z M30.783,18.933c-0.07-0.068-0.113-0.147-0.113-0.247
		c0-0.195,0.119-0.301,0.32-0.301h0.654v-0.434h-0.919c-0.756,0-0.943,0.341-0.943,0.782c0,0.072,0.01,0.139,0.028,0.199
		L30.783,18.933L30.783,18.933L30.783,18.933z M32.877,18.933v-0.98h-0.718v0.98H32.877L32.877,18.933L32.877,18.933z
		 M34.016,18.933v-0.98h-0.718v0.98H34.016L34.016,18.933L34.016,18.933z M5.015,18.739v-0.881h0.312
		c0.283,0,0.482,0.186,0.482,0.439c0,0.334-0.255,0.439-0.438,0.439H5.079L5.015,18.739L5.015,18.739L5.015,18.739z M23.465,18.744
		v-0.881h0.42c0.23,0,0.393,0.186,0.393,0.439c0,0.334-0.208,0.439-0.357,0.439h-0.238L23.465,18.744L23.465,18.744L23.465,18.744z"
		/>
	<path style="fill-rule:evenodd;clip-rule:evenodd;fill:#0060A9;" d="M22.574,6.666l1.059,0.725l1.036-0.692l0.002-1.423
		L22.574,6.666L22.574,6.666L22.574,6.666z M16.451,14.206l-1.055-0.719l-1.056,0.721v1.394L16.451,14.206L16.451,14.206
		L16.451,14.206z M20.458,8.052l1.034,0.696l-4.913,3.324l3.036,2.049l1.426-0.966l-1.108-0.734l2.556-1.713l2.139,1.419
		l-5.167,3.444l-5.098-3.42L20.458,8.052L20.458,8.052L20.458,8.052z M18.523,12.768l-1.034-0.696l4.913-3.324l-3.036-2.049
		L17.94,7.665l1.108,0.734l-2.556,1.713l-2.139-1.419l5.149-3.444l5.112,3.436L18.523,12.768L18.523,12.768L18.523,12.768z"/>
</g>
</svg>
