<?xml version="1.0" encoding="utf-8"?>
<!-- Generator: Adobe Illustrator 18.0.0, SVG Export Plug-In . SVG Version: 6.00 Build 0)  -->
<!DOCTYPE svg PUBLIC "-//W3C//DTD SVG 1.1//EN" "http://www.w3.org/Graphics/SVG/1.1/DTD/svg11.dtd">
<svg version="1.1" id="Layer_1" xmlns="http://www.w3.org/2000/svg" xmlns:xlink="http://www.w3.org/1999/xlink" x="0px" y="0px"
	 width="39px" height="26px" viewBox="0 0 39 26" style="enable-background:new 0 0 39 26;" xml:space="preserve">
<g>
	<path style="fill:#F3F4F4;" d="M2.001,25.5c-0.828,0-1.501-0.674-1.501-1.501V2.001C0.5,1.173,1.173,0.5,2.001,0.5h34.998
		c0.827,0,1.501,0.673,1.501,1.501v21.998c0,0.827-0.674,1.501-1.501,1.501H2.001z"/>
	<path style="fill:#DADBD9;" d="M36.999,1C37.551,1,38,1.449,38,2.001v21.998C38,24.551,37.551,25,36.999,25H2.001
		C1.449,25,1,24.551,1,23.999V2.001C1,1.449,1.449,1,2.001,1H36.999 M36.999,0H2.001C0.896,0,0,0.896,0,2.001v21.998
		C0,25.104,0.896,26,2.001,26h34.997C38.104,26,39,25.104,39,23.999V2.001C39,0.896,38.104,0,36.999,0L36.999,0z"/>
</g>
<g>
	<g>
		<path style="fill:#282827;" d="M8.247,3.246h3v10.96h-3V3.246z M12.249,3.246h1.002v10.96h-1.002V3.246z M14.247,3.246h3v10.96h-3
			V3.246z M18.249,3.246h1.002v10.96h-1.002V3.246z M20.247,3.246h1.002v10.96h-1.002V3.246z M22.251,3.246h1.5v10.96h-1.5V3.246z
			 M24.789,14.231l3.96,0.016v-11h-4.002L24.789,14.231z M29.751,3.246h1.002v11h-1.002V3.246z M31.749,3.246h1.998v11h-1.998V3.246
			z M34.749,3.246h1.002v11h-1.002V3.246z M3.249,3.246h1.998v10.96H3.249V3.246z M6.249,3.246h1.002v10.96H6.249V3.246z"/>
	</g>
	<g>
		<path style="fill:#231F20;" d="M3.569,16.788h2.099c1.058,0,1.809,0.545,1.809,1.512c0,0.545-0.264,1.016-0.711,1.256v0.016
			c0.645,0.19,0.951,0.785,0.951,1.38c0,1.173-0.943,1.702-2.025,1.702H3.569V16.788z M5.668,19.184
			c0.463,0,0.727-0.331,0.727-0.752c0-0.422-0.248-0.727-0.744-0.727H4.635v1.479H5.668z M5.775,21.738
			c0.546,0,0.851-0.356,0.851-0.851c0-0.488-0.314-0.843-0.851-0.843h-1.14v1.694H5.775z"/>
		<path style="fill:#231F20;" d="M11.505,16.689c1.727,0,3.033,1.314,3.033,2.992c0,1.727-1.305,3.074-3.033,3.074
			s-3.033-1.347-3.033-3.074C8.473,18.002,9.778,16.689,11.505,16.689z M11.505,21.779c1.074,0,1.934-0.892,1.934-2.099
			c0-1.157-0.86-2.017-1.934-2.017c-1.075,0-1.934,0.86-1.934,2.017C9.572,20.887,10.431,21.779,11.505,21.779z"/>
		<path style="fill:#231F20;" d="M15.624,16.788h1.066v4.95h2.537v0.917h-3.603V16.788z"/>
		<path style="fill:#231F20;" d="M20.08,16.788h3.512v0.917h-2.446v1.537h1.975v0.917h-1.975v1.579h2.578v0.917H20.08V16.788z"/>
		<path style="fill:#231F20;" d="M26.049,17.705h-1.926v-0.917h4.917v0.917h-1.925v4.95h-1.066V17.705z"/>
		<path style="fill:#231F20;" d="M32.398,16.689c1.727,0,3.033,1.314,3.033,2.992c0,1.727-1.305,3.074-3.033,3.074
			c-1.727,0-3.033-1.347-3.033-3.074C29.366,18.002,30.671,16.689,32.398,16.689z M32.398,21.779c1.074,0,1.934-0.892,1.934-2.099
			c0-1.157-0.86-2.017-1.934-2.017c-1.075,0-1.934,0.86-1.934,2.017C30.465,20.887,31.324,21.779,32.398,21.779z"/>
	</g>
</g>
</svg>
