<?xml version="1.0" encoding="utf-8"?>
<!-- Generator: Adobe Illustrator 18.0.0, SVG Export Plug-In . SVG Version: 6.00 Build 0)  -->
<!DOCTYPE svg PUBLIC "-//W3C//DTD SVG 1.1//EN" "http://www.w3.org/Graphics/SVG/1.1/DTD/svg11.dtd">
<svg version="1.1" id="Layer_1" xmlns="http://www.w3.org/2000/svg" xmlns:xlink="http://www.w3.org/1999/xlink" x="0px" y="0px"
	 width="39px" height="26px" viewBox="0 0 39 26" style="enable-background:new 0 0 39 26;" xml:space="preserve">
<g>
	<path style="fill:#F3F4F4;" d="M2.001,25.5c-0.828,0-1.501-0.674-1.501-1.501V2.001C0.5,1.173,1.173,0.5,2.001,0.5h34.998
		c0.827,0,1.501,0.673,1.501,1.501v21.998c0,0.827-0.674,1.501-1.501,1.501H2.001z"/>
	<path style="fill:#DADBD9;" d="M36.999,1C37.551,1,38,1.449,38,2.001v21.998C38,24.551,37.551,25,36.999,25H2.001
		C1.449,25,1,24.551,1,23.999V2.001C1,1.449,1.449,1,2.001,1H36.999 M36.999,0H2.001C0.896,0,0,0.896,0,2.001v21.998
		C0,25.104,0.896,26,2.001,26h34.997C38.104,26,39,25.104,39,23.999V2.001C39,0.896,38.104,0,36.999,0L36.999,0z"/>
</g>
<g>
	<path style="fill:#55565A;" d="M28.803,22.522c0.042,0.109,0.146,0.4,0.372,0.707c-0.054,0.026-0.183,0.086-0.263,0.117
		c0,0-0.365,0.154-0.841,0.154c-0.985,0-1.736-0.666-1.736-1.811c0-1.152,0.751-1.819,1.736-1.819c0.275,0,0.522,0.055,0.74,0.153
		v-0.001c0.144,0.07,0.252,0.138,0.316,0.184c-0.162,0.215-0.291,0.476-0.368,0.751c-0.162-0.111-0.335-0.173-0.584-0.173
		c-0.446,0-0.775,0.325-0.775,0.924c0,0.55,0.394,0.89,0.838,0.893c0.231,0.001,0.398-0.069,0.491-0.118
		c0.016-0.005,0.036-0.018,0.048-0.021C28.782,22.46,28.787,22.484,28.803,22.522 M6.233,23.42h1.778
		c0.716,0,1.558-0.233,1.558-1.345c0-0.566-0.275-0.899-0.808-1.026v-0.013c0.447-0.173,0.704-0.499,0.704-1.086
		c0-0.799-0.555-1.179-1.3-1.179H6.233V23.42z M7.298,21.449h0.42c0.367,0,0.785,0.046,0.785,0.552c0,0.473-0.407,0.54-0.796,0.54
		H7.298V21.449z M7.298,19.651h0.404c0.355,0,0.698,0.04,0.698,0.466c0,0.392-0.361,0.492-0.71,0.492H7.298V19.651z M19.355,18.759
		h-1.036v1.637h-0.011c-0.264-0.4-0.613-0.527-1.025-0.527c-0.825,0-1.278,0.9-1.278,1.752c0,1.025,0.475,1.878,1.363,1.878
		c0.44,0,0.825-0.216,1.026-0.602h0.011v0.521h0.951V18.759z M17.695,22.581c-0.389,0-0.624-0.38-0.624-0.932
		c0-0.459,0.224-0.858,0.624-0.858c0.378,0,0.63,0.378,0.63,0.904C18.325,22.201,18.039,22.581,17.695,22.581 M29.296,21.689
		c0,1.145,0.75,1.811,1.736,1.811c0.985,0,1.735-0.666,1.735-1.811c0-1.152-0.75-1.819-1.735-1.819
		C30.046,19.87,29.296,20.537,29.296,21.689 M31.702,21.689c0,0.512-0.196,0.972-0.67,0.972c-0.476,0-0.67-0.46-0.67-0.972
		c0-0.52,0.195-0.979,0.67-0.979C31.506,20.71,31.702,21.169,31.702,21.689 M14.519,23.42v-0.458
		c-0.19,0.353-0.526,0.539-0.916,0.539c-0.59,0-1.117-0.34-1.117-1.092c0-1.059,0.991-1.186,1.541-1.186
		c0.167,0,0.349,0.021,0.481,0.048c-0.006-0.473-0.309-0.6-0.681-0.6c-0.332,0-0.665,0.074-0.951,0.26l0-0.009v-0.811
		c0.362-0.167,0.74-0.239,1.174-0.239c0.762,0,1.421,0.38,1.421,1.439v1.293c0,0.273,0.011,0.544,0.057,0.818H14.519z
		 M14.514,21.859c-0.132-0.006-0.287-0.019-0.441-0.019c-0.35,0-0.625,0.127-0.625,0.459c0,0.24,0.184,0.38,0.424,0.38
		c0.281,0,0.506-0.122,0.642-0.36V21.859z M11.983,19.87c-0.447,0-0.705,0.28-0.883,0.719H11.09V19.95h-0.939v3.47h1.031v-1.465
		c0-0.678,0.266-1.087,0.746-1.122c0.099-0.007,0.265,0.021,0.353,0.056v-0.966C12.194,19.892,12.076,19.87,11.983,19.87
		 M22.992,22.035h-2.061c0.057,0.479,0.372,0.666,0.876,0.666c0.281,0,0.601-0.073,0.911-0.266v0.846
		c-0.332,0.152-0.711,0.22-1.095,0.22c-0.984,0-1.735-0.673-1.735-1.818c0-1.145,0.67-1.812,1.599-1.812
		c1.105,0,1.505,0.913,1.505,1.945V22.035z M22.064,21.356c0-0.399-0.16-0.726-0.573-0.726c-0.372,0-0.55,0.327-0.573,0.726H22.064z
		 M24.725,19.87c-0.594,0-1.271,0.327-1.271,1.127c0,1.251,1.467,0.839,1.467,1.425c0,0.239-0.206,0.279-0.418,0.279
		c-0.372,0-0.728-0.119-0.968-0.239v0.826c0.272,0.111,0.59,0.213,1.025,0.213c0.676,0,1.392-0.233,1.392-1.159
		c0-1.319-1.536-0.892-1.536-1.432c0-0.194,0.253-0.245,0.476-0.24c0.237,0.006,0.605,0.105,0.823,0.259v-0.852
		C25.4,19.942,25.057,19.87,24.725,19.87"/>
	<g>
		<rect x="12.527" y="2.5" style="fill:#CF0A2C;" width="13.945" height="13.945"/>
		<rect x="18.184" y="10.967" style="fill:#FFFFFF;" width="0.687" height="3.518"/>
		<rect x="19.495" y="9.656" style="fill:#FFFFFF;" width="1.125" height="4.829"/>
		<path style="fill:#FFFFFF;" d="M17.568,6.293c0,0,1.134-1.108,3.044-0.744c0,0,0.841,0.131,1.486,0.703
			c0,0,0.096,0.09,0.169,0.016c0,0,0.094-0.073-0.01-0.183c0,0-0.554-0.769-1.648-1.108c0,0-1.503-0.538-3.046,0.189
			c0,0-0.95,0.394-1.477,1.466c0,0-0.751,0.243-1.314,0.559c0,0-0.167,0.066-0.104,0.195c0,0,0.054,0.093,0.2,0.024
			c0,0,0.523-0.18,1.027-0.293c0,0-0.406,1.052,0.018,2.357c0.188,0.581,0.532,1.172,1.058,1.648c0,0,0.086,0.09,0.179,0.029
			c0,0,0.081-0.059,0.024-0.155c0,0-0.419-0.631-0.582-1.527c-0.136-0.731-0.072-1.741,0.436-2.541c0,0,1.933-0.27,3.581,0.351
			c0,0,2.799,0.913,2.095,2.607c0,0-0.205,0.589-0.977,1.121c0,0-0.129,0.075-0.059,0.183c0,0,0.058,0.084,0.191,0.03
			c0,0,1.183-0.385,1.694-1.335c0,0,1.036-1.585-1.407-2.879c0,0-0.672-0.359-1.535-0.551C20.61,6.454,19.054,6.069,17.568,6.293"/>
	</g>
</g>
</svg>
