<?xml version="1.0" encoding="utf-8"?>
<!-- Generator: Adobe Illustrator 18.0.0, SVG Export Plug-In . SVG Version: 6.00 Build 0)  -->
<!DOCTYPE svg PUBLIC "-//W3C//DTD SVG 1.1//EN" "http://www.w3.org/Graphics/SVG/1.1/DTD/svg11.dtd">
<svg version="1.1" id="Layer_1" xmlns="http://www.w3.org/2000/svg" xmlns:xlink="http://www.w3.org/1999/xlink" x="0px" y="0px"
	 width="39px" height="26px" viewBox="0 0 39 26" style="enable-background:new 0 0 39 26;" xml:space="preserve">
<g>
	<path style="fill:#F3F4F4;" d="M2.001,25.5c-0.828,0-1.501-0.674-1.501-1.501V2.001C0.5,1.173,1.173,0.5,2.001,0.5h34.998
		c0.827,0,1.501,0.673,1.501,1.501v21.998c0,0.827-0.674,1.501-1.501,1.501H2.001z"/>
	<path style="fill:#DADBD9;" d="M36.999,1C37.551,1,38,1.449,38,2.001v21.998C38,24.551,37.551,25,36.999,25H2.001
		C1.449,25,1,24.551,1,23.999V2.001C1,1.449,1.449,1,2.001,1H36.999 M36.999,0H2.001C0.896,0,0,0.896,0,2.001v21.998
		C0,25.104,0.896,26,2.001,26h34.997C38.104,26,39,25.104,39,23.999V2.001C39,0.896,38.104,0,36.999,0L36.999,0z"/>
</g>
<g>
	<path style="fill:#231F20;" d="M3.351,7.303h1.585c1.434,0,2.371,0.851,2.371,2.318s-0.936,2.332-2.371,2.332H3.351V7.303z
		 M4.89,11.226c0.943,0,1.546-0.557,1.546-1.605c0-1.035-0.616-1.592-1.546-1.592H4.196v3.196H4.89z"/>
	<path style="fill:#231F20;" d="M8.194,7.303h2.783V8.03H9.039v1.218h1.565v0.727H9.039v1.251h2.044v0.727H8.194V7.303z"/>
	<path style="fill:#231F20;" d="M11.962,7.303h1.795c0.871,0,1.48,0.609,1.48,1.513c0,0.904-0.609,1.532-1.48,1.532h-0.95v1.605
		h-0.845V7.303z M13.599,9.615c0.491,0,0.779-0.314,0.779-0.799c0-0.478-0.288-0.786-0.766-0.786h-0.806v1.585H13.599z"/>
	<path style="fill:#231F20;" d="M18.068,7.225c1.369,0,2.404,1.041,2.404,2.371c0,1.369-1.035,2.436-2.404,2.436
		c-1.369,0-2.404-1.068-2.404-2.436C15.664,8.266,16.699,7.225,18.068,7.225z M18.068,11.259c0.851,0,1.532-0.707,1.532-1.663
		c0-0.917-0.681-1.598-1.532-1.598c-0.852,0-1.533,0.681-1.533,1.598C16.535,10.552,17.216,11.259,18.068,11.259z M18.205,6.105
		h0.858l-0.688,0.891h-0.668L18.205,6.105z"/>
	<path style="fill:#231F20;" d="M21.437,10.761c0,0,0.504,0.491,1.159,0.491c0.354,0,0.675-0.183,0.675-0.563
		c0-0.832-2.194-0.688-2.194-2.115c0-0.773,0.668-1.349,1.559-1.349c0.917,0,1.388,0.498,1.388,0.498L23.657,8.41
		c0,0-0.445-0.406-1.028-0.406c-0.393,0-0.701,0.229-0.701,0.557c0,0.825,2.188,0.622,2.188,2.109c0,0.74-0.563,1.362-1.533,1.362
		c-1.035,0-1.605-0.635-1.605-0.635L21.437,10.761z"/>
	<path style="fill:#231F20;" d="M24.963,7.303h0.845v4.65h-0.845V7.303z"/>
	<path style="fill:#231F20;" d="M27.95,8.03h-1.526V7.303h3.897V8.03h-1.526v3.923H27.95V8.03z"/>
	<path style="fill:#231F20;" d="M32.982,7.225c1.369,0,2.404,1.041,2.404,2.371c0,1.369-1.035,2.436-2.404,2.436
		c-1.369,0-2.404-1.068-2.404-2.436C30.579,8.266,31.614,7.225,32.982,7.225z M32.982,11.259c0.852,0,1.533-0.707,1.533-1.663
		c0-0.917-0.681-1.598-1.533-1.598c-0.851,0-1.532,0.681-1.532,1.598C31.45,10.552,32.131,11.259,32.982,11.259z"/>
	<path style="fill:#231F20;" d="M2.817,15.167h2.783v0.727H3.662v1.218h1.565v0.727H3.662v1.251h2.044v0.727H2.817V15.167z"/>
	<path style="fill:#231F20;" d="M6.821,15.167h0.904l0.911,2.299c0.105,0.275,0.236,0.681,0.236,0.681h0.013
		c0,0,0.125-0.406,0.229-0.681l0.91-2.299h0.904l0.373,4.65h-0.838l-0.197-2.6c-0.02-0.308-0.007-0.72-0.007-0.72h-0.013
		c0,0-0.138,0.452-0.249,0.72l-0.753,1.801h-0.74l-0.747-1.801c-0.111-0.269-0.255-0.727-0.255-0.727H7.489
		c0,0,0.013,0.419-0.006,0.727l-0.197,2.6H6.441L6.821,15.167z"/>
	<path style="fill:#231F20;" d="M16,15.088c1.133,0,1.716,0.635,1.716,0.635l-0.406,0.629c0,0-0.531-0.491-1.271-0.491
		c-0.983,0-1.559,0.734-1.559,1.598c0,0.884,0.596,1.664,1.565,1.664c0.806,0,1.349-0.589,1.349-0.589l0.445,0.609
		c0,0-0.642,0.753-1.827,0.753c-1.421,0-2.404-1.055-2.404-2.423C13.61,16.123,14.632,15.088,16,15.088z"/>
	<path style="fill:#231F20;" d="M20.679,15.088c1.369,0,2.404,1.041,2.404,2.371c0,1.369-1.035,2.437-2.404,2.437
		c-1.369,0-2.404-1.068-2.404-2.437C18.275,16.13,19.31,15.088,20.679,15.088z M20.679,19.123c0.852,0,1.533-0.707,1.533-1.664
		c0-0.917-0.681-1.598-1.533-1.598c-0.851,0-1.532,0.681-1.532,1.598C19.147,18.415,19.828,19.123,20.679,19.123z"/>
	<path style="fill:#231F20;" d="M23.944,15.167h0.845l1.762,2.685c0.177,0.269,0.386,0.72,0.386,0.72h0.013
		c0,0-0.046-0.445-0.046-0.72v-2.685h0.838v4.65h-0.838l-1.762-2.679c-0.177-0.269-0.387-0.72-0.387-0.72h-0.013
		c0,0,0.046,0.445,0.046,0.72v2.679h-0.845V15.167z"/>
	<path style="fill:#231F20;" d="M29.887,15.894h-1.526v-0.727h3.897v0.727h-1.526v3.923h-0.845V15.894z"/>
	<path style="fill:#231F20;" d="M34.919,18.625h-1.631l-0.393,1.192h-0.871l1.637-4.65h0.884l1.637,4.65h-0.871L34.919,18.625z
		 M34.1,15.972c0,0-0.105,0.458-0.197,0.72l-0.412,1.244h1.218l-0.412-1.244c-0.085-0.262-0.183-0.72-0.183-0.72H34.1z"/>
</g>
</svg>
