<?xml version="1.0" encoding="utf-8"?>
<!-- Generator: Adobe Illustrator 18.0.0, SVG Export Plug-In . SVG Version: 6.00 Build 0)  -->
<!DOCTYPE svg PUBLIC "-//W3C//DTD SVG 1.1//EN" "http://www.w3.org/Graphics/SVG/1.1/DTD/svg11.dtd">
<svg version="1.1" id="Layer_1" xmlns="http://www.w3.org/2000/svg" xmlns:xlink="http://www.w3.org/1999/xlink" x="0px" y="0px"
	 width="39px" height="26px" viewBox="0 0 39 26" style="enable-background:new 0 0 39 26;" xml:space="preserve">
<g>
	<path style="fill:#F3F4F4;" d="M2.001,25.5c-0.828,0-1.501-0.674-1.501-1.501V2.001C0.5,1.173,1.173,0.5,2.001,0.5h34.998
		c0.827,0,1.501,0.673,1.501,1.501v21.998c0,0.827-0.674,1.501-1.501,1.501H2.001z"/>
	<path style="fill:#DADBD9;" d="M36.999,1C37.551,1,38,1.449,38,2.001v21.998C38,24.551,37.551,25,36.999,25H2.001
		C1.449,25,1,24.551,1,23.999V2.001C1,1.449,1.449,1,2.001,1H36.999 M36.999,0H2.001C0.896,0,0,0.896,0,2.001v21.998
		C0,25.104,0.896,26,2.001,26h34.997C38.104,26,39,25.104,39,23.999V2.001C39,0.896,38.104,0,36.999,0L36.999,0z"/>
</g>
<g>
	<path style="fill:#004A97;" d="M20.659,14.586c3.167,0.015,6.058-2.582,6.058-5.743c0-3.455-2.891-5.844-6.058-5.843h-2.726
		c-3.205-0.001-5.843,2.388-5.843,5.843c0,3.161,2.638,5.758,5.843,5.743H20.659z"/>
	<path style="fill:#FFFFFF;" d="M19.149,11.921V5.646c1.261,0.483,2.157,1.705,2.159,3.137
		C21.306,10.216,20.411,11.436,19.149,11.921 M14.585,8.783c0.003-1.431,0.897-2.652,2.158-3.137v6.274
		C15.482,11.434,14.588,10.215,14.585,8.783 M17.946,3.479c-2.929,0.001-5.302,2.374-5.302,5.304
		c0.001,2.929,2.374,5.302,5.302,5.303c2.929-0.001,5.303-2.374,5.304-5.303C23.249,5.854,20.876,3.48,17.946,3.479"/>
	<path style="fill:#231F20;" d="M6.271,18.574c0,0.469,0.335,0.524,0.634,0.524c1.317,0,1.749-0.993,1.749-1.901
		c0-1.139-0.731-1.962-1.907-1.962c-0.25,0-0.365,0.018-0.476,0.024V18.574z M5.673,15.717c0-0.548-0.286-0.512-0.56-0.518v-0.158
		c0.238,0.012,0.481,0.012,0.719,0.012c0.256,0,0.603-0.012,1.054-0.012c1.578,0,2.437,1.054,2.437,2.133
		c0,0.604-0.353,2.121-2.511,2.121c-0.31,0-0.597-0.012-0.883-0.012c-0.274,0-0.543,0.006-0.816,0.012v-0.158
		c0.365-0.037,0.542-0.049,0.56-0.463V15.717z"/>
	<path style="fill:#231F20;" d="M10.189,15.571c-0.159,0-0.299-0.146-0.299-0.305c0-0.153,0.146-0.293,0.299-0.293
		c0.158,0,0.299,0.128,0.299,0.293C10.488,15.431,10.353,15.571,10.189,15.571 M9.537,19.135h0.116c0.171,0,0.292,0,0.292-0.202
		v-1.651c0-0.268-0.091-0.305-0.317-0.426v-0.097c0.286-0.086,0.628-0.201,0.652-0.219c0.043-0.024,0.079-0.031,0.11-0.031
		c0.03,0,0.042,0.037,0.042,0.086v2.339c0,0.202,0.134,0.202,0.305,0.202h0.103v0.158c-0.207,0-0.421-0.012-0.64-0.012
		c-0.219,0-0.439,0.006-0.664,0.012V19.135z"/>
	<path style="fill:#231F20;" d="M11.42,17.319c0-0.225-0.067-0.286-0.353-0.402v-0.116c0.261-0.085,0.511-0.165,0.804-0.293
		c0.018,0,0.036,0.012,0.036,0.061v0.396c0.348-0.249,0.646-0.457,1.055-0.457c0.517,0,0.7,0.378,0.7,0.853v1.572
		c0,0.202,0.134,0.202,0.305,0.202h0.11v0.158c-0.214,0-0.427-0.012-0.646-0.012c-0.22,0-0.439,0.006-0.658,0.012v-0.158h0.11
		c0.171,0,0.292,0,0.292-0.202v-1.577c0-0.348-0.212-0.518-0.56-0.518c-0.195,0-0.506,0.158-0.707,0.293v1.803
		c0,0.202,0.135,0.202,0.305,0.202h0.109v0.158c-0.213,0-0.427-0.012-0.646-0.012c-0.219,0-0.439,0.006-0.658,0.012v-0.158h0.11
		c0.17,0,0.292,0,0.292-0.202V17.319z"/>
	<path style="fill:#231F20;" d="M15.619,17.417c0.152,0,0.17-0.079,0.17-0.153c0-0.31-0.189-0.56-0.53-0.56
		c-0.371,0-0.627,0.274-0.701,0.713H15.619z M14.54,17.612c-0.013,0.055-0.013,0.146,0,0.353c0.036,0.579,0.408,1.054,0.895,1.054
		c0.336,0,0.598-0.183,0.823-0.408l0.085,0.085c-0.28,0.372-0.628,0.689-1.127,0.689c-0.969,0-1.164-0.939-1.164-1.329
		c0-1.194,0.804-1.548,1.23-1.548c0.494,0,1.024,0.311,1.03,0.957c0,0.037,0,0.073-0.006,0.11l-0.055,0.037H14.54z"/>
	<path style="fill:#231F20;" d="M16.453,19.135h0.165c0.17,0,0.292,0,0.292-0.202v-1.712c0-0.188-0.225-0.226-0.317-0.274v-0.091
		c0.445-0.189,0.689-0.348,0.744-0.348c0.036,0,0.054,0.018,0.054,0.08v0.548h0.013c0.152-0.238,0.408-0.628,0.78-0.628
		c0.152,0,0.347,0.103,0.347,0.323c0,0.164-0.115,0.311-0.286,0.311c-0.19,0-0.19-0.147-0.403-0.147
		c-0.103,0-0.445,0.141-0.445,0.506v1.431c0,0.202,0.122,0.202,0.292,0.202h0.341v0.158c-0.335-0.006-0.59-0.012-0.853-0.012
		c-0.25,0-0.506,0.006-0.725,0.012V19.135z"/>
	<path style="fill:#231F20;" d="M18.799,18.447c0.08,0.402,0.323,0.744,0.768,0.744c0.359,0,0.493-0.22,0.493-0.433
		c0-0.719-1.328-0.488-1.328-1.469c0-0.342,0.274-0.78,0.945-0.78c0.195,0,0.457,0.055,0.694,0.177l0.043,0.621h-0.14
		c-0.061-0.384-0.274-0.603-0.664-0.603c-0.244,0-0.475,0.14-0.475,0.402c0,0.713,1.413,0.494,1.413,1.45
		c0,0.402-0.322,0.829-1.048,0.829c-0.244,0-0.53-0.086-0.743-0.207l-0.067-0.701L18.799,18.447z"/>
	<path style="fill:#231F20;" d="M26.05,16.143h-0.152c-0.116-0.712-0.622-0.999-1.304-0.999c-0.702,0-1.719,0.469-1.719,1.931
		c0,1.231,0.878,2.115,1.816,2.115c0.603,0,1.103-0.414,1.225-1.055l0.14,0.036l-0.14,0.89c-0.256,0.159-0.945,0.323-1.347,0.323
		c-1.425,0-2.327-0.92-2.327-2.291c0-1.249,1.115-2.145,2.309-2.145c0.493,0,0.969,0.159,1.438,0.324L26.05,16.143z"/>
	<path style="fill:#231F20;" d="M26.27,19.135h0.115c0.171,0,0.293,0,0.293-0.202v-3.393c0-0.396-0.091-0.408-0.323-0.476v-0.098
		c0.244-0.079,0.5-0.189,0.628-0.262c0.066-0.036,0.116-0.067,0.133-0.067c0.037,0,0.049,0.037,0.049,0.086v4.21
		c0,0.202,0.134,0.202,0.305,0.202h0.103v0.158c-0.207,0-0.42-0.012-0.639-0.012c-0.219,0-0.438,0.006-0.664,0.012V19.135z"/>
	<path style="fill:#231F20;" d="M30.182,18.958c0,0.11,0.067,0.116,0.17,0.116c0.074,0,0.164-0.006,0.244-0.006v0.128
		c-0.262,0.024-0.762,0.152-0.878,0.189l-0.03-0.019v-0.494c-0.365,0.298-0.646,0.512-1.079,0.512c-0.329,0-0.67-0.214-0.67-0.725
		V17.1c0-0.159-0.024-0.311-0.365-0.341v-0.116c0.22-0.006,0.706-0.042,0.785-0.042c0.068,0,0.068,0.042,0.068,0.177v1.572
		c0,0.183,0,0.707,0.53,0.707c0.207,0,0.481-0.158,0.737-0.371v-1.64c0-0.122-0.292-0.189-0.511-0.249v-0.11
		c0.548-0.037,0.889-0.086,0.95-0.086c0.049,0,0.049,0.042,0.049,0.11V18.958z"/>
	<path style="fill:#231F20;" d="M31.394,18.605c0,0.232,0.22,0.622,0.628,0.622c0.652,0,0.926-0.64,0.926-1.182
		c0-0.658-0.499-1.206-0.974-1.206c-0.226,0-0.415,0.146-0.579,0.287V18.605z M31.394,16.947c0.244-0.207,0.573-0.439,0.908-0.439
		c0.707,0,1.133,0.616,1.133,1.28c0,0.798-0.585,1.597-1.457,1.597c-0.45,0-0.688-0.147-0.847-0.214l-0.182,0.14l-0.128-0.067
		c0.054-0.359,0.085-0.713,0.085-1.085v-2.62c0-0.396-0.092-0.408-0.323-0.476v-0.098c0.244-0.079,0.5-0.189,0.628-0.262
		c0.067-0.036,0.116-0.067,0.134-0.067c0.036,0,0.049,0.037,0.049,0.086V16.947z"/>
	<path style="fill:#231F20;" d="M5.106,22.837h0.047c0.119,0,0.245-0.016,0.245-0.189v-1.737c0-0.173-0.126-0.189-0.245-0.189H5.106
		v-0.1c0.129,0,0.328,0.013,0.491,0.013c0.166,0,0.364-0.013,0.52-0.013v0.1H6.071c-0.119,0-0.245,0.016-0.245,0.189v1.737
		c0,0.173,0.126,0.189,0.245,0.189h0.047v0.1c-0.159,0-0.358-0.013-0.524-0.013c-0.163,0-0.358,0.013-0.488,0.013V22.837z"/>
	<path style="fill:#231F20;" d="M6.103,22.922l0-0.071H6.072c-0.119,0-0.259-0.021-0.26-0.204v-1.737
		c0.001-0.183,0.142-0.204,0.26-0.204h0.032v-0.071c-0.153,0-0.345,0.013-0.506,0.013c-0.157,0-0.348-0.012-0.477-0.013v0.071h0.032
		c0.118,0,0.259,0.02,0.259,0.204v1.737c0,0.183-0.141,0.204-0.259,0.204H5.121v0.071c0.128-0.001,0.316-0.013,0.473-0.013
		C5.755,22.909,5.947,22.921,6.103,22.922 M6.118,22.951c-0.16,0-0.359-0.013-0.524-0.013c-0.162,0-0.357,0.013-0.488,0.013H5.092
		v-0.014v-0.1v-0.014h0.014h0.046c0.12-0.003,0.23-0.013,0.231-0.175v-1.737c-0.001-0.162-0.11-0.173-0.231-0.175H5.092v-0.014
		v-0.114h0.014c0.13,0,0.329,0.013,0.491,0.013c0.165,0,0.363-0.013,0.52-0.013h0.015v0.015v0.114H6.118H6.072
		c-0.12,0.002-0.23,0.013-0.231,0.175v1.737c0.001,0.162,0.111,0.172,0.231,0.175h0.061v0.014v0.114H6.118z"/>
	<path style="fill:#231F20;" d="M8.396,22.283l0.007-0.007v-1.243c0-0.272-0.189-0.312-0.289-0.312H8.041v-0.1
		c0.156,0,0.309,0.013,0.464,0.013c0.136,0,0.273-0.013,0.408-0.013v0.1H8.863c-0.14,0-0.295,0.026-0.295,0.421v1.508
		c0,0.116,0.003,0.232,0.019,0.335H8.461l-1.707-1.903v1.366c0,0.289,0.056,0.388,0.311,0.388h0.057v0.1
		c-0.143,0-0.285-0.013-0.428-0.013c-0.149,0-0.302,0.013-0.451,0.013v-0.1H6.29c0.229,0,0.298-0.156,0.298-0.42v-1.397
		c0-0.185-0.153-0.298-0.302-0.298H6.243v-0.1c0.126,0,0.255,0.013,0.381,0.013c0.1,0,0.196-0.013,0.295-0.013L8.396,22.283z"/>
	<path style="fill:#231F20;" d="M8.388,22.276v-0.001l-0.003-0.002L8.388,22.276z M8.396,22.283l0.01-0.01L8.396,22.283z
		 M8.461,22.971h0.11c-0.015-0.1-0.017-0.21-0.017-0.32v-1.508c0-0.398,0.167-0.436,0.31-0.436h0.035v-0.07
		c-0.131,0.001-0.261,0.013-0.394,0.013c-0.152,0-0.299-0.012-0.449-0.013l0,0.07h0.059c0.102,0,0.303,0.046,0.303,0.327
		l-0.004,1.253l-0.007,0.006l-0.011,0.011L6.92,20.636c-0.099,0-0.195,0.013-0.296,0.013c-0.121,0-0.246-0.012-0.366-0.013
		l-0.001,0.07h0.029c0.156,0,0.316,0.119,0.316,0.313v1.396c0,0.265-0.074,0.435-0.313,0.436l-0.032-0.001v0.071
		c0.144-0.001,0.292-0.013,0.436-0.013c0.138,0,0.276,0.012,0.413,0.013v-0.07H7.065c-0.261-0.001-0.326-0.115-0.326-0.403v-1.404
		L8.461,22.971z M8.587,23l-0.137-0.005L6.768,21.12v1.329c0.004,0.288,0.048,0.37,0.297,0.373h0.071v0.014v0.114H7.122
		c-0.143,0-0.286-0.013-0.427-0.013c-0.149,0-0.301,0.013-0.451,0.013H6.229v-0.014v-0.114h0.014H6.29
		c0.219-0.001,0.282-0.142,0.284-0.406V21.02c-0.001-0.177-0.145-0.284-0.287-0.284H6.229v-0.015v-0.113h0.014
		c0.127,0,0.257,0.013,0.381,0.013c0.099,0,0.195-0.013,0.307-0.008l1.457,1.64v-1.219c-0.002-0.263-0.177-0.295-0.274-0.297H8.026
		v-0.015v-0.113h0.015c0.157,0,0.309,0.013,0.464,0.013c0.135,0,0.271-0.013,0.408-0.013h0.015v0.014v0.114H8.912H8.863
		c-0.137,0.004-0.277,0.016-0.281,0.407v1.508c0,0.116,0.004,0.232,0.019,0.333L8.604,23H8.587z"/>
	<path style="fill:#231F20;" d="M9.409,20.788c-0.249,0-0.258,0.06-0.308,0.302h-0.1c0.013-0.093,0.03-0.186,0.04-0.282
		c0.013-0.093,0.02-0.186,0.02-0.282h0.08c0.027,0.1,0.11,0.096,0.199,0.096h1.71c0.09,0,0.173-0.003,0.179-0.103l0.079,0.014
		c-0.013,0.089-0.026,0.179-0.036,0.269c-0.006,0.089-0.006,0.179-0.006,0.268l-0.1,0.037c-0.007-0.123-0.023-0.319-0.245-0.319
		h-0.544v1.764c0,0.256,0.116,0.285,0.275,0.285h0.063v0.1c-0.129,0-0.362-0.013-0.54-0.013c-0.199,0-0.432,0.013-0.561,0.013v-0.1
		h0.063c0.183,0,0.275-0.016,0.275-0.278v-1.771H9.409z"/>
	<path style="fill:#231F20;" d="M10.716,22.951c-0.131,0-0.363-0.013-0.541-0.013c-0.199,0-0.431,0.013-0.561,0.013H9.601v-0.014
		v-0.114h0.014h0.063c0.183-0.004,0.256-0.007,0.26-0.264v-1.757H9.409v-0.014v-0.015h0.558v1.786c0,0.266-0.107,0.293-0.289,0.293
		H9.629v0.07c0.131-0.001,0.354-0.013,0.547-0.013c0.173,0,0.394,0.012,0.526,0.013v-0.07h-0.049c-0.16,0-0.289-0.04-0.289-0.3
		v-1.779h0.558c0.223,0.001,0.252,0.19,0.259,0.313l0.072-0.026c0-0.087,0-0.173,0.007-0.26c0.01-0.086,0.022-0.17,0.034-0.255
		l-0.05-0.008c-0.015,0.096-0.109,0.102-0.192,0.1H9.34H9.323c-0.078,0-0.163-0.004-0.193-0.096H9.075
		c-0.001,0.092-0.007,0.181-0.019,0.269c-0.01,0.091-0.025,0.179-0.037,0.266H9.09c0.044-0.231,0.072-0.306,0.32-0.303v0.015v0.014
		c-0.245,0.005-0.24,0.046-0.294,0.291l-0.002,0.011H9.101H8.985l0.002-0.017c0.013-0.093,0.03-0.186,0.04-0.282
		c0.014-0.092,0.02-0.184,0.02-0.279v-0.015h0.014h0.091l0.003,0.01c0.022,0.084,0.084,0.084,0.168,0.086H9.34h1.71
		c0.092-0.001,0.16-0.003,0.165-0.089l0.001-0.016l0.015,0.003l0.094,0.015l-0.002,0.015c-0.013,0.089-0.026,0.178-0.036,0.267
		c-0.006,0.089-0.006,0.178-0.006,0.268v0.01l-0.01,0.004l-0.117,0.043l-0.001-0.019c-0.009-0.125-0.022-0.305-0.232-0.305h-0.529
		v1.75c0.003,0.25,0.102,0.268,0.26,0.271h0.078v0.014v0.114H10.716z"/>
	<path style="fill:#231F20;" d="M11.415,22.837h0.047c0.119,0,0.245-0.016,0.245-0.189v-1.737c0-0.173-0.126-0.189-0.245-0.189
		h-0.047v-0.1c0.202,0,0.547,0.013,0.825,0.013c0.279,0,0.623-0.013,0.849-0.013c-0.006,0.143-0.003,0.362,0.007,0.508l-0.1,0.026
		c-0.016-0.216-0.056-0.388-0.404-0.388h-0.46v0.868h0.394c0.199,0,0.242-0.112,0.262-0.292h0.099
		c-0.007,0.13-0.01,0.259-0.01,0.388c0,0.126,0.004,0.252,0.01,0.378l-0.099,0.02c-0.02-0.199-0.03-0.328-0.259-0.328h-0.397v0.772
		c0,0.216,0.192,0.216,0.404,0.216c0.398,0,0.574-0.027,0.673-0.404l0.092,0.023c-0.043,0.176-0.083,0.351-0.112,0.527
		c-0.213,0-0.594-0.013-0.892-0.013c-0.299,0-0.693,0.013-0.882,0.013V22.837z"/>
	<path style="fill:#231F20;" d="M13.176,22.922c0.029-0.168,0.067-0.335,0.107-0.502l-0.065-0.016
		c-0.099,0.371-0.292,0.404-0.683,0.402c-0.209,0-0.418,0-0.419-0.23v-0.787h0.412c0.231-0.002,0.255,0.137,0.271,0.326l0.072-0.015
		c-0.006-0.122-0.01-0.245-0.01-0.366c0-0.125,0.003-0.249,0.01-0.374H12.8c-0.019,0.173-0.073,0.294-0.275,0.292h-0.409v-0.898
		h0.475c0.345-0.003,0.402,0.176,0.417,0.384l0.071-0.019c-0.006-0.094-0.01-0.214-0.01-0.324c0-0.057,0.001-0.111,0.003-0.157
		c-0.225,0.001-0.561,0.013-0.834,0.013c-0.272,0-0.608-0.012-0.811-0.013v0.07h0.032c0.118,0,0.259,0.021,0.26,0.204v1.737
		c-0.001,0.183-0.142,0.203-0.26,0.204h-0.032v0.07c0.193-0.001,0.576-0.013,0.868-0.013C12.59,22.909,12.963,22.921,13.176,22.922
		 M13.189,22.951c-0.213,0-0.594-0.014-0.892-0.014c-0.299,0-0.693,0.014-0.882,0.014h-0.014v-0.014v-0.1v-0.014h0.014h0.047
		c0.12-0.002,0.229-0.013,0.231-0.175v-1.737c-0.001-0.162-0.111-0.173-0.231-0.175h-0.06v-0.014v-0.114h0.014
		c0.202,0,0.547,0.013,0.825,0.013c0.279,0,0.623-0.013,0.849-0.013h0.015l-0.001,0.015c-0.002,0.05-0.003,0.109-0.003,0.171
		c0,0.115,0.003,0.24,0.01,0.335l0.001,0.012l-0.011,0.003l-0.117,0.031l0-0.017c-0.02-0.215-0.048-0.372-0.39-0.375h-0.447l0,0.84
		h0.38c0.191-0.002,0.225-0.1,0.248-0.278l0.001-0.013h0.013h0.114l0,0.015c-0.006,0.13-0.01,0.258-0.01,0.388
		c0,0.125,0.004,0.251,0.01,0.377l0,0.012l-0.012,0.003l-0.115,0.023l-0.001-0.016c-0.023-0.202-0.024-0.313-0.244-0.316h-0.384
		v0.758c0,0.201,0.174,0.2,0.39,0.201c0.399-0.002,0.559-0.022,0.659-0.394l0.003-0.013l0.014,0.002l0.106,0.028l-0.003,0.014
		c-0.043,0.176-0.083,0.351-0.113,0.526L13.2,22.951H13.189z"/>
	<path style="fill:#231F20;" d="M14.173,21.742h0.162c0.332,0,0.511-0.126,0.511-0.517c0-0.295-0.189-0.484-0.484-0.484
		c-0.1,0-0.142,0.01-0.188,0.013V21.742z M13.749,20.973c0-0.242-0.132-0.252-0.236-0.252h-0.06v-0.1
		c0.106,0,0.312,0.013,0.514,0.013c0.199,0,0.358-0.013,0.534-0.013c0.417,0,0.789,0.113,0.789,0.584
		c0,0.298-0.199,0.48-0.461,0.584l0.567,0.848c0.093,0.14,0.159,0.18,0.322,0.199v0.1c-0.11,0-0.216-0.013-0.325-0.013
		c-0.103,0-0.209,0.013-0.312,0.013c-0.255-0.335-0.474-0.693-0.69-1.075h-0.219v0.71c0,0.255,0.119,0.265,0.271,0.265h0.06v0.1
		c-0.189,0-0.381-0.013-0.57-0.013c-0.159,0-0.315,0.013-0.481,0.013v-0.1h0.06c0.123,0,0.236-0.056,0.236-0.179V20.973z"/>
	<path style="fill:#231F20;" d="M14.335,21.728c0.328-0.003,0.494-0.117,0.497-0.502c-0.002-0.29-0.182-0.469-0.471-0.471
		c-0.09,0-0.132,0.008-0.174,0.012v0.961H14.335z M14.173,21.757h-0.015v-1.015l0.013-0.001c0.045-0.004,0.09-0.013,0.19-0.013
		c0.302,0,0.498,0.196,0.499,0.499c-0.001,0.396-0.191,0.53-0.525,0.53H14.173z M14.173,21.847H14.4l0.004,0.007
		c0.216,0.381,0.434,0.739,0.678,1.067c0.101,0,0.208-0.013,0.311-0.013c0.106,0,0.208,0.012,0.311,0.013v-0.073
		c-0.155-0.019-0.228-0.066-0.319-0.203l-0.577-0.863l0.016-0.007c0.26-0.102,0.452-0.279,0.452-0.571
		c0-0.46-0.358-0.567-0.775-0.569c-0.175,0-0.334,0.013-0.534,0.013c-0.195,0-0.391-0.012-0.5-0.013v0.07h0.046
		c0.103,0,0.249,0.017,0.249,0.266v1.685c0,0.133-0.125,0.194-0.249,0.194h-0.046v0.07c0.159-0.001,0.311-0.013,0.466-0.013
		c0.185,0,0.373,0.013,0.556,0.013v-0.07h-0.045c-0.151,0-0.286-0.019-0.286-0.281v-0.724H14.173z M15.718,22.951
		c-0.111,0-0.217-0.013-0.326-0.013c-0.101,0-0.207,0.013-0.322,0.008c-0.255-0.334-0.472-0.69-0.686-1.068h-0.196v0.694
		c0.004,0.25,0.104,0.248,0.257,0.251h0.074v0.014v0.114h-0.015c-0.189,0-0.382-0.013-0.57-0.013c-0.158,0-0.314,0.013-0.481,0.013
		h-0.014v-0.014v-0.114h0.014h0.06c0.119-0.001,0.22-0.053,0.22-0.164v-1.685c-0.002-0.235-0.117-0.234-0.22-0.237h-0.074v-0.014
		v-0.114h0.014c0.107,0,0.312,0.013,0.514,0.013c0.198,0,0.357-0.013,0.534-0.013c0.418,0.001,0.803,0.116,0.804,0.598
		c0,0.299-0.198,0.486-0.453,0.591l0.557,0.834c0.093,0.138,0.15,0.172,0.312,0.193l0.012,0.002v0.012v0.114H15.718z"/>
	<path style="fill:#231F20;" d="M17.969,22.283l0.006-0.007v-1.243c0-0.272-0.188-0.312-0.288-0.312h-0.073v-0.1
		c0.156,0,0.308,0.013,0.464,0.013c0.136,0,0.271-0.013,0.408-0.013v0.1h-0.05c-0.139,0-0.295,0.026-0.295,0.421v1.508
		c0,0.116,0.003,0.232,0.02,0.335h-0.126l-1.707-1.903v1.366c0,0.289,0.056,0.388,0.311,0.388h0.056v0.1
		c-0.142,0-0.285-0.013-0.428-0.013c-0.15,0-0.302,0.013-0.451,0.013v-0.1h0.046c0.229,0,0.299-0.156,0.299-0.42v-1.397
		c0-0.185-0.153-0.298-0.302-0.298h-0.043v-0.1c0.126,0,0.256,0.013,0.381,0.013c0.099,0,0.195-0.013,0.295-0.013L17.969,22.283z"/>
	<path style="fill:#231F20;" d="M17.961,22.276L17.961,22.276l-0.002-0.003L17.961,22.276z M17.969,22.283l0.011-0.01L17.969,22.283
		z M18.036,22.971h0.109c-0.014-0.099-0.017-0.21-0.017-0.32v-1.508c0-0.398,0.168-0.435,0.31-0.436h0.035v-0.07
		c-0.13,0.001-0.261,0.013-0.393,0.013c-0.152,0-0.3-0.012-0.45-0.013v0.07h0.058c0.102,0.001,0.303,0.046,0.303,0.327l-0.005,1.253
		l-0.006,0.006l-0.01,0.011l-1.475-1.668c-0.099,0-0.195,0.013-0.295,0.013c-0.123,0-0.247-0.012-0.367-0.013v0.07h0.029
		c0.156,0.001,0.315,0.119,0.315,0.313v1.396c0,0.266-0.075,0.435-0.313,0.436l-0.032,0v0.07c0.143-0.001,0.291-0.013,0.437-0.013
		c0.139,0,0.277,0.012,0.414,0.013v-0.07H16.64c-0.261,0-0.326-0.114-0.327-0.403v-1.403L18.036,22.971z M18.161,23l-0.136-0.005
		l-1.683-1.875v1.329c0.004,0.289,0.048,0.37,0.298,0.374h0.07v0.014v0.114h-0.014c-0.143,0-0.286-0.014-0.428-0.014
		c-0.148,0-0.301,0.014-0.451,0.014h-0.015v-0.014v-0.114h0.015h0.046c0.219-0.001,0.282-0.142,0.284-0.407v-1.396
		c0-0.177-0.145-0.283-0.287-0.283h-0.058v-0.014v-0.114h0.015c0.126,0,0.256,0.013,0.381,0.013c0.097,0,0.193-0.013,0.305-0.009
		l1.457,1.641v-1.219c-0.001-0.263-0.177-0.296-0.274-0.297H17.6v-0.014v-0.114h0.014c0.157,0,0.309,0.013,0.464,0.013
		c0.135,0,0.271-0.013,0.408-0.013h0.015v0.015v0.114h-0.015h-0.049c-0.137,0.003-0.278,0.016-0.281,0.407v1.508
		c0,0.116,0.003,0.231,0.02,0.333L18.177,23H18.161z"/>
	<path style="fill:#231F20;" d="M19.504,20.993h-0.007l-0.308,0.938h0.619L19.504,20.993z M19.02,22.462
		c-0.033,0.112-0.073,0.199-0.073,0.258c0,0.1,0.14,0.116,0.249,0.116h0.037v0.1c-0.133-0.007-0.268-0.013-0.402-0.013
		c-0.119,0-0.238,0.006-0.358,0.013v-0.1h0.02c0.129,0,0.239-0.076,0.288-0.216l0.53-1.521c0.043-0.123,0.103-0.289,0.123-0.412
		c0.105-0.036,0.239-0.102,0.301-0.143c0.01-0.003,0.017-0.007,0.026-0.007c0.01,0,0.016,0,0.024,0.01
		c0.01,0.026,0.019,0.056,0.03,0.083l0.61,1.734c0.04,0.116,0.079,0.238,0.122,0.338c0.04,0.093,0.11,0.132,0.22,0.132h0.02v0.1
		c-0.149-0.007-0.299-0.013-0.457-0.013c-0.163,0-0.329,0.006-0.498,0.013v-0.1h0.037c0.076,0,0.206-0.013,0.206-0.096
		c0-0.043-0.03-0.132-0.067-0.239l-0.129-0.384h-0.753L19.02,22.462z"/>
	<path style="fill:#231F20;" d="M19.489,20.998l0.008-0.002L19.489,20.998z M19.208,21.917h0.581L19.5,21.029L19.208,21.917z
		 M19.169,21.946l0.317-0.967h0.011h0.007v0.015L19.5,20.994l0.003-0.001v-0.015h0.01l0.315,0.967H19.169z M19.846,22.921
		c0.164-0.006,0.325-0.012,0.483-0.012c0.154,0,0.298,0.007,0.442,0.012v-0.069h-0.005c-0.114,0.001-0.192-0.044-0.233-0.142
		c-0.043-0.1-0.083-0.223-0.123-0.339l-0.61-1.734c-0.01-0.026-0.019-0.056-0.028-0.08c-0.003-0.003-0.002-0.003-0.005-0.003h-0.006
		c-0.007,0-0.011,0.002-0.019,0.004c-0.064,0.041-0.197,0.107-0.295,0.133c-0.02,0.126-0.08,0.291-0.123,0.414l-0.53,1.521
		c-0.051,0.144-0.167,0.226-0.302,0.226h-0.005v0.069c0.114-0.006,0.228-0.012,0.344-0.012c0.128,0,0.259,0.007,0.386,0.012v-0.069
		h-0.021c-0.108-0.001-0.259-0.013-0.263-0.131c0-0.066,0.041-0.151,0.073-0.263l0.014,0.004l-0.014-0.005l0.109-0.354h0.773
		l0.133,0.394c0.037,0.107,0.067,0.195,0.067,0.243c-0.005,0.102-0.145,0.109-0.22,0.111h-0.022V22.921z M20.786,22.951
		c-0.149-0.006-0.298-0.014-0.456-0.014c-0.163,0-0.328,0.007-0.497,0.014l-0.015,0.001v-0.015v-0.115h0.015h0.037
		c0.077,0,0.191-0.017,0.191-0.081c0.001-0.038-0.029-0.129-0.065-0.234l-0.126-0.375h-0.731l-0.103,0.335
		c-0.033,0.113-0.074,0.2-0.073,0.254c0.001,0.081,0.125,0.101,0.235,0.101h0.051v0.015v0.114l-0.015-0.001
		c-0.133-0.006-0.268-0.014-0.401-0.014c-0.119,0-0.238,0.007-0.357,0.014l-0.015,0.001v-0.015v-0.115h0.014h0.02
		c0.123,0,0.226-0.071,0.274-0.205l0.531-1.522c0.043-0.123,0.103-0.288,0.132-0.42c0.104-0.035,0.238-0.102,0.301-0.142
		c0.009-0.003,0.019-0.008,0.032-0.008c0.008-0.001,0.026,0.002,0.037,0.019c0.009,0.027,0.02,0.057,0.03,0.084l0.611,1.734
		c0.039,0.116,0.079,0.239,0.122,0.337c0.038,0.088,0.099,0.123,0.206,0.124h0.033v0.015v0.114L20.786,22.951z"/>
	<path style="fill:#231F20;" d="M20.933,20.788c-0.249,0-0.259,0.06-0.309,0.302h-0.1c0.013-0.093,0.03-0.186,0.04-0.282
		c0.013-0.093,0.019-0.186,0.019-0.282h0.08c0.026,0.1,0.109,0.096,0.198,0.096h1.711c0.089,0,0.172-0.003,0.179-0.103l0.079,0.014
		c-0.012,0.089-0.025,0.179-0.036,0.269c-0.007,0.089-0.007,0.179-0.007,0.268l-0.099,0.037c-0.006-0.123-0.023-0.319-0.245-0.319
		h-0.544v1.764c0,0.256,0.116,0.285,0.275,0.285h0.063v0.1c-0.129,0-0.361-0.013-0.541-0.013c-0.198,0-0.431,0.013-0.56,0.013v-0.1
		h0.063c0.183,0,0.275-0.016,0.275-0.278v-1.771H20.933z"/>
	<path style="fill:#231F20;" d="M22.239,22.951c-0.13,0-0.363-0.013-0.541-0.013c-0.198,0-0.43,0.013-0.56,0.013h-0.015v-0.014
		v-0.114h0.015h0.063c0.183-0.004,0.256-0.007,0.26-0.264l0-1.757h-0.529v-0.014v-0.015h0.558v1.786
		c0,0.266-0.107,0.292-0.289,0.293h-0.049v0.071c0.131-0.001,0.354-0.013,0.546-0.013c0.173,0,0.395,0.012,0.526,0.013v-0.071
		h-0.049c-0.16-0.001-0.289-0.039-0.289-0.3v-1.779h0.558c0.223,0.001,0.252,0.19,0.258,0.313l0.072-0.026
		c0-0.087,0.001-0.173,0.007-0.26c0.009-0.085,0.021-0.17,0.034-0.255l-0.05-0.009c-0.015,0.096-0.109,0.102-0.191,0.1h-1.711
		h-0.017c-0.078,0.001-0.163-0.004-0.193-0.096h-0.054c-0.001,0.092-0.007,0.181-0.02,0.269c-0.009,0.091-0.025,0.179-0.038,0.266
		h0.071c0.044-0.231,0.072-0.306,0.321-0.303v0.015v0.014c-0.246,0.004-0.24,0.046-0.295,0.291l-0.002,0.011h-0.012h-0.116
		l0.002-0.016c0.014-0.093,0.03-0.186,0.04-0.282c0.014-0.093,0.02-0.185,0.02-0.28v-0.015h0.015h0.091l0.003,0.01
		c0.023,0.084,0.084,0.084,0.169,0.086h0.017h1.711c0.092-0.001,0.159-0.003,0.165-0.089l0.001-0.016l0.015,0.003l0.094,0.015
		l-0.002,0.015c-0.014,0.089-0.026,0.178-0.036,0.267c-0.007,0.089-0.007,0.178-0.007,0.268v0.01l-0.01,0.004l-0.117,0.043l0-0.019
		c-0.009-0.125-0.022-0.305-0.232-0.305h-0.529v1.75c0.004,0.25,0.103,0.268,0.261,0.271h0.077v0.014v0.114H22.239z"/>
	<path style="fill:#231F20;" d="M22.954,22.837h0.046c0.12,0,0.245-0.016,0.245-0.189v-1.737c0-0.173-0.125-0.189-0.245-0.189
		h-0.046v-0.1c0.13,0,0.328,0.013,0.49,0.013c0.166,0,0.365-0.013,0.521-0.013v0.1h-0.047c-0.12,0-0.246,0.016-0.246,0.189v1.737
		c0,0.173,0.126,0.189,0.246,0.189h0.047v0.1c-0.159,0-0.358-0.013-0.524-0.013c-0.163,0-0.358,0.013-0.488,0.013V22.837z"/>
	<path style="fill:#231F20;" d="M23.951,22.922v-0.07H23.92c-0.119,0-0.26-0.021-0.26-0.204v-1.737c0-0.183,0.141-0.204,0.26-0.204
		h0.031v-0.07c-0.153,0.001-0.345,0.013-0.506,0.013c-0.157,0-0.347-0.012-0.476-0.013v0.07h0.032c0.118,0,0.259,0.021,0.26,0.204
		v1.737c0,0.183-0.142,0.204-0.26,0.204h-0.032v0.07c0.128-0.001,0.315-0.013,0.473-0.013
		C23.603,22.909,23.795,22.921,23.951,22.922 M23.966,22.951c-0.16,0-0.359-0.014-0.524-0.014c-0.162,0-0.358,0.014-0.488,0.014
		H22.94v-0.014v-0.1v-0.014h0.014h0.046c0.12-0.002,0.23-0.012,0.23-0.175v-1.737c-0.001-0.162-0.111-0.173-0.23-0.175H22.94v-0.014
		v-0.114h0.014c0.13,0,0.329,0.013,0.49,0.013c0.165,0,0.364-0.013,0.521-0.013h0.014v0.014v0.114h-0.014H23.92
		c-0.121,0.002-0.23,0.013-0.232,0.175v1.737c0.001,0.162,0.11,0.173,0.232,0.175h0.06v0.014v0.114H23.966z"/>
	<path style="fill:#231F20;" d="M25.338,22.84c0.643,0,0.756-0.567,0.756-1.051c0-0.484-0.261-1.071-0.812-1.071
		c-0.58,0-0.753,0.517-0.753,0.961C24.529,22.273,24.801,22.84,25.338,22.84 M25.288,20.572c0.707,0,1.27,0.438,1.27,1.144
		c0,0.763-0.547,1.27-1.253,1.27c-0.703,0-1.24-0.477-1.24-1.19C24.065,21.106,24.599,20.572,25.288,20.572"/>
	<path style="fill:#231F20;" d="M24.514,21.679c0.001-0.446,0.175-0.976,0.767-0.976c0.563,0.001,0.826,0.599,0.827,1.086
		c-0.001,0.483-0.115,1.064-0.77,1.064V22.84v-0.014c0.63-0.001,0.74-0.553,0.741-1.036c0-0.48-0.259-1.056-0.798-1.057
		c-0.569,0.001-0.737,0.505-0.738,0.947c0,0.591,0.27,1.145,0.795,1.146v0.014v0.014C24.788,22.853,24.516,22.276,24.514,21.679
		 M24.05,21.796c0.001-0.697,0.541-1.237,1.238-1.238v0.014v0.014c-0.682,0-1.209,0.527-1.21,1.209
		c0.001,0.705,0.53,1.175,1.227,1.175c0.699,0,1.238-0.5,1.239-1.255c-0.001-0.697-0.555-1.129-1.256-1.129v-0.014v-0.014
		c0.712,0.001,1.283,0.443,1.285,1.158c-0.001,0.771-0.554,1.283-1.267,1.284C24.596,22.999,24.052,22.517,24.05,21.796"/>
	<path style="fill:#231F20;" d="M28.792,22.283l0.007-0.007v-1.243c0-0.272-0.19-0.312-0.289-0.312h-0.072v-0.1
		c0.155,0,0.308,0.013,0.464,0.013c0.136,0,0.272-0.013,0.408-0.013v0.1h-0.05c-0.139,0-0.295,0.026-0.295,0.421v1.508
		c0,0.116,0.003,0.232,0.02,0.335h-0.126l-1.708-1.903v1.366c0,0.289,0.057,0.388,0.311,0.388h0.057v0.1
		c-0.143,0-0.285-0.013-0.428-0.013c-0.149,0-0.302,0.013-0.451,0.013v-0.1h0.047c0.229,0,0.298-0.156,0.298-0.42v-1.397
		c0-0.185-0.152-0.298-0.302-0.298H26.64v-0.1c0.126,0,0.255,0.013,0.381,0.013c0.099,0,0.195-0.013,0.295-0.013L28.792,22.283z"/>
	<path style="fill:#231F20;" d="M28.785,22.276L28.785,22.276l-0.003-0.003L28.785,22.276z M28.792,22.283l0.011-0.01L28.792,22.283
		z M28.859,22.971h0.109c-0.014-0.1-0.017-0.21-0.017-0.32v-1.508c0-0.399,0.167-0.435,0.31-0.436h0.036v-0.07
		c-0.132,0.001-0.262,0.013-0.395,0.013c-0.151,0-0.299-0.012-0.449-0.013v0.07h0.058c0.102,0.001,0.302,0.046,0.302,0.327
		l-0.003,1.253l-0.006,0.006l-0.011,0.011l-1.476-1.668c-0.098,0-0.195,0.013-0.295,0.013c-0.122,0-0.247-0.012-0.367-0.013v0.07
		h0.029C26.839,20.708,27,20.825,27,21.019v1.397c0,0.265-0.074,0.435-0.313,0.436l-0.032,0v0.07
		c0.144-0.001,0.291-0.013,0.437-0.013c0.138,0,0.276,0.012,0.413,0.013v-0.07h-0.043c-0.26,0-0.325-0.114-0.325-0.403v-1.404
		L28.859,22.971z M28.985,23l-0.137-0.005l-1.683-1.875v1.329c0.004,0.289,0.048,0.37,0.297,0.373h0.071v0.015v0.114h-0.014
		c-0.144,0-0.286-0.013-0.428-0.013c-0.149,0-0.301,0.013-0.452,0.013h-0.014v-0.014v-0.115h0.014h0.047
		c0.219-0.001,0.282-0.141,0.284-0.406v-1.397c0-0.177-0.145-0.283-0.288-0.283h-0.057v-0.014v-0.114h0.014
		c0.127,0,0.256,0.013,0.382,0.013c0.098,0,0.194-0.013,0.306-0.008l1.457,1.64v-1.219c-0.001-0.263-0.178-0.295-0.274-0.297h-0.087
		v-0.014v-0.114h0.015c0.156,0,0.309,0.013,0.463,0.013c0.136,0,0.271-0.013,0.409-0.013h0.014v0.014v0.114H29.31h-0.05
		c-0.137,0.004-0.278,0.016-0.281,0.407v1.508c0,0.116,0.003,0.232,0.019,0.333L29.001,23H28.985z"/>
	<path style="fill:#231F20;" d="M30.327,20.993h-0.007l-0.309,0.938h0.621L30.327,20.993z M29.843,22.462
		c-0.032,0.112-0.073,0.199-0.073,0.258c0,0.1,0.14,0.116,0.248,0.116h0.037v0.1c-0.133-0.007-0.269-0.013-0.402-0.013
		c-0.119,0-0.238,0.006-0.357,0.013v-0.1h0.019c0.13,0,0.24-0.076,0.288-0.216l0.531-1.521c0.043-0.123,0.103-0.289,0.122-0.412
		c0.106-0.036,0.239-0.102,0.302-0.143c0.009-0.003,0.016-0.007,0.026-0.007c0.01,0,0.016,0,0.023,0.01
		c0.01,0.026,0.02,0.056,0.03,0.083l0.61,1.734c0.04,0.116,0.079,0.238,0.123,0.338c0.04,0.093,0.109,0.132,0.219,0.132h0.02v0.1
		c-0.149-0.007-0.299-0.013-0.458-0.013c-0.162,0-0.328,0.006-0.497,0.013v-0.1h0.037c0.076,0,0.206-0.013,0.206-0.096
		c0-0.043-0.03-0.132-0.067-0.239l-0.129-0.384h-0.753L29.843,22.462z"/>
	<path style="fill:#231F20;" d="M30.314,20.998l0.007-0.002L30.314,20.998z M30.032,21.917h0.58l-0.288-0.888L30.032,21.917z
		 M29.992,21.946l0.318-0.967h0.01h0.007v0.015l-0.004,0.001l0.004-0.001v-0.015h0.01l0.314,0.967H29.992z M30.669,22.921
		c0.164-0.006,0.325-0.013,0.483-0.013c0.154,0,0.298,0.007,0.443,0.012l0-0.069H31.59c-0.112,0-0.19-0.044-0.232-0.142
		c-0.044-0.1-0.083-0.223-0.123-0.339l-0.61-1.735c-0.01-0.026-0.02-0.056-0.028-0.079c-0.003-0.004-0.002-0.004-0.005-0.004h-0.006
		c-0.007,0-0.011,0.002-0.019,0.005c-0.065,0.041-0.197,0.107-0.295,0.132c-0.021,0.126-0.081,0.291-0.123,0.414l-0.531,1.521
		c-0.05,0.144-0.166,0.226-0.302,0.226H29.31v0.069c0.114-0.006,0.228-0.012,0.343-0.012c0.128,0,0.26,0.007,0.387,0.012v-0.069
		h-0.022c-0.108-0.001-0.259-0.013-0.263-0.131c0.001-0.065,0.042-0.15,0.074-0.262l0.013,0.004l-0.013-0.005l0.109-0.354h0.773
		l0.133,0.394c0.037,0.107,0.067,0.195,0.067,0.243c-0.005,0.102-0.144,0.109-0.22,0.111h-0.022V22.921z M31.609,22.951
		c-0.149-0.006-0.298-0.013-0.457-0.013c-0.162,0-0.328,0.007-0.497,0.013l-0.015,0.001v-0.015v-0.114h0.014h0.036
		c0.077,0,0.191-0.018,0.191-0.082c0.001-0.038-0.029-0.128-0.066-0.234l-0.126-0.375h-0.732l-0.102,0.335
		c-0.033,0.114-0.073,0.2-0.072,0.254c0,0.081,0.125,0.102,0.234,0.102h0.051v0.014v0.115l-0.015-0.001
		c-0.132-0.006-0.268-0.013-0.4-0.013c-0.119,0-0.238,0.007-0.357,0.013l-0.014,0.001v-0.015v-0.114h0.014h0.019
		c0.124-0.001,0.227-0.071,0.276-0.206l0.53-1.522c0.043-0.123,0.102-0.288,0.132-0.42c0.104-0.036,0.237-0.103,0.302-0.143
		c0.009-0.003,0.018-0.007,0.032-0.007c0.009-0.001,0.026,0.001,0.036,0.019c0.01,0.026,0.02,0.056,0.031,0.083l0.61,1.734
		c0.04,0.116,0.079,0.239,0.122,0.337c0.039,0.088,0.099,0.123,0.205,0.124h0.034v0.014v0.115L31.609,22.951z"/>
	<path style="fill:#231F20;" d="M32.446,22.611c0,0.133,0.092,0.173,0.199,0.186c0.136,0.01,0.285,0.01,0.438-0.007
		c0.139-0.017,0.258-0.096,0.318-0.179c0.053-0.073,0.082-0.166,0.103-0.238h0.096c-0.037,0.189-0.083,0.375-0.123,0.564
		c-0.291,0-0.584-0.013-0.875-0.013c-0.292,0-0.584,0.013-0.875,0.013v-0.1h0.046c0.12,0,0.249-0.016,0.249-0.222v-1.704
		c0-0.173-0.13-0.189-0.249-0.189h-0.046v-0.1c0.176,0,0.348,0.013,0.524,0.013c0.169,0,0.335-0.013,0.504-0.013v0.1h-0.083
		c-0.126,0-0.225,0.004-0.225,0.179V22.611z"/>
	<path style="fill:#231F20;" d="M33.464,22.922c0.038-0.18,0.082-0.356,0.118-0.535h-0.068c-0.02,0.072-0.05,0.161-0.102,0.233
		c-0.062,0.086-0.185,0.167-0.329,0.185c-0.087,0.009-0.173,0.013-0.254,0.013c-0.064,0-0.126-0.003-0.186-0.007
		c-0.108-0.012-0.212-0.058-0.212-0.2v-1.71c0-0.184,0.117-0.194,0.24-0.194h0.068v-0.07c-0.163,0.001-0.325,0.013-0.489,0.013
		c-0.171,0-0.339-0.012-0.509-0.013v0.07h0.032c0.118,0,0.263,0.021,0.263,0.203v1.705c0,0.215-0.144,0.237-0.263,0.237H31.74v0.07
		c0.287-0.001,0.573-0.013,0.861-0.013C32.89,22.909,33.177,22.921,33.464,22.922 M33.476,22.951c-0.292,0-0.584-0.013-0.875-0.013
		c-0.292,0-0.584,0.013-0.876,0.013h-0.014v-0.014v-0.114h0.014h0.047c0.12-0.003,0.234-0.011,0.235-0.208V20.91
		c-0.001-0.161-0.115-0.172-0.235-0.174h-0.06v-0.014v-0.114h0.014c0.177,0,0.349,0.013,0.524,0.013
		c0.169,0,0.334-0.013,0.504-0.013h0.013v0.014v0.114h-0.013h-0.083c-0.128,0.003-0.209-0.003-0.211,0.165v1.71
		c0.001,0.124,0.082,0.157,0.186,0.172c0.058,0.004,0.12,0.006,0.184,0.006c0.081,0,0.165-0.004,0.251-0.013
		c0.135-0.016,0.251-0.094,0.309-0.173c0.051-0.071,0.08-0.162,0.1-0.234l0.003-0.011h0.011h0.114l-0.003,0.017
		c-0.038,0.19-0.083,0.375-0.123,0.564l-0.003,0.011H33.476z"/>
	<path style="fill:#231F20;" d="M33.503,20.878h0.041c0.045,0,0.066-0.034,0.066-0.089c0-0.056-0.032-0.075-0.068-0.075h-0.039
		V20.878z M33.385,21.062v-0.017c0.043-0.006,0.051-0.005,0.051-0.031v-0.259c0-0.036-0.004-0.049-0.049-0.047V20.69h0.179
		c0.061,0,0.118,0.029,0.118,0.093c0,0.052-0.034,0.09-0.083,0.105l0.057,0.08c0.027,0.036,0.057,0.07,0.077,0.082v0.011h-0.068
		c-0.033,0-0.061-0.069-0.125-0.16h-0.039v0.116c0,0.023,0.008,0.022,0.051,0.028v0.017H33.385z M33.559,21.161
		c0.157,0,0.276-0.133,0.276-0.283c0-0.15-0.118-0.284-0.276-0.284c-0.157,0-0.277,0.134-0.277,0.284
		C33.282,21.028,33.402,21.161,33.559,21.161 M33.559,20.528c0.2,0,0.349,0.154,0.349,0.35c0,0.196-0.149,0.348-0.349,0.348
		c-0.199,0-0.349-0.152-0.349-0.348C33.21,20.682,33.359,20.528,33.559,20.528"/>
</g>
</svg>
