<?xml version="1.0" encoding="utf-8"?>
<!-- Generator: Adobe Illustrator 18.0.0, SVG Export Plug-In . SVG Version: 6.00 Build 0)  -->
<!DOCTYPE svg PUBLIC "-//W3C//DTD SVG 1.1//EN" "http://www.w3.org/Graphics/SVG/1.1/DTD/svg11.dtd">
<svg version="1.1" id="Layer_1" xmlns="http://www.w3.org/2000/svg" xmlns:xlink="http://www.w3.org/1999/xlink" x="0px" y="0px"
	 width="39px" height="26px" viewBox="0 0 39 26" style="enable-background:new 0 0 39 26;" xml:space="preserve">
<g>
	<path style="fill:#F3F4F4;" d="M2.001,25.5c-0.828,0-1.501-0.674-1.501-1.501V2.001C0.5,1.173,1.173,0.5,2.001,0.5h34.998
		c0.827,0,1.501,0.673,1.501,1.501v21.998c0,0.827-0.674,1.501-1.501,1.501H2.001z"/>
	<path style="fill:#DADBD9;" d="M36.999,1C37.551,1,38,1.449,38,2.001v21.998C38,24.551,37.551,25,36.999,25H2.001
		C1.449,25,1,24.551,1,23.999V2.001C1,1.449,1.449,1,2.001,1H36.999 M36.999,0H2.001C0.896,0,0,0.896,0,2.001v21.998
		C0,25.104,0.896,26,2.001,26h34.997C38.104,26,39,25.104,39,23.999V2.001C39,0.896,38.104,0,36.999,0L36.999,0z"/>
</g>
<path id="fundo_2_" style="fill-rule:evenodd;clip-rule:evenodd;fill:#971D20;" d="M11.948,5.711c-1.156,0-3.471,0-3.471,0
	C6.943,5.783,5.69,6.401,5.328,7.675c-0.189,0.664-0.293,1.394-0.44,2.083c-0.75,3.502-1.416,7.1-2.133,10.532h27.024
	c2.089,0,3.524-0.441,3.911-2.1c0.18-0.77,0.353-1.643,0.525-2.489c0.672-3.3,1.344-6.599,2.032-9.99H11.948z"/>
<path id="hipercard_2_" style="fill-rule:evenodd;clip-rule:evenodd;fill:#FFFFFF;" d="M11.329,10.438
	c0.151-0.104,0.345-0.578,0.123-0.775c-0.07-0.062-0.188-0.081-0.352-0.053c-0.152,0.026-0.24,0.077-0.299,0.158
	c-0.096,0.13-0.183,0.523-0.035,0.669C10.91,10.58,11.233,10.504,11.329,10.438z M9.181,9.663c-0.108,0.702-0.23,1.39-0.352,2.078
	c-0.784,0.008-1.585,0.039-2.342-0.018c0.143-0.673,0.245-1.386,0.387-2.06H6.029c-0.303,1.717-0.578,3.461-0.916,5.142h0.863
	c0.135-0.863,0.262-1.734,0.44-2.553c0.736-0.018,1.617-0.05,2.325,0.018c-0.146,0.852-0.322,1.674-0.458,2.536h0.863
	c0.277-1.742,0.569-3.469,0.916-5.142H9.181z M21.384,11.142c-0.671-0.271-1.199,0.187-1.444,0.616
	c0.055-0.191,0.078-0.415,0.123-0.616h-0.669c-0.164,1.269-0.405,2.46-0.634,3.663h0.757c0.106-0.714,0.152-1.677,0.387-2.36
	c0.188-0.546,0.681-1.011,1.391-0.757C21.306,11.487,21.364,11.333,21.384,11.142z M21.807,13.942
	c-0.07-0.18-0.088-0.478-0.07-0.704c0.039-0.509,0.225-1.128,0.511-1.409c0.395-0.387,1.174-0.323,1.796-0.106
	c0.019-0.21,0.061-0.396,0.088-0.599c-1.02-0.167-1.987-0.063-2.501,0.475c-0.502,0.527-0.832,1.738-0.599,2.501
	c0.272,0.892,1.494,0.94,2.483,0.599c0.044-0.179,0.067-0.379,0.106-0.564C23.08,14.417,22.047,14.563,21.807,13.942z M30.312,11.16
	c-0.669-0.335-1.226,0.227-1.444,0.563c0.062-0.173,0.066-0.404,0.123-0.581h-0.669c-0.18,1.258-0.398,2.478-0.652,3.663h0.775
	c0.005-0.485,0.1-0.845,0.176-1.321c0.162-1.017,0.4-2.131,1.585-1.796C30.246,11.516,30.262,11.321,30.312,11.16z M10.554,11.142
	c-0.021,0.003-0.019,0.028-0.018,0.053c-0.167,1.248-0.393,2.437-0.634,3.61h0.757c0.182-1.256,0.39-2.486,0.652-3.663H10.554z
	 M17.211,11.072c-0.547,0.042-1.01,0.2-1.338,0.546c-0.403,0.425-0.73,1.364-0.634,2.219c0.136,1.22,1.655,1.176,2.87,0.88
	c0.021-0.214,0.072-0.397,0.106-0.599c-0.5,0.187-1.37,0.449-1.884,0.123c-0.389-0.246-0.391-0.868-0.264-1.409
	c0.817-0.026,1.665-0.021,2.483,0c0.052-0.383,0.2-0.801,0.07-1.18C18.448,11.153,17.835,11.024,17.211,11.072z M17.933,12.41
	h-1.779c0.056-0.409,0.424-0.858,1.004-0.88C17.703,11.509,18.094,11.73,17.933,12.41z M14.34,11.142
	c-0.641-0.241-1.422,0.047-1.761,0.32c0.001,0.012-0.008,0.014-0.018,0.015c0.006-0.005,0.012-0.01,0.018-0.015
	c0-0.001,0-0.002,0-0.003c0.006-0.118,0.047-0.199,0.053-0.317h-0.652c-0.271,1.806-0.594,3.562-0.933,5.3h0.757
	c0.11-0.677,0.182-1.391,0.335-2.025c0.173,0.667,1.302,0.539,1.779,0.282C14.901,14.168,15.659,11.638,14.34,11.142z
	 M13.742,14.118c-0.405,0.429-1.401,0.423-1.479-0.299c-0.034-0.314,0.083-0.643,0.141-0.968c0.059-0.329,0.101-0.645,0.158-0.933
	c0.399-0.487,1.572-0.546,1.691,0.264C14.356,12.885,14.077,13.763,13.742,14.118z M33.13,9.558
	c-0.065,0.569-0.152,1.116-0.264,1.638c-1.857-0.588-2.997,0.779-2.976,2.465c0.004,0.326,0.06,0.65,0.264,0.88
	c0.352,0.398,1.358,0.493,1.867,0.159c0.098-0.065,0.199-0.182,0.264-0.264c0.049-0.061,0.127-0.222,0.141-0.176
	c-0.027,0.179-0.067,0.344-0.07,0.546h0.687c0.132-1.899,0.542-3.52,0.845-5.248H33.13z M31.439,14.4
	c-0.51,0.011-0.763-0.305-0.775-0.828c-0.02-0.916,0.382-1.934,1.197-2.025c0.38-0.042,0.655,0.046,0.933,0.141
	C32.54,12.717,32.632,14.375,31.439,14.4z M24.906,11.142c-0.037,0.209-0.094,0.399-0.141,0.599
	c0.447-0.112,1.838-0.456,1.972,0.141c0.045,0.198-0.032,0.409-0.088,0.564c-1.258-0.119-2.284,0.09-2.553,0.986
	c-0.181,0.6,0.02,1.191,0.405,1.356c0.741,0.318,1.643-0.046,1.955-0.546c-0.032,0.173-0.063,0.348-0.053,0.563h0.652
	c0.007-0.624,0.098-1.129,0.194-1.691c0.082-0.478,0.236-0.952,0.211-1.374C27.404,10.775,25.802,11.116,24.906,11.142z
	 M26.139,14.101c-0.39,0.382-1.486,0.491-1.374-0.423c0.093-0.758,0.919-0.92,1.814-0.81C26.512,13.283,26.436,13.81,26.139,14.101z
	"/>
</svg>
