<?xml version="1.0" encoding="utf-8"?>
<!-- Generator: Adobe Illustrator 18.0.0, SVG Export Plug-In . SVG Version: 6.00 Build 0)  -->
<!DOCTYPE svg PUBLIC "-//W3C//DTD SVG 1.1//EN" "http://www.w3.org/Graphics/SVG/1.1/DTD/svg11.dtd">
<svg version="1.1" id="Layer_1" xmlns="http://www.w3.org/2000/svg" xmlns:xlink="http://www.w3.org/1999/xlink" x="0px" y="0px"
	 width="39px" height="26px" viewBox="0 0 39 26" style="enable-background:new 0 0 39 26;" xml:space="preserve">
<g>
	<path style="fill:#F3F4F4;" d="M2.001,25.5c-0.828,0-1.501-0.674-1.501-1.501V2.001C0.5,1.173,1.173,0.5,2.001,0.5h34.998
		c0.827,0,1.501,0.673,1.501,1.501v21.998c0,0.827-0.674,1.501-1.501,1.501H2.001z"/>
	<path style="fill:#DADBD9;" d="M36.999,1C37.551,1,38,1.449,38,2.001v21.998C38,24.551,37.551,25,36.999,25H2.001
		C1.449,25,1,24.551,1,23.999V2.001C1,1.449,1.449,1,2.001,1H36.999 M36.999,0H2.001C0.896,0,0,0.896,0,2.001v21.998
		C0,25.104,0.896,26,2.001,26h34.997C38.104,26,39,25.104,39,23.999V2.001C39,0.896,38.104,0,36.999,0L36.999,0z"/>
</g>
<g>
	<path style="fill-rule:evenodd;clip-rule:evenodd;fill:#2E368F;" d="M12.907,2.6l13.217,0.008c2.075,0,3.784,1.709,3.776,3.792
		v13.217c0,2.082-1.709,3.784-3.792,3.784l-13.224-0.008C10.802,23.385,9.1,21.683,9.1,19.601L9.115,6.384
		C9.115,4.302,10.817,2.592,12.907,2.6L12.907,2.6z"/>
	<path style="fill-rule:evenodd;clip-rule:evenodd;fill:#FCEE21;" d="M26.971,12.087h-1.507l-0.622,1.181h1.057L26.971,12.087
		L26.971,12.087z M27.973,14.006h-1.469v3.17c0,0.971-0.653,1.251-1.134,1.251c-0.458,0-0.963-0.171-0.956-1.018v-3.403h-1.469
		l-0.008,3.613c0,1.399,0.8,2.02,1.904,2.02c0.769,0.008,1.367-0.326,1.702-0.917h0.016v0.769h1.414V14.006L27.973,14.006z"/>
	<path style="fill-rule:evenodd;clip-rule:evenodd;fill:#FCEE21;" d="M21.796,15.459c0-1.36-1.43-1.601-2.222-1.601
		c-1.142,0-2.331,0.241-2.51,1.919h1.422c0.047-0.319,0.179-0.761,0.909-0.761c0.381,0,0.971,0.031,0.971,0.637
		c0,0.311-0.288,0.404-0.521,0.435l-1.321,0.194c-0.94,0.132-1.639,0.684-1.639,1.756c0,1.134,0.87,1.601,1.702,1.601
		c1.01,0,1.484-0.458,1.81-0.793c0.031,0.303,0.054,0.381,0.14,0.645l1.266-0.008c0-0.606-0.008-1.049-0.008-1.057V15.459
		L21.796,15.459z"/>
	<path style="fill-rule:evenodd;clip-rule:evenodd;fill:#FCEE21;" d="M15.533,12.087h-1.469v1.911h-0.761v1.033h0.754v3.333
		c0,0.707,0.225,1.189,1.5,1.189h0.194c0.233,0,0.466-0.016,0.692-0.023v-1.096c-0.101,0.008-0.21,0.023-0.303,0.023
		c-0.598,0-0.614-0.124-0.614-0.451l0.008-2.976h0.917v-1.033h-0.917V12.087L15.533,12.087z"/>
	<polygon style="fill-rule:evenodd;clip-rule:evenodd;fill:#FCEE21;" points="12.628,12.079 11.042,12.079 11.035,19.484 
		12.62,19.484 12.628,12.079 	"/>
	<path style="fill-rule:evenodd;clip-rule:evenodd;fill:#2E368F;" d="M20.366,17.526v-0.707c-0.148,0.117-0.396,0.21-1.002,0.295
		c-0.552,0.093-1.002,0.233-1.002,0.831c0,0.497,0.404,0.66,0.684,0.66C19.698,18.606,20.366,18.194,20.366,17.526L20.366,17.526z"
		/>
</g>
</svg>
