<svg xmlns="http://www.w3.org/2000/svg" width="60.04" height="16" viewBox="0 0 60.04 16"><path d="M40.516 0h-4.67c-.32 0-.591.232-.641.548l-1.888 11.976c-.037.236.146.45.384.45h2.397c.223 0 .414-.163.449-.383l.536-3.396c.049-.316.322-.548.641-.548h1.476c3.076 0 4.852-1.489 5.316-4.44.209-1.29.008-2.304-.596-3.014-.664-.78-1.841-1.193-3.404-1.193m.539 4.374c-.255 1.677-1.535 1.677-2.774 1.677h-.705l.494-3.13c.03-.189.193-.328.384-.328h.323c.843 0 1.639 0 2.05.48.247.286.321.713.228 1.301" fill="#179BD7"/><path d="M7.205 0h-4.67c-.32 0-.591.232-.641.548l-1.889 11.976c-.037.236.145.45.384.45h2.23c.319 0 .591-.232.641-.547l.51-3.231c.05-.317.322-.549.641-.549h1.478c3.076 0 4.852-1.489 5.316-4.44.209-1.29.008-2.304-.596-3.014-.664-.78-1.841-1.193-3.404-1.193m.539 4.374c-.255 1.677-1.536 1.677-2.774 1.677h-.705l.495-3.131c.03-.189.193-.328.384-.328h.323c.843 0 1.639 0 2.05.48.246.287.32.714.227 1.302M21.164 4.32h-2.236c-.191 0-.355.139-.385.329l-.098.625-.156-.226c-.485-.703-1.564-.938-2.642-.938-2.471 0-4.581 1.873-4.992 4.499-.214 1.31.09 2.562.833 3.436.682.803 1.656 1.137 2.816 1.137 1.992 0 3.096-1.279 3.096-1.279l-.1.621c-.037.236.145.45.385.45h2.014c.32 0 .591-.232.641-.547l1.209-7.656c.038-.237-.145-.451-.385-.451m-3.116 4.353c-.216 1.278-1.23 2.136-2.524 2.136-.649 0-1.168-.209-1.502-.604-.331-.391-.455-.95-.35-1.57.201-1.267 1.232-2.152 2.506-2.152.635 0 1.151.211 1.491.609.342.402.477.963.379 1.581" fill="#253B80"/><path d="M54.476 4.32h-2.236c-.191 0-.355.139-.385.329l-.098.625-.157-.226c-.484-.703-1.564-.938-2.642-.938-2.471 0-4.581 1.873-4.992 4.499-.214 1.31.09 2.562.833 3.436.682.803 1.656 1.137 2.816 1.137 1.992 0 3.096-1.279 3.096-1.279l-.1.621c-.037.236.145.45.385.45h2.014c.32 0 .591-.232.641-.547l1.209-7.656c.038-.237-.145-.451-.384-.451m-3.117 4.353c-.216 1.278-1.23 2.136-2.524 2.136-.649 0-1.168-.209-1.502-.604-.331-.391-.455-.95-.35-1.57.201-1.267 1.232-2.152 2.506-2.152.635 0 1.151.211 1.491.609.342.402.477.963.379 1.581" fill="#179BD7"/><path d="M33.076 4.32h-2.248c-.215 0-.416.107-.537.285l-3.101 4.567-1.314-4.389c-.082-.275-.335-.463-.622-.463h-2.209c-.267 0-.455.263-.369.515l2.475 7.266-2.328 3.285c-.182.258.002.614.318.614h2.245c.213 0 .412-.104.534-.279l7.475-10.79c.179-.258-.005-.611-.319-.611" fill="#253B80"/><path d="M57.112.329l-1.917 12.195c-.037.236.145.45.384.45h1.928c.319 0 .591-.232.641-.548l1.89-11.976c.038-.236-.145-.45-.384-.45h-2.157c-.192 0-.356.139-.385.329" fill="#179BD7"/></svg>