<?xml version="1.0" encoding="utf-8"?>
<!-- Generator: Adobe Illustrator 18.0.0, SVG Export Plug-In . SVG Version: 6.00 Build 0)  -->
<!DOCTYPE svg PUBLIC "-//W3C//DTD SVG 1.1//EN" "http://www.w3.org/Graphics/SVG/1.1/DTD/svg11.dtd">
<svg version="1.1" id="Layer_1" xmlns="http://www.w3.org/2000/svg" xmlns:xlink="http://www.w3.org/1999/xlink" x="0px" y="0px"
	 width="39px" height="26px" viewBox="0 0 39 26" style="enable-background:new 0 0 39 26;" xml:space="preserve">
<g>
	<g>
		<path style="fill:#F3F4F4;" d="M2.001,25.5c-0.828,0-1.501-0.674-1.501-1.501V2.001C0.5,1.173,1.173,0.5,2.001,0.5h34.998
			c0.827,0,1.501,0.673,1.501,1.501v21.998c0,0.827-0.674,1.501-1.501,1.501H2.001z"/>
		<path style="fill:#DADBD9;" d="M36.999,1C37.551,1,38,1.449,38,2.001v21.998C38,24.551,37.551,25,36.999,25H2.001
			C1.449,25,1,24.551,1,23.999V2.001C1,1.449,1.449,1,2.001,1H36.999 M36.999,0H2.001C0.896,0,0,0.896,0,2.001v21.998
			C0,25.104,0.896,26,2.001,26h34.997C38.104,26,39,25.104,39,23.999V2.001C39,0.896,38.104,0,36.999,0L36.999,0z"/>
	</g>
	<g>
		<g>
			<circle style="fill-rule:evenodd;clip-rule:evenodd;fill:#FBB230;" cx="25.623" cy="13" r="9.129"/>
			<circle style="fill-rule:evenodd;clip-rule:evenodd;fill:#EB2230;" cx="13.377" cy="13" r="9.129"/>
			<polygon style="fill-rule:evenodd;clip-rule:evenodd;fill:#FBB230;" points="18.431,7.373 23.281,7.373 23.281,6.877 
				18.85,6.877 18.431,7.373 18.431,7.373 			"/>
			<polygon style="fill-rule:evenodd;clip-rule:evenodd;fill:#FBB230;" points="17.705,8.475 23.281,8.475 23.281,7.979 
				17.997,7.979 17.705,8.475 17.705,8.475 			"/>
			<polygon style="fill-rule:evenodd;clip-rule:evenodd;fill:#FBB230;" points="17.163,9.574 23.281,9.574 23.281,9.079 
				17.378,9.079 17.163,9.574 17.163,9.574 			"/>
			<polygon style="fill-rule:evenodd;clip-rule:evenodd;fill:#FBB230;" points="16.79,10.677 23.281,10.677 23.281,10.181 
				16.944,10.181 16.79,10.677 16.79,10.677 			"/>
			<polygon style="fill-rule:evenodd;clip-rule:evenodd;fill:#FBB230;" points="17.006,16.004 23.297,16.004 23.297,15.508 
				16.852,15.508 17.006,16.004 17.006,16.004 			"/>
			<polygon style="fill-rule:evenodd;clip-rule:evenodd;fill:#FBB230;" points="17.471,17.107 23.297,17.107 23.297,16.611 
				17.24,16.611 17.471,17.107 17.471,17.107 			"/>
			<polygon style="fill-rule:evenodd;clip-rule:evenodd;fill:#FBB230;" points="16.571,11.776 23.281,11.776 23.281,11.28 
				16.667,11.28 16.571,11.776 16.571,11.776 			"/>
			<polygon style="fill-rule:evenodd;clip-rule:evenodd;fill:#FBB230;" points="20.661,14.905 23.22,14.905 23.22,14.409 
				20.753,14.409 20.661,14.905 20.661,14.905 			"/>
			<polygon style="fill-rule:evenodd;clip-rule:evenodd;fill:#FBB230;" points="20.864,13.806 23.22,13.806 23.22,13.307 
				20.957,13.307 20.864,13.806 20.864,13.806 			"/>
			<polygon style="fill-rule:evenodd;clip-rule:evenodd;fill:#FBB230;" points="16.402,13.307 17.067,13.307 17.067,13.806 
				16.433,13.806 16.402,13.307 16.402,13.307 			"/>
			<polygon style="fill-rule:evenodd;clip-rule:evenodd;fill:#FFFFFF;" points="15.161,12.706 15.118,12.703 15.075,12.697 
				15.035,12.691 14.995,12.685 14.958,12.678 14.918,12.672 14.878,12.666 14.835,12.66 14.792,12.654 14.742,12.651 
				14.687,12.648 14.628,12.645 14.564,12.645 14.493,12.648 14.413,12.654 14.323,12.66 14.262,12.669 14.203,12.678 
				14.151,12.697 14.105,12.715 14.062,12.737 14.022,12.762 13.991,12.792 13.963,12.82 13.945,12.854 13.929,12.888 
				13.923,12.925 13.923,12.962 13.932,13.002 13.945,13.042 13.969,13.082 14,13.122 14.062,13.18 14.136,13.227 14.222,13.267 
				14.314,13.3 14.413,13.331 14.514,13.365 14.616,13.402 14.715,13.442 14.807,13.494 14.893,13.559 14.97,13.636 15.035,13.732 
				15.084,13.849 15.115,13.987 15.127,14.153 15.115,14.347 15.093,14.492 15.056,14.618 15.007,14.735 14.945,14.837 
				14.875,14.926 14.795,15.003 14.708,15.071 14.613,15.13 14.514,15.176 14.413,15.216 14.308,15.247 14.2,15.271 14.096,15.29 
				13.994,15.299 13.892,15.305 13.797,15.308 13.664,15.308 13.541,15.305 13.434,15.305 13.332,15.302 13.239,15.299 
				13.156,15.293 13.082,15.287 13.012,15.277 12.947,15.271 12.888,15.259 12.83,15.25 12.778,15.234 12.725,15.222 12.676,15.204 
				12.627,15.185 12.574,15.167 12.713,14.486 12.741,14.492 12.775,14.501 12.818,14.514 12.87,14.526 12.925,14.538 
				12.987,14.551 13.055,14.566 13.129,14.578 13.206,14.591 13.286,14.603 13.369,14.612 13.455,14.622 13.544,14.625 
				13.634,14.628 13.723,14.628 13.812,14.625 13.902,14.606 13.972,14.581 14.028,14.548 14.071,14.505 14.102,14.461 
				14.126,14.412 14.142,14.363 14.154,14.317 14.16,14.227 14.133,14.15 14.08,14.089 14.003,14.036 13.911,13.99 13.803,13.944 
				13.683,13.901 13.563,13.852 13.44,13.796 13.323,13.732 13.215,13.651 13.116,13.556 13.039,13.439 12.984,13.3 12.956,13.134 
				12.959,12.937 12.975,12.817 12.996,12.703 13.027,12.598 13.064,12.5 13.113,12.407 13.169,12.327 13.233,12.25 13.31,12.183 
				13.4,12.124 13.498,12.075 13.609,12.029 13.732,11.995 13.871,11.967 14.022,11.946 14.188,11.933 14.37,11.93 14.484,11.93 
				14.588,11.933 14.684,11.936 14.77,11.939 14.847,11.946 14.918,11.952 14.979,11.958 15.035,11.964 15.087,11.97 15.13,11.979 
				15.17,11.986 15.207,11.992 15.238,11.998 15.266,12.001 15.293,12.007 15.318,12.01 15.161,12.706 15.161,12.706 			"/>
			<polyline style="fill:none;stroke:#FFFFFF;stroke-width:0.216;stroke-miterlimit:2.6131;" points="15.161,12.706 15.161,12.706 
				15.118,12.703 15.075,12.697 15.035,12.691 14.995,12.685 14.958,12.678 14.918,12.672 14.878,12.666 14.835,12.66 
				14.792,12.654 14.742,12.651 14.687,12.648 14.628,12.645 14.564,12.645 14.493,12.648 14.413,12.654 14.323,12.66 14.323,12.66 
				14.262,12.669 14.203,12.678 14.151,12.697 14.105,12.715 14.062,12.737 14.022,12.762 13.991,12.792 13.963,12.82 
				13.945,12.854 13.929,12.888 13.923,12.925 13.923,12.962 13.932,13.002 13.945,13.042 13.969,13.082 14,13.122 14,13.122 
				14.062,13.18 14.136,13.227 14.222,13.267 14.314,13.3 14.413,13.331 14.514,13.365 14.616,13.402 14.715,13.442 14.807,13.494 
				14.893,13.559 14.97,13.636 15.035,13.732 15.084,13.849 15.115,13.987 15.127,14.153 15.115,14.347 15.115,14.347 
				15.093,14.492 15.056,14.618 15.007,14.735 14.945,14.837 14.875,14.926 14.795,15.003 14.708,15.071 14.613,15.13 
				14.514,15.176 14.413,15.216 14.308,15.247 14.2,15.271 14.096,15.29 13.994,15.299 13.892,15.305 13.797,15.308 13.797,15.308 
				13.664,15.308 13.541,15.305 13.434,15.305 13.332,15.302 13.239,15.299 13.156,15.293 13.082,15.287 13.012,15.277 
				12.947,15.271 12.888,15.259 12.83,15.25 12.778,15.234 12.725,15.222 12.676,15.204 12.627,15.185 12.574,15.167 12.713,14.486 
				12.713,14.486 12.741,14.492 12.775,14.501 12.818,14.514 12.87,14.526 12.925,14.538 12.987,14.551 13.055,14.566 
				13.129,14.578 13.206,14.591 13.286,14.603 13.369,14.612 13.455,14.622 13.544,14.625 13.634,14.628 13.723,14.628 
				13.812,14.625 13.812,14.625 13.902,14.606 13.972,14.581 14.028,14.548 14.071,14.505 14.102,14.461 14.126,14.412 
				14.142,14.363 14.154,14.317 14.154,14.317 14.16,14.227 14.133,14.15 14.08,14.089 14.003,14.036 13.911,13.99 13.803,13.944 
				13.683,13.901 13.563,13.852 13.44,13.796 13.323,13.732 13.215,13.651 13.116,13.556 13.039,13.439 12.984,13.3 12.956,13.134 
				12.959,12.937 12.959,12.937 12.975,12.817 12.996,12.703 13.027,12.598 13.064,12.5 13.113,12.407 13.169,12.327 13.233,12.25 
				13.31,12.183 13.4,12.124 13.498,12.075 13.609,12.029 13.732,11.995 13.871,11.967 14.022,11.946 14.188,11.933 14.37,11.93 
				14.37,11.93 14.484,11.93 14.588,11.933 14.684,11.936 14.77,11.939 14.847,11.946 14.918,11.952 14.979,11.958 15.035,11.964 
				15.087,11.97 15.13,11.979 15.17,11.986 15.207,11.992 15.238,11.998 15.266,12.001 15.293,12.007 15.318,12.01 15.161,12.706 
							"/>
			<polygon style="fill-rule:evenodd;clip-rule:evenodd;fill:#FFFFFF;" points="15.891,11.25 16.744,11.25 16.618,11.995 
				17.132,11.995 17.021,12.691 16.479,12.675 16.183,14.394 16.18,14.455 16.196,14.508 16.227,14.548 16.267,14.581 
				16.322,14.603 16.384,14.622 16.451,14.634 16.525,14.64 16.593,14.637 16.655,14.631 16.71,14.622 16.759,14.609 16.799,14.597 
				16.827,14.588 16.846,14.581 16.852,14.578 16.744,15.151 16.722,15.167 16.701,15.179 16.679,15.191 16.658,15.204 
				16.636,15.213 16.611,15.222 16.584,15.231 16.556,15.241 16.525,15.25 16.494,15.256 16.457,15.262 16.421,15.268 16.38,15.274 
				16.334,15.281 16.285,15.287 16.233,15.293 15.999,15.293 15.875,15.284 15.768,15.271 15.669,15.253 15.586,15.231 
				15.515,15.204 15.457,15.173 15.404,15.136 15.364,15.096 15.334,15.053 15.312,15 15.297,14.948 15.287,14.889 15.284,14.825 
				15.284,14.757 15.293,14.686 15.303,14.609 15.891,11.25 15.891,11.25 			"/>
			<polyline style="fill:none;stroke:#FFFFFF;stroke-width:0.216;stroke-miterlimit:2.6131;" points="15.891,11.25 16.744,11.25 
				16.618,11.995 17.132,11.995 17.021,12.691 16.479,12.675 16.183,14.394 16.183,14.394 16.18,14.455 16.196,14.508 
				16.227,14.548 16.267,14.581 16.322,14.603 16.384,14.622 16.451,14.634 16.525,14.64 16.525,14.64 16.593,14.637 16.655,14.631 
				16.71,14.622 16.759,14.609 16.799,14.597 16.827,14.588 16.846,14.581 16.852,14.578 16.744,15.151 16.744,15.151 
				16.722,15.167 16.701,15.179 16.679,15.191 16.658,15.204 16.636,15.213 16.611,15.222 16.584,15.231 16.556,15.241 
				16.525,15.25 16.494,15.256 16.457,15.262 16.421,15.268 16.38,15.274 16.334,15.281 16.285,15.287 16.233,15.293 15.999,15.293 
				15.999,15.293 15.875,15.284 15.768,15.271 15.669,15.253 15.586,15.231 15.515,15.204 15.457,15.173 15.404,15.136 
				15.364,15.096 15.334,15.053 15.312,15 15.297,14.948 15.287,14.889 15.284,14.825 15.284,14.757 15.293,14.686 15.303,14.609 
				15.891,11.25 			"/>
			<polygon style="fill-rule:evenodd;clip-rule:evenodd;fill:#FFFFFF;" points="17.812,13.852 17.803,13.904 17.8,13.959 
				17.806,14.018 17.819,14.076 17.84,14.135 17.865,14.19 17.899,14.249 17.936,14.301 17.979,14.354 18.025,14.4 18.074,14.446 
				18.13,14.483 18.185,14.517 18.247,14.545 18.308,14.566 18.37,14.578 18.45,14.591 18.527,14.6 18.607,14.609 18.687,14.615 
				18.767,14.618 18.85,14.618 18.93,14.615 19.013,14.609 19.097,14.597 19.18,14.581 19.266,14.563 19.349,14.535 19.435,14.501 
				19.525,14.464 19.611,14.415 19.7,14.363 19.577,15.12 19.528,15.145 19.478,15.17 19.429,15.188 19.383,15.207 19.337,15.222 
				19.287,15.237 19.238,15.25 19.186,15.259 19.13,15.268 19.069,15.274 19.004,15.281 18.933,15.287 18.853,15.29 18.77,15.29 
				18.675,15.293 18.573,15.293 18.422,15.29 18.268,15.274 18.114,15.253 17.96,15.216 17.809,15.17 17.665,15.111 17.526,15.034 
				17.397,14.945 17.277,14.84 17.172,14.714 17.083,14.572 17.009,14.409 16.956,14.227 16.922,14.021 16.913,13.793 
				16.929,13.541 16.941,13.442 16.959,13.328 16.984,13.208 17.018,13.079 17.064,12.946 17.12,12.814 17.19,12.678 17.277,12.549 
				17.375,12.426 17.495,12.309 17.631,12.204 17.785,12.112 17.963,12.035 18.163,11.979 18.385,11.942 18.635,11.93 
				18.755,11.933 18.881,11.946 19.007,11.967 19.133,11.998 19.257,12.044 19.377,12.1 19.488,12.173 19.589,12.26 19.682,12.364 
				19.759,12.488 19.82,12.629 19.863,12.792 19.888,12.977 19.891,13.187 19.869,13.421 19.823,13.679 19.808,13.867 
				17.563,13.867 17.705,13.26 19.053,13.26 19.06,13.183 19.056,13.11 19.05,13.042 19.038,12.98 19.016,12.922 18.995,12.869 
				18.964,12.823 18.933,12.78 18.896,12.743 18.856,12.712 18.81,12.685 18.764,12.66 18.715,12.641 18.665,12.629 18.613,12.62 
				18.558,12.614 18.499,12.617 18.444,12.626 18.391,12.638 18.339,12.657 18.287,12.681 18.24,12.709 18.194,12.743 18.154,12.78 
				18.114,12.823 18.077,12.869 18.043,12.919 18.016,12.971 17.988,13.026 17.966,13.088 17.948,13.15 17.936,13.214 
				17.812,13.852 17.812,13.852 			"/>
			<polyline style="fill:none;stroke:#FFFFFF;stroke-width:0.216;stroke-miterlimit:2.6131;" points="17.812,13.852 17.812,13.852 
				17.803,13.904 17.8,13.959 17.806,14.018 17.819,14.076 17.84,14.135 17.865,14.19 17.899,14.249 17.936,14.301 17.979,14.354 
				18.025,14.4 18.074,14.446 18.13,14.483 18.185,14.517 18.247,14.545 18.308,14.566 18.37,14.578 18.37,14.578 18.45,14.591 
				18.527,14.6 18.607,14.609 18.687,14.615 18.767,14.618 18.85,14.618 18.93,14.615 19.013,14.609 19.097,14.597 19.18,14.581 
				19.266,14.563 19.349,14.535 19.435,14.501 19.525,14.464 19.611,14.415 19.7,14.363 19.577,15.12 19.577,15.12 19.528,15.145 
				19.478,15.17 19.429,15.188 19.383,15.207 19.337,15.222 19.287,15.237 19.238,15.25 19.186,15.259 19.13,15.268 19.069,15.274 
				19.004,15.281 18.933,15.287 18.853,15.29 18.77,15.29 18.675,15.293 18.573,15.293 18.573,15.293 18.422,15.29 18.268,15.274 
				18.114,15.253 17.96,15.216 17.809,15.17 17.665,15.111 17.526,15.034 17.397,14.945 17.277,14.84 17.172,14.714 17.083,14.572 
				17.009,14.409 16.956,14.227 16.922,14.021 16.913,13.793 16.929,13.541 16.929,13.541 16.941,13.442 16.959,13.328 
				16.984,13.208 17.018,13.079 17.064,12.946 17.12,12.814 17.19,12.678 17.277,12.549 17.375,12.426 17.495,12.309 17.631,12.204 
				17.785,12.112 17.963,12.035 18.163,11.979 18.385,11.942 18.635,11.93 18.635,11.93 18.755,11.933 18.881,11.946 19.007,11.967 
				19.133,11.998 19.257,12.044 19.377,12.1 19.488,12.173 19.589,12.26 19.682,12.364 19.759,12.488 19.82,12.629 19.863,12.792 
				19.888,12.977 19.891,13.187 19.869,13.421 19.823,13.679 19.808,13.867 17.563,13.867 17.705,13.26 19.053,13.26 19.053,13.26 
				19.06,13.183 19.056,13.11 19.05,13.042 19.038,12.98 19.016,12.922 18.995,12.869 18.964,12.823 18.933,12.78 18.896,12.743 
				18.856,12.712 18.81,12.685 18.764,12.66 18.715,12.641 18.665,12.629 18.613,12.62 18.558,12.614 18.558,12.614 18.499,12.617 
				18.444,12.626 18.391,12.638 18.339,12.657 18.287,12.681 18.24,12.709 18.194,12.743 18.154,12.78 18.114,12.823 18.077,12.869 
				18.043,12.919 18.016,12.971 17.988,13.026 17.966,13.088 17.948,13.15 17.936,13.214 17.812,13.852 			"/>
			<polygon style="fill-rule:evenodd;clip-rule:evenodd;fill:#FFFFFF;" points="25.157,12.18 25.117,12.158 25.077,12.14 
				25.034,12.118 24.987,12.096 24.941,12.078 24.889,12.059 24.837,12.041 24.781,12.023 24.723,12.007 24.664,11.995 
				24.599,11.982 24.535,11.973 24.464,11.967 24.393,11.961 24.319,11.961 24.242,11.961 24.165,11.961 24.085,11.967 
				24.002,11.976 23.916,11.992 23.83,12.016 23.743,12.05 23.657,12.093 23.571,12.149 23.488,12.217 23.408,12.297 23.331,12.395 
				23.257,12.509 23.189,12.645 23.124,12.799 23.066,12.971 23.017,13.168 22.998,13.279 22.986,13.387 22.98,13.494 
				22.983,13.599 22.992,13.704 23.014,13.802 23.041,13.895 23.075,13.987 23.121,14.07 23.177,14.15 23.241,14.221 23.315,14.286 
				23.398,14.341 23.494,14.387 23.599,14.428 23.716,14.455 23.756,14.464 23.802,14.474 23.857,14.48 23.919,14.486 
				23.987,14.492 24.057,14.492 24.134,14.492 24.211,14.486 24.292,14.477 24.372,14.461 24.449,14.44 24.526,14.415 
				24.603,14.381 24.673,14.341 24.738,14.292 24.8,14.237 24.661,15.059 24.643,15.074 24.624,15.093 24.599,15.114 24.572,15.133 
				24.538,15.157 24.495,15.179 24.445,15.2 24.39,15.219 24.319,15.241 24.239,15.256 24.147,15.268 24.039,15.281 23.919,15.287 
				23.78,15.29 23.623,15.287 23.451,15.277 23.309,15.262 23.168,15.231 23.026,15.185 22.884,15.123 22.749,15.05 22.619,14.957 
				22.496,14.849 22.382,14.726 22.281,14.588 22.194,14.434 22.121,14.261 22.065,14.073 22.028,13.867 22.016,13.648 
				22.022,13.408 22.056,13.153 22.08,13.026 22.108,12.903 22.139,12.783 22.17,12.669 22.204,12.561 22.244,12.454 22.284,12.352 
				22.327,12.257 22.373,12.161 22.419,12.072 22.472,11.986 22.527,11.905 22.582,11.829 22.644,11.755 22.706,11.687 
				22.77,11.622 22.841,11.561 22.912,11.502 22.986,11.45 23.063,11.4 23.146,11.354 23.229,11.314 23.315,11.277 23.405,11.243 
				23.5,11.213 23.596,11.188 23.694,11.166 23.799,11.148 23.903,11.133 24.014,11.12 24.125,11.114 24.242,11.111 24.341,11.114 
				24.436,11.12 24.529,11.129 24.621,11.142 24.707,11.154 24.79,11.173 24.87,11.188 24.944,11.206 25.015,11.225 25.077,11.243 
				25.135,11.262 25.185,11.28 25.228,11.296 25.265,11.308 25.292,11.32 25.311,11.327 25.157,12.18 25.157,12.18 			"/>
			<polyline style="fill:none;stroke:#FFFFFF;stroke-width:0.216;stroke-miterlimit:2.6131;" points="25.157,12.18 25.157,12.18 
				25.117,12.158 25.077,12.14 25.034,12.118 24.987,12.096 24.941,12.078 24.889,12.059 24.837,12.041 24.781,12.023 
				24.723,12.007 24.664,11.995 24.599,11.982 24.535,11.973 24.464,11.967 24.393,11.961 24.319,11.961 24.242,11.961 
				24.242,11.961 24.165,11.961 24.085,11.967 24.002,11.976 23.916,11.992 23.83,12.016 23.743,12.05 23.657,12.093 23.571,12.149 
				23.488,12.217 23.408,12.297 23.331,12.395 23.257,12.509 23.189,12.645 23.124,12.799 23.066,12.971 23.017,13.168 
				23.017,13.168 22.998,13.279 22.986,13.387 22.98,13.494 22.983,13.599 22.992,13.704 23.014,13.802 23.041,13.895 
				23.075,13.987 23.121,14.07 23.177,14.15 23.241,14.221 23.315,14.286 23.398,14.341 23.494,14.387 23.599,14.428 23.716,14.455 
				23.716,14.455 23.756,14.464 23.802,14.474 23.857,14.48 23.919,14.486 23.987,14.492 24.057,14.492 24.134,14.492 
				24.211,14.486 24.292,14.477 24.372,14.461 24.449,14.44 24.526,14.415 24.603,14.381 24.673,14.341 24.738,14.292 24.8,14.237 
				24.661,15.059 24.661,15.059 24.643,15.074 24.624,15.093 24.599,15.114 24.572,15.133 24.538,15.157 24.495,15.179 24.445,15.2 
				24.39,15.219 24.319,15.241 24.239,15.256 24.147,15.268 24.039,15.281 23.919,15.287 23.78,15.29 23.623,15.287 23.451,15.277 
				23.451,15.277 23.309,15.262 23.168,15.231 23.026,15.185 22.884,15.123 22.749,15.05 22.619,14.957 22.496,14.849 
				22.382,14.726 22.281,14.588 22.194,14.434 22.121,14.261 22.065,14.073 22.028,13.867 22.016,13.648 22.022,13.408 
				22.056,13.153 22.056,13.153 22.08,13.026 22.108,12.903 22.139,12.783 22.17,12.669 22.204,12.561 22.244,12.454 22.284,12.352 
				22.327,12.257 22.373,12.161 22.419,12.072 22.472,11.986 22.527,11.905 22.582,11.829 22.644,11.755 22.706,11.687 
				22.77,11.622 22.841,11.561 22.912,11.502 22.986,11.45 23.063,11.4 23.146,11.354 23.229,11.314 23.315,11.277 23.405,11.243 
				23.5,11.213 23.596,11.188 23.694,11.166 23.799,11.148 23.903,11.133 24.014,11.12 24.125,11.114 24.242,11.111 24.242,11.111 
				24.341,11.114 24.436,11.12 24.529,11.129 24.621,11.142 24.707,11.154 24.79,11.173 24.87,11.188 24.944,11.206 25.015,11.225 
				25.077,11.243 25.135,11.262 25.185,11.28 25.228,11.296 25.265,11.308 25.292,11.32 25.311,11.327 25.157,12.18 			"/>
			<polygon style="fill-rule:evenodd;clip-rule:evenodd;fill:#FFFFFF;" points="32.738,15.293 31.885,15.293 31.947,14.951 
				31.947,14.92 31.898,14.982 31.845,15.037 31.793,15.087 31.738,15.13 31.682,15.17 31.627,15.204 31.571,15.231 31.513,15.259 
				31.454,15.281 31.396,15.296 31.337,15.311 31.276,15.321 31.214,15.33 31.156,15.336 31.094,15.339 31.032,15.339 
				30.872,15.327 30.724,15.293 30.589,15.241 30.466,15.17 30.355,15.08 30.256,14.976 30.17,14.862 30.096,14.732 30.035,14.594 
				29.985,14.449 29.951,14.298 29.927,14.141 29.918,13.984 29.921,13.824 29.936,13.667 29.964,13.51 30.01,13.328 30.065,13.156 
				30.13,12.999 30.207,12.851 30.287,12.712 30.38,12.589 30.475,12.478 30.577,12.377 30.684,12.287 30.798,12.21 30.915,12.143 
				31.032,12.09 31.156,12.047 31.279,12.019 31.402,12.001 31.528,11.995 31.617,11.998 31.704,12.007 31.784,12.023 
				31.858,12.044 31.928,12.069 31.99,12.096 32.052,12.13 32.107,12.164 32.156,12.201 32.203,12.241 32.243,12.281 32.28,12.321 
				32.31,12.361 32.338,12.401 32.363,12.438 32.381,12.475 32.381,12.475 32.597,11.265 33.434,11.265 32.738,15.293 
				32.738,15.293 			"/>
			<polyline style="fill:none;stroke:#FFFFFF;stroke-width:0.216;stroke-miterlimit:2.6131;" points="32.738,15.293 31.885,15.293 
				31.947,14.951 31.947,14.92 31.947,14.92 31.898,14.982 31.845,15.037 31.793,15.087 31.738,15.13 31.682,15.17 31.627,15.204 
				31.571,15.231 31.513,15.259 31.454,15.281 31.396,15.296 31.337,15.311 31.276,15.321 31.214,15.33 31.156,15.336 
				31.094,15.339 31.032,15.339 31.032,15.339 30.872,15.327 30.724,15.293 30.589,15.241 30.466,15.17 30.355,15.08 30.256,14.976 
				30.17,14.862 30.096,14.732 30.035,14.594 29.985,14.449 29.951,14.298 29.927,14.141 29.918,13.984 29.921,13.824 
				29.936,13.667 29.964,13.51 29.964,13.51 30.01,13.328 30.065,13.156 30.13,12.999 30.207,12.851 30.287,12.712 30.38,12.589 
				30.475,12.478 30.577,12.377 30.684,12.287 30.798,12.21 30.915,12.143 31.032,12.09 31.156,12.047 31.279,12.019 31.402,12.001 
				31.528,11.995 31.528,11.995 31.617,11.998 31.704,12.007 31.784,12.023 31.858,12.044 31.928,12.069 31.99,12.096 32.052,12.13 
				32.107,12.164 32.156,12.201 32.203,12.241 32.243,12.281 32.28,12.321 32.31,12.361 32.338,12.401 32.363,12.438 32.381,12.475 
				32.381,12.475 32.597,11.265 33.434,11.265 32.738,15.293 			"/>
			<polygon style="fill-rule:evenodd;clip-rule:evenodd;fill:#FBB230;" points="31.343,14.548 31.43,14.541 31.51,14.523 
				31.584,14.501 31.654,14.468 31.719,14.431 31.781,14.384 31.839,14.332 31.892,14.277 31.938,14.215 31.981,14.147 
				32.021,14.076 32.055,14.003 32.086,13.926 32.11,13.846 32.132,13.762 32.147,13.679 32.162,13.593 32.172,13.504 
				32.172,13.421 32.169,13.334 32.159,13.254 32.147,13.177 32.126,13.103 32.101,13.033 32.07,12.971 32.033,12.912 
				31.993,12.863 31.947,12.82 31.895,12.783 31.839,12.758 31.781,12.743 31.716,12.737 31.633,12.743 31.556,12.755 31.485,12.78 
				31.414,12.811 31.353,12.851 31.291,12.9 31.239,12.952 31.186,13.011 31.14,13.079 31.097,13.15 31.057,13.223 31.023,13.304 
				30.992,13.387 30.968,13.47 30.943,13.559 30.925,13.648 30.909,13.784 30.915,13.932 30.937,14.083 30.977,14.227 
				31.039,14.354 31.119,14.455 31.22,14.523 31.343,14.548 31.343,14.548 			"/>
			<polygon style="fill-rule:evenodd;clip-rule:evenodd;fill:#FFFFFF;" points="12.433,14.609 12.31,15.293 11.533,15.293 
				11.555,15.167 11.57,15.053 11.583,14.966 11.595,14.92 11.552,14.969 11.503,15.019 11.444,15.065 11.38,15.108 11.306,15.151 
				11.229,15.188 11.149,15.225 11.065,15.256 10.976,15.284 10.887,15.305 10.797,15.324 10.705,15.336 10.616,15.342 
				10.527,15.345 10.44,15.336 10.357,15.324 10.249,15.296 10.151,15.265 10.065,15.225 9.988,15.179 9.92,15.13 9.858,15.074 
				9.809,15.016 9.766,14.954 9.729,14.889 9.698,14.822 9.674,14.754 9.655,14.686 9.643,14.615 9.634,14.545 9.627,14.477 
				9.627,14.409 9.637,14.289 9.655,14.175 9.686,14.067 9.726,13.963 9.775,13.864 9.831,13.775 9.895,13.688 9.969,13.611 
				10.046,13.541 10.132,13.476 10.222,13.417 10.314,13.368 10.413,13.325 10.514,13.291 10.619,13.263 10.727,13.245 
				10.733,13.245 10.748,13.242 10.77,13.239 10.804,13.236 10.841,13.23 10.884,13.227 10.93,13.22 10.982,13.214 11.035,13.208 
				11.087,13.202 11.142,13.199 11.192,13.193 11.241,13.19 11.287,13.187 11.33,13.183 11.364,13.183 11.435,13.183 11.509,13.187 
				11.577,13.19 11.644,13.19 11.7,13.193 11.743,13.196 11.774,13.199 11.783,13.199 11.789,13.177 11.808,13.122 11.823,13.057 
				11.829,12.999 11.817,12.931 11.789,12.869 11.752,12.814 11.703,12.768 11.644,12.728 11.58,12.7 11.506,12.681 11.426,12.675 
				11.34,12.672 11.247,12.669 11.152,12.669 11.053,12.672 10.951,12.678 10.853,12.688 10.754,12.697 10.659,12.709 
				10.567,12.722 10.477,12.737 10.397,12.752 10.323,12.768 10.256,12.786 10.2,12.805 10.157,12.826 10.123,12.845 10.342,12.103 
				10.409,12.075 10.477,12.05 10.551,12.029 10.625,12.013 10.699,11.998 10.779,11.986 10.859,11.973 10.942,11.967 
				11.028,11.961 11.118,11.958 11.21,11.955 11.306,11.955 11.404,11.955 11.506,11.955 11.614,11.958 11.721,11.961 
				11.808,11.967 11.9,11.982 11.995,12.004 12.094,12.032 12.189,12.069 12.282,12.112 12.374,12.164 12.46,12.223 12.537,12.29 
				12.605,12.364 12.667,12.447 12.713,12.54 12.744,12.638 12.762,12.743 12.762,12.86 12.744,12.983 12.433,14.609 12.433,14.609 
							"/>
			<polyline style="fill:none;stroke:#FFFFFF;stroke-width:0.216;stroke-miterlimit:2.6131;" points="12.433,14.609 12.31,15.293 
				11.533,15.293 11.533,15.293 11.555,15.167 11.57,15.053 11.583,14.966 11.595,14.92 11.595,14.92 11.552,14.969 11.503,15.019 
				11.444,15.065 11.38,15.108 11.306,15.151 11.229,15.188 11.149,15.225 11.065,15.256 10.976,15.284 10.887,15.305 
				10.797,15.324 10.705,15.336 10.616,15.342 10.527,15.345 10.44,15.336 10.357,15.324 10.357,15.324 10.249,15.296 
				10.151,15.265 10.065,15.225 9.988,15.179 9.92,15.13 9.858,15.074 9.809,15.016 9.766,14.954 9.729,14.889 9.698,14.822 
				9.674,14.754 9.655,14.686 9.643,14.615 9.634,14.545 9.627,14.477 9.627,14.409 9.627,14.409 9.637,14.289 9.655,14.175 
				9.686,14.067 9.726,13.963 9.775,13.864 9.831,13.775 9.895,13.688 9.969,13.611 10.046,13.541 10.132,13.476 10.222,13.417 
				10.314,13.368 10.413,13.325 10.514,13.291 10.619,13.263 10.727,13.245 10.727,13.245 10.733,13.245 10.748,13.242 
				10.77,13.239 10.804,13.236 10.841,13.23 10.884,13.227 10.93,13.22 10.982,13.214 11.035,13.208 11.087,13.202 11.142,13.199 
				11.192,13.193 11.241,13.19 11.287,13.187 11.33,13.183 11.364,13.183 11.364,13.183 11.435,13.183 11.509,13.187 11.577,13.19 
				11.644,13.19 11.7,13.193 11.743,13.196 11.774,13.199 11.783,13.199 11.783,13.199 11.789,13.177 11.808,13.122 11.823,13.057 
				11.829,12.999 11.829,12.999 11.817,12.931 11.789,12.869 11.752,12.814 11.703,12.768 11.644,12.728 11.58,12.7 11.506,12.681 
				11.426,12.675 11.426,12.675 11.34,12.672 11.247,12.669 11.152,12.669 11.053,12.672 10.951,12.678 10.853,12.688 
				10.754,12.697 10.659,12.709 10.567,12.722 10.477,12.737 10.397,12.752 10.323,12.768 10.256,12.786 10.2,12.805 10.157,12.826 
				10.123,12.845 10.342,12.103 10.342,12.103 10.409,12.075 10.477,12.05 10.551,12.029 10.625,12.013 10.699,11.998 
				10.779,11.986 10.859,11.973 10.942,11.967 11.028,11.961 11.118,11.958 11.21,11.955 11.306,11.955 11.404,11.955 
				11.506,11.955 11.614,11.958 11.721,11.961 11.721,11.961 11.808,11.967 11.9,11.982 11.995,12.004 12.094,12.032 12.189,12.069 
				12.282,12.112 12.374,12.164 12.46,12.223 12.537,12.29 12.605,12.364 12.667,12.447 12.713,12.54 12.744,12.638 12.762,12.743 
				12.762,12.86 12.744,12.983 12.433,14.609 			"/>
			<polygon style="fill-rule:evenodd;clip-rule:evenodd;fill:#EB2230;" points="11.691,13.806 11.687,13.79 11.675,13.775 
				11.657,13.765 11.626,13.759 11.592,13.753 11.552,13.75 11.506,13.75 11.46,13.75 11.41,13.753 11.358,13.759 11.309,13.765 
				11.259,13.772 11.213,13.778 11.17,13.787 11.133,13.796 11.099,13.806 11.078,13.812 11.053,13.821 11.019,13.833 
				10.985,13.849 10.945,13.867 10.905,13.889 10.862,13.91 10.822,13.935 10.779,13.966 10.739,13.996 10.702,14.033 10.668,14.07 
				10.637,14.11 10.616,14.153 10.597,14.203 10.588,14.252 10.585,14.357 10.6,14.44 10.631,14.501 10.671,14.548 10.717,14.578 
				10.77,14.597 10.819,14.606 10.868,14.609 10.961,14.606 11.044,14.597 11.124,14.585 11.195,14.566 11.256,14.545 
				11.315,14.517 11.367,14.489 11.413,14.455 11.453,14.424 11.49,14.387 11.521,14.354 11.546,14.317 11.567,14.28 11.586,14.243 
				11.601,14.209 11.61,14.175 11.635,14.086 11.657,13.984 11.675,13.886 11.691,13.806 11.691,13.806 			"/>
			<polygon style="fill-rule:evenodd;clip-rule:evenodd;fill:#FFFFFF;" points="5.954,15.293 5.116,15.293 5.815,11.25 7.272,11.25 
				7.41,13.648 8.417,11.25 9.938,11.25 9.224,15.293 8.386,15.293 8.916,12.272 8.882,12.272 7.629,15.293 6.683,15.293 
				6.677,15.167 6.656,14.831 6.628,14.354 6.597,13.806 6.566,13.254 6.539,12.771 6.517,12.42 6.511,12.272 6.502,12.272 
				6.483,12.272 6.465,12.272 6.465,12.272 5.954,15.293 5.954,15.293 			"/>
			<polyline style="fill:none;stroke:#FFFFFF;stroke-width:0.216;stroke-miterlimit:2.6131;" points="5.954,15.293 5.116,15.293 
				5.815,11.25 7.272,11.25 7.41,13.648 8.417,11.25 9.938,11.25 9.224,15.293 8.386,15.293 8.916,12.272 8.882,12.272 
				7.629,15.293 6.683,15.293 6.683,15.293 6.677,15.167 6.656,14.831 6.628,14.354 6.597,13.806 6.566,13.254 6.539,12.771 
				6.517,12.42 6.511,12.272 6.511,12.272 6.502,12.272 6.483,12.272 6.465,12.272 6.465,12.272 5.954,15.293 			"/>
			<polygon style="fill-rule:evenodd;clip-rule:evenodd;fill:#FFFFFF;" points="27.716,14.609 27.59,15.293 26.817,15.293 
				26.823,15.167 26.826,15.056 26.826,14.973 26.832,14.936 26.792,14.982 26.746,15.028 26.69,15.071 26.629,15.114 
				26.564,15.154 26.49,15.191 26.413,15.228 26.336,15.259 26.253,15.284 26.167,15.308 26.081,15.324 25.994,15.336 
				25.905,15.342 25.819,15.345 25.736,15.336 25.653,15.324 25.542,15.296 25.443,15.265 25.357,15.225 25.277,15.179 
				25.209,15.13 25.151,15.074 25.101,15.016 25.058,14.954 25.021,14.889 24.994,14.822 24.969,14.754 24.954,14.686 
				24.941,14.615 24.932,14.545 24.926,14.477 24.926,14.409 24.932,14.289 24.95,14.175 24.978,14.067 25.018,13.963 
				25.064,13.864 25.123,13.775 25.188,13.688 25.258,13.611 25.339,13.541 25.422,13.476 25.511,13.417 25.606,13.368 
				25.702,13.325 25.804,13.291 25.905,13.263 26.01,13.245 26.016,13.245 26.031,13.242 26.053,13.239 26.084,13.236 26.124,13.23 
				26.167,13.227 26.213,13.22 26.262,13.214 26.315,13.208 26.37,13.202 26.422,13.199 26.475,13.193 26.524,13.19 26.567,13.187 
				26.61,13.183 26.644,13.183 26.718,13.183 26.792,13.187 26.863,13.19 26.931,13.19 26.989,13.193 27.038,13.196 27.066,13.199 
				27.078,13.199 27.085,13.177 27.094,13.122 27.103,13.057 27.109,12.999 27.097,12.931 27.072,12.869 27.032,12.814 
				26.986,12.768 26.931,12.728 26.866,12.7 26.798,12.681 26.724,12.675 26.638,12.672 26.546,12.669 26.45,12.669 26.352,12.672 
				26.25,12.678 26.151,12.688 26.053,12.697 25.957,12.709 25.865,12.722 25.776,12.737 25.696,12.752 25.622,12.768 
				25.554,12.786 25.499,12.805 25.456,12.826 25.422,12.845 25.637,12.103 25.705,12.075 25.776,12.05 25.847,12.029 
				25.921,12.013 25.998,11.998 26.075,11.986 26.155,11.973 26.238,11.967 26.324,11.961 26.413,11.958 26.503,11.955 
				26.598,11.955 26.694,11.955 26.792,11.955 26.897,11.958 27.001,11.961 27.088,11.967 27.18,11.982 27.275,12.004 
				27.374,12.032 27.469,12.069 27.565,12.112 27.657,12.164 27.744,12.223 27.821,12.29 27.891,12.364 27.953,12.447 27.999,12.54 
				28.033,12.638 28.055,12.743 28.055,12.86 28.039,12.983 27.716,14.609 27.716,14.609 			"/>
			<polygon style="fill-rule:evenodd;clip-rule:evenodd;fill:#FFFFFF;" points="27.59,15.314 27.608,15.296 27.734,14.612 
				27.697,14.606 27.571,15.29 27.59,15.271 27.59,15.314 27.605,15.311 27.608,15.296 27.59,15.314 27.59,15.314 			"/>
			<polygon style="fill-rule:evenodd;clip-rule:evenodd;fill:#FFFFFF;" points="26.798,15.293 26.817,15.314 27.59,15.314 
				27.59,15.271 26.817,15.271 26.835,15.293 26.798,15.293 26.795,15.314 26.817,15.314 26.798,15.293 26.798,15.293 			"/>
			<polygon style="fill-rule:evenodd;clip-rule:evenodd;fill:#FFFFFF;" points="26.847,14.948 26.82,14.923 26.807,14.973 
				26.804,15.056 26.804,15.167 26.798,15.293 26.835,15.293 26.841,15.167 26.847,15.056 26.844,14.973 26.844,14.948 
				26.817,14.923 26.847,14.948 26.847,14.948 			"/>
			<polygon style="fill-rule:evenodd;clip-rule:evenodd;fill:#FFFFFF;" points="25.65,15.342 25.65,15.342 25.736,15.354 
				25.819,15.364 25.905,15.361 25.994,15.354 26.084,15.342 26.17,15.327 26.256,15.302 26.342,15.277 26.419,15.247 26.499,15.21 
				26.573,15.173 26.638,15.13 26.703,15.087 26.758,15.043 26.807,14.994 26.847,14.948 26.817,14.923 26.777,14.969 
				26.734,15.013 26.678,15.056 26.62,15.099 26.555,15.136 26.481,15.173 26.407,15.21 26.33,15.241 26.25,15.265 26.164,15.29 
				26.078,15.305 25.994,15.317 25.905,15.324 25.819,15.327 25.736,15.317 25.656,15.305 25.656,15.305 25.65,15.342 25.65,15.342 
							"/>
			<polygon style="fill-rule:evenodd;clip-rule:evenodd;fill:#FFFFFF;" points="24.904,14.409 24.904,14.409 24.907,14.477 
				24.914,14.545 24.923,14.618 24.935,14.689 24.95,14.757 24.975,14.828 25.003,14.899 25.043,14.963 25.086,15.028 
				25.135,15.087 25.197,15.145 25.268,15.194 25.348,15.244 25.437,15.284 25.539,15.314 25.65,15.342 25.656,15.305 
				25.545,15.277 25.449,15.247 25.366,15.207 25.286,15.164 25.221,15.114 25.166,15.062 25.117,15.003 25.074,14.945 25.04,14.88 
				25.012,14.816 24.987,14.751 24.972,14.683 24.96,14.612 24.95,14.545 24.944,14.477 24.947,14.409 24.947,14.409 24.904,14.409 
				24.904,14.409 			"/>
			<polygon style="fill-rule:evenodd;clip-rule:evenodd;fill:#FFFFFF;" points="26.01,13.227 26.01,13.227 25.902,13.245 
				25.797,13.273 25.696,13.307 25.597,13.35 25.502,13.399 25.409,13.461 25.326,13.525 25.246,13.599 25.172,13.676 
				25.108,13.762 25.046,13.855 25,13.956 24.96,14.061 24.932,14.172 24.914,14.289 24.904,14.409 24.947,14.409 24.95,14.289 
				24.969,14.178 24.997,14.073 25.037,13.969 25.083,13.873 25.138,13.787 25.203,13.701 25.271,13.624 25.351,13.556 
				25.434,13.491 25.52,13.436 25.616,13.387 25.708,13.344 25.81,13.31 25.908,13.282 26.01,13.263 26.01,13.263 26.01,13.227 
				26.01,13.227 			"/>
			<polygon style="fill-rule:evenodd;clip-rule:evenodd;fill:#FFFFFF;" points="26.644,13.162 26.644,13.162 26.61,13.162 
				26.567,13.168 26.524,13.171 26.475,13.174 26.422,13.18 26.37,13.183 26.315,13.19 26.262,13.196 26.213,13.202 26.167,13.208 
				26.124,13.211 26.084,13.217 26.053,13.22 26.028,13.223 26.016,13.227 26.01,13.227 26.01,13.263 26.016,13.263 26.034,13.26 
				26.053,13.257 26.084,13.254 26.124,13.248 26.167,13.245 26.213,13.239 26.262,13.233 26.315,13.227 26.37,13.22 26.422,13.217 
				26.475,13.211 26.524,13.208 26.567,13.205 26.61,13.205 26.644,13.205 26.644,13.205 26.644,13.162 26.644,13.162 			"/>
			<polygon style="fill-rule:evenodd;clip-rule:evenodd;fill:#FFFFFF;" points="27.06,13.196 27.078,13.18 27.066,13.18 
				27.038,13.177 26.989,13.174 26.931,13.168 26.863,13.168 26.792,13.168 26.718,13.162 26.644,13.162 26.644,13.205 
				26.718,13.205 26.792,13.205 26.863,13.211 26.931,13.211 26.989,13.211 27.038,13.214 27.066,13.217 27.078,13.217 
				27.097,13.202 27.078,13.217 27.094,13.22 27.097,13.202 27.06,13.196 27.06,13.196 			"/>
			<polygon style="fill-rule:evenodd;clip-rule:evenodd;fill:#FFFFFF;" points="27.091,12.999 27.088,12.999 27.085,13.057 
				27.075,13.119 27.066,13.174 27.06,13.196 27.097,13.202 27.103,13.18 27.112,13.125 27.122,13.057 27.131,12.999 27.128,12.999 
				27.091,12.999 27.091,12.999 			"/>
			<polygon style="fill-rule:evenodd;clip-rule:evenodd;fill:#FFFFFF;" points="26.724,12.694 26.724,12.697 26.795,12.7 
				26.86,12.718 26.921,12.746 26.974,12.783 27.017,12.826 27.054,12.879 27.078,12.934 27.091,12.999 27.128,12.999 
				27.115,12.928 27.091,12.86 27.048,12.802 26.998,12.752 26.94,12.709 26.872,12.681 26.801,12.663 26.724,12.654 26.724,12.657 
				26.724,12.694 26.724,12.694 			"/>
			<polygon style="fill-rule:evenodd;clip-rule:evenodd;fill:#FFFFFF;" points="25.403,12.842 25.434,12.86 25.465,12.845 
				25.505,12.823 25.557,12.805 25.625,12.786 25.699,12.771 25.779,12.755 25.868,12.74 25.957,12.728 26.053,12.715 
				26.151,12.706 26.25,12.697 26.352,12.691 26.45,12.691 26.546,12.691 26.638,12.691 26.724,12.694 26.724,12.657 26.638,12.654 
				26.546,12.648 26.45,12.648 26.352,12.654 26.25,12.66 26.151,12.669 26.053,12.678 25.957,12.691 25.862,12.703 25.773,12.718 
				25.693,12.734 25.619,12.749 25.551,12.768 25.492,12.786 25.446,12.808 25.409,12.829 25.44,12.848 25.403,12.842 
				25.403,12.842 			"/>
			<polygon style="fill-rule:evenodd;clip-rule:evenodd;fill:#FFFFFF;" points="25.631,12.084 25.619,12.1 25.403,12.842 
				25.44,12.848 25.656,12.106 25.643,12.121 25.631,12.084 25.622,12.087 25.619,12.1 25.631,12.084 25.631,12.084 			"/>
			<polygon style="fill-rule:evenodd;clip-rule:evenodd;fill:#FFFFFF;" points="27.001,11.942 27.001,11.942 26.897,11.936 
				26.792,11.933 26.694,11.933 26.598,11.933 26.503,11.933 26.413,11.939 26.324,11.942 26.238,11.949 26.155,11.955 
				26.071,11.967 25.994,11.979 25.917,11.995 25.844,12.01 25.77,12.032 25.699,12.056 25.631,12.084 25.643,12.121 25.711,12.093 
				25.782,12.069 25.85,12.047 25.924,12.032 26.001,12.016 26.078,12.004 26.155,11.992 26.238,11.986 26.324,11.979 
				26.413,11.976 26.503,11.976 26.598,11.976 26.694,11.976 26.792,11.976 26.897,11.979 27.001,11.979 27.001,11.979 
				27.001,11.942 27.001,11.942 			"/>
			<polygon style="fill-rule:evenodd;clip-rule:evenodd;fill:#FFFFFF;" points="28.058,12.986 28.058,12.986 28.073,12.86 
				28.073,12.743 28.051,12.635 28.018,12.534 27.968,12.438 27.907,12.352 27.833,12.275 27.756,12.207 27.667,12.149 
				27.574,12.093 27.476,12.05 27.38,12.013 27.279,11.986 27.183,11.964 27.088,11.949 27.001,11.942 27.001,11.979 27.088,11.986 
				27.177,12.001 27.272,12.023 27.368,12.05 27.463,12.087 27.556,12.13 27.648,12.18 27.731,12.238 27.808,12.306 27.876,12.377 
				27.938,12.457 27.981,12.546 28.015,12.641 28.036,12.743 28.036,12.86 28.021,12.98 28.021,12.98 28.058,12.986 28.058,12.986 
							"/>
			<polygon style="fill-rule:evenodd;clip-rule:evenodd;fill:#FFFFFF;" points="27.734,14.612 27.734,14.612 28.058,12.986 
				28.021,12.98 27.697,14.606 27.697,14.606 27.734,14.612 27.734,14.612 			"/>
			<polygon style="fill-rule:evenodd;clip-rule:evenodd;fill:#FBB230;" points="26.971,13.806 26.964,13.787 26.952,13.772 
				26.931,13.762 26.9,13.753 26.866,13.75 26.826,13.747 26.78,13.747 26.734,13.75 26.684,13.756 26.635,13.762 26.586,13.769 
				26.539,13.775 26.493,13.784 26.453,13.79 26.413,13.799 26.382,13.806 26.361,13.809 26.336,13.818 26.306,13.827 
				26.272,13.839 26.232,13.858 26.195,13.876 26.151,13.898 26.111,13.926 26.071,13.953 26.031,13.987 25.998,14.021 
				25.964,14.061 25.936,14.104 25.914,14.15 25.896,14.2 25.887,14.252 25.884,14.357 25.899,14.44 25.924,14.501 25.961,14.548 
				26.007,14.578 26.059,14.597 26.111,14.606 26.164,14.609 26.256,14.606 26.342,14.597 26.422,14.581 26.493,14.56 
				26.561,14.535 26.62,14.508 26.675,14.477 26.724,14.44 26.767,14.406 26.804,14.366 26.838,14.329 26.866,14.289 26.887,14.252 
				26.903,14.215 26.915,14.178 26.924,14.144 26.937,14.058 26.952,13.969 26.964,13.882 26.971,13.806 26.971,13.806 			"/>
			<polygon style="fill-rule:evenodd;clip-rule:evenodd;fill:#FFFFFF;" points="33.314,14.871 33.32,14.8 33.345,14.717 
				33.388,14.643 33.44,14.578 33.505,14.526 33.579,14.489 33.659,14.464 33.745,14.455 33.832,14.464 33.912,14.489 
				33.986,14.526 34.05,14.578 34.103,14.643 34.146,14.717 34.17,14.8 34.176,14.871 34.084,14.871 34.081,14.816 34.063,14.748 
				34.032,14.686 33.992,14.634 33.942,14.591 33.884,14.56 33.816,14.538 33.745,14.532 33.675,14.538 33.607,14.56 33.548,14.591 
				33.499,14.634 33.459,14.686 33.428,14.748 33.41,14.816 33.404,14.871 33.314,14.871 33.314,14.871 			"/>
			<polygon style="fill-rule:evenodd;clip-rule:evenodd;fill:#FFFFFF;" points="33.591,14.871 33.591,14.686 33.761,14.686 
				33.798,14.689 33.832,14.695 33.856,14.705 33.878,14.717 33.893,14.735 33.905,14.754 33.912,14.775 33.915,14.797 
				33.912,14.825 33.905,14.846 33.896,14.865 33.89,14.871 33.761,14.871 33.773,14.868 33.795,14.865 33.813,14.859 
				33.828,14.852 33.841,14.843 33.847,14.834 33.853,14.819 33.853,14.797 33.85,14.782 33.844,14.769 33.835,14.763 
				33.825,14.757 33.81,14.754 33.795,14.751 33.779,14.751 33.761,14.751 33.668,14.751 33.668,14.871 33.591,14.871 
				33.591,14.871 			"/>
			<polygon style="fill-rule:evenodd;clip-rule:evenodd;fill:#FFFFFF;" points="33.314,14.871 33.311,14.889 33.32,14.979 
				33.345,15.062 33.388,15.136 33.44,15.197 33.505,15.25 33.579,15.29 33.659,15.314 33.745,15.324 33.832,15.314 33.912,15.29 
				33.986,15.25 34.05,15.197 34.103,15.136 34.146,15.062 34.17,14.979 34.18,14.889 34.176,14.871 34.084,14.871 34.087,14.889 
				34.081,14.963 34.063,15.031 34.032,15.09 33.992,15.142 33.942,15.185 33.884,15.219 33.816,15.241 33.745,15.247 
				33.675,15.241 33.607,15.219 33.548,15.185 33.499,15.142 33.459,15.09 33.428,15.031 33.41,14.963 33.404,14.889 33.404,14.871 
				33.314,14.871 33.314,14.871 			"/>
			<polygon style="fill-rule:evenodd;clip-rule:evenodd;fill:#FFFFFF;" points="33.591,14.871 33.591,15.059 33.668,15.059 
				33.668,14.905 33.745,14.905 33.838,15.059 33.899,15.059 33.807,14.905 33.828,14.905 33.85,14.899 33.869,14.893 33.884,14.88 
				33.89,14.871 33.761,14.871 33.745,14.874 33.668,14.874 33.668,14.871 33.591,14.871 33.591,14.871 			"/>
			<path style="fill:none;stroke:#FFFFFF;stroke-width:0.216;stroke-miterlimit:2.6131;" d="M33.311,14.889L33.311,14.889
				L33.32,14.8l0.025-0.083l0.043-0.074l0.052-0.065l0.065-0.052l0.074-0.037l0.08-0.025l0.086-0.009l0,0l0.086,0.009l0.08,0.025
				l0.074,0.037l0.065,0.052l0.052,0.065l0.043,0.074L34.17,14.8l0.009,0.089l0,0l-0.009,0.089l-0.025,0.083l-0.043,0.074
				l-0.052,0.062l-0.065,0.052l-0.074,0.04l-0.08,0.025l-0.086,0.009l0,0l-0.086-0.009l-0.08-0.025l-0.074-0.04l-0.065-0.052
				l-0.052-0.062l-0.043-0.074l-0.025-0.083L33.311,14.889 M33.668,15.059h-0.077v-0.373h0.169l0,0l0.037,0.003l0.034,0.006
				l0.025,0.009l0.022,0.012l0.015,0.018l0.012,0.018l0.006,0.022l0.003,0.022l0,0l-0.003,0.028l-0.006,0.022l-0.009,0.018
				l-0.012,0.015l-0.015,0.012l-0.019,0.006l-0.022,0.006h-0.022l0.092,0.154h-0.062l-0.092-0.154h-0.077V15.059 M33.745,14.874
				L33.745,14.874l0.028-0.006l0.022-0.003l0.018-0.006l0.015-0.006l0.012-0.009l0.006-0.009l0.006-0.015v-0.022l0,0l-0.003-0.015
				l-0.006-0.012l-0.009-0.006l-0.009-0.006l-0.015-0.003l-0.015-0.003h-0.015h-0.018h-0.092v0.123H33.745 M33.745,15.247
				L33.745,15.247l0.071-0.006l0.068-0.022l0.059-0.034l0.049-0.043l0.04-0.052l0.031-0.059l0.018-0.068l0.006-0.074l0,0
				l-0.006-0.074l-0.018-0.068l-0.031-0.062l-0.04-0.052l-0.049-0.043l-0.059-0.031l-0.068-0.022l-0.071-0.006l0,0l-0.071,0.006
				l-0.068,0.022l-0.059,0.031l-0.049,0.043l-0.04,0.052l-0.031,0.062l-0.018,0.068l-0.006,0.074l0,0l0.006,0.074l0.018,0.068
				l0.031,0.059l0.04,0.052l0.049,0.043l0.059,0.034l0.068,0.022L33.745,15.247"/>
			<polygon style="fill-rule:evenodd;clip-rule:evenodd;fill:#FFFFFF;" points="27.947,15.293 28.815,15.293 28.815,15.293 
				29.126,13.541 29.139,13.473 29.157,13.405 29.175,13.337 29.2,13.27 29.231,13.202 29.268,13.137 29.308,13.076 29.357,13.017 
				29.413,12.965 29.474,12.916 29.545,12.869 29.625,12.832 29.714,12.802 29.813,12.777 29.921,12.758 30.041,12.752 
				30.084,12.752 30.109,12.752 30.118,12.752 30.118,12.752 30.256,11.961 30.17,11.967 30.087,11.976 30.01,11.992 29.936,12.013 
				29.868,12.038 29.804,12.069 29.742,12.103 29.684,12.14 29.628,12.183 29.576,12.226 29.527,12.275 29.477,12.324 
				29.431,12.377 29.385,12.435 29.339,12.491 29.296,12.552 29.388,11.995 28.523,11.995 27.947,15.293 27.947,15.293 
				27.947,15.293 			"/>
			<polyline style="fill:none;stroke:#FFFFFF;stroke-width:0.216;stroke-miterlimit:2.6131;" points="27.947,15.293 28.815,15.293 
				28.815,15.293 29.126,13.541 29.126,13.541 29.139,13.473 29.157,13.405 29.175,13.337 29.2,13.27 29.231,13.202 29.268,13.137 
				29.308,13.076 29.357,13.017 29.413,12.965 29.474,12.916 29.545,12.869 29.625,12.832 29.714,12.802 29.813,12.777 
				29.921,12.758 30.041,12.752 30.041,12.752 30.084,12.752 30.109,12.752 30.118,12.752 30.118,12.752 30.256,11.961 
				30.256,11.961 30.17,11.967 30.087,11.976 30.01,11.992 29.936,12.013 29.868,12.038 29.804,12.069 29.742,12.103 29.684,12.14 
				29.628,12.183 29.576,12.226 29.527,12.275 29.477,12.324 29.431,12.377 29.385,12.435 29.339,12.491 29.296,12.552 
				29.388,11.995 28.523,11.995 27.947,15.293 27.947,15.293 			"/>
			<polygon style="fill-rule:evenodd;clip-rule:evenodd;fill:#FFFFFF;" points="19.792,15.293 20.661,15.293 20.676,15.293 
				20.972,13.541 20.984,13.473 21,13.408 21.015,13.344 21.037,13.282 21.061,13.22 21.092,13.162 21.129,13.106 21.172,13.054 
				21.221,13.008 21.277,12.962 21.345,12.925 21.418,12.891 21.505,12.863 21.6,12.839 21.705,12.823 21.825,12.814 21.834,12.814 
				21.846,12.817 21.862,12.82 21.877,12.82 21.893,12.823 21.905,12.826 21.914,12.829 21.917,12.829 21.92,12.817 21.93,12.78 
				21.942,12.725 21.957,12.657 21.979,12.577 22,12.491 22.028,12.404 22.056,12.318 22.08,12.26 22.111,12.201 22.142,12.143 
				22.173,12.09 22.201,12.044 22.222,12.007 22.238,11.986 22.244,11.976 22.241,11.976 22.228,11.973 22.213,11.97 22.191,11.967 
				22.17,11.967 22.145,11.964 22.124,11.961 22.102,11.961 22.007,11.967 21.92,11.976 21.84,11.992 21.766,12.01 21.696,12.035 
				21.631,12.066 21.572,12.096 21.517,12.133 21.465,12.173 21.415,12.22 21.369,12.266 21.323,12.318 21.277,12.37 21.234,12.429 
				21.187,12.491 21.141,12.552 21.252,11.995 20.368,11.995 19.792,15.293 19.792,15.293 19.792,15.293 			"/>
			<polyline style="fill:none;stroke:#FFFFFF;stroke-width:0.216;stroke-miterlimit:2.6131;" points="19.792,15.293 20.661,15.293 
				20.676,15.293 20.972,13.541 20.972,13.541 20.984,13.473 21,13.408 21.015,13.344 21.037,13.282 21.061,13.22 21.092,13.162 
				21.129,13.106 21.172,13.054 21.221,13.008 21.277,12.962 21.345,12.925 21.418,12.891 21.505,12.863 21.6,12.839 21.705,12.823 
				21.825,12.814 21.825,12.814 21.834,12.814 21.846,12.817 21.862,12.82 21.877,12.82 21.893,12.823 21.905,12.826 21.914,12.829 
				21.917,12.829 21.917,12.829 21.92,12.817 21.93,12.78 21.942,12.725 21.957,12.657 21.979,12.577 22,12.491 22.028,12.404 
				22.056,12.318 22.056,12.318 22.08,12.26 22.111,12.201 22.142,12.143 22.173,12.09 22.201,12.044 22.222,12.007 22.238,11.986 
				22.244,11.976 22.244,11.976 22.241,11.976 22.228,11.973 22.213,11.97 22.191,11.967 22.17,11.967 22.145,11.964 22.124,11.961 
				22.102,11.961 22.102,11.961 22.007,11.967 21.92,11.976 21.84,11.992 21.766,12.01 21.696,12.035 21.631,12.066 21.572,12.096 
				21.517,12.133 21.465,12.173 21.415,12.22 21.369,12.266 21.323,12.318 21.277,12.37 21.234,12.429 21.187,12.491 21.141,12.552 
				21.252,11.995 20.368,11.995 19.792,15.293 19.792,15.293 			"/>
		</g>
		<polygon style="fill-rule:evenodd;clip-rule:evenodd;fill:#FBB230;" points="18.123,18.206 23.297,18.206 23.297,17.71 
			17.812,17.71 18.123,18.206 18.123,18.206 		"/>
		<polygon style="fill-rule:evenodd;clip-rule:evenodd;fill:#FBB230;" points="19.023,19.308 23.297,19.308 23.297,18.81 
			18.588,18.81 19.023,19.308 19.023,19.308 		"/>
	</g>
</g>
</svg>
