<?xml version="1.0" encoding="utf-8"?>
<!-- Generator: Adobe Illustrator 18.0.0, SVG Export Plug-In . SVG Version: 6.00 Build 0)  -->
<!DOCTYPE svg PUBLIC "-//W3C//DTD SVG 1.1//EN" "http://www.w3.org/Graphics/SVG/1.1/DTD/svg11.dtd">
<svg version="1.1" id="Layer_1" xmlns="http://www.w3.org/2000/svg" xmlns:xlink="http://www.w3.org/1999/xlink" x="0px" y="0px"
	 width="46px" height="30px" viewBox="0 0 46 30" style="enable-background:new 0 0 46 30;" xml:space="preserve">
<path style="fill:#BCBAB7;" d="M33.498,27.828c0,1.194-0.978,2.172-2.172,2.172H2.172C0.978,30,0,29.021,0,27.828V9.783
	c0-1.194,0.978-2.172,2.172-2.172h29.154c1.194,0,2.172,0.978,2.172,2.172V27.828z"/>
<g>
	<path style="fill:#BCBAB7;" d="M16.105,0h3.261v5.433h-3.261V0z M20.455,0h1.089v5.433h-1.089V0z M22.627,0h3.261v5.433h-3.261V0z
		 M26.976,0h1.089v5.433h-1.089V0z M29.148,0h1.089v5.433h-1.089V0z M31.326,0h1.63v5.433h-1.63V0z M34.04,5.491
		c0.926,0.215,1.63,1.089,1.63,2.12v13.043h2.719V0h-4.35V5.491z M39.478,0h1.089v20.654h-1.089V0z M41.65,0h2.172v20.654H41.65V0z
		 M44.911,0H46v20.654h-1.089V0z M10.672,0h2.172v5.433h-2.172V0z M13.933,0h1.089v5.433h-1.089V0z"/>
</g>
<path style="fill:#FFFFFF;" d="M32.409,9.783c0-0.6-0.489-1.089-1.089-1.089H2.166c-0.6,0-1.089,0.489-1.089,1.089v18.045
	c0,0.6,0.489,1.089,1.089,1.089H31.32c0.6,0,1.089-0.489,1.089-1.089V9.783z"/>
<g>
	<path style="fill:#BCBAB7;" d="M5.974,11.465c-1.252,0.274-2.172,1.357-2.172,2.661h2.172V11.465z M3.802,14.674h2.172v2.719H3.802
		V14.674z M11.407,16.304h2.172v-2.172c0-1.304-0.926-2.393-2.172-2.661V16.304z M6.516,11.413h4.35v9.241h-4.35V11.413z
		 M11.407,16.846v3.75c1.252-0.274,2.172-1.357,2.172-2.661v-1.089L11.407,16.846z M5.974,17.935H3.802
		c0,1.304,0.926,2.393,2.172,2.661V17.935z"/>
</g>
<rect x="23.237" y="22.389" style="fill:#BCBAB7;" width="7" height="2.168"/>
<rect x="13.52" y="22.389" style="fill:#BCBAB7;" width="7" height="2.168"/>
<rect x="3.802" y="22.389" style="fill:#BCBAB7;" width="7" height="2.168"/>
</svg>
