<svg xmlns="http://www.w3.org/2000/svg" width="45" height="30" viewBox="0 0 45 30"><path d="M2.309 29.5c-.998 0-1.809-.812-1.809-1.809v-25.382c0-.997.812-1.809 1.809-1.809h40.381c.998 0 1.81.812 1.81 1.809v25.382c0 .997-.812 1.809-1.81 1.809h-40.381z" fill="#F3F4F4"/><path d="M42.691 1c.722 0 1.309.587 1.309 1.309v25.382c0 .722-.587 1.309-1.309 1.309h-40.382c-.722 0-1.309-.587-1.309-1.309v-25.382c0-.722.587-1.309 1.309-1.309h40.382m0-1h-40.382c-1.275 0-2.309 1.034-2.309 2.309v25.382c0 1.276 1.034 2.309 2.309 2.309h40.382c1.275 0 2.309-1.033 2.309-2.309v-25.382c0-1.275-1.034-2.309-2.309-2.309z" fill="#DADBD9"/><path d="M38.936 14.363c0-6.032-7.494-10.949-16.739-10.949-9.244 0-16.738 4.917-16.738 10.949l-.002.641c0 6.399 6.55 11.581 16.738 11.581 10.251 0 16.741-5.181 16.741-11.58v-.642z" fill="#060E9F"/><ellipse cx="22.2" cy="14.358" rx="16.095" ry="10.296" fill="#29ABE2"/><g fill="#fff"><path d="M16.855 11.109c-.008.016-.169.182-.065.316.254.324 1.039.511 1.832.333.472-.106 1.078-.588 1.664-1.053.636-.505 1.266-1.011 1.9-1.212.671-.214 1.101-.122 1.385-.036.312.093.678.298 1.263.737 1.101.828 5.53 4.693 6.295 5.361.616-.278 3.355-1.457 7.077-2.278-.323-1.984-1.53-3.799-3.361-5.286-2.551 1.071-5.669 1.63-8.717.142-.016-.006-1.666-.787-3.293-.749-2.419.056-3.467 1.103-4.576 2.211l-1.404 1.514zM30.95 15.976c-.052-.046-5.207-4.557-6.375-5.435-.676-.507-1.052-.636-1.446-.686-.206-.027-.489.012-.688.066-.543.148-1.253.623-1.884 1.123-.653.52-1.269 1.01-1.84 1.138-.73.164-1.621-.029-2.028-.304-.165-.111-.281-.239-.337-.369-.15-.348.127-.627.172-.673l1.423-1.539.502-.493c-.459.06-.883.177-1.296.292-.515.145-1.011.283-1.513.283-.209 0-1.331-.184-1.544-.242-1.287-.352-2.417-.695-4.105-1.483-2.022 1.505-3.375 3.388-3.765 5.461l.955.26c4.577 1.018 6.002 2.066 6.261 2.285.28-.312.684-.509 1.135-.509.507.001.963.255 1.24.648.262-.207.624-.384 1.091-.384.212 0 .432.039.655.115.516.177.783.521.921.832.173-.078.386-.136.637-.135.246 0 .503.056.761.168.844.362.975 1.191.899 1.816l.182-.01c1 .001 1.814.814 1.814 1.815 0 .31-.079.601-.217.857.272.153.966.499 1.575.422.487-.061.672-.228.738-.321.045-.065.093-.14.049-.194l-1.291-1.435s-.213-.201-.142-.279c.073-.08.204.035.297.112.657.549 1.46 1.377 1.46 1.377.013.009.067.114.363.167.255.046.707.019 1.021-.238l.224-.23-.014.012c.33-.422-.036-.85-.036-.85l-1.508-1.693s-.216-.199-.142-.28c.066-.069.204.036.299.114.477.399 1.152 1.076 1.798 1.709.126.092.694.444 1.447-.05.456-.299.548-.667.535-.945-.032-.367-.318-.629-.318-.629l-2.06-2.07s-.217-.186-.141-.28c.063-.079.204.035.297.112.656.549 2.432 2.177 2.432 2.177.025.018.639.455 1.397-.028.271-.173.444-.435.459-.738.023-.527-.349-.839-.349-.839zM20.961 18.6c-.319-.004-.669.186-.714.158-.025-.017.02-.145.049-.219.031-.073.451-1.339-.574-1.778-.784-.337-1.264.042-1.429.213l-.068-.016c-.016-.228-.118-.844-.795-1.051-.968-.296-1.59.379-1.748.623-.071-.552-.537-.98-1.108-.98-.62-.001-1.124.502-1.124 1.122 0 .62.503 1.123 1.123 1.123.302.001.575-.12.777-.313l.006.038c-.047.278-.134 1.287.923 1.698.424.165.784.042 1.083-.167.089-.063.104-.036.091.047-.038.259.01.815.789 1.131.593.241.944-.006 1.174-.218.1-.091.127-.077.133.065.028.751.652 1.348 1.41 1.348.781.001 1.414-.631 1.414-1.411.001-.78-.631-1.404-1.412-1.413z"/></g><path d="M31.149 15.436c-1.588-1.386-5.258-4.576-6.252-5.322-.568-.427-.955-.653-1.295-.754-.153-.046-.364-.099-.636-.099-.253 0-.524.046-.808.136-.642.203-1.282.712-1.901 1.204l-.032.025c-.577.458-1.172.933-1.623 1.033-.197.044-.399.067-.601.067-.505-.001-.959-.146-1.129-.363-.028-.036-.01-.094.056-.178l.009-.011 1.397-1.505c1.094-1.094 2.128-2.127 4.506-2.182l.119-.002c1.481.001 2.961.664 3.127.741 1.388.677 2.821 1.021 4.262 1.022 1.501 0 3.05-.371 4.679-1.121-.182-.153-.371-.302-.566-.448-1.431.62-2.794.934-4.109.933-1.343-.001-2.685-.324-3.988-.96-.069-.033-1.703-.803-3.404-.804l-.134.001c-1.998.047-3.124.756-3.881 1.378-.736.018-1.371.195-1.936.353-.504.14-.94.262-1.364.261l-.518-.017c-.488-.015-2.949-.618-4.906-1.359-.2.142-.392.288-.579.436 2.045.838 4.533 1.487 5.318 1.537.219.014.451.039.684.04.519 0 1.038-.146 1.54-.286.296-.083.623-.174.967-.24l-.275.274-1.419 1.535c-.112.113-.354.414-.194.784.064.15.193.292.373.414.338.228.944.382 1.506.382.213 0 .415-.021.601-.063.595-.134 1.219-.631 1.88-1.156.527-.418 1.275-.95 1.848-1.106.16-.044.357-.071.515-.071l.133.008c.379.048.745.177 1.398.667 1.165.875 6.321 5.385 6.371 5.43.004.003.332.286.309.758-.012.263-.158.496-.412.658-.22.14-.447.211-.677.211-.345-.001-.582-.162-.597-.173-.019-.016-1.785-1.635-2.435-2.179-.104-.086-.204-.163-.306-.163l-.135.064c-.102.126.012.3.147.415l2.063 2.074c.003.002.257.241.285.559.016.344-.148.631-.49.855-.243.16-.49.242-.731.242-.317 0-.539-.144-.588-.178l-.296-.292c-.541-.532-1.099-1.083-1.508-1.424-.1-.083-.206-.159-.308-.159l-.13.055c-.047.052-.079.145.037.3l.104.116 1.506 1.691c.012.015.31.369.034.722l-.053.068-.14.135c-.257.211-.6.233-.736.233l-.203-.017c-.149-.027-.248-.068-.297-.125l-.018-.019c-.082-.085-.841-.86-1.469-1.384-.083-.069-.186-.157-.293-.157l-.136.061c-.124.136.062.34.141.414l1.284 1.416-.049.086c-.046.064-.202.219-.668.278l-.171.01c-.48 0-.993-.233-1.257-.373.12-.254.183-.533.183-.814 0-1.057-.858-1.917-1.915-1.918l-.069.001c.035-.483-.034-1.396-.972-1.799-.27-.117-.539-.176-.801-.176-.205 0-.402.035-.587.106-.194-.378-.517-.653-.938-.796-.232-.081-.464-.121-.688-.121-.39 0-.75.115-1.071.343-.307-.382-.771-.609-1.26-.609-.428 0-.839.171-1.144.473-.4-.305-1.985-1.313-6.229-2.276-.206-.046-.677-.182-.966-.266-.048.23-.085.462-.109.696l.937.222c4.336.963 5.768 1.964 6.01 2.153-.082.197-.125.41-.125.624 0 .896.728 1.625 1.624 1.626l.298-.027c.135.659.566 1.159 1.225 1.415.193.074.388.112.579.112.124 0 .248-.015.37-.046.122.309.396.695 1.008.943.215.086.43.132.638.132.17 0 .337-.03.496-.088.293.715.992 1.188 1.77 1.188.516.001 1.011-.21 1.373-.581.309.172.962.483 1.622.484l.246-.016c.655-.083.96-.339 1.1-.538l.067-.11c.155.045.325.081.519.081.358 0 .701-.122 1.048-.375.341-.246.583-.599.618-.899l.002-.013c.115.024.233.036.351.036.368 0 .731-.115 1.077-.342.668-.438.784-1.01.773-1.384.117.024.236.037.355.037.346 0 .685-.104 1.009-.31.414-.264.663-.67.701-1.141.026-.32-.053-.644-.223-.922 1.119-.482 3.676-1.415 6.688-2.094-.018-.234-.052-.464-.093-.694-3.643.811-6.362 1.988-7.043 2.291zm-10.188 5.889c-.708-.001-1.283-.551-1.309-1.251-.002-.06-.008-.22-.143-.22-.056 0-.104.033-.159.084-.155.144-.354.291-.643.291-.131 0-.274-.031-.424-.092-.747-.303-.758-.816-.727-1.022.008-.055.011-.112-.027-.157l-.046-.041h-.047l-.13.053c-.216.152-.423.226-.634.226-.116 0-.235-.023-.354-.069-.984-.383-.906-1.311-.858-1.591l-.043-.13-.069-.057-.065.062c-.192.185-.442.286-.706.286-.564-.001-1.022-.458-1.022-1.022 0-.564.459-1.021 1.023-1.021.509 0 .943.383 1.008.892l.035.274.151-.232c.017-.027.43-.651 1.189-.651.144 0 .293.023.443.07.605.185.708.733.723.962.011.133.105.14.124.14l.118-.062c.114-.119.363-.317.752-.317.178.001.368.043.563.127.961.413.525 1.635.52 1.647-.083.203-.086.292-.008.344l.038.018h.028l.186-.049c.131-.045.328-.113.513-.113.724.008 1.313.597 1.312 1.313.001.72-.588 1.308-1.312 1.308z" fill="#060E9F"/></svg>