<?xml version="1.0" encoding="utf-8"?>
<!-- Generator: Adobe Illustrator 18.0.0, SVG Export Plug-In . SVG Version: 6.00 Build 0)  -->
<!DOCTYPE svg PUBLIC "-//W3C//DTD SVG 1.1//EN" "http://www.w3.org/Graphics/SVG/1.1/DTD/svg11.dtd">
<svg version="1.1" id="Layer_1" xmlns="http://www.w3.org/2000/svg" xmlns:xlink="http://www.w3.org/1999/xlink" x="0px" y="0px"
	 width="39px" height="26px" viewBox="0 0 39 26" style="enable-background:new 0 0 39 26;" xml:space="preserve">
<g>
	<path style="fill:#F3F4F4;" d="M2.001,25.5c-0.828,0-1.501-0.674-1.501-1.501V2.001C0.5,1.173,1.173,0.5,2.001,0.5h34.998
		c0.827,0,1.501,0.673,1.501,1.501v21.998c0,0.827-0.674,1.501-1.501,1.501H2.001z"/>
	<path style="fill:#DADBD9;" d="M36.999,1C37.551,1,38,1.449,38,2.001v21.998C38,24.551,37.551,25,36.999,25H2.001
		C1.449,25,1,24.551,1,23.999V2.001C1,1.449,1.449,1,2.001,1H36.999 M36.999,0H2.001C0.896,0,0,0.896,0,2.001v21.998
		C0,25.104,0.896,26,2.001,26h34.997C38.104,26,39,25.104,39,23.999V2.001C39,0.896,38.104,0,36.999,0L36.999,0z"/>
</g>
<g>
	<path style="fill-rule:evenodd;clip-rule:evenodd;fill:#104B7B;" d="M3.746,12.647c0.064-0.195,0.078-0.402,0.146-0.597
		c0.351-1.012,1.031-1.679,2.087-1.887c0.61-0.12,1.229-0.063,1.799,0.238c0.125,0.066,0.249,0.135,0.367,0.212
		c0.237,0.154,0.46,0.151,0.692-0.017c0.545-0.393,1.162-0.558,1.827-0.499c1.01,0.089,1.755,0.599,2.236,1.488
		c0.238,0.439,0.348,0.913,0.347,1.415c-0.003,1.261-0.001,2.523-0.001,3.784c0,0.209,0.005,0.418,0.005,0.626
		c-0.001,0.212-0.115,0.339-0.328,0.342c-0.376,0.006-0.752,0.006-1.128,0c-0.206-0.004-0.33-0.133-0.33-0.332
		c0.001-1.466-0.005-2.932,0.01-4.398c0.005-0.462-0.151-0.813-0.554-1.037c-0.623-0.347-1.428,0.066-1.512,0.775
		c-0.047,0.399-0.017,0.801-0.017,1.201c0,1.127,0.007,2.255,0.011,3.382c0.001,0.296-0.113,0.41-0.406,0.41
		c-0.334,0-0.668,0-1.002,0c-0.265,0-0.384-0.118-0.384-0.38C7.61,15.963,7.605,14.551,7.61,13.14
		c0.001-0.196,0.019-0.387-0.053-0.575c-0.187-0.485-0.678-0.779-1.174-0.691c-0.576,0.103-0.904,0.591-0.907,1.017
		c-0.002,0.292,0,0.584,0.001,0.877c0.001,1.203,0.001,2.406,0.001,3.609c0,0.262-0.117,0.378-0.383,0.378
		c-0.309,0.001-0.618-0.006-0.927,0.002c-0.188,0.005-0.331-0.052-0.42-0.222C3.746,15.905,3.746,14.276,3.746,12.647z"/>
	<path style="fill-rule:evenodd;clip-rule:evenodd;fill:#3893D0;" d="M35.254,7.007c-0.273,0.796-0.912,1.248-1.582,1.663
		c-0.434,0.269-0.899,0.471-1.408,0.557c-0.169,0.028-0.342,0.032-0.511,0.001c-0.269-0.049-0.434-0.233-0.559-0.46
		c-0.17-0.308-0.249-0.644-0.297-0.987c-0.098-0.704-0.07-1.405,0.097-2.098c0.067-0.277,0.164-0.541,0.317-0.784
		c0.127-0.202,0.31-0.328,0.534-0.399c0.142,0,0.284,0,0.426,0c0.787,0.097,1.422,0.511,2.032,0.975
		c0.323,0.246,0.602,0.537,0.811,0.889c0.078,0.131,0.135,0.267,0.127,0.424c0.006,0.056-0.013,0.114,0.013,0.169
		C35.254,6.973,35.254,6.99,35.254,7.007z"/>
	<path style="fill-rule:evenodd;clip-rule:evenodd;fill:#76B6DE;" d="M35.231,6.778c0.008,0.001,0.015,0.002,0.023,0.003
		c0,0.058,0,0.117,0,0.175C35.208,6.902,35.236,6.838,35.231,6.778z"/>
	<path style="fill-rule:evenodd;clip-rule:evenodd;fill:#104B7B;" d="M25.751,21.498c-0.042,0.001-0.083,0.001-0.125,0.002
		c-0.184-0.046-0.267-0.152-0.268-0.35c-0.001-0.476,0-0.952,0-1.429c0-1.951-0.002-3.902,0.001-5.852
		c0.001-0.867,0.25-1.658,0.776-2.351c0.583-0.766,1.35-1.239,2.307-1.379c1.168-0.171,2.198,0.137,3.062,0.944
		c0.57,0.532,0.926,1.2,1.082,1.959c0.217,1.055,0.086,2.067-0.495,2.991c-0.599,0.954-1.465,1.516-2.582,1.68
		c-0.684,0.1-1.343,0.001-1.974-0.28c-0.038-0.017-0.077-0.033-0.118-0.041c-0.086-0.017-0.151,0.01-0.163,0.106
		c-0.01,0.082-0.015,0.166-0.015,0.249c-0.001,1.136,0,2.272-0.001,3.409c0,0.202-0.067,0.291-0.255,0.344
		c-0.059-0.001-0.117-0.002-0.176-0.003C26.456,21.497,26.104,21.498,25.751,21.498z"/>
	<path style="fill-rule:evenodd;clip-rule:evenodd;fill:#0F4B7B;" d="M17.87,17.686c-1.768,0.024-3.223-1.233-3.571-2.918
		c-0.238-1.152-0.054-2.231,0.642-3.193c0.632-0.873,1.496-1.368,2.574-1.463c1.888-0.168,3.531,1.057,3.903,2.923
		c0.263,1.317-0.014,2.508-0.925,3.518c-0.536,0.594-1.214,0.946-2.003,1.085C18.276,17.675,18.061,17.695,17.87,17.686z"/>
	<path style="fill-rule:evenodd;clip-rule:evenodd;fill:#104B7B;" d="M22.546,13.929c0-1.148,0-2.296-0.001-3.444
		c0-0.067,0.004-0.133,0.025-0.197c0.052-0.16,0.148-0.213,0.314-0.19c0.837,0.118,1.437,0.806,1.44,1.724
		c0.004,1.57,0.001,3.14,0.001,4.709c0,0.292,0.002,0.584,0.001,0.877c-0.001,0.211-0.116,0.341-0.327,0.344
		c-0.376,0.007-0.752,0.006-1.127,0c-0.212-0.003-0.328-0.13-0.328-0.342c0-1.161,0-2.321,0-3.482H22.546z"/>
	<path style="fill-rule:evenodd;clip-rule:evenodd;fill:#104B7B;" d="M24.382,8.309c-0.002,0.471-0.447,0.913-0.917,0.911
		c-0.47-0.002-0.918-0.447-0.919-0.914c-0.002-0.466,0.464-0.929,0.928-0.923C23.942,7.389,24.384,7.839,24.382,8.309z"/>
	<path style="fill-rule:evenodd;clip-rule:evenodd;fill:#FFFFFF;" d="M32.096,5.926c0.047-0.003,0.112,0.033,0.167,0.087
		c0.222,0.221,0.445,0.441,0.664,0.664c0.131,0.133,0.129,0.262-0.002,0.394c-0.217,0.22-0.435,0.438-0.655,0.655
		c-0.136,0.134-0.268,0.135-0.391,0.008c-0.116-0.121-0.107-0.243,0.029-0.381c0.094-0.095,0.191-0.187,0.283-0.284
		c0.119-0.127,0.118-0.264-0.002-0.388c-0.102-0.105-0.209-0.205-0.309-0.311c-0.073-0.077-0.11-0.168-0.058-0.274
		C31.871,5.998,31.943,5.93,32.096,5.926z"/>
	<path style="fill-rule:evenodd;clip-rule:evenodd;fill:#FFFFFF;" d="M34.201,6.875c0.008,0.08-0.032,0.137-0.084,0.188
		c-0.224,0.225-0.447,0.45-0.674,0.673c-0.124,0.122-0.258,0.122-0.374,0.006c-0.11-0.11-0.108-0.257,0.009-0.377
		c0.096-0.099,0.196-0.194,0.292-0.293c0.121-0.125,0.121-0.271,0-0.398c-0.098-0.102-0.202-0.199-0.3-0.302
		c-0.11-0.115-0.107-0.257,0.003-0.365c0.113-0.112,0.249-0.115,0.365-0.001c0.229,0.225,0.455,0.454,0.683,0.681
		C34.172,6.74,34.21,6.798,34.201,6.875z"/>
	<path style="fill-rule:evenodd;clip-rule:evenodd;fill:#F3F4F4;" d="M30.861,13.93c0,0.93-0.618,1.732-1.49,1.933
		c-0.669,0.154-1.386-0.152-1.818-0.776c-0.719-1.038-0.317-2.502,0.823-2.997c0.79-0.343,1.726-0.009,2.193,0.783
		C30.76,13.197,30.861,13.562,30.861,13.93z"/>
	<path style="fill-rule:evenodd;clip-rule:evenodd;fill:#F3F4F4;" d="M16.123,14.095c-0.001-1.042,0.561-1.799,1.374-2.01
		c0.652-0.169,1.358,0.115,1.786,0.718c0.715,1.008,0.307,2.464-0.823,2.91c-0.585,0.231-1.132,0.122-1.618-0.263
		C16.359,15.066,16.135,14.549,16.123,14.095z"/>
</g>
</svg>
