<?xml version="1.0" encoding="utf-8"?>
<!-- Generator: Adobe Illustrator 18.0.0, SVG Export Plug-In . SVG Version: 6.00 Build 0)  -->
<!DOCTYPE svg PUBLIC "-//W3C//DTD SVG 1.1//EN" "http://www.w3.org/Graphics/SVG/1.1/DTD/svg11.dtd">
<svg version="1.1" id="Layer_1" xmlns="http://www.w3.org/2000/svg" xmlns:xlink="http://www.w3.org/1999/xlink" x="0px" y="0px"
	 width="39px" height="26px" viewBox="0 0 39 26" style="enable-background:new 0 0 39 26;" xml:space="preserve">
<g>
	<path style="fill:#F3F4F4;" d="M2.001,25.5c-0.828,0-1.501-0.674-1.501-1.501V2.001C0.5,1.173,1.173,0.5,2.001,0.5h34.998
		c0.827,0,1.501,0.673,1.501,1.501v21.998c0,0.827-0.674,1.501-1.501,1.501H2.001z"/>
	<path style="fill:#DADBD9;" d="M36.999,1C37.551,1,38,1.449,38,2.001v21.998C38,24.551,37.551,25,36.999,25H2.001
		C1.449,25,1,24.551,1,23.999V2.001C1,1.449,1.449,1,2.001,1H36.999 M36.999,0H2.001C0.896,0,0,0.896,0,2.001v21.998
		C0,25.104,0.896,26,2.001,26h34.997C38.104,26,39,25.104,39,23.999V2.001C39,0.896,38.104,0,36.999,0L36.999,0z"/>
</g>
<g>
	<path style="fill:#179BD7;" d="M25.115,8.72h-2.499c-0.171,0-0.316,0.124-0.343,0.293l-1.01,6.408
		c-0.02,0.126,0.078,0.241,0.206,0.241h1.282c0.12,0,0.221-0.087,0.24-0.205l0.287-1.817c0.026-0.169,0.172-0.293,0.343-0.293h0.791
		c1.646,0,2.596-0.796,2.844-2.376c0.112-0.69,0.005-1.233-0.319-1.613C26.581,8.941,25.951,8.72,25.115,8.72 M25.404,11.06
		c-0.137,0.897-0.822,0.897-1.484,0.897h-0.377l0.265-1.675c0.016-0.101,0.103-0.176,0.206-0.176h0.173c0.451,0,0.877,0,1.097,0.257
		C25.414,10.517,25.453,10.745,25.404,11.06"/>
	<path style="fill:#253B80;" d="M7.292,8.72H4.793c-0.171,0-0.316,0.124-0.343,0.293l-1.01,6.408
		c-0.02,0.126,0.078,0.241,0.206,0.241h1.193c0.171,0,0.316-0.124,0.343-0.293l0.273-1.729c0.026-0.169,0.172-0.293,0.343-0.293
		h0.791c1.646,0,2.596-0.796,2.844-2.376c0.112-0.69,0.005-1.233-0.319-1.613C8.758,8.941,8.128,8.72,7.292,8.72 M7.58,11.06
		c-0.137,0.897-0.822,0.897-1.484,0.897H5.719l0.265-1.675c0.016-0.101,0.103-0.176,0.206-0.176h0.173c0.451,0,0.877,0,1.097,0.257
		C7.59,10.517,7.63,10.745,7.58,11.06"/>
	<path style="fill:#253B80;" d="M14.761,11.031h-1.197c-0.102,0-0.19,0.074-0.206,0.176l-0.053,0.334l-0.083-0.121
		c-0.259-0.376-0.837-0.502-1.414-0.502c-1.322,0-2.451,1.002-2.671,2.407c-0.114,0.701,0.048,1.371,0.446,1.838
		c0.365,0.429,0.886,0.608,1.507,0.608c1.066,0,1.657-0.684,1.657-0.684l-0.053,0.333c-0.02,0.126,0.078,0.241,0.206,0.241h1.077
		c0.171,0,0.316-0.124,0.343-0.293l0.647-4.096C14.987,11.146,14.889,11.031,14.761,11.031 M13.093,13.36
		c-0.116,0.684-0.658,1.143-1.351,1.143c-0.347,0-0.625-0.112-0.804-0.323c-0.177-0.209-0.244-0.508-0.188-0.84
		c0.108-0.678,0.659-1.152,1.341-1.152c0.34,0,0.616,0.113,0.798,0.326C13.073,12.729,13.146,13.03,13.093,13.36"/>
	<path style="fill:#179BD7;" d="M32.585,11.031h-1.197c-0.102,0-0.19,0.074-0.206,0.176l-0.053,0.334l-0.084-0.121
		c-0.259-0.376-0.837-0.502-1.413-0.502c-1.322,0-2.451,1.002-2.671,2.407c-0.114,0.701,0.048,1.371,0.446,1.838
		c0.365,0.429,0.886,0.608,1.507,0.608c1.066,0,1.657-0.684,1.657-0.684l-0.053,0.333c-0.02,0.126,0.078,0.241,0.206,0.241H31.8
		c0.171,0,0.316-0.124,0.343-0.293l0.647-4.096C32.81,11.146,32.713,11.031,32.585,11.031 M30.917,13.36
		c-0.116,0.684-0.658,1.143-1.351,1.143c-0.347,0-0.625-0.112-0.804-0.323c-0.177-0.209-0.244-0.508-0.188-0.84
		c0.108-0.678,0.659-1.152,1.341-1.152c0.34,0,0.616,0.113,0.798,0.326C30.897,12.729,30.969,13.03,30.917,13.36"/>
	<path style="fill:#253B80;" d="M21.134,11.031h-1.203c-0.115,0-0.223,0.057-0.287,0.152l-1.659,2.444l-0.703-2.348
		c-0.044-0.147-0.179-0.248-0.333-0.248h-1.182c-0.143,0-0.243,0.14-0.197,0.275l1.324,3.888l-1.246,1.758
		c-0.098,0.138,0.001,0.329,0.17,0.329h1.201c0.114,0,0.22-0.056,0.285-0.149l4-5.773C21.401,11.22,21.302,11.031,21.134,11.031"/>
	<path style="fill:#179BD7;" d="M33.995,8.896l-1.026,6.525c-0.02,0.126,0.078,0.241,0.206,0.241h1.032
		c0.171,0,0.316-0.124,0.343-0.293l1.011-6.408c0.02-0.126-0.078-0.241-0.206-0.241h-1.154C34.098,8.72,34.011,8.794,33.995,8.896"
		/>
</g>
</svg>
