<?xml version="1.0" encoding="utf-8"?>
<!-- Generator: Adobe Illustrator 18.0.0, SVG Export Plug-In . SVG Version: 6.00 Build 0)  -->
<!DOCTYPE svg PUBLIC "-//W3C//DTD SVG 1.1//EN" "http://www.w3.org/Graphics/SVG/1.1/DTD/svg11.dtd">
<svg version="1.1" id="Layer_1" xmlns="http://www.w3.org/2000/svg" xmlns:xlink="http://www.w3.org/1999/xlink" x="0px" y="0px"
	 width="39px" height="26px" viewBox="0 0 39 26" style="enable-background:new 0 0 39 26;" xml:space="preserve">
<g>
	<path style="fill:#F3F4F4;" d="M2.001,25.5c-0.828,0-1.501-0.674-1.501-1.501V2.001C0.5,1.173,1.173,0.5,2.001,0.5h34.998
		c0.827,0,1.501,0.673,1.501,1.501v21.998c0,0.827-0.674,1.501-1.501,1.501H2.001z"/>
	<path style="fill:#DADBD9;" d="M36.999,1C37.551,1,38,1.449,38,2.001v21.998C38,24.551,37.551,25,36.999,25H2.001
		C1.449,25,1,24.551,1,23.999V2.001C1,1.449,1.449,1,2.001,1H36.999 M36.999,0H2.001C0.896,0,0,0.896,0,2.001v21.998
		C0,25.104,0.896,26,2.001,26h34.997C38.104,26,39,25.104,39,23.999V2.001C39,0.896,38.104,0,36.999,0L36.999,0z"/>
</g>
<g>
	<path style="fill-rule:evenodd;clip-rule:evenodd;fill:#EF3E33;" d="M19.266,19.854c0,0,0.046-0.235,0-0.516
		c-0.235-1.596-4.226-5.539-4.226-6.76c-3.615,0.939-6.666,2.77-6.619,5.023c0,3.005,4.976,5.446,11.079,5.399
		c6.15-0.047,11.08-2.488,11.08-5.493c0-2.254-2.77-4.178-6.666-4.977c0,0,0.094-0.329,0.094-0.61c0-2.77-4.178-5.539-4.178-7.981
		c0-0.376,0-0.939,0-0.939s-1.174,0.563-1.174,2.582c0,3.521,3.991,5.258,3.991,8.357c0,1.831-0.986,2.206-0.986,2.206
		s0-0.422,0-0.704c0-2.253-4.366-5.023-4.366-7.465c0-0.376,0-0.986,0-0.986s-1.126,0.564-1.126,2.582
		c0,3.38,3.991,4.882,3.991,8.357C20.158,19.385,19.266,19.854,19.266,19.854z"/>
</g>
</svg>
