<?xml version="1.0" encoding="utf-8"?>
<!-- Generator: Adobe Illustrator 18.0.0, SVG Export Plug-In . SVG Version: 6.00 Build 0)  -->
<!DOCTYPE svg PUBLIC "-//W3C//DTD SVG 1.1//EN" "http://www.w3.org/Graphics/SVG/1.1/DTD/svg11.dtd">
<svg version="1.1" id="Layer_1" xmlns="http://www.w3.org/2000/svg" xmlns:xlink="http://www.w3.org/1999/xlink" x="0px" y="0px"
	 width="39px" height="26px" viewBox="0 0 39 26" style="enable-background:new 0 0 39 26;" xml:space="preserve">
<g>
	<path style="fill:#F3F4F4;" d="M2.001,25.5c-0.828,0-1.501-0.674-1.501-1.501V2.001C0.5,1.173,1.173,0.5,2.001,0.5h34.998
		c0.827,0,1.501,0.673,1.501,1.501v21.998c0,0.827-0.674,1.501-1.501,1.501H2.001z"/>
	<path style="fill:#DADBD9;" d="M36.999,1C37.551,1,38,1.449,38,2.001v21.998C38,24.551,37.551,25,36.999,25H2.001
		C1.449,25,1,24.551,1,23.999V2.001C1,1.449,1.449,1,2.001,1H36.999 M36.999,0H2.001C0.896,0,0,0.896,0,2.001v21.998
		C0,25.104,0.896,26,2.001,26h34.997C38.104,26,39,25.104,39,23.999V2.001C39,0.896,38.104,0,36.999,0L36.999,0z"/>
</g>
<g>
	<path style="fill-rule:evenodd;clip-rule:evenodd;fill:#263F84;" d="M5.049,2.556h28.903c1.11,0,1.467,0.358,1.467,1.468v3.682
		H3.581V4.023C3.581,2.914,3.939,2.556,5.049,2.556z"/>
	<rect x="3.581" y="7.153" style="fill-rule:evenodd;clip-rule:evenodd;fill:#FFFFFF;" width="31.838" height="11.694"/>
	<path style="fill-rule:evenodd;clip-rule:evenodd;fill:#263F84;" d="M14.153,9.132l-1.964,5.296l-0.21-1.076l-0.001-0.002
		l-0.701-3.566c-0.121-0.493-0.473-0.637-0.909-0.655H7.133L7.115,9.263c0.779,0.199,1.475,0.488,2.087,0.848l1.794,6.781h2.123
		l3.157-7.759H14.153z"/>
	<polygon style="fill-rule:evenodd;clip-rule:evenodd;fill:#263F84;" points="15.835,16.894 17.089,9.126 19.096,9.126 
		17.84,16.894 	"/>
	<path style="fill-rule:evenodd;clip-rule:evenodd;fill:#263F84;" d="M25.116,9.318C24.721,9.16,24.094,8.99,23.32,8.99
		c-1.985,0-3.38,1.054-3.392,2.562c-0.013,1.12,0.997,1.741,1.757,2.114c0.782,0.38,1.044,0.624,1.042,0.964
		c-0.008,0.518-0.626,0.756-1.202,0.756c-0.802,0-1.229-0.116-1.886-0.407l-0.261-0.122l-0.28,1.738
		c0.469,0.22,1.334,0.405,2.236,0.417c2.105,0,3.474-1.043,3.491-2.655c0.01-0.885-0.527-1.557-1.687-2.111
		c-0.698-0.36-1.133-0.598-1.125-0.963c0.001-0.322,0.363-0.667,1.151-0.667c0.656-0.014,1.127,0.138,1.501,0.297l0.179,0.09
		L25.116,9.318z"/>
	<path style="fill-rule:evenodd;clip-rule:evenodd;fill:#263F84;" d="M27.787,14.14c0.167-0.446,0.8-2.171,0.8-2.171
		c-0.013,0.021,0.162-0.451,0.266-0.742l0.133,0.672c0,0,0.386,1.853,0.465,2.241C29.141,14.14,28.179,14.14,27.787,14.14
		L27.787,14.14z M30.26,9.133h-1.55c-0.48,0-0.839,0.14-1.053,0.644l-2.977,7.118h2.108c0,0,0.344-0.957,0.421-1.167
		c0.231,0,2.275,0.004,2.568,0.004c0.062,0.272,0.246,1.163,0.246,1.163h1.862L30.26,9.133z"/>
	<path style="fill-rule:evenodd;clip-rule:evenodd;fill:#E2A327;" d="M35.419,18.847H3.581v3.13c0,1.109,0.358,1.467,1.467,1.467
		h28.904c1.109,0,1.467-0.358,1.467-1.467V18.847z"/>
</g>
</svg>
