<svg xmlns="http://www.w3.org/2000/svg" width="350" height="134" viewBox="0 0 350 134"><path fill="#DFDDDD" d="M0 84.5l56.1-81.8h28v77.8h16.6v18.4h-16.6v33.4h-23.4v-33.4h-60.7v-14.4zm24.5-4.3v.3h36.2v-43.3c0-2.8.2-5.1.6-7.3l.6-3.9h-.6l-1.5 3.3c-.9 2-2.2 4.2-3.7 6.5-.1.1-31.6 44.4-31.6 44.4zm224.6 4.3l56-81.8h28v77.8h16.6v18.4h-16.6v33.4h-23.4v-33.4h-60.7c.1 0 .1-14.4.1-14.4zm24.5-4.3v.3h36.2v-43.3c0-2.8.2-5.1.6-7.3l.6-3.9h-.6l-1.4 3.3c-.9 2-2.2 4.2-3.7 6.5 0 .1-31.7 44.4-31.7 44.4zm-97.8 51.8c-36.4 0-66-29.6-66-66s29.6-66 66-66 65.9 29.6 65.9 66-29.6 66-65.9 66zm0-128.6c-34.5 0-62.7 28.1-62.7 62.7s28.1 62.7 62.7 62.7 62.6-28.1 62.6-62.7-28.1-62.7-62.6-62.7zm0 12.9c-27.6 0-49.8 22.3-49.8 49.8s22.3 49.8 49.8 49.8 49.8-22.3 49.8-49.8-22.3-49.8-49.8-49.8zm-14.1 71.9c-4.4 0-8.1-3.6-8.1-8.1 0-4.4 3.6-8.1 8.1-8.1 4.4 0 8.1 3.6 8.1 8.1s-3.6 8.1-8.1 8.1zm0-28c-4.4 0-8.1-3.6-8.1-8.1 0-4.4 3.6-8.1 8.1-8.1 4.4 0 8.1 3.6 8.1 8.1 0 4.4-3.6 8.1-8.1 8.1zm28.6 28c-4.4 0-8.1-3.6-8.1-8.1 0-4.4 3.6-8.1 8.1-8.1 4.4 0 8.1 3.6 8.1 8.1s-3.7 8.1-8.1 8.1zm0-28c-4.4 0-8.1-3.6-8.1-8.1 0-4.4 3.6-8.1 8.1-8.1 4.4 0 8.1 3.6 8.1 8.1 0 4.4-3.7 8.1-8.1 8.1z"/></svg>