<svg xmlns="http://www.w3.org/2000/svg" viewBox="0 0 228 356" enable-background="new 0 0 228 356"><path fill="#DFDDDD" d="M166.6 197c-11-8.2-25.6-14.2-45.9-14.2-20 0-34.4 6.2-45.6 14.2v-7.8c9.3-7.1 23.7-14.7 45.6-14.7 22.1.1 36.5 7.6 45.9 14.7v7.8zM142.8 147.9c-6.6 0-12-5.4-12-12s5.4-12 12-12 12 5.4 12 12c0 6.7-5.4 12-12 12zM91.3 147.9c-6.6 0-12-5.4-12-12s5.4-12 12-12 12 5.4 12 12c0 6.7-5.4 12-12 12zM194.7 355.9h-161.7c-18.2 0-33-14.8-33-33v-289.9c0-18.2 14.8-33 33-33h161.7c18.2 0 33 14.8 33 33v290c0 18.1-14.8 32.9-33 32.9zm-161.7-341.8c-10.4 0-18.9 8.5-18.9 18.9v290c0 10.4 8.5 18.9 18.9 18.9h161.7c10.4 0 18.9-8.5 18.9-18.9v-290c0-10.4-8.5-18.9-18.9-18.9h-161.7zM196.3 296.2h-164.9c-3.9 0-7-3.2-7-7v-257.7c0-3.9 3.2-7 7-7h164.9c3.9 0 7 3.2 7 7v257.7c.1 3.8-3.1 7-7 7zm-157.9-14.1h150.9v-243.6h-150.9v243.6zM153.6 328.6h-77.6c-5.5 0-10-4.5-10-10s4.5-10 10-10h77.6c5.5 0 10 4.5 10 10s-4.5 10-10 10z"/></svg>