<svg xmlns="http://www.w3.org/2000/svg" width="288" height="205" viewBox="0 0 288 205"><path fill="#DFDDDD" d="M243.8 109.6s-.5-6.2-.8-9.3v-.2c-.3-2.3-2.2-2.5-3-2.5h-.3s-4 .3-6.3.5h-.2c-2.1 0-2.6-2.9-2.6-2.9-.1-.6-.9-4-2.3-8.3-.3-1-.5-1.9-.5-2.5 0-2.1 1.3-2.5 1.3-2.5l5.8-2.9c1.2-.6 1.5-1.5 1.5-2.3 0-1-.5-1.8-.5-1.8s-3-6-4.4-8.6l-.1-.1h-.1c-.6-1.1-1.5-1.4-2.3-1.4-1 0-1.8.5-1.8.5s-4.3 2.2-5.5 2.8c-.3.1-.5.2-.8.2-1.2 0-2.6-.9-2.9-1.4-.3-.7-4.1-5.5-6.2-8-.8-1-1.1-1.9-1.1-2.4 0-.8.5-1.2.5-1.2s2.3-2.7 4.3-5c.6-.8.8-1.4.8-2 0-1.2-1-2.1-1-2.1l-7.7-6.6h-.1c-.6-.5-1.2-.7-1.7-.7-1.2 0-2.1 1-2.1 1l-.2.2c-.7.9-3.4 4-4.4 5.1-.3.4-.9.5-1.4.5-1.1 0-2.4-.7-2.4-.7-1.5-1.4-7.1-3.8-9.5-5.4-1.2-.8-1.5-1.5-1.5-2.1 0-.6.3-1 .3-1s0-.1.1-.5c.3-.9 1-3 1.7-5.3.1-.4.2-.8.2-1.2 0-2.1-2.2-2.7-2.2-2.7l-.3-.1c-1.3-.4-6.4-2.1-8.9-2.9h-.1c-.4-.1-.8-.2-1-.2-1.9 0-2.6 2-2.6 2s-1.7 5.3-2.2 6.7v.1c-.3.9-1.9 1.1-2.8 1.1h-.8c-1.3-.3-6-.8-9.4-1.1-3.4-.3-3.4-2.3-3.4-2.3s-.2-2.6-.5-6.2c-.2-2.7-2-3-2.9-3.1h-.5s-6.7.5-9.5.8c-2.7.2-2.7 2.9-2.7 3.2v.1c.1.7.3 4.7.5 6.4v.2c0 1.5-1.3 2.2-2.5 2.5l-.4.1c-1.4.3-5.8 1.4-9.3 2.7h-.1c-.6.2-1.1.3-1.5.3-2.1 0-2.7-2-2.7-2.1 0 0-.8-1.5-2.3-4.5v-.1l-.1-.1c-.8-1.5-1.9-1.9-2.7-1.9-.7 0-1.2.3-1.2.3s-6.6 3.4-9.1 4.6c-1.1.5-1.4 1.5-1.4 2.3 0 .9.4 1.6.4 1.6s2.2 4.3 2.9 5.6c.1.3.2.7.2 1 0 1.1-.8 2.1-1.7 2.7-1.2.8-4.7 3.5-7.6 6h-.2c-1 .8-1.8 1-2.5 1-1.3 0-2.1-1-2.1-1l-4.3-3.5c-.7-.5-1.3-.8-1.9-.8-1.1 0-2 .7-2 .7s-4 4.6-6.1 7.1l-.4.5-.1.1c-.6.7-.8 1.4-.8 1.9 0 1.4 1.1 2.3 1.1 2.3s3.5 3 5 4.3c.5.4.6 1 .6 1.6 0 1.2-.7 2.4-.7 2.4-1.3 1.6-3.2 5.4-4.9 8.7-.8 1.6-1.9 2.1-2.7 2.1-.8 0-1.4-.3-1.4-.3s-2.5-.8-5.3-1.7c-.4-.1-.8-.2-1.2-.2-1.9 0-2.7 1.8-2.7 1.8s-1.9 5.9-2.9 9.1c-1 3.2 1.6 4.2 1.6 4.2s4.8 1.6 6.5 2.1c1.7.5 1.4 3.6 1.4 3.6-.3 1.5-.8 6-1.2 9.6-.3 3.3-2.6 3.4-2.9 3.4h-.1s-1.8.1-5.5.4c-3.8.3-3 3.8-3 3.8s.3 4.8.7 8.6c.2 2.9 2.1 3.3 2.9 3.3l.4-.1s4-.3 5.5-.4h.4c1.4 0 2.9.6 3.3 2.7.4 2.3 2.3 7.4 2.8 10.2.5 2.7-1 3.2-1 3.2s-2.3 1.2-5.6 2.8c-3.3 1.6-1.4 4.5-1.4 4.5l4.3 8.4c.6 1.2 1.5 1.5 2.3 1.5 1.2 0 2.3-.7 2.3-.7s3.6-1.9 5.2-2.7c.3-.1.6-.2.9-.2 1.2 0 2.4 1.1 3 2.2.8 1.4 4.3 5.6 6.1 7.8l.1 3.6s-1.9 2.2-3.8 4.5c-2 2.3.1 4.3.1 4.3s4.7 4.3 7.4 6.3c.8.5 1.4.8 2.1.8 1.5 0 2.4-1.2 2.4-1.2s3.5-4 4.2-4.9c.3-.3.9-.5 1.6-.5.8 0 1.6.2 2.3.7 1.3.9 5.8 3.4 8.6 4.8l2 3.6s-.4 1.4-1.7 5.2c-1.2 3.8 1.5 4.5 1.5 4.5s5.3 1.8 8.9 2.9c.5.2 1 .3 1.5.3 2.2 0 2.7-2.1 2.7-2.1s1.4-4.3 2.1-6.2c.3-1.1 1.5-1.4 2.6-1.4 1 0 1.9.2 2.4.3 1.2.2 4.7.6 8.4.9 3.6.3 3.2 2.9 3.2 2.9s.3 3.2.5 6c.2 2.4 2.5 2.6 3.4 2.6h.3s4.9-.3 8.6-.7c3.8-.3 3.3-3.5 3.3-3.5s-.3-3.4-.5-5.8 2.5-3.2 3.4-3.3 4.8-1.2 8.6-2.5c.8-.2 1.4-.3 1.9-.3 2.2 0 2.5 1.7 2.5 1.7s1.7 3.3 2.8 5.5c.5 1.1 1.5 1.4 2.3 1.4.8 0 1.4-.2 1.4-.2s6-3.1 8.9-4.6c2.9-1.4 1-4.3 1-4.3s-1.8-3.5-2.6-5.1c-.8-1.6.3-3.2 1.9-4.3 1.6-1 5.6-4.3 7.9-6.2.8-.5 1.4-.8 1.9-.8l.7.1c.5.2.8.7.8.7s1.7 1.5 4.4 3.8c.8.7 1.6 1 2.3 1 1.4 0 2.3-1.1 2.3-1.2 0 0 4.3-5 6.3-7.4.6-.7.8-1.3.8-1.9 0-1.4-1.4-2.4-1.4-2.4s-3.4-2.9-4.9-4.2c-.5-.4-.6-.9-.6-1.4 0-1.2.9-2.5.9-2.5.8-1 3.6-6.2 5.1-9.1l.1-.1.1-.1c.7-1.2 1.4-1.5 2.1-1.5.8 0 1.5.5 1.5.5s1.6.5 5.1 1.6h.1c.5.1 1 .2 1.3.2 2.3 0 2.7-2.3 2.7-2.3s1.9-5.8 2.9-8.9c.1-.5.2-.9.2-1.2 0-2.1-2.2-2.7-2.2-2.7l-5.8-1.9c-1.2-.4-1.9-1.5-1.9-2.9 0-.3.1-.6.1-1 .4-1.8.9-7.6 1.2-10.4v-.5c.3-1 1-1.4 1.6-1.6h.1l.2-.1.1-.1h.7s2.3-.2 5.8-.4c2.4-.2 2.7-1.9 2.7-2.9.8-1 .7-1.3.7-1.3zm-93.4 72.2h-.5c-38.3-.3-69.2-31.5-68.9-69.8.3-38.1 31.3-68.9 69.3-68.9h.4c38.3.3 69.1 31.5 68.9 69.8-.2 38.2-31.2 68.9-69.2 68.9zm133.9-148.1s-.2-2.3-.3-3.5v-.1c-.1-.8-.8-1-1.2-1h-.1s-1.5.1-2.4.2h-.1c-.8 0-1-1.1-1-1.1-.1-.3-.3-1.5-.9-3.2-.1-.4-.2-.7-.2-1 0-.8.5-.9.5-.9l2.2-1.1c.5-.2.5-.5.5-.9l-.2-.7s-1.2-2.3-1.6-3.3v-.1c-.2-.4-.5-.5-.8-.5-.3 0-.7.2-.7.2s-1.6.8-2.1 1c-.1.1-.2.1-.3.1-.4 0-1-.3-1.1-.5-.1-.3-1.6-2.1-2.4-3-.3-.4-.4-.7-.4-.9 0-.3.2-.4.2-.4s.9-1 1.6-1.9c.2-.3.3-.5.3-.8 0-.5-.3-.8-.3-.8s-2.1-1.9-2.9-2.5c-.2-.2-.5-.3-.7-.3-.5 0-.8.3-.8.3l-.1.4c-.3.3-1.3 1.5-1.6 1.9-.1.1-.3.2-.5.2-.4 0-.9-.3-.9-.3-.5-.5-2.7-1.4-3.6-2.1-.4-.3-.5-.5-.5-.8l.1-.3s0-.1.1-.2c.1-.3.3-1.1.7-2 .1-.1.1-.3.1-.5 0-.8-.8-1-.8-1l-.1-.1-3.4-1.1c-.1-.1-.3-.1-.4-.1-.8 0-1 .8-1 .8s-.6 2-.8 2.5c-.1.3-.7.4-1.1.4h-.3c-.5-.1-2.3-.3-3.6-.4-1.4 0-1.4-.8-1.4-.8s-.1-1-.2-2.3c-.1-1-.8-1.2-1.1-1.2h-.2s-2.5.2-3.6.3c-1 .1-1 1.1-1 1.2v.1c0 .3.1 1.8.2 2.4 0 .5-.5.8-1 1h-.1c-.5.1-2.2.5-3.5 1-.2.1-.4.1-.5.1-.8 0-1-.8-1-.8s-.3-.5-.9-1.7c-.3-.5-.8-.7-1-.7-.3 0-.5.1-.5.1l-3.4 1.7c-.4.2-.5.5-.5.8 0 .3.1.6.1.6s.8 1.6 1.1 2.1c.1.1.1.3.1.3 0 .4-.3.8-.6 1-.5.3-1.8 1.3-2.9 2.3-.3.3-.7.4-.9.4-.5 0-.8-.3-.8-.4l-1.6-1.4c-.3-.2-.5-.3-.7-.3-.4 0-.8.3-.8.3s-1.5 1.7-2.3 2.7l-.1.2-.1.1c-.2.3-.3.5-.3.8 0 .5.4.9.4.9s1.3 1.1 1.9 1.6c.2.1.3.3.3.6 0 .4-.3.9-.3.9-.5.6-1.2 2.1-1.9 3.3-.3.6-.8.8-1 .8l-.5-.1-2-.6c-.1-.1-.3-.1-.4-.1-.7 0-1 .7-1 .7s-.8 2.3-1.1 3.4c-.4 1.2.6 1.6.6 1.6s1.8.6 2.5.8c.7.2.5 1.4.5 1.4-.1.5-.3 2.3-.4 3.6-.1 1.2-1 1.3-1.1 1.3 0 0-.7.1-2.1.1-1.4.1-1.2 1.4-1.2 1.4s.1 1.9.3 3.3c.1 1.1.8 1.2 1.1 1.2h.1s1.5-.1 2.1-.1h.1c.5 0 1.1.2 1.2 1 .1.9.8 2.8 1 3.8.2 1-.3 1.2-.3 1.2s-.8.4-2.1 1.1c-1.2.6-.5 1.7-.5 1.7s1.1 2.1 1.6 3.2c.2.5.5.5.9.5s.8-.3.8-.3l2-1c.1-.1.2-.1.3-.1.5 0 .9.4 1.1.8.3.5 1.6 2.1 2.3 2.9.7.8.1 1.4.1 1.4s-.7.8-1.4 1.7c-.8.9 0 1.6 0 1.6s1.8 1.6 2.8 2.4c.3.2.5.3.8.3.5 0 .9-.5.9-.5s1.3-1.5 1.6-1.9c.1-.1.3-.2.6-.2s.6.1.9.3c.5.3 2.2 1.3 3.2 1.8 1.1.5.8 1.4.8 1.4s-.1.5-.6 2c-.5 1.4.5 1.7.5 1.7s2.1.7 3.4 1.1c.2.1.4.1.5.1.8 0 1-.8 1-.8s.5-1.6.8-2.4c.1-.4.5-.5 1-.5.3 0 .7.1.9.1.5.1 1.8.2 3.2.3 1.4.1 1.2 1.1 1.2 1.1s.1 1.2.2 2.3c.1.9 1 1 1.3 1h.1s1.9-.1 3.3-.3c1.4-.1 1.2-1.3 1.2-1.3s-.1-1.3-.2-2.2c-.1-.9 1-1.2 1.3-1.2.3-.1 1.8-.5 3.2-1 .3-.1.5-.1.7-.1.8 0 1 .7 1 .7l1 2.1c.2.4.5.5.9.5.3 0 .5-.1.5-.1s2.3-1.2 3.4-1.7.4-1.6.4-1.6-.7-1.3-1-1.9c-.3-.6.1-1.2.7-1.6.6-.4 2.1-1.6 3-2.3.3-.2.5-.3.7-.3l.3.1c.2.1.3.3.3.3s.7.5 1.6 1.4c.3.3.6.3.9.3.5 0 .8-.4.9-.4 0 0 1.6-1.9 2.4-2.8.2-.3.3-.5.3-.7 0-.5-.5-.9-.5-.9s-1.3-1.1-1.9-1.6c-.2-.1-.2-.3-.2-.5 0-.5.3-1 .3-1 .3-.3 1.4-2.3 1.9-3.4.3-.4.5-.5.8-.5.3 0 .5.2.5.2s.6.2 1.9.6c.2.1.3.1.5.1.8 0 1-.9 1-.9s.7-2.2 1.1-3.4c.1-.1.1-.3.1-.5 0-.8-.8-1-.8-1l-2.2-.7c-.4-.1-.7-.5-.7-1.1 0-.1 0-.2.1-.3.1-.7.3-2.9.5-4v-.1c.1-.3.3-.5.6-.6h.4s.9-.1 2.2-.1c.9-.1 1-.8 1-1.1v-.7zm-35.4 27.3h-.1c-14.5-.1-26.1-11.9-26.1-26.4.1-14.4 11.8-26.1 26.2-26.1h.1c14.5.1 26.1 11.9 26.1 26.4 0 14.5-11.8 26.1-26.2 26.1zm-179.8 107.2s-.2-2.3-.3-3.5v-.1c-.1-.8-.8-1-1.2-1h-.1s-1.5.1-2.4.2h-.1c-.8 0-1-1.1-1-1.1-.1-.3-.3-1.5-.9-3.2-.1-.4-.2-.7-.2-1 0-.8.5-.9.5-.9l2.2-1.1c.5-.2.5-.5.5-.9l-.2-.7s-1.2-2.3-1.6-3.3v-.1c-.2-.4-.5-.5-.8-.5-.3 0-.7.2-.7.2s-1.6.8-2.1 1c-.1.1-.2.1-.3.1-.4 0-1-.3-1.1-.5-.1-.3-1.6-2.1-2.4-3-.3-.4-.4-.7-.4-.9 0-.3.2-.4.2-.4s.9-1 1.6-1.9c.2-.3.3-.5.3-.8 0-.5-.3-.8-.3-.8s-2.1-1.9-2.9-2.5c-.2-.2-.5-.3-.7-.3-.5 0-.8.3-.8.3l-.1.1c-.3.3-1.3 1.5-1.6 1.9-.1.1-.3.2-.5.2-.4 0-.9-.3-.9-.3-.5-.5-2.7-1.4-3.6-2.1-.4-.3-.5-.5-.5-.8l.1-.4s0-.1.1-.2c.1-.3.3-1.1.7-2 .1-.1.1-.3.1-.5 0-.8-.8-1-.8-1l-.1-.1-3.4-1.1c-.1-.1-.3-.1-.4-.1-.8 0-1 .8-1 .8s-.6 2-.8 2.5c-.1.3-.7.4-1.1.4h-.3c-.5-.1-2.3-.3-3.6-.4-1.3-.1-1.3-.9-1.3-.9s-.1-1-.2-2.3c-.1-1-.8-1.2-1.1-1.2h-.2s-2.5.2-3.6.3c-1 .1-1 1.1-1 1.2v.1c0 .3.1 1.8.2 2.4v.1c0 .5-.5.8-1 1h-.1c-.5.1-2.2.5-3.5 1-.2.1-.4.1-.5.1-.8 0-1-.8-1-.8s-.3-.5-.9-1.7c-.3-.5-.8-.7-1-.7-.3 0-.5.1-.5.1l-3.4 1.7c-.4.2-.5.5-.5.8 0 .3.1.6.1.6s.8 1.6 1.1 2.1c.1.1.1.3.1.3 0 .4-.3.8-.6 1-.5.3-1.8 1.3-2.9 2.3-.3.3-.7.4-.9.4-.5 0-.8-.3-.8-.4l-1.6-1.4c-.3-.2-.5-.3-.7-.3-.4 0-.8.3-.8.3s-1.5 1.7-2.3 2.7l-.3.9-.1.1c-.2.3-.3.5-.3.8 0 .5.4.9.4.9s1.3 1.1 1.9 1.6c.2.1.3.3.3.6 0 .4-.3.9-.3.9-.5.6-1.2 2.1-1.9 3.3-.3.6-.8.8-1 .8-.3 0-.5-.1-.5-.1l-2-.6c-.1-.1-.3-.1-.4-.1-.7 0-1 .7-1 .7s-.8 2.3-1.1 3.4c-.4 1.2.6 1.6.6 1.6s1.8.6 2.5.8c.7.2.5 1.4.5 1.4-.1.5-.3 2.3-.4 3.6-.1 1.2-1 1.3-1.1 1.3 0 0-.7.1-2.1.1-1.4.1-1.2 1.4-1.2 1.4s.1 1.9.3 3.3c.1 1.1.8 1.2 1.1 1.2h.1s1.5-.1 2.1-.1h.1c.5 0 1.1.2 1.2 1 .1.9.8 2.8 1 3.8.2 1-.3 1.2-.3 1.2s-.8.4-2.1 1.1c-1.2.6-.5 1.7-.5 1.7s1.1 2.1 1.6 3.2c.2.5.5.5.9.5s.8-.3.8-.3l2-1c.1-.1.2-.1.3-.1.5 0 .9.4 1.1.8.3.5 1.6 2.1 2.3 2.9.7.8.1 1.4.1 1.4s-.7.8-1.4 1.7v1.6s1.8 1.6 2.8 2.4c.3.2.5.3.8.3.5 0 .9-.5.9-.5s1.3-1.5 1.6-1.9c.1-.1.3-.2.6-.2s.6.1.9.3c.5.3 2.2 1.3 3.2 1.8 1.1.5.8 1.4.8 1.4s-.1.5-.6 2c-.5 1.4.5 1.7.5 1.7s2.1.7 3.4 1.1c.2.1.4.1.5.1.8 0 1-.8 1-.8s.5-1.6.8-2.4c.1-.4.5-.5 1-.5.3 0 .7.1.9.1.5.1 1.8.2 3.2.3 1.4.1 1.2 1.1 1.2 1.1s.1 1.2.2 2.3c.1.9 1 1 1.3 1h.1s1.9-.1 3.3-.3c1.4-.1 1.2-1.3 1.2-1.3s-.1-1.3-.2-2.2c-.1-.9 1-1.2 1.3-1.2.3-.1 1.8-.5 3.2-1 .3-.1.5-.1.7-.1.8 0 1 .7 1 .7l1 2.1c.2.4.5.5.9.5.3 0 .5-.1.5-.1s2.3-1.2 3.4-1.7.4-1.6.4-1.6-.7-1.3-1-1.9c-.3-.6.1-1.2.7-1.6.6-.4 2.1-1.6 3-2.3.3-.2.5-.3.7-.3l.3.1c.2.1.3.3.3.3s.7.5 1.6 1.4c.3.3.6.3.9.3.5 0 .8-.4.9-.4 0 0 1.6-1.9 2.4-2.8.2-.3.3-.5.3-.7 0-.5-.5-.9-.5-.9s-1.3-1.1-1.9-1.6c-.2-.1-.2-.3-.2-.5 0-.5.3-1 .3-1 .3-.3 1.4-2.3 1.9-3.4.3-.4.5-.5.8-.5.3 0 .5.2.5.2s.6.2 1.9.6c.2.1.3.1.5.1.8 0 1-.9 1-.9s.7-2.2 1.1-3.4c.1-.1.1-.3.1-.5 0-.8-.8-1-.8-1l-2.2-.7c-.4-.1-.7-.5-.7-1.1 0-.1 0-.2.1-.3.1-.7.3-2.9.5-4v-.1c.1-.3.3-.5.6-.6h.4s.9-.1 2.2-.1c.9-.1 1-.8 1-1.1.1-.8.1-1 .1-1zm-35.3 27.3h-.1c-14.5-.1-26.1-11.9-26.1-26.4.1-14.4 11.8-26.1 26.2-26.1h.1c14.5.1 26.1 12 26.1 26.5-.1 14.5-11.8 26-26.2 26zm116.6-140.1c31.4 0 56.9 25.4 56.9 56.9s-25.4 56.9-56.9 56.9-56.9-25.4-56.9-56.9 25.5-56.9 56.9-56.9m0-6.9c-35.1 0-63.7 28.5-63.7 63.7s28.5 63.7 63.7 63.7 63.7-28.5 63.7-63.7-28.5-63.7-63.7-63.7zm98.3 8.5c-12.2 0-22.2-9.9-22.2-22.2s9.9-22.2 22.2-22.2c12.3 0 22.2 9.9 22.2 22.2s-10 22.2-22.2 22.2zm0-27.3c-2.8 0-5.1 2.3-5.1 5.1s2.3 5.1 5.1 5.1 5.1-2.3 5.1-5.1-2.3-5.1-5.1-5.1zm-215.1 161.6c-12.2 0-22.2-9.9-22.2-22.2 0-12.2 9.9-22.2 22.2-22.2s22.2 9.9 22.2 22.2c-.1 12.2-10 22.2-22.2 22.2zm0-27.3c-2.8 0-5.1 2.3-5.1 5.1s2.3 5.1 5.1 5.1 5.1-2.3 5.1-5.1c-.1-2.8-2.3-5.1-5.1-5.1zm85.7-40.7h62v5.2h-62v-5.2zm13.4-17.9c-4.5 0-8.2-3.6-8.2-8.2 0-4.5 3.6-8.2 8.2-8.2 4.5 0 8.2 3.6 8.2 8.2-.1 4.6-3.7 8.2-8.2 8.2zm29.7-2.7c1-2.8 3.6-5.1 6.7-5.1s5.7 2.3 6.7 5.1h5.6c-1-5.8-6.2-10.5-12.3-10.5-6.1 0-11.2 4.7-12.3 10.5h5.6z"/></svg>