<?xml version="1.0" encoding="utf-8"?>
<!-- Generator: Adobe Illustrator 18.0.0, SVG Export Plug-In . SVG Version: 6.00 Build 0)  -->
<!DOCTYPE svg PUBLIC "-//W3C//DTD SVG 1.1//EN" "http://www.w3.org/Graphics/SVG/1.1/DTD/svg11.dtd">
<svg version="1.1" id="Layer_1" xmlns="http://www.w3.org/2000/svg" xmlns:xlink="http://www.w3.org/1999/xlink" x="0px" y="0px"
	 width="138px" height="150px" viewBox="0 0 138 150" style="enable-background:new 0 0 138 150;" xml:space="preserve">
<g>
	<g>
		<path style="fill:#DBDADA;" d="M124.9392,149.9999H13.0605C5.86,149.9999,0,144.14,0,136.9378V13.0625C0,5.8603,5.86,0,13.0605,0
			h71.76L138,52.9548v83.983C138,144.14,132.1397,149.9999,124.9392,149.9999z M13.0605,11.197
			c-1.0272,0-1.8652,0.838-1.8652,1.8655v123.8753c0,1.0288,0.838,1.8668,1.8652,1.8668h111.8787
			c1.0272,0,1.8655-0.838,1.8655-1.8668v-94.608L95.3204,11.197H13.0605z"/>
		<g>
			<path style="fill:#DBDADA;" d="M88,18.7691L119.2309,50H88V18.7691 M84.7872,0C80.5042,0,77,3.5043,77,7.7873v45.4255
				C77,57.4958,80.5042,61,84.7872,61h45.4256c4.283,0,7.7872-3.5042,7.7872-7.7872L84.7872,0L84.7872,0z"/>
		</g>
	</g>
	<g>
		<path style="fill:#DBDADA;" d="M95,111.9586c-6.2844-4.6825-14.5403-8.0095-26.1232-8.0095
			c-11.3365,0-19.4692,3.4502-25.8768,8.0095v-4.436c5.2986-4.0664,13.4313-8.3791,25.8768-8.3791
			c12.5687,0.1232,20.7014,4.3128,26.1232,8.3791L95,111.9586z"/>
		<g>
			<path style="fill:#DBDADA;" d="M83.6019,84.1102c-3.6967,0-6.7773-3.0806-6.7773-6.7773c0-3.6967,3.0806-6.7773,6.7773-6.7773
				c3.6967,0,6.7773,3.0806,6.7773,6.7773C90.3791,81.0296,87.4218,84.1102,83.6019,84.1102z"/>
			<path style="fill:#DBDADA;" d="M54.3981,84.1102c-3.6967,0-6.7773-3.0806-6.7773-6.7773c0-3.6967,3.0806-6.7773,6.7773-6.7773
				s6.7772,3.0806,6.7772,6.7773C61.1754,81.0296,58.0948,84.1102,54.3981,84.1102z"/>
		</g>
	</g>
</g>
</svg>
