<svg xmlns="http://www.w3.org/2000/svg" width="32" height="21" viewBox="0 0 32 21"><path d="M14.7 19.8l1.2 1.2 1.1-1.1c-.7-.4-1.6-.5-2.3-.1zm-3.8-3.8l2.1 2.1c1.7-1.2 4-1.2 5.7.1l2.1-2.1c-2.8-2.4-7.1-2.5-9.9-.1zm-8.4-8.4l2.5 2.5c6.1-5.6 15.5-5.6 21.6.1l2.5-2.5c-7.4-7.1-19.1-7.1-26.6-.1zm4.2 4.2l2.5 2.5c3.8-3.3 9.5-3.3 13.3.1l2.5-2.5c-5.2-4.8-13.1-4.8-18.3-.1z" fill="none"/><path fill="#FFD686" d="M29.2 8.3l1.7-1.7c-8.4-8-21.6-8-30.1-.1l1.7 1.7c7.5-7 19.2-7 26.7.1zm-24.2 2.4l1.7 1.7c5.2-4.7 13.2-4.6 18.3.1l1.7-1.7c-6.1-5.7-15.5-5.7-21.7-.1zm4.2 4.2l1.7 1.7c2.9-2.4 7.1-2.3 9.9.1l1.7-1.7c-3.8-3.4-9.5-3.4-13.3-.1zm3.8 3.8l1.7 1.7c.7-.3 1.6-.3 2.3 0l1.7-1.7c-1.7-1.2-4-1.3-5.7 0z"/></svg>