<svg xmlns="http://www.w3.org/2000/svg" width="45" height="30" viewBox="0 0 45 30"><path d="M1.386 18.118c-.568 0-1.03-.462-1.03-1.03v-15.703c0-.568.462-1.03 1.03-1.03h24.229c.568 0 1.03.462 1.03 1.03v15.703c0 .568-.462 1.03-1.03 1.03h-24.229z" fill="#F3F4F4"/><path d="M25.614.711c.372 0 .675.303.675.675v15.703c0 .372-.303.675-.675.675h-24.228c-.372 0-.675-.303-.675-.675v-15.703c0-.372.303-.675.675-.675h24.228m0-.711h-24.228c-.766 0-1.386.62-1.386 1.386v15.703c0 .765.62 1.386 1.386 1.386h24.229c.765 0 1.386-.62 1.386-1.386v-15.703c-.001-.766-.621-1.386-1.387-1.386z" fill="#DADAD9"/><circle cx="17.857" cy="9.217" r="6.486" fill-rule="evenodd" clip-rule="evenodd" fill="#FBB231"/><circle cx="9.155" cy="9.217" r="6.486" fill-rule="evenodd" clip-rule="evenodd" fill="#EC1C2E"/><path fill-rule="evenodd" clip-rule="evenodd" fill="#FBB231" d="M12.747 5.219h3.446v-.352h-3.149l-.297.352zM12.231 6.002h3.962v-.352h-3.755l-.207.352zM11.845 6.783h4.348v-.352h-4.194l-.154.352zM11.581 7.567h4.612v-.353h-4.503l-.109.353zM11.734 11.352h4.47v-.352h-4.58l.11.352zM12.064 12.135h4.14v-.352h-4.304l.164.352zM11.425 8.348h4.768v-.353h-4.7l-.068.353zM14.331 10.571h1.818v-.353h-1.752l-.066.353zM14.475 9.79h1.674v-.355h-1.608l-.066.355zM11.305 9.435h.473v.355h-.451l-.022-.355z"/><path fill-rule="evenodd" clip-rule="evenodd" fill="#fff" d="M10.423 9.008l-.03-.002-.031-.004-.028-.004-.029-.005-.026-.004-.029-.005-.028-.004-.031-.004-.03-.005-.035-.002-.04-.002-.041-.002h-.046l-.051.002-.056.004-.064.005-.044.006-.041.007-.037.013-.033.013-.031.015-.028.018-.022.022-.02.019-.013.025-.011.024-.004.026v.026l.006.029.009.028.018.028.021.029.044.041.053.033.061.029.066.024.07.022.072.024.072.026.07.028.066.038.061.046.055.054.046.068.035.083.021.099.009.118-.009.138-.015.103-.026.089-.035.083-.044.073-.05.063-.057.055-.061.048-.068.041-.07.033-.072.029-.075.022-.076.017-.075.013-.072.007-.072.004-.068.002h-.094l-.088-.002h-.076l-.072-.002-.066-.002-.059-.005-.053-.004-.05-.007-.046-.004-.041-.009-.042-.006-.037-.011-.037-.009-.035-.013-.035-.013-.038-.013.099-.484.019.005.025.006.03.009.037.009.04.008.044.009.048.011.052.009.055.009.057.008.059.007.061.006.064.003.063.002h.063l.064-.002.063-.014.051-.017.039-.024.031-.031.022-.03.017-.035.011-.035.009-.033.004-.064-.02-.054-.037-.044-.054-.037-.066-.033-.077-.033-.085-.031-.085-.035-.088-.039-.083-.046-.077-.057-.07-.068-.054-.083-.04-.098-.019-.118.002-.14.011-.086.015-.081.022-.074.026-.07.035-.066.04-.057.046-.054.054-.048.064-.042.07-.035.078-.033.088-.024.098-.02.108-.015.118-.009.129-.002h.081l.074.002.068.003.061.002.055.004.05.004.044.005.04.004.037.005.03.006.029.005.026.004.022.004.02.002.019.005.018.002-.112.494z"/><path stroke="#fff" stroke-width=".216" stroke-miterlimit="2.613" fill="none" d="M10.423 9.008l-.03-.002-.031-.004-.028-.004-.029-.005-.026-.004-.029-.005-.028-.004-.031-.004-.03-.005-.035-.002-.04-.002-.041-.002h-.046l-.051.002-.056.004-.064.005-.044.006-.041.007-.037.013-.033.013-.031.015-.028.018-.022.022-.02.019-.013.025-.011.024-.004.026v.026l.006.029.009.028.018.028.021.029.044.041.053.033.061.029.066.024.07.022.072.024.072.026.07.028.066.038.061.046.055.054.046.068.035.083.021.099.009.118-.009.138-.015.103-.026.089-.035.083-.044.073-.05.063-.057.055-.061.048-.068.041-.07.033-.072.029-.075.022-.076.017-.075.013-.072.007-.072.004-.068.002h-.094l-.088-.002h-.076l-.072-.002-.066-.002-.059-.005-.053-.004-.05-.007-.046-.004-.041-.009-.042-.006-.037-.011-.037-.009-.035-.013-.035-.013-.038-.013.099-.484.019.005.025.006.03.009.037.009.04.008.044.009.048.011.052.009.055.009.057.008.059.007.061.006.064.003.063.002h.063l.064-.002.063-.014.051-.017.039-.024.031-.031.022-.03.017-.035.011-.035.009-.033.004-.064-.02-.054-.037-.044-.054-.037-.066-.033-.077-.033-.085-.031-.085-.035-.088-.039-.083-.046-.077-.057-.07-.068-.054-.083-.04-.098-.019-.118.002-.14.011-.086.015-.081.022-.074.026-.07.035-.066.04-.057.046-.054.054-.048.064-.042.07-.035.078-.033.088-.024.098-.02.108-.015.118-.009.129-.002h.081l.074.002.068.003.061.002.055.004.05.004.044.005.04.004.037.005.03.006.029.005.026.004.022.004.02.002.019.005.018.002-.112.494"/><path fill-rule="evenodd" clip-rule="evenodd" fill="#fff" d="M10.942 7.974h.606l-.09.529h.366l-.079.495-.385-.011-.21 1.221-.003.043.011.037.022.029.029.024.039.015.044.013.048.009.053.005.048-.003.043-.004.04-.007.035-.008.028-.009.02-.007.013-.004.004-.002-.076.407-.015.011-.016.008-.015.009-.015.009-.016.007-.017.006-.02.007-.02.006-.021.007-.022.004-.027.005-.026.004-.028.004-.033.005-.035.004-.037.004h-.167l-.087-.006-.077-.009-.07-.013-.059-.015-.05-.02-.042-.022-.037-.026-.028-.029-.022-.03-.016-.037-.01-.038-.007-.041-.002-.046v-.048l.006-.051.007-.054.418-2.387z"/><path stroke="#fff" stroke-width=".216" stroke-miterlimit="2.613" fill="none" d="M10.942 7.974h.606l-.09.529h.366l-.079.495-.385-.011-.21 1.221-.003.043.011.037.022.029.029.024.039.015.044.013.048.009.053.005.048-.003.043-.004.04-.007.035-.008.028-.009.02-.007.013-.004.004-.002-.076.407-.015.011-.016.008-.015.009-.015.009-.016.007-.017.006-.02.007-.02.006-.021.007-.022.004-.027.005-.026.004-.028.004-.033.005-.035.004-.037.004h-.167l-.087-.006-.077-.009-.07-.013-.059-.015-.05-.02-.042-.022-.037-.026-.028-.029-.022-.03-.016-.037-.01-.038-.007-.041-.002-.046v-.048l.006-.051.007-.054.418-2.387"/><path fill-rule="evenodd" clip-rule="evenodd" fill="#fff" d="M12.307 9.822l-.006.038-.003.039.005.042.009.041.015.042.017.039.024.042.027.037.03.037.033.033.035.033.039.026.04.024.044.02.043.015.044.009.057.009.055.006.057.007.057.004.056.002h.059l.057-.002.059-.004.06-.009.059-.011.061-.013.059-.02.061-.024.064-.026.061-.035.063-.037-.087.538-.035.017-.035.018-.035.013-.033.013-.033.011-.035.011-.035.009-.037.006-.039.007-.044.004-.046.005-.05.004-.057.002h-.059l-.068.002h-.072l-.108-.002-.109-.011-.109-.015-.11-.026-.107-.033-.103-.042-.098-.054-.092-.064-.086-.074-.074-.09-.063-.101-.053-.116-.037-.129-.024-.146-.007-.162.011-.18.009-.07.013-.081.018-.085.024-.092.032-.094.04-.094.05-.096.061-.092.07-.088.086-.083.096-.074.109-.066.127-.054.143-.04.157-.026.177-.009.086.002.089.009.09.015.09.022.087.033.086.039.078.053.073.061.065.075.055.087.044.101.03.116.018.131.002.149-.015.166-.033.184-.011.133h-1.595l.101-.431h.958l.004-.054-.002-.053-.004-.048-.009-.044-.015-.041-.016-.038-.022-.032-.021-.031-.027-.026-.028-.022-.033-.02-.033-.017-.035-.013-.035-.009-.037-.007-.039-.004-.042.002-.039.007-.038.008-.037.013-.037.018-.033.02-.033.024-.028.026-.028.031-.027.032-.024.035-.019.038-.02.039-.015.044-.014.044-.008.046-.088.452z"/><path stroke="#fff" stroke-width=".216" stroke-miterlimit="2.613" fill="none" d="M12.307 9.822l-.006.038-.003.039.005.042.009.041.015.042.017.039.024.042.027.037.03.037.033.033.035.033.039.026.04.024.044.02.043.015.044.009.057.009.055.006.057.007.057.004.056.002h.059l.057-.002.059-.004.06-.009.059-.011.061-.013.059-.02.061-.024.064-.026.061-.035.063-.037-.087.538-.035.017-.035.018-.035.013-.033.013-.033.011-.035.011-.035.009-.037.006-.039.007-.044.004-.046.005-.05.004-.057.002h-.059l-.068.002h-.072l-.108-.002-.109-.011-.109-.015-.11-.026-.107-.033-.103-.042-.098-.054-.092-.064-.086-.074-.074-.09-.063-.101-.053-.116-.037-.129-.024-.146-.007-.162.011-.18.009-.07.013-.081.018-.085.024-.092.032-.094.04-.094.05-.096.061-.092.07-.088.086-.083.096-.074.109-.066.127-.054.143-.04.157-.026.177-.009.086.002.089.009.09.015.09.022.087.033.086.039.078.053.073.061.065.075.055.087.044.101.03.116.018.131.002.149-.015.166-.033.184-.011.133h-1.595l.101-.431h.958l.004-.054-.002-.053-.004-.048-.009-.044-.015-.041-.016-.038-.022-.032-.021-.031-.027-.026-.028-.022-.033-.02-.033-.017-.035-.013-.035-.009-.037-.007-.039-.004-.042.002-.039.007-.038.008-.037.013-.037.018-.033.02-.033.024-.028.026-.028.031-.027.032-.024.035-.019.038-.02.039-.015.044-.014.044-.008.046-.088.452"/><path fill-rule="evenodd" clip-rule="evenodd" fill="#fff" d="M17.526 8.634l-.029-.015-.028-.013-.031-.015-.033-.016-.033-.013-.037-.013-.037-.013-.039-.013-.042-.011-.042-.009-.046-.009-.045-.006-.051-.005-.05-.004h-.162l-.057.004-.059.007-.061.011-.062.017-.061.024-.061.031-.061.039-.059.049-.057.056-.055.071-.052.08-.049.097-.046.109-.041.123-.035.14-.013.078-.009.077-.004.077.002.074.006.074.016.07.019.066.024.066.033.059.04.057.046.05.052.046.059.039.068.033.074.029.084.019.028.007.033.006.039.005.044.004.048.005h.10500000000000001l.055-.005.057-.006.057-.011.054-.016.055-.017.055-.024.05-.029.046-.035.044-.039-.099.584-.013.011-.013.013-.018.016-.019.013-.024.017-.031.015-.035.016-.039.013-.051.015-.057.011-.065.009-.077.009-.085.004-.099.002-.111-.002-.123-.007-.1-.01-.101-.022-.101-.033-.1-.044-.097-.052-.091-.066-.088-.077-.081-.087-.072-.099-.061-.109-.053-.123-.039-.133-.026-.147-.009-.155.004-.171.024-.181.018-.09.019-.087.022-.086.022-.081.024-.076.029-.077.028-.072.031-.068.033-.068.032-.063.038-.061.039-.057.039-.055.044-.053.044-.048.046-.046.05-.043.05-.042.053-.037.055-.035.059-.033.059-.028.061-.027.064-.024.067-.022.068-.017.07-.016.075-.013.074-.011.079-.008.079-.005.083-.002.07.002.068.005.065.006.066.009.061.009.059.013.057.011.053.013.05.013.044.013.041.013.035.013.031.011.026.009.02.009.013.004-.109.606z"/><path stroke="#fff" stroke-width=".216" stroke-miterlimit="2.613" fill="none" d="M17.526 8.634l-.029-.015-.028-.013-.031-.015-.033-.016-.033-.013-.037-.013-.037-.013-.039-.013-.042-.011-.042-.009-.046-.009-.045-.006-.051-.005-.05-.004h-.162l-.057.004-.059.007-.061.011-.062.017-.061.024-.061.031-.061.039-.059.049-.057.056-.055.071-.052.08-.049.097-.046.109-.041.123-.035.14-.013.078-.009.077-.004.077.002.074.006.074.016.07.019.066.024.066.033.059.04.057.046.05.052.046.059.039.068.033.074.029.084.019.028.007.033.006.039.005.044.004.048.005h.10500000000000001l.055-.005.057-.006.057-.011.054-.016.055-.017.055-.024.05-.029.046-.035.044-.039-.099.584-.013.011-.013.013-.018.016-.019.013-.024.017-.031.015-.035.016-.039.013-.051.015-.057.011-.065.009-.077.009-.085.004-.099.002-.111-.002-.123-.007-.1-.01-.101-.022-.101-.033-.1-.044-.097-.052-.091-.066-.088-.077-.081-.087-.072-.099-.061-.109-.053-.123-.039-.133-.026-.147-.009-.155.004-.171.024-.181.018-.09.019-.087.022-.086.022-.081.024-.076.029-.077.028-.072.031-.068.033-.068.032-.063.038-.061.039-.057.039-.055.044-.053.044-.048.046-.046.05-.043.05-.042.053-.037.055-.035.059-.033.059-.028.061-.027.064-.024.067-.022.068-.017.07-.016.075-.013.074-.011.079-.008.079-.005.083-.002.07.002.068.005.065.006.066.009.061.009.059.013.057.011.053.013.05.013.044.013.041.013.035.013.031.011.026.009.02.009.013.004-.109.606"/><path fill-rule="evenodd" clip-rule="evenodd" fill="#fff" d="M22.912 10.846h-.606l.044-.242v-.022l-.035.043-.037.04-.037.035-.04.03-.039.029-.039.024-.04.02-.041.019-.042.016-.042.011-.041.011-.044.006-.044.007-.041.004-.044.002h-.044l-.114-.009-.105-.024-.096-.037-.087-.05-.079-.064-.07-.074-.061-.081-.053-.092-.044-.098-.035-.103-.024-.107-.017-.112-.007-.111.002-.114.011-.112.02-.111.033-.13.039-.122.046-.112.055-.105.057-.098.065-.088.068-.078.072-.073.077-.063.081-.055.083-.048.083-.037.088-.031.087-.019.088-.014.089-.004.064.002.061.007.057.011.053.015.05.018.044.019.043.024.04.024.035.027.033.028.028.029.026.028.022.028.02.029.017.026.014.026.153-.859h.595l-.495 2.861z"/><path stroke="#fff" stroke-width=".216" stroke-miterlimit="2.613" fill="none" d="M22.912 10.846h-.606l.044-.242v-.022l-.035.043-.037.04-.037.035-.04.03-.039.029-.039.024-.04.02-.041.019-.042.016-.042.011-.041.011-.044.006-.044.007-.041.004-.044.002h-.044l-.114-.009-.105-.024-.096-.037-.087-.05-.079-.064-.07-.074-.061-.081-.053-.092-.044-.098-.035-.103-.024-.107-.017-.112-.007-.111.002-.114.011-.112.02-.111.033-.13.039-.122.046-.112.055-.105.057-.098.065-.088.068-.078.072-.073.077-.063.081-.055.083-.048.083-.037.088-.031.087-.019.088-.014.089-.004.064.002.061.007.057.011.053.015.05.018.044.019.043.024.04.024.035.027.033.028.028.029.026.028.022.028.02.029.017.026.014.026.153-.859h.595l-.495 2.861"/><path fill-rule="evenodd" clip-rule="evenodd" fill="#FBB231" d="M21.921 10.317l.062-.004.056-.014.053-.015.05-.024.046-.026.044-.033.041-.037.038-.04.032-.043.031-.049.029-.05.024-.052.022-.055.017-.057.015-.059.011-.059.011-.061.007-.064v-.059l-.002-.061-.007-.057-.009-.055-.015-.052-.018-.051-.021-.043-.027-.042-.028-.035-.033-.031-.037-.026-.04-.017-.041-.011-.046-.005-.059.005-.055.009-.05.017-.05.022-.044.028-.044.035-.037.038-.037.041-.033.048-.031.051-.028.052-.024.057-.022.059-.018.059-.017.064-.013.063-.011.096.004.105.015.108.029.102.044.09.056.072.073.048.087.018z"/><path fill-rule="evenodd" clip-rule="evenodd" fill="#fff" d="M8.485 10.361l-.088.485h-.551l.015-.089.011-.081.009-.062.009-.032-.031.035-.035.035-.042.033-.046.03-.052.031-.055.026-.057.026-.059.022-.063.02-.064.015-.063.013-.066.009-.063.004-.064.003-.061-.007-.059-.009-.077-.019-.07-.022-.061-.029-.055-.033-.048-.035-.043-.039-.035-.041-.031-.044-.026-.046-.022-.048-.018-.048-.013-.049-.009-.05-.006-.05-.005-.048v-.049l.007-.085.013-.081.022-.076.028-.075.035-.07.04-.063.046-.062.052-.054.055-.051.061-.045.064-.042.065-.035.07-.031.073-.024.074-.019.077-.014h.004l.011-.002.015-.002.024-.002.026-.005.031-.002.033-.004.037-.004.037-.005.038-.004.039-.002.035-.005.035-.002.033-.002.03-.002h.075l.052.002.048.002h.049l.039.002.031.002.021.003h.007l.004-.016.014-.039.01-.046.005-.042-.009-.048-.02-.044-.026-.039-.035-.033-.041-.028-.046-.02-.053-.013-.057-.004-.061-.003-.066-.002h-.068l-.07.002-.072.005-.07.006-.07.007-.068.009-.065.008-.064.011-.057.011-.052.011-.048.013-.04.014-.03.015-.024.013.155-.527.048-.02.048-.018.053-.015.052-.011.053-.011.057-.008.057-.009.059-.005.061-.004.063-.002.066-.002h.21000000000000002l.077.002.076.002.062.004.065.011.068.016.07.019.068.027.065.03.066.037.061.042.055.048.048.053.044.059.033.065.022.07.013.075v.083l-.013.087-.221 1.156z"/><path stroke="#fff" stroke-width=".216" stroke-miterlimit="2.613" fill="none" d="M8.485 10.361l-.088.485h-.551l.015-.089.011-.081.009-.062.009-.032-.031.035-.035.035-.042.033-.046.03-.052.031-.055.026-.057.026-.059.022-.063.02-.064.015-.063.013-.066.009-.063.004-.064.003-.061-.007-.059-.009-.077-.019-.07-.022-.061-.029-.055-.033-.048-.035-.043-.039-.035-.041-.031-.044-.026-.046-.022-.048-.018-.048-.013-.049-.009-.05-.006-.05-.005-.048v-.049l.007-.085.013-.081.022-.076.028-.075.035-.07.04-.063.046-.062.052-.054.055-.051.061-.045.064-.042.065-.035.07-.031.073-.024.074-.019.077-.014h.004l.011-.002.015-.002.024-.002.026-.005.031-.002.033-.004.037-.004.037-.005.038-.004.039-.002.035-.005.035-.002.033-.002.03-.002h.075l.052.002.048.002h.049l.039.002.031.002.021.003h.007l.004-.016.014-.039.01-.046.005-.042-.009-.048-.02-.044-.026-.039-.035-.033-.041-.028-.046-.02-.053-.013-.057-.004-.061-.003-.066-.002h-.068l-.07.002-.072.005-.07.006-.07.007-.068.009-.065.008-.064.011-.057.011-.052.011-.048.013-.04.014-.03.015-.024.013.155-.527.048-.02.048-.018.053-.015.052-.011.053-.011.057-.008.057-.009.059-.005.061-.004.063-.002.066-.002h.21000000000000002l.077.002.076.002.062.004.065.011.068.016.07.019.068.027.065.03.066.037.061.042.055.048.048.053.044.059.033.065.022.07.013.075v.083l-.013.087-.221 1.156"/><path fill-rule="evenodd" clip-rule="evenodd" fill="#EC1C2E" d="M7.957 9.79l-.002-.011-.009-.011-.013-.007-.022-.004-.024-.005-.028-.002h-.066l-.035.002-.037.005-.035.004-.035.005-.033.004-.03.006-.027.007-.024.007-.015.004-.018.007-.024.008-.024.011-.028.013-.029.016-.03.015-.029.018-.03.021-.029.022-.026.027-.024.026-.022.028-.015.031-.013.035-.007.035-.002.074.011.059.022.044.028.033.033.022.037.013.035.006.035.003.066-.003.059-.006.057-.009.05-.013.044-.015.041-.02.038-.02.032-.024.029-.022.026-.026.022-.024.018-.026.015-.026.013-.027.011-.024.006-.024.018-.063.015-.072.013-.071.011-.056z"/><path fill-rule="evenodd" clip-rule="evenodd" fill="#fff" d="M3.881 10.846h-.595l.497-2.872h1.035l.098 1.704.716-1.704h1.08l-.507 2.872h-.595l.376-2.146h-.024l-.891 2.146h-.671l-.005-.089-.015-.239-.02-.339-.022-.389-.021-.392-.02-.344-.015-.249-.005-.105h-.033l-.363 2.146z"/><path stroke="#fff" stroke-width=".216" stroke-miterlimit="2.613" fill="none" d="M3.881 10.846h-.595l.497-2.872h1.035l.098 1.704.716-1.704h1.08l-.507 2.872h-.595l.376-2.146h-.024l-.891 2.146h-.671l-.005-.089-.015-.239-.02-.339-.022-.389-.021-.392-.02-.344-.015-.249-.005-.105h-.033l-.363 2.146"/><path fill-rule="evenodd" clip-rule="evenodd" fill="#fff" d="M19.344 10.361l-.09.485h-.549l.004-.089.002-.079v-.059l.005-.026-.029.032-.032.033-.04.031-.044.031-.046.028-.052.026-.055.026-.054.022-.06.018-.061.017-.061.011-.061.009-.064.004-.061.003-.059-.007-.059-.009-.079-.019-.07-.022-.061-.029-.057-.033-.048-.035-.042-.039-.035-.041-.031-.044-.026-.046-.019-.048-.018-.048-.011-.049-.009-.05-.006-.05-.005-.048v-.049l.005-.085.013-.081.02-.076.028-.075.033-.07.041-.063.046-.062.051-.054.057-.051.059-.045.063-.042.068-.035.068-.031.072-.024.072-.019.075-.014h.004l.011-.002.015-.002.022-.002.029-.005.03-.002.033-.004.035-.004.037-.005.04-.004.037-.002.037-.005.035-.002.031-.002.03-.002h.077l.052.002.051.002h.048l.041.002.035.002.02.003h.009l.004-.016.007-.039.006-.046.005-.042-.009-.048-.018-.044-.028-.039-.033-.033-.039-.028-.046-.02-.048-.013-.053-.004-.061-.003-.066-.002h-.068l-.07.002-.072.005-.07.006-.07.007-.068.009-.065.008-.064.011-.057.011-.052.011-.048.013-.04.014-.03.015-.024.013.153-.527.048-.02.05-.018.051-.015.052-.011.055-.011.055-.008.056-.009.06-.005.061-.004.063-.002.064-.002h.20500000000000002l.075.002.074.002.061.004.066.011.068.016.07.019.068.027.068.03.065.037.061.042.055.048.05.053.044.059.033.065.024.07.015.075v.083l-.011.087-.229 1.156zM19.254 10.862l.013-.013.09-.486-.026-.005-.09.486.013-.013v.031l.011-.002.002-.011-.013.013zM18.692 10.846l.013.016h.549v-.031h-.549l.013.015h-.026l-.002.016h.015l-.013-.016zM18.727 10.601l-.02-.017-.009.035-.002.059v.079l-.004.089h.026l.004-.089.005-.079-.002-.059v-.018l-.02-.017.022.017zM17.876 10.881l.061.009.059.007.061-.002.064-.005.063-.009.061-.011.062-.017.061-.018.055-.021.056-.027.053-.026.046-.031.046-.03.039-.031.035-.035.029-.033-.022-.017-.029.033-.03.03-.04.031-.041.031-.046.026-.053.026-.052.026-.055.022-.057.018-.061.017-.061.011-.059.009-.064.004-.061.002-.059-.006-.057-.009-.004.026zM17.346 10.218l.002.049.005.048.006.052.009.051.011.048.017.05.02.05.029.046.03.046.035.042.044.041.05.035.057.035.064.029.072.022.079.019.004-.026-.079-.02-.068-.021-.059-.029-.057-.03-.046-.035-.039-.038-.035-.041-.031-.042-.024-.046-.019-.046-.018-.046-.011-.048-.009-.05-.006-.048-.004-.048.002-.049h-.031zM18.132 9.378l-.077.013-.074.02-.073.024-.07.031-.067.035-.066.044-.059.046-.057.052-.053.055-.046.061-.043.066-.033.072-.029.074-.019.079-.013.083-.007.085h.031l.002-.085.013-.079.02-.074.028-.074.033-.068.039-.062.046-.061.048-.054.057-.049.059-.046.062-.039.068-.035.065-.031.072-.024.07-.019.073-.013v-.027zM18.582 9.332h-.024l-.03.005-.031.002-.035.002-.037.004-.037.003-.04.004-.037.004-.035.005-.033.004-.03.002-.029.005-.022.002-.017.002-.009.002h-.004v.027h.004l.013-.003.013-.002.022-.002.029-.004.03-.003.033-.004.035-.004.037-.005.04-.004.037-.002.037-.005.035-.002.031-.002h.054v-.031zM18.878 9.356l.013-.011h-.009l-.02-.002-.035-.002-.041-.004h-.099l-.052-.005h-.053v.031h.105l.051.004h.089l.035.003.02.002h.009l.013-.011-.013.011.011.002.002-.013-.026-.005zM18.9 9.216h-.003l-.002.042-.006.044-.007.039-.004.015.026.005.004-.016.007-.039.006-.048.007-.042h-.027999999999999997zM18.639 9v.002l.051.002.045.013.044.02.037.026.031.031.026.037.018.039.009.046h.026l-.009-.05-.017-.048-.031-.042-.035-.035-.042-.03-.048-.02-.05-.013-.055-.007v.028999999999999998zM17.701 9.105l.021.013.022-.011.029-.015.037-.013.048-.014.053-.011.057-.01.063-.011.063-.009.068-.009.07-.007.07-.006.072-.004h.20400000000000001l.061.002v-.027l-.061-.002-.066-.004h-.068l-.07.004-.072.005-.07.006-.07.007-.068.009-.067.008-.064.011-.057.011-.052.011-.048.013-.042.013-.033.016-.026.015.022.013-.026-.004zM17.862 8.567l-.008.01-.153.528.026.004.153-.527-.009.011-.009-.026-.006.002-.002.008.008-.01zM18.836 8.466l-.074-.004-.075-.003h-.20500000000000002l-.064.005-.063.002-.061.004-.06.005-.059.008-.054.009-.055.011-.053.011-.052.015-.05.018-.049.02.009.026.048-.02.051-.017.048-.016.052-.011.055-.011.055-.008.054-.009.06-.004.061-.005.063-.002h.269l.075.002h.074v-.026zM19.587 9.208l.011-.09v-.083l-.016-.077-.024-.072-.035-.068-.044-.061-.052-.055-.055-.048-.063-.042-.066-.039-.07-.031-.068-.026-.072-.019-.068-.016-.068-.011-.061-.004v.026l.061.005.064.01.068.016.068.019.067.027.066.03.066.035.059.042.054.048.049.05.043.057.031.064.024.068.015.072v.083l-.011.085.027.005zM19.357 10.363l.23-1.155-.027-.005-.229 1.155.026.005z"/><path fill-rule="evenodd" clip-rule="evenodd" fill="#FBB231" d="M18.814 9.79l-.004-.014-.009-.01-.015-.007-.022-.007-.024-.002-.029-.002h-.032l-.033.002-.035.005-.035.004-.035.004-.033.005-.033.006-.028.005-.029.006-.022.005-.015.002-.017.006-.022.007-.024.009-.029.013-.026.013-.031.015-.028.02-.029.02-.028.024-.024.024-.024.028-.02.031-.015.033-.013.035-.007.037-.002.074.011.059.017.044.027.033.032.022.038.013.037.006.037.003.066-.003.061-.006.057-.011.05-.015.048-.018.042-.02.039-.021.035-.027.031-.024.026-.028.024-.026.02-.029.015-.026.011-.026.009-.027.006-.024.009-.061.011-.063.009-.062.004-.054z"/><path fill-rule="evenodd" clip-rule="evenodd" fill="#fff" d="M23.322 10.547l.004-.051.017-.059.031-.052.037-.046.046-.037.053-.027.057-.017.061-.007.061.007.057.017.053.027.045.037.038.046.03.052.018.059.004.051h-.065l-.003-.04-.013-.048-.022-.044-.028-.037-.035-.03-.042-.022-.048-.016-.05-.004-.05.004-.049.016-.041.022-.035.03-.029.037-.021.044-.014.048-.004.04h-.063zM23.518 10.547v-.132h.121l.026.003.024.004.018.007.015.008.011.013.009.014.004.015.002.015-.002.02-.004.015-.007.013-.004.005h-.092l.009-.003.015-.002.013-.004.011-.004.009-.007.004-.007.004-.011v-.015l-.002-.011-.004-.009-.007-.004-.006-.004-.011-.002-.011-.003h-.09v.086h-.055zM23.322 10.547l-.003.013.007.063.017.059.031.053.037.044.046.037.053.028.057.018.061.006.061-.006.057-.018.053-.028.045-.037.038-.044.03-.053.018-.059.006-.063-.002-.013h-.065l.002.013-.005.052-.013.048-.022.042-.028.037-.035.031-.042.024-.048.015-.05.005-.05-.005-.049-.015-.041-.024-.035-.031-.029-.037-.021-.042-.014-.048-.004-.052v-.013h-.063zM23.518 10.547v.133h.055v-.109h.055l.065.109h.044l-.065-.109h.015l.015-.005.013-.004.011-.009.005-.006h-.092l-.011.002h-.055v-.002h-.055z"/><path d="M23.319 10.56l.007-.063.018-.059.031-.053.037-.046.046-.037.053-.026.057-.018.061-.007.061.007.057.018.053.026.046.037.037.046.031.053.018.059.007.063-.007.063-.018.059-.031.053-.037.044-.046.037-.053.028-.057.018-.061.007-.061-.007-.057-.018-.053-.028-.046-.037-.037-.044-.031-.053-.018-.059-.007-.063m.254.12h-.055v-.265h.12l.026.002.024.004.018.007.015.009.011.013.009.013.004.015.002.015-.002.02-.004.015-.007.013-.009.011-.011.009-.013.004-.015.004h-.015l.066.109h-.044l-.066-.109h-.055v.111m.056-.131l.02-.004.015-.002.013-.004.011-.004.009-.007.004-.008.004-.011v-.015l-.002-.011-.004-.009-.007-.004-.007-.004-.011-.002-.011-.002h-.09v.088h.056m0 .264l.05-.004.048-.015.042-.024.035-.031.028-.037.022-.042.013-.048.004-.053-.004-.053-.013-.048-.022-.044-.028-.037-.035-.031-.042-.022-.048-.015-.05-.004-.05.004-.048.015-.042.022-.035.031-.028.037-.022.044-.013.048-.004.053.004.053.013.048.022.042.028.037.035.031.042.024.048.015.05.004" stroke="#fff" stroke-width=".216" stroke-miterlimit="2.613" fill="none"/><path fill-rule="evenodd" clip-rule="evenodd" fill="#fff" d="M19.508 10.846h.617l.221-1.245.009-.048.013-.048.013-.048.017-.048.022-.048.026-.046.029-.044.035-.042.039-.037.044-.035.05-.033.057-.026.064-.022.07-.017.076-.013.086-.005h.054l.099-.562-.061.004-.059.007-.055.011-.053.015-.048.018-.046.022-.044.024-.041.026-.039.031-.038.03-.035.035-.035.035-.033.037-.032.042-.033.039-.031.044.066-.396h-.615l-.409 2.343z"/><path stroke="#fff" stroke-width=".216" stroke-miterlimit="2.613" fill="none" d="M19.508 10.846h.617l.221-1.245.009-.048.013-.048.013-.048.017-.048.022-.048.026-.046.029-.044.035-.042.039-.037.044-.035.05-.033.057-.026.064-.022.07-.017.076-.013.086-.005h.054l.099-.562-.061.004-.059.007-.055.011-.053.015-.048.018-.046.022-.044.024-.041.026-.039.031-.038.03-.035.035-.035.035-.033.037-.032.042-.033.039-.031.044.066-.396h-.615l-.409 2.343"/><path fill-rule="evenodd" clip-rule="evenodd" fill="#fff" d="M13.714 10.846h.628l.21-1.245.009-.048.011-.046.011-.046.015-.043.017-.044.022-.042.027-.039.03-.037.035-.033.04-.033.048-.026.052-.024.062-.02.067-.017.075-.011.085-.007h.007l.008.002.011.002h.011l.011.003.009.002.007.002h.002l.002-.009.006-.026.009-.039.011-.049.016-.056.015-.062.02-.061.019-.061.018-.042.022-.041.021-.042.022-.037.02-.033.015-.026.011-.015.005-.007h-.003l-.008-.002-.011-.002-.016-.003h-.015l-.017-.002-.016-.002h-.015l-.068.004-.061.007-.057.011-.052.013-.051.018-.046.021-.041.022-.04.027-.037.028-.035.033-.033.033-.033.037-.032.037-.031.042-.033.043-.033.044.079-.396h-.628l-.409 2.343z"/><path stroke="#fff" stroke-width=".216" stroke-miterlimit="2.613" fill="none" d="M13.714 10.846h.628l.21-1.245.009-.048.011-.046.011-.046.015-.043.017-.044.022-.042.027-.039.03-.037.035-.033.04-.033.048-.026.052-.024.062-.02.067-.017.075-.011.085-.007h.007l.008.002.011.002h.011l.011.003.009.002.007.002h.002l.002-.009.006-.026.009-.039.011-.049.016-.056.015-.062.02-.061.019-.061.018-.042.022-.041.021-.042.022-.037.02-.033.015-.026.011-.015.005-.007h-.003l-.008-.002-.011-.002-.016-.003h-.015l-.017-.002-.016-.002h-.015l-.068.004-.061.007-.057.011-.052.013-.051.018-.046.021-.041.022-.04.027-.037.028-.035.033-.033.033-.033.037-.032.037-.031.042-.033.043-.033.044.079-.396h-.628l-.409 2.343"/><path fill-rule="evenodd" clip-rule="evenodd" fill="#FBB231" d="M12.528 12.916h3.676v-.352h-3.897l.221.352zM13.167 13.7h3.037v-.355h-3.346l.309.355z"/><path d="M19.385 29.644c-.568 0-1.03-.462-1.03-1.03v-15.702c0-.568.462-1.03 1.03-1.03h24.229c.568 0 1.03.462 1.03 1.03v15.703c0 .568-.462 1.03-1.03 1.03h-24.229z" fill="#F3F4F4"/><path d="M43.614 12.237c.372 0 .675.303.675.675v15.703c0 .372-.303.675-.675.675h-24.228c-.372 0-.675-.303-.675-.675v-15.703c0-.372.303-.675.675-.675h24.228m0-.711h-24.228c-.765 0-1.386.62-1.386 1.386v15.703c0 .765.62 1.385 1.386 1.385h24.229c.765 0 1.385-.62 1.385-1.386v-15.702c0-.765-.62-1.386-1.386-1.386z" fill="#DADAD9"/><g fill-rule="evenodd" clip-rule="evenodd"><path d="M21.232 13.342h20.536c.788 0 1.043.255 1.043 1.043v2.616h-22.622v-2.616c0-.788.255-1.043 1.043-1.043z" fill="#263D84"/><path fill="#fff" d="M20.189 16.609h22.622v8.309h-22.622z"/><path d="M27.701 18.015l-1.396 3.763-.149-.765v-.001l-.498-2.534c-.086-.35-.336-.453-.646-.466h-2.299l-.013.096c.553.141 1.048.347 1.483.602l1.275 4.818h1.508l2.243-5.513h-1.508zM28.896 23.53l.891-5.52h1.426l-.892 5.52zM35.491 18.147c-.281-.112-.726-.233-1.276-.233-1.41 0-2.402.749-2.41 1.82-.009.796.708 1.237 1.248 1.502.556.27.742.443.74.685-.006.368-.445.537-.854.537-.57 0-.873-.082-1.34-.29l-.186-.087-.199 1.235c.333.156.948.288 1.589.296 1.496 0 2.469-.741 2.481-1.887.007-.629-.374-1.106-1.198-1.5-.496-.255-.805-.425-.799-.684.001-.229.258-.474.818-.474.466-.01.801.098 1.066.211l.127.064.193-1.195zM37.388 21.573l.568-1.543.189-.527.095.477.331 1.592-1.183.001zm1.757-3.557h-1.101c-.341 0-.596.099-.748.458l-2.116 5.058h1.498l.299-.829 1.824.003.175.827h1.324l-1.155-5.517z" fill="#263D84"/><path d="M42.811 24.918h-22.622v2.224c0 .788.255 1.042 1.042 1.042h20.537c.788 0 1.042-.254 1.042-1.042v-2.224z" fill="#E1A225"/></g></svg>