<svg xmlns="http://www.w3.org/2000/svg" width="45" height="30" viewBox="0 0 45 30"><path d="M1.386 17.974c-.488 0-.886-.397-.886-.886v-15.702c0-.489.397-.886.886-.886h24.229c.488 0 .886.397.886.886v15.702c0 .488-.397.886-.886.886h-24.229z" fill="#F3F4F4"/><path d="M25.614 1c.213 0 .386.173.386.386v15.703c0 .213-.173.386-.386.386h-24.228c-.213-.001-.386-.174-.386-.387v-15.702c0-.213.173-.386.386-.386h24.228m0-1h-24.228c-.766 0-1.386.62-1.386 1.386v15.703c0 .765.62 1.386 1.386 1.386h24.229c.765 0 1.386-.62 1.386-1.386v-15.703c-.001-.766-.621-1.386-1.387-1.386z" fill="#DADAD9"/><g fill-rule="evenodd" clip-rule="evenodd"><path d="M8.816 1.847l9.391.006c1.474 0 2.689 1.215 2.683 2.694v9.391c0 1.48-1.215 2.689-2.694 2.689l-9.396-.006c-1.48-.006-2.689-1.215-2.689-2.694l.011-9.391c0-1.48 1.209-2.694 2.694-2.689z" fill="#2E3191"/><path d="M18.808 8.588h-1.071l-.442.839h.751l.762-.839zm.712 1.364h-1.043v2.252c0 .69-.464.889-.806.889-.326 0-.685-.121-.679-.723v-2.418h-1.043l-.006 2.567c0 .994.569 1.435 1.353 1.435.547.006.972-.232 1.209-.651h.011v.547h1.005v-3.898h-.001zM15.131 10.984c0-.966-1.016-1.137-1.579-1.137-.812 0-1.656.171-1.783 1.364h1.01c.033-.226.127-.541.646-.541.271 0 .69.022.69.453 0 .221-.204.287-.37.309l-.939.138c-.668.094-1.165.486-1.165 1.248 0 .806.618 1.137 1.209 1.137.718 0 1.054-.326 1.286-.563.022.215.039.271.099.458l.9-.006-.006-.751v-2.109h.002zM10.682 8.588h-1.044v1.358h-.541v.734h.535v2.368c0 .502.16.845 1.066.845h.138l.491-.017v-.778l-.215.017c-.425 0-.436-.088-.436-.32l.006-2.114h.651v-.735h-.651v-1.358zM8.617 8.583h-1.126l-.006 5.261h1.126l.006-5.261z" fill="#FFF100"/><path d="M14.116 12.453v-.503c-.105.083-.282.149-.712.21-.392.066-.712.166-.712.591 0 .353.287.469.486.469.463 0 .938-.293.938-.767z" fill="#2E3191"/></g><path d="M19.386 29.5c-.488 0-.886-.397-.886-.886v-15.702c0-.488.397-.886.886-.886h24.229c.488 0 .886.397.886.886v15.702c0 .488-.397.886-.886.886h-24.229z" fill="#F3F4F4"/><path d="M43.614 12.526c.213 0 .386.173.386.386v15.703c0 .212-.173.385-.386.385h-24.228c-.213 0-.386-.173-.386-.386v-15.702c0-.213.173-.386.386-.386h24.228m0-1h-24.228c-.765 0-1.386.62-1.386 1.386v15.703c0 .765.62 1.385 1.386 1.385h24.229c.765 0 1.385-.62 1.385-1.386v-15.702c0-.765-.62-1.386-1.386-1.386z" fill="#DADAD9"/><path d="M38.11 27.529c.03.077.104.284.264.502l-.187.083s-.259.109-.598.109c-.7 0-1.233-.473-1.233-1.287 0-.819.533-1.292 1.233-1.292.196 0 .371.039.525.109v-.001l.225.131c-.115.153-.207.338-.262.533-.115-.079-.238-.123-.415-.123-.317 0-.551.231-.551.657 0 .391.28.632.596.635.164.001.283-.049.349-.084l.034-.015.02.043m-16.037.638h1.263c.509 0 1.107-.166 1.107-.956 0-.402-.196-.639-.574-.729v-.009c.318-.123.5-.355.5-.771 0-.568-.394-.837-.924-.837h-1.373v3.302zm.757-1.401h.299c.261 0 .558.033.558.392 0 .336-.289.384-.566.384h-.29v-.776zm0-1.277h.287c.252 0 .496.028.496.331 0 .279-.257.35-.505.35h-.278v-.681zm8.567-.634h-.736v1.163h-.008c-.188-.284-.436-.374-.728-.374-.586 0-.908.639-.908 1.245 0 .728.337 1.334.968 1.334.312 0 .586-.154.729-.428h.008v.37h.675v-3.31zm-1.18 2.715c-.277 0-.443-.27-.443-.663 0-.326.159-.61.443-.61.268 0 .448.269.448.642 0 .362-.203.631-.448.631m8.243-.633c0 .814.533 1.287 1.233 1.287.7 0 1.233-.474 1.233-1.287 0-.819-.533-1.292-1.233-1.292-.7-.001-1.233.473-1.233 1.292m1.71 0c0 .364-.139.691-.476.691-.338 0-.476-.327-.476-.691 0-.37.138-.695.476-.695.337-.001.476.325.476.695m-12.209 1.23v-.326c-.135.251-.374.383-.651.383-.419 0-.794-.242-.794-.776 0-.752.704-.843 1.095-.843.118 0 .248.015.342.034-.004-.336-.22-.426-.484-.426-.236 0-.473.052-.676.185v-.583c.257-.119.526-.17.834-.17.541 0 1.01.27 1.01 1.022v.918c0 .194.008.387.04.581h-.716zm-.004-1.11l-.314-.014c-.248 0-.444.09-.444.326 0 .17.13.27.301.27.199 0 .36-.087.456-.256v-.326zm-1.798-1.413c-.318 0-.501.199-.627.511h-.008v-.454h-.667v2.465h.733v-1.041c0-.482.189-.772.53-.797.071-.005.188.015.251.04v-.686l-.212-.038m7.822 1.539h-1.464c.041.34.264.473.623.473.2 0 .427-.052.647-.189v.601c-.236.108-.505.156-.778.156-.699 0-1.233-.478-1.233-1.292 0-.813.476-1.287 1.136-1.287.785 0 1.069.649 1.069 1.382v.156zm-.659-.483c0-.284-.114-.516-.407-.516-.264 0-.39.232-.407.516h.814zm1.891-1.056c-.422 0-.903.232-.903.801 0 .889 1.042.596 1.042 1.013 0 .17-.147.198-.297.198-.264 0-.517-.085-.688-.17v.587c.193.079.419.151.728.151.481 0 .989-.165.989-.823 0-.937-1.091-.634-1.091-1.017 0-.138.18-.174.338-.171.169.004.43.075.585.184v-.605c-.224-.097-.467-.148-.703-.148" fill="#55565A"/><path fill="#CF0A2C" d="M26.546 13.303h9.908v9.908h-9.908z"/><path fill="#fff" d="M30.565 19.319h.488v2.5h-.488zM31.497 18.387h.799v3.431h-.799zM30.128 15.998s.806-.787 2.163-.528c0 0 .597.093 1.056.5 0 0 .068.064.12.011 0 0 .067-.052-.007-.13 0 0-.394-.546-1.171-.787 0 0-1.068-.382-2.164.134 0 0-.675.28-1.05 1.042 0 0-.534.172-.934.397 0 0-.118.047-.074.139 0 0 .038.066.142.017 0 0 .372-.128.73-.208 0 0-.288.747.013 1.674.134.413.378.833.752 1.171 0 0 .061.064.127.02 0 0 .058-.042.017-.11 0 0-.298-.448-.413-1.085-.096-.52-.051-1.237.31-1.806 0 0 1.374-.192 2.545.249 0 0 1.989.649 1.488 1.853 0 0-.145.418-.694.796 0 0-.092.054-.042.13 0 0 .042.06.136.022 0 0 .841-.273 1.204-.949 0 0 .736-1.126-1-2.045 0 0-.477-.255-1.091-.391-.003-.002-1.108-.275-2.163-.116"/></svg>