<svg xmlns="http://www.w3.org/2000/svg" width="45" height="25" viewBox="0 0 45 25"><path d="M2.309 24.5c-.998 0-1.809-.812-1.809-1.809v-20.382c0-.997.812-1.809 1.809-1.809h40.381c.998 0 1.81.812 1.81 1.809v20.382c0 .997-.812 1.809-1.81 1.809h-40.381z" fill="#fff"/><path d="M42.691 1c.722 0 1.309.587 1.309 1.309v20.382c0 .722-.587 1.309-1.309 1.309h-40.382c-.722 0-1.309-.587-1.309-1.309v-20.382c0-.722.587-1.309 1.309-1.309h40.382m0-1h-40.382c-1.275 0-2.309 1.034-2.309 2.309v20.382c0 1.276 1.034 2.309 2.309 2.309h40.382c1.275 0 2.309-1.033 2.309-2.309v-20.382c0-1.275-1.034-2.309-2.309-2.309z" fill="#DADBD9"/><path d="M37.072 11.946c0-5.251-6.524-9.531-14.572-9.531-8.048 0-14.571 4.28-14.571 9.531l-.002.558c0 5.57 5.702 10.082 14.571 10.082 8.924 0 14.574-4.51 14.574-10.081v-.559z" fill="#060E9F"/><ellipse cx="22.503" cy="11.941" rx="14.011" ry="8.963" fill="#29ABE2"/><g fill="#fff"><path d="M17.851 9.113c-.007.014-.147.159-.057.275.221.282.904.444 1.595.29.411-.092.938-.512 1.449-.917.553-.44 1.102-.88 1.654-1.055.584-.186.959-.106 1.206-.031.271.081.59.26 1.099.641.959.721 4.814 4.086 5.48 4.667.536-.242 2.921-1.269 6.16-1.983-.281-1.727-1.332-3.307-2.925-4.601-2.221.933-4.935 1.419-7.589.123-.014-.006-1.45-.685-2.867-.652-2.106.049-3.018.96-3.983 1.925l-1.222 1.318zM30.121 13.349c-.045-.04-4.533-3.967-5.549-4.731-.588-.441-.916-.554-1.259-.598-.179-.023-.426.01-.599.057-.473.129-1.091.542-1.64.977-.568.453-1.105.879-1.602.991-.635.142-1.411-.026-1.765-.265-.143-.096-.244-.208-.293-.321-.131-.303.11-.546.15-.586l1.238-1.339.437-.429c-.4.052-.769.154-1.128.254-.449.126-.88.246-1.317.246-.182 0-1.159-.16-1.344-.211-1.121-.307-2.104-.605-3.573-1.291-1.761 1.311-2.938 2.949-3.278 4.754l.832.226c3.984.886 5.225 1.798 5.45 1.989.244-.271.595-.443.988-.443.441.001.838.222 1.08.564.228-.18.543-.334.95-.334.185 0 .376.034.57.1.45.154.681.453.802.724.151-.068.336-.118.555-.118.214 0 .438.049.663.146.734.315.849 1.037.782 1.581l.158-.009c.871.001 1.579.708 1.579 1.58 0 .27-.069.523-.189.746.237.133.841.435 1.371.367.424-.053.585-.198.642-.28.039-.056.081-.122.042-.169l-1.124-1.249s-.185-.175-.124-.243c.064-.069.178.03.259.098.572.478 1.271 1.199 1.271 1.199.012.008.058.099.316.146.222.04.616.017.888-.207l.195-.2-.013.01c.287-.368-.032-.74-.032-.74l-1.312-1.474s-.188-.173-.124-.243c.057-.06.178.031.26.099.416.347 1.003.937 1.565 1.488.11.08.605.386 1.259-.044.397-.261.477-.581.466-.822-.028-.32-.277-.548-.277-.548l-1.793-1.802s-.189-.162-.122-.244c.055-.069.178.03.258.098.571.478 2.117 1.895 2.117 1.895.022.016.556.396 1.216-.024.236-.151.387-.378.4-.642.021-.456-.302-.729-.302-.729zM21.425 15.634c-.278-.003-.582.162-.622.138-.022-.015.017-.126.043-.191.027-.064.393-1.165-.5-1.548-.683-.294-1.1.037-1.244.186l-.059-.014c-.014-.198-.103-.735-.692-.915-.842-.258-1.384.33-1.521.542-.062-.48-.467-.853-.965-.853-.54-.001-.978.437-.979.977 0 .54.438.978.978.978.263.001.501-.104.676-.273l.005.033c-.041.242-.117 1.121.803 1.478.369.143.683.037.943-.146.078-.055.09-.032.079.041-.033.226.009.71.687.985.516.21.822-.005 1.022-.19.087-.08.111-.067.115.056.025.654.568 1.173 1.228 1.174.68.001 1.231-.549 1.231-1.228.002-.679-.548-1.222-1.228-1.23z"/></g><path d="M30.294 12.879c-1.382-1.206-4.577-3.984-5.442-4.633-.494-.372-.831-.568-1.127-.656-.133-.04-.317-.086-.554-.086-.22 0-.456.04-.703.118-.559.177-1.116.62-1.655 1.048l-.028.022c-.502.399-1.021.812-1.413.9-.172.038-.348.058-.524.058-.44-.001-.835-.128-.983-.316-.024-.031-.009-.082.048-.155l.008-.01 1.216-1.311c.952-.952 1.852-1.852 3.923-1.899l.103-.002c1.289.001 2.578.578 2.722.645 1.209.59 2.456.889 3.71.89 1.307 0 2.656-.323 4.073-.976-.158-.133-.323-.263-.493-.39-1.246.54-2.432.813-3.577.812-1.169-.001-2.338-.282-3.472-.835-.06-.028-1.483-.699-2.963-.7l-.117.001c-1.739.041-2.719.658-3.378 1.2-.641.016-1.194.17-1.686.307-.439.122-.818.228-1.188.228l-.451-.015c-.425-.013-2.567-.538-4.271-1.183-.174.123-.341.25-.504.38 1.78.73 3.946 1.294 4.63 1.338.19.013.393.034.596.034.452 0 .904-.127 1.34-.249.258-.073.543-.151.842-.209l-.24.238-1.236 1.337c-.097.098-.308.36-.169.683.055.13.168.255.325.361.294.198.822.332 1.311.333.186 0 .361-.018.523-.055.518-.116 1.061-.549 1.637-1.007.459-.364 1.11-.827 1.609-.963.139-.038.311-.062.448-.062l.116.007c.33.042.648.154 1.217.581 1.014.762 5.502 4.688 5.546 4.727.003.002.289.249.269.66-.011.229-.138.432-.359.573-.191.122-.389.183-.589.183-.3-.001-.507-.141-.52-.151-.017-.014-1.554-1.423-2.12-1.897-.09-.075-.178-.142-.266-.142l-.117.055c-.089.11.011.262.128.362l1.796 1.805c.002.002.224.21.248.486.014.299-.129.55-.426.745-.212.14-.427.211-.637.211-.276 0-.469-.126-.512-.155l-.258-.254c-.471-.463-.957-.942-1.313-1.239-.087-.072-.18-.139-.268-.139l-.113.048c-.041.045-.069.126.032.261l.091.101 1.311 1.472c.011.013.27.321.03.628l-.046.059-.122.117c-.224.183-.522.203-.641.203l-.177-.015c-.129-.023-.216-.059-.258-.109l-.016-.017c-.072-.074-.732-.748-1.279-1.205-.072-.06-.162-.137-.255-.137l-.118.053c-.108.118.054.296.123.361l1.118 1.233-.042.075c-.04.055-.176.191-.581.242l-.148.009c-.418 0-.864-.203-1.094-.325.105-.221.159-.464.159-.708 0-.92-.747-1.669-1.667-1.669l-.06.001c.03-.42-.029-1.216-.846-1.566-.235-.102-.469-.154-.697-.154-.178 0-.35.031-.511.092-.169-.329-.45-.568-.817-.693-.202-.07-.404-.106-.599-.106-.34 0-.653.1-.932.299-.268-.333-.672-.53-1.097-.53-.372 0-.73.149-.996.412-.348-.266-1.728-1.143-5.423-1.981-.179-.04-.59-.158-.841-.232-.042.2-.074.402-.095.606l.815.193c3.774.838 5.021 1.71 5.232 1.875-.071.171-.108.357-.109.543 0 .78.634 1.415 1.414 1.415l.259-.023c.117.574.493 1.009 1.067 1.232.168.064.337.098.504.098.108 0 .216-.013.322-.04.106.269.344.605.877.821.187.075.374.115.556.115.148 0 .294-.026.432-.077.255.622.863 1.034 1.541 1.034.449.001.88-.182 1.195-.506.269.15.838.42 1.412.421l.214-.014c.57-.072.836-.295.958-.469l.059-.096c.135.039.283.07.452.071.312 0 .61-.106.913-.326.297-.214.508-.521.538-.783l.002-.011.305.031c.321 0 .636-.1.937-.297.581-.381.682-.879.673-1.205l.309.032c.301 0 .597-.091.878-.27.36-.23.577-.583.61-.993.023-.279-.047-.56-.194-.802.974-.42 3.2-1.232 5.822-1.823-.016-.203-.045-.404-.081-.604-3.17.706-5.537 1.731-6.13 1.994zm-8.869 5.127c-.616-.001-1.117-.479-1.139-1.089-.002-.052-.007-.191-.125-.191l-.139.073c-.135.125-.308.253-.56.253-.114 0-.238-.027-.369-.08-.65-.263-.659-.71-.633-.89l-.023-.137-.04-.036h-.041l-.113.046c-.188.132-.369.196-.552.196-.101 0-.205-.02-.308-.06-.856-.333-.789-1.142-.747-1.385l-.037-.113-.06-.05-.057.054c-.167.161-.385.249-.615.249-.491-.001-.89-.399-.889-.89 0-.491.4-.889.891-.888.443 0 .821.333.877.776l.031.239.131-.202c.015-.024.374-.567 1.035-.566.126 0 .255.02.386.061.527.161.616.638.63.837.009.116.092.122.108.122l.103-.054c.099-.104.316-.276.655-.276.155.001.32.037.49.11.837.359.457 1.423.453 1.434-.072.176-.075.254-.007.299l.033.016h.024l.162-.043c.114-.039.286-.099.447-.098.63.007 1.143.52 1.142 1.143-.001.628-.514 1.14-1.144 1.14z" fill="#060E9F"/></svg>