<svg xmlns="http://www.w3.org/2000/svg" width="45" height="30" viewBox="0 0 45 30"><path d="M2.309 29.5c-.998 0-1.809-.812-1.809-1.81v-25.381c0-.997.812-1.809 1.809-1.809h40.381c.998 0 1.81.812 1.81 1.809v25.381c0 .998-.812 1.81-1.81 1.81h-40.381z" fill="#F3F4F4"/><path d="M42.691 1c.722 0 1.309.587 1.309 1.309v25.382c0 .722-.587 1.309-1.309 1.309h-40.382c-.722 0-1.309-.587-1.309-1.309v-25.382c0-.722.587-1.309 1.309-1.309h40.382m0-1h-40.382c-1.275 0-2.309 1.034-2.309 2.309v25.382c0 1.275 1.034 2.309 2.309 2.309h40.382c1.275 0 2.309-1.034 2.309-2.309v-25.382c0-1.275-1.034-2.309-2.309-2.309z" fill="#DADAD9"/><g fill="#231F20"><path d="M4.108 8.512h1.805c1.633 0 2.7.97 2.7 2.64s-1.067 2.655-2.7 2.655h-1.805v-5.295zm1.753 4.468c1.074 0 1.76-.634 1.76-1.828 0-1.179-.701-1.813-1.76-1.813h-.791v3.64h.791zM9.624 8.512h3.17v.828h-2.208v1.387h1.783v.828h-1.783v1.425h2.327v.828h-3.289v-5.296zM13.915 8.512h2.044c.992 0 1.686.694 1.686 1.723 0 1.029-.694 1.745-1.686 1.745h-1.082v1.828h-.962v-5.296zm1.864 2.633c.559 0 .888-.358.888-.91 0-.544-.328-.895-.873-.895h-.917v1.805h.902zM20.869 8.422c1.559 0 2.737 1.186 2.737 2.7 0 1.559-1.179 2.775-2.737 2.775-1.559 0-2.738-1.216-2.738-2.775 0-1.514 1.179-2.7 2.738-2.7zm0 4.595c.97 0 1.745-.805 1.745-1.894 0-1.044-.776-1.82-1.745-1.82-.97 0-1.746.776-1.746 1.82.001 1.089.776 1.894 1.746 1.894zm.156-5.87h.977l-.782 1.014h-.761l.566-1.014zM24.706 12.45s.574.559 1.32.559c.403 0 .768-.209.768-.642 0-.947-2.499-.783-2.499-2.409 0-.88.761-1.537 1.775-1.537 1.044 0 1.581.567 1.581.567l-.418.783s-.507-.462-1.171-.462c-.448 0-.798.261-.798.634 0 .94 2.491.708 2.491 2.402 0 .843-.642 1.551-1.746 1.551-1.179 0-1.828-.724-1.828-.724l.525-.722zM28.722 8.512h.962v5.296h-.962v-5.296zM32.124 9.34h-1.738v-.828h4.438v.828h-1.738v4.468h-.962v-4.468zM37.855 8.422c1.559 0 2.738 1.186 2.738 2.7 0 1.559-1.179 2.775-2.738 2.775s-2.737-1.216-2.737-2.775c0-1.514 1.178-2.7 2.737-2.7zm0 4.595c.97 0 1.746-.805 1.746-1.894 0-1.044-.776-1.82-1.746-1.82s-1.745.776-1.745 1.82c0 1.089.775 1.894 1.745 1.894zM3.5 17.468h3.17v.828h-2.208v1.387h1.783v.828h-1.783v1.425h2.327v.828h-3.289v-5.296zM8.06 17.468h1.029l1.037 2.618c.119.313.268.776.268.776h.015s.142-.462.261-.776l1.037-2.618h1.029l.425 5.296h-.955l-.224-2.961c-.022-.351-.008-.821-.008-.821h-.015s-.157.515-.283.821l-.858 2.051h-.841l-.85-2.051c-.127-.306-.292-.829-.292-.829h-.015s.015.477-.007.828l-.224 2.961h-.962l.433-5.295zM18.514 17.378c1.291 0 1.954.723 1.954.723l-.462.716s-.604-.559-1.447-.559c-1.119 0-1.775.835-1.775 1.82 0 1.007.679 1.895 1.783 1.895.918 0 1.537-.671 1.537-.671l.507.694s-.731.858-2.081.858c-1.619 0-2.738-1.201-2.738-2.76 0-1.537 1.164-2.716 2.722-2.716zM23.843 17.378c1.559 0 2.738 1.186 2.738 2.7 0 1.559-1.179 2.775-2.738 2.775s-2.737-1.216-2.737-2.775c-.001-1.514 1.178-2.7 2.737-2.7zm0 4.595c.97 0 1.746-.805 1.746-1.895 0-1.044-.776-1.82-1.746-1.82s-1.745.776-1.745 1.82c-.001 1.089.775 1.895 1.745 1.895zM27.561 17.468h.962l2.007 3.058c.201.306.44.821.44.821h.015s-.052-.507-.052-.821v-3.058h.955v5.296h-.955l-2.006-3.051c-.202-.306-.44-.821-.44-.821h-.015s.052.507.052.821v3.051h-.962v-5.296zM34.329 18.296h-1.738v-.828h4.438v.828h-1.738v4.468h-.962v-4.468zM40.06 21.406h-1.857l-.448 1.357h-.992l1.865-5.296h1.007l1.865 5.296h-.992l-.448-1.357zm-.932-3.021s-.119.522-.224.821l-.47 1.417h1.387l-.47-1.417c-.097-.299-.209-.821-.209-.821h-.014z"/></g></svg>