<svg xmlns="http://www.w3.org/2000/svg" width="45" height="30" viewBox="0 0 45 30"><path d="M2.309 29.5c-.998 0-1.809-.812-1.809-1.81v-25.381c0-.997.812-1.809 1.809-1.809h40.381c.998 0 1.81.812 1.81 1.809v25.381c0 .998-.812 1.81-1.81 1.81h-40.381z" fill="#F3F4F4"/><path d="M42.691 1c.722 0 1.309.587 1.309 1.309v25.382c0 .722-.587 1.309-1.309 1.309h-40.382c-.722 0-1.309-.587-1.309-1.309v-25.382c0-.722.587-1.309 1.309-1.309h40.382m0-1h-40.382c-1.275 0-2.309 1.034-2.309 2.309v25.382c0 1.275 1.034 2.309 2.309 2.309h40.382c1.275 0 2.309-1.034 2.309-2.309v-25.382c0-1.275-1.034-2.309-2.309-2.309z" fill="#DADAD9"/><path d="M9.174 3.844h3.553v12.979h-3.553v-12.979zm4.739 0h1.187v12.979h-1.186v-12.979zm2.367 0h3.553v12.979h-3.553v-12.979zm4.739 0h1.186v12.979h-1.186v-12.979zm2.366 0h1.186v12.979h-1.186v-12.979zm2.373 0h1.776v12.979h-1.776v-12.979zm3.005 13.008l4.69.018v-13.026h-4.739l.049 13.008zm5.876-13.008h1.186v13.026h-1.186v-13.026zm2.366 0h2.366v13.026h-2.366v-13.026zm3.553 0h1.186v13.026h-1.186v-13.026zm-37.302 0h2.366v12.979h-2.366v-12.979zm3.552 0h1.186v12.979h-1.186v-12.979z" fill="#282827"/><g fill="#231F20"><path d="M3.634 19.88h2.486c1.253 0 2.143.646 2.143 1.791 0 .646-.313 1.204-.841 1.487v.02c.763.225 1.126.93 1.126 1.634 0 1.39-1.116 2.016-2.398 2.016h-2.516v-6.948zm2.486 2.838c.548 0 .861-.392.861-.89 0-.499-.293-.861-.88-.861h-1.204v1.752h1.223zm.127 3.024c.646 0 1.008-.421 1.008-1.008 0-.578-.371-.998-1.008-.998h-1.35v2.006h1.35zM13.033 19.762c2.045 0 3.591 1.556 3.591 3.543 0 2.045-1.546 3.64-3.591 3.64s-3.591-1.595-3.591-3.64c-.001-1.987 1.545-3.543 3.591-3.543zm0 6.028c1.272 0 2.29-1.057 2.29-2.485 0-1.37-1.018-2.388-2.29-2.388-1.273 0-2.29 1.018-2.29 2.388 0 1.429 1.017 2.485 2.29 2.485zM17.91 19.88h1.263v5.862h3.004v1.086h-4.267v-6.948zM23.187 19.88h4.159v1.086h-2.896v1.82h2.339v1.086h-2.339v1.869h3.053v1.086h-4.316v-6.947zM30.256 20.966h-2.28v-1.086h5.822v1.086h-2.28v5.862h-1.262v-5.862zM37.774 19.762c2.045 0 3.591 1.556 3.591 3.543 0 2.045-1.546 3.64-3.591 3.64s-3.591-1.595-3.591-3.64c0-1.987 1.546-3.543 3.591-3.543zm0 6.028c1.272 0 2.29-1.057 2.29-2.485 0-1.37-1.018-2.388-2.29-2.388-1.273 0-2.29 1.018-2.29 2.388 0 1.429 1.018 2.485 2.29 2.485z"/></g></svg>