<svg xmlns="http://www.w3.org/2000/svg" width="45" height="30" viewBox="0 0 45 30"><path d="M2.309 29.5c-.998 0-1.809-.812-1.809-1.81v-25.381c0-.997.812-1.809 1.809-1.809h40.381c.998 0 1.81.812 1.81 1.809v25.381c0 .998-.812 1.81-1.81 1.81h-40.381z" fill="#F3F4F4"/><path d="M42.691 1c.722 0 1.309.587 1.309 1.309v25.382c0 .722-.587 1.309-1.309 1.309h-40.382c-.722 0-1.309-.587-1.309-1.309v-25.382c0-.722.587-1.309 1.309-1.309h40.382m0-1h-40.382c-1.275 0-2.309 1.034-2.309 2.309v25.382c0 1.275 1.034 2.309 2.309 2.309h40.382c1.275 0 2.309-1.034 2.309-2.309v-25.382c0-1.275-1.034-2.309-2.309-2.309z" fill="#DADAD9"/><path d="M29.142 9.937h-2.956c-.202 0-.374.147-.406.347l-1.195 7.579c-.024.149.092.285.243.285h1.517c.141 0 .262-.103.284-.242l.339-2.149c.031-.2.204-.347.405-.347h.935c1.947 0 3.071-.942 3.364-2.81.132-.816.005-1.458-.377-1.907-.419-.495-1.164-.756-2.153-.756m.341 2.768c-.162 1.061-.972 1.061-1.756 1.061h-.446l.313-1.981c.019-.12.122-.208.243-.208h.205c.534 0 1.037 0 1.297.304.156.182.203.452.144.824" fill="#009CDE"/><path d="M8.06 9.937h-2.956c-.202 0-.374.147-.406.347l-1.195 7.579c-.024.149.092.285.243.285h1.412c.202 0 .374-.147.405-.346l.323-2.045c.031-.2.204-.347.405-.347h.935c1.947 0 3.071-.942 3.364-2.81.132-.816.005-1.458-.377-1.907-.419-.495-1.164-.756-2.153-.756m.341 2.768c-.162 1.061-.972 1.061-1.756 1.061h-.446l.313-1.981c.019-.12.122-.208.243-.208h.205c.534 0 1.037 0 1.297.304.156.182.203.452.144.824M16.895 12.671h-1.415c-.121 0-.224.088-.244.208l-.062.396-.099-.143c-.307-.445-.99-.594-1.672-.594-1.564 0-2.899 1.185-3.159 2.847-.135.829.057 1.622.527 2.175.432.508 1.048.72 1.782.72 1.261 0 1.96-.809 1.96-.809l-.063.393c-.024.149.092.285.244.285h1.274c.202 0 .374-.147.406-.346l.765-4.845c.023-.151-.093-.287-.244-.287m-1.973 2.755c-.137.809-.779 1.352-1.598 1.352-.41 0-.739-.132-.95-.382-.209-.248-.288-.601-.222-.994.127-.802.78-1.362 1.586-1.362.402 0 .728.133.944.386.217.254.302.609.24 1" fill="#003087"/><path d="M37.977 12.671h-1.415c-.121 0-.224.088-.244.208l-.062.396-.099-.143c-.306-.445-.99-.594-1.672-.594-1.564 0-2.899 1.185-3.159 2.847-.135.829.057 1.622.527 2.175.432.508 1.048.72 1.782.72 1.261 0 1.96-.809 1.96-.809l-.063.393c-.024.149.092.285.244.285h1.274c.202 0 .374-.147.406-.346l.765-4.845c.023-.151-.093-.287-.244-.287m-1.973 2.755c-.137.809-.779 1.352-1.598 1.352-.41 0-.739-.132-.95-.382-.21-.248-.288-.601-.222-.994.127-.802.78-1.362 1.586-1.362.402 0 .728.133.944.386.217.254.302.609.24 1" fill="#009CDE"/><path d="M24.433 12.671h-1.423c-.136 0-.263.067-.34.18l-1.963 2.89-.832-2.777c-.052-.174-.212-.293-.394-.293h-1.398c-.169 0-.288.166-.233.326l1.566 4.598-1.473 2.079c-.115.163.001.389.201.389h1.421c.135 0 .261-.066.338-.176l4.731-6.828c.114-.164-.002-.388-.201-.388" fill="#003087"/><path d="M39.645 10.145l-1.213 7.718c-.024.149.092.285.243.285h1.22c.202 0 .374-.147.405-.347l1.196-7.579c.024-.149-.092-.285-.244-.285h-1.365c-.12 0-.224.088-.242.208" fill="#009CDE"/></svg>