<?xml version="1.0" encoding="utf-8"?>
<!-- Generator: Adobe Illustrator 18.0.0, SVG Export Plug-In . SVG Version: 6.00 Build 0)  -->
<!DOCTYPE svg PUBLIC "-//W3C//DTD SVG 1.1//EN" "http://www.w3.org/Graphics/SVG/1.1/DTD/svg11.dtd">
<svg version="1.1" id="Layer_1" xmlns="http://www.w3.org/2000/svg" xmlns:xlink="http://www.w3.org/1999/xlink" x="0px" y="0px"
	 width="64px" height="64px" viewBox="0 0 64 64" style="enable-background:new 0 0 64 64;" xml:space="preserve">
<g>
	<rect style="fill:#BADEDE;" width="64" height="64"/>
	<g>
		<g>
			<rect x="13.0692" y="25.4806" style="fill:#FFFFFF;" width="37.8615" height="23.7546"/>
			<path style="fill:#75BFBE;" d="M50.3033,26.1079v22.4999H13.6968V26.1079H50.3033 M51.5582,24.853H12.4418v25.0097h39.1163
				V24.853L51.5582,24.853z"/>
		</g>
		<g>
			<rect x="17.7751" y="25.4806" style="fill:#FFFFFF;" width="14.2886" height="16.4164"/>
			<path style="fill:#75BFBE;" d="M31.4362,26.1079v15.1616H18.4026V26.1079H31.4362 M32.6911,24.853H17.1477v17.6715h15.5434
				V24.853L32.6911,24.853z"/>
		</g>
		<g>
			<rect x="37.1749" y="35.4313" style="fill:#FFFFFF;" width="9.098" height="13.8039"/>
			<path style="fill:#75BFBE;" d="M45.6456,36.0588v12.549h-7.8431v-12.549H45.6456 M46.9005,34.8039H36.5476v15.0588h10.3529
				V34.8039L46.9005,34.8039z"/>
		</g>
		<g>
			<path style="fill:#FFFFFF;" d="M21.7751,31.5235c-1.9329,0-3.655-1.2741-4.1878-3.0321C17.5092,28.2334,17.2748,28,17.0052,28
				c-0.0061,0-0.0123,0-0.0184,0c-0.2623,0-0.4979,0.2094-0.5888,0.4566c-0.6446,1.75-2.3744,3.0432-4.1131,3.0432
				c-2.0659,0-4.2929-1.4079-4.3618-3.9026L13.1198,15h37.7598l5.1973,12.6093c-0.0555,2.3018-1.7138,3.7798-4.1615,3.7798
				c-1.973,0-3.6566-1.1601-4.189-3.0293C47.6492,28.0894,47.4023,28,47.1231,28c-0.0095,0-0.0187,0-0.0282,0
				c-0.2901,0-0.5337,0.098-0.5885,0.3835c-0.3624,1.8946-1.9262,3.0087-4.0809,3.0087c-0.0395,0-0.0784-0.0344-0.117-0.0369
				c0,0-0.1195-0.0221-0.1287-0.0221c-0.0095,0-0.1284-0.0014-0.1284-0.0014c-0.0386,0.0025-0.0772,0.0016-0.1167,0.0016
				c-1.9062,0-3.5729-1.2014-4.1474-2.9866c-0.0836-0.2595-0.3251-0.4363-0.5974-0.4363s-0.5138,0.1754-0.5974,0.4349
				c-0.5745,1.7852-2.2414,2.9844-4.148,2.9844c-0.0392,0-0.0781-0.0032-0.1167-0.0056c0,0-0.1189-0.0065-0.1284-0.0065
				s-0.1281,0.0064-0.1281,0.0064c-0.0386,0.0025-0.0772,0.0055-0.1167,0.0055c-1.8398,0-3.5956-1.228-4.2705-2.8451
				C27.5867,28.2507,27.3581,28,27.1051,28c-0.0021,0-0.0046,0-0.007,0c-0.2555,0-0.4841,0.2593-0.5772,0.4973
				c-0.5622,1.436-1.8174,2.485-3.3575,2.7234c-0.038,0.0058-0.0754,0.04-0.1115,0.0526
				C22.6244,31.4228,22.1948,31.5235,21.7751,31.5235z"/>
			<path style="fill:#75BFBE;" d="M50.1571,15.1917l5.1372,12.3113c-0.1022,1.8916-1.3893,3.1497-3.454,3.1497
				c-1.69,0-3.0933-1.0482-3.5481-2.6449c-0.1541-0.5411-0.6295-0.8988-1.1876-0.8988c-0.0185,0-0.0277,0.0066-0.0464,0.0074
				c-0.5807,0.0257-1.0632,0.4499-1.1725,1.0208c-0.3071,1.6041-1.6001,2.5634-3.4626,2.5634c-0.0261,0-0.0505-0.0018-0.0761-0.0035
				c-0.0368-0.0024-0.0729-0.0044-0.1098-0.0061c-0.0192-0.0009-0.0382-0.0011-0.0575-0.0011c-0.0192,0-0.0384,0.0005-0.0576,0.0014
				c-0.0369,0.0017-0.0736,0.0041-0.1103,0.0065c-0.0256,0.0017-0.0511,0.0043-0.0772,0.0043c-1.6328,0-3.0594-1.0245-3.55-2.5494
				c-0.1669-0.5188-0.6496-0.8705-1.1945-0.8706s-1.0276,0.3517-1.1946,0.8704c-0.4908,1.525-1.9178,2.5495-3.5509,2.5495
				c-0.0262,0-0.0518-0.0026-0.0777-0.0043c-0.0362-0.0024-0.0723-0.0047-0.1087-0.0064c-0.0195-0.0009-0.0391-0.0014-0.0587-0.0014
				c-0.0196,0-0.0391,0.0005-0.0587,0.0014c-0.0362,0.0017-0.0723,0.004-0.1084,0.0064c-0.0257,0.0017-0.0515,0.0043-0.0777,0.0043
				c-1.5935,0-3.1114-0.7556-3.6913-2.1453C28.0682,28.089,27.6112,28,27.1053,28c-0.0046,0-0.0093,0-0.0139,0
				c-0.5113,0-0.9681,0.1061-1.1546,0.5824c-0.4799,1.2255-1.5525,1.9713-2.8694,2.175c-0.0759,0.0117-0.1505-0.0233-0.223,0.0021
				c-0.3607,0.1263-0.7204,0.1635-1.0693,0.1635c-1.6587,0-3.1339-1.2911-3.5874-2.7871C18.0312,27.6198,17.5625,27,17.0235,27
				c-0.0124,0-0.0247,0-0.037,0c-0.5244,0-0.9953,0.559-1.1773,1.0535c-0.548,1.4878-2.0631,2.7259-3.5243,2.7259
				c-0.9625,0-1.9177-0.3116-2.6209-0.9562c-0.6618-0.6067-1.0499-1.5758-1.1075-2.4483L13.5413,15H50 M51.3011,14h-38.603
				l-5.404,13.3034c0,2.7887,2.3948,4.8135,4.9908,4.8135c2.0633,0,3.9949-1.4948,4.7018-3.4142
				c0.6242,2.0591,2.6347,3.4399,4.7883,3.4399c0.5083,0,1.0079-0.0899,1.4841-0.2567c1.7756-0.2747,3.2145-1.4501,3.846-3.063
				c0.753,1.8045,2.6773,3.133,4.8494,3.133c0.0828,0,0.1631-0.0077,0.2449-0.0115c0.0818,0.0038,0.1622,0.0123,0.245,0.0123
				c2.2451,0,4.1011-1.4178,4.7455-3.4198c0.6441,2.002,2.4995,3.42,4.7446,3.42c0.083,0,0.1634-0.0082,0.2453-0.012
				c0.0819,0.0038,0.1625,0.012,0.2454,0.012c2.4422,0,4.2748-1.3726,4.6975-3.5808c0.5942,2.0864,2.4871,3.5808,4.7926,3.5808
				c2.794,0,4.7904-1.8648,4.7904-4.6536L51.3011,14L51.3011,14z"/>
		</g>
	</g>
</g>
</svg>
