<?xml version="1.0" encoding="utf-8"?>
<!-- Generator: Adobe Illustrator 18.0.0, SVG Export Plug-In . SVG Version: 6.00 Build 0)  -->
<!DOCTYPE svg PUBLIC "-//W3C//DTD SVG 1.1//EN" "http://www.w3.org/Graphics/SVG/1.1/DTD/svg11.dtd">
<svg version="1.1" id="Layer_1" xmlns="http://www.w3.org/2000/svg" xmlns:xlink="http://www.w3.org/1999/xlink" x="0px" y="0px"
	 width="217px" height="156.91px" viewBox="0 0 217 156.91" style="enable-background:new 0 0 217 156.91;" xml:space="preserve">
<g>
	<g>
		<rect x="25.6069" y="50.0742" style="fill:#FFFFFF;" width="165.7856" height="103.834"/>
		<path style="fill:#DBDADA;" d="M188.393,53.0741v97.8343H28.607V53.0741H188.393 M194.393,47.0741H22.607v109.8343h171.786
			V47.0741L194.393,47.0741z"/>
	</g>
	<g>
		<rect x="46.2734" y="50.0742" style="fill:#FFFFFF;" width="62.2617" height="71.6074"/>
		<path style="fill:#DBDADA;" d="M105.5349,53.0742v65.6071H49.2736V53.0742H105.5349 M111.5349,47.0742H43.2736v77.6071h68.2612
			V47.0742L111.5349,47.0742z"/>
	</g>
	<g>
		<rect x="131.4707" y="93.7754" style="fill:#FFFFFF;" width="39.4668" height="60.1328"/>
		<path style="fill:#DBDADA;" d="M167.9379,96.7751v54.1333h-33.4667V96.7751H167.9379 M173.9379,90.7751h-45.4667v66.1333h45.4667
			V90.7751L173.9379,90.7751z"/>
	</g>
	<g>
		<path style="fill:#FFFFFF;" d="M63.5957,76.125c-8.3813,0-15.8481-5.3213-18.1577-12.9404
			c-0.374-1.2339-1.4946-2.0908-2.7832-2.1284c-0.0298-0.001-0.0591-0.0015-0.0884-0.0015c-1.2534,0-2.3794,0.7812-2.8145,1.9629
			c-2.7974,7.5933-10.2974,13.1045-17.834,13.1045c-8.9419,0-18.5815-6.6455-18.9092-17.4243L25.748,3h165.5l22.7451,55.7012
			c-0.2559,10.0874-7.2754,16.5713-18.0312,16.5713c-8.5557,0-15.8535-5.4443-18.1611-13.5474
			c-0.3691-1.2935-1.5508-2.1782-2.8848-2.1782c-0.0439,0-0.0889,0.001-0.1338,0.0029c-1.3877,0.0615-2.5527,1.0684-2.8135,2.4331
			c-1.5693,8.1973-8.3457,13.2896-17.6836,13.2896c-0.1709,0-0.3379-0.0132-0.5049-0.0239l-0.4346-0.0254
			c-0.0459-0.0024-0.0928-0.0034-0.1387-0.0034s-0.0928,0.001-0.1387,0.0034l-0.4346,0.0254
			c-0.167,0.0107-0.334,0.0239-0.5039,0.0239c-8.2656,0-15.4922-5.1992-17.9814-12.938c-0.3984-1.2402-1.5527-2.0815-2.8555-2.0815
			l0,0c-1.3027,0-2.457,0.8408-2.8555,2.0811c-2.4912,7.7388-9.7188,12.9385-17.9854,12.9385c-0.1689,0-0.3359-0.0132-0.502-0.0239
			l-0.4355-0.0254c-0.0469-0.0024-0.0928-0.0034-0.1387-0.0034c-0.0469,0-0.0928,0.001-0.1387,0.0034l-0.4341,0.0254
			c-0.166,0.0107-0.3325,0.0239-0.5024,0.0239c-7.9829,0-15.6025-4.6565-18.5288-11.6687C89.3057,62.4856,88.2129,62,87.0039,62
			c-0.0112,0-0.0225,0-0.0337,0c-1.2227,0-2.3145,0.5266-2.7603,1.6653c-2.437,6.2241-7.8784,10.4362-14.5552,11.4689
			c-0.1816,0.0283-0.3604,0.0125-0.5337,0.0735C67.2695,75.8561,65.4106,76.125,63.5957,76.125z"/>
		<path style="fill:#DBDADA;" d="M189.1165,6l21.7937,53.2305c-0.468,8.0759-6.0984,13.0418-14.9771,13.0418
			c-7.2008,0-13.3256-4.5689-15.2625-11.3691c-0.7368-2.587-3.0924-4.3565-5.7609-4.3565c-0.0887,0-0.1743,0.002-0.2636,0.0059
			c-2.7766,0.1227-5.1037,2.1363-5.6263,4.866c-1.301,6.7962-6.8093,10.8536-14.7332,10.8536
			c-0.1046-0.0012-0.207-0.0108-0.3099-0.0176c-0.1643-0.0107-0.3284-0.0212-0.4937-0.0288
			c-0.0921-0.0042-0.1842-0.0064-0.2763-0.0064c-0.0922,0-0.1843,0.0021-0.2765,0.0064c-0.1653,0.0076-0.3296,0.018-0.494,0.0288
			c-0.1027,0.0068-0.2054,0.0164-0.3069,0.0175c-6.9576,0-13.0359-4.363-15.1252-10.8569c-0.798-2.4804-3.1057-4.1622-5.7113-4.1624
			c-2.6056-0.0002-4.9135,1.6814-5.7118,4.1617c-2.0902,6.4943-8.1702,10.8576-15.1262,10.8576
			c-0.1047-0.0012-0.2076-0.0108-0.3107-0.0176c-0.1625-0.0107-0.3251-0.021-0.4886-0.0287
			c-0.0931-0.0043-0.1862-0.0065-0.2793-0.0065c-0.0934,0-0.1867,0.0022-0.28,0.0065c-0.1629,0.0076-0.3249,0.0179-0.4869,0.0285
			c-0.1034,0.0068-0.2066,0.0165-0.3089,0.0177c-6.8063,0-13.2869-3.8978-15.7597-9.8239C91.6079,60.2123,89.4227,59,87.0041,59
			c-0.0222,0-0.0445,0-0.0667,0c-2.445,0-4.6291,1.2942-5.5207,3.571c-2.0433,5.218-6.6118,8.7309-12.2208,9.5987
			c-0.3627,0.0561-0.7196,0.0852-1.0661,0.2065c-1.5319,0.5366-3.0575,0.7785-4.5343,0.7785
			c-7.071,0-13.3571-4.4606-15.2867-10.8258c-0.748-2.4675-2.9889-4.1888-5.5662-4.2643c-0.0593-0.0017-0.118-0.0064-0.1771-0.0064
			c-2.5066,0-4.7582,1.5604-5.6289,3.9243c-2.3395,6.3516-8.7962,11.1403-15.0186,11.1403c-4.1061,0-8.1809-1.5772-11.1796-4.3265
			c-2.7839-2.5523-4.4283-5.9237-4.6987-9.5861L27.7637,6H189 M193.264,0H23.7325L0,58.1298C0,70.3769,10.5173,79.122,21.918,79.122
			c9.0612,0,17.5439-6.638,20.6488-15.0674c2.7413,9.0429,11.5707,15.0701,21.0287,15.0701c2.2321,0,4.4262-0.4133,6.5177-1.1459
			c7.7976-1.2063,14.1168-6.3775,16.8904-13.4608c3.3069,7.925,11.758,13.7543,21.297,13.7543c0.3637,0,0.7168-0.036,1.0756-0.0527
			c0.3591,0.0168,0.7122,0.0528,1.0759,0.0528c9.8597,0,18.0108-6.2272,20.8406-15.0193
			c2.8287,8.7921,10.9771,15.0193,20.8368,15.0193c0.3644,0,0.7179-0.0362,1.0774-0.0527c0.3595,0.0166,0.7134,0.0527,1.0778,0.0527
			c10.7254,0,18.7735-6.0282,20.63-15.7255c2.6097,9.1627,10.9228,15.7255,21.0475,15.7255
			c12.2701,0,21.0377-7.8955,21.0377-20.1426L193.264,0L193.264,0z"/>
	</g>
</g>
</svg>
