<svg version="1" xmlns="http://www.w3.org/2000/svg" viewBox="0 0 50 50" enable-background="new 0 0 50 50"><path fill="#F9A90E" d="M25 0c-13.8 0-25 11.2-25 25s11.2 25 25 25 25-11.2 25-25-11.2-25-25-25zm0 47.8c-12.6 0-22.8-10.2-22.8-22.8s10.2-22.8 22.8-22.8c12.6 0 22.8 10.2 22.8 22.8s-10.2 22.8-22.8 22.8z"/><g fill="#F9A90E"><path d="M17.2 20.8c-1.9 0-3.5-1.6-3.5-3.5s1.6-3.5 3.5-3.5 3.5 1.6 3.5 3.5-1.5 3.5-3.5 3.5zM33 20.8c-1.9 0-3.5-1.6-3.5-3.5s1.6-3.5 3.5-3.5 3.5 1.6 3.5 3.5-1.6 3.5-3.5 3.5zM36.5 34.4h-22.8v-3.5h22.8v3.5z"/></g></svg>