<svg version="1" xmlns="http://www.w3.org/2000/svg" viewBox="0 0 50 50" enable-background="new 0 0 50 50"><g fill="#E76A25"><path d="M25 0c-13.8 0-25 11.2-25 25s11.2 25 25 25 25-11.2 25-25-11.2-25-25-25zm0 47.8c-12.6 0-22.8-10.2-22.8-22.8s10.2-22.8 22.8-22.8c12.6 0 22.8 10.2 22.8 22.8s-10.2 22.8-22.8 22.8zM17.2 20.8c-1.9 0-3.5-1.6-3.5-3.5s1.6-3.5 3.5-3.5 3.5 1.6 3.5 3.5-1.5 3.5-3.5 3.5zM25.1 27.4c5.5 0 10 3.7 11.4 8.8h-22.8c1.3-5 5.9-8.8 11.4-8.8zM33 20.8c-1.9 0-3.5-1.6-3.5-3.5s1.6-3.5 3.5-3.5 3.5 1.6 3.5 3.5-1.6 3.5-3.5 3.5z"/></g></svg>