<?xml version="1.0" encoding="UTF-8" standalone="no"?>
<svg width="55px" height="54px" viewBox="0 0 55 54" version="1.1" xmlns="http://www.w3.org/2000/svg" xmlns:xlink="http://www.w3.org/1999/xlink">
    <!-- Generator: Sketch 3.8.3 (29802) - http://www.bohemiancoding.com/sketch -->
    <title>googleplus</title>
    <desc>Created with Sketch.</desc>
    <defs></defs>
    <g id="v5" stroke="none" stroke-width="1" fill="none" fill-rule="evenodd">
        <g id="sobre" transform="translate(-400.000000, -3966.000000)">
            <g id="redes-sociais" transform="translate(1.000000, 3842.000000)">
                <g transform="translate(231.000000, 124.000000)" id="googleplus">
                    <g transform="translate(168.681818, 0.000000)">
                        <rect id="Rectangle" x="0" y="0" width="54" height="54"></rect>
                        <ellipse id="Oval" fill="#FDB933" cx="27" cy="27" rx="27" ry="27"></ellipse>
                        <g id="Group-4" transform="translate(9.818182, 15.954545)" fill="#FFFFFF">
                            <path d="M0.0292048891,10.4369662 C0.123846781,4.77718303 5.32952491,-0.179660859 10.991953,0.00916060615 C13.7047712,-0.116471101 16.2552393,1.06356958 18.333246,2.72108553 C17.4466797,3.72800871 16.5283167,4.69866321 15.5467344,5.60612796 C13.0490114,3.88018759 9.49601263,3.38738226 6.99828966,5.38066391 C3.42434248,7.85104692 3.26199236,13.6839476 6.69902676,16.3431521 C10.0417933,19.3751388 16.3603554,17.8694278 17.2839555,13.227411 C15.1898634,13.196003 13.0909082,13.227411 10.9971901,13.1593605 C10.991953,11.9108954 10.9867159,10.6624303 10.991953,9.41396519 C14.4922067,9.40349588 17.9924604,9.39826122 21.4979512,9.42443449 C21.7078093,12.3618235 21.3195157,15.4880339 19.5142123,17.9169136 C16.7800716,21.7617673 11.2908419,22.8842268 7.00876386,21.2371801 C2.71097455,19.6006028 -0.332903219,15.0632791 0.0292048891,10.4369662" id="Fill-186"></path>
                            <path d="M29.1360756,6.72332016 L32.2585098,6.72332016 C32.2637469,7.76725982 32.268984,8.81606024 32.2794582,9.8599999 C33.3238857,9.87046921 34.3731763,9.87046921 35.4176038,9.88093852 L35.4176038,13.0019143 C34.3731763,13.0123836 33.3291229,13.0176183 32.2794582,13.0280876 C32.268984,14.0772619 32.2637469,15.1212016 32.2585098,16.1647673 L29.1308385,16.1647673 C29.1203643,15.1212016 29.1203643,14.0772619 29.10989,13.0333222 C28.0654625,13.0228529 27.0157979,13.0123836 25.9717445,13.0019143 L25.9717445,9.88093852 C27.0157979,9.87046921 28.0602254,9.86523456 29.10989,9.8599999 C29.1151271,8.81082558 29.1256014,7.76725982 29.1360756,6.72332016" id="Fill-187"></path>
                        </g>
                    </g>
                </g>
            </g>
        </g>
    </g>
</svg>