<?xml version="1.0" encoding="UTF-8" standalone="no"?>
<svg width="93px" height="50px" viewBox="0 0 93 50" version="1.1" xmlns="http://www.w3.org/2000/svg" xmlns:xlink="http://www.w3.org/1999/xlink" xmlns:sketch="http://www.bohemiancoding.com/sketch/ns">
    <!-- Generator: Sketch 3.5.2 (25235) - http://www.bohemiancoding.com/sketch -->
    <title>logo-moip</title>
    <desc>Created with Sketch.</desc>
    <defs></defs>
    <g id="Page-1" stroke="none" stroke-width="1" fill="none" fill-rule="evenodd" sketch:type="MSPage">
        <g id="moip-transparente-dados" sketch:type="MSArtboardGroup" transform="translate(-433.000000, -311.000000)">
            <g id="logo-moip" sketch:type="MSLayerGroup" transform="translate(433.000000, 311.000000)">
                <path d="M0.233440171,23.9801818 L0.65858547,22.2565455 C1.68038355,19.3335455 3.66117415,17.4088182 6.73864637,16.8079394 C8.51652671,16.4608182 10.3209786,16.626 11.9804947,17.495 C12.34525,17.6865152 12.7051741,17.8852121 13.0506047,18.1078485 C13.7414658,18.5531212 14.3912618,18.5435455 15.0676293,18.0599697 C16.6570929,16.9252424 18.4518825,16.4488485 20.3891923,16.6188182 C23.331391,16.8749697 25.5005983,18.3472424 26.9040609,20.9159394 C27.5973376,22.1847273 27.9186122,23.5516667 27.913781,25 C27.9065342,28.6411818 27.9113654,32.2847576 27.9113654,35.9259394 L27.925859,37.7333636 C27.9234434,38.3462121 27.5900908,38.7124848 26.9716976,38.7220606 C25.8774316,38.7412121 24.78075,38.7412121 23.686484,38.7220606 C23.0874156,38.7124848 22.7250759,38.3390303 22.7250759,37.7644848 C22.7274915,33.532 22.7105823,29.2995152 22.754063,25.0670303 C22.7685566,23.7336061 22.3144241,22.7185758 21.1404434,22.0722121 C19.3239135,21.0715455 16.9807831,22.2637273 16.7368077,24.3105455 C16.5991186,25.4620303 16.6860801,26.6230909 16.6860801,27.7769697 C16.6860801,31.0327273 16.7078205,34.2860909 16.7174829,37.5418485 C16.7198985,38.3940909 16.3865459,38.7268485 15.5338397,38.7268485 L12.6133814,38.7268485 C11.84039,38.7244545 11.4949594,38.3845152 11.4925438,37.6304242 C11.4877126,33.5535455 11.473219,29.4790606 11.485297,25.4021818 C11.4877126,24.8372121 11.5408558,24.2842121 11.3306987,23.7407879 C10.7871891,22.3403333 9.35715491,21.4904848 7.91021154,21.7466364 C6.23137073,22.0434848 5.2747938,23.4535152 5.26754701,24.6816061 L5.26996261,27.212 L5.27237821,37.6304242 C5.27237821,38.3869091 4.93177885,38.7220606 4.15637179,38.7220606 C3.25535363,38.7244545 2.35433547,38.705303 1.45573291,38.7292424 C0.909807692,38.7483939 0.494324786,38.5832121 0.233440171,38.0924545 L0.233440171,23.9801818 Z" id="Fill-5" fill="#104A7B" sketch:type="MSShapeGroup"></path>
                <path d="M92.0261752,7.69660606 C91.2314434,9.99718182 89.3714327,11.2994848 87.4172137,12.4988485 C86.1538558,13.2744848 84.7962895,13.861 83.3155278,14.1051818 C82.8227457,14.1865758 82.3178857,14.1961515 81.8275192,14.1075758 C81.0424498,13.9663333 80.5641613,13.4372727 80.1969904,12.7789394 C79.7042083,11.8907879 79.4723109,10.9188485 79.3322062,9.92775758 C79.0471656,7.89530303 79.1292959,5.8700303 79.6148312,3.87109091 C79.8080791,3.07390909 80.0931197,2.30784848 80.5400053,1.60881818 C80.9120075,1.02469697 81.4434391,0.663212121 82.0956506,0.454939394 L83.3372682,0.454939394 C85.6296709,0.732636364 87.4800192,1.92960606 89.255484,3.27021212 C90.1975673,3.98121212 91.0092083,4.81909091 91.6179391,5.83651515 C91.8450053,6.21475758 92.0116816,6.60736364 91.9899412,7.05981818 L92.0285908,7.54578788 L92.0261752,7.69660606" id="Fill-7" fill="#3193D5" sketch:type="MSShapeGroup"></path>
                <path d="M91.9585385,7.03587879 L92.0261752,7.04545455 L92.0261752,7.5529697 C91.8909017,7.39257576 91.9730321,7.20824242 91.9585385,7.03587879" id="Fill-9" fill="#75B5DE" sketch:type="MSShapeGroup"></path>
                <path d="M64.3434188,49.5354848 L63.9786635,49.5426667 C63.4424006,49.411 63.2008408,49.1021818 63.1984252,48.5300303 L63.1984252,44.4052727 C63.1984252,38.7723333 63.1911784,33.1393939 63.2008408,27.5088485 C63.205672,25.0071818 63.9279359,22.7209697 65.4618408,20.7220303 C67.1600064,18.5100303 69.3944348,17.1454848 72.1844509,16.7385152 C75.5880288,16.2429697 78.5882019,17.1335152 81.1052553,19.4652121 C82.7647714,21.0021212 83.8034786,22.9292424 84.2576111,25.1220909 C84.8904979,28.1671818 84.5064177,31.0901818 82.8154989,33.7570303 C81.0690214,36.5100606 78.5471368,38.1355455 75.2957415,38.6071515 C73.3028729,38.8968182 71.3848878,38.6095455 69.5442019,37.798 L69.201187,37.678303 C68.9499647,37.6280303 68.7591325,37.7070303 68.7253141,37.9823333 L68.6794177,38.7005152 L68.6770021,48.542 C68.6770021,49.1237273 68.4813387,49.3846667 67.9329979,49.5354848 L67.420891,49.528303 L64.3434188,49.5354848" id="Fill-11" fill="#104A7B" sketch:type="MSShapeGroup"></path>
                <path d="M41.3807415,38.5281515 C36.2306859,38.5975758 31.9888953,34.9707576 30.9767596,30.1038788 C30.2834829,26.778697 30.8173301,23.6617879 32.8488483,20.8848182 C34.6919498,18.364 37.2065876,16.9348182 40.349281,16.6595152 C45.8495983,16.1759394 50.6348985,19.7117879 51.7219177,25.0981515 C52.490078,28.9021212 51.6808526,32.3398182 49.02611,35.2532424 C47.4656335,36.967303 45.4872585,37.9847273 43.1900246,38.3845152 C42.5643846,38.4970303 41.9363291,38.5544848 41.3807415,38.5281515" id="Fill-13" fill="#104A7A" sketch:type="MSShapeGroup"></path>
                <path d="M60.3528504,11.4550909 C60.3480192,12.8148485 59.0508429,14.0908182 57.6811987,14.0836364 C56.3115545,14.0764545 55.0071314,12.793303 55.0023002,11.4455152 C54.997469,10.0977273 56.3526197,8.76430303 57.7077703,8.78106061 C59.0701677,8.80021212 60.3576816,10.1001212 60.3528504,11.4550909 L60.3528504,11.4550909 Z M55.0023002,27.6836061 L54.9998846,17.7391818 L55.0747682,17.1694242 C55.2269509,16.7073939 55.5071603,16.5541818 55.9902799,16.6212121 C58.4300342,16.9611515 60.1765118,18.9481212 60.1837585,21.5982121 C60.1958365,26.1299394 60.1861741,30.6640606 60.1885897,35.1957879 L60.1910053,37.7261818 C60.1885897,38.3366364 59.8528216,38.7100909 59.2392596,38.7196667 C58.1449936,38.7388182 57.0507276,38.7364242 55.9564615,38.7196667 C55.3380684,38.7100909 55.0023002,38.3438182 55.0023002,37.7333636 L55.0023002,27.6812121 L55.0023002,27.6836061 Z" id="Fill-15" fill="#104A7B" sketch:type="MSShapeGroup"></path>
                <path d="M88.9583654,7.3159697 C88.9825214,7.54578788 88.8641571,7.7109697 88.71439,7.85939394 L86.7529241,9.80087879 C86.3905844,10.1551818 86.0016731,10.1527879 85.6634893,9.8200303 C85.3422147,9.5040303 85.3494615,9.07790909 85.6876453,8.73318182 L86.5379359,7.88812121 C86.8906132,7.5290303 86.8906132,7.10530303 86.5379359,6.7390303 L85.6634893,5.86524242 C85.3446303,5.53248485 85.3518771,5.12312121 85.6731517,4.80951515 C86.0040887,4.48633333 86.3978312,4.47675758 86.7384306,4.80712121 L88.7264679,6.77493939 C88.876235,6.92575758 88.984937,7.09333333 88.9583654,7.3159697 M82.8251613,4.57490909 C82.9628504,4.56533333 83.1512671,4.66827273 83.3106966,4.82627273 L85.2431752,6.74381818 C85.6224241,7.12924242 85.6175929,7.50030303 85.238344,7.88093939 L83.3300214,9.77215152 C82.9338632,10.1599697 82.5497831,10.1623636 82.189859,9.79609091 C81.8516752,9.4489697 81.8758312,9.09466667 82.2719893,8.69727273 L83.0957083,7.87854545 C83.4435545,7.51227273 83.4387233,7.11727273 83.0908771,6.76057576 L82.1946902,5.86045455 C81.9821175,5.63781818 81.8758312,5.37448485 82.0255983,5.07045455 C82.1705342,4.78078788 82.3806912,4.58448485 82.8251613,4.57490909" id="Fill-17" fill="#FEFEFE" sketch:type="MSShapeGroup"></path>
                <path d="M36.2910759,28.16 C36.2886603,25.1508182 37.9240203,22.9651515 40.2937222,22.3570909 C42.1923825,21.8687273 44.2504722,22.6898485 45.4969209,24.4302424 C47.5791667,27.3412727 46.3906923,31.5450303 43.1006474,32.8305758 C41.395235,33.4960909 39.8009402,33.1824848 38.3878152,32.069303 C36.9771058,30.963303 36.3273098,29.4694848 36.2910759,28.16 M79.2283355,27.6836061 C79.2283355,30.3672121 77.4262991,32.6845455 74.8875053,33.2638788 C72.9381175,33.7091515 70.848625,32.8257879 69.5900983,31.0231515 C67.4957746,28.0259394 68.6673397,23.7982424 71.9863718,22.3714545 C74.288437,21.3803636 77.0132318,22.3451212 78.3756293,24.6313333 C78.9336325,25.5673636 79.2283355,26.6230909 79.2283355,27.6836061" id="Fill-19" fill="#FFFFFF" sketch:type="MSShapeGroup"></path>
            </g>
        </g>
    </g>
</svg>