<?xml version="1.0" encoding="UTF-8" standalone="no"?>
<svg width="303px" height="82px" viewBox="0 0 303 82" version="1.1" xmlns="http://www.w3.org/2000/svg" xmlns:xlink="http://www.w3.org/1999/xlink">
    <!-- Generator: Sketch 3.8.3 (29802) - http://www.bohemiancoding.com/sketch -->
    <title>logo-blog</title>
    <desc>Created with Sketch.</desc>
    <defs></defs>
    <g id="v5" stroke="none" stroke-width="1" fill="none" fill-rule="evenodd">
        <g id="sobre" transform="translate(-361.000000, -4194.000000)">
            <g id="blog" transform="translate(0.000000, 4070.000000)">
                <g id="logo-blog" transform="translate(361.000000, 124.000000)">
                    <path d="M136.628292,16.8945164 C136.359536,17.9678921 136.100318,19.0404 135.849335,20.1124741 C135.597918,21.1858497 135.338266,22.2583577 135.070811,23.3308656 C135.037,23.5313101 135.003622,23.7256804 134.970245,23.9092042 C134.936867,24.0931619 134.88615,24.2862307 134.819828,24.4866751 C135.087283,24.1191937 135.33003,23.7412995 135.548069,23.3560296 C135.765674,22.9707598 136.007987,22.5937333 136.276309,22.2240825 C136.845464,21.2530984 137.389476,20.2630243 137.909215,19.2573312 C138.428086,18.252072 138.921815,17.2298921 139.39127,16.1907915 C139.859858,15.151691 140.311974,14.1130243 140.747618,13.0730561 C141.182395,12.0348233 141.584227,10.9783683 141.953116,9.90586032 C142.019871,9.77223069 142.070155,9.63773333 142.103532,9.50280212 C142.13691,9.36917249 142.187193,9.23554286 142.254382,9.1010455 C142.321137,8.9001672 142.354948,8.76653757 142.354948,8.69885503 C142.387893,8.63204021 142.413034,8.5652254 142.430373,8.49710899 C142.446845,8.43029418 142.471987,8.36347937 142.505798,8.29666455 C142.572554,8.02853757 142.631506,7.76127831 142.68179,7.49184974 C142.731639,7.22459048 142.790159,6.95602963 142.857348,6.68790265 C142.924103,6.4193418 142.974386,6.15208254 143.008197,5.88265397 C143.041142,5.61539471 143.058481,5.34683386 143.058481,5.07870688 L143.058481,4.32378624 C143.058481,4.1233418 143.025103,3.88948995 142.958348,3.62006138 C142.958348,3.55324656 142.949245,3.49467513 142.932773,3.44478095 C142.915433,3.39445291 142.907631,3.33588148 142.907631,3.26819894 C142.840442,3.13456931 142.807498,3.05083386 142.807498,3.01655873 L142.656648,2.86600847 C142.656648,2.83260106 142.639309,2.81611429 142.605931,2.81611429 C142.572554,2.81611429 142.556082,2.83260106 142.556082,2.86600847 L142.556082,2.91633651 L142.505798,2.91633651 L142.455948,2.96623069 L142.405232,2.96623069 L142.354948,3.01655873 C142.321137,3.01655873 142.287326,3.03434709 142.254382,3.0677545 C142.187193,3.1011619 142.086627,3.18446349 141.953116,3.31809312 C141.885494,3.38620952 141.818738,3.45302434 141.751983,3.51983915 C141.684794,3.58752169 141.618039,3.65433651 141.551283,3.72115132 C141.450717,3.88948995 141.341481,4.06477037 141.224876,4.24872804 C141.10697,4.43355344 140.981262,4.62532063 140.848185,4.82706667 L140.245219,6.18462222 C140.144652,6.4193418 140.044519,6.65449524 139.943519,6.88834709 C139.842953,7.12306667 139.74282,7.35822011 139.642253,7.59293968 C139.474064,8.09535238 139.290704,8.5986328 139.090004,9.1010455 C138.888871,9.60432593 138.70421,10.1063048 138.536888,10.6095852 C138.168,11.6152783 137.825554,12.6457016 137.507382,13.7012889 C137.188343,14.7581778 136.895747,15.8220085 136.628292,16.8945164 L136.628292,16.8945164 Z M126.580742,37.4092677 C126.613687,37.3424529 126.638828,37.2838815 126.656167,37.2339873 C126.672639,37.1827915 126.714253,37.1255217 126.781876,37.0574053 L126.781876,36.4790667 C126.781876,36.295109 126.798348,36.1198286 126.831725,35.9514899 C126.831725,35.7167704 126.848631,35.5328127 126.882442,35.3983153 C126.814386,34.9293101 126.848631,34.5275534 126.982575,34.1913101 C127.015953,33.8893418 127.041094,33.5969185 127.058,33.3118709 C127.074472,33.0268233 127.100047,32.7335323 127.133425,32.431564 C127.065803,32.3647492 127.033292,32.314855 127.033292,32.280146 L126.982575,32.1799238 L126.932292,32.0797016 L126.831725,31.8783894 C126.764536,31.8115746 126.722923,31.7447598 126.706451,31.677945 C126.689545,31.6111302 126.66397,31.5443153 126.631026,31.4761989 C126.563403,31.3091619 126.487979,31.1746646 126.405185,31.0744423 C126.32109,30.9729185 126.245232,30.8562095 126.178476,30.7225799 C125.843833,30.2192995 125.525661,29.867437 125.223961,29.665691 C125.090017,29.5988762 125.005923,29.5654688 124.973412,29.5654688 C124.939167,29.5320614 124.90579,29.5155746 124.872412,29.5155746 C124.839034,29.5155746 124.805223,29.498654 124.772279,29.4652466 L124.370013,29.4652466 C124.302824,29.498654 124.244305,29.5155746 124.194455,29.5155746 C124.144172,29.5155746 124.085219,29.5320614 124.018464,29.5654688 C123.817764,29.6335852 123.666914,29.7004 123.566348,29.7672148 C123.499159,29.8006222 123.4233,29.8340296 123.340506,29.867437 C123.256412,29.9008444 123.164948,29.9507386 123.063948,30.0175534 C122.99676,30.0856698 122.913532,30.1438074 122.812966,30.1941354 C122.712399,30.2440296 122.628305,30.3039026 122.561549,30.3707175 C122.36085,30.4709397 122.176189,30.6045693 122.0093,30.7724741 C121.941678,30.8392889 121.891395,30.8813735 121.858451,30.8978603 C121.824639,30.9156487 121.77479,30.9572995 121.708034,31.0241143 C121.639979,31.0575217 121.598798,31.0909291 121.582326,31.1243365 C121.564987,31.1577439 121.523373,31.208072 121.456618,31.2748868 C121.08773,31.6111302 120.73618,31.9629926 120.401536,32.3313418 C120.066459,32.7001249 119.731382,33.1023153 119.397172,33.5374794 C119.228983,33.7392254 119.078567,33.9396698 118.945056,34.140982 C118.810678,34.342728 118.659828,34.5609608 118.492506,34.7948127 C118.324751,34.9961249 118.19124,35.2143577 118.091107,35.4482095 C118.023052,35.5831407 117.956296,35.6998497 117.889541,35.800072 C117.822352,35.9015958 117.755597,36.0183048 117.688841,36.1519344 C117.554897,36.3870878 117.429189,36.613564 117.31215,36.8309291 C117.194245,37.0500296 117.085876,37.2756381 116.985742,37.5094899 L116.884742,37.711236 L116.834893,37.9125481 L116.684043,38.2644106 C116.550099,38.464855 116.432627,38.7342836 116.332494,39.0683577 C115.930227,40.0415111 115.578678,41.0797439 115.277412,42.186527 C114.975712,43.3267175 114.72473,44.3987915 114.52403,45.4044847 C114.490219,45.6730455 114.456408,45.9411725 114.423464,46.2084317 C114.389652,46.4778603 114.37318,46.7451196 114.37318,47.0136804 C114.339369,47.2818074 114.3307,47.5334476 114.348472,47.7672995 C114.364511,48.0024529 114.37318,48.2371725 114.37318,48.4714582 C114.439936,48.9413312 114.540069,49.3266011 114.67488,49.6281354 C114.741635,49.8285799 114.791485,49.9635111 114.82573,50.0303259 L115.026429,50.2316381 C115.126562,50.3318603 115.227129,50.3821884 115.328129,50.3821884 C115.328129,50.4155958 115.360639,50.4320825 115.428262,50.4320825 L115.478545,50.4320825 L115.528828,50.4320825 L115.578678,50.4320825 L115.628961,50.4320825 C115.628961,50.4667915 115.662339,50.4824106 115.729528,50.4824106 C116.031227,50.4824106 116.415288,50.348781 116.884742,50.0802201 C117.319953,49.8463683 117.755597,49.5448339 118.19124,49.1751831 C118.39194,49.008146 118.601309,48.8233206 118.818914,48.6224423 C119.036519,48.4211302 119.246322,48.219818 119.447021,48.0189397 C119.648155,47.7850878 119.848854,47.5659873 120.049987,47.3655429 C120.25112,47.1637968 120.434481,46.929945 120.60267,46.661818 C120.970691,46.2262201 121.339146,45.7563471 121.708034,45.2530667 C121.908734,44.9858074 122.101197,44.7341672 122.285425,44.4990138 C122.469219,44.2651619 122.64521,44.0135217 122.812966,43.7453947 C122.980288,43.4768339 123.147609,43.2251937 123.315365,42.9904741 C123.482253,42.7566222 123.650009,42.504982 123.817764,42.2364212 C123.984652,41.9682942 124.144172,41.7010349 124.295021,41.4316063 C124.445871,41.1643471 124.604524,40.8957862 124.772279,40.6276593 C124.939167,40.3590984 125.090017,40.0992148 125.223961,39.8484423 C125.357472,39.5968021 125.508322,39.3377862 125.676511,39.0683577 L126.580742,37.4092677 Z M141.400433,48.8732148 C141.065356,49.4767175 140.713807,50.0134053 140.345785,50.4824106 C140.177597,50.7518392 139.985567,51.010855 139.767961,51.2624952 C139.549923,51.5128339 139.307176,51.7562307 139.039288,51.9909503 C138.570266,52.493363 138.01715,52.9467492 137.381674,53.3485058 C137.046597,53.5155429 136.703283,53.6838815 136.351734,53.8517862 C136.000185,54.0188233 135.639966,54.1537545 135.271511,54.2539767 C135.070811,54.3207915 134.870112,54.3624423 134.668979,54.379363 C134.467845,54.3958497 134.266712,54.4210138 134.066013,54.4552889 L133.915163,54.4552889 L133.814597,54.4552889 L133.714464,54.4552889 L133.663747,54.4552889 L133.563614,54.4552889 L133.362914,54.4552889 C133.195159,54.4552889 132.943742,54.4210138 132.609099,54.3541989 C132.340777,54.2873841 132.081991,54.2036487 131.830575,54.1025587 C131.579592,54.0023365 131.335979,53.8843259 131.102335,53.7506963 C130.566124,53.4153206 130.18033,53.0968656 129.946687,52.7953312 C129.678365,52.493363 129.426948,52.1584212 129.193305,51.7896381 C129.058927,51.6212995 128.949691,51.4542624 128.866464,51.2872254 C128.782803,51.1201884 128.690906,50.9522836 128.589906,50.783945 C128.255262,50.0468127 128.003845,49.3764952 127.836957,48.7729926 C127.635391,48.2037651 127.484974,47.5837757 127.384841,46.9121566 C127.216652,46.2765481 127.100047,45.6478815 127.033292,45.0274582 C126.965236,44.4074688 126.898481,43.7952889 126.831725,43.1917862 C126.798348,42.7900296 126.773206,42.3869714 126.756734,41.984781 C126.739395,41.5830243 126.714253,41.1977545 126.680876,40.8289714 C126.613687,40.9626011 126.51312,41.1977545 126.380043,41.5326963 C126.211854,41.8012571 126.069674,42.0776275 125.952635,42.3618074 C125.83473,42.646855 125.692983,42.9236593 125.525661,43.1917862 C125.357472,43.4937545 125.207056,43.7870455 125.073979,44.0720931 C124.939167,44.3571407 124.788751,44.633945 124.621429,44.9012042 C124.453674,45.1697651 124.295021,45.4461354 124.144172,45.7311831 C123.993755,46.0162307 123.833803,46.2930349 123.666914,46.5602942 C123.398592,47.096982 123.063948,47.6336698 122.662549,48.1694899 C122.494361,48.4389185 122.318803,48.7061778 122.134575,48.9747386 C121.950348,49.2428656 121.757884,49.5114265 121.557185,49.7786857 C121.356485,50.0468127 121.146682,50.3066963 120.929077,50.5583365 C120.711039,50.809109 120.484764,51.0689926 120.25112,51.3375534 C119.982365,51.6056804 119.723579,51.8564529 119.472163,52.0911725 C119.22118,52.3254582 118.945056,52.5601778 118.643356,52.7953312 C118.475167,52.9289608 118.307845,53.0469714 118.140957,53.1480614 C117.973202,53.2482836 117.805446,53.3485058 117.638558,53.448728 C117.303481,53.6504741 116.884742,53.8018921 116.382777,53.9021143 C116.315155,53.9342201 116.257069,53.9520085 116.206785,53.9520085 C116.156936,53.9520085 116.097983,53.9689291 116.031227,54.0023365 L115.830094,54.0023365 L115.729528,54.0522307 L115.679678,54.0522307 L115.578678,54.0522307 L115.478545,54.0522307 L115.328129,54.0522307 L114.925863,54.0522307 C114.423464,54.0522307 113.921064,53.9520085 113.418665,53.7506963 C112.94921,53.5502519 112.497094,53.2652042 112.062751,52.8964212 C111.894129,52.7285164 111.72724,52.5601778 111.559918,52.3931407 C111.39173,52.225236 111.24088,52.0412783 111.107803,51.8395323 C110.806536,51.4377757 110.588064,51.0533735 110.454987,50.6837228 C110.354421,50.5166857 110.261223,50.3318603 110.178429,50.1305481 C110.094335,49.9301037 110.01891,49.746146 109.952588,49.5782413 C109.852021,49.2094582 109.759258,48.831564 109.67603,48.4462942 C109.592803,48.0610243 109.517811,47.6839979 109.449755,47.3152148 C109.383433,46.9468656 109.34182,46.5854582 109.324481,46.2335958 C109.308009,45.8817333 109.282867,45.5224952 109.249056,45.1528444 L109.249056,44.0972571 C109.249056,43.9289185 109.257725,43.7536381 109.274197,43.5688127 C109.291103,43.3852889 109.299773,43.2087069 109.299773,43.0403683 C109.33315,42.6728868 109.366961,42.3292677 109.399906,42.009945 C109.433717,41.6923577 109.483567,41.3491725 109.550322,40.9795217 C109.651322,40.3087704 109.784833,39.6384529 109.952588,38.9681354 C110.119476,38.297818 110.304137,37.6275005 110.504837,36.9571831 C110.571592,36.7892783 110.630545,36.6218074 110.680828,36.4539026 C110.730678,36.2868656 110.789197,36.1198286 110.856386,35.9514899 C110.923575,35.7501778 110.99033,35.5996275 111.057519,35.4985376 L111.158086,35.2468974 L111.258652,34.9961249 C111.425541,34.6611831 111.585494,34.3340508 111.73591,34.0155958 C111.886326,33.6971407 112.044979,33.3704423 112.212734,33.0355005 C112.983455,31.7278392 113.853876,30.5711619 114.82573,29.5654688 C115.093185,29.2973418 115.352837,29.0370243 115.60382,28.7866857 C115.855236,28.5350455 116.131794,28.2916487 116.432627,28.0564952 C116.566137,27.9228656 116.700948,27.8061566 116.834893,27.7046328 C116.968403,27.6044106 117.119253,27.4877016 117.287009,27.3527704 C117.453897,27.2525481 117.61385,27.1523259 117.764266,27.051236 C117.915116,26.9510138 118.073768,26.8507915 118.241524,26.7492677 C118.442657,26.6156381 118.609545,26.5154159 118.743923,26.4477333 C118.910811,26.3809185 119.078567,26.2971831 119.246322,26.1969608 C119.41321,26.130146 119.589202,26.0537862 119.773863,25.9704847 C119.957223,25.8867492 120.15012,25.811691 120.351687,25.7440085 C120.518575,25.6771937 120.703236,25.6186222 120.903936,25.5682942 C121.105069,25.5184 121.32224,25.4598286 121.557185,25.392146 C121.757884,25.3253312 121.958584,25.2832466 122.16015,25.2667598 C122.36085,25.2498392 122.594494,25.225109 122.863249,25.1917016 C123.096893,25.1578603 123.323167,25.1496169 123.541206,25.1665376 C123.758811,25.1830243 124.001558,25.2081884 124.26988,25.2415958 C124.805223,25.341818 125.290717,25.493236 125.726794,25.6936804 C125.960438,25.8286116 126.186279,25.9704847 126.405185,26.1206011 C126.622356,26.272019 126.814386,26.4321143 126.982575,26.5991513 C127.183708,26.7336487 127.334124,26.9176063 127.434691,27.1523259 C127.535258,27.2525481 127.652296,27.4030984 127.78624,27.6044106 C128.120451,25.493236 128.522717,23.3985481 128.992172,21.3199132 C129.46076,19.2417122 130.029914,17.179564 130.700069,15.1352042 C131.068524,13.9958815 131.461687,12.8639344 131.880425,11.7406646 C132.299163,10.6178286 132.775987,9.50280212 133.312197,8.39688677 C133.580086,7.86150053 133.85621,7.3248127 134.141004,6.78812487 C134.425365,6.25230476 134.752206,5.71561693 135.120661,5.1789291 C135.288416,4.91166984 135.463974,4.66002963 135.648635,4.42487619 C135.832429,4.19102434 136.025326,3.93938413 136.226026,3.66995556 C136.661236,3.13456931 137.113352,2.63215661 137.582807,2.1622836 C137.715884,2.06206138 137.850262,1.95359577 137.984639,1.83558519 C138.11815,1.71844233 138.252094,1.60910899 138.386039,1.50888677 C138.553794,1.37482328 138.70421,1.25724656 138.838588,1.15659048 C138.972099,1.05550053 139.122515,0.955278307 139.290704,0.855056085 C139.458026,0.753966138 139.634017,0.653310053 139.817811,0.553087831 C140.001605,0.452865608 140.177597,0.369564021 140.345785,0.301447619 C140.747618,0.167817989 141.182395,0.0675957672 141.65185,-8.67724866e-05 L142.003399,-8.67724866e-05 L142.154249,-8.67724866e-05 L142.254382,-8.67724866e-05 L142.354948,-8.67724866e-05 L142.405232,-8.67724866e-05 L142.455948,-8.67724866e-05 L142.505798,-8.67724866e-05 L142.706931,-8.67724866e-05 C142.773687,0.0341883598 142.832639,0.0498074074 142.882489,0.0498074074 C142.932773,0.0498074074 142.990858,0.0675957672 143.058481,0.10013545 C143.325936,0.134410582 143.593824,0.234632804 143.862146,0.401669841 C144.096223,0.536601058 144.314262,0.737913228 144.515395,1.00560635 C144.682717,1.17351111 144.816661,1.39174392 144.917227,1.65900317 C145.050305,1.92843175 145.134399,2.12887619 145.16821,2.26250582 C145.201155,2.36272804 145.218494,2.46425185 145.218494,2.56447407 C145.218494,2.6646963 145.234966,2.76578624 145.268777,2.86600847 L145.268777,3.36928889 L145.268777,3.87170159 C145.268777,4.03960635 145.251871,4.20664339 145.218494,4.37498201 C145.218494,4.54288677 145.209824,4.70168042 145.193352,4.85223069 C145.176013,5.00364868 145.150871,5.16244233 145.118361,5.33034709 C145.050305,5.63101376 144.983983,5.93298201 144.917227,6.2345164 C144.849605,6.53648466 144.78285,6.82153228 144.716094,7.08965926 C144.648906,7.39162751 144.573481,7.68491852 144.490253,7.96996614 C144.406159,8.25501376 144.314262,8.53181799 144.213695,8.79907725 C144.213695,8.9001672 144.180318,9.05071746 144.113562,9.25202963 L143.962712,9.65422011 C143.89509,9.82255873 143.85391,9.96443175 143.837004,10.0811407 C143.819665,10.1991513 143.778052,10.3414582 143.711296,10.5084952 C143.543541,11.0451831 143.359747,11.5818709 143.159047,12.1172571 C142.958348,12.653945 142.756781,13.2075534 142.556082,13.7776487 C142.387893,14.3477439 142.204532,14.8918074 142.003399,15.4120085 C141.802266,15.9317757 141.601567,16.4758392 141.400433,17.0459344 C140.965223,18.1184423 140.546485,19.2000614 140.144652,20.2890561 C139.74282,21.3780508 139.307176,22.4588021 138.838588,23.5313101 C138.603644,24.0679979 138.377803,24.5964423 138.160197,25.1153418 C137.942159,25.635109 137.699845,26.1804741 137.431957,26.7492677 C137.197446,27.2859556 136.962502,27.8144 136.728425,28.3332995 C136.493914,28.8535005 136.242931,29.3984317 135.975043,29.9676593 C135.706721,30.5043471 135.447502,31.0327915 135.196519,31.551691 C134.945103,32.0714582 134.685451,32.6163894 134.417562,33.1856169 C134.283618,33.4541778 134.14924,33.7223048 134.016163,33.9908656 C133.881352,34.2589926 133.747408,34.5275534 133.613897,34.7948127 L133.161781,35.5996275 L132.960648,36.001818 C132.960648,36.2022624 132.943742,36.3536804 132.910798,36.4539026 C132.842742,37.0239979 132.801562,37.5776063 132.78509,38.1129926 C132.767751,38.6496804 132.726137,39.1863683 132.659382,39.7221884 C132.626004,40.2922836 132.600429,40.8458921 132.583957,41.3812783 C132.567052,41.9179661 132.54191,42.454654 132.508532,42.9904741 L132.508532,44.5745058 C132.508532,45.094273 132.54191,45.6049291 132.609099,46.1082095 C132.609099,46.6448974 132.659382,47.131691 132.759948,47.5659873 C132.826704,48.1026751 132.926837,48.5391407 133.061648,48.8732148 C133.161781,49.3096804 133.295292,49.6116487 133.463047,49.7786857 L133.563614,49.9799979 L133.663747,50.0802201 L133.714464,50.1305481 L133.764747,50.1305481 L133.814597,50.1305481 L133.915163,50.1305481 L134.367712,50.1305481 C134.701923,50.0980085 135.070811,49.9969185 135.473077,49.8285799 C135.840665,49.6615429 136.200884,49.4446116 136.552867,49.1751831 C136.904416,48.9079238 137.264202,48.5890349 137.63309,48.219818 C138.001112,47.8510349 138.343991,47.4657651 138.662597,47.0635746 C138.980768,46.661818 139.273365,46.2262201 139.54212,45.7563471 C140.144652,44.8513101 140.697335,43.8955111 141.199734,42.8902519 C141.333245,42.621691 141.450717,42.3713524 141.551283,42.1361989 C141.65185,41.9014794 141.768888,41.6507069 141.902833,41.3812783 C141.969588,41.2476487 142.028541,41.1222624 142.078824,41.0042519 C142.128674,40.8875429 142.187193,40.7621566 142.254382,40.6276593 L142.405232,40.275363 L142.556082,39.8736063 L142.556082,39.8232783 C142.656648,39.5551513 142.840442,39.3703259 143.108764,39.2701037 C143.376652,39.1698815 143.644107,39.1698815 143.911996,39.2701037 C144.447773,39.5048233 144.648906,39.8900931 144.515395,40.4259132 L144.465112,40.6775534 L144.414828,40.8792995 C144.414828,40.9795217 144.381017,41.1309397 144.314262,41.3313841 C144.280451,41.4992889 144.247073,41.6411619 144.213695,41.7591725 C144.180318,41.8763153 144.146506,42.0194899 144.113562,42.186527 C144.04594,42.454654 143.962712,42.7397016 143.862146,43.0403683 C143.762013,43.3423365 143.677918,43.6273841 143.611163,43.8955111 C143.510597,44.164072 143.41003,44.4408762 143.309897,44.7259238 C143.208897,45.0109714 143.108764,45.3033947 143.008197,45.6049291 L142.254382,47.264019 C142.019871,47.7672995 141.735077,48.3039873 141.400433,48.8732148 L141.400433,48.8732148 Z" id="Fill-1" fill="#57585A"></path>
                    <path d="M161.394315,29.2136063 C160.79135,29.2470138 160.305856,29.5654688 159.937401,30.1689714 C159.870212,30.2370878 159.769646,30.3707175 159.636135,30.5711619 C159.602758,30.6388444 159.568513,30.7139026 159.535569,30.7976381 C159.501758,30.8809397 159.467946,30.9572995 159.435002,31.0241143 C159.267247,31.3928974 159.16668,31.7447598 159.133736,32.0797016 C159.066114,32.4484847 158.999358,32.8003471 158.932603,33.1357228 C158.865414,33.4706646 158.814697,33.822527 158.782187,34.1913101 C158.747942,34.3592148 158.723234,34.5431725 158.706762,34.7444847 C158.688989,34.9462307 158.681187,35.1297545 158.681187,35.2980931 C158.647809,35.4659979 158.639139,35.6417122 158.656479,35.825236 C158.672951,36.0100614 158.681187,36.2022624 158.681187,36.4035746 C158.714564,36.5719132 158.731903,36.7484952 158.731903,36.932019 C158.731903,37.1159767 158.764848,37.3090455 158.832036,37.5094899 C158.832036,37.6444212 158.865414,37.8114582 158.932603,38.0127704 L158.932603,38.1633206 C158.932603,38.1975958 158.949509,38.2145164 158.982886,38.2145164 L158.982886,38.2644106 L158.982886,38.3147386 C159.01583,38.3824212 159.033603,38.4327492 159.033603,38.464855 C159.033603,38.499564 159.049642,38.5494582 159.083453,38.616273 C159.284152,39.3199979 159.602758,40.0415111 160.037968,40.7777757 C160.138101,40.946982 160.246903,41.0970984 160.364809,41.2311619 C160.481414,41.3656593 160.607122,41.5162095 160.741067,41.6832466 C160.908822,41.8511513 161.042766,41.9682942 161.143333,42.035109 C161.176277,42.0693841 161.260371,42.1197122 161.394315,42.186527 C161.494882,41.9179661 161.602818,41.6580825 161.720723,41.4064423 C161.837762,41.1556698 161.947431,40.8957862 162.047564,40.6272254 C162.214886,40.158654 162.373972,39.6805376 162.524822,39.1946116 C162.675238,38.7091196 162.817418,38.2145164 162.951796,37.711236 C163.085307,37.2422307 163.18544,36.755437 163.253496,36.2534582 C163.319818,35.7501778 163.386573,35.2468974 163.454195,34.7444847 C163.487139,34.2412042 163.495809,33.7474688 163.479337,33.2606751 C163.461998,32.7751831 163.420384,32.2979344 163.353629,31.8280614 C163.319818,31.3928974 163.219251,30.9729185 163.051929,30.5711619 C162.884174,30.1021566 162.717285,29.7837016 162.54953,29.6157968 C162.415586,29.4821672 162.315019,29.3984317 162.248264,29.3641566 C162.181075,29.2639344 162.097414,29.2136063 161.997281,29.2136063 C161.96347,29.2136063 161.929659,29.205363 161.896715,29.1884423 C161.863337,29.1719556 161.81262,29.1632783 161.745865,29.1632783 C161.611921,29.1632783 161.494882,29.1801989 161.394315,29.2136063 M158.079088,47.0635746 C158.413298,46.7286328 158.731903,46.3598497 159.033603,45.9567915 C159.066114,45.9567915 159.083453,45.9411725 159.083453,45.9068974 C158.915697,45.8400825 158.773517,45.7732677 158.656479,45.7064529 C158.539006,45.6396381 158.396393,45.5728233 158.229504,45.5047069 C157.894427,45.3376698 157.576689,45.1610878 157.274989,44.9762624 C156.973723,44.7927386 156.688929,44.599236 156.421041,44.3987915 C155.34862,43.4937545 154.444388,42.454654 153.708345,41.2810561 C153.64029,41.2142413 153.540157,41.0797439 153.406646,40.8788656 L153.356796,40.7274476 L153.306079,40.7274476 L153.306079,40.6775534 L153.306079,40.6272254 C153.272702,40.593818 153.24756,40.5604106 153.231088,40.5270032 C153.213749,40.4935958 153.188607,40.4601884 153.15523,40.4259132 C153.088041,40.2588762 153.013049,40.0918392 152.929388,39.9235005 C152.845294,39.7564635 152.770303,39.5885587 152.703547,39.4202201 C152.434792,38.7512042 152.234092,38.0808868 152.100582,37.4092677 C151.966637,36.7732254 151.899882,36.0695005 151.899882,35.2980931 L151.899882,34.6945905 C151.866071,34.7279979 151.840929,34.762273 151.824024,34.7948127 C151.807118,34.8282201 151.781976,34.8624952 151.749032,34.8950349 C151.179011,35.6664423 150.676612,36.471691 150.242268,37.3090455 C149.337603,38.9516487 148.634504,40.6953418 148.132105,42.5383894 C148.031539,43.0082624 147.938775,43.4603471 147.855547,43.8955111 C147.771886,44.3319767 147.712933,44.7840614 147.679989,45.2530667 C147.578989,46.191945 147.595895,46.9967598 147.729839,47.6670772 C147.762783,47.9690455 147.846878,48.3039873 147.981255,48.6727704 C148.048011,48.8064 148.114333,48.932654 148.182388,49.0497968 C148.249144,49.1678074 148.315899,49.276273 148.383088,49.3764952 C148.483655,49.4767175 148.575552,49.569564 148.659646,49.6532995 C148.74244,49.7366011 148.851242,49.8129608 148.986054,49.8789079 C149.219697,50.0134053 149.504491,50.1305481 149.840002,50.2316381 C150.040702,50.2984529 150.224496,50.3318603 150.392251,50.3318603 C150.492818,50.3318603 150.576479,50.348781 150.643667,50.3821884 L150.794517,50.3821884 L150.945367,50.3821884 L151.548333,50.3821884 C151.648466,50.3821884 151.749032,50.3735111 151.849165,50.3570243 C151.949732,50.3401037 152.050732,50.3318603 152.150865,50.3318603 C152.987474,50.2316381 153.808479,49.9799979 154.612144,49.5782413 C155.44962,49.1426434 156.23638,48.639363 156.973723,48.0692677 C157.174423,47.9022307 157.366886,47.7338921 157.551114,47.5659873 C157.735341,47.3989503 157.910899,47.2319132 158.079088,47.0635746 M171.391582,40.7274476 C171.056071,41.2311619 170.704521,41.6663259 170.3365,42.035109 C169.967612,42.4715746 169.574448,42.8902519 169.156144,43.2920085 C168.736539,43.6941989 168.27662,44.0803365 167.774221,44.4491196 C167.53971,44.6170243 167.296964,44.7840614 167.045981,44.9515323 C166.794564,45.119437 166.518873,45.2873418 166.217174,45.4548127 C165.614208,45.7897545 165.011242,46.0249079 164.40871,46.1585376 C163.805745,46.3598497 163.13559,46.460072 162.399114,46.460072 L162.148131,46.460072 L161.394315,47.6670772 C160.757972,48.6727704 160.070912,49.594728 159.334436,50.4320825 C158.932603,50.9019556 158.505629,51.3375534 158.053946,51.7393101 C157.601397,52.1415005 157.124139,52.5267704 156.622174,52.8964212 C156.353418,53.0634582 156.085964,53.2304952 155.818075,53.3988339 C155.549753,53.5667386 155.265393,53.7337757 154.964127,53.9021143 C154.796371,53.9689291 154.645521,54.0270667 154.512011,54.0773947 C154.377633,54.1285905 154.227217,54.1858603 154.059895,54.2539767 C153.824951,54.3876063 153.507212,54.5056169 153.10538,54.6058392 C152.937191,54.672654 152.778539,54.7143048 152.628122,54.7312254 C152.477273,54.7477122 152.318187,54.7728762 152.150865,54.8071513 C151.982676,54.839691 151.815788,54.864855 151.648466,54.8822095 C151.480277,54.8991302 151.313388,54.9242942 151.146067,54.9577016 L150.895084,54.9577016 L150.744234,54.9577016 L150.693951,54.9577016 L150.643667,54.9577016 C150.509723,54.991109 150.342401,55.0075958 150.141268,55.0075958 C149.973513,54.9741884 149.797521,54.9577016 149.614161,54.9577016 C149.4295,54.9577016 149.237036,54.940781 149.035903,54.9073735 C148.298994,54.8071513 147.562084,54.6058392 146.826041,54.3038709 C146.456719,54.1359661 146.10517,53.9342201 145.770959,53.7003683 C145.435448,53.4656487 145.11771,53.2140085 144.816011,52.9467492 C144.213045,52.4096275 143.727552,51.7896381 143.359097,51.0859132 C143.158397,50.7171302 142.990642,50.3735111 142.857131,50.0550561 C142.722753,49.7366011 142.606148,49.3934159 142.505582,49.0246328 C142.304448,48.4211302 142.154032,47.7508127 142.053032,47.0136804 C141.986277,46.6783048 141.952899,46.3516063 141.952899,46.0331513 C141.952899,45.7146963 141.936427,45.3879979 141.902616,45.0526222 C141.902616,43.7788021 142.003182,42.5383894 142.203882,41.3313841 C142.304448,40.7274476 142.421487,40.1334899 142.555431,39.5469079 C142.688942,38.9598921 142.839792,38.3824212 143.007547,37.8114582 C143.342191,36.7055429 143.744457,35.5831407 144.213045,34.4429503 C144.648255,33.3704423 145.184466,32.280146 145.820809,31.1746646 C146.122509,30.6045693 146.448916,30.0687492 146.800466,29.5654688 C147.152448,29.0621884 147.545178,28.5432889 147.981255,28.0066011 C148.182388,27.7393418 148.39956,27.4877016 148.634504,27.2525481 C148.868148,27.0186963 149.119564,26.7839767 149.387453,26.5488233 C149.856474,26.0802519 150.425629,25.6103788 151.095783,25.1405058 C151.731693,24.6715005 152.469036,24.2862307 153.306079,23.9842624 C153.507212,23.8840402 153.716148,23.8081143 153.934187,23.7577862 C154.151792,23.7078921 154.377633,23.6493206 154.612144,23.5825058 L155.365959,23.4310878 L155.768225,23.4310878 C155.80117,23.4310878 155.825878,23.4237122 155.843217,23.4059238 C155.860122,23.389437 155.901303,23.3807598 155.968925,23.3807598 L156.069058,23.3807598 L156.119775,23.3807598 C156.855818,23.3473524 157.533775,23.4987704 158.154079,23.8328444 C158.773517,24.1690878 159.267247,24.6211725 159.636135,25.1912677 C160.171479,25.0901778 160.774011,25.0398497 161.444599,25.0398497 C161.645732,25.073691 161.846431,25.0997228 162.047564,25.1153418 C162.248264,25.1331302 162.465869,25.174781 162.70038,25.2415958 C163.169401,25.4095005 163.571234,25.5934582 163.906311,25.7939026 C164.274333,26.0290561 164.626315,26.3149714 164.960959,26.6490455 C165.228848,26.9844212 165.463358,27.3206646 165.664491,27.6547386 C165.865624,27.9896804 166.024277,28.3259238 166.141749,28.6599979 C166.258788,28.9962413 166.350685,29.3316169 166.417873,29.665691 C166.484629,30.0019344 166.534912,30.3195217 166.568723,30.6210561 C166.601667,30.9230243 166.619006,31.2423471 166.619006,31.5764212 C166.651517,32.1799238 166.643715,32.7751831 166.593865,33.3621989 C166.543582,33.948781 166.468157,34.5275534 166.368024,35.0963471 C166.166457,36.269945 165.915908,37.376728 165.614208,38.4149608 C165.446453,38.9850561 165.279131,39.5299873 165.111809,40.0488868 C164.944054,40.5690878 164.742921,41.0970984 164.508843,41.6329185 C164.441655,41.8346646 164.365796,42.0277333 164.283002,42.2112571 C164.198908,42.3960825 164.123483,42.5882836 164.057161,42.7900296 C164.224049,42.7566222 164.391371,42.7314582 164.55956,42.7136698 C164.726448,42.6980508 164.89377,42.6564 165.061959,42.5882836 C165.262659,42.5214688 165.471161,42.4464106 165.690067,42.3618074 C165.906805,42.2793735 166.133079,42.186527 166.368024,42.0863048 C166.802367,41.8845587 167.229775,41.6507069 167.648946,41.3812783 C168.067251,41.114019 168.477753,40.8289714 168.879586,40.5270032 C169.080285,40.3590984 169.272749,40.1920614 169.45741,40.0237228 C169.641204,39.8566857 169.834101,39.6896487 170.0348,39.5217439 C170.236367,39.3534053 170.428397,39.1698815 170.613058,38.9681354 C170.796418,38.7668233 170.97241,38.5828656 171.140165,38.4149608 C171.307921,38.2479238 171.491715,38.155945 171.692848,38.1381566 C171.893981,38.1225376 172.077775,38.1975958 172.24553,38.3646328 C172.57974,38.7000085 172.630024,39.0362519 172.39638,39.3703259 C172.228191,39.6050455 172.060869,39.8319556 171.893981,40.0488868 C171.726225,40.2671196 171.55847,40.4935958 171.391582,40.7274476" id="Fill-4" fill="#57585A"></path>
                    <path d="M198.642205,33.7170984 C199.468845,32.1938074 200.350102,30.813691 201.287712,29.5789185 C202.224454,28.3445799 203.171167,27.3323788 204.125682,26.5444847 C205.08063,25.7565905 205.980527,25.3253312 206.827973,25.2511407 C207.885656,25.158728 208.562312,25.5800085 208.857943,26.5145481 C209.152707,27.4490878 209.111961,28.5736593 208.737003,29.8873947 C208.360746,31.2006963 207.658514,32.5352571 206.622939,33.8828339 C205.582596,35.2369185 203.947523,36.4582413 202.839557,36.9975323 C201.653566,37.5750032 200.768407,37.9524635 199.695986,38.1316487 C198.623999,38.3117016 197.340042,38.3216804 196.517304,38.2448868 C197.146278,36.6530455 197.815566,35.241691 198.642205,33.7170984 M209.961141,48.197691 C209.640802,48.3990032 209.304858,48.7066116 207.245411,49.6185905 C206.279626,50.0468127 203.991304,50.8229926 202.156398,50.9423048 C200.761038,51.032982 197.895325,51.1956804 196.250282,49.6333418 C194.684566,48.1469291 194.573596,46.0921566 194.646853,45.2838709 C194.766926,43.965363 194.857956,43.3839873 195.241149,42.0238286 C196.359952,42.1396698 197.669051,42.1106011 199.168445,41.9357545 C200.666973,41.7626434 202.345827,41.3929926 204.359325,40.4931619 C205.826643,39.8375958 207.301763,38.6817862 208.593523,37.3962519 C209.854939,36.1410878 210.890514,34.7614053 211.720621,33.2801989 C212.551162,31.7985587 213.09084,30.2891513 213.340523,28.751109 C213.590205,27.2143683 213.480536,25.8472677 213.014115,24.6493735 C212.546394,23.4519132 211.664703,22.516072 210.369042,21.8388127 C209.072081,21.162855 207.259716,20.9259661 204.932381,21.1298815 C201.376141,21.4413947 198.3236,22.5091302 195.774759,24.3339556 C193.224617,26.1579132 191.208952,28.3515217 189.72733,30.9152148 C188.780184,32.5530455 188.058012,34.2464106 187.556046,35.9935746 C187.556046,35.9935746 187.554312,35.9927069 187.553445,35.9927069 C186.949613,35.8556063 185.448918,36.1471619 185.232179,37.5671937 C185.024111,38.9308233 186.235677,39.7495217 186.817403,39.8649291 C186.570755,42.3639767 186.786192,44.6777651 187.468918,46.8032571 C188.229669,49.1699767 190.016458,51.5293206 191.989209,52.758019 C193.887836,53.9402942 197.496961,54.8999979 199.834265,54.8817757 C202.119553,54.8639873 204.64542,54.404527 206.501566,53.8977757 C208.358145,53.3914582 211.604883,51.7852995 212.112484,51.3223683 C214.011111,49.5908233 211.775239,47.0575005 209.961141,48.197691" id="Fill-6" fill="#FCB833"></path>
                    <path d="M246.816127,45.0444656 C246.835634,43.3137884 247.116527,41.3995873 247.657939,39.3027302 C248.200651,37.2063069 248.941462,35.1975238 249.882973,33.2802857 C250.356329,32.2320741 250.898608,31.3040423 251.775097,30.0406349 C252.687132,28.7646455 253.805501,27.6995132 255.00493,26.9415556 C256.203926,26.1835979 258.26814,25.6707725 259.495312,25.5631746 C260.892406,25.4408254 261.905441,25.9284868 262.534415,27.0261587 C263.164256,28.1238307 263.458153,29.5390899 263.417406,31.2715026 C263.377093,33.0043492 263.04375,34.9228889 262.416943,37.0266878 C261.791003,39.1313545 260.919715,41.1284233 259.805248,43.0191958 C259.805248,43.0191958 258.605818,44.9073651 257.100788,46.5052804 C255.823767,47.8611005 255.27802,48.329672 254.184793,49.0594286 C253.091132,49.7887513 251.245823,50.4564656 250.303445,50.5345608 C249.361067,50.6130899 248.192415,50.2920317 247.630196,49.231672 C247.068411,48.1700106 246.797488,46.7751429 246.816127,45.0444656 M242.019711,32.7930582 C240.971999,34.4642963 240.121085,36.2032169 239.468269,38.0115556 C238.816754,39.8190265 238.403218,41.5635873 238.230261,43.2435026 C238.05687,44.9238519 238.142265,46.506582 238.485578,47.9925608 C238.828891,49.4772381 239.473904,50.7558307 240.41975,51.8253016 C241.367329,52.8952063 242.620509,53.6930794 244.180158,54.2180529 C245.740673,54.7434603 249.765067,55.3526032 253.182162,54.1213016 C256.599256,52.89 259.580273,49.7093545 261.224016,47.5383069 C262.868625,45.3659577 264.185093,43.094254 265.171685,40.7240635 C266.159145,38.3534392 266.816295,35.9901905 267.143136,33.6347513 C267.469977,31.2788783 267.424896,29.1694392 267.006158,27.3068677 C266.586986,25.4434286 265.784188,23.9444339 264.597329,22.8107513 C263.410471,21.6757672 261.795338,21.1351746 259.752364,21.1859365 C256.902256,21.2653333 254.245046,21.9773016 251.7816,23.3248783 C249.318587,24.6711534 247.133432,26.3896825 245.225703,28.4774286 C243.409436,30.4593122 243.278093,31.0038095 242.019711,32.7930582" id="Fill-8" fill="#FCB833"></path>
                    <path d="M237.988511,14.0890751 C237.649966,13.4868741 237.191348,12.9141757 236.612223,12.3701122 C236.032665,11.8273503 235.383318,11.3540063 234.664614,10.9500804 C233.944609,10.5470222 233.243678,10.2637101 232.560086,10.1001439 C231.875627,9.93787937 231.25879,9.92790053 230.709575,10.0702074 C230.159927,10.213382 229.76503,10.5596042 229.524884,11.1093079 C229.336755,11.5301545 228.914549,12.4772762 228.257399,13.950673 C227.599382,15.4245037 226.839064,17.2237312 225.974712,19.350091 C225.110361,21.4768847 224.207429,23.8301545 223.267219,26.4099005 C222.326575,28.9896466 221.235082,32.2110751 220.474764,34.8003661 C219.713146,37.3896571 219.111914,39.9051915 218.668468,42.3487048 C218.225455,44.792218 217.899481,47.1155513 218.069837,48.9664085 C218.202914,50.415509 218.790708,52.0433608 219.617781,53.1262815 C220.761725,54.6252762 222.676391,54.8643344 223.959047,54.9619534 C225.014562,55.0426519 227.298116,54.679509 228.468502,54.2547577 C229.590339,53.8473608 231.573927,53.0434138 232.750382,52.4650751 C233.719202,51.9886942 234.483421,51.5153503 234.785554,51.2333397 C236.311391,49.8094032 234.670682,46.961964 232.399266,48.3169164 C232.034279,48.5342815 231.451253,48.8588106 230.827481,49.2124085 C229.549592,49.9369587 227.911485,50.7612974 226.314991,50.9118476 C224.547275,51.0780169 223.216936,50.3048741 223.008,48.8293079 C222.799064,47.3541757 224.795223,43.0819323 225.686451,41.1364931 C226.577245,39.1901862 227.547798,37.1822709 228.598979,35.1088423 C229.649725,33.0371492 230.962292,30.3485037 232.054652,28.3167259 C233.147446,26.285382 234.146176,24.4106624 235.053442,22.6930011 C235.959408,20.9753397 236.716691,19.5132233 237.324425,18.3057841 C237.931292,17.0996466 238.274172,16.2770434 238.352631,15.8379746 C238.447996,15.275255 238.326189,14.6921439 237.988511,14.0890751" id="Fill-10" fill="#FCB833"></path>
                    <path d="M286.827342,25.3334011 C288.422102,22.8534434 290.748136,19.1491259 292.3559,16.8500889 C292.712218,16.3403005 287.419905,17.4492529 285.497003,18.0579619 C283.574102,18.6679725 281.763471,19.1734222 280.065111,19.5760466 C278.365883,19.9799725 276.762454,20.5426921 275.401338,20.7262159 C274.040656,20.9101735 272.94266,20.9921735 272.106918,20.9735175 C271.458437,20.9726497 271.000252,20.7596233 270.72933,20.334872 C270.45884,19.9109884 270.334433,19.379073 270.356106,18.7399937 C270.37778,18.1026497 270.592785,17.139909 270.854171,16.3927979 C271.113823,15.6461206 271.459737,14.9293799 271.890613,14.2412741 C272.321055,13.5544698 272.797879,12.9396868 273.320218,12.4003958 C273.841257,11.8606709 274.389604,11.4966603 274.963527,11.308364 C275.934081,10.992946 277.272222,10.8914222 278.977952,11.0042265 C280.682815,11.1174646 282.506016,11.2450201 284.447124,11.3886286 C286.387364,11.5335386 288.317201,11.5990519 290.235334,11.5864698 C292.1526,11.5747556 294.336888,11.1113905 295.267561,10.6527979 C296.198235,10.1942053 296.880527,9.82325291 297.874922,9.98117884 C298.86975,10.1399725 299.770514,10.5278455 300.578948,11.1460995 C301.386514,11.7643534 302.00942,12.5444381 302.449398,13.4841841 C302.888076,14.4252317 302.898046,15.358036 302.478875,16.282163 C302.269506,16.7450942 301.927059,17.5689989 300.990317,18.4284804 C297.070823,22.0252 292.853098,27.5196339 290.193287,30.9215492 C284.342222,38.4043746 283.082973,41.2587556 281.743098,43.4432529 C279.913394,46.4251894 276.290398,53.7652741 275.735982,54.3830942 C274.968295,55.2386709 274.107411,55.0256444 273.502278,54.840819 C272.895845,54.6546921 272.138128,53.6628825 272.476239,52.5630413 C272.680407,51.8979302 278.982287,39.2018138 280.365943,36.6511365 C281.597016,34.5833481 284.891437,28.3435386 286.827342,25.3334011" id="Fill-12" fill="#FCB833"></path>
                    <path d="M32.0946356,23.6325302 C32.0270133,23.8676836 31.9602579,24.1527312 31.8935026,24.4868053 C32.161391,24.1193238 32.4123738,23.7327524 32.6468845,23.3305619 C32.8805283,22.9288053 33.1154725,22.5435354 33.3499833,22.1738847 C34.5221034,20.1629323 35.5776185,18.1350593 36.5152279,16.0906995 C37.4528373,14.0459058 38.3067858,11.9338635 39.0775069,9.75457249 C39.1438288,9.62094286 39.1945455,9.49555661 39.2279232,9.37754603 C39.2613009,9.26040317 39.2946785,9.11853016 39.3284897,8.9506254 C39.3952451,8.81699577 39.4450948,8.69030794 39.4793395,8.57359894 C39.5122837,8.45558836 39.5460948,8.31371534 39.579906,8.14537672 C39.6466614,7.87811746 39.7129833,7.60955661 39.7806056,7.34142963 C39.8473609,7.07286878 39.8976442,6.80560952 39.9314554,6.53618095 C39.9982107,6.26892169 40.048494,6.00079471 40.0823052,5.73223386 C40.1152494,5.46410688 40.1321549,5.19684762 40.1321549,4.92741905 L40.1321549,4.17336614 C40.0983438,4.03973651 40.0823052,3.91435026 40.0823052,3.79633968 C40.0823052,3.67963069 40.048494,3.56986349 39.9817386,3.46964127 C39.9141163,3.20108042 39.8473609,3.03404339 39.7806056,2.96636085 C39.7806056,2.89954603 39.7467944,2.86613862 39.6800391,2.86613862 C39.6800391,2.83273122 39.671803,2.81581058 39.6548974,2.81581058 C39.6379918,2.81581058 39.6297558,2.83273122 39.6297558,2.86613862 L39.6297558,2.9160328 L39.579906,2.9160328 L39.5291893,2.96636085 L39.4793395,2.96636085 L39.4290562,3.01625503 C39.3952451,3.01625503 39.3449618,3.05096402 39.2782064,3.11777884 C39.1438288,3.15118624 39.0267901,3.25140847 38.9266571,3.41931323 C38.8590348,3.48612804 38.7922794,3.55294286 38.725524,3.62019153 C38.6583352,3.68787407 38.5915798,3.75468889 38.5248245,3.8215037 C38.4246914,3.98940847 38.3150219,4.17336614 38.1979833,4.37511217 C38.0800777,4.57555661 37.9552365,4.77686878 37.8212923,4.97731323 L37.2183266,6.33573651 C37.1181936,6.60429735 37.017627,6.84639259 36.9170605,7.0646254 C36.8169275,7.2828582 36.7163609,7.52625503 36.6153609,7.79351429 C36.5481721,8.06207513 36.4649446,8.31371534 36.3648116,8.5475672 C36.2638116,8.78228677 36.1636785,9.03392698 36.063112,9.30248783 L35.5108631,10.8101598 C35.1415412,11.850128 34.8068974,12.897472 34.5056313,13.9530593 C34.2047987,15.0086466 33.9030991,16.0737788 33.6013996,17.1462868 C33.0313781,19.3251439 32.528979,21.4879481 32.0946356,23.6325302 L32.0946356,23.6325302 Z M41.4382193,43.8956413 C41.2037086,44.4657365 40.9527258,45.019345 40.6848373,45.5547312 C40.4165155,46.091419 40.1490605,46.6281069 39.8811721,47.163927 C39.579906,47.7006148 39.2613009,48.2290593 38.9266571,48.7479587 C38.5915798,49.2677259 38.2231249,49.778382 37.8212923,50.2816624 C37.6535369,50.5502233 37.4610734,50.8018635 37.2434682,51.0357153 C37.0254296,51.2704349 36.7995884,51.5047206 36.5655112,51.7394402 C36.2967558,51.9732921 36.0379704,52.1997683 35.7865541,52.4180011 C35.5355712,52.6362339 35.2594468,52.8462233 34.9577472,53.0466677 C34.2875927,53.4822656 33.6178717,53.8172074 32.9485841,54.0523608 C32.6130734,54.1859905 32.2277129,54.2870804 31.7929361,54.3538952 C31.6923695,54.3873026 31.5922365,54.4042233 31.49167,54.4042233 C31.3911034,54.4042233 31.2909704,54.4207101 31.1899704,54.455419 L30.8887043,54.455419 L30.7378545,54.455419 L30.6880047,54.455419 L30.6377215,54.455419 L30.5371549,54.455419 C30.0009446,54.455419 29.4647343,54.3538952 28.929391,54.1534508 C28.6606356,54.0523608 28.4183223,53.9343503 28.2011506,53.8015884 C27.9826785,53.667091 27.7741764,53.515673 27.5730433,53.348636 C27.405288,53.1802974 27.2379661,53.0132603 27.0710777,52.8462233 C26.9028888,52.6783185 26.7520391,52.5099799 26.6185283,52.3429429 C26.4845841,52.1750381 26.367112,51.9984561 26.266979,51.8144984 C26.1664124,51.6309746 26.0662794,51.4543926 25.9657129,51.2873556 C25.8647129,51.1203185 25.7723824,50.9519799 25.6891549,50.7840751 C25.6050605,50.6170381 25.5300691,50.4500011 25.4633137,50.2816624 C25.3952579,50.1137577 25.3285026,49.954964 25.2626142,49.803546 C25.1945584,49.6534296 25.127803,49.494636 25.0610476,49.3262974 C24.9609146,48.9913556 24.8681506,48.6642233 24.7853567,48.3457683 C24.7012622,48.0273132 24.6254039,47.7006148 24.5586485,47.365673 C24.2573824,46.091419 24.0562494,44.8510063 23.9561163,43.6440011 C23.888494,43.0404984 23.8386442,42.4296201 23.8057,41.8096307 C23.7714554,41.1892074 23.7549833,40.5774614 23.7549833,39.9739587 L23.7549833,38.1630169 C23.7883609,37.8623503 23.8057,37.5608159 23.8057,37.2588476 C23.8057,36.9573132 23.8217386,36.6722656 23.8555498,36.4037048 C23.8555498,36.2366677 23.8633524,36.0696307 23.8806914,35.9017259 C23.8971635,35.7333873 23.905833,35.5663503 23.905833,35.3984455 C23.8724554,35.0296624 23.905833,34.627472 24.0063996,34.1910063 C24.0731549,33.3536519 24.1572494,32.5319164 24.2573824,31.7279693 C24.3579489,30.9227206 24.4585155,30.1022868 24.5586485,29.2636307 C24.8932923,26.9173026 25.3124639,24.5961386 25.8148631,22.3001386 C26.3172622,20.0041386 26.9362665,17.6994614 27.6731764,15.385673 C27.8409318,14.8164455 28.0255927,14.2550275 28.2262923,13.701419 C28.4269918,13.1491122 28.644597,12.5872603 28.8795412,12.0171651 C28.9796742,11.7499058 29.0802408,11.4639905 29.1808073,11.1620222 C29.2809403,10.8613556 29.3984124,10.5763079 29.5323567,10.3077471 C29.6658674,10.0396201 29.7833395,9.76281587 29.883906,9.47776825 C29.9844725,9.19358836 30.1015112,8.91721799 30.2354554,8.64865714 C30.7707987,7.47505926 31.3737644,6.38606455 32.0439189,5.38037143 C32.6798288,4.34170476 33.483494,3.33601164 34.4553481,2.3628582 C34.5888588,2.2300963 34.714567,2.10384233 34.8320391,1.98583175 C34.9495112,1.86868889 35.0912579,1.76022328 35.2594468,1.65913333 C35.3929575,1.5255037 35.5269017,1.40749312 35.6612794,1.3072709 C35.7943567,1.20704868 35.9452064,1.10682646 36.1133953,1.00530265 C36.2807172,0.905080423 36.4476056,0.804858201 36.6153609,0.703768254 C36.7831163,0.603546032 36.9677773,0.519810582 37.1684768,0.452995767 C37.5364983,0.251683598 37.9383309,0.117620106 38.3739747,0.0499375661 C38.5074854,0.0173978836 38.6331936,4.33862442e-05 38.7510991,4.33862442e-05 L39.0775069,4.33862442e-05 L39.4290562,4.33862442e-05 L39.4793395,4.33862442e-05 L39.5291893,4.33862442e-05 L39.6297558,4.33862442e-05 C39.6969446,4.33862442e-05 39.7467944,0.0173978836 39.7806056,0.0499375661 C39.9817386,0.0499375661 40.2491936,0.117620106 40.5847043,0.251683598 C40.8183481,0.35190582 41.0697644,0.50332381 41.3376528,0.703768254 C41.4382193,0.804858201 41.5301163,0.91332381 41.6142107,1.03046667 C41.6978717,1.14847725 41.7728631,1.25694286 41.8404854,1.35716508 C41.9735627,1.55891111 42.0741292,1.77714392 42.1417515,2.01099577 C42.2752622,2.38064656 42.3428845,2.7659164 42.3428845,3.16767302 C42.3758288,3.53732381 42.3758288,3.88007513 42.3428845,4.19853016 C42.3090734,4.51785291 42.2587901,4.82719683 42.1920348,5.12873122 C42.1244124,5.46410688 42.0663266,5.77431852 42.0164768,6.05936614 C41.9657601,6.34441376 41.9068073,6.63770476 41.8404854,6.93837143 C41.7728631,7.23990582 41.6896356,7.53449841 41.5890691,7.81867831 C41.4885026,8.10372593 41.4044082,8.38053016 41.3376528,8.64865714 C41.2704639,8.81699577 41.2288502,8.96711217 41.2123781,9.1007418 C41.1954725,9.23567302 41.1534253,9.36930265 41.08667,9.50293228 L40.7854039,10.3580751 C40.617215,10.9281704 40.4416571,11.481345 40.2578631,12.0171651 C40.0732021,12.5538529 39.8811721,13.1074614 39.6800391,13.676255 C39.579906,13.9456836 39.4793395,14.2129429 39.3783395,14.4815037 C39.2782064,14.7496307 39.1776399,15.0181915 39.0775069,15.2854508 L38.4745412,16.9445407 C37.670876,19.1238317 36.8169275,21.2862021 35.9122622,23.431218 C35.0084639,25.6100751 34.0539489,27.7724455 33.0487172,29.9174614 C32.7803953,30.4541492 32.5211764,30.990837 32.270627,31.5266571 C32.0192107,32.063345 31.7591249,32.6000328 31.49167,33.135419 C31.3234811,33.4039799 31.1813009,33.6807841 31.0642622,33.9658317 C30.9472236,34.2508794 30.8215155,34.5272497 30.6880047,34.794509 L30.2354554,35.5997577 L30.0347558,36.0019481 C30.0009446,36.1355778 29.9844725,36.2700751 29.9844725,36.4037048 C29.9844725,36.538636 29.967567,36.6887524 29.9341893,36.8557894 C29.9008116,37.125218 29.883906,37.4020222 29.883906,37.6862021 C29.883906,37.9712497 29.8670004,38.2476201 29.8340562,38.516181 C29.7998116,38.7843079 29.7751034,39.0515672 29.7581979,39.320128 C29.7412923,39.5886889 29.7161506,39.8568159 29.6832064,40.1240751 C29.6493953,40.695472 29.6242536,41.2391016 29.6073481,41.7593026 C29.5904425,42.2795037 29.5826399,42.8231333 29.5826399,43.3932286 L29.5826399,44.9512286 C29.5826399,45.2206571 29.5904425,45.479673 29.6073481,45.7313132 C29.6242536,45.9820857 29.6493953,46.242837 29.6832064,46.5100963 C29.7161506,46.7786571 29.7412923,47.0302974 29.7581979,47.2641492 C29.7751034,47.4993026 29.8167172,47.7340222 29.883906,47.9691757 C29.9506614,48.2038952 30.0096142,48.4212603 30.0598974,48.6225725 C30.1097472,48.8230169 30.1682665,49.0078423 30.2354554,49.1748794 C30.3022107,49.4100328 30.3689661,49.5614508 30.4365884,49.6282656 C30.4699661,49.7961704 30.5198159,49.8963926 30.5870047,49.9298 C30.6537601,49.9966148 30.6880047,50.0469429 30.6880047,50.0803503 L30.7885712,50.1302444 L30.838421,50.1302444 L30.9892708,50.1302444 L31.2402536,50.1302444 C31.4743309,50.1302444 31.6585584,50.1137577 31.7929361,50.0803503 C32.0608245,50.0469429 32.4288459,49.9133132 32.8983009,49.6781598 C33.3330777,49.4443079 33.7184382,49.1926677 34.0539489,48.9245407 C34.2546485,48.7562021 34.4553481,48.5974085 34.6564811,48.4459905 C34.8576142,48.2958741 35.0414082,48.1370804 35.2091635,47.9691757 C35.5776185,47.6003926 35.9291678,47.214255 36.2638116,46.8120646 C36.5984554,46.4098741 36.9335326,45.9747101 37.2686099,45.504837 C37.6032536,45.0692392 37.9218588,44.6171545 38.2231249,44.1472815 C38.5248245,43.6787101 38.8087515,43.2084032 39.0775069,42.7398317 C39.2443953,42.5046783 39.3865755,42.2699587 39.5040476,42.0348053 C39.6210863,41.8009534 39.7637,41.5493132 39.9314554,41.2811862 C39.9982107,41.1475566 40.0571635,41.0221704 40.1074468,40.9041598 C40.1572966,40.7870169 40.2158159,40.660763 40.2830047,40.5271333 L40.4837043,40.1752709 L40.6345541,39.8234085 L40.6848373,39.7722127 C40.8183481,39.5049534 41.0112451,39.320128 41.2626614,39.2199058 C41.5140777,39.1188159 41.7728631,39.1361704 42.0416185,39.2698 C42.5765283,39.5383608 42.7611893,39.9570381 42.5938674,40.5271333 L42.5435841,40.7275778 L42.4937343,40.979218 C42.4599232,41.0473344 42.4096399,41.180964 42.3428845,41.3814085 C42.2752622,41.5493132 42.224979,41.6924878 42.1920348,41.8096307 C42.1582236,41.9272074 42.1083738,42.0695143 42.0416185,42.2365513 L41.4382193,43.8956413 Z" id="Fill-15" fill="#57585A"></path>
                    <path d="M59.6242013,29.2136063 C59.0212356,29.2470138 58.5357421,29.5654688 58.1672871,30.1689714 C58.1000983,30.2370878 57.9995318,30.3707175 57.866021,30.5711619 C57.8326433,30.6388444 57.7983987,30.7139026 57.7654545,30.7976381 C57.7316433,30.8809397 57.6978322,30.9572995 57.664888,31.0241143 C57.4971326,31.3928974 57.3965661,31.7447598 57.3636219,32.0797016 C57.2959996,32.4484847 57.2292442,32.8003471 57.1624888,33.1357228 C57.0953,33.4706646 57.0445833,33.822527 57.0120725,34.1913101 C56.9778279,34.3592148 56.9531197,34.5431725 56.9366476,34.7444847 C56.9188751,34.9462307 56.9110725,35.1297545 56.9110725,35.2980931 C56.8776948,35.4659979 56.8690253,35.6417122 56.8863644,35.825236 C56.9028365,36.0100614 56.9110725,36.2022624 56.9110725,36.4035746 C56.9444502,36.5719132 56.9617893,36.7484952 56.9617893,36.932019 C56.9617893,37.1159767 56.9947335,37.3090455 57.0619223,37.5094899 C57.0619223,37.6444212 57.0953,37.8114582 57.1624888,38.0127704 L57.1624888,38.1633206 C57.1624888,38.1975958 57.1793944,38.2145164 57.2127721,38.2145164 L57.2127721,38.2644106 L57.2127721,38.3147386 C57.2457163,38.3824212 57.2634888,38.4327492 57.2634888,38.464855 C57.2634888,38.499564 57.2795275,38.5494582 57.3133386,38.616273 C57.5140382,39.3199979 57.8326433,40.0415111 58.2678536,40.7777757 C58.3679867,40.946982 58.4767893,41.0970984 58.5946948,41.2311619 C58.7113,41.3656593 58.8370082,41.5162095 58.9709524,41.6832466 C59.1387077,41.8511513 59.2726519,41.9682942 59.3732185,42.035109 C59.4061627,42.0693841 59.4902571,42.1197122 59.6242013,42.186527 C59.7247678,41.9179661 59.8327034,41.6580825 59.950609,41.4064423 C60.0676476,41.1556698 60.1773172,40.8957862 60.2774502,40.6272254 C60.4447721,40.158654 60.6038579,39.6805376 60.7547077,39.1946116 C60.905124,38.7091196 61.0473043,38.2145164 61.181682,37.711236 C61.3151927,37.2422307 61.4153258,36.755437 61.4833815,36.2534582 C61.5497034,35.7501778 61.6164588,35.2468974 61.6840811,34.7444847 C61.7170253,34.2412042 61.7256948,33.7474688 61.7092227,33.2606751 C61.6918837,32.7751831 61.65027,32.2979344 61.5835146,31.8280614 C61.5497034,31.3928974 61.4491369,30.9729185 61.281815,30.5711619 C61.1140597,30.1021566 60.9471712,29.7837016 60.7794159,29.6157968 C60.6454717,29.4821672 60.5449052,29.3984317 60.4781498,29.3641566 C60.4109609,29.2639344 60.3273,29.2136063 60.227167,29.2136063 C60.1933558,29.2136063 60.1595446,29.205363 60.1266004,29.1884423 C60.0932227,29.1719556 60.042506,29.1632783 59.9757506,29.1632783 C59.8418064,29.1632783 59.7247678,29.1801989 59.6242013,29.2136063 M56.3089738,47.0635746 C56.6431841,46.7286328 56.9617893,46.3598497 57.2634888,45.9567915 C57.2959996,45.9567915 57.3133386,45.9411725 57.3133386,45.9068974 C57.1455833,45.8400825 57.003403,45.7732677 56.8863644,45.7064529 C56.7688923,45.6396381 56.6262785,45.5728233 56.4593901,45.5047069 C56.1243129,45.3376698 55.8065747,45.1610878 55.5048751,44.9762624 C55.203609,44.7927386 54.918815,44.599236 54.6509266,44.3987915 C53.578506,43.4937545 52.6742742,42.454654 51.9382313,41.2810561 C51.8701755,41.2142413 51.7700425,41.0797439 51.6365318,40.8788656 L51.586682,40.7274476 L51.5359652,40.7274476 L51.5359652,40.6775534 L51.5359652,40.6272254 C51.5025876,40.593818 51.4774459,40.5604106 51.4609738,40.5270032 C51.4436348,40.4935958 51.4184931,40.4601884 51.3851155,40.4259132 C51.3179266,40.2588762 51.2429352,40.0918392 51.1592742,39.9235005 C51.0751798,39.7564635 51.0001884,39.5885587 50.933433,39.4202201 C50.6646777,38.7512042 50.4639781,38.0808868 50.3304674,37.4092677 C50.1965232,36.7732254 50.1297678,36.0695005 50.1297678,35.2980931 L50.1297678,34.6945905 C50.0959567,34.7279979 50.070815,34.762273 50.0539094,34.7948127 C50.0370039,34.8282201 50.0118622,34.8624952 49.978918,34.8950349 C49.4088966,35.6664423 48.9064974,36.471691 48.4721541,37.3090455 C47.5674888,38.9516487 46.8643901,40.6953418 46.361991,42.5383894 C46.2614245,43.0082624 46.1686605,43.4603471 46.085433,43.8955111 C46.0017721,44.3319767 45.9428193,44.7840614 45.9098751,45.2530667 C45.8093086,46.191945 45.8257807,46.9967598 45.9597249,47.6670772 C45.9926691,47.9690455 46.0767635,48.3039873 46.2111412,48.6727704 C46.2778966,48.8064 46.3442185,48.932654 46.4122742,49.0497968 C46.4790296,49.1678074 46.545785,49.276273 46.6129738,49.3764952 C46.7135403,49.4767175 46.8054373,49.569564 46.8895318,49.6532995 C46.9723258,49.7366011 47.0811283,49.8129608 47.2159395,49.8789079 C47.4495833,50.0134053 47.7343773,50.1305481 48.069888,50.2316381 C48.2705876,50.2984529 48.4543815,50.3318603 48.6221369,50.3318603 C48.7227034,50.3318603 48.8063644,50.348781 48.8735532,50.3821884 L49.024403,50.3821884 L49.1752528,50.3821884 L49.7782185,50.3821884 C49.8783515,50.3821884 49.978918,50.3735111 50.0790511,50.3570243 C50.1796176,50.3401037 50.2806176,50.3318603 50.3807506,50.3318603 C51.2173601,50.2316381 52.0383644,49.9799979 52.8420296,49.5782413 C53.679506,49.1426434 54.4662657,48.639363 55.203609,48.0692677 C55.4043086,47.9022307 55.5967721,47.7338921 55.7809996,47.5659873 C55.965227,47.3989503 56.140785,47.2319132 56.3089738,47.0635746 M69.6214674,40.7274476 C69.2863901,41.2311619 68.9344073,41.6663259 68.5663858,42.035109 C68.1974974,42.4715746 67.8043343,42.8902519 67.3860296,43.2920085 C66.9664245,43.6941989 66.506506,44.0803365 66.0041069,44.4491196 C65.7695961,44.6170243 65.5268494,44.7840614 65.2758665,44.9515323 C65.0244502,45.119437 64.7487592,45.2873418 64.4470597,45.4548127 C63.844094,45.7897545 63.2411283,46.0249079 62.6385961,46.1585376 C62.0356305,46.3598497 61.365476,46.460072 60.6289996,46.460072 L60.3780167,46.460072 L59.6242013,47.6670772 C58.9878579,48.6727704 58.3007979,49.594728 57.5643215,50.4320825 C57.1624888,50.9019556 56.7355146,51.3375534 56.2838322,51.7393101 C55.8317163,52.1415005 55.3540253,52.5267704 54.8520597,52.8964212 C54.5833043,53.0634582 54.3158494,53.2304952 54.0479609,53.3988339 C53.7796391,53.5667386 53.4952785,53.7337757 53.1940124,53.9021143 C53.0262571,53.9689291 52.8754073,54.0270667 52.7418966,54.0773947 C52.6075189,54.1285905 52.4571026,54.1858603 52.2897807,54.2539767 C52.0548365,54.3876063 51.7370983,54.5056169 51.3352657,54.6058392 C51.1670768,54.672654 51.0084245,54.7143048 50.8580082,54.7312254 C50.7071584,54.7477122 50.5480725,54.7728762 50.3807506,54.8071513 C50.2125618,54.839691 50.0456734,54.864855 49.8783515,54.8822095 C49.7101627,54.8991302 49.5432742,54.9242942 49.3759524,54.9577016 L49.1249695,54.9577016 L48.9741197,54.9577016 L48.9238365,54.9577016 L48.8735532,54.9577016 C48.739609,54.991109 48.5722871,55.0075958 48.3711541,55.0075958 C48.2033987,54.9741884 48.0274073,54.9577016 47.8440468,54.9577016 C47.6593858,54.9577016 47.4669223,54.940781 47.2657893,54.9073735 C46.5288794,54.8071513 45.7919695,54.6058392 45.0559266,54.3038709 C44.6866047,54.1359661 44.3350554,53.9342201 44.0008451,53.7003683 C43.6653343,53.4656487 43.3475961,53.2140085 43.0458966,52.9467492 C42.4429309,52.4096275 41.9574373,51.7896381 41.5889824,51.0859132 C41.3882828,50.7171302 41.2205275,50.3735111 41.0870167,50.0550561 C40.9526391,49.7366011 40.8360339,49.3934159 40.7354674,49.0246328 C40.5343343,48.4211302 40.383918,47.7508127 40.282918,47.0136804 C40.2161627,46.6783048 40.182785,46.3516063 40.182785,46.0331513 C40.182785,45.7146963 40.1663129,45.3879979 40.1325017,45.0526222 C40.1325017,43.7788021 40.2330682,42.5383894 40.4337678,41.3313841 C40.5343343,40.7274476 40.651373,40.1334899 40.7853172,39.5469079 C40.9188279,38.9598921 41.0696777,38.3824212 41.237433,37.8114582 C41.5720768,36.7055429 41.9743429,35.5831407 42.4429309,34.4429503 C42.8781412,33.3704423 43.4143515,32.280146 44.0506948,31.1746646 C44.3523944,30.6045693 44.6788021,30.0687492 45.0303515,29.5654688 C45.3823343,29.0621884 45.7750639,28.5432889 46.2111412,28.0066011 C46.4122742,27.7393418 46.6294459,27.4877016 46.8643901,27.2525481 C47.0980339,27.0186963 47.3494502,26.7839767 47.6173386,26.5488233 C48.0863601,26.0802519 48.6555146,25.6103788 49.3256691,25.1405058 C49.961579,24.6715005 50.6989223,24.2862307 51.5359652,23.9842624 C51.7370983,23.8840402 51.9460339,23.8081143 52.1640725,23.7577862 C52.3816777,23.7078921 52.6075189,23.6493206 52.8420296,23.5825058 L53.5958451,23.4310878 L53.9981112,23.4310878 C54.0310554,23.4310878 54.0557635,23.4237122 54.0731026,23.4059238 C54.0900082,23.389437 54.1311884,23.3807598 54.1988107,23.3807598 L54.2989438,23.3807598 L54.3496605,23.3807598 C55.0857034,23.3473524 55.7636605,23.4987704 56.3839652,23.8328444 C57.003403,24.1690878 57.4971326,24.6211725 57.866021,25.1912677 C58.4013644,25.0901778 59.0038966,25.0398497 59.6744845,25.0398497 C59.8756176,25.073691 60.0763172,25.0997228 60.2774502,25.1153418 C60.4781498,25.1331302 60.6957549,25.174781 60.9302657,25.2415958 C61.3992871,25.4095005 61.8011197,25.5934582 62.136197,25.7939026 C62.5042185,26.0290561 62.8562013,26.3149714 63.1908451,26.6490455 C63.4587335,26.9844212 63.6932442,27.3206646 63.8943773,27.6547386 C64.0955103,27.9896804 64.2541627,28.3259238 64.3716348,28.6599979 C64.4886734,28.9962413 64.5805704,29.3316169 64.6477592,29.665691 C64.7145146,30.0019344 64.7647979,30.3195217 64.798609,30.6210561 C64.8315532,30.9230243 64.8488923,31.2423471 64.8488923,31.5764212 C64.881403,32.1799238 64.8736004,32.7751831 64.8237506,33.3621989 C64.7734674,33.948781 64.6980425,34.5275534 64.5979094,35.0963471 C64.3963429,36.269945 64.1457936,37.376728 63.844094,38.4149608 C63.6763386,38.9850561 63.5090167,39.5299873 63.3416948,40.0488868 C63.1739395,40.5690878 62.9728064,41.0970984 62.7387292,41.6329185 C62.6715403,41.8346646 62.595682,42.0277333 62.512888,42.2112571 C62.4287936,42.3960825 62.3533687,42.5882836 62.2870468,42.7900296 C62.4539352,42.7566222 62.6212571,42.7314582 62.7894459,42.7136698 C62.9563343,42.6980508 63.1236562,42.6564 63.2918451,42.5882836 C63.4925446,42.5214688 63.7010468,42.4464106 63.9199524,42.3618074 C64.1366906,42.2793735 64.3629652,42.186527 64.5979094,42.0863048 C65.0322528,41.8845587 65.4596605,41.6507069 65.8788322,41.3812783 C66.2971369,41.114019 66.7076391,40.8289714 67.1094717,40.5270032 C67.3101712,40.3590984 67.5026348,40.1920614 67.6872957,40.0237228 C67.8710897,39.8566857 68.0639867,39.6896487 68.2646863,39.5217439 C68.4662528,39.3534053 68.6582828,39.1698815 68.8429438,38.9681354 C69.0263043,38.7668233 69.2022957,38.5828656 69.3700511,38.4149608 C69.5378064,38.2479238 69.7216004,38.155945 69.9227335,38.1381566 C70.1238665,38.1225376 70.3076605,38.1975958 70.4754159,38.3646328 C70.8096262,38.7000085 70.8599094,39.0362519 70.6262657,39.3703259 C70.4580768,39.6050455 70.2907549,39.8319556 70.1238665,40.0488868 C69.9561112,40.2671196 69.7883558,40.4935958 69.6214674,40.7274476" id="Fill-17" fill="#57585A"></path>
                    <path d="M74.4940455,62.4996624 C74.8958781,61.6957153 75.2474275,60.8904667 75.5486936,60.0865196 C75.6154489,59.9862974 75.6657322,59.8765302 75.6995433,59.7598212 C75.7324876,59.6418106 75.7827708,59.533345 75.8503931,59.4331228 C75.7160155,59.4999376 75.5989768,59.5667524 75.4988438,59.6335672 C75.3978438,59.700382 75.2799382,59.7671968 75.1472944,59.8348794 C74.7779725,60.1034402 74.4099511,60.3633238 74.0419296,60.6140963 C73.6730412,60.8657365 73.3045863,61.1256201 72.9365648,61.3937471 C72.1654103,61.9295672 71.4458395,62.4493344 70.7765519,62.9526148 C70.4410412,63.2203079 70.1311056,63.4966783 69.8467451,63.7817259 C69.5619511,64.0667735 69.2858266,64.3427101 69.0179382,64.6121386 C68.9507494,64.6789534 68.883994,64.7457683 68.8172386,64.8125831 C68.7496163,64.8793979 68.6828609,64.9462127 68.6161056,65.0138952 C68.4817279,65.1475249 68.398067,65.2824561 68.3651227,65.4160857 L68.1639897,65.6173979 C68.130612,65.6842127 68.1059039,65.7262974 68.0885648,65.7427841 C68.0725262,65.7597048 68.0469511,65.8013556 68.0135734,65.8690381 C67.9806292,65.9692603 67.8965348,66.1198106 67.7621571,66.3211228 C67.6286464,66.5896836 67.4942687,66.8903503 67.3603245,67.2265937 C67.2935691,67.3936307 67.2519554,67.544181 67.2346163,67.6786783 C67.2181442,67.8123079 67.1930026,67.9303185 67.1596249,68.0305407 C67.1596249,68.332509 67.1769639,68.5338212 67.2094747,68.6340434 C67.2094747,68.7342656 67.2268137,68.8106254 67.2597579,68.8609534 C67.2935691,68.9108476 67.3273803,68.969419 67.3603245,69.0362339 C67.4942687,69.1698635 67.5952687,69.2544667 67.662024,69.2878741 C67.8627236,69.4215037 68.030479,69.5061069 68.1639897,69.5395143 C68.2979339,69.5716201 68.4986335,69.5894085 68.7665219,69.5894085 C68.9342773,69.5894085 69.1514489,69.5560011 69.4197708,69.4891862 L69.7210369,69.3377683 C69.7877923,69.3377683 69.8380755,69.3212815 69.8718867,69.2878741 L69.9226034,69.237546 L69.9724532,69.237546 L69.9724532,69.1876519 C70.1059639,69.1195354 70.2234361,69.0362339 70.3240026,68.9360116 C70.4250026,68.8357894 70.5416077,68.7342656 70.6759854,68.6340434 C70.9434403,68.3993238 71.1857536,68.1390063 71.4046592,67.8552603 C71.6213974,67.5702127 71.8476721,67.2591333 72.0826163,66.9250593 C72.3162601,66.5896836 72.5347322,66.2460646 72.7358652,65.8942021 C72.9365648,65.5423397 73.15417,65.1809323 73.3886807,64.8125831 C73.5893803,64.4438 73.7818438,64.0667735 73.9660712,63.6815037 C74.1502987,63.2953661 74.3262901,62.9018529 74.4940455,62.4996624 M79.8188695,65.1644455 C79.5839253,65.5996095 79.3498481,66.0278317 79.1157708,66.446509 C78.8808266,66.8651862 78.6298438,67.2934085 78.3619554,67.7290063 C78.0936335,68.1641704 77.8170755,68.5915249 77.5331485,69.0110698 C77.2483545,69.4297471 76.9384189,69.8410487 76.6042086,70.2432392 C76.4360197,70.477091 76.2595948,70.6953238 76.0762343,70.8970698 C75.8920069,71.098382 75.7160155,71.2988265 75.5486936,71.5005725 C75.347994,71.7018847 75.1472944,71.9023291 74.9457279,72.1040751 C74.7450283,72.3045196 74.5269897,72.5058317 74.2929124,72.7075778 C74.0579682,72.8746148 73.8152215,73.0498952 73.5646721,73.2347206 C73.3132558,73.4186783 73.05317,73.5948265 72.785715,73.7631651 L72.685582,73.8130593 L72.5850155,73.9132815 C72.5169597,73.9466889 72.4671099,73.9636095 72.4341657,73.9636095 C72.4003545,73.9636095 72.3669768,73.9800963 72.3335991,74.0135037 C72.2664103,74.0807524 72.1827494,74.1224032 72.0826163,74.1401915 C71.9820498,74.1566783 71.8979554,74.1974614 71.8312,74.2651439 C71.6630112,74.3323926 71.4961227,74.3918317 71.3288009,74.4417259 C71.1610455,74.492054 70.9941571,74.5506254 70.8264017,74.6174402 C70.4579468,74.684255 70.1059639,74.7436942 69.7717536,74.7935884 C69.4362429,74.8439164 69.0846936,74.8512921 68.7166721,74.8187524 C67.9806292,74.8187524 67.277097,74.7007418 66.606509,74.4668899 C65.936788,74.2651439 65.2839725,73.9302021 64.6476292,73.4611968 C64.0117193,72.9913238 63.4919811,72.4056095 63.089715,71.7018847 C62.8560712,71.3656413 62.6714103,71.0137788 62.5374661,70.6454296 C62.4039554,70.2766466 62.3038223,69.9078635 62.2357665,69.5395143 C62.1356335,68.7008582 62.1529725,67.9806466 62.2864833,67.3771439 C62.3866163,66.6395778 62.5548052,66.0195884 62.7888824,65.5171757 C63.0238266,64.9462127 63.2912815,64.4103926 63.5925476,63.9084138 C63.66017,63.7734825 63.7351614,63.6567735 63.8183888,63.5552497 C63.9024833,63.4550275 63.9774747,63.3370169 64.04423,63.2033873 C64.0784747,63.1699799 64.1621356,63.0532709 64.2956464,62.8515249 L64.3966464,62.7009746 L64.4464961,62.6007524 L64.4967794,62.5499905 L64.5466292,62.5499905 C64.6476292,62.415927 64.7403931,62.299218 64.8231871,62.1976942 C64.9072815,62.097472 64.9991785,61.9794614 65.0997451,61.8458317 C65.1998781,61.7456095 65.3004446,61.6453873 65.4010112,61.5442974 C65.5011442,61.4440751 65.6021442,61.359472 65.7027107,61.2935249 C66.1383545,60.8570593 66.5566592,60.5051968 66.9580584,60.2370698 C67.1596249,60.0687312 67.3603245,59.9186148 67.561024,59.7849852 C67.7621571,59.650054 67.9628567,59.5164243 68.1639897,59.3827947 C68.5658223,59.0812603 68.975891,58.8044561 69.3946292,58.5528159 C69.8129339,58.3011757 70.2234361,58.0577788 70.6257021,57.823927 C71.0275348,57.5553661 71.43717,57.3124032 71.8563416,57.0950381 C72.2746464,56.8759376 72.685582,56.6503291 73.0874146,56.4164772 C73.8910798,55.9800116 74.7112172,55.543546 75.5486936,55.1088159 L77.809273,53.9018106 C77.8760283,53.667091 77.9514532,53.4319376 78.0351142,53.1980857 C78.1187751,52.9633661 78.1937665,52.7282127 78.2618223,52.4934931 C78.8309768,50.7172603 79.3329425,48.9913556 79.7685863,47.315345 C79.902097,46.9465619 80.011333,46.5782127 80.094994,46.2085619 C80.1786549,45.8397788 80.2709854,45.4714296 80.3715519,45.1026466 C80.2709854,45.303091 80.1621828,45.4965937 80.0451442,45.681419 C79.9272386,45.8649429 79.8015305,46.0415249 79.6680197,46.2085619 C79.3996979,46.6450275 79.0481485,47.1140328 78.6133717,47.6173132 C78.4126721,47.8177577 78.2115391,48.0273132 78.010406,48.2446783 C77.809273,48.4637788 77.5747622,48.6729005 77.3073073,48.873345 C76.8378524,49.2764032 76.28517,49.6282656 75.6492601,49.9298 C75.4815047,49.9966148 75.3141828,50.0551862 75.1472944,50.1055143 C74.9791056,50.1554085 74.8117837,50.2148476 74.6448953,50.2816624 C74.4433288,50.3484772 74.2755734,50.3818847 74.1420627,50.3818847 C74.0748738,50.3818847 74.0245906,50.3905619 73.9916464,50.4070487 C73.9578352,50.424837 73.9075519,50.4322127 73.8407966,50.4322127 L73.6903803,50.4322127 L73.6396635,50.4322127 L73.5893803,50.4322127 C73.3886807,50.4664878 73.1879811,50.4751651 72.9864146,50.4573767 C72.785715,50.4404561 72.5850155,50.4152921 72.3838824,50.3818847 C72.216127,50.3484772 72.0236635,50.2985831 71.8060584,50.2317683 C71.5880197,50.1649534 71.3790841,50.0981386 71.1779511,50.0300222 C71.0101957,49.9298 70.8342043,49.8213344 70.6508438,49.7033238 C70.4661828,49.5866148 70.2901914,49.459927 70.123303,49.3262974 C69.8220369,49.0581704 69.5372429,48.7397153 69.268921,48.3709323 C69.0348438,48.0359905 68.8501828,47.7006148 68.7166721,47.365673 C68.6494833,47.1973344 68.5909639,47.0385407 68.5406807,46.8871228 C68.4908309,46.7370063 68.4318781,46.5782127 68.3651227,46.4098741 C68.1973674,45.8397788 68.0807622,45.186382 68.0135734,44.4492497 C67.9806292,44.1472815 67.9628567,43.8457471 67.9628567,43.5437788 L67.9628567,42.6383079 C67.9628567,42.3367735 67.9715262,42.0348053 67.9884318,41.7332709 C68.0057708,41.4313026 68.030479,41.1475566 68.0634232,40.8789958 C68.130612,40.3089005 68.2220755,39.7401069 68.3399811,39.1695778 C68.4570197,38.5994825 68.5987665,38.0306889 68.7665219,37.4592921 C68.9342773,36.8904984 69.1011657,36.3368899 69.268921,35.8002021 C69.4362429,35.264382 69.637376,34.7276942 69.8718867,34.1910063 C70.0725863,33.6556201 70.307097,33.1271757 70.5754189,32.6069746 C70.8433073,32.0880751 71.1107622,31.5765513 71.3790841,31.0741386 C72.014994,29.9673556 72.7358652,28.9620963 73.5395305,28.0566254 C73.9409296,27.6223291 74.393479,27.1689429 74.8958781,26.6990698 C75.3306549,26.2639058 75.8668652,25.8617153 76.5032086,25.4933661 C76.8049082,25.2916201 77.1226464,25.115472 77.4577236,24.9649217 C77.7923674,24.8135037 78.1439167,24.6547101 78.5128052,24.4868053 C79.2830927,24.219546 80.0529468,24.068128 80.8241013,24.0347206 C81.6607107,24.0013132 82.481715,24.0520751 83.2853803,24.184837 C84.0890455,24.3865831 84.8250884,24.6382233 85.4956764,24.9397577 C85.8298867,25.1080963 86.1562944,25.2833767 86.475333,25.4673344 C86.7935047,25.6521598 87.0861013,25.8452286 87.3544232,26.045673 C87.5213116,26.1801704 87.6639253,26.2973132 87.7813974,26.3975354 C87.8984361,26.4986254 88.0237107,26.5988476 88.1585219,26.6990698 C88.2586549,26.7671862 88.3921657,26.8838952 88.559921,27.0513661 L88.7107708,27.2023503 L88.9114704,27.3529005 C89.6154361,28.0245196 89.983024,28.8284667 90.0168352,29.7669111 C90.0497794,30.7057894 89.7485133,31.5266571 89.1130369,32.230382 C88.4420155,32.9015672 87.6383502,33.2608053 86.7016077,33.3120011 C85.7631313,33.3618952 84.942994,33.0521175 84.2398953,32.3818 L84.0387622,32.180054 L83.988479,32.0798317 L83.9386292,32.0299376 L83.8376292,31.9284138 L83.6369296,31.7279693 C83.5693073,31.6611545 83.5029854,31.5943397 83.43623,31.5266571 C83.3681742,31.4598423 83.3014189,31.3925937 83.2346635,31.3249111 C83.1007193,31.2246889 82.9750112,31.1244667 82.858406,31.0242444 C82.7405004,30.9227206 82.6152258,30.839419 82.481715,30.7726042 C82.3469039,30.6710804 82.2220627,30.5960222 82.1045906,30.546128 C81.9871185,30.4958 81.8787494,30.4372286 81.7777494,30.3704138 C81.6438052,30.3370063 81.5272,30.3122762 81.4262,30.2944878 C81.326067,30.2775672 81.2081614,30.2693238 81.0746506,30.2693238 C80.9068953,30.2367841 80.6559124,30.2524032 80.3212687,30.319218 C80.0529468,30.3873344 79.7685863,30.4875566 79.4673202,30.6211862 C79.1656206,30.7556836 78.855685,30.940509 78.5383803,31.1743608 C78.2193416,31.4095143 77.910273,31.6611545 77.6085734,31.9284138 C77.0056077,32.4651016 76.4195476,33.135419 75.8503931,33.9393661 C75.5816378,34.3090169 75.3306549,34.6860434 75.0965777,35.0713132 C74.8616335,35.4565831 74.6271227,35.8683185 74.393479,36.3034825 C74.1585348,36.705673 73.9409296,37.125218 73.74023,37.5608159 C73.5395305,37.9959799 73.3548695,38.4324455 73.1879811,38.8680434 C73.0197923,39.3379164 72.869376,39.7900011 72.7358652,40.2255989 C72.6010541,40.660763 72.4844489,41.1141492 72.3838824,41.5827206 C72.1827494,42.4881915 72.0826163,43.3767418 72.0826163,44.2475037 L72.0826163,44.8510063 C72.0826163,45.0527524 72.1155605,45.2531968 72.1827494,45.454509 C72.216127,45.7564772 72.3002215,46.0580116 72.4341657,46.3599799 C72.500921,46.4936095 72.5676764,46.5782127 72.6348652,46.6103185 C72.6678094,46.7118423 72.7358652,46.7786571 72.8359983,46.8120646 C72.9027536,46.8797471 72.9864146,46.9122868 73.0874146,46.9122868 C73.2209253,46.9799693 73.3548695,47.0133767 73.4888137,47.0133767 L73.5395305,47.0133767 L73.5893803,47.0133767 L73.6396635,47.0133767 L73.74023,47.0133767 L73.9409296,47.0133767 C74.0419296,46.9799693 74.1333931,46.9626148 74.2174876,46.9626148 C74.300715,46.9626148 74.3761399,46.9465619 74.4433288,46.9122868 C74.6110841,46.845472 74.7866421,46.7704138 74.971303,46.6866783 C75.155097,46.6033767 75.347994,46.5100963 75.5486936,46.4098741 C75.7160155,46.3087841 75.8920069,46.1916413 76.0762343,46.0580116 C76.2595948,45.924382 76.4360197,45.772964 76.6042086,45.6050593 C76.771097,45.4380222 76.9384189,45.2709852 77.1061742,45.1026466 C77.2730627,44.9356095 77.440818,44.7677048 77.6085734,44.5993661 C78.2115391,43.9290487 78.8140712,43.1415884 79.4170369,42.2365513 C79.6844918,41.8009534 79.9445777,41.3740328 80.195994,40.954054 C80.4469768,40.5353767 80.7061957,40.0919693 80.9740841,39.6220963 C81.1075948,39.3878106 81.233303,39.1613344 81.3512086,38.9431016 C81.4682472,38.7248688 81.5770498,38.4992603 81.6776163,38.2645407 C81.7443717,38.1309111 81.8033245,38.0129005 81.8536077,37.9126783 C81.9034575,37.8111545 81.9619768,37.6944455 82.0291657,37.5608159 L82.1800155,37.2089534 L82.280582,37.0575354 L82.3308652,36.8557894 L82.4309983,36.655345 C82.6650755,35.7503079 83.1848137,35.0461492 83.988479,34.5428688 C84.7925777,34.0408899 85.6629983,33.889472 86.6010412,34.0907841 C87.5720283,34.2925302 88.3171742,34.8031862 88.836479,35.6249217 C89.3553502,36.4466571 89.5144361,37.3256624 89.3137365,38.2645407 C89.3137365,38.2979481 89.2963974,38.3144349 89.2630197,38.3144349 L89.1130369,39.0181598 L88.9621871,39.7223185 C88.8945648,39.9570381 88.836479,40.1835143 88.7866292,40.4008794 C88.7359124,40.6199799 88.6769597,40.8455884 88.6102043,41.0794402 C88.4762601,41.5493132 88.3505519,42.0100751 88.2335133,42.4630275 C88.1156077,42.9151122 87.990333,43.3767418 87.8568223,43.8457471 C87.588067,44.7173767 87.3375176,45.5634085 87.1030069,46.3851439 C86.8684961,47.2068794 86.6175133,48.0524772 86.3500584,48.9245407 C86.5169468,48.7909111 86.6842687,48.6729005 86.8524575,48.5713767 C87.0193459,48.4711545 87.1866678,48.3544455 87.3544232,48.2195143 C87.7228781,47.952255 88.0904661,47.684128 88.459788,47.4155672 C88.8278094,47.1474402 89.1958309,46.8797471 89.5647193,46.6103185 C89.9331742,46.3430593 90.2760541,46.0580116 90.5950927,45.7564772 C90.9123974,45.454509 91.2392386,45.1529746 91.5743159,44.8510063 C92.2436034,44.2475037 92.8808137,43.6114614 93.4829124,42.9402762 C93.784612,42.6383079 94.0689725,42.3042339 94.3377279,41.9345831 C94.5046163,41.767546 94.7560326,41.449091 95.0906764,40.979218 C95.4248867,40.5106466 95.6598309,40.1921915 95.7942086,40.0238529 L95.7942086,39.9739587 C95.8947751,39.8403291 96.0282858,39.7565937 96.1960412,39.7223185 C96.3633631,39.6897788 96.5302515,39.7223185 96.6984403,39.8234085 C96.9997064,40.0585619 97.0664618,40.3258212 96.8991399,40.6273556 C96.7990069,40.8291016 96.6481571,41.0794402 96.4474575,41.3814085 C96.2463245,41.6829429 96.0451914,41.9931545 95.8444918,42.3116095 C95.6437923,42.6313661 95.4426592,42.9329005 95.2415262,43.2170804 C95.0408266,43.502128 94.8726378,43.7455249 94.739127,43.9459693 C94.4712386,44.3477259 94.1868781,44.7342974 93.8851785,45.1026466 C93.5839124,45.4714296 93.2822129,45.8397788 92.9809468,46.2085619 C92.6458695,46.5782127 92.3194618,46.9300751 92.0012901,47.2641492 C91.682685,47.6003926 91.3398052,47.9357683 90.9713502,48.2707101 C90.3011957,48.9410275 89.6154361,49.5779376 88.9114704,50.1805725 C88.2413159,50.7515354 87.5633588,51.2955989 86.8771657,51.8144984 C86.1905391,52.3346995 85.5121485,52.8618423 84.8424275,53.3985302 L84.3907451,54.6055354 C84.2221227,55.0745407 84.0552343,55.518382 83.8879124,55.937927 C83.7201571,56.3566042 83.5528352,56.8004455 83.3855133,57.2703185 C83.0166249,58.2091968 82.6486034,59.0977471 82.280582,59.9351016 C81.9116936,60.8071651 81.5272,61.677927 81.1249339,62.5499905 C80.7231013,63.4216201 80.287891,64.292382 79.8188695,65.1644455" id="Fill-19" fill="#57585A"></path>
                    <path d="M14.4824897,40.2853418 C12.3848974,46.5832889 8.77360558,51.8482095 7.2195927,48.2436804 C5.66557983,44.6395852 7.57287597,37.2968974 7.79308197,36.1050772 C8.23826223,33.6993101 9.92968712,28.4421989 9.92968712,28.4421989 C9.92968712,28.4421989 12.7572536,26.6212783 14.1053652,27.272072 C15.4534768,27.9228656 16.5796485,33.9873947 14.4824897,40.2853418 M11.0948717,20.0877439 C11.2283824,19.4339132 11.3787987,18.7718392 11.5465541,18.1015217 C11.713876,17.330982 11.8729618,16.5760614 12.0238116,15.8389291 C12.1746614,15.1017968 12.3333137,14.3477439 12.5010691,13.5763365 L13.0034682,11.3133101 L13.0034682,11.2634159 L13.054185,11.2130878 L13.054185,11.0616698 L13.154318,10.8100296 L13.3051678,10.357945 C13.3719232,10.1909079 13.4222064,10.0230032 13.4555841,9.85466455 C13.4885283,9.68762751 13.5392451,9.52059048 13.6064339,9.35268571 C13.7399446,8.98390265 13.8578502,8.6402836 13.9579833,8.32182857 C14.0585498,8.00337354 14.1755884,7.67667513 14.3095326,7.34129947 C14.4430433,7.00635767 14.5687515,6.6792254 14.6866571,6.36077037 C14.8036957,6.04231534 14.9294039,5.74902434 15.0633481,5.48089735 C15.1301034,5.31342646 15.2050948,5.16200847 15.2891893,5.02837884 C15.3728502,4.89474921 15.4478416,4.76025185 15.5154639,4.62532063 C15.5822193,4.49169101 15.6576442,4.36673862 15.7413052,4.24872804 C15.8249661,4.13158519 15.8999575,4.02311958 15.9680133,3.92159577 C16.1687129,3.65433651 16.3195627,3.48643175 16.4196957,3.41961693 C16.4864511,3.38620952 16.5532064,3.33588148 16.6208288,3.26819894 L16.8219618,3.16797672 L16.8219618,3.0677545 L16.9225283,3.0677545 C17.0894167,3.16797672 17.2233609,3.36928889 17.3239275,3.66995556 C17.4574382,3.93938413 17.5575712,4.24135238 17.625627,4.57542646 L17.7764768,5.63101376 L17.7764768,6.73779683 C17.7764768,6.90613545 17.7673738,7.08141587 17.7513352,7.26537354 C17.7339961,7.45019894 17.708421,7.62634709 17.6754768,7.79338413 C17.6754768,7.89360635 17.6585712,7.97820952 17.625627,8.04502434 L17.5753438,8.29666455 C17.5415326,8.39688677 17.5250605,8.49710899 17.5250605,8.5986328 C17.5250605,8.69885503 17.5077215,8.78215661 17.4747773,8.84897143 C17.4075884,9.01731005 17.3568717,9.20126772 17.3239275,9.40257989 C17.2901163,9.60432593 17.2402665,9.78915132 17.1735112,9.95618836 C16.7040562,11.4313206 16.1513738,12.8222836 15.5154639,14.1295111 C15.147009,14.7998286 14.7867901,15.470146 14.4352408,16.1404635 C14.0836914,16.810781 13.7070004,17.4815323 13.3051678,18.1518497 C13.2050348,18.3197545 13.1040348,18.4785481 13.0034682,18.6286646 C12.9033352,18.7800825 12.8027687,18.9401778 12.7026356,19.1072148 L12.3502193,19.6091937 L12.199803,19.8608339 L12.0493867,20.0625799 C11.8482536,20.3975217 11.6388845,20.7159767 11.4212794,21.017945 C11.2028073,21.3199132 10.9769661,21.6383683 10.7433223,21.9733101 L10.6427558,22.0735323 C10.8096442,21.4032148 10.960494,20.7411407 11.0948717,20.0877439 M20.8832021,29.2921354 C19.7067472,26.3201778 16.7591077,22.4609714 13.2605197,23.8037757 C13.29173,23.7473735 13.3246742,23.6888021 13.3554511,23.6324 C13.4555841,23.465363 13.5565841,23.2892148 13.6567172,23.1043894 C13.7572837,22.9204317 13.8405112,22.7451513 13.9081335,22.5768127 L14.5110991,21.5203577 L14.6112322,21.2183894 L14.762082,20.9676169 L15.0134983,20.4144423 L15.5154639,19.358855 C16.1847515,18.0182201 16.8384339,16.5760614 17.4747773,15.0336804 C17.7764768,14.2631407 18.0604039,13.5008444 18.3287258,12.7459238 C18.5961807,11.9923048 18.8311249,11.2300085 19.0322579,10.4581672 C19.1653352,10.1240931 19.2659017,9.73795556 19.333524,9.30235767 L19.4839403,8.69885503 L19.5346571,8.39688677 C19.5346571,8.33007196 19.5424597,8.28017778 19.5597987,8.24677037 C19.5758373,8.21336296 19.5849403,8.16303492 19.5849403,8.09535238 C19.6174511,7.96172275 19.6347901,7.84371217 19.6347901,7.74348995 C19.6347901,7.64326772 19.6516957,7.54174392 19.6855069,7.44152169 C19.6855069,7.17339471 19.7015455,6.97295026 19.7353567,6.83801905 C19.7353567,6.6375746 19.7431592,6.42758519 19.7604983,6.20935238 C19.7774039,5.99242116 19.7856399,5.78243175 19.7856399,5.58111958 L19.7856399,4.32378624 C19.7518288,4.08993439 19.7266871,3.86432593 19.7106485,3.6452254 C19.6933094,3.42786032 19.6516957,3.20138413 19.5849403,2.96623069 C19.5168845,2.69897143 19.4418931,2.44733122 19.3590991,2.21261164 C19.2750047,1.97875979 19.1492966,1.72711958 18.9819747,1.45855873 C18.8137858,1.18999788 18.562803,0.922738624 18.2285927,0.653310053 C17.8592708,0.452865608 17.4916828,0.319235979 17.1232279,0.251553439 C16.8219618,0.151331217 16.4864511,0.134410582 16.1184296,0.201225397 C15.8171635,0.201225397 15.5154639,0.251553439 15.2141979,0.351775661 C14.7117987,0.486273016 14.2093996,0.721426455 13.7070004,1.05550053 C13.3051678,1.29065397 12.8859961,1.59218836 12.4512193,1.96097143 C12.2830305,2.12887619 12.1157086,2.28766984 11.9488202,2.43908783 C11.7806313,2.58920423 11.6133094,2.74929947 11.446421,2.91633651 C11.1451549,3.2859873 10.868597,3.6452254 10.6176142,3.99708783 C10.3661979,4.34981799 10.1065455,4.70992381 9.83865708,5.07870688 C9.60414635,5.44748995 9.3865412,5.81583915 9.18584163,6.18462222 C8.98514206,6.55427302 8.78357554,6.92262222 8.58287597,7.29140529 C8.51568712,7.49184974 8.43202618,7.6931619 8.33189313,7.89360635 C8.23132661,8.09535238 8.14723219,8.29666455 8.08047682,8.49710899 C8.04666567,8.5986328 8.01328798,8.69885503 7.98034378,8.79907725 C7.94653262,8.9001672 7.91228798,9.00038942 7.87977725,9.1010455 C7.81172146,9.23554286 7.77877725,9.33576508 7.77877725,9.40257989 L7.72892747,9.55399788 C7.69511631,9.58740529 7.67864421,9.6208127 7.67864421,9.65422011 L7.62836094,9.70454815 C7.49398326,10.0741989 7.36003906,10.4425481 7.22652833,10.8100296 C7.09258412,11.1796804 6.95777296,11.5484635 6.82426223,11.9168127 C6.55637382,12.688654 6.28848541,13.4340296 6.020597,14.1546751 C5.75227511,14.8748868 5.48482017,15.6206963 5.21736524,16.3921037 C4.7479103,17.9002095 4.28755837,19.4005058 3.83544249,20.891691 C3.38332661,22.3837439 2.95678584,23.8840402 2.55451974,25.392146 C2.3533867,26.1635534 2.16872575,26.9340931 2.00183734,27.7046328 C1.83408197,28.4764741 1.66676009,29.2639344 1.49987167,30.0687492 C1.36506052,30.5711619 1.26492747,31.1078497 1.1981721,31.677945 L1.14745536,31.7781672 L1.09760558,32.0797016 C1.06379442,32.1465164 1.04732232,32.2302519 1.04732232,32.3313418 L0.997472532,32.5317862 L0.896906009,32.8840825 C0.862661373,33.0519873 0.837953219,33.1938603 0.821047639,33.3118709 C0.803708584,33.4290138 0.779000429,33.5552677 0.746056223,33.6888974 C0.712245064,33.9574582 0.678867382,34.2160402 0.6454897,34.4676804 C0.611678541,34.7193206 0.561395279,34.9796381 0.494639914,35.2468974 C0.427451073,35.7501778 0.369365236,36.2617016 0.318648498,36.7806011 C0.268798712,37.3008021 0.209845923,37.8114582 0.143090558,38.3147386 C0.115781545,38.6062942 0.101476824,38.8935111 0.0815369099,39.1828974 L0.0980090129,39.1642413 C-0.198922318,42.3427175 -0.23706824,53.1836381 6.36867854,54.6383788 C13.1499833,56.1321672 16.606524,50.8069397 19.3764382,44.2508444 C22.1233781,37.7485481 22.0952021,32.3547704 20.8832021,29.2921354" id="Fill-21" fill="#57585A"></path>
                    <path d="M105.011521,76.7006741 C106.343594,76.7006741 107.208379,75.8923884 107.208379,74.5300603 C107.208379,73.1824836 106.343594,72.4023989 105.025392,72.4023989 L102.672482,72.4023989 L102.672482,76.7006741 L105.011521,76.7006741 Z M101.694559,71.5220921 L105.138963,71.5220921 C106.924885,71.5220921 108.214911,72.6857111 108.214911,74.5300603 C108.214911,76.388727 106.924885,77.5801132 105.138963,77.5801132 L102.672482,77.5801132 L102.672482,81.4961556 L101.694559,81.4961556 L101.694559,71.5220921 Z" id="Fill-23" fill="#57585A"></path>
                    <path d="M114.566641,80.7583725 C116.80598,80.7583725 118.620512,78.8858222 118.620512,76.4457799 C118.620512,74.0617058 116.80598,72.260309 114.566641,72.260309 C112.312997,72.260309 110.512336,74.0617058 110.512336,76.4457799 C110.512336,78.8858222 112.312997,80.7583725 114.566641,80.7583725 M114.566641,71.3522349 C117.387272,71.3522349 119.640915,73.5796847 119.640915,76.4457799 C119.640915,79.3678434 117.387272,81.6664466 114.566641,81.6664466 C111.745576,81.6664466 109.491933,79.3678434 109.491933,76.4457799 C109.491933,73.5796847 111.745576,71.3522349 114.566641,71.3522349" id="Fill-25" fill="#57585A"></path>
                    <path d="M125.199513,76.4172317 C126.404144,76.4172317 127.169664,75.6367132 127.169664,74.3880571 C127.169664,73.565454 126.843689,72.9554434 126.262397,72.6434963 C125.965033,72.486872 125.610449,72.4022688 124.845363,72.4022688 L122.832299,72.4022688 L122.832299,76.4172317 L125.199513,76.4172317 Z M121.853942,71.5223958 L124.802449,71.5223958 C125.822852,71.5223958 126.276702,71.6217503 126.673333,71.7922582 C127.609209,72.2035598 128.175762,73.1541524 128.175762,74.3598561 C128.175762,75.7074328 127.410676,76.7434963 126.291007,77.0554434 L126.291007,77.0836444 C126.291007,77.0836444 126.389839,77.2116339 126.545891,77.4810624 L128.714573,81.4960254 L127.594904,81.4960254 L125.34126,77.2966709 L122.832299,77.2966709 L122.832299,81.4960254 L121.853942,81.4960254 L121.853942,71.5223958 Z" id="Fill-28" fill="#57585A"></path>
                    <path d="M134.443051,71.5222656 L135.435278,71.5222656 L135.435278,78.0059058 C135.435278,79.7222656 136.541076,80.7583291 138.255909,80.7583291 C139.971175,80.7583291 141.090845,79.7222656 141.090845,77.9777048 L141.090845,71.5222656 L142.069201,71.5222656 L142.069201,78.0202233 C142.069201,80.2333556 140.523858,81.6664032 138.270214,81.6664032 C136.002265,81.6664032 134.443051,80.2333556 134.443051,78.0202233 L134.443051,71.5222656 Z" id="Fill-30" fill="#57585A"></path>
                    <path d="M145.316763,71.5222656 L146.337166,71.5222656 L148.945394,77.3820116 C149.172535,77.8926677 149.426986,78.6015989 149.426986,78.6015989 L149.455595,78.6015989 C149.455595,78.6015989 149.725218,77.8926677 149.951492,77.3820116 L152.55972,71.5222656 L153.566252,71.5222656 L154.359947,81.4958952 L153.381591,81.4958952 L152.829342,74.5159164 C152.786428,73.9766254 152.801166,73.1253873 152.801166,73.1253873 L152.772557,73.1253873 C152.772557,73.1253873 152.474758,74.0052603 152.24805,74.5159164 L149.909445,79.6376624 L148.987874,79.6376624 L146.648836,74.5159164 C146.422561,74.0195778 146.110458,73.0971862 146.110458,73.0971862 L146.082282,73.0971862 C146.082282,73.0971862 146.096587,73.9766254 146.053673,74.5159164 L145.50099,81.4958952 L144.523067,81.4958952 L145.316763,71.5222656 Z" id="Fill-33" fill="#57585A"></path>
                    <path d="M159.847542,72.5581989 C159.847542,72.5581989 159.634705,73.3808021 159.464782,73.8493735 L158.132276,77.4664847 L161.562374,77.4664847 L160.258477,73.8493735 C160.088555,73.3808021 159.875718,72.5581989 159.875718,72.5581989 L159.847542,72.5581989 Z M161.860173,78.3177228 L157.848782,78.3177228 L156.714808,81.4961989 L155.6801,81.4961989 L159.336906,71.5221354 L160.385919,71.5221354 L164.04316,81.4961989 L163.008452,81.4961989 L161.860173,78.3177228 Z" id="Fill-35" fill="#57585A"></path>
                    <path d="M168.212726,71.5222656 L169.261739,71.5222656 L172.025584,79.0983714 C172.209812,79.6094614 172.408344,80.3891122 172.408344,80.3891122 L172.43652,80.3891122 C172.43652,80.3891122 172.635052,79.6094614 172.819279,79.0983714 L175.583558,71.5222656 L176.632571,71.5222656 L172.93285,81.4958952 L171.912013,81.4958952 L168.212726,71.5222656 Z" id="Fill-37" fill="#57585A"></path>
                    <polygon id="Fill-39" fill="#57585A" points="178.249395 81.4958519 179.227751 81.4958519 179.227751 71.5222222 178.249395 71.5222222"></polygon>
                    <path d="M185.238508,80.6164561 C187.690684,80.6164561 189.320555,79.1695249 189.320555,76.5021386 C189.320555,73.8490698 187.676379,72.4021386 185.238508,72.4021386 L183.098435,72.4021386 L183.098435,80.6164561 L185.238508,80.6164561 Z M182.120079,71.5222656 L185.337774,71.5222656 C188.328761,71.5222656 190.340959,73.3527312 190.340959,76.5021386 C190.340959,79.680181 188.328761,81.4958952 185.337774,81.4958952 L182.120079,81.4958952 L182.120079,71.5222656 Z" id="Fill-41" fill="#57585A"></path>
                    <path d="M195.459925,72.5581989 C195.459925,72.5581989 195.247088,73.3808021 195.077165,73.8493735 L193.744659,77.4664847 L197.174758,77.4664847 L195.870861,73.8493735 C195.700938,73.3808021 195.488101,72.5581989 195.488101,72.5581989 L195.459925,72.5581989 Z M197.472556,78.3177228 L193.461165,78.3177228 L192.327191,81.4961989 L191.292483,81.4961989 L194.94929,71.5221354 L195.998303,71.5221354 L199.655543,81.4961989 L198.620835,81.4961989 L197.472556,78.3177228 Z" id="Fill-42" fill="#57585A"></path>
                    <path d="M205.582682,71.5222656 L206.603086,71.5222656 L209.211313,77.3820116 C209.438455,77.8926677 209.692906,78.6015989 209.692906,78.6015989 L209.721515,78.6015989 C209.721515,78.6015989 209.991137,77.8926677 210.217412,77.3820116 L212.825639,71.5222656 L213.832172,71.5222656 L214.625867,81.4958952 L213.647511,81.4958952 L213.095262,74.5159164 C213.052348,73.9766254 213.067086,73.1253873 213.067086,73.1253873 L213.038476,73.1253873 C213.038476,73.1253873 212.740678,74.0052603 212.51397,74.5159164 L210.175365,79.6376624 L209.253794,79.6376624 L206.914755,74.5159164 C206.688481,74.0195778 206.376378,73.0971862 206.376378,73.0971862 L206.348202,73.0971862 C206.348202,73.0971862 206.362506,73.9766254 206.319592,74.5159164 L205.76691,81.4958952 L204.788987,81.4958952 L205.582682,71.5222656 Z" id="Fill-43" fill="#57585A"></path>
                    <path d="M220.113461,72.5581989 C220.113461,72.5581989 219.900624,73.3808021 219.730702,73.8493735 L218.398195,77.4664847 L221.828294,77.4664847 L220.524397,73.8493735 C220.354474,73.3808021 220.141637,72.5581989 220.141637,72.5581989 L220.113461,72.5581989 Z M222.126092,78.3177228 L218.114702,78.3177228 L216.980727,81.4961989 L215.946019,81.4961989 L219.602826,71.5221354 L220.651839,71.5221354 L224.309079,81.4961989 L223.274371,81.4961989 L222.126092,78.3177228 Z" id="Fill-44" fill="#57585A"></path>
                    <polygon id="Fill-45" fill="#57585A" points="225.940468 81.4958519 226.918824 81.4958519 226.918824 71.5222222 225.940468 71.5222222"></polygon>
                    <path d="M229.655014,79.6377058 C229.655014,79.6377058 230.689722,80.7301714 232.263241,80.7301714 C233.354735,80.7301714 234.247696,80.0776423 234.247696,78.9990603 C234.247696,76.4878646 229.272254,77.1265101 229.272254,74.0335048 C229.272254,72.6004571 230.53367,71.3522349 232.376379,71.3522349 C234.105949,71.3522349 235.041391,72.317145 235.041391,72.317145 L234.559366,73.1397481 C234.559366,73.1397481 233.680709,72.2889439 232.376379,72.2889439 C231.100658,72.2889439 230.278353,73.1254307 230.278353,74.0053037 C230.278353,76.3746265 235.253795,75.6934624 235.253795,78.9708593 C235.253795,80.460309 234.105949,81.6664466 232.234632,81.6664466 C230.193391,81.6664466 229.073722,80.3891556 229.073722,80.3891556 L229.655014,79.6377058 Z" id="Fill-46" fill="#57585A"></path>
                    <path d="M245.589086,71.3523651 C247.970172,71.3523651 249.174803,72.6435397 249.174803,72.6435397 L248.650296,73.3667884 C248.650296,73.3667884 247.488579,72.2604392 245.617262,72.2604392 C243.278657,72.2604392 241.606305,74.0761534 241.606305,76.4311587 C241.606305,78.8143651 243.278657,80.7585026 245.645871,80.7585026 C247.658069,80.7585026 248.877438,79.4243757 248.877438,79.4243757 L249.444425,80.1198571 C249.444425,80.1198571 248.083742,81.6661429 245.631567,81.6661429 C242.68306,81.6661429 240.585468,79.3536561 240.585468,76.4454762 C240.585468,73.5511799 242.739845,71.3523651 245.589086,71.3523651" id="Fill-47" fill="#57585A"></path>
                    <path d="M254.917715,76.4172317 C256.122345,76.4172317 256.887865,75.6367132 256.887865,74.3880571 C256.887865,73.565454 256.561891,72.9554434 255.980599,72.6434963 C255.683234,72.486872 255.32865,72.4022688 254.563564,72.4022688 L252.5505,72.4022688 L252.5505,76.4172317 L254.917715,76.4172317 Z M251.572144,71.5223958 L254.52065,71.5223958 C255.541054,71.5223958 255.994903,71.6217503 256.391534,71.7922582 C257.32741,72.2035598 257.893964,73.1541524 257.893964,74.3598561 C257.893964,75.7074328 257.128878,76.7434963 256.009208,77.0554434 L256.009208,77.0836444 C256.009208,77.0836444 256.108041,77.2116339 256.264092,77.4810624 L258.432775,81.4960254 L257.313105,81.4960254 L255.059461,77.2966709 L252.5505,77.2966709 L252.5505,81.4960254 L251.572144,81.4960254 L251.572144,71.5223958 Z" id="Fill-48" fill="#57585A"></path>
                    <polygon id="Fill-49" fill="#57585A" points="260.475099 81.4958519 261.453455 81.4958519 261.453455 71.5222222 260.475099 71.5222222"></polygon>
                    <path d="M267.251462,72.5581989 C267.251462,72.5581989 267.038625,73.3808021 266.868702,73.8493735 L265.536196,77.4664847 L268.966294,77.4664847 L267.662397,73.8493735 C267.492475,73.3808021 267.279638,72.5581989 267.279638,72.5581989 L267.251462,72.5581989 Z M269.264093,78.3177228 L265.252702,78.3177228 L264.118728,81.4961989 L263.08402,81.4961989 L266.740827,71.5221354 L267.789839,71.5221354 L271.44708,81.4961989 L270.412372,81.4961989 L269.264093,78.3177228 Z" id="Fill-50" fill="#57585A"></path>
                    <polygon id="Fill-51" fill="#57585A" points="274.68025 72.4023122 271.0941 72.4023122 271.0941 71.5224392 279.230018 71.5224392 279.230018 72.4023122 275.658173 72.4023122 275.658173 81.4960688 274.68025 81.4960688"></polygon>
                    <polygon id="Fill-52" fill="#57585A" points="280.776532 81.4958519 281.754888 81.4958519 281.754888 71.5222222 280.776532 71.5222222"></polygon>
                    <path d="M283.371365,71.5222656 L284.420378,71.5222656 L287.184224,79.0983714 C287.368451,79.6094614 287.566983,80.3891122 287.566983,80.3891122 L287.595159,80.3891122 C287.595159,80.3891122 287.793691,79.6094614 287.977919,79.0983714 L290.742198,71.5222656 L291.791211,71.5222656 L288.09149,81.4958952 L287.070653,81.4958952 L283.371365,71.5222656 Z" id="Fill-53" fill="#57585A"></path>
                    <path d="M295.874905,72.5581989 C295.874905,72.5581989 295.662068,73.3808021 295.492145,73.8493735 L294.159639,77.4664847 L297.589738,77.4664847 L296.285841,73.8493735 C296.115918,73.3808021 295.903081,72.5581989 295.903081,72.5581989 L295.874905,72.5581989 Z M297.887536,78.3177228 L293.876145,78.3177228 L292.742171,81.4961989 L291.707463,81.4961989 L295.36427,71.5221354 L296.413283,71.5221354 L300.070523,81.4961989 L299.035815,81.4961989 L297.887536,78.3177228 Z" id="Fill-54" fill="#57585A"></path>
                </g>
            </g>
        </g>
    </g>
</svg>