<?xml version="1.0" encoding="UTF-8" standalone="no"?>
<svg width="94px" height="26px" viewBox="0 0 94 26" version="1.1" xmlns="http://www.w3.org/2000/svg" xmlns:xlink="http://www.w3.org/1999/xlink" xmlns:sketch="http://www.bohemiancoding.com/sketch/ns">
    <!-- Generator: Sketch 3.5.2 (25235) - http://www.bohemiancoding.com/sketch -->
    <title>logo-paypal</title>
    <desc>Created with Sketch.</desc>
    <defs></defs>
    <g id="Page-1" stroke="none" stroke-width="1" fill="none" fill-rule="evenodd" sketch:type="MSPage">
        <g id="moip-transparente-dados" sketch:type="MSArtboardGroup" transform="translate(-433.000000, -1217.000000)">
            <g id="paypal" sketch:type="MSLayerGroup" transform="translate(130.000000, 1199.000000)">
                <g id="logo-paypal" transform="translate(303.000000, 18.000000)" sketch:type="MSShapeGroup">
                    <path d="M64.2149473,7.41796774 C63.8155744,9.99859355 61.8187095,9.99859355 59.8859415,9.99859355 L58.7864332,9.99859355 L59.5580613,5.18029032 C59.6049013,4.88841935 59.8588236,4.67438065 60.1571207,4.67438065 L60.6625001,4.67438065 C61.9789518,4.67438065 63.2189802,4.67438065 63.8599491,5.4137871 C64.2445305,5.85645806 64.360398,6.51316774 64.2149473,7.41796774 M63.3742919,0.685477419 L56.0869678,0.685477419 C55.5889842,0.685477419 55.1649586,1.04301935 55.0860701,1.52947097 L52.1400781,19.9635548 C52.0809117,20.3259613 52.3668825,20.6567484 52.7391375,20.6567484 L56.4789449,20.6567484 C56.8265473,20.6567484 57.1248444,20.4062258 57.1790803,20.0681419 L58.0148052,14.8412194 C58.0912284,14.3547677 58.5177193,13.9972258 59.0132376,13.9972258 L61.3182607,13.9972258 C66.1181321,13.9972258 68.8890903,11.7060387 69.611413,7.16258065 C69.936828,5.17785806 69.6237393,3.61634839 68.682008,2.52426452 C67.6490619,1.32029677 65.8124392,0.685477419 63.3742919,0.685477419" id="Fill-5" fill="#009CDE"></path>
                    <path d="M28.3182198,14.0361419 C27.9804785,16.0038387 26.3977782,17.3245548 24.3787259,17.3245548 C23.3679672,17.3245548 22.5568949,17.0034968 22.0367239,16.3954323 C21.5214835,15.7922323 21.3267275,14.9336452 21.489435,13.9777677 C21.8025237,12.0270968 23.4123419,10.6650323 25.3993457,10.6650323 C26.3903824,10.6650323 27.1940589,10.9885226 27.7265562,11.6038839 C28.2615187,12.2216774 28.4710663,13.085129 28.3182198,14.0361419 M33.1821882,7.33527097 L29.6938378,7.33527097 C29.3955407,7.33527097 29.1416184,7.54930968 29.0923131,7.84118065 L28.9394667,8.80435484 L28.6954054,8.45654194 C27.938569,7.3741871 26.2547928,7.01178065 24.5734819,7.01178065 C20.717807,7.01178065 17.4266779,9.89400645 16.7857089,13.9364194 C16.4528981,15.9527613 16.926229,17.8815419 18.0849037,19.2265806 C19.1498983,20.4621677 20.6685017,20.9778065 22.4780064,20.9778065 C25.5867059,20.9778065 27.3099263,19.0101097 27.3099263,19.0101097 L27.1546146,19.9659871 C27.0954482,20.3283935 27.381419,20.6591806 27.7561393,20.6591806 L30.8968873,20.6591806 C31.3948709,20.6591806 31.8188965,20.3016387 31.897785,19.8176194 L33.7837129,8.03332903 C33.840414,7.66605806 33.5544432,7.33527097 33.1821882,7.33527097 M12.242225,7.41796774 C11.8428521,9.99859355 9.84598719,9.99859355 7.91321922,9.99859355 L6.81371091,9.99859355 L7.58533894,5.18029032 C7.63217898,4.88841935 7.8861013,4.67438065 8.1843984,4.67438065 L8.68977778,4.67438065 C10.0062294,4.67438065 11.2462579,4.67438065 11.8872268,5.4137871 C12.2718082,5.85645806 12.3876757,6.51316774 12.242225,7.41796774 M11.4015696,0.685477419 L4.11424545,0.685477419 C3.61626186,0.685477419 3.19223624,1.04301935 3.11334775,1.52947097 L0.167355756,19.9635548 C0.108189389,20.3259613 0.39416016,20.6567484 0.766415215,20.6567484 L4.24736977,20.6567484 C4.74535335,20.6567484 5.16937898,20.2992065 5.2458022,19.8151871 L6.04208288,14.8412194 C6.11850611,14.3547677 6.544997,13.9972258 7.04051532,13.9972258 L9.34553834,13.9972258 C14.1454098,13.9972258 16.916368,11.7060387 17.6386907,7.16258065 C17.9641057,5.17785806 17.651017,3.61634839 16.7092857,2.52426452 C15.6763395,1.32029677 13.8397169,0.685477419 11.4015696,0.685477419" id="Fill-7" fill="#003087"></path>
                    <path d="M80.2909421,14.0361419 C79.9532008,16.0038387 78.3705005,17.3245548 76.3514482,17.3245548 C75.3406895,17.3245548 74.5296172,17.0034968 74.0094462,16.3954323 C73.4917405,15.7922323 73.2994498,14.9336452 73.4621574,13.9777677 C73.775246,12.0270968 75.3850643,10.6650323 77.3720681,10.6650323 C78.3631047,10.6650323 79.1667812,10.9885226 79.6992785,11.6038839 C80.234241,12.2216774 80.4437886,13.085129 80.2909421,14.0361419 M85.1549105,7.33527097 L81.6665602,7.33527097 C81.3682631,7.33527097 81.1143407,7.54930968 81.0650354,7.84118065 L80.912189,8.80435484 L80.6681277,8.45654194 C79.9137566,7.3741871 78.2275151,7.01178065 76.5462042,7.01178065 C72.6905293,7.01178065 69.3994002,9.89400645 68.7584312,13.9364194 C68.4256204,15.9527613 68.8989514,17.8815419 70.057626,19.2265806 C71.1226206,20.4621677 72.641224,20.9778065 74.4507287,20.9778065 C77.5594282,20.9778065 79.2826486,19.0101097 79.2826486,19.0101097 L79.1273369,19.9659871 C79.0681706,20.3283935 79.3541413,20.6591806 79.7288617,20.6591806 L82.8696096,20.6591806 C83.3675932,20.6591806 83.7916188,20.3016387 83.8705073,19.8176194 L85.7564352,8.03332903 C85.8131363,7.66605806 85.5271656,7.33527097 85.1549105,7.33527097" id="Fill-9" fill="#009CDE"></path>
                    <path d="M51.7653578,7.33527097 L48.2572853,7.33527097 C47.9220092,7.33527097 47.6089205,7.49823226 47.4190951,7.77307742 L42.5797794,14.8023032 L40.5286787,8.04792258 C40.4004849,7.62470968 40.0060424,7.33527097 39.5573642,7.33527097 L36.1109233,7.33527097 C35.6942935,7.33527097 35.4009269,7.73902581 35.5365165,8.1281871 L39.3971219,19.3117097 L35.7657862,24.3683742 C35.4822807,24.7648323 35.7682515,25.3145226 36.2613045,25.3145226 L39.7644464,25.3145226 C40.0972573,25.3145226 40.4078807,25.1539935 40.5977061,24.8864452 L52.2608761,8.2789871 C52.5419163,7.88009677 52.2559455,7.33527097 51.7653578,7.33527097" id="Fill-11" fill="#003087"></path>
                    <path d="M89.266973,1.1913871 L86.2766062,19.9635548 C86.2174398,20.3259613 86.5034106,20.6567484 86.8756657,20.6567484 L89.8832893,20.6567484 C90.3812729,20.6567484 90.8052985,20.2992065 90.8817217,19.8127548 L93.830179,1.37867097 C93.8893453,1.01626452 93.6033746,0.685477419 93.2286543,0.685477419 L89.8635672,0.685477419 C89.5677353,0.685477419 89.3113477,0.899516129 89.266973,1.1913871" id="Fill-13" fill="#009CDE"></path>
                </g>
            </g>
        </g>
    </g>
</svg>