<?xml version="1.0" encoding="UTF-8" standalone="no"?>
<svg width="54px" height="54px" viewBox="0 0 54 54" version="1.1" xmlns="http://www.w3.org/2000/svg" xmlns:xlink="http://www.w3.org/1999/xlink">
    <!-- Generator: Sketch 3.8.3 (29802) - http://www.bohemiancoding.com/sketch -->
    <title>snapchat</title>
    <desc>Created with Sketch.</desc>
    <defs></defs>
    <g id="v5" stroke="none" stroke-width="1" fill="none" fill-rule="evenodd">
        <g id="sobre" transform="translate(-738.000000, -3966.000000)">
            <g id="redes-sociais" transform="translate(1.000000, 3842.000000)">
                <g transform="translate(231.000000, 124.000000)" id="snapchat">
                    <g transform="translate(506.000000, 0.000000)">
                        <rect id="Rectangle" x="0" y="0" width="54" height="54"></rect>
                        <ellipse id="Oval" fill="#FDB933" cx="27" cy="27" rx="27" ry="27"></ellipse>
                        <path d="M34.5314693,25.6107909 C34.7127206,24.5615701 34.674636,23.365797 34.674636,22.1291583 C34.674636,18.1777365 31.4369993,14.9744763 27.4431721,14.9744763 C23.4493448,14.9744763 20.2117081,18.1777365 20.2117081,22.1291583 C20.2117081,23.1217465 20.1871722,24.0462437 20.2712139,24.8794713 C19.1545684,24.7098 17.9327345,24.6499638 18.0391872,25.2275727 C18.2321075,26.2743514 20.546831,26.9031808 20.546831,26.9031808 C20.546831,26.9031808 21.6025965,28.932585 19.2056975,30.6796511 C16.8087985,32.4267173 14.5282475,32.5911618 14.2860678,33.3617041 C14.0438882,34.1322464 17.9534806,34.6638257 17.9534806,34.6638257 C17.9534806,34.6638257 17.1215665,36.0093413 18.0391874,36.4321704 C18.9568083,36.8549996 21.4851109,36.2911602 21.4851109,36.2911602 C21.4851109,36.2911602 23.2424023,38.9261738 26.2114992,39.0227573 C29.1805961,39.1193408 32.6638987,36.6548015 32.6638987,36.6548015 C32.6638987,36.6548015 35.2688628,37.7477938 36.163429,37.5230943 C37.0579953,37.2983948 36.5126759,35.6880556 36.5126759,35.6880556 C36.5126759,35.6880556 41.3552658,34.4567569 40.696897,33.9092304 C40.0385281,33.3617038 36.8230818,33.2038615 35.4533794,31.4917304 C34.083677,29.7795993 34.4797896,27.8946988 34.4797896,27.8946988 C34.4797896,27.8946988 37.6746535,27.4214887 37.8635493,26.2346525 C37.9982247,25.3884838 35.8028682,25.4854234 34.5314693,25.6107909 Z" id="Oval-11" fill="#FFFFFF"></path>
                    </g>
                </g>
            </g>
        </g>
    </g>
</svg>