<?xml version="1.0" encoding="utf-8"?>
<!-- Generator: Adobe Illustrator 18.0.0, SVG Export Plug-In . SVG Version: 6.00 Build 0)  -->
<!DOCTYPE svg PUBLIC "-//W3C//DTD SVG 1.1//EN" "http://www.w3.org/Graphics/SVG/1.1/DTD/svg11.dtd">
<svg version="1.1" id="Layer_1" xmlns="http://www.w3.org/2000/svg" xmlns:xlink="http://www.w3.org/1999/xlink" x="0px" y="0px"
	 width="39px" height="26px" viewBox="0 0 39 26" style="enable-background:new 0 0 39 26;" xml:space="preserve">
<g>
	<g>
		<path style="fill:#F3F4F4;" d="M1.9502,25.5C1.1504,25.5,0.5,24.8496,0.5,24.0498V1.9502C0.5,1.1504,1.1504,0.5,1.9502,0.5
			h35.0996C37.8496,0.5,38.5,1.1504,38.5,1.9502v22.0996c0,0.7998-0.6504,1.4502-1.4502,1.4502H1.9502z"/>
		<path style="fill:#DADBD9;" d="M37.0501,1c0.5238,0,0.95,0.4262,0.95,0.95v22.1c0,0.5238-0.4262,0.95-0.95,0.95H1.95
			C1.4262,25,1,24.5738,1,24.05V1.95C1,1.4262,1.4262,1,1.95,1H37.0501 M37.0501,0H1.95C0.8731,0,0,0.873,0,1.95v22.1
			C0,25.1269,0.8731,26,1.95,26h35.1001c1.077,0,1.95-0.8731,1.95-1.95V1.95C39.0001,0.873,38.127,0,37.0501,0L37.0501,0z"/>
	</g>
	<g>
		<path d="M10.9781,22.9572l-0.1953-0.668H9.7164l-0.2119,0.668H8.816l1.0781-3.3369h0.9053l1.0332,3.3369H10.9781z
			 M10.2593,20.5128l-0.3477,1.1455h0.6885L10.2593,20.5128z"/>
		<path d="M12.9722,21.2804c-0.2197,0.2119-0.207,0.6807-0.207,0.7388v0.938h-0.7051v-2.5029h0.668v0.4941
			c0.0166-0.0791,0.0576-0.166,0.0703-0.1865c0.1992-0.291,0.3115-0.3574,0.4395-0.3574h0.1377v0.7637
			C13.2134,21.1559,13.0845,21.1642,12.9722,21.2804z"/>
		<path d="M15.9332,20.546c-0.1748-0.0044-0.2617,0.0952-0.2695,0.1782v0.0288c0.1445,0.1704,0.1777,0.2783,0.1816,0.4775
			c0.0215,0.498-0.5225,0.7554-1.0371,0.7598c-0.2324,0.0039-0.5391-0.1206-0.585,0.1201
			c-0.0332,0.1992,0.1611,0.2363,0.4521,0.2573c0.6143,0.0454,1.4355-0.0708,1.4355,0.6641c0,0.6353-0.7842,0.8257-1.4316,0.8052
			c-0.5518-0.0205-1.2119-0.0293-1.2451-0.5645c-0.0166-0.2324,0.1865-0.3691,0.4072-0.4565
			c-0.1699-0.0747-0.2871-0.2368-0.2949-0.4438c-0.0039-0.1787,0.1201-0.353,0.3027-0.4526l0.1621-0.0913
			c-0.2529-0.1289-0.415-0.3115-0.415-0.6143c0-0.5312,0.5811-0.7764,1.1416-0.751c0.249,0.0078,0.543,0.0576,0.6387,0.0996
			c0-0.1538,0.0752-0.3652,0.2578-0.436c0.0703-0.0288,0.415-0.062,0.498-0.021v0.4648
			C16.0621,20.5417,16.0113,20.55,15.9332,20.546z M14.8121,22.9777c-0.2949-0.0122-0.7803-0.1118-0.7471,0.1826
			c0.0332,0.2578,0.3818,0.2202,0.6436,0.2285c0.2949,0.0166,0.7676-0.0083,0.7344-0.2119
			C15.4019,22.924,15.066,22.9943,14.8121,22.9777z M14.7164,20.8571c-0.2607-0.0044-0.3936,0.1577-0.3936,0.3652
			s0.1279,0.3862,0.3936,0.3696c0.2744-0.0166,0.4277-0.1538,0.4238-0.3696S15.0201,20.8654,14.7164,20.8571z"/>
		<path d="M17.0933,21.8283v0.2158c0,0.2324,0.2246,0.4565,0.4775,0.4443c0.2529-0.021,0.4189-0.2285,0.415-0.3154v-0.0791
			l0.6807,0.0415l-0.0205,0.0581c-0.1543,0.4565-0.5107,0.793-1.1377,0.8052c-0.7012,0.0122-1.1865-0.5688-1.1953-1.2368
			c-0.0039-0.6641,0.3896-1.3906,1.1865-1.3696c0.6816,0.021,1.1621,0.5312,1.1709,1.2495v0.1865H17.0933z M17.5377,20.8781
			c-0.2578,0-0.5029,0.2568-0.4521,0.5186h0.8506C17.9859,21.1476,17.8277,20.8693,17.5377,20.8781z"/>
		<path d="M20.3463,22.9572v-1.5811c0-0.1914-0.0791-0.3696-0.3242-0.3696c-0.2734,0-0.3818,0.3237-0.3818,0.5933v1.3574h-0.7139
			v-2.5029h0.6846v0.457c0.125-0.2988,0.3535-0.4692,0.7061-0.4609c0.668,0.0083,0.7471,0.4565,0.7471,0.917v1.5898H20.3463z"/>
		<path d="M22.9175,21.4132c-0.0205-0.2241-0.0293-0.4316-0.3818-0.4316c-0.3936-0.0039-0.4521,0.5352-0.4189,0.8716
			c0.0254,0.2573,0.0586,0.5562,0.3984,0.5435c0.2246-0.0078,0.4023-0.1572,0.3945-0.4189l0.6934,0.0415
			c-0.0996,0.5601-0.4033,0.9546-1.1084,0.9585c-0.6562,0.0044-1.1826-0.4355-1.2041-1.1865
			c-0.0205-0.7017,0.4482-1.3701,1.208-1.3613c0.8135,0.0078,1.0254,0.4893,1.1162,0.9541L22.9175,21.4132z"/>
		<path d="M25.4273,22.9572c-0.0127-0.0703-0.0215-0.1245-0.0293-0.1992c-0.0088-0.0581-0.0127-0.0957-0.0127-0.1533
			c-0.0371,0.0664-0.2861,0.3984-0.7676,0.4062c-0.4111,0-0.7764-0.2158-0.7842-0.7139c-0.0049-0.6309,0.6465-0.8008,1.2158-0.8545
			l0.3066-0.0332v-0.2578c0-0.1406-0.1826-0.2236-0.3398-0.2324c-0.2578-0.0166-0.3984,0.1372-0.4277,0.3486l-0.6807-0.0576
			l0.0078-0.0459c0.0879-0.5352,0.6855-0.7388,1.1748-0.7266c0.7842,0.0254,0.9678,0.3779,0.9834,0.5811l0.0176,0.208v1.4521
			c0,0.0664,0.0078,0.1084,0.0205,0.1748c0.0078,0.0371,0.0166,0.0703,0.0244,0.1035H25.4273z M25.1402,21.8034
			c-0.3066,0.0249-0.7217,0.2822-0.4609,0.6519c0.1709,0.2324,0.6768,0.0244,0.6816-0.3945l0.0039-0.2783L25.1402,21.8034z"/>
		<path d="M27.4,21.2804c-0.2197,0.2119-0.207,0.6807-0.207,0.7388v0.938h-0.7051v-2.5029h0.668v0.4941
			c0.0166-0.0791,0.0576-0.166,0.0703-0.1865c0.1992-0.291,0.3115-0.3574,0.4395-0.3574h0.1377v0.7637
			C27.6412,21.1559,27.5123,21.1642,27.4,21.2804z"/>
		<path d="M29.482,22.9572v-0.3818c-0.1699,0.2905-0.3779,0.4814-0.7471,0.4443c-0.6104-0.0664-0.8057-0.54-0.8301-1.3115
			c-0.0205-0.5605,0.2363-1.3159,0.9131-1.3037c0.3945,0.0044,0.585,0.2324,0.5977,0.249l0.041,0.0586v-1.1377h0.7188v3.3828H29.482
			z M29.4488,21.2887c0-0.1284-0.1455-0.3608-0.3408-0.3774c-0.3271-0.021-0.4355,0.4482-0.4355,0.8008
			c0,0.3359,0.0703,0.793,0.4072,0.772c0.2148-0.0166,0.3691-0.2114,0.3691-0.4194V21.2887z"/>
	</g>
	<path style="fill:#E8212A;" d="M19.5001,1.9999c-6.0455,0-10.9464,3.3109-10.9464,7.3951s4.9009,7.395,10.9464,7.395
		c0.3156,0,0.6261-0.0142,0.9349-0.0319l2.9981-3.7576H14.173V6.3309h10.6541v6.3881v0.2815v2.8522
		c3.3506-1.2643,5.6193-3.6807,5.6193-6.4576C30.4464,5.3109,25.5455,1.9999,19.5001,1.9999z"/>
	<rect x="24.9062" y="10.256" style="fill:#E8212A;" width="5.5402" height="7.066"/>
</g>
</svg>
