<?xml version="1.0" encoding="utf-8"?>
<!-- Generator: Adobe Illustrator 18.0.0, SVG Export Plug-In . SVG Version: 6.00 Build 0)  -->
<!DOCTYPE svg PUBLIC "-//W3C//DTD SVG 1.1//EN" "http://www.w3.org/Graphics/SVG/1.1/DTD/svg11.dtd">
<svg version="1.1" id="Layer_1" xmlns="http://www.w3.org/2000/svg" xmlns:xlink="http://www.w3.org/1999/xlink" x="0px" y="0px"
	 width="39px" height="26px" viewBox="0 0 39 26" style="enable-background:new 0 0 39 26;" xml:space="preserve">
<g>
	<g>
		<path style="fill:#F3F4F4;" d="M1.9502,25.5C1.1504,25.5,0.5,24.8496,0.5,24.0498V1.9502C0.5,1.1504,1.1504,0.5,1.9502,0.5
			h35.0996C37.8496,0.5,38.5,1.1504,38.5,1.9502v22.0996c0,0.7998-0.6504,1.4502-1.4502,1.4502H1.9502z"/>
		<path style="fill:#DADBD9;" d="M37.0501,1c0.5238,0,0.95,0.4262,0.95,0.95v22.1c0,0.5238-0.4262,0.95-0.95,0.95H1.95
			C1.4262,25,1,24.5738,1,24.05V1.95C1,1.4262,1.4262,1,1.95,1H37.0501 M37.0501,0H1.95C0.8731,0,0,0.873,0,1.95v22.1
			C0,25.1269,0.8731,26,1.95,26h35.1001c1.077,0,1.95-0.8731,1.95-1.95V1.95C39.0001,0.873,38.127,0,37.0501,0L37.0501,0z"/>
	</g>
	<g>
		<polygon style="fill-rule:evenodd;clip-rule:evenodd;fill:#004282;" points="30.5,23.9993 30.5,2.0007 8.5,2.0007 8.5,23.9993 
			30.5,23.9993 		"/>
		<polygon style="fill-rule:evenodd;clip-rule:evenodd;fill:#FFFFFF;" points="22.7923,10.8765 19.7925,13.8793 19.7925,16.6449 
			25.5626,10.8728 19.7925,5.1014 19.7925,7.8749 22.7923,10.8765 		"/>
		<polygon style="fill-rule:evenodd;clip-rule:evenodd;fill:#FFFFFF;" points="16.1873,10.8765 19.193,7.8749 19.193,5.0984 
			13.418,10.8728 19.193,16.6478 19.193,13.8804 16.1873,10.8765 		"/>
		<path style="fill-rule:evenodd;clip-rule:evenodd;fill:#FFFFFF;" d="M14.7874,17.672h0.0933l-0.2493,1.0744h-0.0942
			c-0.0127-0.2916-0.0872-0.5113-0.2178-0.6546c-0.1314-0.1433-0.3049-0.2128-0.5178-0.2128c-0.2274,0-0.4592,0.0942-0.6848,0.2915
			c-0.2275,0.196-0.421,0.4991-0.5789,0.9012c-0.1266,0.3267-0.1911,0.6485-0.1911,0.9686c0,0.2843,0.0695,0.5032,0.2118,0.6549
			c0.1401,0.1514,0.3307,0.2239,0.5727,0.2239c0.2014,0,0.3828-0.0422,0.5438-0.1295c0.1645-0.0846,0.3267-0.2256,0.4943-0.4191
			h0.1198c-0.207,0.3073-0.415,0.5237-0.6231,0.6497c-0.2116,0.1245-0.4688,0.1863-0.7732,0.1863
			c-0.4057,0-0.7324-0.1228-0.9817-0.3709c-0.2491-0.2444-0.3757-0.5661-0.3757-0.9642c0-0.372,0.1011-0.7272,0.2971-1.0664
			c0.1973-0.3376,0.4846-0.6092,0.8565-0.8202c0.3678-0.207,0.7405-0.3128,1.1077-0.3128c0.1374,0,0.311,0.0303,0.5179,0.0902
			c0.1058,0.0314,0.1814,0.0453,0.2226,0.0453C14.6217,17.8075,14.7028,17.7622,14.7874,17.672L14.7874,17.672z"/>
		<path style="fill-rule:evenodd;clip-rule:evenodd;fill:#FFFFFF;" d="M16.7413,18.7343l-0.0648,1.1027h-0.8777L16.7413,18.7343
			L16.7413,18.7343z M16.5847,20.8592c-0.0393,0.0696-0.0804,0.1198-0.1259,0.1422c-0.0253,0.0109-0.1058,0.0235-0.251,0.0363
			l-0.0303,0.0932h1.4644l0.0255-0.0932c-0.1059-0.0079-0.1815-0.0382-0.2257-0.0885c-0.0459-0.0538-0.0714-0.1353-0.0714-0.2491
			c0-0.0272,0.0049-0.1156,0.0098-0.2589l0.1107-2.7693h-0.1107l-2.3955,2.8595c-0.1766,0.2098-0.3071,0.3454-0.4033,0.41
			c-0.0697,0.049-0.1453,0.0804-0.2372,0.0962l-0.0249,0.0932h1.0066v-0.0932c-0.098-0.0049-0.1659-0.0255-0.2117-0.0587
			c-0.0393-0.0345-0.0599-0.0708-0.0599-0.1102c0-0.0381,0.0047-0.0755,0.0235-0.1155c0.0225-0.0503,0.0569-0.1053,0.1029-0.167
			l0.2364-0.2873l0.2116-0.2588h1.0477l-0.0205,0.4306C16.6446,20.6543,16.6227,20.7836,16.5847,20.8592L16.5847,20.8592z"/>
		<path style="fill-rule:evenodd;clip-rule:evenodd;fill:#FFFFFF;" d="M20.0846,17.9291c0.1356-0.006,0.2462,0.0351,0.3268,0.1154
			c0.0804,0.0805,0.1215,0.1864,0.1215,0.3171c0,0.1392-0.0379,0.2824-0.1186,0.4386c-0.0786,0.156-0.1845,0.2686-0.312,0.3363
			c-0.1344,0.0677-0.3098,0.1041-0.5365,0.1059l0.3816-1.3114L20.0846,17.9291L20.0846,17.9291z M19.0969,17.9102
			c0.0502,0.0382,0.0707,0.0866,0.0707,0.1436c0,0.0713-0.0284,0.2117-0.0913,0.4227l-0.5983,2.0797
			c-0.0502,0.1658-0.0962,0.2776-0.1307,0.3286c-0.0363,0.0519-0.0804,0.0901-0.1421,0.1148
			c-0.0569,0.0254-0.1542,0.0382-0.2915,0.0382l-0.0321,0.0932h1.4064c0.5238,0,0.8861-0.0413,1.0883-0.1169
			c0.196-0.0774,0.352-0.2002,0.4737-0.366c0.1196-0.1675,0.1795-0.3363,0.1795-0.5069c0-0.1845-0.0599-0.3454-0.1795-0.4809
			c-0.1247-0.1391-0.3376-0.2511-0.6552-0.3393c0.3019-0.0679,0.524-0.1434,0.6691-0.2239c0.1471-0.0805,0.2577-0.1851,0.3267-0.308
			c0.0761-0.1264,0.1124-0.2462,0.1124-0.3678c0-0.1433-0.0459-0.2758-0.136-0.3925c-0.0913-0.1125-0.2238-0.1913-0.3927-0.2305
			c-0.1266-0.0302-0.3381-0.0492-0.6376-0.0492h-1.3362l-0.0253,0.0932C18.9408,17.8486,19.0461,17.8709,19.0969,17.9102
			l0.8564,1.5717c0.0872,0.0332,0.158,0.0932,0.2167,0.1814c0.0551,0.0883,0.0804,0.1876,0.0804,0.3012
			c0,0.2352-0.0713,0.4561-0.2164,0.663c-0.1465,0.2062-0.4036,0.3121-0.7713,0.3121c-0.0442,0-0.1059-0.003-0.1863-0.0078
			l0.4294-1.5039c0.211,0,0.3563,0.0206,0.4475,0.0539L19.0969,17.9102L19.0969,17.9102z"/>
		<path style="fill-rule:evenodd;clip-rule:evenodd;fill:#FFFFFF;" d="M23.5478,18.7343l-0.0629,1.1027h-0.8741L23.5478,18.7343
			L23.5478,18.7343z M23.3916,20.8592c-0.041,0.0696-0.0803,0.1198-0.1262,0.1422c-0.0218,0.0109-0.1054,0.0235-0.2523,0.0363
			l-0.0237,0.0932h1.4597l0.0266-0.0932c-0.1071-0.0079-0.1832-0.0382-0.2286-0.0885c-0.0459-0.0538-0.0648-0.1353-0.0648-0.2491
			c0-0.0272,0-0.1156,0.0048-0.2589l0.1101-2.7693h-0.1101l-2.3965,2.8595c-0.1707,0.2098-0.3067,0.3454-0.3982,0.41
			c-0.0707,0.049-0.1511,0.0804-0.2412,0.0962l-0.0253,0.0932h1.0113v-0.0932c-0.1011-0.0049-0.17-0.0255-0.211-0.0587
			c-0.0443-0.0345-0.0648-0.0708-0.0648-0.1102c0-0.0381,0.0079-0.0755,0.0254-0.1155c0.0204-0.0503,0.0549-0.1053,0.101-0.167
			l0.2414-0.2873l0.2111-0.2588h1.0448l-0.0236,0.4306C23.4516,20.6543,23.431,20.7836,23.3916,20.8592L23.3916,20.8592z"/>
		<path style="fill-rule:evenodd;clip-rule:evenodd;fill:#FFFFFF;" d="M27.778,20.1812l-0.3739,0.9498h-2.6997l0.0254-0.0932
			c0.1639,0,0.2805-0.0303,0.3532-0.0932c0.0757-0.0629,0.1452-0.202,0.207-0.421l0.6279-2.1699
			c0.0364-0.1198,0.0507-0.2129,0.0507-0.2806c0-0.0678-0.0193-0.1216-0.0761-0.1596c-0.0441-0.0394-0.1451-0.0648-0.2917-0.071
			l0.0315-0.0932h1.6204l-0.0282,0.0932c-0.158,0.0033-0.2748,0.0377-0.3492,0.106c-0.0786,0.0659-0.1463,0.202-0.2063,0.4053
			l-0.5746,1.9865c-0.0708,0.251-0.11,0.4053-0.11,0.4609c0,0.0326,0.0205,0.0647,0.055,0.093
			c0.0411,0.0267,0.101,0.0455,0.1833,0.0455c0.2741,0,0.5409-0.066,0.7979-0.1924c0.2576-0.1246,0.4736-0.3139,0.6503-0.5661
			H27.778L27.778,20.1812z"/>
	</g>
</g>
</svg>
