<?xml version="1.0" encoding="utf-8"?>
<!-- Generator: Adobe Illustrator 18.0.0, SVG Export Plug-In . SVG Version: 6.00 Build 0)  -->
<!DOCTYPE svg PUBLIC "-//W3C//DTD SVG 1.1//EN" "http://www.w3.org/Graphics/SVG/1.1/DTD/svg11.dtd">
<svg version="1.1" id="Layer_1" xmlns="http://www.w3.org/2000/svg" xmlns:xlink="http://www.w3.org/1999/xlink" x="0px" y="0px"
	 width="39px" height="26px" viewBox="0 0 39 26" style="enable-background:new 0 0 39 26;" xml:space="preserve">
<g>
	<g>
		<path style="fill:#F3F4F4;" d="M1.9502,25.5C1.1504,25.5,0.5,24.8496,0.5,24.0498V1.9502C0.5,1.1504,1.1504,0.5,1.9502,0.5
			h35.0996C37.8496,0.5,38.5,1.1504,38.5,1.9502v22.0996c0,0.7998-0.6504,1.4502-1.4502,1.4502H1.9502z"/>
		<path style="fill:#DADBD9;" d="M37.0501,1c0.5238,0,0.95,0.4262,0.95,0.95v22.1c0,0.5238-0.4262,0.95-0.95,0.95H1.95
			C1.4262,25,1,24.5738,1,24.05V1.95C1,1.4262,1.4262,1,1.95,1H37.0501 M37.0501,0H1.95C0.8731,0,0,0.873,0,1.95v22.1
			C0,25.1269,0.8731,26,1.95,26h35.1001c1.077,0,1.95-0.8731,1.95-1.95V1.95C39.0001,0.873,38.127,0,37.0501,0L37.0501,0z"/>
	</g>
	<g>
		<rect x="2.5" y="3.6931" style="fill:#0D5BA5;" width="34" height="18.6139"/>
		<path style="fill:#FFFFFF;" d="M25.7985,15.6616c-1.0525,2.7599-3.7357,4.7393-6.8652,4.7393
			c-3.1367,0-5.8129-1.9696-6.8606-4.7391l0.8011-0.0002c1.0072,2.3487,3.3385,3.9942,6.056,3.9942
			c2.7112,0,5.0411-1.6539,6.052-3.9942h0.8163L25.7985,15.6616z"/>
		<path style="fill:#FFFFFF;" d="M25.7985,15.6616l-0.0696-0.0266c-1.0418,2.732-3.6981,4.6917-6.7955,4.6914
			c-3.1049,0.0001-5.7539-1.9498-6.7909-4.691l-0.0696,0.0265v0.0744l0.8011-0.0002v-0.0744l-0.0683,0.0293
			c1.0184,2.3754,3.3762,4.0393,6.1245,4.0395c2.7422-0.0002,5.0982-1.6726,6.12-4.0394l-0.0684-0.0294v0.0744h0.8167v-0.0748
			l-0.0696-0.0266l0.0703,0.0266v-0.0745h-0.8656l-0.0195,0.045c-0.9995,2.314-3.3033,3.9493-5.9834,3.9492
			c-2.6869,0-4.9916-1.627-5.9874-3.9491l-0.0193-0.0451l-0.9581,0.0002l0.0382,0.1008c1.058,2.7976,3.7616,4.7871,6.9303,4.7873
			c3.1616-0.0003,5.8718-1.9993,6.9349-4.7873l0.0385-0.101h-0.1081v0.0748L25.7985,15.6616z"/>
		<path style="fill:#FFFFFF;" d="M25.0449,10.4098c-0.1957-0.4586-0.4497-0.8906-0.7384-1.2884
			c-0.1203,0.0438-0.2625,0.0725-0.3979,0.0725c-0.6248,0-1.1312-0.5066-1.1312-1.1313c0-0.1406,0.0256-0.2756,0.0728-0.3997
			C21.7645,6.873,20.4266,6.406,18.9812,6.406c-2.7206,0-5.0543,1.6472-6.0565,4.0017h-0.7949c1.05-2.76,3.7266-4.7446,6.855-4.7446
			c1.6211,0,3.1222,0.5332,4.3354,1.4242c0.1745-0.1085,0.3762-0.1693,0.5969-0.1693c0.6292,0,1.1393,0.5102,1.1393,1.1393
			c0,0.2153-0.0578,0.4136-0.1612,0.5851c0.3932,0.5328,0.7198,1.1375,0.9551,1.7653l-0.8052,0.0023L25.0449,10.4098z"/>
		<path style="fill:#FFFFFF;" d="M25.0449,10.4098l0.0685-0.0292c-0.1981-0.4646-0.455-0.9012-0.7466-1.3029l-0.033-0.0453
			l-0.0526,0.019c-0.1127,0.0411-0.2476,0.0682-0.3726,0.0681c-0.2921,0-0.5559-0.1181-0.7473-0.3096
			c-0.1915-0.1916-0.3095-0.4552-0.3095-0.7473c0-0.1316,0.0239-0.2575,0.068-0.3732L22.94,7.6362l-0.0461-0.0334
			c-1.0979-0.7989-2.4512-1.2712-3.9128-1.2712c-2.7513,0-5.1115,1.6659-6.1251,4.0469l0.0686,0.0293v-0.0745h-0.7949v0.0745
			l0.0696,0.0265c1.0394-2.7321,3.6891-4.6969,6.7853-4.6967c1.6045,0,3.0901,0.5275,4.2914,1.4098l0.0406,0.0297l0.0428-0.0266
			c0.1634-0.1015,0.3505-0.158,0.5577-0.1582c0.2942,0,0.56,0.1191,0.7529,0.312c0.1929,0.1929,0.312,0.4587,0.312,0.7529
			c-0.0001,0.202-0.0538,0.3864-0.1505,0.5466l-0.0257,0.0427l0.0296,0.0399c0.3888,0.5271,0.7124,1.1261,0.9453,1.7474
			l0.0696-0.0262L25.85,10.3332l-0.8055,0.002v0.0742l0.0685-0.0292l-0.0686,0.0289l0.0002,0.0745l0.9126-0.0023l-0.0375-0.1004
			c-0.2377-0.6343-0.5675-1.2449-0.9649-1.7835l-0.06,0.0443l0.0637,0.0384c0.1102-0.1826,0.172-0.3949,0.1719-0.6235
			c-0.0001-0.6703-0.5435-1.2136-1.2139-1.2138c-0.2345,0-0.4506,0.0649-0.6363,0.1807l0.0394,0.0632l0.044-0.06
			c-1.2254-0.9002-2.7419-1.4387-4.3795-1.4387c-3.1606,0.0002-5.8639,2.0046-6.9247,4.7926l-0.0382,0.101h0.952l0.0193-0.0453
			c0.9912-2.3278,3.2982-3.9565,5.988-3.9564c1.4294,0,2.7516,0.4616,3.8252,1.2426l0.0437-0.0602l-0.0696-0.0265
			c-0.0505,0.1325-0.0777,0.2765-0.0777,0.4262c0,0.6658,0.5396,1.2058,1.2057,1.2058c0.146-0.0001,0.2953-0.0305,0.4234-0.0769
			l-0.0254-0.07l-0.0602,0.0438c0.2858,0.3938,0.537,0.8211,0.7301,1.2738l0.0194,0.0453l0.0494-0.0001l0.0011-0.0742
			L25.0449,10.4098z"/>
		<path style="fill:#F26A21;" d="M23.2944,8.0476c0-0.3436,0.2785-0.6223,0.622-0.6223c0.3442,0,0.6229,0.2787,0.6229,0.6223
			c0,0.3433-0.2786,0.6218-0.6229,0.6218c-0.3434,0-0.6222-0.2785-0.6222-0.6218"/>
		<path style="fill:#F26A21;" d="M23.2944,8.0476h0.0123c0-0.1684,0.0683-0.3208,0.1786-0.4313
			c0.1103-0.1104,0.2626-0.1786,0.4311-0.1786c0.1686,0,0.3212,0.0682,0.4317,0.1786c0.1106,0.1104,0.1788,0.2629,0.1788,0.4313
			c0,0.1683-0.0682,0.3206-0.1787,0.4309C24.2377,8.5888,24.085,8.657,23.9164,8.657c-0.1685,0-0.3207-0.0682-0.4311-0.1786
			c-0.1103-0.1103-0.1786-0.2625-0.1786-0.4309h-0.0252c0,0.35,0.2841,0.634,0.6344,0.6342c0.3509,0,0.6351-0.2842,0.6352-0.6342
			c-0.0001-0.3505-0.2842-0.6346-0.6352-0.6346c-0.3504,0-0.6344,0.2842-0.6344,0.6346h0.0128H23.2944z"/>
		<path style="fill:#FFFFFF;" d="M5.3433,11.8395c0.1604-0.1608,0.3401-0.2798,0.5395-0.3575
			c0.2041-0.0828,0.4109-0.124,0.6199-0.124c0.2089,0,0.4131,0.0412,0.6125,0.124c0.2045,0.0777,0.3867,0.1967,0.5469,0.3575
			l0.2262,0.2258L7.4361,12.525l-0.2333-0.2262c-0.0971-0.0973-0.2067-0.1701-0.3282-0.2186
			c-0.1213-0.049-0.2455-0.0728-0.3718-0.0728c-0.1264,0-0.2504,0.0238-0.3718,0.0728c-0.1216,0.0486-0.2311,0.1214-0.3283,0.2186
			c-0.0973,0.0924-0.1701,0.1994-0.2186,0.3207c-0.0488,0.1215-0.0733,0.2455-0.0733,0.3719c0,0.1263,0.0245,0.2506,0.0733,0.3719
			c0.0484,0.1217,0.1213,0.2312,0.2186,0.3284c0.1947,0.1941,0.4278,0.2916,0.7001,0.2916c0.1312,0,0.2577-0.0243,0.3792-0.0728
			c0.1215-0.0486,0.2285-0.1215,0.321-0.2187l0.2333-0.2264l0.4522,0.4595l-0.2262,0.2266
			c-0.1603,0.1602-0.3424,0.2816-0.5469,0.3642c-0.1994,0.0777-0.4035,0.117-0.6125,0.117c-0.209,0-0.4158-0.0392-0.6199-0.117
			c-0.1995-0.0826-0.3792-0.204-0.5395-0.3642c-0.1606-0.1606-0.2797-0.3406-0.3576-0.5402
			c-0.0776-0.1994-0.1165-0.4033-0.1165-0.6123c0-0.2139,0.0389-0.4204,0.1165-0.6201C5.0636,12.1794,5.1827,11.9998,5.3433,11.8395
			"/>
		<path style="fill:#FFFFFF;" d="M5.3433,11.8395l0.0526,0.0525c0.1539-0.154,0.3244-0.2666,0.514-0.3407l0.0009-0.0003
			c0.196-0.0793,0.3928-0.1184,0.5919-0.1184c0.1991,0,0.393,0.039,0.5838,0.1183l0.0006,0.0001l0.0015,0.0007
			c0.1946,0.0741,0.3673,0.1867,0.5206,0.3403l0.174,0.1737l-0.3484,0.3544l-0.1803-0.1748l-0.0518,0.0534l0.0528-0.0527
			c-0.1038-0.1038-0.2222-0.1829-0.3533-0.2352c-0.1297-0.0521-0.2638-0.0782-0.3996-0.0782c-0.1359,0-0.2698,0.0261-0.3997,0.0783
			c-0.131,0.0522-0.2494,0.1312-0.3531,0.2351l0.0526,0.0527l-0.0513-0.0539c-0.1046,0.0993-0.1841,0.2158-0.2362,0.347
			c-0.0523,0.1296-0.0788,0.2636-0.0787,0.3996c-0.0001,0.1358,0.0264,0.27,0.0787,0.3997
			c0.0521,0.1312,0.1311,0.2495,0.2351,0.3533c0.2063,0.207,0.4625,0.3142,0.7526,0.3135c0.1405,0,0.2768-0.026,0.4069-0.0781
			c0.1313-0.0526,0.2479-0.1319,0.3473-0.2368l-0.054-0.0512l0.052,0.0534l0.1801-0.1749l0.3485,0.3542l-0.174,0.1743
			c-0.1535,0.1535-0.327,0.2688-0.5221,0.3478l0.0278,0.069l-0.027-0.0695c-0.1912,0.0746-0.3858,0.112-0.5854,0.112
			s-0.397-0.0373-0.5934-0.1122l-0.0265,0.0697l0.0284-0.0688c-0.1901-0.0788-0.3611-0.1942-0.5153-0.3482
			c-0.1539-0.154-0.2668-0.3248-0.3408-0.5144c-0.0744-0.1913-0.1114-0.3856-0.1114-0.5853c0-0.2049,0.0369-0.4017,0.1115-0.5932
			c0.074-0.1893,0.1868-0.3601,0.3407-0.5137l-0.0526-0.0521l-0.0526-0.0526c-0.1672,0.1667-0.2927,0.3557-0.3742,0.5649
			c-0.0811,0.2082-0.1218,0.4244-0.1216,0.6472c-0.0001,0.2183,0.0407,0.4317,0.1216,0.6393
			c0.0817,0.2096,0.2071,0.3988,0.3743,0.5658c0.1667,0.1667,0.3549,0.2941,0.5636,0.3803l0.001,0.0003l0.001,0.0005
			c0.2122,0.0807,0.4282,0.1219,0.6465,0.1219c0.2183,0,0.432-0.0413,0.6395-0.1221l0.0008-0.0003
			c0.2137-0.0863,0.4048-0.2137,0.5717-0.3806l0.2784-0.2789l-0.5558-0.5649L7.1498,13.64l-0.0009,0.0009
			c-0.0855,0.0899-0.183,0.1561-0.2947,0.201c-0.1128,0.045-0.2293,0.0673-0.3514,0.0673
			c-0.2544-0.0007-0.4646-0.0883-0.6475-0.2697c-0.0906-0.0906-0.1573-0.1911-0.202-0.3032
			c-0.0456-0.1133-0.068-0.2279-0.068-0.3444c0-0.1167,0.0224-0.2309,0.0679-0.344c0.0447-0.1117,0.111-0.2091,0.2008-0.2946
			l0.0005-0.0005l0.0009-0.0008c0.0907-0.0906,0.1912-0.1574,0.3032-0.2022c0.1132-0.0455,0.2272-0.0674,0.3442-0.0674
			c0.117,0,0.2312,0.0219,0.344,0.0674c0.1123,0.0448,0.213,0.1116,0.3035,0.2022l0.0003,0.0005l0.2869,0.2779l0.5558-0.565
			l-0.2785-0.278c-0.1671-0.1677-0.3588-0.293-0.5731-0.3744l-0.0265,0.0696l0.0285-0.0687
			c-0.2079-0.0864-0.4223-0.1298-0.641-0.1297c-0.2187,0-0.4355,0.0433-0.6479,0.1295l0.028,0.069l-0.0271-0.0694
			c-0.2093,0.0815-0.3981,0.2068-0.5652,0.3742L5.3433,11.8395L5.3433,11.8395z"/>
		<path style="fill:#FFFFFF;" d="M9.2156,12.2917c-0.1944,0.1946-0.2917,0.4279-0.2917,0.6998c0,0.1511,0.0339,0.2944,0.1022,0.4305
			c0.0584-0.0584,0.1457-0.1457,0.2622-0.2626c0.1217-0.1214,0.248-0.2478,0.3793-0.3791c0.1361-0.1361,0.2649-0.265,0.3864-0.3864
			c0.1267-0.1214,0.2239-0.2164,0.292-0.2844c-0.185-0.0926-0.3818-0.124-0.5908-0.0947c-0.204,0.0289-0.3836,0.1213-0.5389,0.2765
			 M10.8425,13.4655l0.4592,0.4593l-0.226,0.2263c-0.1555,0.1557-0.333,0.2747-0.5326,0.3573
			c-0.1992,0.0827-0.4083,0.1239-0.6272,0.1239c-0.2185,0-0.4278-0.0413-0.6271-0.1239c-0.1994-0.0826-0.3768-0.2016-0.5324-0.3573
			c-0.1601-0.1606-0.2793-0.3405-0.3569-0.5397c-0.0777-0.2042-0.117-0.411-0.117-0.6202c0-0.2085,0.0392-0.4129,0.117-0.6126
			c0.0777-0.1991,0.1969-0.3789,0.3569-0.5394c0.1607-0.1603,0.3405-0.2794,0.5399-0.3575
			c0.2042-0.0824,0.4108-0.1239,0.6197-0.1239c0.2094,0,0.4135,0.0414,0.6127,0.1239c0.2043,0.0781,0.3867,0.1971,0.5471,0.3575
			l0.226,0.2259l-1.8158,1.8162c0.185,0.0921,0.3793,0.1237,0.5835,0.0947c0.2091-0.0341,0.3912-0.1289,0.5469-0.2845l0.2272-0.2267
			L10.8425,13.4655z"/>
		<path style="fill:#FFFFFF;" d="M9.2156,12.2917L9.1628,12.239c-0.2072,0.2064-0.3142,0.4626-0.3135,0.7524
			c-0.0001,0.1622,0.0368,0.3179,0.11,0.4638l0.0462,0.0924l0.073-0.073c0.0584-0.0583,0.1456-0.1459,0.2622-0.2625
			c0.1217-0.1214,0.248-0.2478,0.3793-0.3792c0.1361-0.1361,0.2649-0.265,0.3864-0.3864l-0.0526-0.0526l0.0516,0.0538
			c0.1269-0.1217,0.2244-0.217,0.293-0.2855l0.0733-0.073l-0.0925-0.0461c-0.1501-0.0754-0.3096-0.1134-0.4752-0.1134
			c-0.0525,0-0.1057,0.0038-0.1594,0.0114c-0.2202,0.0312-0.4166,0.1324-0.5819,0.2981l0.0527,0.0527l0.0525,0.0528
			c0.1461-0.1456,0.3092-0.2287,0.4974-0.2561c0.047-0.0065,0.0932-0.0097,0.1386-0.0097c0.1429,0,0.2779,0.032,0.4085,0.0974
			l0.0333-0.0666l-0.0526-0.0527c-0.0677,0.0674-0.1644,0.1622-0.2909,0.2833l-0.0007,0.0005l-0.0003,0.0006
			c-0.1216,0.1214-0.2505,0.2502-0.3865,0.3864c-0.1312,0.1312-0.2575,0.2576-0.3793,0.379
			c-0.1167,0.117-0.2039,0.2043-0.2623,0.2627l0.0528,0.0527l0.0666-0.0334c-0.0632-0.1263-0.0943-0.2572-0.0943-0.3971
			c0.0007-0.254,0.0883-0.4643,0.2699-0.6471l-0.0538-0.0527L9.2156,12.2917z M10.8419,13.4658l-0.0526,0.0528l0.4066,0.4066
			l-0.1735,0.1737c-0.1488,0.149-0.3178,0.2622-0.5083,0.341c-0.1904,0.079-0.3891,0.1183-0.5986,0.1183
			c-0.2092,0-0.4082-0.0393-0.5985-0.1183c-0.1905-0.0788-0.3592-0.192-0.5082-0.3411c-0.1535-0.154-0.2663-0.3248-0.3404-0.5142
			l0.0002,0.0006c-0.0747-0.1964-0.1119-0.3937-0.1119-0.5937c0-0.1991,0.0372-0.394,0.1117-0.5855
			c0.0741-0.1893,0.1869-0.3601,0.3404-0.514c0.154-0.1535,0.3248-0.2663,0.5144-0.3406l0.0007-0.0002
			c0.196-0.0792,0.3927-0.1184,0.5917-0.1184c0.1996,0,0.3934,0.0392,0.5843,0.118l0.001,0.0005l0.0009,0.0002
			c0.1944,0.0745,0.3675,0.1874,0.521,0.3406l0.1732,0.1733L9.3596,13.902l0.0926,0.0461c0.1502,0.075,0.3084,0.1132,0.4718,0.1132
			c0.0513,0,0.1032-0.0039,0.1554-0.0112l0.0008-0.0001l0.0007-0.0003c0.2241-0.0362,0.4222-0.1396,0.5875-0.3053l0.2262-0.2259
			l-0.0533-0.0533l-0.0526,0.0528l0.0527-0.0527l-0.0526-0.0526l-0.2262,0.2259c-0.1462,0.1455-0.3122,0.2319-0.5063,0.2637
			l0.0119,0.0736l-0.0104-0.0738c-0.0456,0.0064-0.0904,0.0096-0.1345,0.0096c-0.1404,0-0.2743-0.0321-0.4054-0.0974l-0.0332,0.0668
			l0.0526,0.0526l1.8685-1.8688l-0.2786-0.2786c-0.1672-0.1672-0.3589-0.2925-0.5731-0.3744l-0.0266,0.0697l0.0286-0.0688
			c-0.2077-0.086-0.4219-0.1295-0.6412-0.1295c-0.2187,0-0.4353,0.0435-0.6475,0.1293l0.0278,0.0691l-0.0271-0.0695
			C9.059,11.494,8.87,11.6193,8.7028,11.7863c-0.1669,0.1672-0.2922,0.356-0.3739,0.5651C8.2481,12.5591,8.207,12.7732,8.207,12.991
			c0,0.2184,0.041,0.4347,0.1217,0.6467l0.0009,0.0019l-0.0006-0.0012c0.0817,0.209,0.2069,0.3981,0.3738,0.5653
			c0.1622,0.1623,0.3482,0.2872,0.5566,0.3735c0.2082,0.0863,0.4277,0.1295,0.6556,0.1295c0.2283,0,0.4475-0.0432,0.6557-0.1295
			c0.2083-0.0863,0.3945-0.2112,0.5566-0.3735l0.2786-0.279L10.8414,13.36l-0.0526,0.0527l0.0527,0.0521L10.8419,13.4658z"/>
		<path style="fill:#FFFFFF;" d="M11.6948,12.9915c0-0.2284,0.0411-0.4397,0.1238-0.6342c0.0877-0.1994,0.2042-0.3719,0.3503-0.5178
			c0.1505-0.1508,0.3257-0.2674,0.5246-0.3504c0.1996-0.087,0.4112-0.1309,0.6349-0.1309c0.2285,0,0.44,0.0438,0.6346,0.1309
			c0.199,0.0831,0.3741,0.1996,0.5249,0.3504c0.1505,0.1459,0.2675,0.3184,0.3501,0.5178c0.0872,0.1945,0.1311,0.4057,0.1311,0.6342
			v1.6412h-0.6492v-1.6412c0-0.1358-0.0265-0.2621-0.0801-0.379c-0.0485-0.1214-0.1191-0.2262-0.2116-0.3137
			c-0.0872-0.0924-0.1919-0.1629-0.3137-0.2115c-0.1214-0.0533-0.2502-0.0798-0.3862-0.0798c-0.1362,0-0.2649,0.0266-0.3867,0.0798
			c-0.1165,0.0486-0.2211,0.1192-0.3135,0.2115c-0.0872,0.0874-0.158,0.1923-0.2115,0.3137
			c-0.0484,0.1169-0.0727,0.2431-0.0727,0.379v1.6412h-0.6491v-1.641L11.6948,12.9915z"/>
		<path style="fill:#FFFFFF;" d="M11.6948,12.9915h0.0744c0-0.2194,0.0393-0.4204,0.118-0.6051l-0.0686-0.0291l0.0681,0.03
			c0.0843-0.1916,0.1956-0.3559,0.3348-0.4952c0.1438-0.1439,0.3102-0.2549,0.5007-0.3342l0.001-0.0004l0.0002-0.0001
			c0.1902-0.0828,0.3911-0.1246,0.605-0.1246c0.219,0,0.4194,0.0418,0.6042,0.1244l0.001,0.0005l0.0008,0.0002
			c0.1906,0.0793,0.3569,0.1903,0.501,0.3342l0.0003,0.0004l0.0005,0.0005c0.1432,0.1389,0.254,0.3025,0.3331,0.4928l0.0002,0.0006
			l0.0006,0.0013c0.0827,0.1846,0.1246,0.3849,0.1246,0.6037v1.5667h-0.5002l0.0001-1.5667c0-0.1454-0.0288-0.2832-0.0871-0.41
			l-0.0677,0.0311l0.0691-0.0275c-0.0522-0.1309-0.1292-0.2453-0.2296-0.3402l-0.0511,0.0541l0.0541-0.0511
			c-0.0946-0.1002-0.209-0.1773-0.3401-0.2297l-0.0277,0.0692l0.03-0.0683c-0.1309-0.0575-0.2705-0.0862-0.4162-0.0861
			c-0.146-0.0001-0.2855,0.0286-0.4166,0.0861l0.0299,0.0683l-0.0287-0.0688c-0.1256,0.0525-0.2385,0.129-0.3375,0.2277
			c-0.0942,0.0943-0.1701,0.2072-0.227,0.3364l-0.0003,0.0009l-0.0002,0.0006c-0.0525,0.1262-0.0786,0.2629-0.0785,0.4075v1.5667
			h-0.5001v-1.5667h-0.1477v1.7158h0.7981v-1.7158c0-0.1269,0.0224-0.243,0.0671-0.3503l-0.0688-0.0287l0.0682,0.0301
			c0.0503-0.1139,0.1157-0.2104,0.196-0.2912c0.0861-0.0858,0.1822-0.1506,0.2897-0.1955l0.0011-0.0005
			c0.1124-0.0492,0.2303-0.0736,0.3568-0.0736c0.1263,0,0.2443,0.0244,0.3564,0.0736l0.0016,0.0006l0.0007,0.0002
			c0.1123,0.0452,0.2073,0.1094,0.287,0.1938l0.0015,0.0015l0.0015,0.0015c0.0847,0.08,0.1487,0.175,0.1936,0.287l0.0007,0.0022
			l0.0007,0.0014c0.0491,0.1066,0.0734,0.2217,0.0734,0.3478v1.7158h0.7982v-1.7158c0.0001-0.2379-0.046-0.4603-0.1376-0.6646
			l-0.0681,0.0304l0.0687-0.0286c-0.0864-0.2083-0.2092-0.3899-0.367-0.5428l-0.0518,0.0535l0.0526-0.0528
			c-0.1576-0.1577-0.3413-0.28-0.549-0.3664l-0.0286,0.0687l0.0303-0.0679c-0.2043-0.0916-0.4269-0.1376-0.6649-0.1375
			c-0.2334-0.0001-0.4558,0.0461-0.6646,0.1371l0.0297,0.0682l-0.0286-0.0687c-0.2076,0.0863-0.3913,0.2086-0.5488,0.3664
			c-0.1527,0.1526-0.2745,0.3334-0.3656,0.5405l-0.0003,0.0008c-0.087,0.2043-0.1299,0.4261-0.1298,0.6634h0.0753L11.6948,12.9915z"
			/>
		<path style="fill:#FFFFFF;" d="M15.8365,11.8395c0.1606-0.1608,0.3403-0.2798,0.5397-0.3575
			c0.2042-0.0828,0.4106-0.124,0.6199-0.124c0.209,0,0.4132,0.0412,0.6126,0.124c0.2042,0.0777,0.3865,0.1967,0.5468,0.3575
			l0.2262,0.2258l-0.4521,0.4597l-0.2334-0.2262c-0.0974-0.0973-0.2065-0.1701-0.3282-0.2186
			c-0.1219-0.049-0.2458-0.0728-0.372-0.0728c-0.1264,0-0.2504,0.0238-0.3721,0.0728c-0.1217,0.0486-0.2307,0.1214-0.3282,0.2186
			c-0.0972,0.0924-0.1701,0.1994-0.2189,0.3207c-0.0482,0.1215-0.0728,0.2455-0.0728,0.3719c0,0.1263,0.0246,0.2506,0.0728,0.3719
			c0.0488,0.1217,0.1217,0.2312,0.2189,0.3284c0.1944,0.1941,0.4277,0.2916,0.7002,0.2916c0.1312,0,0.2574-0.0243,0.379-0.0728
			c0.1215-0.0486,0.2286-0.1215,0.3211-0.2187l0.2334-0.2264l0.4521,0.4595l-0.2262,0.2266
			c-0.1604,0.1602-0.3427,0.2816-0.5468,0.3642c-0.1994,0.0777-0.4035,0.117-0.6126,0.117c-0.2093,0-0.4157-0.0392-0.6199-0.117
			c-0.1995-0.0826-0.3792-0.204-0.5397-0.3642c-0.1605-0.1606-0.2798-0.3406-0.3572-0.5402
			c-0.0779-0.1994-0.117-0.4033-0.117-0.6123c0-0.2139,0.039-0.4204,0.117-0.6201c0.0771-0.1995,0.1961-0.3791,0.3564-0.5395"/>
		<path style="fill:#FFFFFF;" d="M15.8365,11.8395l0.0526,0.0525c0.154-0.1539,0.3246-0.2666,0.5141-0.3407l0.001-0.0003
			c0.196-0.0793,0.3923-0.1184,0.5919-0.1184c0.1992,0,0.3932,0.039,0.5839,0.1183l0.001,0.0003l0.0011,0.0005
			c0.1944,0.0741,0.3673,0.1867,0.5208,0.3403l0.1739,0.1737l-0.3485,0.3544l-0.1801-0.1748l-0.0519,0.0534l0.0526-0.0527
			c-0.1039-0.1038-0.222-0.1828-0.3532-0.2352c-0.13-0.0521-0.2639-0.0782-0.3996-0.0782c-0.1359,0-0.2699,0.0261-0.3999,0.0782
			c-0.131,0.0524-0.2491,0.1314-0.353,0.2352l0.0526,0.0527l-0.0515-0.0539c-0.1044,0.0993-0.1838,0.2158-0.2365,0.347
			c-0.0516,0.1299-0.0782,0.2636-0.0782,0.3996s0.0266,0.27,0.0781,0.3993c0.0526,0.1315,0.1317,0.2498,0.2354,0.3535
			c0.2063,0.2071,0.4626,0.3143,0.753,0.3136c0.1403,0,0.2765-0.026,0.4066-0.0781c0.1314-0.0526,0.2481-0.1319,0.3475-0.2368
			l-0.054-0.0512l0.0519,0.0533l0.1801-0.1748l0.3485,0.3542l-0.1739,0.1742c-0.1537,0.1535-0.3272,0.2688-0.5221,0.3478
			l0.0279,0.069l-0.0271-0.0695c-0.1912,0.0746-0.3858,0.112-0.5854,0.112c-0.2001,0-0.397-0.0373-0.5935-0.1122l-0.0264,0.0697
			l0.0284-0.0688c-0.1901-0.0788-0.3612-0.1942-0.5155-0.3482c-0.1539-0.154-0.2668-0.3248-0.3405-0.5143
			c-0.0747-0.1914-0.1117-0.3858-0.1117-0.5854c0-0.2047,0.0371-0.4017,0.1117-0.5931c0.0737-0.1894,0.1866-0.3602,0.3405-0.5138
			l-0.0538-0.0533l-0.0526-0.0526c-0.1671,0.1667-0.2927,0.3557-0.374,0.565c-0.0812,0.208-0.122,0.4242-0.122,0.6471
			c0,0.2183,0.0409,0.4319,0.122,0.6394c0.0814,0.2094,0.2068,0.3986,0.374,0.5656c0.1668,0.1667,0.3551,0.2941,0.5638,0.3803
			l0.0006,0.0003l0.0014,0.0005c0.2119,0.0807,0.4279,0.1219,0.6464,0.1219c0.2183,0,0.4321-0.0413,0.6395-0.1221l0.0008-0.0004
			c0.2136-0.0862,0.4047-0.2137,0.5717-0.3805l0.2784-0.2789l-0.556-0.5649l-0.2871,0.2788l-0.0012,0.0012
			c-0.0856,0.0898-0.1832,0.1561-0.2948,0.201c-0.1131,0.045-0.2292,0.0673-0.3513,0.0673
			c-0.2548-0.0007-0.4649-0.0883-0.6477-0.2696c-0.0904-0.0907-0.1572-0.1913-0.2022-0.3034
			c-0.045-0.1132-0.0675-0.2278-0.0675-0.3443c0-0.1167,0.0226-0.231,0.0677-0.3444c0.0447-0.1112,0.111-0.2088,0.2008-0.2942
			l0.0006-0.0005l0.0008-0.0007c0.091-0.0909,0.1912-0.1575,0.3032-0.2023c0.1133-0.0455,0.2274-0.0674,0.3445-0.0674
			c0.1168,0,0.2307,0.0219,0.3441,0.0674c0.1121,0.0448,0.2124,0.1115,0.3033,0.2023l0.2871,0.2782l0.5558-0.565l-0.2784-0.278
			c-0.1672-0.1677-0.359-0.293-0.573-0.3744l-0.0265,0.0696l0.0286-0.0687c-0.208-0.0864-0.4223-0.1298-0.6411-0.1297
			c-0.2192,0-0.4355,0.0433-0.6478,0.1295l0.0279,0.069l-0.0271-0.0694c-0.2093,0.0815-0.3982,0.2067-0.5653,0.3742l0.0538,0.0533
			L15.8365,11.8395z"/>
		<path style="fill:#FFFFFF;" d="M19.4173,12.9915c0,0.1367,0.0242,0.2655,0.0729,0.3869c0.0537,0.1213,0.1239,0.2284,0.2114,0.3208
			c0.0924,0.0873,0.1994,0.1578,0.3208,0.2113c0.1212,0.049,0.2505,0.073,0.3867,0.073c0.1359,0,0.2649-0.024,0.3862-0.073
			c0.1217-0.0535,0.2261-0.124,0.3138-0.2113c0.0923-0.0924,0.1627-0.1995,0.2115-0.3208c0.0534-0.1215,0.0801-0.2502,0.0801-0.3869
			c0-0.1358-0.0267-0.2621-0.0801-0.379c-0.0488-0.1214-0.1192-0.2262-0.2115-0.3133c-0.0877-0.0928-0.1921-0.1631-0.3138-0.2117
			c-0.1214-0.0535-0.2503-0.0801-0.3862-0.0801c-0.1362,0-0.2655,0.0266-0.3867,0.0801c-0.1215,0.0486-0.2284,0.1189-0.3208,0.2117
			c-0.0876,0.087-0.1578,0.1919-0.2114,0.3133c-0.0493,0.1173-0.0731,0.2431-0.0731,0.3791 M18.7751,12.9916
			c0-0.2281,0.0413-0.4397,0.1239-0.6342c0.0876-0.1994,0.2043-0.3719,0.35-0.5178c0.1508-0.1508,0.3259-0.2674,0.5251-0.35
			c0.1994-0.0874,0.4108-0.1312,0.6347-0.1312c0.2282,0,0.44,0.0438,0.6343,0.1312c0.1993,0.0827,0.3742,0.1992,0.5252,0.35
			c0.1504,0.1459,0.2674,0.3184,0.3499,0.5178c0.0876,0.1945,0.1312,0.4061,0.1312,0.6342c0,0.224-0.0437,0.4354-0.1312,0.6347
			c-0.0826,0.1992-0.1995,0.3744-0.3499,0.5253c-0.1509,0.1506-0.3259,0.2694-0.5252,0.3573
			c-0.1944,0.0826-0.4061,0.1239-0.6343,0.1239c-0.2239,0-0.4354-0.0413-0.6347-0.1239c-0.1991-0.0879-0.3742-0.2066-0.5251-0.3573
			c-0.1457-0.1508-0.2624-0.3261-0.35-0.5253c-0.0822-0.1995-0.1235-0.4108-0.1235-0.6347"/>
		<path style="fill:#FFFFFF;" d="M19.4173,12.9915h-0.0745c-0.0001,0.1455,0.0258,0.2842,0.0784,0.4147l0.0002,0.0008l0.0006,0.0015
			c0.0568,0.1284,0.1318,0.2432,0.2256,0.3419l0.0015,0.0016l0.0012,0.0012c0.0988,0.0934,0.2133,0.1689,0.3421,0.2255
			l0.0013,0.0006l0.0007,0.0004c0.1306,0.0527,0.2697,0.0785,0.4146,0.0785c0.1446,0,0.2836-0.0258,0.4142-0.0785l0.0005-0.0003
			l0.0015-0.0006c0.1295-0.0569,0.242-0.1327,0.3365-0.227c0.0994-0.0992,0.1757-0.2154,0.228-0.3457l-0.0691-0.0278l0.0683,0.0299
			c0.0575-0.1306,0.0864-0.2704,0.0863-0.4168c0.0001-0.1456-0.0289-0.2832-0.0869-0.4099l-0.0677,0.0309l0.0691-0.0278
			c-0.0524-0.1307-0.1293-0.2451-0.2295-0.3396l-0.0511,0.0541l0.054-0.0511c-0.0949-0.1005-0.209-0.1775-0.3402-0.2297
			l-0.0276,0.0691l0.0301-0.0681c-0.1309-0.0579-0.2705-0.0866-0.4163-0.0865c-0.146-0.0001-0.286,0.0286-0.4168,0.0865
			l0.0301,0.0681l-0.0277-0.0691c-0.1306,0.0522-0.2466,0.1286-0.346,0.2282l0.0002-0.0002
			c-0.0946,0.0941-0.1701,0.2072-0.2271,0.3361l-0.0003,0.0007l-0.0002,0.0006c-0.0529,0.1263-0.0788,0.2631-0.0787,0.4076h0.1485
			c0-0.127,0.0224-0.243,0.0672-0.3502l-0.0687-0.0288l0.0681,0.0301c0.0504-0.114,0.1153-0.2104,0.1958-0.2905l0.0003-0.0002
			c0.0855-0.0858,0.1833-0.1502,0.2957-0.1952l0.0013-0.0006l0.0011-0.0005c0.1118-0.0493,0.23-0.0737,0.3566-0.0737
			c0.1262,0,0.2443,0.0244,0.3561,0.0737l0.0013,0.0006l0.0012,0.0005c0.1124,0.045,0.2069,0.1089,0.2873,0.1937l0.0012,0.0013
			l0.0018,0.0016c0.0843,0.0796,0.1484,0.1746,0.1936,0.2869l0.0006,0.0015l0.0007,0.0016c0.0488,0.1069,0.0734,0.2219,0.0734,0.348
			c0,0.1269-0.0246,0.2448-0.0739,0.3569l-0.0003,0.0011l-0.0005,0.0011c-0.0452,0.1125-0.1098,0.2106-0.1951,0.2959
			c-0.0809,0.0809-0.177,0.1459-0.291,0.196l0.0299,0.0682l-0.0278-0.0691c-0.1122,0.0452-0.2311,0.0677-0.3584,0.0677
			c-0.1277,0-0.2467-0.0224-0.3589-0.0677l-0.0278,0.0691l0.03-0.0681c-0.1142-0.0505-0.2136-0.116-0.2996-0.1973l-0.0512,0.0541
			l0.0539-0.0513c-0.0815-0.0859-0.1467-0.1854-0.1973-0.2996l-0.0681,0.0301l0.069-0.0279
			c-0.0449-0.1123-0.0675-0.2311-0.0675-0.359h-0.075L19.4173,12.9915z M18.7753,12.9915h0.0745
			c0-0.2191,0.0394-0.4204,0.118-0.6051l-0.0686-0.0291l0.0683,0.03c0.084-0.1916,0.1955-0.3559,0.3343-0.4952
			c0.144-0.1439,0.3105-0.2548,0.5009-0.3338l0.0008-0.0003l0.0007-0.0002c0.1899-0.0832,0.3905-0.125,0.6047-0.125
			c0.2186,0,0.4193,0.0418,0.6037,0.1246l0.0012,0.0006l0.0009,0.0003c0.1906,0.0791,0.3568,0.1899,0.5009,0.3338l0.0017,0.0016
			l-0.001-0.001c0.1432,0.1391,0.254,0.3027,0.3331,0.4929l0.0004,0.0012l0.0005,0.0009c0.0829,0.1845,0.1246,0.3852,0.1247,0.6036
			c-0.0001,0.2143-0.0416,0.4148-0.1249,0.6049l-0.0007,0.0016l0.0001-0.0001c-0.0792,0.1903-0.1902,0.3569-0.334,0.501
			c-0.1442,0.144-0.3111,0.2574-0.5023,0.3417l0.03,0.0682l-0.0291-0.0686c-0.1847,0.0785-0.386,0.118-0.6053,0.118
			c-0.2148,0-0.4162-0.0393-0.6062-0.1182l-0.0286,0.0688l0.03-0.0682c-0.1911-0.0843-0.3582-0.1977-0.5024-0.3418l-0.0526,0.0528
			l0.0537-0.0518c-0.1395-0.1444-0.2513-0.3118-0.3355-0.5034l-0.0682,0.0299l0.0687-0.0283
			c-0.0788-0.1903-0.1181-0.3917-0.1181-0.6064H18.701c0,0.233,0.043,0.4549,0.1295,0.6633l0.0006,0.0014
			c0.0908,0.2069,0.2128,0.3898,0.3648,0.547l0.0007,0.0007l0.0001,0.0002c0.1574,0.1571,0.3405,0.2815,0.5476,0.3728l0.0009,0.0005
			l0.0007,0.0002c0.2085,0.0863,0.4302,0.1297,0.6633,0.1297c0.2371,0,0.4593-0.0431,0.6635-0.1299l0.0009-0.0005
			c0.2072-0.0912,0.3903-0.2158,0.5477-0.3726c0.1574-0.1578,0.2799-0.3415,0.3662-0.5494l-0.0688-0.0286l0.0682,0.03
			c0.0917-0.2088,0.1377-0.4311,0.1376-0.6647c0.0001-0.2375-0.0458-0.4603-0.1378-0.6647l-0.0679,0.0305l0.0688-0.0286
			c-0.0863-0.2083-0.2092-0.3899-0.367-0.5428l-0.0517,0.0535l0.0525-0.0528c-0.1576-0.1577-0.3412-0.28-0.549-0.366l-0.0286,0.0687
			l0.0305-0.0679c-0.2043-0.092-0.4271-0.138-0.6648-0.1379c-0.2336-0.0001-0.4561,0.0461-0.6646,0.1376l0.0299,0.0682
			l-0.0286-0.0687c-0.2077,0.086-0.3917,0.2083-0.5492,0.366c-0.1524,0.1526-0.2745,0.3334-0.3656,0.5407l-0.0006,0.0013
			l0.0002-0.0007c-0.0869,0.2043-0.1298,0.4264-0.1298,0.6634h0.0749L18.7753,12.9915z"/>
		<path style="fill:#FFFFFF;" d="M25.3968,11.3584v0.6493h-1.976c-0.0924,0-0.1701,0.0311-0.2334,0.0947
			c-0.0634,0.063-0.0949,0.1408-0.0949,0.2331c0,0.0925,0.0316,0.1725,0.0949,0.2407c0.0633,0.0634,0.1409,0.0947,0.2334,0.0947
			h1.3127c0.1362,0,0.2628,0.0267,0.379,0.0804c0.1217,0.0484,0.2263,0.1165,0.3137,0.2042
			c0.0924,0.0876,0.1627,0.1919,0.2116,0.3133c0.0532,0.1167,0.0801,0.2433,0.0801,0.3795c0,0.1361-0.027,0.2653-0.0801,0.3867
			c-0.0489,0.1168-0.1193,0.2211-0.2116,0.313c-0.0874,0.0876-0.192,0.1584-0.3137,0.2118
			c-0.1163,0.0487-0.2428,0.0731-0.379,0.0731h-1.969v-0.6493h1.969c0.0973,0,0.1773-0.0315,0.2405-0.0949
			c0.0632-0.0634,0.095-0.1433,0.095-0.2405c0-0.0923-0.0318-0.1702-0.095-0.2334c-0.0633-0.0631-0.1433-0.095-0.2405-0.095h-1.3127
			c-0.1361,0-0.2651-0.0242-0.3867-0.0728c-0.1164-0.0534-0.2187-0.124-0.306-0.2115c-0.0875-0.0924-0.1579-0.197-0.2116-0.3134
			c-0.0487-0.1216-0.0727-0.2505-0.0727-0.3866c0-0.1363,0.024-0.2624,0.0727-0.3792c0.0537-0.1216,0.124-0.2262,0.2116-0.3138
			c0.0873-0.0872,0.1896-0.1555,0.306-0.2041c0.1216-0.0534,0.2506-0.0801,0.3867-0.0801h1.9751L25.3968,11.3584z"/>
		<path style="fill:#FFFFFF;" d="M25.3968,11.3584h-0.0745v0.5748h-1.9016c-0.1091-0.0008-0.2103,0.0394-0.2862,0.1166
			c-0.0766,0.0753-0.1172,0.1765-0.1166,0.2858c-0.0006,0.1095,0.0397,0.2113,0.1148,0.2914l0.0009,0.0011l0.0009,0.001
			c0.076,0.0768,0.1771,0.1172,0.2862,0.1165h1.3127c0.1264,0,0.2416,0.0248,0.3479,0.0736l0.0015,0.0007l0.002,0.0008
			c0.113,0.0448,0.2083,0.1073,0.2884,0.1876l0.0007,0.0005l0.001,0.0009c0.0846,0.0804,0.1486,0.175,0.1939,0.2871l0.0006,0.0016
			l0.0008,0.0015c0.0485,0.1068,0.0733,0.2222,0.0734,0.3486c0,0.1262-0.0249,0.2447-0.0739,0.3568l-0.001,0.0021l0.0005-0.0011
			c-0.0452,0.1078-0.1098,0.2037-0.1954,0.289c-0.081,0.081-0.1773,0.1464-0.2912,0.1964l0.0299,0.0683l-0.0287-0.0687
			c-0.1068,0.0447-0.223,0.0673-0.3503,0.0673H22.839v-0.5003h1.8944c0.1129,0.0007,0.2168-0.0389,0.2933-0.117
			c0.0772-0.0762,0.1174-0.1797,0.1167-0.2929c0.0007-0.1094-0.0402-0.2103-0.1169-0.2861
			c-0.0762-0.0772-0.1798-0.1175-0.2931-0.1168h-1.3127c-0.1273,0-0.2465-0.0224-0.3592-0.0673l-0.0275,0.0691l0.0311-0.0677
			c-0.1088-0.05-0.2034-0.1154-0.2845-0.1966l-0.0526,0.0527l0.054-0.0512c-0.0819-0.0865-0.1476-0.184-0.198-0.2934l-0.0676,0.0312
			l0.0692-0.0276c-0.0451-0.1125-0.0674-0.2316-0.0674-0.359c0-0.1275,0.0224-0.2432,0.067-0.3505l-0.0687-0.0287l0.0681,0.03
			c0.0505-0.1141,0.1156-0.2103,0.1962-0.2912c0.0805-0.0802,0.1742-0.1429,0.2821-0.188l0.0012-0.0006
			c0.1121-0.0492,0.2303-0.0736,0.3567-0.0737h1.976V11.357h-0.0745h0.0734v-0.0745h-1.976
			c-0.1456-0.0001-0.2857,0.0287-0.4168,0.0864l0.0301,0.0682l-0.0287-0.0687c-0.1249,0.0521-0.2358,0.1259-0.33,0.2201
			c-0.0944,0.0945-0.1701,0.2072-0.2272,0.3364l-0.0004,0.001l-0.0002,0.0006c-0.0527,0.1263-0.0785,0.2626-0.0784,0.4077
			c-0.0001,0.1449,0.0257,0.2837,0.078,0.4143l0.0009,0.002l0.0007,0.0014c0.0568,0.1236,0.132,0.2352,0.2251,0.3335l0.0007,0.0008
			l0.0007,0.0006c0.0937,0.0938,0.2038,0.1698,0.3277,0.2266l0.0018,0.0009l0.0016,0.0006
			c0.1307,0.0524,0.2695,0.0781,0.4144,0.0781h1.3127c0.0813,0.0008,0.1379,0.0243,0.1877,0.0733
			c0.0499,0.0508,0.0724,0.1055,0.0733,0.1807c-0.0009,0.0812-0.0241,0.1377-0.0733,0.1877
			c-0.0499,0.0492-0.1061,0.0722-0.1877,0.0731h-2.0435v0.7984h2.0435c0.145,0,0.2817-0.0264,0.4079-0.0789l0.0009-0.0005
			l0.0001-0.0001c0.1296-0.0567,0.2421-0.1329,0.3365-0.2273c0.0987-0.0981,0.175-0.2113,0.2277-0.3369l-0.0687-0.0288
			l0.0682,0.0298c0.0573-0.1307,0.0864-0.2705,0.0864-0.4166c0-0.146-0.0292-0.2838-0.0869-0.4103l-0.0677,0.0308l0.0691-0.0277
			c-0.0525-0.1309-0.1293-0.2447-0.2296-0.3396l-0.0512,0.054l0.0528-0.0526c-0.0947-0.095-0.2086-0.1689-0.3389-0.2207
			l-0.0275,0.0692l0.0312-0.0675c-0.1265-0.0583-0.2643-0.0874-0.4102-0.0873H23.42c-0.0756-0.0007-0.1299-0.023-0.1808-0.0728
			l-0.0525,0.0526l0.0546-0.0506c-0.0513-0.0565-0.0744-0.1146-0.075-0.1901c0.0007-0.0754,0.0232-0.1299,0.0729-0.1804
			c0.0511-0.0501,0.1052-0.0723,0.1808-0.073h2.0505v-0.7983H25.396v0.0741L25.3968,11.3584z"/>
		<path style="fill:#FFFFFF;" d="M29.3855,11.3584v1.6334c0,0.2238-0.0437,0.4353-0.1314,0.6347
			c-0.0824,0.199-0.1992,0.3742-0.3499,0.5253c-0.1507,0.1506-0.3258,0.2694-0.5252,0.3569
			c-0.1944,0.0827-0.4057,0.1243-0.6343,0.1243c-0.2236,0-0.4353-0.0415-0.6344-0.1243c-0.1995-0.0875-0.3743-0.2063-0.525-0.3569
			c-0.1459-0.1511-0.2627-0.3263-0.3501-0.5253c-0.0828-0.1995-0.124-0.4109-0.124-0.6347v-1.6334h0.6489v1.6334
			c0,0.1367,0.0245,0.2652,0.073,0.3869c0.0535,0.1211,0.1239,0.2281,0.2115,0.3206c0.0925,0.0874,0.1967,0.1578,0.3137,0.2115
			c0.1214,0.0486,0.2502,0.0728,0.3864,0.0728c0.1359,0,0.2648-0.0243,0.3865-0.0728c0.1214-0.0538,0.226-0.1242,0.3138-0.2115
			c0.0921-0.0924,0.1625-0.1995,0.2111-0.3206c0.0537-0.1217,0.0804-0.2502,0.0804-0.3869v-1.6334h0.6488H29.3855z"/>
		<path style="fill:#FFFFFF;" d="M29.3855,11.3584h-0.0745v1.6334c-0.0002,0.214-0.0415,0.4147-0.1251,0.6049l-0.0003,0.0009
			l-0.0002,0.0006c-0.0791,0.1902-0.1901,0.3568-0.334,0.5011c-0.144,0.144-0.3108,0.2574-0.5022,0.3413l0.0299,0.0682
			l-0.0291-0.0685c-0.1848,0.0788-0.3857,0.1183-0.6053,0.1183c-0.2143,0-0.4158-0.0396-0.6059-0.1185l-0.0285,0.0687l0.0298-0.0682
			c-0.1913-0.0839-0.358-0.1973-0.5021-0.3414l-0.0527,0.0528L26.6388,14.1c-0.1397-0.1446-0.2514-0.3121-0.3356-0.5034
			l-0.0681,0.0299l0.0688-0.0284c-0.079-0.1903-0.1184-0.3918-0.1184-0.6063v-1.5588h0.4999v1.5588
			c-0.0001,0.1455,0.0262,0.2841,0.0783,0.4144l0.0006,0.0012l0.0005,0.0013c0.0567,0.1283,0.1318,0.2429,0.2257,0.3416
			l0.0015,0.0016l0.0012,0.0012c0.0981,0.0929,0.2095,0.1682,0.3338,0.2253l0.0018,0.0008l0.0015,0.0007
			c0.1304,0.0521,0.2692,0.0781,0.4141,0.0781c0.1448,0,0.2835-0.026,0.4141-0.0781l0.001-0.0004l0.0015-0.0007
			c0.129-0.0572,0.2416-0.1329,0.3363-0.227c0.0993-0.0994,0.1756-0.2156,0.2277-0.3458l-0.0692-0.0275l0.0682,0.0301
			c0.0579-0.1311,0.0867-0.2706,0.0867-0.417v-1.5588h0.5745v-0.0744H29.311h0.0725V11.284h-0.7235v1.7079
			c-0.0001,0.127-0.0246,0.2445-0.0741,0.3568l-0.0007,0.0014l-0.0004,0.001c-0.0448,0.1122-0.1094,0.2102-0.1947,0.2956
			c-0.0809,0.0805-0.1773,0.1457-0.2912,0.1962l0.0301,0.0681l-0.0277-0.0691c-0.1126,0.0449-0.2316,0.0674-0.3588,0.0674
			c-0.1274,0-0.2463-0.0226-0.3588-0.0674l-0.0276,0.0691l0.0311-0.0675c-0.1099-0.0505-0.2068-0.1162-0.2934-0.1981l-0.0513,0.0541
			l0.0541-0.0513c-0.0815-0.086-0.1472-0.1855-0.1975-0.2995l-0.0681,0.0302l0.0692-0.0277
			c-0.045-0.1129-0.0678-0.2314-0.0678-0.3593v-1.7079h-0.7978v1.7079c0,0.2328,0.0431,0.4546,0.1298,0.6633l0.0003,0.0009
			l0.0003,0.0007c0.0908,0.2064,0.2125,0.3894,0.3647,0.5469l0.0008,0.0007l0.0001,0.0002c0.1571,0.157,0.3402,0.2814,0.5477,0.3724
			l0.0009,0.0005l0.0006,0.0002c0.2084,0.0865,0.4303,0.13,0.663,0.13c0.2375,0,0.4595-0.0435,0.6635-0.1303l0.0009-0.0004
			c0.2073-0.091,0.3906-0.2153,0.5478-0.3724c0.1576-0.1579,0.28-0.3418,0.3661-0.5493l-0.0688-0.0286l0.0682,0.03
			c0.0919-0.209,0.1379-0.4312,0.1378-0.6647v-1.7079h-0.0745v0.0752L29.3855,11.3584z"/>
		<path style="fill:#FFFFFF;" d="M31.4199,13.9832c0.1359,0,0.2628-0.0241,0.3795-0.0726c0.1214-0.0538,0.2255-0.1243,0.3133-0.2118
			c0.0924-0.0923,0.163-0.1994,0.2114-0.3206c0.0537-0.1216,0.0804-0.2501,0.0804-0.3869v-0.984h-0.9846
			c-0.1362,0-0.2649,0.0264-0.3864,0.0799c-0.1216,0.0487-0.2285,0.1193-0.3207,0.2116c-0.0879,0.0874-0.158,0.192-0.2116,0.3133
			c-0.0486,0.117-0.073,0.2434-0.073,0.3792c0,0.1368,0.0244,0.2653,0.073,0.3869c0.0536,0.1212,0.1238,0.2283,0.2116,0.3206
			c0.0923,0.0875,0.1991,0.158,0.3207,0.2118c0.1213,0.0487,0.2499,0.0725,0.3859,0.0725 M33.0531,10.0459v2.9457
			c0,0.2239-0.0439,0.4354-0.1315,0.635c-0.0823,0.1989-0.199,0.3741-0.3497,0.5251c-0.1459,0.1505-0.3183,0.2695-0.5179,0.3569
			c-0.1993,0.0828-0.4109,0.1243-0.6345,0.1243c-0.2235,0-0.435-0.0414-0.6343-0.1243c-0.1995-0.0874-0.3744-0.2064-0.5252-0.3569
			c-0.1506-0.151-0.2697-0.3262-0.3573-0.5251c-0.0827-0.1996-0.1242-0.4111-0.1242-0.635c0-0.2283,0.0415-0.4398,0.1242-0.634
			c0.0876-0.1996,0.2066-0.3722,0.3573-0.5178c0.1507-0.1509,0.3257-0.2675,0.5252-0.3504c0.1994-0.087,0.4108-0.131,0.6343-0.131
			h0.9846v-1.3126h0.6494L33.0531,10.0459z"/>
		<path style="fill:#FFFFFF;" d="M31.4199,13.9832v0.0745c0.1449,0,0.2819-0.0258,0.408-0.0785l0.0014-0.0006
			c0.1293-0.0571,0.2416-0.1329,0.336-0.227c0.0993-0.0995,0.1761-0.2154,0.228-0.3458l-0.0692-0.0276l0.0682,0.0301
			c0.0579-0.1311,0.0866-0.2706,0.0866-0.417v-1.0585h-1.059c-0.1457-0.0001-0.2855,0.0286-0.4165,0.0862l0.0301,0.0682
			l-0.0277-0.0691c-0.1308,0.0522-0.2466,0.1289-0.3457,0.228c-0.0947,0.0943-0.1704,0.2071-0.227,0.3361l-0.0006,0.0012
			c-0.0528,0.1264-0.0789,0.2632-0.0789,0.4078c0,0.1457,0.0261,0.2844,0.0785,0.4147l0.0006,0.0015l0.0004,0.0007
			c0.0566,0.1285,0.1317,0.2432,0.2256,0.342l0.0012,0.0012l0.0015,0.0015c0.0986,0.0934,0.213,0.1688,0.3419,0.2257l0.001,0.0003
			l0.0014,0.0007c0.1304,0.0521,0.2692,0.078,0.4141,0.078v-0.148c-0.1274,0-0.2462-0.0224-0.3588-0.0673l-0.0275,0.0692
			l0.03-0.0682c-0.1144-0.0505-0.2135-0.1162-0.2995-0.1977l-0.0512,0.0541l0.054-0.0513
			c-0.0817-0.0859-0.1472-0.1853-0.1974-0.2993l-0.0682,0.03l0.0693-0.0277c-0.0453-0.1128-0.0678-0.2313-0.0678-0.3593
			c0-0.127,0.0225-0.243,0.0673-0.3504l-0.0688-0.0288l0.0682,0.0301c0.0501-0.1138,0.115-0.2101,0.196-0.2906
			c0.0855-0.0857,0.1833-0.1502,0.2957-0.1953l0.0011-0.0005l0.0013-0.0006c0.1119-0.0491,0.2298-0.0735,0.3564-0.0735h0.9101
			v0.9096c-0.0001,0.1271-0.0245,0.2447-0.074,0.3569l-0.0006,0.0012l-0.0004,0.0012c-0.0449,0.112-0.1095,0.2102-0.1949,0.2955
			c-0.081,0.0806-0.177,0.1459-0.2908,0.1962l0.0301,0.0682l-0.0287-0.0689c-0.1072,0.0447-0.2235,0.067-0.3508,0.067v0.0755
			L31.4199,13.9832z M33.0536,10.046h-0.0745v2.9457c-0.0001,0.2141-0.0417,0.4149-0.1251,0.605l-0.0006,0.0014
			c-0.0791,0.1902-0.1899,0.3567-0.3339,0.5011l-0.0008,0.001L32.5189,14.1c-0.1393,0.1435-0.3031,0.2566-0.4943,0.3405
			l0.0299,0.0682L32.0258,14.44c-0.1902,0.079-0.3915,0.1185-0.6059,0.1185c-0.2143,0-0.4155-0.0396-0.6058-0.1185l-0.0284,0.0687
			l0.0297-0.0682c-0.1911-0.0839-0.3579-0.1974-0.5022-0.3414c-0.1441-0.1444-0.2578-0.3117-0.3419-0.5024l-0.0681,0.03
			l0.0688-0.0285c-0.0788-0.1906-0.1184-0.3919-0.1184-0.6065c0-0.2192,0.0396-0.4205,0.1181-0.6049l-0.0686-0.0291l0.0682,0.0298
			c0.084-0.1913,0.1973-0.3553,0.3409-0.4942l0.001-0.0009c0.144-0.144,0.3102-0.2548,0.5009-0.3342l0.0012-0.0005
			c0.1902-0.083,0.3908-0.1247,0.6046-0.1247h1.059v-1.3126h0.5745v-0.0762h-0.0745h0.0731V9.9697h-0.7235v1.3126h-0.9101
			c-0.2332-0.0001-0.4554,0.0459-0.6642,0.1372l0.0299,0.0682l-0.0287-0.0688c-0.2081,0.0864-0.3916,0.2089-0.5491,0.3665
			l0.0526,0.0528l-0.0518-0.0537c-0.1576,0.1525-0.2825,0.3337-0.3736,0.5415l-0.0008,0.0014l0.0004-0.0006
			c-0.0868,0.2039-0.1301,0.426-0.1301,0.6632c0,0.233,0.0434,0.4549,0.1297,0.6635l0.0004,0.0008l0.0004,0.0007
			c0.091,0.2069,0.2156,0.3902,0.3726,0.5477c0.1574,0.1572,0.3404,0.2816,0.5479,0.3726l0.0008,0.0003l0.0007,0.0002
			c0.2085,0.0865,0.4301,0.13,0.6628,0.13c0.2328,0,0.4546-0.0435,0.663-0.13l0.0013-0.0005
			c0.208-0.0911,0.3888-0.2158,0.5415-0.3734L32.5709,14.15l0.0527,0.0526c0.1576-0.1578,0.2799-0.3416,0.366-0.549l-0.0689-0.0286
			l0.0683,0.0298c0.0916-0.2089,0.1379-0.4312,0.1378-0.6648V9.9697h-0.0745v0.0751L33.0536,10.046z"/>
	</g>
</g>
</svg>
