<?xml version="1.0" encoding="utf-8"?>
<!-- Generator: Adobe Illustrator 18.0.0, SVG Export Plug-In . SVG Version: 6.00 Build 0)  -->
<!DOCTYPE svg PUBLIC "-//W3C//DTD SVG 1.1//EN" "http://www.w3.org/Graphics/SVG/1.1/DTD/svg11.dtd">
<svg version="1.1" id="Layer_1" xmlns="http://www.w3.org/2000/svg" xmlns:xlink="http://www.w3.org/1999/xlink" x="0px" y="0px"
	 width="39px" height="26px" viewBox="0 0 39 26" style="enable-background:new 0 0 39 26;" xml:space="preserve">
<g>
	<g>
		<path style="fill:#F3F4F4;" d="M1.9502,25.5C1.1504,25.5,0.5,24.8496,0.5,24.0498V1.9502C0.5,1.1504,1.1504,0.5,1.9502,0.5
			h35.0996C37.8496,0.5,38.5,1.1504,38.5,1.9502v22.0996c0,0.7998-0.6504,1.4502-1.4502,1.4502H1.9502z"/>
		<path style="fill:#DADBD9;" d="M37.0501,1c0.5238,0,0.95,0.4262,0.95,0.95v22.1c0,0.5238-0.4262,0.95-0.95,0.95H1.95
			C1.4262,25,1,24.5738,1,24.05V1.95C1,1.4262,1.4262,1,1.95,1H37.0501 M37.0501,0H1.95C0.8731,0,0,0.873,0,1.95v22.1
			C0,25.1269,0.8731,26,1.95,26h35.1001c1.077,0,1.95-0.8731,1.95-1.95V1.95C39.0001,0.873,38.127,0,37.0501,0L37.0501,0z"/>
	</g>
	<g>
		<g>
			<g>
				<path style="fill:#C4161C;" d="M10.5184,7.3142v11.4492c0,0-0.1258,1.3877,1.7216,1.8117
					c1.8476,0.424,14.5699,3.3921,14.5699,3.3921s1.9579,0.4564,1.9579-2.0412c0-2.4286,0-18.1968,0-18.1968
					s-0.1523-2.2361-2.7134-1.5806C22.9317,2.9475,12.24,5.5024,12.24,5.5024S10.5184,5.7723,10.5184,7.3142z"/>
				<path style="fill:#F15A22;" d="M10.2341,7.2859v11.4489c0,0-0.1259,1.388,1.7217,1.8119
					c1.8476,0.424,14.5699,3.3924,14.5699,3.3924s1.9578,0.456,1.9578-2.0414c0-2.4286,0-18.1969,0-18.1969
					s-0.1521-2.2358-2.7132-1.5804C22.6475,2.919,11.9558,5.474,11.9558,5.474S10.2341,5.7438,10.2341,7.2859z"/>
				<g>
					<g>
						<g>
							<g>
								<path style="fill:#FFFFFF;" d="M11.7802,14.7164h0.9732l1.3117,2.4815l-0.0055-2.4815h0.6938v3.4031h-0.9142l-1.3015-2.5451
									h-0.0097v2.5451l-0.3921,0.0122L11.7802,14.7164z"/>
								<path style="fill:#FFFFFF;" d="M17.351,15.6087l0.6851,0.0139l0.0598,0.3298c0,0,0.1431-0.4023,0.5325-0.4023
									c0.0638,0,0.1318,0,0.2004,0.0195v0.6582c-0.0587-0.0341-0.1758-0.0538-0.2926-0.0538c-0.5318,0-0.5318,0.6631-0.5318,1.024
									v0.9214H17.351V15.6087z"/>
								<path style="fill:#FFFFFF;" d="M19.0502,15.7403c0.2534-0.117,0.5946-0.1901,0.8727-0.1901
									c0.7654,0,1.082,0.317,1.082,1.0579v0.322c0,0.2535,0.0056,0.4436,0.0099,0.6288c0.0052,0.1901,0.0149,0.366,0.0296,0.5607
									h-0.192c-0.3,0-0.4077-0.2971-0.4126-0.3755h-0.0096c-0.1515,0.2781-0.4783,0.4343-0.7755,0.4343
									c-0.4436,0-0.8773-0.2685-0.8773-0.7464c0-0.375,0.1801-0.5947,0.4288-0.7166c0.2485-0.1216,0.5707-0.146,0.8436-0.146
									h0.3608c0-0.4048-0.1804-0.5414-0.5655-0.5414c-0.2778,0-0.5562,0.1072-0.7752,0.273L19.0502,15.7403z M19.8157,17.7003
									c0.1997,0,0.356-0.0877,0.4581-0.2243c0.1077-0.1414,0.1367-0.3219,0.1367-0.5169H20.128
									c-0.2924,0-0.7269,0.0487-0.7269,0.4339C19.4011,17.6076,19.5816,17.7003,19.8157,17.7003z"/>
								<path style="fill:#FFFFFF;" d="M21.1075,15.6087h0.8653v0.3413h0.0095c0.2053-0.2876,0.4829-0.3999,0.8243-0.3999
									c0.5948,0,0.8534,0.4192,0.8534,0.985v1.5844h-0.6533v-1.3407c0-0.3073-0.0047-0.7218-0.4243-0.7218
									c-0.4727,0-0.5754,0.5122-0.5754,0.8338l0.007,1.2207l-0.3182,0.004L21.1075,15.6087z"/>
							</g>
							<path style="fill:#FFFFFF;" d="M23.6549,18.9808c0.3521-0.0196,0.4012-0.0878,0.4012-0.4792v-2.9163l0.5984,0.0001
								l0.0571,0.0722v2.6322c0,0.3566-0.1027,0.8997-0.758,0.8997c-0.1077,0-0.2401-0.0144-0.3229-0.039L23.6549,18.9808z"/>
						</g>
					</g>
					<path style="fill:#FFFFFF;" d="M17.1007,17.5589c-0.0047-0.1852-0.0099-0.3753-0.0099-0.6288v-0.322
						c0-0.7409-0.3168-1.0579-1.0824-1.0579c-0.2776,0-0.619,0.0731-0.8727,0.1901l0.0199,0.5606
						c0.2191-0.1658,0.4971-0.273,0.775-0.273c0.385,0,0.5656,0.1366,0.5656,0.5414h-0.3608c-0.2729,0-0.5945,0.0244-0.8436,0.146
						c-0.1225,0.0602-0.2286,0.1445-0.3045,0.2593l0.1533,1.0134c0.1635,0.1243,0.3804,0.1905,0.6,0.1905
						c0.2973,0,0.6237-0.1562,0.775-0.4343h0.0096c0.0055,0.0784,0.0815,0.3755,0.3965,0.3755h0.2087
						C17.1154,17.9248,17.1058,17.749,17.1007,17.5589z M16.3595,17.476c-0.102,0.1366-0.2579,0.2243-0.4581,0.2243
						c-0.2338,0-0.4145-0.0927-0.4145-0.3072c0-0.3852,0.4337-0.4339,0.7266-0.4339h0.2826
						C16.4961,17.1541,16.4669,17.3347,16.3595,17.476z"/>
					<path style="fill:#FFFFFF;" d="M27.1363,17.5589c-0.0051-0.1852-0.0099-0.3753-0.0099-0.6288v-0.322
						c0-0.7409-0.317-1.0579-1.0822-1.0579c-0.2779,0-0.6189,0.0731-0.8728,0.1901l0.0194,0.5606
						c0.2193-0.1658,0.4976-0.273,0.7755-0.273c0.3848,0,0.565,0.1366,0.565,0.5414h-0.3602c-0.2729,0-0.5949,0.0244-0.8436,0.146
						c-0.1077,0.0528-0.2012,0.1255-0.2742,0.2193l0.39,1.1912c0.1056,0.0345,0.2185,0.0526,0.3325,0.0526
						c0.2976,0,0.6244-0.1562,0.7751-0.4343h0.0099c0.0047,0.0784,0.0675,0.2715,0.4127,0.3755h0.1919
						C27.151,17.9248,27.141,17.749,27.1363,17.5589z M26.3951,17.476c-0.1023,0.1366-0.2586,0.2243-0.4583,0.2243
						c-0.234,0-0.4142-0.0927-0.4142-0.3072c0-0.3852,0.4334-0.4339,0.7265-0.4339h0.2823
						C26.5314,17.1541,26.5026,17.3347,26.3951,17.476z"/>
					<path style="fill:#FFFFFF;" d="M25.4007,2.1974l-0.1151,0.0297c0.5387,4.798,1.6241,9.68,3.1979,13.9677v-0.064v-0.2951
						C26.9631,11.6191,25.9269,6.8955,25.4007,2.1974z M22.3087,2.957c0.5345,7.3342,2.4124,14.5624,5.3677,20.8198
						c0.0327-0.0209,0.0653-0.0436,0.0983-0.0685c-2.9464-6.2445-4.8188-13.4598-5.3497-20.7794L22.3087,2.957z M12.718,5.275
						l-0.1264,0.0308c-0.5338,2.562-0.8444,5.1166-0.8731,7.6618c-0.0012,0.1334-0.0023,0.2665-0.0023,0.3996
						c0,2.4677,0.2559,4.8979,0.7848,7.3315l0.1274,0.0291c-0.5353-2.4435-0.7943-4.8828-0.7943-7.3606
						c-0.0002-0.1327,0.0005-0.2653,0.0021-0.398C11.8652,10.4142,12.1787,7.8492,12.718,5.275z M14.5652,10.6324
						c0-1.9412,0.1383-3.9448,0.3884-5.8975l-0.1224,0.0294c-0.2471,1.9437-0.3838,3.936-0.3838,5.8681
						c0,0.0872,0.0002,0.1739,0.0009,0.2607c0.0237,3.5792,0.5221,7.1264,1.4759,10.591l0.1307,0.0301
						c-0.962-3.4743-1.4651-7.0321-1.489-10.6219C14.5653,10.806,14.5652,10.7191,14.5652,10.6324z M19.7075,3.5857l-0.1174,0.0284
						c0.0047,0.4765,0.0135,0.9553,0.0293,1.4297c0.2196,6.4086,1.5021,12.5064,3.8522,18.1884l0.1415,0.0325
						c-2.3653-5.6906-3.6559-11.8-3.8758-18.2247C19.7211,4.5574,19.7119,4.0703,19.7075,3.5857z M17.2682,6.7226
						c0-0.8527,0.021-1.7073,0.0639-2.5627l-0.1192,0.0289c-0.0419,0.8456-0.0628,1.691-0.0628,2.5338
						c0,0.39,0.0045,0.7798,0.0126,1.1687c0.105,4.9745,0.9658,9.8389,2.5865,14.4707l0.135,0.0309
						c-1.6321-4.6403-2.4984-9.5166-2.6039-14.504C17.272,7.5008,17.2682,7.1119,17.2682,6.7226z"/>
				</g>
			</g>
		</g>
		<g>
			<g>
				<g>
					
						<ellipse transform="matrix(1 0.0039 -0.0039 1 0.0493 -0.1005)" style="fill:#FFFFFF;" cx="25.5437" cy="12.4611" rx="1.4042" ry="1.3859"/>
					<path style="fill:#F15A22;" d="M26.185,11.6427c0.0845-0.089,0.1818-0.1701,0.2943-0.2404c0,0-0.1898-0.1789-0.4805-0.2867
						c0,0-0.4615,0.4609-0.5294,0.6505c-0.0034,0.0099-0.0072,0.0217-0.0113,0.035c-0.1328-0.1045-0.2972-0.1671-0.4754-0.1678
						c-0.4431-0.0018-0.8031,0.3767-0.8049,0.8451c-0.0018,0.4472,0.3242,0.8141,0.7385,0.8481
						c-0.1309,0.1357-0.2606,0.2268-0.2606,0.2268s0.2681,0.2028,0.3914,0.2624c0,0,0.2797-0.0226,0.6069-0.6256
						c0.1264,0.0903,0.279,0.1429,0.4427,0.1435c0.4425,0.0017,0.8028-0.3764,0.8047-0.8448
						C26.903,12.0496,26.5891,11.6874,26.185,11.6427z M24.9611,12.8308c-0.1858-0.0007-0.336-0.1608-0.3353-0.3566
						c0.001-0.1965,0.1525-0.3553,0.338-0.3545c0.1855,0.0007,0.3355,0.1605,0.3346,0.3569
						C25.2978,12.6726,25.1466,12.8316,24.9611,12.8308z M26.0927,12.8353c-0.1855-0.0008-0.3351-0.1608-0.3344-0.3567
						c0.0007-0.1965,0.1516-0.3552,0.3374-0.3545c0.1857,0.0007,0.3355,0.1607,0.3346,0.3571
						C26.4294,12.6769,26.2787,12.8359,26.0927,12.8353z"/>
					
						<radialGradient id="SVGID_1_" cx="6.4525" cy="1.1081" r="1.1382" gradientTransform="matrix(0.8766 -0.0184 0.0184 0.8766 19.799 11.5502)" gradientUnits="userSpaceOnUse">
						<stop  offset="0.5824" style="stop-color:#6A7982"/>
						<stop  offset="0.66" style="stop-color:#6C7B84"/>
						<stop  offset="0.7268" style="stop-color:#74838C"/>
						<stop  offset="0.7897" style="stop-color:#83919A"/>
						<stop  offset="0.8501" style="stop-color:#98A5AD"/>
						<stop  offset="0.9089" style="stop-color:#B6C1C7"/>
						<stop  offset="0.9655" style="stop-color:#DCE2E6"/>
						<stop  offset="1" style="stop-color:#FFFFFF"/>
					</radialGradient>
					<path style="opacity:0.92;fill:url(#SVGID_1_);" d="M24.9058,13.3146c-0.1814-0.0146-0.346-0.091-0.4734-0.2093
						c0.1146,0.1246,0.2663,0.2125,0.4375,0.2445C24.8818,13.3386,24.8939,13.3269,24.9058,13.3146z M26.5151,11.4909
						c0,0-0.0182-0.017-0.0522-0.0433c-0.1105,0.0677-0.2059,0.1455-0.2887,0.2299c0.0275,0.0031,0.0539,0.0073,0.0803,0.0133
						C26.3308,11.6175,26.4172,11.55,26.5151,11.4909z"/>
				</g>
			</g>
		</g>
	</g>
</g>
</svg>
