<?xml version="1.0" encoding="utf-8"?>
<!-- Generator: Adobe Illustrator 18.0.0, SVG Export Plug-In . SVG Version: 6.00 Build 0)  -->
<!DOCTYPE svg PUBLIC "-//W3C//DTD SVG 1.1//EN" "http://www.w3.org/Graphics/SVG/1.1/DTD/svg11.dtd">
<svg version="1.1" id="Layer_1" xmlns="http://www.w3.org/2000/svg" xmlns:xlink="http://www.w3.org/1999/xlink" x="0px" y="0px"
	 width="39px" height="26px" viewBox="0 0 39 26" style="enable-background:new 0 0 39 26;" xml:space="preserve">
<g>
	<g>
		<path style="fill:#F3F4F4;" d="M1.9502,25.5C1.1504,25.5,0.5,24.8496,0.5,24.0498V1.9502C0.5,1.1504,1.1504,0.5,1.9502,0.5
			h35.0996C37.8496,0.5,38.5,1.1504,38.5,1.9502v22.0996c0,0.7998-0.6504,1.4502-1.4502,1.4502H1.9502z"/>
		<path style="fill:#DADBD9;" d="M37.0501,1c0.5238,0,0.95,0.4262,0.95,0.95v22.1c0,0.5238-0.4262,0.95-0.95,0.95H1.95
			C1.4262,25,1,24.5738,1,24.05V1.95C1,1.4262,1.4262,1,1.95,1H37.0501 M37.0501,0H1.95C0.8731,0,0,0.873,0,1.95v22.1
			C0,25.1269,0.8731,26,1.95,26h35.1001c1.077,0,1.95-0.8731,1.95-1.95V1.95C39.0001,0.873,38.127,0,37.0501,0L37.0501,0z"/>
	</g>
	<g>
		<path style="fill:#F0B91C;" d="M7.8603,7.3339v2.9215L6.2798,7.7273l0.8332,2.8143L4.8709,8.4747l1.6056,2.5031L3.7301,9.5296
			l2.2421,2.0633L2.9184,10.824l2.7463,1.4518L2.5,12.2544l3.0538,0.7688L2.5,13.7456h3.1647l-2.7463,1.4518l3.0538-0.7688
			l-2.2421,2.0633l2.7463-1.4482l-1.6056,2.5031l2.2421-2.0633l-0.8332,2.8107l1.5806-2.5282v2.9l0.7903-2.7212
			c-0.2181-0.9977-0.329-1.9703-0.329-2.9216c0-0.9691,0.1109-1.9489,0.329-2.943L7.8603,7.3339L7.8603,7.3339z"/>
		<path style="fill:#1E3B6F;" d="M9.7055,7.5306L9.5518,7.9061c-0.3075,0.7617-0.5364,1.484-0.683,2.1742
			c-0.2038,0.9047-0.3075,1.8881-0.3075,2.943c0,1.0263,0.1037,1.9989,0.3075,2.9216c0.1466,0.6865,0.3755,1.4125,0.683,2.1742
			l0.1538,0.3719c0.3219,0.7188,0.6795,1.3767,1.0764,1.9775c-0.4541-0.9691-0.8153-1.9346-1.0764-2.9001
			c-0.4112-1.5233-0.615-3.0395-0.615-4.545c0-1.5376,0.2038-3.061,0.615-4.57c0.2611-0.9655,0.6222-1.9381,1.0764-2.9215
			C10.4136,6.1038,10.056,6.7689,9.7055,7.5306L9.7055,7.5306z"/>
		<path style="fill:#1E3B6F;" d="M13.4603,10.0123h-0.7688v5.9754h0.7688V12.233c0-0.6151,0.1466-1.0835,0.4398-1.4089
			c0.2468-0.261,0.5686-0.3933,0.9655-0.3933c0.8046,0,1.2087,0.4613,1.2087,1.3839v4.1731h0.7688v-4.216
			c0-0.5436-0.0966-0.9619-0.2861-1.2551C16.2781,10.091,15.781,9.88,15.0623,9.88c-0.6151,0-1.1407,0.2789-1.5806,0.8368h-0.0215
			V10.0123L13.4603,10.0123z"/>
		<path style="fill:#1E3B6F;" d="M18.5989,12.6049c-0.0894,0.0286-0.1752,0.0572-0.261,0.0894
			c-0.6901,0.2896-1.0335,0.8404-1.0335,1.6449c0,0.5257,0.1466,0.9512,0.4398,1.273c0.1609,0.1609,0.3576,0.286,0.5936,0.3755
			c0.2181,0.0751,0.4684,0.1109,0.7438,0.1109c0.8188,0,1.4339-0.2861,1.8452-0.8583h0.025v0.7474h0.8118l-0.0894-4.5236
			c0-0.6616-0.2574-1.1157-0.7688-1.3624C20.6121,9.9551,20.1937,9.88,19.6538,9.88c-0.5257,0-0.9655,0.0965-1.3159,0.286
			c-0.0608,0.0286-0.1108,0.0572-0.1537,0.0894c-0.4399,0.2611-0.6759,0.6723-0.7045,1.2301h0.8332
			c0-0.0894,0.0071-0.1681,0.025-0.2431c0.0429-0.2325,0.1609-0.4148,0.3504-0.5471c0.2181-0.1752,0.5185-0.2646,0.9012-0.2646
			c0.4971,0,0.8403,0.1323,1.0299,0.3933c0.1895,0.2217,0.2861,0.565,0.2861,1.0335v0.5042L18.5989,12.6049L18.5989,12.6049z
			 M20.9054,14.0102c0,0.4112-0.1609,0.7617-0.4827,1.0549c-0.3218,0.3075-0.7009,0.4613-1.1407,0.4613
			c-0.3826,0-0.6759-0.118-0.8797-0.3505c-0.0286-0.0321-0.0501-0.0608-0.0644-0.0894c-0.1466-0.2039-0.2217-0.4685-0.2217-0.7903
			c0-0.2933,0.0751-0.5364,0.2217-0.7259c0.1609-0.2325,0.4148-0.3934,0.7688-0.4828l1.7987-0.1537V14.0102L20.9054,14.0102z"/>
		<path style="fill:#1E3B6F;" d="M23.8484,8.7178h-0.7689v1.2945h-1.0549v0.5507h1.0549v4.2804c0,0.3826,0.0966,0.6687,0.286,0.8582
			c0.2039,0.1895,0.565,0.286,1.0764,0.286l0.7259-0.0215v-0.6151l-0.6151,0.0429c-0.2933,0-0.4827-0.0643-0.5722-0.1967
			c-0.0894-0.1323-0.1323-0.3969-0.1323-0.7902V10.563h1.3195v-0.5507h-1.3195V8.7178L23.8484,8.7178z"/>
		<polygon style="fill:#1E3B6F;" points="26.6591,9.9909 25.8044,9.9909 25.8044,15.9877 26.6591,15.9877 26.6591,9.9909 		"/>
		<polygon style="fill:#1E3B6F;" points="25.8044,8.7178 25.8044,9.5939 26.6591,9.5939 26.6591,8.7178 25.8044,8.7178 		"/>
		<polygon style="fill:#1E3B6F;" points="28.0429,10.0123 27.1883,10.0123 29.1443,15.9877 30.0205,15.9877 31.955,10.0123 
			31.2291,10.0123 29.6271,15.0651 29.6021,15.0651 28.0429,10.0123 		"/>
		<path style="fill:#1E3B6F;" d="M35.3808,10.824c0.1752,0.2217,0.2646,0.565,0.2646,1.0335v0.5042l-2.3065,0.2432
			c-0.8653,0.2467-1.298,0.8261-1.298,1.7343c0,0.5257,0.1538,0.9512,0.4613,1.273c0.3076,0.3254,0.7545,0.4864,1.341,0.4864
			c0.8189,0,1.4268-0.2861,1.8238-0.8583h0.0429v0.7474H36.5c-0.0429-0.4685-0.0644-0.9762-0.0644-1.5162v-3.0074
			c0-1.0549-0.683-1.5841-2.0455-1.5841c-0.6115,0-1.1086,0.1251-1.4912,0.3754c-0.4255,0.2611-0.6508,0.6723-0.683,1.2301h0.8368
			c0-0.354,0.1251-0.6151,0.3719-0.7903c0.2181-0.1752,0.5257-0.2646,0.9226-0.2646C34.8301,10.4307,35.1769,10.563,35.3808,10.824
			L35.3808,10.824z M34.0397,15.5264c-0.379,0-0.6794-0.118-0.9011-0.3505c-0.1895-0.2217-0.2825-0.5149-0.2825-0.8797
			c0-0.6294,0.3289-1.0335,0.9869-1.2087l1.8023-0.1537v1.0764c0,0.4112-0.1538,0.7617-0.4613,1.0549
			C34.8586,15.3726,34.4796,15.5264,34.0397,15.5264L34.0397,15.5264z"/>
		<polygon style="fill:#F0B91C;" points="27.1883,17.722 27.4744,17.722 27.6066,16.9532 28.3755,17.8543 28.5936,16.4919 
			28.3505,16.4919 28.1967,17.2607 27.4278,16.3596 27.1883,17.722 		"/>
		<path style="fill:#F0B91C;" d="M31.0968,16.8423c0.0894-0.0858,0.1895-0.1288,0.3075-0.1288c0.1323,0,0.2253,0.043,0.286,0.1288
			l0.0894,0.0894l0.0429-0.3075v-0.0215l-0.3969-0.1109c-0.1896,0-0.3576,0.0572-0.5042,0.1752
			c-0.1609,0.118-0.2503,0.2646-0.2647,0.4398l-0.0215,0.0894c0,0.1323,0.0501,0.2467,0.1538,0.3504
			c0.1037,0.118,0.2503,0.1752,0.4398,0.1752l0.4184-0.1109l0.0215-0.0215l0.0643-0.3289l-0.1323,0.1108l-0.3505,0.1323
			l-0.2646-0.1109c-0.0715-0.075-0.1001-0.168-0.0858-0.286L31.0968,16.8423L31.0968,16.8423z"/>
		<path style="fill:#F0B91C;" d="M29.341,17.393h0.4148l0.0894,0.329h0.286l-0.4184-1.3624l-0.8547,1.3624h0.2861L29.341,17.393
			L29.341,17.393z M29.6271,16.9317l0.0644,0.2396h-0.1967L29.6271,16.9317L29.6271,16.9317z"/>
		<path style="fill:#F0B91C;" d="M34.4796,16.6671c-0.0894-0.118-0.236-0.1752-0.4398-0.1752c-0.1895,0-0.3576,0.0572-0.5042,0.1752
			c-0.1609,0.118-0.2575,0.2575-0.2861,0.4184c-0.0286,0.1752,0.0143,0.329,0.1323,0.4613c0.118,0.118,0.2718,0.1752,0.4613,0.1752
			l0.5043-0.1538l0.286-0.4398C34.6619,16.9532,34.6119,16.7994,34.4796,16.6671L34.4796,16.6671z M34.283,16.8209
			c0.0894,0.0751,0.1179,0.1609,0.0858,0.2646l-0.1752,0.286c-0.0894,0.0894-0.1967,0.1323-0.329,0.1323
			c-0.118,0-0.2039-0.0358-0.2647-0.1109c-0.0715-0.075-0.1001-0.168-0.0858-0.286l0.1752-0.2646
			c0.1037-0.0859,0.2109-0.1288,0.3289-0.1288C34.1363,16.7136,34.2221,16.7494,34.283,16.8209L34.283,16.8209z"/>
		<polygon style="fill:#F0B91C;" points="32.5486,16.4919 32.3269,17.722 32.5915,17.722 32.7882,16.4919 32.5486,16.4919 		"/>
		<polygon style="fill:#F0B91C;" points="36.4786,16.4919 36.2139,16.4919 36.0816,17.2607 35.2913,16.3596 35.0732,17.722 
			35.3378,17.722 35.4666,16.9532 36.2354,17.8543 36.4786,16.4919 		"/>
	</g>
</g>
</svg>
