<?xml version="1.0" encoding="utf-8"?>
<!-- Generator: Adobe Illustrator 18.0.0, SVG Export Plug-In . SVG Version: 6.00 Build 0)  -->
<!DOCTYPE svg PUBLIC "-//W3C//DTD SVG 1.1//EN" "http://www.w3.org/Graphics/SVG/1.1/DTD/svg11.dtd">
<svg version="1.1" id="Layer_1" xmlns="http://www.w3.org/2000/svg" xmlns:xlink="http://www.w3.org/1999/xlink" x="0px" y="0px"
	 width="39px" height="26px" viewBox="0 0 39 26" style="enable-background:new 0 0 39 26;" xml:space="preserve">
<g>
	<g>
		<path style="fill:#F3F4F4;" d="M1.9502,25.5C1.1504,25.5,0.5,24.8496,0.5,24.0498V1.9502C0.5,1.1504,1.1504,0.5,1.9502,0.5
			h35.0996C37.8496,0.5,38.5,1.1504,38.5,1.9502v22.0996c0,0.7998-0.6504,1.4502-1.4502,1.4502H1.9502z"/>
		<path style="fill:#DADBD9;" d="M37.0501,1c0.5238,0,0.95,0.4262,0.95,0.95v22.1c0,0.5238-0.4262,0.95-0.95,0.95H1.95
			C1.4262,25,1,24.5738,1,24.05V1.95C1,1.4262,1.4262,1,1.95,1H37.0501 M37.0501,0H1.95C0.8731,0,0,0.873,0,1.95v22.1
			C0,25.1269,0.8731,26,1.95,26h35.1001c1.077,0,1.95-0.8731,1.95-1.95V1.95C39.0001,0.873,38.127,0,37.0501,0L37.0501,0z"/>
	</g>
	<g>
		<g>
			<path style="fill-rule:evenodd;clip-rule:evenodd;fill:#E03160;" d="M11.1186,6.5586L24.7223,3l2.3874,8.8288l5.2252-1.3513
				L27.322,17.051l-0.0519,0.0135c0,0-0.4563,0.1244-0.6014,0.0415c-0.1452-0.0829,0.1659-0.6637,0.3318-1.0577
				c0.1659-0.3941,0.477-1.3481,0.7466-1.8873c0.2696-0.5392,0.6637-0.9747,0.7674-1.0162
				c0.1037-0.0415,0.1659-0.4148,0.1244-0.5807c-0.0415-0.1659,0-0.3526-0.1659-0.3526c-0.1659,0-0.2903,0.4977-0.5185,0.7881
				c-0.2281,0.2904-0.7466,1.2727-1.1822,2.1719c-0.4356,0.8992-1.2907,1.9323-1.7161,2.355
				c-0.4562,0.361-0.0883-0.3376-0.0468-0.545c0.0415-0.2074,0.3111-0.7881,0.3111-0.7881s0.3733-0.4148-0.1037-0.2696
				c-0.477,0.1452-0.9125,0.8503-0.9125,0.8503s-1.1822,1.4725-1.5969,1.7628c-0.4148,0.2904-0.3111-0.1659-0.2281-0.6222
				c0.083-0.4563,0.6014-0.9955,0.6014-0.9955l0.2074-0.083c0,0-0.1244,0.4563-0.0207,0.4355
				c0.1037-0.0207,0.2281-0.2074,0.2489-0.3733c0.0207-0.1659,0-0.8503-0.1245-0.7673c-0.1244,0.0829-0.7881,0.6844-0.9955,0.9333
				c-0.2074,0.2489-0.954,1.1821-1.2236,1.6177c-0.2696,0.4355-0.083-0.2281-0.083-0.2281s0.1037-0.3733,0.1244-0.5392
				c0.0207-0.1659-0.2074-0.083-0.2074-0.083l-0.3111,0.3111c0,0-0.0622,0.0622-0.0622,0.3111c0,0.2488-0.3111,0.6014-0.6222,0.7881
				c-0.3111,0.1867-0.1867-0.1659-0.1867-0.1659s0.1037-0.4355,0.4148-0.954c0.3111-0.5185,0.6429-0.56,0.8296-0.6429
				c0.1867-0.083,0.1037-0.2074,0.0415-0.3111s-0.2675-0.0288-0.3318,0.0207c-0.1424,0.1122-2.451,2.0413-2.5509,2.385
				c-0.1,0.3438,0.2281,0.083,0.2281,0.083l0.9127-0.9921l0.0413-0.0449l-0.0207,0.2281c0,0-0.2696,0.477-0.2074,0.8088
				c0.068,0.2679,0.2699,0.2093,0.4151,0.2002c0.1452-0.0207,0.4352-0.4284,0.6219-0.5735
				c0.1867-0.1452,0.2074,0.0207,0.2696,0.1452c0.0622,0.1245,0.3318-0.0415,0.3318-0.0415s0.6222-0.8503,0.7673-1.037
				c0.1452-0.1867,0.3318-0.1867,0.3318-0.1867s-0.083,0.2489,0.1244,0.5807c0.2074,0.3318,0.5807,0.083,0.8088-0.0622
				c0.2281-0.1452,0.954-1.0577,1.1199-1.2858c0.1659-0.2281,0.394-0.2696,0.394-0.2696s-0.1244,0.7259-0.083,0.9125
				c0.0415,0.1867,0.3526,0.2281,0.7259-0.1244c0.3733-0.3525,1.1561-1.5029,1.1561-1.5029s-0.202,0.5697-0.1399,1.0052
				c0.0622,0.4355,0.4338,0.31,0.5946,0.2602c0.1301-0.0862,0.2761-0.1646,0.3977-0.2276L22.7853,23l-5.7795-2.5308
				c0.1858-0.5539,0.8268-2.4638,0.8503-2.5343c0.6359-0.1995,1.2526-0.3939,1.2526-0.3939
				c0.0611-0.1483,0.1288-0.3587,0.2662-0.6061c0.1374-0.2474-0.1924-0.1924-0.1924-0.1924s-0.5619,0.4141-0.8093,0.4966
				c-0.3419,0.177-0.2079-0.1942-0.2079-0.1942s0.4948-1.0172,0.6598-1.4295c0.1649-0.4124,0.6323-0.4124,1.0172-0.5773
				c0.3849-0.165,2.9965-0.9897,3.4364-1.1546c0.4399-0.165,0.3574-0.8247,0.3574-0.8247s-0.4674,0.2474-0.8247,0.3574
				c-0.3574,0.11-2.7766,1.0447-3.0515,1.1821c-0.2749,0.1375-0.1375-0.11-0.1375-0.3024c0-0.1924-0.1375-0.11-0.1375-0.11
				s-0.3299,0.1649-0.5498,0.2199c-0.2199,0.055-0.3574,0.4399-0.3574,0.4399s-2.1718,0.9897-2.6391,1.5395
				c-0.4674,0.5498,0.2749,0.3024,0.2749,0.3024s2.0893-1.2371,1.9244-0.9347c-0.1649,0.3024-0.8797,1.9793-0.8797,1.9793
				s-0.6873,0.4674-0.9347,0.6598c-0.2474,0.1924-0.1375,0.5773-0.1375,0.5773s0.9897-0.7972,0.8797-0.5498
				c-0.0917,0.2062-0.4124,1.4432-0.5168,1.8497l-8.2682-3.6206l5.045-1.3514L11.1186,6.5586L11.1186,6.5586z M21.5611,16.5029
				c0,0,0.5555-0.6613,0.6348-0.8729c0.0794-0.2116,0.4232-0.2381,0.3968,0c-0.0264,0.2381-0.582,0.7142-0.582,0.7142
				s-0.2645,0.3174-0.3968,0.3174S21.5611,16.5029,21.5611,16.5029L21.5611,16.5029z M25.412,15.4032
				c0,0-0.1743,0.0249-0.1494-0.2739c0.0249-0.2987,0.0996-0.2489,0.2489-0.3734c0.1494-0.1245,0.2738-0.2987,0.2738-0.0498
				c0,0.2489-0.0249,0.3734-0.1494,0.5228C25.5116,15.3783,25.412,15.4032,25.412,15.4032L25.412,15.4032z"/>
		</g>
		<g>
			<path style="fill:#FFFFFF;" d="M7.2002,11.1768l3.0412-0.7887c0.5524-0.1433,1.0166-0.2111,1.3926-0.2034
				c0.3953-0.0065,0.7245,0.0534,0.9874,0.1796c0.2629,0.1262,0.4606,0.3208,0.5931,0.5838
				c0.055,0.1092,0.0985,0.2352,0.1305,0.3779c0.2111,1.0522-0.5413,1.8009-2.2573,2.2459l-1.0667,0.2766l0.344,1.4546
				l-2.0804,0.5395L7.2002,11.1768L7.2002,11.1768z M19.3339,8.1715l0.0178,0c0.0671-0.0467,0.137-0.0918,0.2095-0.1353
				c0.3827-0.2296,0.8414-0.4138,1.3762-0.5525c0.288-0.0747,0.5414-0.1255,0.7603-0.1526c0.2189-0.027,0.4584-0.0331,0.7184-0.0182
				c0.449,0.0208,0.84,0.1241,1.1727,0.31c0.3328,0.1859,0.5838,0.4467,0.753,0.7825l0.0122,0.0243l-1.1245,0.2916l0,0.5283
				l1.3158-0.3412l0.5908,2.5776l-1.3223,0.3429l-0.1964-0.4294c-0.1104,0.1477-0.2397,0.2826-0.3879,0.4049v0.0086h-0.0105
				c-0.3513,0.2868-0.8075,0.5031-1.3688,0.6486c-0.811,0.2103-1.5247,0.2147-2.1411,0.0132
				c-0.6165-0.2015-1.053-0.5572-1.3098-1.0669l-0.1288-0.2754L18.2131,10.88c-0.1702-0.7335-0.0284-1.4084,0.4253-2.0247
				c0.1846-0.2512,0.4165-0.4749,0.6956-0.6714L19.3339,8.1715L19.3339,8.1715z M9.5384,11.7231l0.2247,1.0396l0.8991-0.2332
				c0.2586-0.067,0.4524-0.1802,0.5815-0.3395c0.1291-0.1593,0.1508-0.3238,0.0652-0.4938
				c-0.1284-0.2549-0.5129-0.2993-1.1534-0.1332L9.5384,11.7231L9.5384,11.7231z M13.9171,9.4348l2.1244-0.551l3.3588,4.0761
				l-2.0716,0.5372l-0.3993-0.5552l-2.0803,0.5395l-0.0856,0.6809l-2.0274,0.5258L13.9171,9.4348L13.9171,9.4348z M15.0253,12.4066
				l1.3134-0.3406l-1.0443-1.4995L15.0253,12.4066L15.0253,12.4066z M27.6456,5.744c0.9344-0.2423,1.7164-0.253,2.346-0.032
				c0.2989,0.1055,0.5701,0.2547,0.8136,0.4477c0.1138,0.094,0.2154,0.1968,0.3049,0.3086
				c0.0895,0.1117,0.1709,0.2404,0.2443,0.3861l0.1161,0.2306L31.53,7.2823c0.1177,0.4315,0.0963,0.8739-0.0641,1.3272
				c-0.1604,0.4533-0.4735,0.8638-0.9394,1.2317c-0.4659,0.3679-1.0485,0.6424-1.7478,0.8238
				c-0.9461,0.2454-1.737,0.2549-2.3726,0.0286c-0.6356-0.2263-1.0818-0.5943-1.3385-1.1041l-0.0591-0.1768l-0.0744-0.2072
				l-0.0622-0.1828c-0.0906-0.4568-0.0592-0.8892,0.0941-1.2972c0.1533-0.408,0.4619-0.7945,0.9258-1.1596
				C26.3558,6.2009,26.9404,5.9269,27.6456,5.744L27.6456,5.744z M27.8927,6.8876c-0.905,0.2347-1.1657,0.9176-0.7821,2.0486
				c0.2833,0.5624,0.7511,0.759,1.4034,0.5898c0.5172-0.1341,0.8307-0.4087,0.9406-0.8237c0.1099-0.415,0.0639-0.8228-0.1378-1.2233
				c-0.1325-0.263-0.3177-0.4494-0.5557-0.5592C28.523,6.8099,28.2336,6.7992,27.8927,6.8876L27.8927,6.8876z"/>
			<path style="fill:#FFFFFF;" d="M8.2846,16.3775c-0.0968,0-0.1927-0.0263-0.277-0.0773c-0.1234-0.0747-0.2114-0.196-0.244-0.3365
				l-1.0845-4.6659c-0.0656-0.2826,0.1058-0.566,0.3867-0.6388l3.0412-0.7887c0.6013-0.1559,1.102-0.2285,1.5279-0.2206
				c0.4744-0.0066,0.8829,0.0716,1.218,0.2324c0.1327,0.0637,0.2542,0.1402,0.3639,0.2292l0.1784-0.794
				c0.044-0.1955,0.1936-0.3501,0.3876-0.4004l2.1244-0.5509c0.2014-0.0522,0.4148,0.017,0.547,0.1776l1.1718,1.4221
				c0.0579-0.5023,0.252-0.9801,0.5814-1.4276c0.1989-0.2705,0.4458-0.5162,0.7348-0.7311c0.0509-0.0547,0.1132-0.0987,0.183-0.1283
				c0.0526-0.0348,0.1065-0.0687,0.1608-0.1013c0.4246-0.2548,0.935-0.4606,1.5169-0.6115c0.3091-0.0801,0.588-0.1359,0.8291-0.1657
				c0.2495-0.0309,0.5231-0.0382,0.8144-0.0214c0.5247,0.0243,0.9987,0.1513,1.403,0.3771c0.224,0.1251,0.4205,0.2783,0.588,0.4581
				c0.0089-0.0256,0.0181-0.0512,0.0276-0.0767c0.1875-0.4988,0.5561-0.967,1.0957-1.3917
				c0.5202-0.4093,1.1764-0.7186,1.9502-0.9193c1.0365-0.2689,1.9285-0.2747,2.6573-0.0191
				c0.3545,0.1252,0.6802,0.3045,0.9688,0.5334c0.0028,0.0023,0.0057,0.0046,0.0085,0.0069
				c0.1415,0.1169,0.2698,0.247,0.3815,0.3864c0.1124,0.1404,0.2149,0.3019,0.3045,0.4799l0.1161,0.2304
				c0.014,0.0277,0.0255,0.0565,0.0344,0.0862l0.0595,0.1973c0.0014,0.0046,0.0027,0.0092,0.004,0.0138
				c0.1463,0.5365,0.1208,1.0904-0.0759,1.6463c-0.1937,0.5477-0.5679,1.0433-1.1122,1.473
				c-0.5221,0.4123-1.1765,0.7225-1.9449,0.9218c-1.0491,0.2721-1.9508,0.2767-2.6863,0.0148
				c-0.2511-0.0894-0.479-0.1988-0.6833-0.328l0.114,0.4972c0.0647,0.2821-0.1068,0.5645-0.387,0.6372l-1.3223,0.3429
				c-0.1561,0.0407-0.3157,0.0079-0.4404-0.0791c-0.0014,0.0009-0.0027,0.0017-0.0041,0.0026
				c-0.4022,0.3136-0.9129,0.552-1.5191,0.7092c-0.7515,0.1949-1.4427,0.23-2.0637,0.1035
				c-0.0033,0.0141-0.0072,0.0282-0.0118,0.0421c-0.0563,0.1737-0.1976,0.3067-0.3744,0.3525l-2.0716,0.5372
				c-0.2141,0.0555-0.4395-0.0261-0.5685-0.2054l-0.1853-0.2577l-1.3746,0.3565l-0.0404,0.321
				c-0.0274,0.2173-0.1844,0.396-0.3964,0.451l-2.0274,0.5258c-0.1803,0.0469-0.3722-0.0037-0.5062-0.1334
				c-0.134-0.1297-0.1907-0.3197-0.1499-0.5016l0.2038-0.9065c-0.3287,0.159-0.7236,0.3027-1.1962,0.4252l-0.56,0.1452
				l0.2236,0.9452c0.0669,0.2831-0.1047,0.5678-0.3862,0.6408l-2.0804,0.5395C8.3747,16.3718,8.3296,16.3775,8.2846,16.3775z
				 M7.8391,11.5636l0.8423,3.6237l1.0426-0.2704l-0.2236-0.9452c-0.0669-0.2831,0.1047-0.5678,0.3862-0.6408l1.0666-0.2766
				c1.3253-0.3437,1.7442-0.7868,1.8582-1.14l0.0311-0.1383c0.0182-0.1387-0.0043-0.2564-0.0208-0.3384
				c-0.022-0.0968-0.0507-0.1805-0.0851-0.2488c-0.0796-0.158-0.1898-0.2667-0.3468-0.3421
				c-0.1762-0.0846-0.4112-0.1275-0.6988-0.1275l-0.0485,0.0004c-0.0066,0-0.0132,0.0001-0.0198,0
				c-0.3245-0.0066-0.7453,0.0562-1.2473,0.1863L7.8391,11.5636z M13.8508,12.1681l-0.4007,1.7823l0.8281-0.2147l0.0403-0.321
				c0.0274-0.2173,0.1844-0.396,0.3964-0.451l0.1644-0.0427c-0.0771-0.0219-0.1495-0.0612-0.2111-0.1164
				c-0.1334-0.1196-0.198-0.2982-0.1721-0.4755l0.2691-1.8401c0.0318-0.2171,0.193-0.3928,0.4065-0.4432
				c0.2134-0.0505,0.4362,0.0349,0.5616,0.2149l1.0443,1.4995c0.1001,0.1436,0.1234,0.3271,0.0628,0.4912
				c-0.0273,0.0737-0.0699,0.1393-0.124,0.1932l0.0788-0.0204c0.2141-0.0554,0.4395,0.0262,0.5685,0.2054l0.1853,0.2577
				l0.9051-0.2347l-2.6085-3.1656l-1.4783,0.3834l-0.4821,2.1447C13.876,12.0661,13.8646,12.1171,13.8508,12.1681z M18.8802,11.1739
				c0.1923,0.3774,0.5179,0.6367,0.995,0.7927c0.5154,0.1685,1.1345,0.1606,1.8407-0.0225
				c0.4833-0.1253,0.8752-0.3088,1.1649-0.5452c0.0017-0.0014,0.0035-0.0029,0.0052-0.0043
				c0.001-0.0009,0.0021-0.0017,0.0031-0.0025c0.115-0.095,0.2159-0.2001,0.2999-0.3125c0.1131-0.1513,0.2974-0.2317,0.4853-0.2118
				c0.1878,0.02,0.3511,0.1377,0.4297,0.3095l0.0098,0.0215l0.385-0.0998L24.147,9.5643l-0.7831,0.203
				c-0.1602,0.0415-0.3307,0.0066-0.4616-0.0947c-0.1308-0.1013-0.2075-0.2575-0.2075-0.423V8.7213
				c0-0.2437,0.1647-0.4565,0.4006-0.5177L23.391,8.127c-0.0205-0.0128-0.0414-0.0251-0.0628-0.0371
				c-0.2583-0.1442-0.5734-0.2259-0.9368-0.2427c-0.2429-0.0138-0.4423-0.0082-0.628,0.0148
				c-0.195,0.0241-0.4277,0.071-0.6917,0.1395c-0.4828,0.1252-0.8983,0.2912-1.2351,0.4934c-0.0618,0.037-0.1223,0.076-0.1798,0.116
				c-0.0023,0.0016-0.0048,0.0033-0.0071,0.0048c-0.0026,0.0019-0.0052,0.0038-0.0079,0.0056
				c-0.2304,0.1622-0.4231,0.3475-0.5725,0.5508c-0.3599,0.489-0.4695,1.008-0.3351,1.587l0.0452,0.199L18.8802,11.1739z
				 M25.5618,9.3806c0.1969,0.3692,0.5321,0.6341,1.0237,0.8091c0.529,0.1884,1.2256,0.1737,2.059-0.0424
				c0.6239-0.1618,1.1456-0.406,1.5506-0.7259c0.3833-0.3026,0.6412-0.6358,0.7666-0.9902c0.1235-0.3492,0.1412-0.677,0.0541-1.0018
				l-0.0438-0.1452l-0.0953-0.189c-0.0563-0.1118-0.1182-0.2101-0.1841-0.2925c-0.0651-0.0812-0.1404-0.1577-0.224-0.2272
				c-0.1947-0.1536-0.415-0.2744-0.655-0.3591c-0.5214-0.183-1.211-0.1679-2.0336,0.0454c-0.6299,0.1634-1.154,0.4072-1.5573,0.7246
				c-0.3838,0.3021-0.6382,0.6141-0.7559,0.9273c-0.115,0.3061-0.1401,0.6244-0.0764,0.972l0.1216,0.346
				c0.0014,0.0038,0.0027,0.0077,0.0041,0.0115L25.5618,9.3806z M9.7631,13.2975c-0.0982,0-0.1954-0.027-0.2805-0.0795
				c-0.1241-0.0764-0.2116-0.2001-0.2423-0.3424l-0.2247-1.0396c-0.0606-0.2804,0.1108-0.5587,0.3885-0.6307l0.6171-0.16
				c0.2995-0.0777,0.5523-0.1155,0.7729-0.1155c0.6331,0,0.8935,0.3294,0.9924,0.5257c0.1805,0.3582,0.1341,0.7487-0.1274,1.0712
				c-0.2019,0.2492-0.4921,0.4243-0.8627,0.5204l-0.899,0.2332C9.8531,13.2919,9.808,13.2975,9.7631,13.2975z M28.0912,10.1195
				h-0.0002c-0.4485,0-1.0656-0.1636-1.4581-0.9427c-0.0112-0.0223-0.0208-0.0452-0.0288-0.0688
				c-0.2639-0.7779-0.2643-1.4192-0.0015-1.906c0.2217-0.4107,0.6105-0.6906,1.1558-0.832
				c0.4611-0.1197,0.8766-0.0974,1.2267,0.0641c0.3496,0.1613,0.6219,0.4319,0.8095,0.8043c0.2614,0.519,0.321,1.0576,0.1772,1.6008
				c-0.1118,0.4219-0.432,0.9734-1.3234,1.2045C28.4543,10.0939,28.267,10.1195,28.0912,10.1195z M27.6046,8.7268
				c0.1528,0.2829,0.3239,0.323,0.4865,0.323h0.0001c0.0852,0,0.1822-0.014,0.2885-0.0415
				c0.4193-0.1088,0.5183-0.2938,0.5578-0.4429c0.076-0.2868,0.0438-0.5635-0.0984-0.8458
				c-0.0782-0.1553-0.1742-0.2551-0.3021-0.3142c-0.1224-0.0565-0.2947-0.0559-0.5099,0c-0.3705,0.0961-0.4553,0.2531-0.4831,0.3048
				C27.4327,7.9161,27.4537,8.2671,27.6046,8.7268z"/>
		</g>
		<g>
			<path style="fill:#506185;" d="M7.2707,11.1768l3.0412-0.7887c0.5524-0.1433,1.0166-0.2111,1.3926-0.2034
				c0.3954-0.0065,0.7245,0.0534,0.9874,0.1796c0.2629,0.1262,0.4606,0.3208,0.5931,0.5838
				c0.055,0.1092,0.0985,0.2352,0.1305,0.3779c0.2111,1.0522-0.5413,1.8009-2.2573,2.2459l-1.0667,0.2766l0.344,1.4546
				l-2.0804,0.5395L7.2707,11.1768L7.2707,11.1768z M9.609,11.7231l0.2247,1.0396l0.8991-0.2332
				c0.2586-0.067,0.4524-0.1802,0.5814-0.3395c0.1291-0.1593,0.1508-0.3238,0.0652-0.4938
				c-0.1284-0.2549-0.5129-0.2993-1.1534-0.1332L9.609,11.7231L9.609,11.7231z M13.9877,9.4348l2.1244-0.551l3.3588,4.0761
				l-2.0716,0.5372l-0.3993-0.5552l-2.0803,0.5395l-0.0856,0.6809l-2.0274,0.5258L13.9877,9.4348L13.9877,9.4348z M15.0959,12.4066
				l1.3134-0.3406l-1.0443-1.4995L15.0959,12.4066L15.0959,12.4066z M22.0075,10.6553l-0.2389-1.0084l2.8473-0.7384l0.5908,2.5776
				l-1.3223,0.3429l-0.1963-0.4294c-0.3731,0.4993-0.9621,0.8534-1.7673,1.0621c-0.811,0.2103-1.5247,0.2148-2.1411,0.0132
				c-0.6165-0.2015-1.053-0.5572-1.3098-1.0669l-0.1288-0.2754L18.2836,10.88c-0.1702-0.7335-0.0284-1.4084,0.4253-2.0247
				c0.2326-0.3165,0.5403-0.5895,0.9229-0.8191c0.3827-0.2296,0.8414-0.4138,1.3762-0.5525
				c0.288-0.0747,0.5414-0.1255,0.7603-0.1526c0.2189-0.027,0.4584-0.0331,0.7184-0.0182c0.449,0.0208,0.8399,0.1241,1.1727,0.31
				c0.3328,0.1859,0.5838,0.4467,0.753,0.7825l0.0122,0.0243l-1.9745,0.5121c-0.2501-0.3514-0.6543-0.4547-1.2126-0.31
				c-0.9168,0.2378-1.1684,0.932-0.7549,2.0827c0.271,0.5381,0.768,0.7134,1.4908,0.5259c0.2233-0.0579,0.433-0.166,0.6289-0.3243
				c0.196-0.1583,0.3004-0.3238,0.3131-0.4963L22.0075,10.6553L22.0075,10.6553z M27.7162,5.744
				c0.9344-0.2423,1.7164-0.253,2.346-0.032c0.2989,0.1055,0.5701,0.2547,0.8136,0.4477c0.1138,0.094,0.2154,0.1968,0.3049,0.3086
				c0.0895,0.1117,0.1709,0.2404,0.2443,0.3861L31.541,7.085l0.0595,0.1973c0.1177,0.4315,0.0963,0.8739-0.0641,1.3272
				c-0.1604,0.4533-0.4735,0.8638-0.9394,1.2317c-0.4659,0.3679-1.0485,0.6424-1.7478,0.8238
				c-0.9461,0.2454-1.737,0.2549-2.3726,0.0286c-0.6356-0.2263-1.0818-0.5943-1.3385-1.1041l-0.0591-0.1768l-0.0744-0.2071
				l-0.0622-0.1828c-0.0906-0.4568-0.0592-0.8892,0.0941-1.2972c0.1533-0.408,0.4619-0.7945,0.9258-1.1596
				C26.4264,6.2009,27.011,5.9269,27.7162,5.744L27.7162,5.744z M27.9633,6.8876c-0.905,0.2347-1.1657,0.9176-0.782,2.0486
				c0.2833,0.5624,0.7511,0.759,1.4034,0.5898c0.5172-0.1341,0.8307-0.4087,0.9405-0.8237c0.1099-0.415,0.0639-0.8228-0.1378-1.2233
				c-0.1325-0.263-0.3177-0.4494-0.5557-0.5592C28.5936,6.8099,28.3041,6.7992,27.9633,6.8876L27.9633,6.8876z"/>
			<path style="fill:#506185;" d="M8.2865,15.956l-1.1263-4.8461l3.1285-0.8114c0.5583-0.1448,1.0348-0.2142,1.4177-0.2063
				c0.0163-0.0003,0.0359-0.0005,0.0554-0.0005c0.3822,0,0.7087,0.0637,0.9702,0.1893c0.2805,0.1346,0.4943,0.3451,0.6356,0.6255
				c0.0487,0.0965,0.0892,0.2066,0.1208,0.3277l0.4214-1.8749l2.2361-0.5799l2.3263,2.823
				c-0.0302-0.0494-0.0585-0.1004-0.085-0.1529l-0.1364-0.2965l-0.0575-0.2527c-0.1755-0.7572-0.0273-1.4639,0.441-2.1
				c0.2388-0.3249,0.5583-0.6087,0.9498-0.8436c0.3885-0.2331,0.8598-0.4225,1.4006-0.5627
				c0.2904-0.0753,0.5502-0.1274,0.7722-0.1549c0.2234-0.0275,0.4705-0.0338,0.735-0.0188
				c0.4604,0.0214,0.8687,0.1295,1.2126,0.3216c0.3477,0.1941,0.6137,0.4706,0.7905,0.8217l0.0639,0.1266l-2.1472,0.5569
				l-0.0369-0.0519c-0.228-0.3204-0.5946-0.4087-1.1141-0.2741c-0.372,0.0965-0.6283,0.2734-0.7617,0.5259
				c-0.1754,0.3319-0.1522,0.8132,0.0687,1.4306c0.2522,0.496,0.7062,0.6485,1.3825,0.4731
				c0.2094-0.0543,0.4093-0.1575,0.594-0.3068c0.1203-0.0971,0.2023-0.1963,0.2452-0.2961l-0.85,0.2205l-0.2816-1.1885l3.027-0.785
				l0.6322,2.758l-1.4844,0.385l-0.1662-0.3634c-0.3869,0.4521-0.9654,0.7804-1.7224,0.9767
				c-0.8245,0.2139-1.5626,0.2177-2.193,0.0116c-0.3618-0.1183-0.6661-0.29-0.9103-0.5132l0.7938,0.9633l-2.2732,0.5895
				l-0.3993-0.5551l-1.9583,0.5079l-0.0856,0.6809l-2.2348,0.5796l0.4903-2.1812c-0.377,0.4372-1.0423,0.7805-1.9922,1.0269
				l-0.9791,0.2539l0.344,1.4546L8.2865,15.956z M7.3812,11.2436l1.0426,4.4857l1.9009-0.493l-0.344-1.4546l1.1543-0.2994
				c1.675-0.4344,2.3914-1.1338,2.1898-2.1382c-0.0298-0.1328-0.0711-0.2527-0.1224-0.3544
				c-0.1225-0.2431-0.3077-0.4255-0.5505-0.542c-0.2364-0.1135-0.5358-0.171-0.8902-0.171l-0.0557,0.0005
				c-0.022-0.0004-0.0408-0.0006-0.0599-0.0006c-0.3558,0-0.7968,0.0676-1.3111,0.201L7.3812,11.2436z M14.0656,9.5101
				l-1.1354,5.0505l1.8201-0.472l0.0856-0.6809l2.2023-0.5712l0.3993,0.5551l1.8698-0.4849l-3.229-3.9187L14.0656,9.5101z
				 M18.4291,11.1025l0.1246,0.2665c0.2428,0.4822,0.6654,0.8255,1.2547,1.0181c0.5966,0.1951,1.2993,0.19,2.0891-0.0149
				c0.7806-0.2024,1.358-0.5483,1.7164-1.028l0.0933-0.1249l0.229,0.5007l1.1602-0.3009L24.547,9.0219l-2.6674,0.6918l0.1961,0.8284
				l0.9416-0.2442l-0.0096,0.1288c-0.0147,0.1983-0.1316,0.3873-0.3473,0.5614c-0.2053,0.166-0.4287,0.281-0.6638,0.342
				c-0.7667,0.1989-1.3062,0.0025-1.5966-0.5739l-0.0044-0.0103c-0.241-0.6709-0.2613-1.2042-0.0601-1.585
				c0.1587-0.3003,0.4543-0.5084,0.8788-0.6185c0.5689-0.1473,0.9978-0.0468,1.2723,0.2945l1.8018-0.4673
				c-0.1589-0.281-0.3853-0.5046-0.674-0.6659c-0.3187-0.1779-0.6995-0.2783-1.1319-0.2984
				c-0.2565-0.0146-0.4905-0.0085-0.7027,0.0177c-0.2141,0.0264-0.466,0.077-0.7485,0.1503
				c-0.5237,0.1358-0.9785,0.3183-1.3518,0.5423c-0.3703,0.2222-0.6718,0.4896-0.896,0.7946
				c-0.4348,0.5907-0.5727,1.2464-0.4097,1.949L18.4291,11.1025z M9.7636,12.8764l-0.2638-1.2205l0.703-0.1823
				c0.6936-0.1798,1.1084-0.118,1.2593,0.1811c0.1015,0.2016,0.0753,0.4069-0.0759,0.5936
				c-0.1413,0.1743-0.3533,0.299-0.6301,0.3708L9.7636,12.8764z M9.7182,11.7903l0.1856,0.8587l0.8058-0.209
				c0.2378-0.0616,0.417-0.1653,0.5328-0.3082c0.1065-0.1313,0.1237-0.2565,0.0545-0.3939
				c-0.0612-0.1215-0.2025-0.1806-0.4322-0.1806c-0.1644,0-0.3714,0.0321-0.6154,0.0954L9.7182,11.7903z M14.9842,12.5311
				l0.2894-1.9779l0.1673-0.0395l1.1202,1.6084L14.9842,12.5311z M15.4228,10.8111l-0.2152,1.471l1.0499-0.2723L15.4228,10.8111z
				 M27.4988,10.9488c-0.3852,0-0.7396-0.0566-1.0531-0.1682c-0.6558-0.2335-1.1234-0.6203-1.39-1.1496l-0.0051-0.0122
				L24.9915,9.442l-0.1397-0.4013c-0.0936-0.4719-0.0605-0.9253,0.0982-1.3477c0.1586-0.422,0.4799-0.8256,0.9552-1.1997
				c0.4718-0.3713,1.0733-0.6535,1.7877-0.8388c0.9485-0.2459,1.7554-0.256,2.3998-0.0298c0.3074,0.1085,0.59,0.2641,0.8403,0.4625
				c0.1195,0.0987,0.2265,0.207,0.3197,0.3232c0.093,0.1161,0.1786,0.2514,0.2547,0.4023l0.1221,0.2455l0.0595,0.1973
				c0.123,0.4503,0.1007,0.9154-0.0654,1.3848c-0.1655,0.4679-0.4916,0.8963-0.9692,1.2734
				c-0.4738,0.3741-1.0733,0.657-1.7819,0.8408C28.3751,10.8834,27.9129,10.9488,27.4988,10.9488z M25.2238,9.5537
				c0.245,0.4825,0.677,0.8366,1.2839,1.0527c0.6149,0.2188,1.3955,0.2084,2.3184-0.0311c0.6836-0.1773,1.2602-0.4488,1.7136-0.8068
				c0.4499-0.3552,0.7558-0.7555,0.9096-1.1899c0.1532-0.4332,0.1741-0.8612,0.0619-1.272l-0.0565-0.1871L31.3423,6.896
				c-0.0703-0.1394-0.1489-0.2638-0.2338-0.3699c-0.0853-0.1064-0.1834-0.2057-0.2917-0.2951
				c-0.2328-0.1845-0.4976-0.3302-0.7854-0.4318c-0.6085-0.2135-1.3805-0.202-2.292,0.0344
				c-0.6895,0.1788-1.2681,0.4497-1.7198,0.8051c-0.4483,0.3529-0.7499,0.7295-0.8963,1.1194
				c-0.1458,0.3879-0.1764,0.8053-0.0911,1.2408L25.2238,9.5537z M28.1618,9.6771L28.1618,9.6771
				c-0.4717,0-0.8294-0.2353-1.0632-0.6994l-0.005-0.0119c-0.2228-0.6567-0.2332-1.1795-0.0312-1.5538
				c0.1609-0.2981,0.4562-0.5047,0.8776-0.614c0.3604-0.0935,0.6736-0.0808,0.9303,0.0377
				c0.2564,0.1183,0.4581,0.3207,0.5996,0.6016c0.2112,0.4194,0.2599,0.853,0.1446,1.2886
				c-0.1186,0.4478-0.4573,0.7471-1.0067,0.8896C28.4501,9.6563,28.3,9.6771,28.1618,9.6771z M27.2667,8.9002
				c0.2024,0.3982,0.4952,0.5919,0.895,0.5919h0.0001c0.1226,0,0.2571-0.0188,0.3997-0.0558
				c0.4867-0.1262,0.7727-0.3741,0.8743-0.7579c0.1034-0.3906,0.0593-0.7802-0.131-1.1581
				c-0.1222-0.2425-0.2944-0.4165-0.5118-0.5168c-0.2173-0.1002-0.4884-0.1089-0.8064-0.0266
				c-0.3696,0.0959-0.6258,0.2718-0.7613,0.5228C27.0492,7.826,27.0631,8.2971,27.2667,8.9002z"/>
		</g>
	</g>
</g>
</svg>
