<?xml version="1.0" encoding="utf-8"?>
<!-- Generator: Adobe Illustrator 18.0.0, SVG Export Plug-In . SVG Version: 6.00 Build 0)  -->
<!DOCTYPE svg PUBLIC "-//W3C//DTD SVG 1.1//EN" "http://www.w3.org/Graphics/SVG/1.1/DTD/svg11.dtd">
<svg version="1.1" id="Layer_1" xmlns="http://www.w3.org/2000/svg" xmlns:xlink="http://www.w3.org/1999/xlink" x="0px" y="0px"
	 width="39px" height="26px" viewBox="0 0 39 26" style="enable-background:new 0 0 39 26;" xml:space="preserve">
<g>
	<g>
		<path style="fill:#F3F4F4;" d="M1.9502,25.5C1.1504,25.5,0.5,24.8496,0.5,24.0498V1.9502C0.5,1.1504,1.1504,0.5,1.9502,0.5
			h35.0996C37.8496,0.5,38.5,1.1504,38.5,1.9502v22.0996c0,0.7998-0.6504,1.4502-1.4502,1.4502H1.9502z"/>
		<path style="fill:#DADBD9;" d="M37.0501,1c0.5238,0,0.95,0.4262,0.95,0.95v22.1c0,0.5238-0.4262,0.95-0.95,0.95H1.95
			C1.4262,25,1,24.5738,1,24.05V1.95C1,1.4262,1.4262,1,1.95,1H37.0501 M37.0501,0H1.95C0.8731,0,0,0.873,0,1.95v22.1
			C0,25.1269,0.8731,26,1.95,26h35.1001c1.077,0,1.95-0.8731,1.95-1.95V1.95C39.0001,0.873,38.127,0,37.0501,0L37.0501,0z"/>
	</g>
	<g>
		<path style="fill:#11A6DF;" d="M31.426,18.1349c-0.6798-0.0306-1.3343-0.1649-1.9363-0.4953
			c-0.8733-0.4793-1.3753-1.2417-1.6323-2.1818c-0.1364-0.4991-0.1832-1.0098-0.182-1.5276
			c0.0044-1.8504,0.0014-3.7008,0.002-5.5512c0.0001-0.3513,0.203-0.5819,0.5318-0.6095c0.0628-0.027,0.1288-0.0135,0.1932-0.0136
			c1.3633-0.0009,2.7266-0.0007,4.0896-0.0007c0.0572-0.0025,0.095,0.0127,0.0715,0.0813
			c-0.0196,0.0574-0.0528,0.1082-0.0944,0.1501c-0.2307,0.2321-0.4369,0.4868-0.6695,0.7172
			c-0.1412,0.1399-0.3146,0.1861-0.5042,0.1894c-0.2737,0.0047-0.5474-0.0015-0.8211,0.0026
			c-0.2006,0.003-0.2442,0.0418-0.2446,0.2424c-0.0032,1.4518-0.0073,2.9036,0.0037,4.3554
			c0.0018,0.2364,0.0214,0.4746,0.0347,0.7118c0.0441,0.7828,0.5583,1.3931,1.3215,1.5807c0.2145,0.0527,0.4313,0.086,0.6535,0.0782
			c0.2121-0.0074,0.2381-0.028,0.2391-0.2374c0.0022-0.4581,0.0005-0.9163,0.0008-1.3744c0-0.0654-0.0024-0.131,0.0044-0.1962
			c0.0194-0.1851,0.0887-0.2548,0.2728-0.2613c0.2021-0.0072,0.4046,0.0015,0.6068-0.0029
			c0.8789-0.0191,1.6587-0.3029,2.3048-0.9047c0.275-0.2561,0.4861-0.5691,0.6478-0.912c0.0363-0.077,0.0577-0.1769,0.1781-0.1674
			c0,1.9046,0,3.8093,0,5.7139c-0.0894,0.4658-0.284,0.6238-0.7691,0.6243c-1.3698,0.0001-2.7392,0.0002-4.1087-0.0005
			C31.5554,18.1459,31.4897,18.1565,31.426,18.1349z"/>
		<path style="fill:#E6EEF5;" d="M31.426,18.1349c1.4528,0.0001,2.9056,0.0002,4.3584,0.0003
			c0.011,0.0069,0.0145,0.0135,0.0106,0.02c-0.0038,0.0064-0.0076,0.0096-0.0114,0.0096c-1.4523,0-2.9046,0-4.3569,0
			C31.4267,18.1549,31.4264,18.1449,31.426,18.1349z"/>
		<path style="fill:#82B7D7;" d="M32.5339,7.7369c0,0.0117,0.0005,0.0234,0.0014,0.0351c-1.442-0.0008-2.8841-0.0016-4.3262-0.0024
			c0.0033-0.0107,0.0046-0.0215,0.0036-0.0327C29.6531,7.7369,31.0935,7.7369,32.5339,7.7369z"/>
		<path style="fill:#FDFEFE;" d="M35.7837,18.1648c0.0001-0.0099,0.0004-0.0198,0.0008-0.0296
			c0.3908-0.0264,0.6077-0.2552,0.7135-0.6132c0,0.1905-0.0034,0.381,0.002,0.5713c0.0018,0.0622-0.0113,0.0749-0.0734,0.0734
			C36.2123,18.1617,35.998,18.1648,35.7837,18.1648z"/>
		<path style="fill:#818385;" d="M15.6421,10.8441c0-0.476-0.0007-0.952,0.0003-1.4281c0.0005-0.2091,0.0413-0.2492,0.2482-0.2513
			c0.1011-0.001,0.2024,0.002,0.3034-0.0007c0.0826-0.0022,0.1509,0.0338,0.1597,0.1104c0.0193,0.1682,0.1123,0.1039,0.1842,0.0621
			c0.2686-0.1561,0.5554-0.213,0.865-0.2106c0.6209,0.0049,0.8945,0.375,0.951,0.8842c0.0848,0.7638,0.0198,1.5316,0.038,2.2975
			c0.0035,0.1479-0.0668,0.215-0.2147,0.2154c-0.6433,0.0018-0.5352,0.023-0.5393-0.51c-0.0037-0.4879-0.0057-0.9759,0.0019-1.4637
			c0.0026-0.1673-0.0275-0.3298-0.0378-0.4948c-0.0094-0.1522-0.0928-0.2571-0.2499-0.2742
			c-0.3115-0.0338-0.6124-0.0053-0.8927,0.1571c-0.0792,0.0459-0.0619,0.1052-0.062,0.1655c-0.0012,0.72-0.0006,1.44-0.0009,2.16
			c-0.0001,0.2268-0.0301,0.2579-0.2544,0.2592c-0.534,0.0031-0.503,0.0375-0.5005-0.4999
			C15.6436,11.6295,15.6421,11.2368,15.6421,10.8441z"/>
		<path style="fill:#818385;" d="M11.3401,9.1645c0.3871,0.012,0.351-0.0925,0.4534,0.38c0.1595,0.7355,0.3324,1.4682,0.5043,2.2009
			c0.019,0.081,0.0317,0.1948,0.1464,0.1964c0.1159,0.0016,0.1299-0.1121,0.1487-0.1931c0.1856-0.8021,0.368-1.6049,0.5466-2.4086
			c0.0273-0.1231,0.0763-0.1876,0.2131-0.1778c0.142,0.0101,0.2854,0.0056,0.428,0.0013c0.1298-0.0039,0.1726,0.0478,0.1373,0.1743
			c-0.1768,0.6344-0.3473,1.2705-0.5282,1.9037c-0.0886,0.3103-0.1419,0.633-0.2812,0.9264
			c-0.1521,0.3204-0.4317,0.4139-0.7658,0.391c-0.268-0.0183-0.5138-0.2042-0.5942-0.4831
			c-0.2199-0.7626-0.4303-1.5279-0.6432-2.2925c-0.041-0.1473-0.0647-0.3004-0.1173-0.4431
			c-0.0559-0.1519,0.0095-0.1808,0.1379-0.1761C11.1973,9.1666,11.2687,9.1645,11.3401,9.1645z"/>
		<path style="fill:#818385;" d="M18.8548,10.8392c-0.0054-0.3427-0.0171-0.6831,0.1401-1.0074
			c0.2047-0.4222,0.5522-0.641,0.9951-0.6948c0.3091-0.0376,0.6259-0.0224,0.9347,0.0578c0.1058,0.0275,0.1441,0.0799,0.1481,0.1849
			c0.0149,0.3973,0.0172,0.3967-0.365,0.3932c-0.1606-0.0015-0.322,0.01-0.4816-0.0025c-0.4229-0.033-0.5784,0.2221-0.6111,0.5731
			c-0.0307,0.3302-0.0301,0.6677-0.0003,0.998c0.0319,0.3533,0.1905,0.6092,0.6087,0.5749
			c0.2359-0.0193,0.4749,0.0266,0.7095-0.0269c0.0413-0.0094,0.0731,0.0011,0.0934,0.0315c0.0943,0.1414,0.0377,0.3,0.0384,0.4497
			c0.0005,0.1009-0.0999,0.11-0.185,0.1273c-0.3742,0.0762-0.7444,0.0967-1.1208,0.0001c-0.5749-0.1476-0.8699-0.6802-0.9025-1.1772
			C18.846,11.161,18.8548,10.9998,18.8548,10.8392z"/>
		<path style="fill:#818385;" d="M5.9642,10.8371c0-0.4636-0.0011-0.9273,0.0005-1.3909c0.0008-0.2422,0.0406-0.2809,0.2748-0.2816
			c0.0951-0.0003,0.1902-0.0011,0.2853,0.0005c0.0745,0.0013,0.1517,0.0194,0.168,0.0999c0.032,0.158,0.1149,0.116,0.1955,0.0552
			C7.0659,9.1861,7.2731,9.151,7.4849,9.1296C7.618,9.1162,7.6873,9.1765,7.6795,9.3152c-0.002,0.0356-0.0003,0.0713-0.0003,0.107
			c0.0001,0.3338-0.0037,0.3383-0.3283,0.3509C7.158,9.7806,6.986,9.8625,6.8102,9.928c-0.0858,0.032-0.0597,0.1204-0.0598,0.1887
			C6.7494,10.8121,6.75,11.5075,6.7497,12.203c-0.0001,0.2714-0.0482,0.3157-0.3177,0.3201
			c-0.4235,0.0069-0.4762,0.0374-0.469-0.4735C5.9687,11.6455,5.9642,11.2413,5.9642,10.8371z"/>
		<path style="fill:#818385;" d="M15.0397,10.858c0,0.4813-0.0047,0.9627,0.0027,1.4439c0.0024,0.1546-0.0621,0.2183-0.2062,0.22
			c-0.1188,0.0014-0.2377,0.001-0.3565,0.0001c-0.1305-0.001-0.1944-0.0689-0.1945-0.1983c-0.0001-0.9864,0-1.9728-0.0001-2.9592
			c0-0.1409,0.0743-0.202,0.2107-0.2002c0.1129,0.0015,0.2261,0.0051,0.3386-0.0009c0.1563-0.0082,0.2082,0.0664,0.2069,0.215
			C15.0369,9.8715,15.0397,10.3647,15.0397,10.858z"/>
		<path style="fill:#818385;" d="M21.5656,10.8408c0-0.4811-0.0005-0.9623,0.0002-1.4434c0.0003-0.2092,0.0246-0.232,0.2391-0.2328
			c0.1069-0.0004,0.2138-0.0007,0.3208,0.0003C22.2559,9.1661,22.32,9.2338,22.32,9.363c0.0001,0.9741,0.0005,1.9483-0.0003,2.9224
			c-0.0001,0.1624-0.0687,0.2409-0.2477,0.2401c-0.6119-0.0027-0.4998,0.001-0.5055-0.5086
			C21.5621,11.6249,21.5656,11.2329,21.5656,10.8408z"/>
		<path style="fill:#818385;" d="M21.9408,7.9503c0.3804,0,0.3804,0,0.3804,0.3735c0,0.0534-0.0017,0.1068,0.0003,0.1601
			c0.0048,0.1249-0.0519,0.1877-0.179,0.1865c-0.1423-0.0014-0.285-0.0057-0.427,0.0013c-0.1161,0.0058-0.1678-0.0616-0.1761-0.1556
			c-0.0121-0.1353-0.011-0.2731-0.001-0.4088c0.0079-0.1064,0.067-0.1715,0.1889-0.1584
			C21.7977,7.9565,21.8696,7.9503,21.9408,7.9503z"/>
		<path style="fill:#818385;" d="M14.6815,7.9503c0.3893,0,0.3893,0,0.3891,0.3879c0,0.0594,0.0072,0.1202-0.0035,0.1777
			c-0.0174,0.0937-0.0609,0.1617-0.1773,0.1558c-0.1421-0.0072-0.2849-0.0023-0.4273-0.0015
			c-0.1254,0.0007-0.1853-0.0609-0.1822-0.1858c0.001-0.0415,0.0005-0.0831,0-0.1247C14.2755,7.9298,14.2593,7.9447,14.6815,7.9503z
			"/>
		<path style="fill:#10A6E0;" d="M32.5696,10.9028c0-0.2675-0.0008-0.535,0.0002-0.8024c0.0008-0.2255,0.0691-0.2964,0.2991-0.2928
			c0.2926,0.0045,0.5796-0.0213,0.8637,0.1299c0.5697,0.3032,0.7625,1.0789,0.3636,1.6103
			c-0.2264,0.3016-0.5289,0.4626-0.9163,0.4416c-0.1067-0.0058-0.2139-0.0003-0.3209-0.001
			c-0.2206-0.0015-0.2878-0.0662-0.2891-0.2832C32.5684,11.4377,32.5696,11.1703,32.5696,10.9028z"/>
		<path style="fill:#818385;" d="M5.5586,9.155C5.5024,8.7833,5.316,8.4795,4.9681,8.2798C4.6032,8.0702,4.202,8.0328,3.808,8.0358
			C3.4927,8.0383,3.171,8.0401,2.854,8.0909C2.5445,8.1405,2.5001,8.1768,2.5001,8.496c0,0.6066,0,1.2132,0,1.8198
			c0,0.6304-0.0002,1.2608,0.0001,1.8912c0.0001,0.263,0.051,0.3152,0.3042,0.3154c0.0892,0.0001,0.1784,0.0007,0.2676-0.0001
			c0.2069-0.002,0.2485-0.0427,0.2491-0.2503c0.0011-0.4163,0.0079-0.8328-0.0036-1.2488
			c-0.0043-0.1543,0.0458-0.1869,0.1899-0.1828c0.2896,0.0082,0.5795,0.0203,0.8691-0.0286
			c0.4278-0.0722,0.7792-0.2577,1.0215-0.6278C5.6069,9.8648,5.6115,9.5052,5.5586,9.155z M4.2886,10.1471
			c-0.297,0.0814-0.597,0.0563-0.8975,0.0229c-0.0836-0.0093-0.0683-0.067-0.0686-0.1169C3.3211,9.8514,3.3219,9.6497,3.3219,9.448
			c0-0.2017,0.0022-0.4034-0.0011-0.6051c-0.0013-0.0841,0.019-0.14,0.1155-0.138c0.2776,0.0056,0.557-0.0338,0.8321,0.0332
			c0.3403,0.0828,0.5062,0.2987,0.5138,0.669C4.7907,9.8173,4.6352,10.0521,4.2886,10.1471z"/>
		<path style="fill:#818385;" d="M10.7117,10.397c-0.0486-0.3821-0.1708-0.7275-0.4976-0.9751
			c-0.2922-0.2213-0.614-0.3007-0.976-0.297c-0.5398,0.0055-1.0704,0.3554-1.2503,0.8985
			c-0.1428,0.4313-0.1054,0.8684-0.0797,1.3022c0.0166,0.2803,0.1282,0.5477,0.3192,0.7707
			c0.3505,0.4091,0.8151,0.5246,1.3156,0.4536c0.5143-0.0729,0.8987-0.3459,1.0817-0.867c0.0975-0.2777,0.0941-0.5569,0.0902-0.8403
			C10.7147,10.694,10.7303,10.5433,10.7117,10.397z M9.92,11.4454c-0.0905,0.3047-0.302,0.47-0.6107,0.4696
			c-0.3118-0.0005-0.5312-0.1585-0.6061-0.472c-0.0948-0.3969-0.0943-0.801-0.0002-1.1981c0.0738-0.3116,0.2942-0.471,0.6061-0.4721
			c0.3067-0.0011,0.5223,0.1677,0.6111,0.4698c0.0583,0.1982,0.0404,0.4002,0.0435,0.6014
			C9.9606,11.0453,9.9788,11.2474,9.92,11.4454z"/>
		<path style="fill:#818385;" d="M25.3915,11.2565c0-0.3392,0.0172-0.6794-0.0039-1.0173c-0.0335-0.5343-0.2047-0.8623-0.708-1.023
			c-0.5191-0.1657-1.0418-0.0881-1.5615-0.0031c-0.1423,0.0233-0.1931,0.2079-0.1545,0.4418
			c0.0247,0.1498,0.1311,0.1224,0.2302,0.1195c0.3198-0.0095,0.6387-0.0606,0.9589-0.0341
			c0.1747,0.0145,0.3762,0.0206,0.4354,0.2321c0.039,0.1393,0.0569,0.2888,0.051,0.4388c-0.0033,0.0849-0.0304,0.1148-0.1149,0.1124
			c-0.2311-0.0066-0.4609,0.0079-0.6915,0.0314c-0.6424,0.0654-1.0969,0.4029-1.0514,1.1338
			c0.0263,0.422,0.2757,0.7425,0.6822,0.8367c0.3551,0.0823,0.6902,0.0296,1.0102-0.1425c0.0804-0.0432,0.1825-0.1575,0.2171,0.0536
			c0.0112,0.0683,0.1063,0.0845,0.1801,0.0853c0.0952,0.0011,0.1906-0.0033,0.2856,0.0012
			c0.1643,0.0078,0.2383-0.0645,0.2361-0.2312C25.3883,11.9468,25.3915,11.6016,25.3915,11.2565z M24.635,11.1731
			c-0.0077,0.0825-0.0015,0.1662-0.0015,0.2494c0,0.0238,0,0.0475,0,0.0713c0,0.3528,0.0005,0.3549-0.3341,0.44
			c-0.185,0.0471-0.3722,0.0516-0.5605,0.0117c-0.065-0.0138-0.1047-0.0568-0.1395-0.1027
			c-0.204-0.2689-0.0246-0.7179,0.3034-0.7866c0.195-0.0409,0.3899-0.0204,0.5843-0.0345
			C24.6081,11.0129,24.6457,11.0587,24.635,11.1731z"/>
		<path style="fill:#A0DCF1;" d="M31.0034,18.2631c0.0353-0.0624,0.0707-0.0572,0.106,0
			C31.0741,18.2631,31.0388,18.2631,31.0034,18.2631z"/>
		<path style="fill:#11A7E0;" d="M18.0131,14.8962c0,0.5984,0,1.1759,0,1.7534c0,0.3354-0.0014,0.6709,0.0007,1.0063
			c0.0009,0.1395-0.0291,0.2519-0.1989,0.2464c-0.1579-0.0051-0.1727-0.1167-0.1726-0.2421c0.0013-1.024,0.0023-2.048-0.0009-3.072
			c-0.0005-0.1692,0.0484-0.3003,0.2216-0.3442c0.1898-0.0482,0.3205,0.0337,0.4066,0.208c0.4098,0.83,0.8225,1.6586,1.2348,2.4875
			c0.0541,0.1087,0.1116,0.2158,0.2121,0.3233c0-0.0722,0-0.1444,0-0.2167c0-0.8298,0.0013-1.6596-0.0012-2.4894
			c-0.0004-0.1518,0.0076-0.305,0.2018-0.3029c0.1834,0.002,0.1814,0.1566,0.1813,0.2928c-0.0002,0.9975-0.0009,1.995,0.0002,2.9925
			c0.0002,0.1799-0.0298,0.3446-0.2341,0.3919c-0.2085,0.0483-0.3263-0.0713-0.4133-0.2472
			c-0.4222-0.8534-0.8474-1.7053-1.2744-2.5564C18.1396,15.0534,18.1239,14.9616,18.0131,14.8962z"/>
		<path style="fill:#13A7E0;" d="M20.6085,16.0943c0-0.4235-0.0032-0.847,0.001-1.2705c0.0033-0.3343,0.1261-0.4835,0.4559-0.5424
			c0.4547-0.0813,0.9145-0.0273,1.3719-0.0315c0.1168-0.0011,0.1982,0.0768,0.1892,0.2079
			c-0.0086,0.1251-0.098,0.1556-0.2049,0.1558c-0.3617,0.0007-0.7235-0.0007-1.0852,0.0009c-0.324,0.0015-0.36,0.0384-0.3631,0.3703
			c-0.0019,0.2029,0.0113,0.4067-0.0036,0.6085c-0.0143,0.1936,0.0667,0.2388,0.245,0.2333
			c0.3702-0.0115,0.741-0.0059,1.1116-0.0021c0.1236,0.0013,0.2921-0.0483,0.2991,0.1582c0.0077,0.2262-0.1636,0.2081-0.3167,0.2076
			c-0.3706-0.0012-0.7413,0.007-1.1116-0.0036c-0.1714-0.0049-0.2354,0.048-0.2273,0.2241
			c0.0125,0.2729,0.0119,0.5472,0.0009,0.8203c-0.0098,0.2422,0.1043,0.3339,0.3323,0.3316
			c0.3617-0.0036,0.7235-0.0009,1.0852-0.0008c0.1208,0,0.2434,0.0061,0.2378,0.1717c-0.0053,0.1563-0.1223,0.174-0.245,0.1733
			c-0.4146-0.0024-0.8296,0.0057-1.2436-0.0114c-0.3616-0.0149-0.5242-0.1966-0.5278-0.5572
			C20.6054,16.9236,20.6085,16.5089,20.6085,16.0943z"/>
		<path style="fill:#17A7E0;" d="M24.2252,16.248c0,0.4497,0.0017,0.8993-0.001,1.349c-0.0008,0.1342,0.0426,0.3136-0.1817,0.3038
			c-0.2093-0.0091-0.1791-0.1827-0.1794-0.3192c-0.0022-0.8552,0.0006-1.7105-0.0018-2.5657
			c-0.0013-0.4552,0.0566-0.3967-0.4144-0.4016c-0.141-0.0014-0.2822,0.0007-0.4231-0.0034
			c-0.098-0.0028-0.1702-0.0421-0.1781-0.1536c-0.0076-0.1061,0.0494-0.166,0.1437-0.1925c0.05-0.0141,0.1038-0.0203,0.1559-0.0204
			c0.6348-0.0014,1.2696-0.0007,1.9044-0.0013c0.1202-0.0001,0.2403,0.0098,0.2701,0.1531
			c0.0296,0.1423-0.0409,0.2173-0.1876,0.2173c-0.2028,0.0001-0.4073,0.0173-0.6079-0.0036
			c-0.2554-0.0266-0.313,0.0804-0.304,0.3156C24.2372,15.3659,24.2252,15.8072,24.2252,16.248z"/>
	</g>
</g>
</svg>
