<?xml version="1.0" encoding="utf-8"?>
<!-- Generator: Adobe Illustrator 18.0.0, SVG Export Plug-In . SVG Version: 6.00 Build 0)  -->
<!DOCTYPE svg PUBLIC "-//W3C//DTD SVG 1.1//EN" "http://www.w3.org/Graphics/SVG/1.1/DTD/svg11.dtd">
<svg version="1.1" id="Layer_1" xmlns="http://www.w3.org/2000/svg" xmlns:xlink="http://www.w3.org/1999/xlink" x="0px" y="0px"
	 width="39px" height="26px" viewBox="0 0 39 26" style="enable-background:new 0 0 39 26;" xml:space="preserve">
<g>
	<g>
		<path style="fill:#F3F4F4;" d="M1.9502,25.5C1.1504,25.5,0.5,24.8496,0.5,24.0498V1.9502C0.5,1.1504,1.1504,0.5,1.9502,0.5
			h35.0996C37.8496,0.5,38.5,1.1504,38.5,1.9502v22.0996c0,0.7998-0.6504,1.4502-1.4502,1.4502H1.9502z"/>
		<path style="fill:#DADBD9;" d="M37.0501,1c0.5238,0,0.95,0.4262,0.95,0.95v22.1c0,0.5238-0.4262,0.95-0.95,0.95H1.95
			C1.4262,25,1,24.5738,1,24.05V1.95C1,1.4262,1.4262,1,1.95,1H37.0501 M37.0501,0H1.95C0.8731,0,0,0.873,0,1.95v22.1
			C0,25.1269,0.8731,26,1.95,26h35.1001c1.077,0,1.95-0.8731,1.95-1.95V1.95C39.0001,0.873,38.127,0,37.0501,0L37.0501,0z"/>
	</g>
	<g>
		
			<ellipse transform="matrix(0.9189 -0.3945 0.3945 0.9189 -1.4323 10.8027)" style="fill:#E93F2E;" cx="25.5557" cy="8.8847" rx="2.5135" ry="1.7634"/>
		<path style="fill:#373379;" d="M21.8005,14.0701l-3.5633,0.0147l-0.3666,0.9239h0.3958c0,0,0.2199,0.0732,0.132,0.3079
			l-1.3634,3.4019h1.3487l0.528-1.2757h1.6277c0,0,0.7917-0.0147,1.2316-0.7772l0.733-1.8182
			C22.5041,14.8474,22.7389,14.2315,21.8005,14.0701z M20.9647,15.3752l-0.3813,0.8651c0,0-0.0732,0.2347-0.44,0.2347
			l-0.8652-0.0293l0.5575-1.3931h0.9384C20.7741,15.0526,21.0379,15.0526,20.9647,15.3752z"/>
		<path style="fill:#373379;" d="M26.3756,15.9617l0.7624-1.877h-2.8156c0,0-1.1288,0.1174-1.437,0.8506l-0.6012,1.437
			c0,0-0.2932,0.9384,0.5133,1.0118h3.6364l0.3813-0.9091C26.8153,16.475,26.1262,16.563,26.3756,15.9617z M24.8652,16.475h-0.9825
			c0,0-0.2052-0.0294-0.1028-0.3813c0,0,0.308-1.0558,0.7481-1.085l0.8652,0.0292L24.8652,16.475z"/>
		<path style="fill:#373379;" d="M31.2517,15.0614l-0.499-0.5351c-0.2086-0.1904,0.0183-0.3809,0.0183-0.3809l0.2449-0.1723
			l-0.6262-0.6711c-1.8772,0.9433-3.4097,1.9863-3.4097,1.9863c-0.2904,0.3537-0.0181,0.7618-0.0181,0.7618l1.1881,1.2334
			c0.1177,0.3357-0.2267,0.4081-0.2267,0.4081l-0.8437-0.0091l-0.4172,0.916c0.2177,0,1.5057-0.0181,1.5057-0.0181
			c1.1698-0.5894,1.4965-1.0611,1.4965-1.0611c0.2084-0.2903-0.0093-0.5895-0.0093-0.5895
			c-0.1544-0.1905,0.0999-0.2721,0.0999-0.2721c0.9702-0.5351,1.4239-0.9704,1.4239-0.9704
			C31.424,15.388,31.2517,15.0614,31.2517,15.0614z M29.8366,15.5512l-1.0156,0.644c-0.1542,0.0815-0.2449-0.0272-0.2449-0.0272
			l-0.4081-0.4625c-0.109-0.136,0.0633-0.3357,0.0633-0.3357l0.7802-0.4987c0.3447-0.1451,0.4807,0.009,0.4807,0.009l0.3444,0.3357
			C29.9547,15.3971,29.8366,15.5512,29.8366,15.5512z"/>
		<path style="fill:#373379;" d="M36.2932,15.176c0,0-1.0158-1.0067-1.2604-1.1065c0,0-0.5444-0.2449-1.0704,0.0091
			c0,0-1.596,0.7981-2.3399,1.2968c0,0-0.4623,0.3538-0.2902,0.8073c0,0,0.943,1.0975,1.2335,1.2334
			c0,0,0.3628,0.2541,0.9976,0.0635c0,0,1.8139-0.6982,2.721-1.5599C36.2844,15.9197,36.5562,15.6113,36.2932,15.176z
			 M34.7879,15.8471c-0.0093,0.0453-0.9162,0.526-0.9162,0.526c-0.2902,0.1542-0.4988,0.0182-0.4988,0.0182
			c-0.1451-0.0816-0.4353-0.4354-0.4353-0.4354c-0.1091-0.118,0.0089-0.2902,0.0089-0.2902
			c0.1814-0.1814,0.9527-0.5714,0.9527-0.5714c0.1814-0.1179,0.4712,0.0272,0.4712,0.0272l0.4176,0.3809
			C34.96,15.6657,34.7879,15.8471,34.7879,15.8471z"/>
		<path style="fill:#E93F2E;" d="M17.6735,14.0877h-1.3423c0,0-0.8527,2.0769-0.9342,2.358c0,0-0.1632,0.5078,0.0815,0.7073
			c0,0,0.2632,0.2631,0.5532,0.2631l0.9341-0.0091l0.3991-0.9251h-0.2991c0,0-0.3446-0.0726-0.1997-0.3991L17.6735,14.0877z"/>
		<path style="fill:#E93F2E;" d="M17.0568,12.7454c0,0,0.4988-0.1634,0.78,0.0272c0,0,0.3628,0.2176,0.0726,0.6077
			c0,0-0.2269,0.3808-0.8525,0.39c0,0-0.5262,0.0634-0.5625-0.3719C16.4943,13.3983,16.4671,12.9539,17.0568,12.7454z"/>
		<path style="fill:#E93F2E;" d="M15.3153,14.2962c0,0-0.1813-0.1995-0.6348-0.2359l-3.4193,0.0092l-0.3537,0.9432h0.2902
			c0,0,0.3174,0,0.136,0.4625l-1.2698,3.2469l1.3332,0.0092l0.4898-1.3333l1.7323,0.0091c0,0,0.4988,0.0544,0.9523-0.4988
			c0,0,0.6894-1.0974,0.8707-1.9227C15.4423,14.9855,15.6147,14.5321,15.3153,14.2962z M13.9277,15.3935
			c0,0.1815-0.3446,0.8345-0.3446,0.8345c-0.1722,0.2358-0.4535,0.2358-0.4535,0.2358H12.268l0.5805-1.4058h0.8979
			C14.0547,15.0672,13.9277,15.3935,13.9277,15.3935z"/>
		<path style="fill:#E93F2E;" d="M10.1184,15.9287l0.7529-1.8592l-2.7028-0.0092c-0.4081,0-0.8616,0.2087-0.8616,0.2087
			c-0.526,0.254-0.644,0.6166-0.644,0.6166c-0.1994,0.2994-0.6076,1.4512-0.6076,1.4512c-0.2358,0.5714,0,0.7709,0,0.7709
			c0.2267,0.3174,0.6621,0.3084,0.6621,0.3084l3.4645,0.0091l0.3809-0.916l-0.4263-0.0726
			C9.928,16.3369,10.1184,15.9287,10.1184,15.9287z M8.5948,16.4457l-0.8979,0.0181c0,0-0.3265-0.018-0.1814-0.4444
			c0,0,0.1632-0.5714,0.3446-0.7619c0,0,0.1178-0.2176,0.4716-0.2176l0.789,0.0181L8.5948,16.4457z"/>
		<path style="fill:#E93F2E;" d="M6.5813,14.0786L6.1822,15.04h-1.061c0,0-0.2903-0.0544-0.4717,0.3536l-0.789,2.0135L2.5,17.4252
			l1.3241-3.3557L6.5813,14.0786z"/>
		<path style="fill:#373379;" d="M25.1649,6.3966c0,0-1.3151,0.4444-1.7595,0.9614c0,0-0.7528,0.6711-0.9978,1.7323
			c0,0-0.1175,0.9976,0.372,1.4874c0,0,0.4535,0.5805,0.8981,0.7347c0,0,0.6347,0.263,1.5777,0.1724
			c0,0,1.5783-0.1996,2.4036-1.1066c0,0-0.3991,0.8435-1.6686,1.7051c0,0-0.8709,0.6348-2.2678,0.9522
			c0,0-1.2788,0.3356-2.3943,0.0544c0,0-1.1425-0.2267-1.6778-0.9069c0,0-0.5804-0.5714-0.5895-1.3876
			c0,0-0.0726-0.916,0.6802-1.9499c0,0,0.7709-0.9433,1.542-1.3968c0,0,1.0069-0.5714,1.7683-0.798
			C23.0515,6.6507,24.0768,6.324,25.1649,6.3966z"/>
		<path style="fill:none;" d="M30.4356,19.4727c0,0,0.0621-0.0226,0.0675,0.056c0,0-0.0111,0.1236-0.0675,0.0731
			C30.4356,19.6018,30.3461,19.467,30.4356,19.4727z"/>
	</g>
</g>
</svg>
