<?xml version="1.0" encoding="utf-8"?>
<!-- Generator: Adobe Illustrator 18.0.0, SVG Export Plug-In . SVG Version: 6.00 Build 0)  -->
<!DOCTYPE svg PUBLIC "-//W3C//DTD SVG 1.1//EN" "http://www.w3.org/Graphics/SVG/1.1/DTD/svg11.dtd">
<svg version="1.1" id="Layer_1" xmlns="http://www.w3.org/2000/svg" xmlns:xlink="http://www.w3.org/1999/xlink" x="0px" y="0px"
	 width="39px" height="26px" viewBox="0 0 39 26" style="enable-background:new 0 0 39 26;" xml:space="preserve">
<g>
	<g>
		<path style="fill:#F3F4F4;" d="M1.9502,25.5C1.1504,25.5,0.5,24.8496,0.5,24.0498V1.9502C0.5,1.1504,1.1504,0.5,1.9502,0.5
			h35.0996C37.8496,0.5,38.5,1.1504,38.5,1.9502v22.0996c0,0.7998-0.6504,1.4502-1.4502,1.4502H1.9502z"/>
		<path style="fill:#DADBD9;" d="M37.0501,1c0.5238,0,0.95,0.4262,0.95,0.95v22.1c0,0.5238-0.4262,0.95-0.95,0.95H1.95
			C1.4262,25,1,24.5738,1,24.05V1.95C1,1.4262,1.4262,1,1.95,1H37.0501 M37.0501,0H1.95C0.8731,0,0,0.873,0,1.95v22.1
			C0,25.1269,0.8731,26,1.95,26h35.1001c1.077,0,1.95-0.8731,1.95-1.95V1.95C39.0001,0.873,38.127,0,37.0501,0L37.0501,0z"/>
	</g>
	<g>
		<circle style="fill:#FDD306;" cx="19.5" cy="13" r="10"/>
		<path style="fill:#FFE87C;" d="M22.929,11.5954c0.02,0.009,0.0405,0.0103,0.0615,0.004c0,0.1086,0,0.2172,0,0.3257
			C22.9133,11.8258,22.9184,11.7111,22.929,11.5954z"/>
		<path style="fill:#006C4A;" d="M21.6936,11.3916c-0.0066,0.0804-0.0132,0.1609-0.0235,0.2861
			c-0.0696-0.151-0.055-0.2471,0.0168-0.337C21.7003,11.3563,21.7026,11.3732,21.6936,11.3916z"/>
		<path style="fill:#FEDB14;" d="M19.1469,22.8697c0.2606-0.1002,0.5212-0.1003,0.7818,0
			C19.668,22.8697,19.4074,22.8697,19.1469,22.8697z"/>
		<path style="fill:#017148;" d="M10.9219,11.9898c0.6063-3.7235,2.6881-6.1795,6.296-7.3197
			c0.2669-0.0844,0.5389-0.1638,0.8241-0.1679c0.023,0.0248,0.0593,0.0207,0.0852,0.0393
			c-0.0027-0.0139-0.0127-0.0296-0.0299-0.0468c0.9111-0.2014,1.826-0.1619,2.7414-0.0383
			c0.0284,0.0038,0.0497,0.0606,0.0743,0.0927c0.2351,0.0409,0.4557,0.2099,0.7102,0.0808
			c1.3153,0.2845,2.4589,0.9104,3.4853,1.7637c0.2979,0.2477,0.5936,0.501,0.8247,0.8176c0.0025,0.1956-0.1427,0.0895-0.2543,0.119
			c0.1779,0.1747,0.3815,0.3225,0.3883,0.5365c0.0474,0.0831,0.0613,0.0563,0.0592,0.0536
			c-0.1265-0.1561-0.2079-0.3108,0.0552-0.4162c0.2926,0.2755,0.4889,0.6229,0.7127,0.95c0.0618,0.0903,0.0669,0.1647-0.0006,0.2608
			c-0.4136,0.5892-0.821,1.1828-1.2304,1.7749c-0.3056-0.09-0.0278-0.3233-0.1241-0.4647c0.0969,0.1433-0.1835,0.3758,0.1209,0.4701
			c-0.4494,0.7167-0.9287,1.4131-1.423,2.0994c-0.169-0.0558-0.1355-0.2005-0.1378-0.3248
			c-0.0098-0.539,0.0131-1.0782-0.0124-1.6171c-0.0129-0.0374-0.033-0.0705-0.0603-0.0992
			c-0.3851,0.0043-0.7701,0.0086-1.1552,0.0129c-0.0659,0.0609-0.0427,0.1412-0.0427,0.214c-0.0013,1.611-0.0014,3.222,0.0003,4.833
			c0.0001,0.071-0.0299,0.1541,0.0505,0.2075c0.3617-0.0001,0.7235-0.0001,1.0852-0.0002c0.0187-0.0246,0.0374-0.0491,0.0564-0.0738
			c0.0164-0.0281,0.0286-0.0574,0.0361-0.0891c0.0302-0.5113-0.0206-1.0237,0.0273-1.5342c0.0041-0.0167,0.0082-0.0333,0.0124-0.05
			c0.1337-0.1659,0.2675-0.3318,0.4252-0.5274c0.4408,0.7832,0.862,1.5315,1.2832,2.2798c0.4133,0.0914,0.8321,0.0161,1.2476,0.0401
			c0.082,0.0047,0.1906-0.0299,0.1863,0.1091c-0.0052,0.1658,0.2546,0.2732,0.0993,0.4698
			c-0.0515,0.0653-0.1063,0.0625-0.1718,0.0153c0.0799,0.1404,0.1913-0.0617,0.2718,0.0316
			c-0.4353,1.0853-1.1172,1.9997-1.956,2.8023c-0.6926,0.6627-1.4728,1.2038-2.3518,1.5871c-0.651,0.2839-1.312,0.5512-2.0305,0.622
			c-0.0188-0.0215-0.0412-0.0378-0.0674-0.0491c-0.1058-0.0103-0.1727-0.076-0.2381-0.1533
			c-0.0548-0.0648-0.1204-0.1366-0.2173-0.0535c-0.0529,0.0514-0.1096,0.0924-0.1897,0.0684
			c-0.129-0.1133-0.1662,0.038-0.2404,0.0833c-0.4047,0.1257-0.7848-0.0054-1.0514-0.0528
			c0.2756,0.0427,0.6627,0.1985,1.0751,0.0373c0.0419-0.0609,0.0863-0.1177,0.173-0.1043c0.1274,0.114,0.1975-0.0187,0.2876-0.0669
			c0.1239,0.014,0.1881,0.0867,0.2049,0.2066c-0.0048,0.0314-0.0167,0.0598-0.0353,0.0853
			c-0.0256,0.0182-0.0542,0.0281-0.0856,0.0294c-0.118,0.0253-0.2386,0.0322-0.3581,0.0466
			c-0.0531,0.025-0.1178,0.0076-0.1676,0.0451c-0.1211,0.0041-0.2422,0.0082-0.3633,0.0124
			c-0.1927,0.0419-0.3854,0.0417-0.5782,0.0001c-0.2804,0.0117-0.5606,0.0194-0.8339-0.0632
			c0.0207-0.0437,0.0603-0.0382,0.098-0.0378c-0.0504-0.0002-0.1037-0.0136-0.1445,0.031c-0.9946-0.089-1.9219-0.4035-2.8019-0.8602
			c-0.8322-0.4319-1.594-0.9632-2.2245-1.6671c0.0246-0.2748-0.0845-0.4261-0.377-0.4079
			c-1.0514-1.2022-1.7108-2.5881-1.9539-4.1691c0.0546-0.0994,0.0546-0.0994-0.0142-0.1149
			c-0.1549-0.5827-0.1082-1.1803-0.1306-1.7728C10.8095,12.3733,10.852,12.1802,10.9219,11.9898z"/>
		<path style="fill:#017148;" d="M26.8276,15.1855c-0.1933-0.3269-0.3866-0.6538-0.5799-0.9808
			c-0.0278-0.1981,0.0039-0.3968,0.0008-0.666c-0.0692,0.1649-0.0616,0.3077-0.1999,0.3489
			c-0.1973-0.3179-0.3878-0.6403-0.5952-0.9514c-0.0768-0.1152-0.0551-0.1868,0.0226-0.2826
			c0.3522-0.4345,0.6986-0.8736,1.0471-1.311c0.1315-0.0309,0.1477,0.1033,0.2429,0.1701c0.0317-0.0876-0.006-0.1696,0.0028-0.2466
			c0.0075-0.0661,0.0243-0.1276,0.0739-0.1752c0.0406-0.0391,0.104-0.0809,0.1441-0.0571c0.2887,0.1709,0.5625-0.2949,0.8486-0.0157
			c0.0716,0.2093-0.2466,0.196-0.2209,0.3623c0.0045-0.1583,0.268-0.1709,0.2435-0.3644c0.0256-0.0211,0.0518-0.022,0.0787-0.0026
			c-0.0035,0.2485,0.1807,0.4619,0.1347,0.7184c-0.0432,0.0449-0.0255,0.1043-0.0374,0.1566
			c0.0084-0.0379,0.0046-0.0809,0.0441-0.1058c0.1977,1.0785,0.1381,2.146-0.1377,3.2042
			c-0.1135,0.1068-0.2343,0.1185-0.3629,0.0276c-0.012-0.0132-0.0265-0.0233-0.042-0.032c0.0182,0.0082,0.0332,0.0208,0.0458,0.039
			c0.011,0.3049-0.212,0.4523-0.4832,0.3175C27.0054,15.2928,26.94,15.1978,26.8276,15.1855z"/>
		<path style="fill:#057146;" d="M26.8276,15.1855c0.0937-0.1097,0.1654-0.0553,0.2645,0.0106
			c0.2525,0.1679,0.3759,0.1052,0.4587-0.2091c0.1298-0.0068,0.2597-0.0415,0.3895-0.0002
			c-0.0886,0.5279-0.2599,1.0282-0.5019,1.505c-0.0441,0.0302-0.0929,0.0553-0.1314,0.0913
			c-0.1675,0.157-0.183-0.1295-0.3139-0.1091c-0.0338,0.0053-0.0324-0.0903,0.0099-0.1338
			c0.1276-0.1314,0.1854,0.0471,0.2963,0.0898c-0.0007-0.2206-0.1464-0.2835-0.2908-0.3523
			c0.0535-0.0403,0.1025-0.0772,0.165-0.1242c-0.0425-0.0228-0.0687-0.0492-0.0944-0.0487
			c-0.4106,0.0084-0.8224-0.043-1.2318,0.0298c-0.1708,0.0304-0.1573-0.0222-0.0421-0.1086
			c0.396,0.0023,0.7919,0.0024,1.1879,0.0079c0.1484,0.0021,0.2042-0.0336,0.1102-0.1803
			C27.0058,15.5012,26.9191,15.3418,26.8276,15.1855z"/>
		<path style="fill:#077146;" d="M27.9366,11.0133c-0.02-0.0001-0.04-0.0002-0.06-0.0003c-0.0218,0.0438-0.0436,0.0438-0.0653,0
			c-0.1273-0.0019-0.2473,0.022-0.345,0.1101c-0.12,0.1083-0.2364,0.1779-0.3856,0.0371c-0.0405-0.0382-0.1243-0.0716-0.1779-0.0187
			c-0.0548,0.054-0.0551,0.1349-0.0279,0.2081c0.0063,0.0168,0.0367,0.0232,0.0484,0.0397
			c0.0816,0.1148,0.0089,0.2258-0.0167,0.3352c-0.0097,0.0416-0.0796,0.0622-0.1075,0.0315
			c-0.0778-0.0855-0.2513-0.1043-0.2042-0.2824c0.0159-0.0601-0.0247-0.0999-0.0718-0.131c0.3511-0.4601,0.7021-0.9202,1.083-1.4194
			C27.7675,10.3108,27.889,10.6501,27.9366,11.0133z"/>
		<path style="fill:#037146;" d="M26.1815,7.5041c-0.0809,0.1524-0.07,0.1429,0.0559,0.2869
			c0.0572,0.0654,0.1081,0.1794,0.0528,0.2713c-0.0489,0.0813-0.1625,0.0646-0.1809-0.0128
			c-0.087-0.3644-0.512-0.4473-0.6321-0.7814c-0.0207-0.0575-0.0908-0.1085-0.0359-0.1678
			c0.0605-0.0654,0.1128,0.0213,0.1703,0.0319c0.109,0.0201,0.1902,0.1536,0.3213,0.0789
			C26.0362,7.2916,26.1289,7.3809,26.1815,7.5041z"/>
		<path style="fill:#0B7245;" d="M26.0485,13.8876c0.0224-0.1371,0.0382-0.2756,0.0694-0.4107
			c0.0237-0.1028,0.111-0.1282,0.2038-0.1112c0.1065,0.0195,0.0968,0.1057,0.0745,0.1779
			c-0.0671,0.2167,0.0467,0.4739-0.1485,0.6611C26.1813,14.099,26.1149,13.9933,26.0485,13.8876z"/>
		<path style="fill:#097245;" d="M12.9649,18.6326c0.12-0.0341,0.1327-0.2836,0.2246-0.2147
			c0.1135,0.0851,0.2578,0.1643,0.3376,0.2788c0.1346,0.193-0.1617,0.2051-0.1852,0.3438
			C13.1924,18.9266,13.0659,18.7914,12.9649,18.6326z"/>
		<path style="fill:#0C7246;" d="M21.6231,4.6298c-0.0286,0.0914-0.0572,0.1828-0.08,0.256
			c-0.2319-0.0866-0.499-0.0933-0.6302-0.3368C21.1668,4.4254,21.3903,4.5684,21.6231,4.6298z"/>
		<path style="fill:#036C4A;" d="M24.1021,10.556c0.1352,0.4636,0.027,0.9377,0.0601,1.4057
			c0.015,0.2123-0.0352,0.4318,0.0748,0.6328c-0.0262,0.0562-0.0523,0.1124-0.0785,0.1686
			c-0.0506,0.0104-0.0891-0.0107-0.0882-0.0606C24.0839,11.9871,24.0202,11.2705,24.1021,10.556z"/>
		<path style="fill:#82A53F;" d="M24.1021,10.556c-0.0002,0.6342-0.0021,1.2683,0.0011,1.9025
			c0.0005,0.1028-0.0381,0.217,0.0552,0.3047c-0.1975,0.0636-0.1148-0.1037-0.1156-0.1613
			c-0.0075-0.5637-0.0036-1.1275-0.0046-1.6912c-0.0002-0.119-0.0076-0.238-0.0117-0.3571
			C24.0517,10.5544,24.0769,10.5552,24.1021,10.556z"/>
		<path style="fill:#FDD901;" d="M24.0234,15.8248l-0.0298,0.0047l-0.029-0.0086c0.0014-0.5126,0.0027-1.0252,0.0041-1.5378
			c0.0002-0.0775,0.0156-0.149,0.078-0.2024C24.1166,14.663,24.1608,15.2451,24.0234,15.8248z"/>
		<path style="fill:#9CAD3B;" d="M24.0234,15.8248c0.0077-0.5814,0.0155-1.1628,0.0232-1.7442
			c0.0166-0.0031,0.0333-0.0054,0.0502-0.0069l0.0299,0.0065c-0.0167,0.5839,0.0537,1.1695-0.0364,1.7519
			C24.068,15.8296,24.0457,15.8272,24.0234,15.8248z"/>
		<path style="fill:#FCD803;" d="M10.9219,11.9898c-0.0186,0.1953-0.0371,0.3907-0.0557,0.586
			C10.8015,12.3725,10.7194,12.1676,10.9219,11.9898z"/>
		<path style="fill:#016E4B;" d="M10.9969,14.3486c0.0056-0.061,0.0111-0.1221,0.0167-0.1831
			c0.0252,0.1017,0.1943,0.21-0.0025,0.298C11.0063,14.4252,11.0016,14.3869,10.9969,14.3486z"/>
		<path style="fill:#0F7246;" d="M20.1901,21.6253c0.0449-0.0206,0.0898-0.0411,0.1347-0.0617
			c0.1122-0.04,0.2237-0.0551,0.3329,0.0093C20.5078,21.6433,20.3488,21.633,20.1901,21.6253z"/>
		<path style="fill:#006D49;" d="M18.0972,4.4946c0.0786,0.0061,0.1572,0.0122,0.2832,0.0221
			c-0.1521,0.0679-0.2481,0.0537-0.3385-0.0145C18.0589,4.489,18.0773,4.4865,18.0972,4.4946z"/>
		<path style="fill:#006C4B;" d="M20.6578,21.5729c-0.111-0.0031-0.222-0.0062-0.333-0.0093
			c0.1163-0.0969,0.2556-0.0502,0.3855-0.062c0.0441,0.0233,0.0432,0.0449-0.0025,0.0647l-0.0239,0.0119L20.6578,21.5729z"/>
		<path style="fill:#006C4B;" d="M21.1011,21.436c-0.0003,0.0224-0.0006,0.0448-0.0009,0.0672l-0.0165,0.0117l-0.019-0.0068
			c-0.0969,0.0306-0.1934,0.048-0.2881-0.0073c-0.0003-0.0213-0.0006-0.0425-0.0009-0.0638
			C20.8839,21.35,20.9925,21.388,21.1011,21.436z"/>
		<path style="fill:#016B4C;" d="M18.3683,21.5678c0.0692-0.0589,0.1416-0.0939,0.2558-0.0181
			c-0.0873,0.0104-0.1484,0.0176-0.2094,0.0249L18.3903,21.58L18.3683,21.5678z"/>
		<path style="fill:#0F7246;" d="M20.7765,21.5007c0.096,0.0025,0.1919,0.0049,0.288,0.0073
			c-0.1104,0.0708-0.2338,0.0628-0.3567,0.0583c0.0013-0.0215,0.0022-0.0431,0.0025-0.0647
			C20.7324,21.5013,20.7545,21.501,20.7765,21.5007z"/>
		<path style="fill:#FCD207;" d="M20.3268,14.6455c-0.3858-0.7853-0.8501-1.53-1.2065-2.3307
			c-0.0147-0.0329-0.0664-0.0493-0.1008-0.0734c-0.0922,0.2992,0.0123,0.6108-0.0578,0.9119
			c-0.0233,0.7764-0.002,1.5526-0.0119,2.3285c-0.0016,0.1249,0.0387,0.2615-0.0669,0.3694
			c-0.2589,0.0334-0.5191,0.0002-0.7777,0.0171c-0.2152,0.014-0.2927-0.0913-0.2919-0.2889c0.0005-0.119-0.0017-0.238-0.0017-0.357
			c0.0001-1.4283-0.0016-2.8566,0.0009-4.2849c0.0008-0.4405,0.0381-0.4743,0.4865-0.4775c0.238-0.0017,0.4761-0.0003,0.7141,0.0004
			c0.1365,0.0004,0.2596,0.0226,0.33,0.1581c0.3433,0.6673,0.715,1.3187,1.1081,1.9578c0.0975,0.0246,0.1644,0.0862,0.2104,0.1731
			c0.0702,0.1523,0.131,0.3098,0.2389,0.4418c0.116,0.1848,0.1801,0.3899,0.2126,0.5073c-0.0446-0.1565-0.1223-0.4034-0.0585-0.6666
			c0.0432-0.7052,0.0017-1.4098,0.0146-2.1139c0.0072-0.3914,0.0655-0.4495,0.458-0.458c0.8117-0.0176,0.8064-0.0176,0.8129,0.7715
			c0.012,1.4427-0.0336,2.8858,0.0241,4.3283c0.0083,0.2064-0.0625,0.3326-0.3022,0.3085
			c-0.3607-0.0363-0.7286,0.0605-1.0856-0.0556c-0.1542-0.3308-0.328-0.6506-0.5303-0.9546
			C20.3329,14.8285,20.3496,14.7259,20.3268,14.6455z"/>
		<path style="fill:#FCD208;" d="M12.6979,10.5612c0.971-0.0674,0.9696-0.0673,0.9714,0.8826
			c0.0021,1.1148,0.0069,2.2297,0.0105,3.3445c0.0314,0.0253,0.0673,0.038,0.1077,0.0382c0.4654-0.0048,0.9308-0.0036,1.3961-0.0005
			c0.126,0.0008,0.2652-0.0262,0.3552,0.1049c0.0493,0.2364,0.0186,0.4751,0.0218,0.7127c0.0018,0.1354-0.0442,0.2263-0.2065,0.2239
			c-0.931-0.014-1.8623,0.0236-2.7931-0.0203c-0.0852-0.0706-0.0889-0.1696-0.0892-0.2675c-0.0042-1.56-0.0026-3.12-0.0017-4.68
			C12.4702,10.7326,12.5082,10.5975,12.6979,10.5612z"/>
		<path style="fill:#EC2826;" d="M16.0866,9.513c-0.4467-0.6296-0.066-1.2639,0.5188-1.3065
			c0.3713-0.0271,0.6587,0.1523,0.7928,0.488c0.126,0.3154,0.0432,0.6444-0.224,0.879c-0.0562,0.0493-0.1191,0.091-0.1789,0.1362
			C16.6756,9.9893,16.2724,9.9021,16.0866,9.513z"/>
		<path style="fill:#037145;" d="M19.3431,10.6183c-0.4415-0.151-0.8959-0.0517-1.3438-0.0589
			c-0.1798-0.0029-0.1103,0.1825-0.1107,0.2842c-0.0051,1.4273-0.0035,2.8546-0.0036,4.2819c0,0.709,0,0.7094,0.7094,0.7067
			c0.0971-0.0004,0.1941-0.0076,0.2911-0.0117c0.0735-0.4192,0.0166-0.8418,0.0326-1.2626
			c0.0185-0.4866-0.0325-0.9746,0.0282-1.4604c0.0026-0.2855,0.0051-0.5709,0.0088-0.8564c0.0001-0.008,0.0154-0.0236,0.0199-0.0223
			c0.0156,0.0043,0.0296,0.0145,0.0443,0.0225c-0.0008,1.0939-0.0119,2.1879,0.0042,3.2815
			c0.0045,0.3079-0.1024,0.3975-0.3941,0.3818c-0.3014-0.0163-0.6052,0.0089-0.9078,0.0188
			c-0.1215,0.004-0.2372-0.0048-0.3338-0.0896c-0.0158-0.0145-0.0316-0.029-0.0474-0.0435
			c-0.0687-0.1202-0.0491-0.2528-0.0493-0.3812c-0.0017-1.4174-0.0021-2.8349,0.0005-4.2523
			c0.0003-0.1375-0.0306-0.2839,0.0697-0.4054c0.207-0.078,0.2154,0.0664,0.2192,0.2027c0.0071,0.2495,0.0024,0.4991,0.0025,0.7487
			c0.0002,1.1069,0.0002,2.2138,0.0001,3.0589c0.0258-1.1413-0.0403-2.5449,0.0292-3.9476
			c0.0015-0.0312,0.0345-0.0502,0.0671-0.0577c0.0326,0.0086,0.0698,0.0262,0.0711,0.0576c0.0621,1.4743,0.0116,2.9493,0.028,4.4154
			c-0.0036-1.5666,0.0085-3.1249-0.0079-4.6836c0.0244-0.0585,0.0658-0.0994,0.1241-0.1236
			c0.4485,0.0056,0.897,0.0046,1.3455,0.0041c0.0391,0.0139,0.0731,0.0357,0.1019,0.0656
			C19.3426,10.5341,19.3428,10.5762,19.3431,10.6183z"/>
		<path style="fill:#037145;" d="M12.5679,15.8206c0.908,0.004,1.816,0.0039,2.7239,0.0153
			c0.1822,0.0023,0.2186-0.0764,0.2107-0.2329c-0.0114-0.2264-0.0097-0.4535-0.0136-0.6803
			c-0.0162-0.0209-0.0339-0.0405-0.0531-0.0589c-0.022-0.0167-0.0464-0.0275-0.0733-0.0333
			c-0.1286-0.0342-0.2905,0.0547-0.3848-0.1046c0.4922-0.1717,0.593-0.3095,0.5846-0.8606
			c-0.016-1.0509,0.0417-2.1024-0.0293-3.1531c-0.0095-0.1404,0.035-0.2844,0.1225-0.4161c0,1.3313,0,2.6626,0,3.994
			c0.0128,0.0002,0.0257,0.0005,0.0385,0.0007c0-0.2844,0-0.5688,0-0.8531c0-0.77-0.0011-1.5399,0.0011-2.3099
			c0.0004-0.1275-0.0291-0.2626,0.0641-0.3754c0.013,0.0146,0.0259,0.0293,0.0389,0.0439c0.0598,0.6494,0.0143,1.3003,0.0247,1.9505
			c0.0078,0.4871,0.0014,0.9745,0.0016,1.4617c-0.0003-1.0202-0.0006-2.0404,0.0006-3.0607
			c0.0001-0.1187-0.0142-0.2391,0.0236-0.3561c0.0223-0.0432,0.0561-0.0569,0.102-0.0417c0.1248,0.0945,0.0996,0.2332,0.1,0.3598
			c0.003,1.1067,0.0029,2.2135,0,3.3202c-0.0003,0.1265,0.0264,0.2652-0.0964,0.3612c-0.1937-0.1693-0.1971,0.1359-0.3251,0.1304
			c-0.0932,0.2983,0.0264,0.6115-0.0639,0.91c-0.0704,0.0631-0.1567,0.0673-0.2446,0.0673c-0.8792-0.0002-1.7585-0.0001-2.6377,0
			c-0.0878,0-0.1746-0.0022-0.242-0.0712c0.0166-0.0182,0.037-0.0294,0.0613-0.0335
			C12.5264,15.7974,12.5483,15.8062,12.5679,15.8206z"/>
		<path style="fill:#037145;" d="M20.9766,15.8126c0.3354,0.0068,0.6717,0.0016,1.006,0.0245
			c0.2309,0.0158,0.2912-0.0656,0.2895-0.2918c-0.01-1.3764-0.0051-2.753-0.0052-4.1295c0-0.2168-0.0095-0.4341,0.0027-0.6502
			c0.0099-0.1742-0.0616-0.2146-0.2254-0.222c-0.8801-0.0398-0.8797-0.0442-0.8799,0.8308
			c-0.0001,0.5958-0.0006,1.1917-0.001,1.7875c-0.1209,0.0682-0.2335,0.0409-0.3425-0.0296
			c-0.0478-0.0598-0.0753-0.1302-0.1037-0.2002c-0.0611-0.2262,0.2086-0.2387,0.2555-0.396
			c0.0763-0.0883,0.0765-0.1863,0.0729-0.3001c-0.0176-0.5594-0.0112-1.1194-0.0095-1.6792
			c-0.0497-0.2039,0.0784-0.0664,0.1333-0.0694c0.2581-0.1022,0.5269-0.0737,0.7923-0.0548c0.0844,0.006,0.1652,0.0487,0.247-0.0062
			c0.0217-0.0217,0.0434-0.0435,0.0652-0.0652c0.1817,0.0494,0.0924,0.1988,0.0928,0.296c0.007,1.4594,0.0041,2.9189,0.0059,4.3784
			c0.0002,0.1712-0.0214,0.3436,0.0523,0.5112c0.0474,0.1077,0.0144,0.2125-0.0858,0.2868
			c-0.0088,0.0193-0.0182,0.0557-0.0263,0.0554C21.8668,15.8747,21.4132,15.9864,20.9766,15.8126z"/>
		<path style="fill:#037047;" d="M22.3391,15.8339c0-1.6884,0.0007-3.3769-0.0014-5.0653
			c-0.0002-0.1375,0.0349-0.2837-0.0638-0.4071c0.0301-0.0294,0.0567-0.0781,0.0911-0.0845c0.09-0.0168,0.0664,0.0528,0.0645,0.1051
			c-0.0574,1.5506-0.0104,3.1019-0.0237,4.6528c-0.0012,0.1377-0.0354,0.2844,0.0635,0.4082
			c0.0625-0.1116,0.0308-0.233,0.031-0.3493c0.0026-1.3503-0.0006-2.7007,0.0063-4.051c0.0005-0.0958-0.0884-0.2436,0.0931-0.2902
			l0,0c0.0519,0.079,0.0313,0.1681,0.0317,0.2529c0.0064,1.4927-0.0093,2.9854,0.0075,4.4781
			c0.0008,0.0739,0.0057,0.1525-0.0392,0.2201C22.5116,15.7447,22.563,16.0644,22.3391,15.8339z"/>
		<path style="fill:#037145;" d="M17.3879,15.8339c-0.0397,0.1274-0.1393,0.0656-0.2169,0.0668
			c-0.3663,0.0055-0.7328,0.0057-1.0991,0.0142c-0.1708,0.004-0.1911-0.0373-0.0577-0.1463
			c0.0549-0.0133,0.109-0.0302,0.1649-0.0391c0.1695-0.0488,0.344-0.0352,0.517-0.0409c0.3623-0.0119,0.4126-0.0556,0.4148-0.4215
			c0.0064-1.1057,0.0019-2.2115,0.0025-3.3173c0.0001-0.2602,0.0026-0.5204-0.001-0.7805c-0.0059-0.4233-0.0489-0.4649-0.4696-0.467
			c-0.0542-0.0003-0.1083,0.0032-0.1621,0.0073c-0.1011,0.007-0.1978-0.0222-0.2958-0.0373
			c-0.0296,0.0023-0.0594,0.0054-0.0885,0.0114c-0.0674,0.0269-0.1393,0.0406-0.2065,0.0687l-0.0003,0.0001
			c-0.0434,0.0385-0.0869,0.0385-0.1303,0c-0.0217-0.3388,0.1504-0.5418,0.456-0.6515c-0.0728,0.1548,0.2465,0.1528,0.13,0.3251
			c0.252,0.016,0.5041,0.0012,0.7557-0.0073c0.11-0.0037,0.2121-0.022,0.2809,0.0903c0.0159,0.0353,0.023,0.0712,0.0226,0.1097
			c-0.0219,0.1061-0.0513,0.208-0.0511,0.3188c0.0029,1.5693,0.0018,3.1386,0.0023,4.708c0,0.0641-0.0099,0.1307,0.032,0.188
			L17.3879,15.8339z"/>
		<path style="fill:#047144;" d="M13.87,14.4658l-0.0325,0l-0.0325,0c-0.0616-0.1118-0.0307-0.2332-0.0311-0.3496
			c-0.0028-1.0154-0.0025-2.0307-0.0002-3.0461c0.0002-0.1059-0.0274-0.2165,0.031-0.3174c0.0175-0.0464,0.035-0.0928,0.0719-0.1905
			c0.0787,0.3214,0.0573,0.5889,0.0579,0.8541c0.0019,0.868,0.0007,1.7361,0.0007,2.6041
			C13.9351,14.172,13.9473,14.3255,13.87,14.4658L13.87,14.4658z"/>
		<path style="fill:#057145;" d="M17.3299,10.5634c-0.0033-0.0246-0.0065-0.0493-0.0098-0.0739
			c-0.2763-0.0877-0.5681,0.0297-0.844-0.0635c0.256-0.1295,0.5427-0.079,0.813-0.1371c0.6418-0.138,1.2852,0.214,1.9337,0.0204
			c0.1425-0.0425,0.1914,0.1588,0.3478,0.1003c-0.0617,0.1713-0.158,0.0676-0.2282,0.0823
			c-0.024-0.0011-0.0479-0.0022-0.0719-0.0033c-0.4186-0.0658-0.8399-0.012-1.2592-0.0294c-0.2321-0.0672-0.3654,0.2391-0.6012,0.16
			C17.3808,10.6046,17.354,10.5859,17.3299,10.5634z"/>
		<path style="fill:#FDD901;" d="M12.5679,15.8206l-0.0267,0.0089l-0.0281-0.0025c-0.1007-0.0956-0.075-0.2213-0.0752-0.3379
			c-0.0018-1.5309-0.0017-3.0618-0.0002-4.5927c0.0001-0.1173-0.0215-0.2417,0.0716-0.3405
			c0.0628,0.0018,0.1257,0.0036,0.1885,0.0054c-0.1555,0.1158-0.1309,0.2843-0.1308,0.4458
			C12.5674,12.6116,12.5676,14.2161,12.5679,15.8206z"/>
		<path style="fill:#4F8F41;" d="M16.096,15.8295c-0.0272-0.0203-0.0544-0.0406-0.0817-0.061
			c0.0002-0.0882,0.0004-0.1764,0.0006-0.2646c-0.0354-0.0594-0.0271-0.1254-0.0273-0.1896
			c-0.0051-1.5338,0.0091-3.0676-0.0072-4.6014c-0.0006-0.0546,0.0089-0.1075,0.0376-0.1553
			c0.0244-0.0007,0.0488-0.0015,0.0732-0.0022c0.0813,0.0855,0.0901,0.1926,0.09,0.3023c-0.0006,1.5888,0.0074,3.1775-0.0041,4.7663
			c-0.0002,0.0327-0.0092,0.0641-0.0151,0.096C16.146,15.7601,16.124,15.7966,16.096,15.8295z"/>
		<path style="fill:#789F3F;" d="M12.5093,10.5558c0.0012,1.757,0.0025,3.5141,0.0038,5.2711
			c-0.0241,0.0003-0.0482,0.0006-0.0722,0.0009c0,0-0.0006,0.0056-0.0006,0.0056c-0.0527-0.0663-0.0353-0.1448-0.0353-0.2189
			c-0.0009-1.6118-0.0009-3.2235-0.0001-4.8353c0-0.0745-0.0146-0.1523,0.0306-0.2211
			C12.46,10.5574,12.4847,10.5566,12.5093,10.5558z"/>
		<path style="fill:#026B4C;" d="M12.4354,10.5582c0.0016,1.7584,0.0032,3.5168,0.0049,5.2752
			c-0.0831-0.0896-0.0681-0.2015-0.0682-0.3088c-0.0006-1.5518-0.0006-3.1036,0-4.6554
			C12.3721,10.7619,12.3568,10.6501,12.4354,10.5582z"/>
		<path style="fill:#037245;" d="M22.5996,10.7524c-0.0989,0.1234-0.0635,0.2698-0.0637,0.4073
			c-0.0024,1.3212,0.0008,2.6423-0.0057,3.9635c-0.0005,0.1045,0.0736,0.2362-0.0609,0.3198c0-1.6431,0-3.2862,0-5.0094
			C22.6335,10.5821,22.5853,10.6732,22.5996,10.7524z"/>
		<path style="fill:#006C4B;" d="M16.018,10.5577c-0.001,1.6488-0.002,3.2976-0.0031,4.9464
			c-0.1187-0.2292-0.0343-0.4757-0.0607-0.7128c0.0002-1.2216,0.001-2.4432-0.0006-3.6648
			c-0.0002-0.1271,0.029-0.2618-0.0637-0.3742C15.9326,10.6875,15.9753,10.6226,16.018,10.5577z"/>
		<path style="fill:#037245;" d="M22.5997,15.7035c0-1.6504,0-3.3008,0-4.9511c0.0986,0.1231,0.063,0.269,0.0638,0.4062
			c0.009,1.4252,0.0148,2.8504,0.0225,4.2757C22.6865,15.5346,22.6717,15.6276,22.5997,15.7035z"/>
		<path style="fill:#0D7045;" d="M16.0866,9.513c0.2667,0.2328,0.5699,0.297,0.9087,0.1967
			c0.0697,0.4168-0.297,0.2255-0.4542,0.3261c-0.1325-0.0658-0.2754-0.1171-0.3945-0.2019
			C16.041,9.7588,15.8803,9.6608,16.0866,9.513z"/>
		<path style="fill:#017049;" d="M13.8047,10.7526c0.0001,1.2377,0.0002,2.4754,0.0003,3.7131
			c-0.1127-0.032-0.0624-0.1257-0.0626-0.1896c-0.0035-1.0821-0.0025-2.1642-0.0023-3.2462
			C13.74,10.9326,13.7341,10.8336,13.8047,10.7526z"/>
		<path style="fill:#057145;" d="M20.3268,14.6455c0.0657,0.0563,0.0999,0.1303,0.1195,0.2125
			c-0.2035,0.0864-0.0321,0.2411-0.0684,0.3544c-0.0195,0.0611,0.0726,0.1676-0.0549,0.1828
			c-0.133,0.0159-0.0934-0.0936-0.0862-0.157c0.0284-0.2516-0.1154-0.4209-0.2556-0.6018
			c-0.0753-0.0972-0.1101-0.2259-0.1856-0.3888C20.0575,14.3286,19.9905,14.7629,20.3268,14.6455z"/>
		<path style="fill:#037145;" d="M25.66,10.4952c-0.1333,0.0672-0.2589,0.1017-0.2203-0.1212
			c0.0218-0.1263,0.0595-0.2405-0.0096-0.3674c-0.0569-0.1044,0.0402-0.1805,0.0975-0.2504
			c0.0171-0.0208,0.1012-0.0022,0.1457,0.018c0.138,0.0626,0.0084,0.1455,0.0039,0.216c-0.0105,0.1667-0.163,0.3276-0.0139,0.4997
			L25.66,10.4952z"/>
		<path style="fill:#0D7246;" d="M21.1006,12.7704c-0.0837,0.1048-0.3067-0.1338-0.3253,0.1319
			c-0.1157,0.0522-0.1158-0.1146-0.2068-0.1093c-0.0628-0.0595-0.1004-0.1326-0.1173-0.2168
			c0.0158-0.0141,0.0344-0.0425,0.0471-0.0401c0.2062,0.0396,0.3602-0.0982,0.5376-0.1548
			C21.1189,12.5008,21.0185,12.6507,21.1006,12.7704z"/>
		<path style="fill:#0F7246;" d="M20.1892,21.3713c-0.1637,0.1581-0.3292,0.1638-0.5573,0.104
			c-0.2964-0.0776-0.6173-0.063-0.9036-0.2456C19.2119,21.3207,19.6945,21.4492,20.1892,21.3713L20.1892,21.3713z"/>
		<path style="fill:#037145;" d="M11.7835,9.817c0.0923,0.2477-0.152,0.4539-0.0083,0.6561
			c-0.1415,0.0266-0.1932,0.2471-0.4274,0.1759C11.622,10.4383,11.5928,10.1137,11.7835,9.817z"/>
		<path style="fill:#006E48;" d="M21.1006,12.7704c-0.0991-0.1168-0.0529-0.2578-0.0647-0.3891
			c0-0.0218,0.0001-0.0437,0.0001-0.0655c-0.0493-0.5863-0.0605-1.1725,0.0002-1.7588l-0.0001,0.0001
			c0.1026,0.1338,0.0614,0.2903,0.0625,0.4373C21.103,11.5864,21.1005,12.1784,21.1006,12.7704z"/>
		<path style="fill:#037145;" d="M21.0362,10.557c-0.0001,0.5863-0.0001,1.1725-0.0002,1.7588
			c-0.1324-0.2782-0.0458-0.5732-0.0623-0.8599c-0.0179-0.3119,0.056-0.6403-0.1982-0.8989v0
			C20.8624,10.649,20.9493,10.5965,21.0362,10.557z"/>
		<path style="fill:#0D7245;" d="M22.7661,20.816c-0.1948,0.1368-0.4115,0.1342-0.6493,0.0733
			C22.3748,20.6423,22.5746,20.6282,22.7661,20.816z"/>
		<path style="fill:#729C3F;" d="M15.4982,14.7968c-0.0014,0.0227-0.0028,0.0454-0.0042,0.0681
			c-0.6066,0.0312-1.2131,0.057-1.8189-0.0127c-0.0037-0.0217-0.0022-0.0429,0.0047-0.0638
			c0.0218,0.0011,0.0433-0.0004,0.0647-0.0045C14.3293,14.7509,14.9141,14.7275,15.4982,14.7968z"/>
		<path style="fill:#006B4A;" d="M24.0903,15.832c0.0353-0.5835-0.0337-1.1691,0.0364-1.7519
			C24.1646,14.6652,24.2306,15.2508,24.0903,15.832z"/>
		<path style="fill:#006B4B;" d="M15.4982,14.7968c-0.5846-0.0043-1.1692-0.0086-1.7538-0.0129
			c0.4062-0.1245,0.8228-0.0254,1.2332-0.0579C15.1513,14.7489,15.3387,14.6707,15.4982,14.7968z"/>
		<path style="fill:#037145;" d="M21.1664,10.4268c0.2506-0.1228,0.547-0.0286,0.7967-0.1676
			c0.0296-0.0165,0.0925,0.0268,0.14,0.0424c-0.03,0.0416-0.06,0.0832-0.09,0.1247C21.7309,10.4796,21.4487,10.4789,21.1664,10.4268
			z"/>
		<path style="fill:#037145;" d="M13.87,14.4658c0.3645,0.1418,0.7494,0.0162,1.121,0.1418c-0.3424,0-0.6847,0.0013-1.0271-0.0009
			C13.8706,14.6061,13.8779,14.5285,13.87,14.4658L13.87,14.4658z"/>
		<path style="fill:#037145;" d="M12.8442,17.744c-0.0329,0.2232-0.1538,0.4644,0.311,0.4739
			c-0.2518,0.1126-0.3636,0.1008-0.405-0.0633C12.7166,18.0215,12.5974,17.8565,12.8442,17.744z"/>
		<path style="fill:#006C4B;" d="M16.4761,10.426c0.2806,0.0307,0.5708-0.0652,0.844,0.0635c-0.3959,0-0.7918,0-1.2242,0
			c0.0936-0.0885,0.1771-0.0521,0.2493-0.0634C16.3889,10.426,16.4325,10.426,16.4761,10.426z"/>
		<path style="fill:#006C4B;" d="M22.9702,10.4402c0.3391,0,0.6782,0,1.0173,0c0.0002,0.0105,0.0003,0.021,0.0005,0.0314
			c-0.3349,0-0.6698,0-1.0047,0C22.9789,10.4611,22.9746,10.4507,22.9702,10.4402z"/>
		<path style="fill:#037145;" d="M24.1524,5.9627c-0.1554,0.023-0.3178,0.0801-0.4267-0.0691
			c-0.0139-0.019,0.0141-0.1022,0.0347-0.1073C23.9315,5.7438,24.0076,5.9276,24.1524,5.9627z"/>
		<path style="fill:#006C4B;" d="M12.6125,10.4403c0.3174,0,0.6348,0,0.9523,0c0.0001,0.0105,0.0003,0.0211,0.0004,0.0316
			c-0.3136,0-0.6272,0-0.9408,0C12.6204,10.4614,12.6165,10.4508,12.6125,10.4403z"/>
		<path style="fill:#0F7245;" d="M16.1196,20.7081c-0.3309,0.0829-0.388-0.1727-0.5391-0.2826
			C15.8095,20.4216,15.9092,20.635,16.1196,20.7081z"/>
		<path style="fill:#037145;" d="M11.2811,12.7706c-0.0465,0.1662-0.0768,0.2742-0.1078,0.385
			C10.9572,12.9915,10.9576,12.9893,11.2811,12.7706z"/>
		<path style="fill:#006C4B;" d="M21.1664,10.4268c0.2822-0.0002,0.5645-0.0003,0.8467-0.0005
			c0.0652,0.0001,0.1304,0.0003,0.1956,0.0005c-0.3395,0.1383-0.6937,0.028-1.0393,0.061
			C21.1678,10.4674,21.1668,10.4471,21.1664,10.4268z"/>
		<path style="fill:#047145;" d="M15.6424,8.6011c0.2078,0.2122,0.1559,0.3312-0.1024,0.406
			C15.5278,8.8611,15.5999,8.7472,15.6424,8.6011z"/>
		<path style="fill:#016E49;" d="M15.5652,15.8317c0.0002-0.2986,0.0005-0.5972,0.0009-0.8958c0-0.0106-0.0017-0.0238,0.0036-0.0314
			c0.0351-0.0502,0.0452-0.0084,0.0594,0.0172C15.5989,15.2244,15.6963,15.5361,15.5652,15.8317z"/>
		<path style="fill:#0F7246;" d="M21.1011,21.436c-0.1085,0.0003-0.2169,0.0007-0.3254,0.001
			c-0.0136-0.1168-0.0786-0.1823-0.1956-0.1959C20.8233,21.12,20.9316,21.3598,21.1011,21.436z"/>
		<path style="fill:#037145;" d="M16.541,10.0358c-0.0695,0.2173-0.2142,0.0582-0.3257,0.0651
			c-0.0488-0.0402-0.0977-0.0803-0.2221-0.1827C16.2422,9.9624,16.3807,10.0669,16.541,10.0358z"/>
		<path style="fill:#186F44;" d="M15.9755,8.3797c-0.0609,0.0838-0.1329,0.0615-0.1936,0.0624
			c-0.0548,0.0008-0.0679-0.0474-0.0494-0.0929c0.0248-0.0612,0.0585-0.1271,0.1401-0.0762
			C15.9143,8.2991,15.9433,8.3454,15.9755,8.3797z"/>
		<path style="fill:#037145;" d="M20.7755,10.557c-0.0014-0.0104-0.0031-0.0209-0.004-0.0313
			c-0.0068-0.0788-0.0633-0.1676,0.0373-0.2249c0.0128-0.0073,0.0623,0.0189,0.0703,0.0392
			C20.9205,10.4454,20.8962,10.5258,20.7755,10.557L20.7755,10.557z"/>
		<path style="fill:#0F7245;" d="M16.0842,20.7098c0.1051-0.0081,0.2102-0.0162,0.3798-0.0292
			C16.3038,20.8078,16.1985,20.8147,16.0842,20.7098z"/>
		<path style="fill:#0F7246;" d="M20.5801,21.241c0.0548,0.148-0.0734,0.1457-0.1488,0.1624
			c-0.0903,0.0199-0.0563-0.0515-0.0467-0.0972h0C20.4498,21.2845,20.5149,21.2628,20.5801,21.241z"/>
		<path style="fill:#0F7246;" d="M20.3846,21.3062c-0.0651,0.0217-0.1303,0.0434-0.1954,0.0651h0
			c-0.02-0.0453-0.1133-0.0889-0.0613-0.1276C20.218,21.1769,20.3075,21.2457,20.3846,21.3062L20.3846,21.3062z"/>
		<path style="fill:#037145;" d="M27.8113,11.013c0.0218,0,0.0435,0,0.0653,0c-0.0956,0.2511-0.1912,0.5022-0.3127,0.8211
			C27.45,11.4352,27.6016,11.2136,27.8113,11.013z"/>
		<path style="fill:#057146;" d="M26.8093,14.9041c0.2706-0.0013,0.3644,0.133,0.4597,0.2633
			C27.1426,15.0951,27.0162,15.0227,26.8093,14.9041z"/>
		<path style="fill:#057146;" d="M27.5522,14.9862c-0.0841,0.0394-0.1624,0.0287-0.2765-0.034
			C27.3993,14.9094,27.4774,14.9222,27.5522,14.9862z"/>
		<path style="fill:#0D7246;" d="M20.841,13.0977c0.1184-0.0334,0.2361-0.0636,0.3223,0.0643
			c0.0273,0.3264,0.0546,0.6528,0.0819,0.9792c-0.02,0.0047-0.0401,0.0094-0.0601,0.0141
			c-0.1341-0.3099-0.2682-0.6198-0.4023-0.9297C20.8087,13.1859,20.7852,13.1238,20.841,13.0977z"/>
		<path style="fill:#FCD901;" d="M18.9464,13.0976c0.0088,0.8484,0.0185,1.6968,0.0249,2.5452
			c0.0005,0.0679,0.0244,0.1584-0.0857,0.1779c0.0002-0.7817-0.0006-1.5634,0.0017-2.3451
			C18.8877,13.3476,18.8598,13.213,18.9464,13.0976z"/>
		<path style="fill:#0D7149;" d="M20.841,13.0977c-0.0194,0.0426-0.0388,0.0853-0.0581,0.1279
			c-0.0883-0.1359-0.1784-0.2709-0.2144-0.4326c0.2111-0.2326,0.1087,0.1282,0.2068,0.1093
			C20.7972,12.9674,20.8191,13.0326,20.841,13.0977z"/>
		<path style="fill:#FDD801;" d="M13.6751,14.8521c0.6063,0.0042,1.2126,0.0084,1.8189,0.0127
			c0.0065,0.02,0.0048,0.0393-0.0051,0.0578c-0.4926-0.0003-0.9852,0.0004-1.4777-0.0016
			C13.8955,14.9206,13.773,14.9433,13.6751,14.8521z"/>
		<path style="fill:#017047;" d="M17.3872,10.5574c0.1842-0.0032,0.3165-0.214,0.5223-0.1304
			c0.0434,0.0169,0.0445,0.0363,0.0035,0.0583c-0.0259,0.0284-0.0519,0.0567-0.0778,0.0851
			c-0.0498,0.1705-0.022,0.345-0.0223,0.5173c-0.0028,1.3783-0.0007,2.7566-0.0032,4.1349
			c-0.0002,0.1169,0.0314,0.2389-0.0316,0.3509c-0.0979-0.1239-0.0628-0.2703-0.063-0.408
			c-0.0023-1.3332-0.0005-2.6664-0.0032-3.9997c-0.0002-0.1017,0.0322-0.2102-0.0764-0.3814c0,1.5959,0,3.1166,0,4.7188
			c-0.154-0.1629-0.1152-0.2837-0.1154-0.3882c-0.0029-1.3332-0.0004-2.6664-0.0043-3.9996
			c-0.0004-0.1299,0.0595-0.2933-0.1274-0.3629C17.3433,10.6878,17.3418,10.6228,17.3872,10.5574z"/>
		<path style="fill:#006A4C;" d="M17.7781,15.5735c0.0002-1.5427-0.0003-3.0853,0.0021-4.628
			c0.0002-0.1264-0.0327-0.2608,0.0551-0.3754c-0.0001,1.7175-0.0001,3.4349-0.0001,5.1631
			C17.745,15.6967,17.7958,15.6231,17.7781,15.5735z"/>
		<path style="fill:#006A4C;" d="M17.3872,10.5574c0.0004,0.0651,0.0008,0.1301,0.0012,0.1952
			c-0.0002,1.6936-0.0004,3.3873-0.0007,5.0809c-0.0772-0.0921-0.0616-0.2034-0.0615-0.3102
			c0.0006-1.6534,0.0022-3.3067,0.0036-4.96C17.3489,10.5602,17.368,10.5582,17.3872,10.5574z"/>
		<path style="fill:#006C4B;" d="M17.913,10.4853c-0.0021-0.0194-0.0032-0.0388-0.0035-0.0583
			c0.4532,0.0326,0.9126-0.0719,1.3611,0.0617C18.818,10.4875,18.3655,10.4864,17.913,10.4853z"/>
		<path style="fill:#027047;" d="M15.7592,10.7524c0.0434,0,0.0869,0,0.1303,0c0,1.2433,0,2.4866,0,3.7299
			c-0.1817-0.2745-0.1188-0.5798-0.128-0.8736c-0.0102-0.3243-0.0023-0.6491-0.0023-0.9737c0-0.3138,0-0.6275,0-0.9413
			C15.7592,11.38,15.7592,11.0662,15.7592,10.7524z"/>
		<path style="fill:#FBD208;" d="M16.096,15.8295c-0.0051-0.0205-0.0044-0.0407,0.0022-0.0608
			c0.0446-0.7031,0.0131-1.4069,0.0179-2.1104c0.0063-0.9103,0.0094-1.8209-0.0039-2.731c-0.0034-0.2322,0.044-0.3693,0.2982-0.3659
			c0.8594-0.0593,0.8594-0.0593,0.8594,0.7693c0,1.3982-0.0052,2.7963,0.005,4.1944c0.0017,0.2339-0.0456,0.3342-0.3014,0.313
			C16.6827,15.8141,16.3886,15.8306,16.096,15.8295z"/>
		<path style="fill:#FDD702;" d="M16.4103,10.5615c-0.2014,0.0631-0.2676,0.1896-0.2658,0.4085
			c0.0128,1.5456,0.0097,3.0914,0.0135,4.6371c0.0002,0.0648,0.0225,0.1306-0.0599,0.1617
			c-0.0023-1.7378-0.0047-3.4755-0.007-5.2133C16.1976,10.5575,16.3039,10.5595,16.4103,10.5615z"/>
	</g>
</g>
</svg>
