<?xml version="1.0" encoding="utf-8"?>
<!-- Generator: Adobe Illustrator 18.0.0, SVG Export Plug-In . SVG Version: 6.00 Build 0)  -->
<!DOCTYPE svg PUBLIC "-//W3C//DTD SVG 1.1//EN" "http://www.w3.org/Graphics/SVG/1.1/DTD/svg11.dtd">
<svg version="1.1" id="Layer_1" xmlns="http://www.w3.org/2000/svg" xmlns:xlink="http://www.w3.org/1999/xlink" x="0px" y="0px"
	 width="39px" height="26px" viewBox="0 0 39 26" style="enable-background:new 0 0 39 26;" xml:space="preserve">
<g>
	<g>
		<path style="fill:#F3F4F4;" d="M1.9502,25.5C1.1504,25.5,0.5,24.8496,0.5,24.0498V1.9502C0.5,1.1504,1.1504,0.5,1.9502,0.5
			h35.0996C37.8496,0.5,38.5,1.1504,38.5,1.9502v22.0996c0,0.7998-0.6504,1.4502-1.4502,1.4502H1.9502z"/>
		<path style="fill:#DADBD9;" d="M37.0501,1c0.5238,0,0.95,0.4262,0.95,0.95v22.1c0,0.5238-0.4262,0.95-0.95,0.95H1.95
			C1.4262,25,1,24.5738,1,24.05V1.95C1,1.4262,1.4262,1,1.95,1H37.0501 M37.0501,0H1.95C0.8731,0,0,0.873,0,1.95v22.1
			C0,25.1269,0.8731,26,1.95,26h35.1001c1.077,0,1.95-0.8731,1.95-1.95V1.95C39.0001,0.873,38.127,0,37.0501,0L37.0501,0z"/>
	</g>
	<g>
		<path style="fill:#F5D96E;" d="M36.5,4.0862c0.0012-0.7238-0.584-1.3119-1.3088-1.3135l-31.341-0.064
			C3.1262,2.7072,2.5381,3.293,2.5367,4.017l-0.0186,8.9421l33.9634,0.0691L36.5,4.0862z"/>
		<path style="fill:#0774B5;" d="M36.4631,21.9829c-0.0016,0.7234-0.5893,1.3093-1.3133,1.3084L3.8085,23.2267
			c-0.7243-0.001-1.3098-0.5896-1.3085-1.3133l0.0185-8.9422l33.9625,0.0693L36.4631,21.9829z"/>
		
			<linearGradient id="SVGID_1_" gradientUnits="userSpaceOnUse" x1="-96.7492" y1="172.4001" x2="-77.2072" y2="189.2883" gradientTransform="matrix(0.9949 0.1012 -0.1012 0.9949 122.47 -164.8338)">
			<stop  offset="0" style="stop-color:#F7D53E"/>
			<stop  offset="0.0546" style="stop-color:#F7D341"/>
			<stop  offset="0.4001" style="stop-color:#F8CF4A"/>
			<stop  offset="1" style="stop-color:#F8CE4C"/>
		</linearGradient>
		<path style="fill:url(#SVGID_1_);" d="M36.5,4.0862c0.0012-0.7238-0.584-1.3119-1.3088-1.3135l-31.341-0.064
			C3.1262,2.7072,2.5381,3.293,2.5367,4.017l-0.0186,8.9421l33.9634,0.0691L36.5,4.0862z"/>
		<g>
			
				<linearGradient id="SVGID_2_" gradientUnits="userSpaceOnUse" x1="-96.5617" y1="202.4628" x2="-65.1976" y2="184.6094" gradientTransform="matrix(0.9949 0.1012 -0.1012 0.9949 120.146 -166.7181)">
				<stop  offset="0" style="stop-color:#0C4384"/>
				<stop  offset="0.1804" style="stop-color:#054585"/>
				<stop  offset="0.3864" style="stop-color:#004B88"/>
				<stop  offset="0.6051" style="stop-color:#00548E"/>
				<stop  offset="0.8309" style="stop-color:#006095"/>
				<stop  offset="1" style="stop-color:#006A9D"/>
			</linearGradient>
			<path style="fill:url(#SVGID_2_);" d="M36.4631,21.9829l0.0179-8.9424l-4.6587-0.0095l-0.8724-3.6769L29.2657,9.35l-2.075,3.6716
				l-0.4576-0.0012l0.4244-2.5137l0.8341,0.0358l0.2011-1.1951l-3.2006-0.0081l-0.2019,1.1954l0.8443-0.0319l-0.4244,2.5146
				l-1.2167-0.0026l0.1688-1.0024l-1.3279-0.0034l0.0608-0.3613l1.1721,0.0028l0.1613-0.9564l-1.1713-0.0028l0.0585-0.3507
				l1.2841,0.0031L24.57,9.3385l-2.8182-0.0065l-0.6201,3.6773l-1.6874-0.0036c0.6204-0.1505,1.0886-0.6029,1.1886-1.1971
				L21.0517,9.33l-1.4893-0.0036l-0.3688,2.1859c-0.026,0.1566-0.0896,0.3996-0.3341,0.3995
				c-0.2389-0.0006-0.4348-0.2353-0.4348-0.2353l-0.6151,0.9844c0.1937,0.1518,0.4507,0.2744,0.7247,0.3428l-0.6651-0.0013
				l-0.7097-1.1972c-0.0656-0.1076-0.1498-0.1664-0.2187-0.2203l0.0048-0.029c0.5954-0.1643,0.8795-0.3983,0.9731-0.9546
				c0.1565-0.9271-0.5844-1.28-1.5289-1.2826l-1.8397-0.0043l-0.6205,3.6789l1.4887,0.0032l0.1997-1.181l0.0276,0.0005
				l0.4675,1.1825l1.0077,0.0027l-14.6024-0.03L2.5,21.9134c-0.0013,0.7237,0.5842,1.3123,1.3085,1.3133l31.3413,0.0646
				C35.8738,23.2923,36.4615,22.7063,36.4631,21.9829z M15.8697,10.948l-0.1054-0.0008l0.1054-0.6236l0.1161,0.0003
				c0.2616,0.0006,0.4837,0.035,0.4357,0.3182C16.3756,10.9152,16.1202,10.9484,15.8697,10.948z M29.8867,10.5762l0.0558,0.0003
				c0.002,0.1565,0.0024,0.3174,0.0208,0.4737l0.0677,0.6492l-0.6111-0.0014L29.8867,10.5762z M29,12.5704l1.1508,0.003
				l0.0616,0.4541l-1.41-0.0027L29,12.5704z"/>
			
				<linearGradient id="SVGID_3_" gradientUnits="userSpaceOnUse" x1="-104.5007" y1="191.2732" x2="-73.1373" y2="173.4201" gradientTransform="matrix(0.9949 0.1012 -0.1012 0.9949 122.47 -164.8338)">
				<stop  offset="0" style="stop-color:#0C4384"/>
				<stop  offset="0.1804" style="stop-color:#054585"/>
				<stop  offset="0.3864" style="stop-color:#004B88"/>
				<stop  offset="0.6051" style="stop-color:#00548E"/>
				<stop  offset="0.8309" style="stop-color:#006095"/>
				<stop  offset="1" style="stop-color:#006A9D"/>
			</linearGradient>
			<polygon style="fill:url(#SVGID_3_);" points="6.9599,12.9766 8.4824,12.9804 8.9076,10.463 9.741,10.4988 9.9425,9.3035 
				6.7414,9.2958 6.54,10.4912 7.3843,10.4594 			"/>
			
				<linearGradient id="SVGID_4_" gradientUnits="userSpaceOnUse" x1="-101.0562" y1="194.5663" x2="-69.6933" y2="176.7135" gradientTransform="matrix(0.9949 0.1012 -0.1012 0.9949 120.146 -166.7181)">
				<stop  offset="0" style="stop-color:#0C4384"/>
				<stop  offset="0.1804" style="stop-color:#054585"/>
				<stop  offset="0.3864" style="stop-color:#004B88"/>
				<stop  offset="0.6051" style="stop-color:#00548E"/>
				<stop  offset="0.8309" style="stop-color:#006095"/>
				<stop  offset="1" style="stop-color:#006A9D"/>
			</linearGradient>
			<path style="fill:url(#SVGID_4_);" d="M10.5505,12.9852l0.1997-0.4585l1.1507,0.0026l0.0609,0.4592l1.6113,0.0042l-0.8736-3.6824
				L11.0161,9.306l-2.0769,3.6756L10.5505,12.9852z M11.6368,10.5328l0.0558,0.0003c0.0017,0.1559,0.0018,0.3171,0.0201,0.4733
				l0.0684,0.6496L11.17,11.6544L11.6368,10.5328z"/>
			
				<linearGradient id="SVGID_5_" gradientUnits="userSpaceOnUse" x1="-97.2358" y1="201.2735" x2="-65.8739" y2="183.4213" gradientTransform="matrix(0.9949 0.1012 -0.1012 0.9949 120.146 -166.7181)">
				<stop  offset="0" style="stop-color:#0C4384"/>
				<stop  offset="0.1804" style="stop-color:#054585"/>
				<stop  offset="0.3864" style="stop-color:#004B88"/>
				<stop  offset="0.6051" style="stop-color:#00548E"/>
				<stop  offset="0.8309" style="stop-color:#006095"/>
				<stop  offset="1" style="stop-color:#006A9D"/>
			</linearGradient>
			<path style="fill:url(#SVGID_5_);" d="M32.8645,11.4354c0.5213,0.0011,0.9394-0.4182,0.94-0.9362
				c0.0015-0.5203-0.4153-0.9387-0.9357-0.9396c-0.5203-0.0011-0.9383,0.4154-0.9394,0.936
				C31.9284,11.0132,32.3447,11.4341,32.8645,11.4354z M32.8683,9.796c0.3773,0.0007,0.7007,0.3256,0.7003,0.7027
				c-0.0008,0.3747-0.3261,0.7008-0.7032,0.7004c-0.3767-0.0009-0.7008-0.3285-0.6997-0.7033
				C32.1665,10.1188,32.4918,9.7952,32.8683,9.796z"/>
			
				<linearGradient id="SVGID_6_" gradientUnits="userSpaceOnUse" x1="-97.2464" y1="201.2543" x2="-65.8849" y2="183.4024" gradientTransform="matrix(0.9949 0.1012 -0.1012 0.9949 120.146 -166.7181)">
				<stop  offset="0" style="stop-color:#0C4384"/>
				<stop  offset="0.1804" style="stop-color:#054585"/>
				<stop  offset="0.3864" style="stop-color:#004B88"/>
				<stop  offset="0.6051" style="stop-color:#00548E"/>
				<stop  offset="0.8309" style="stop-color:#006095"/>
				<stop  offset="1" style="stop-color:#006A9D"/>
			</linearGradient>
			<path style="fill:url(#SVGID_6_);" d="M32.7002,10.932l0.0007-0.3898l0.1207,0.0004l0.1877,0.39l0.2541,0.0004l-0.2031-0.3903
				c0.1438-0.0121,0.2319-0.0797,0.2318-0.2507c0.0004-0.0981-0.0245-0.1885-0.11-0.2416
				c-0.0677-0.0428-0.1708-0.0406-0.2514-0.0411l-0.4496-0.0005l-0.0022,0.9227L32.7002,10.932z M32.8856,10.1707
				c0.0728-0.0003,0.1856,0.0001,0.1856,0.0985c-0.0002,0.0951-0.0633,0.1129-0.1486,0.1126l-0.2216-0.0003l0.0004-0.2115
				L32.8856,10.1707z"/>
		</g>
		<g>
			
				<linearGradient id="SVGID_7_" gradientUnits="userSpaceOnUse" x1="-103.1663" y1="184.3599" x2="-83.6227" y2="201.2495" gradientTransform="matrix(0.9949 0.1012 -0.1012 0.9949 120.146 -166.7181)">
				<stop  offset="0" style="stop-color:#F7D53E"/>
				<stop  offset="0.0546" style="stop-color:#F7D341"/>
				<stop  offset="0.4001" style="stop-color:#F8CF4A"/>
				<stop  offset="1" style="stop-color:#F8CE4C"/>
			</linearGradient>
			<path style="fill:url(#SVGID_7_);" d="M6.6279,16.1051l0.0571,0.0506c0.203,0.1745,0.4557,0.3167,0.7498,0.3175
				c0.1251,0.0006,0.3329-0.0497,0.3554-0.2052c0.024-0.1551-0.1419-0.1698-0.2548-0.1926l-0.2492-0.0459
				c-0.485-0.0891-0.8604-0.3772-0.7805-0.9178c0.1228-0.8181,0.9489-1.2741,1.7118-1.2727
				c0.4008,0.001,0.7535,0.0978,1.0671,0.3037l-0.4754,0.8828c-0.197-0.1474-0.4262-0.2616-0.7013-0.2622
				c-0.1116-0.0006-0.2807,0.04-0.3012,0.183c-0.0195,0.1272,0.1356,0.1454,0.2301,0.1688l0.279,0.0643
				c0.5219,0.1204,0.87,0.4049,0.7834,0.99c-0.1231,0.8235-0.9466,1.2294-1.705,1.228c-0.4418-0.0008-0.9368-0.1209-1.3019-0.318
				L6.6279,16.1051z"/>
			
				<linearGradient id="SVGID_8_" gradientUnits="userSpaceOnUse" x1="-101.5041" y1="182.4385" x2="-81.9624" y2="199.3264" gradientTransform="matrix(0.9949 0.1012 -0.1012 0.9949 120.146 -166.7181)">
				<stop  offset="0" style="stop-color:#F7D53E"/>
				<stop  offset="0.0546" style="stop-color:#F7D341"/>
				<stop  offset="0.4001" style="stop-color:#F8CF4A"/>
				<stop  offset="1" style="stop-color:#F8CE4C"/>
			</linearGradient>
			<path style="fill:url(#SVGID_8_);" d="M9.8335,13.897l1.2281,0.0024l-0.1732,1.1618l0.7822,0.0018l0.1727-1.1621l1.2283,0.0022
				l-0.514,3.4493l-1.2281-0.0021l0.1788-1.1988l-0.7819-0.0016l-0.179,1.199l-1.2278-0.0027L9.8335,13.897z"/>
			
				<linearGradient id="SVGID_9_" gradientUnits="userSpaceOnUse" x1="-99.6091" y1="180.2444" x2="-80.0663" y2="197.1332" gradientTransform="matrix(0.9949 0.1012 -0.1012 0.9949 120.146 -166.7181)">
				<stop  offset="0" style="stop-color:#F7D53E"/>
				<stop  offset="0.0546" style="stop-color:#F7D341"/>
				<stop  offset="0.4001" style="stop-color:#F8CF4A"/>
				<stop  offset="1" style="stop-color:#F8CE4C"/>
			</linearGradient>
			<path style="fill:url(#SVGID_9_);" d="M15.2984,14.9877c0.4049,0.001,0.6099,0.3075,0.5551,0.6742
				c-0.0584,0.3928-0.3682,0.6621-0.7544,0.6612c-0.3862-0.0004-0.6162-0.2707-0.5577-0.664
				C14.596,15.293,14.8929,14.9871,15.2984,14.9877z M15.4666,13.8533c-1.065-0.002-2.0448,0.7013-2.2069,1.7849
				c-0.1645,1.1068,0.606,1.7721,1.6763,1.7741c1.0707,0.0024,2.0396-0.6594,2.2044-1.7665
				C17.3022,14.5617,16.5325,13.8559,15.4666,13.8533z"/>
			
				<linearGradient id="SVGID_10_" gradientUnits="userSpaceOnUse" x1="-97.9245" y1="178.2959" x2="-78.3822" y2="195.1843" gradientTransform="matrix(0.9949 0.1012 -0.1012 0.9949 120.146 -166.7181)">
				<stop  offset="0" style="stop-color:#F7D53E"/>
				<stop  offset="0.0546" style="stop-color:#F7D341"/>
				<stop  offset="0.4001" style="stop-color:#F8CF4A"/>
				<stop  offset="1" style="stop-color:#F8CE4C"/>
			</linearGradient>
			<path style="fill:url(#SVGID_10_);" d="M18.9383,14.8579l0.1212,0.0002c0.2094,0.0003,0.4675,0.0147,0.4279,0.2841
				c-0.042,0.2793-0.2891,0.3158-0.5125,0.3155l-0.126-0.0001L18.9383,14.8579z M17.336,17.3624l1.2285,0.0024l0.1547-1.0387
				l0.6524,0.001c0.7108,0.0015,1.2237-0.4367,1.3287-1.1413c0.1273-0.8553-0.416-1.2682-1.235-1.27l-1.615-0.0028L17.336,17.3624z"
				/>
			
				<linearGradient id="SVGID_11_" gradientUnits="userSpaceOnUse" x1="-96.3184" y1="176.4346" x2="-76.7748" y2="193.3241" gradientTransform="matrix(0.9949 0.1012 -0.1012 0.9949 120.146 -166.7181)">
				<stop  offset="0" style="stop-color:#F7D53E"/>
				<stop  offset="0.0546" style="stop-color:#F7D341"/>
				<stop  offset="0.4001" style="stop-color:#F8CF4A"/>
				<stop  offset="1" style="stop-color:#F8CE4C"/>
			</linearGradient>
			<path style="fill:url(#SVGID_11_);" d="M22.3255,14.8643l0.1211,0.0004c0.2089,0.0004,0.4675,0.0148,0.4279,0.2841
				c-0.0416,0.2795-0.2897,0.3164-0.5125,0.3155l-0.1253,0L22.3255,14.8643z M20.7236,17.369l1.2281,0.0021l0.1554-1.0385
				l0.6509,0.0013c0.7123,0.0016,1.2247-0.4369,1.3293-1.1417c0.128-0.8553-0.4161-1.2677-1.2344-1.2695l-1.6149-0.0033
				L20.7236,17.369z"/>
			
				<linearGradient id="SVGID_12_" gradientUnits="userSpaceOnUse" x1="-94.9493" y1="174.8483" x2="-75.4047" y2="191.7387" gradientTransform="matrix(0.9949 0.1012 -0.1012 0.9949 120.146 -166.7181)">
				<stop  offset="0" style="stop-color:#F7D53E"/>
				<stop  offset="0.0546" style="stop-color:#F7D341"/>
				<stop  offset="0.4001" style="stop-color:#F8CF4A"/>
				<stop  offset="1" style="stop-color:#F8CE4C"/>
			</linearGradient>
			<path style="fill:url(#SVGID_12_);" d="M24.6342,13.9263l1.2748,0.0023l-0.5146,3.4498L24.12,17.3757L24.6342,13.9263z"/>
			
				<linearGradient id="SVGID_13_" gradientUnits="userSpaceOnUse" x1="-93.5388" y1="173.2194" x2="-73.996" y2="190.1082" gradientTransform="matrix(0.9949 0.1012 -0.1012 0.9949 120.146 -166.7181)">
				<stop  offset="0" style="stop-color:#F7D53E"/>
				<stop  offset="0.0546" style="stop-color:#F7D341"/>
				<stop  offset="0.4001" style="stop-color:#F8CF4A"/>
				<stop  offset="1" style="stop-color:#F8CE4C"/>
			</linearGradient>
			<path style="fill:url(#SVGID_13_);" d="M26.4818,13.93l1.2235,0.0022l0.8598,1.9147l0.0371-0.0001
				c-0.0082-0.288-0.0202-0.5854,0.0236-0.8784l0.1548-1.0339l1.2189,0.0022l-0.514,3.4494l-1.2197-0.0023l-0.8509-1.8137
				l-0.0379,0.0002c0.0064,0.238,0.0108,0.4618-0.0237,0.6906l-0.1671,1.1211l-1.2191-0.0026L26.4818,13.93z"/>
			
				<linearGradient id="SVGID_14_" gradientUnits="userSpaceOnUse" x1="-91.5811" y1="170.9557" x2="-72.0392" y2="187.8437" gradientTransform="matrix(0.9949 0.1012 -0.1012 0.9949 120.146 -166.7181)">
				<stop  offset="0" style="stop-color:#F7D53E"/>
				<stop  offset="0.0546" style="stop-color:#F7D341"/>
				<stop  offset="0.4001" style="stop-color:#F8CF4A"/>
				<stop  offset="1" style="stop-color:#F8CE4C"/>
			</linearGradient>
			<path style="fill:url(#SVGID_14_);" d="M34.0543,15.3642c-0.092,0.5621-0.1628,1.033-0.6425,1.4714
				c-0.4323,0.3979-1.0362,0.6114-1.5803,0.6103c-1.0705-0.0021-1.8391-0.654-1.6741-1.7611
				c0.1684-1.1248,1.1115-1.7999,2.2145-1.7977c0.6083,0.0013,1.4024,0.3,1.5884,0.8907l-1.2552,0.4274
				c-0.0716-0.1736-0.2394-0.2661-0.4445-0.2661c-0.4563-0.0009-0.7644,0.3831-0.8265,0.7996
				c-0.0567,0.379,0.132,0.7368,0.5459,0.7373c0.2006,0.0005,0.47-0.09,0.5624-0.3009l-0.5771-0.0014l0.1218-0.8142L34.0543,15.3642
				z"/>
		</g>
	</g>
</g>
</svg>
