<svg xmlns="http://www.w3.org/2000/svg" width="45" height="30" viewBox="0 0 45 30"><path d="M2.309 29.5c-.998 0-1.809-.812-1.809-1.81v-25.381c0-.997.812-1.809 1.809-1.809h40.381c.998 0 1.81.812 1.81 1.809v25.381c0 .998-.812 1.81-1.81 1.81h-40.381z" fill="#F3F4F4"/><path d="M42.691 1c.722 0 1.309.587 1.309 1.309v25.382c0 .722-.587 1.309-1.309 1.309h-40.382c-.722 0-1.309-.587-1.309-1.309v-25.382c0-.722.587-1.309 1.309-1.309h40.382m0-1h-40.382c-1.275 0-2.309 1.034-2.309 2.309v25.382c0 1.275 1.034 2.309 2.309 2.309h40.382c1.275 0 2.309-1.034 2.309-2.309v-25.382c0-1.275-1.034-2.309-2.309-2.309z" fill="#DADAD9"/><g fill-rule="evenodd" clip-rule="evenodd"><path d="M3.5 14.574l.176-.72c.423-1.221 1.243-2.025 2.517-2.276.736-.145 1.483-.076 2.17.287.151.08.3.163.443.256.286.186.555.182.835-.02.658-.474 1.401-.673 2.203-.602 1.218.107 2.116.722 2.697 1.795.287.53.42 1.101.418 1.706-.003 1.521-.001 3.043-.001 4.564l.006.755c-.001.256-.139.409-.395.413-.453.008-.907.008-1.36 0-.248-.004-.398-.16-.398-.4.001-1.768-.006-3.536.012-5.304.006-.557-.182-.981-.668-1.251-.752-.418-1.722.08-1.823.935-.057.481-.021.966-.021 1.448 0 1.36.009 2.719.013 4.079.001.356-.137.495-.49.495h-1.209c-.32-.001-.463-.143-.464-.458-.002-1.703-.008-3.405-.003-5.108.001-.236.023-.467-.064-.694-.225-.585-.817-.94-1.416-.833-.695.124-1.091.713-1.094 1.226l.001 1.057.001 4.352c0 .316-.141.456-.462.456-.373.001-.746-.007-1.118.003-.226.008-.398-.061-.506-.266v-5.895z" fill="#104A7B"/><path d="M41.5 7.772c-.329.961-1.099 1.505-1.908 2.006-.523.324-1.085.569-1.698.671-.204.034-.413.038-.616.001-.325-.059-.523-.28-.675-.555-.204-.371-.3-.777-.358-1.191-.118-.849-.084-1.695.117-2.53.08-.333.198-.653.383-.945.154-.244.374-.395.644-.482h.514c.949.116 1.715.616 2.45 1.176.39.297.726.647.978 1.072.094.158.163.322.154.511l.016.203-.001.063z" fill="#3193D5"/><path d="M41.472 7.496l.028.004v.212c-.056-.067-.022-.144-.028-.216z" fill="#75B5DE"/><path d="M30.04 25.249l-.151.003c-.222-.055-.322-.184-.323-.423v-1.723c0-2.353-.003-4.706.001-7.058.002-1.045.301-2 .936-2.835.703-.924 1.628-1.494 2.783-1.664 1.409-.207 2.651.165 3.693 1.139.687.642 1.117 1.447 1.305 2.363.262 1.272.103 2.493-.597 3.607-.723 1.15-1.767 1.829-3.113 2.026-.825.121-1.619.001-2.381-.338l-.142-.05c-.104-.021-.183.012-.197.127l-.019.3-.001 4.111c0 .243-.081.352-.308.415l-.212-.003-1.274.003z" fill="#104A7B"/><path d="M20.534 20.651c-2.132.029-3.888-1.486-4.307-3.519-.287-1.389-.066-2.691.775-3.851.763-1.053 1.804-1.65 3.105-1.765 2.277-.202 4.258 1.275 4.708 3.525.318 1.589-.017 3.025-1.116 4.242-.646.716-1.465 1.141-2.416 1.308-.259.047-.519.071-.749.06z" fill="#104A7A"/><path d="M26.173 16.121l-.001-4.154.031-.238c.063-.193.179-.257.379-.229 1.01.142 1.733.972 1.736 2.079.005 1.893.001 3.787.002 5.68l.001 1.057c-.001.255-.14.411-.394.415-.453.008-.906.007-1.359 0-.256-.004-.395-.157-.395-.412v-4.199zM28.388 9.342c-.002.568-.539 1.101-1.106 1.098-.567-.003-1.107-.539-1.109-1.102-.002-.563.559-1.12 1.12-1.113.564.008 1.097.551 1.095 1.117z" fill="#104A7B"/><path d="M37.691 6.468c.057-.004.135.039.201.105l.8.801c.157.161.155.316-.002.475l-.79.79c-.164.162-.323.163-.472.01-.14-.145-.13-.293.034-.459l.341-.342c.144-.153.142-.318-.002-.467l-.371-.376c-.088-.093-.132-.203-.07-.33.06-.121.147-.203.331-.207zM40.23 7.613c.01.096-.039.165-.101.227l-.812.811c-.15.148-.311.147-.451.008-.133-.132-.13-.31.01-.454l.352-.353c.146-.15.146-.327 0-.48l-.362-.365c-.132-.139-.129-.31.004-.441.137-.135.3-.139.441-.001l.823.822c.062.063.107.133.096.226z" fill="#FEFEFE"/><path d="M36.202 16.121c0 1.121-.746 2.089-1.797 2.331-.807.186-1.672-.183-2.193-.936-.867-1.252-.382-3.018.992-3.614.953-.414 2.081-.011 2.645.944.231.391.353.832.353 1.275zM18.427 16.32c-.001-1.257.676-2.17 1.657-2.424.786-.204 1.638.139 2.154.866.862 1.216.37 2.972-.992 3.509-.706.278-1.366.147-1.951-.318-.584-.462-.853-1.086-.868-1.633z" fill="#F3F4F4"/></g></svg>