<?xml version="1.0" encoding="utf-8"?>
<!-- Generator: Adobe Illustrator 18.0.0, SVG Export Plug-In . SVG Version: 6.00 Build 0)  -->
<!DOCTYPE svg PUBLIC "-//W3C//DTD SVG 1.1//EN" "http://www.w3.org/Graphics/SVG/1.1/DTD/svg11.dtd">
<svg version="1.1" id="Layer_1" xmlns="http://www.w3.org/2000/svg" xmlns:xlink="http://www.w3.org/1999/xlink" x="0px" y="0px"
	 width="39px" height="26px" viewBox="3 2 39 26" style="enable-background:new 3 2 39 26;" xml:space="preserve">
<g>
	<path style="fill:#F3F4F4;" d="M5.0011,27.5667c-0.8649,0-1.5678-0.7037-1.5678-1.5678V4.0011
		c0-0.8641,0.7037-1.5678,1.5678-1.5678H39.998c0.8649,0,1.5687,0.7037,1.5687,1.5678v21.9977c0,0.8641-0.7037,1.5678-1.5687,1.5678
		C39.998,27.5667,5.0011,27.5667,5.0011,27.5667z"/>
	<path style="fill:#DADBD9;" d="M39.9989,2.8667c0.6257,0,1.1345,0.5087,1.1345,1.1345v21.9977
		c0,0.6257-0.5087,1.1345-1.1345,1.1345H5.0011c-0.6257,0-1.1345-0.5087-1.1345-1.1345V4.0011c0-0.6257,0.5087-1.1345,1.1345-1.1345
		H39.9989 M39.9989,2H5.0011C3.8961,2,3,2.8961,3,4.0011v21.9977C3,27.1047,3.8961,28,5.0011,28h34.9977
		C41.1039,28,42,27.1047,42,25.9989V4.0011C42,2.8961,41.1039,2,39.9989,2z"/>
	<path style="fill:#060E9F;" d="M36.7445,14.4479c0-5.2277-6.4948-9.4891-14.5071-9.4891c-8.0115,0-14.5063,4.2614-14.5063,9.4891
		l-0.0017,0.5555c0,5.5458,5.6767,10.0369,14.5063,10.0369c8.8842,0,14.5089-4.4902,14.5089-10.036
		C36.7445,15.0043,36.7445,14.4479,36.7445,14.4479z"/>
	<ellipse style="fill:#29ABE2;" cx="22.24" cy="14.4436" rx="13.949" ry="8.9232"/>
	<g>
		<path style="fill:#FFFFFF;" d="M17.6077,11.6278c-0.0069,0.0139-0.1465,0.1577-0.0563,0.2739
			c0.2201,0.2808,0.9005,0.4429,1.5877,0.2886c0.4091-0.0919,0.9343-0.5096,1.4421-0.9126
			c0.5512-0.4377,1.0972-0.8762,1.6467-1.0504c0.5815-0.1855,0.9542-0.1057,1.2003-0.0312
			c0.2704,0.0806,0.5876,0.2583,1.0946,0.6387c0.9542,0.7176,4.7927,4.0673,5.4557,4.6462
			c0.5339-0.2409,2.9077-1.2627,6.1334-1.9743c-0.2799-1.7195-1.326-3.2925-2.9129-4.5812
			c-2.2109,0.9282-4.9131,1.4127-7.5547,0.1231c-0.0139-0.0052-1.4439-0.6821-2.8539-0.6491
			c-2.0965,0.0485-3.0047,0.9559-3.9659,1.9162C18.8245,10.3157,17.6077,11.6278,17.6077,11.6278z M29.8233,15.8459
			c-0.0451-0.0399-4.5127-3.9494-5.525-4.7103c-0.5859-0.4394-0.9117-0.5512-1.2532-0.5945
			c-0.1785-0.0234-0.4238,0.0104-0.5963,0.0572c-0.4706,0.1283-1.0859,0.5399-1.6328,0.9733
			c-0.5659,0.4507-1.0998,0.8753-1.5947,0.9863c-0.6327,0.1421-1.4049-0.0251-1.7576-0.2635
			c-0.143-0.0962-0.2435-0.2071-0.2921-0.3198c-0.13-0.3016,0.1101-0.5434,0.1491-0.5833l1.2333-1.3338l0.4351-0.4273
			c-0.3978,0.052-0.7653,0.1534-1.1232,0.2531c-0.4463,0.1257-0.8762,0.2453-1.3113,0.2453c-0.1811,0-1.1535-0.1595-1.3381-0.2097
			c-1.1154-0.3051-2.0947-0.6023-3.5577-1.2853c-1.7524,1.3043-2.925,2.9363-3.263,4.7329l0.8277,0.2253
			c3.9667,0.8823,5.2017,1.7905,5.4262,1.9803c0.2427-0.2704,0.5928-0.4411,0.9837-0.4411c0.4394,0.0009,0.8346,0.221,1.0747,0.5616
			c0.2271-0.1794,0.5408-0.3328,0.9455-0.3328c0.1837,0,0.3744,0.0338,0.5677,0.0997c0.4472,0.1534,0.6786,0.4515,0.7982,0.7211
			c0.1499-0.0676,0.3345-0.1179,0.5521-0.117c0.2132,0,0.4359,0.0485,0.6595,0.1456c0.7315,0.3137,0.845,1.0322,0.7791,1.5739
			l0.1577-0.0087c0.8667,0.0009,1.5721,0.7055,1.5721,1.573c0,0.2687-0.0685,0.5209-0.1881,0.7427
			c0.2357,0.1326,0.8372,0.4325,1.365,0.3657c0.4221-0.0529,0.5824-0.1976,0.6396-0.2782c0.039-0.0563,0.0806-0.1213,0.0425-0.1681
			l-1.1189-1.2437c0,0-0.1846-0.1742-0.1231-0.2418c0.0633-0.0693,0.1768,0.0303,0.2574,0.0971
			c0.5694,0.4758,1.2653,1.1934,1.2653,1.1934c0.0113,0.0078,0.0581,0.0988,0.3146,0.1447c0.221,0.0399,0.6127,0.0165,0.8849-0.2063
			l0.1941-0.1993l-0.0121,0.0104c0.286-0.3657-0.0312-0.7367-0.0312-0.7367l-1.3069-1.4673c0,0-0.1872-0.1725-0.1231-0.2427
			c0.0572-0.0598,0.1768,0.0312,0.2591,0.0988c0.4134,0.3458,0.9984,0.9325,1.5583,1.4811
			c0.1092,0.0797,0.6015,0.3848,1.2541-0.0433c0.3952-0.2591,0.4749-0.5781,0.4637-0.819
			c-0.0277-0.3181-0.2756-0.5451-0.2756-0.5451l-1.7853-1.794c0,0-0.1881-0.1612-0.1222-0.2427
			c0.0546-0.0685,0.1768,0.0303,0.2574,0.0971c0.5685,0.4758,2.1077,1.8867,2.1077,1.8867
			c0.0217,0.0156,0.5538,0.3943,1.2107-0.0243c0.2349-0.1499,0.3848-0.377,0.3978-0.6396
			C30.1457,16.1163,29.8233,15.8459,29.8233,15.8459z M21.1662,18.12c-0.2765-0.0035-0.5798,0.1612-0.6188,0.1369
			c-0.0217-0.0147,0.0173-0.1257,0.0425-0.1898c0.0269-0.0633,0.3909-1.1605-0.4975-1.5409
			c-0.6795-0.2921-1.0955,0.0364-1.2385,0.1846l-0.0589-0.0139c-0.0139-0.1976-0.1023-0.7315-0.689-0.9109
			c-0.8389-0.2565-1.378,0.3285-1.5149,0.5399c-0.0615-0.4784-0.4654-0.8493-0.9603-0.8493
			c-0.5373-0.0009-0.9741,0.4351-0.9741,0.9724c0,0.5373,0.4359,0.9733,0.9733,0.9733c0.2617,0.0009,0.4983-0.104,0.6734-0.2713
			l0.0052,0.0329c-0.0407,0.2409-0.1161,1.1154,0.7999,1.4716c0.3675,0.143,0.6795,0.0364,0.9386-0.1447
			c0.0771-0.0546,0.0901-0.0312,0.0789,0.0407c-0.0329,0.2245,0.0087,0.7063,0.6838,0.9802
			c0.5139,0.2089,0.8181-0.0052,1.0175-0.1889c0.0867-0.0789,0.1101-0.0667,0.1153,0.0563c0.0243,0.6509,0.5651,1.1683,1.222,1.1683
			c0.6769,0.0009,1.2255-0.5469,1.2255-1.2229C22.3908,18.6686,21.8431,18.1278,21.1662,18.12z"/>
	</g>
	<path style="fill:#060E9F;" d="M29.9958,15.3779c-1.3763-1.2012-4.5569-3.9659-5.4184-4.6124
		c-0.4923-0.3701-0.8277-0.5659-1.1223-0.6535c-0.1326-0.0399-0.3155-0.0858-0.5512-0.0858c-0.2193,0-0.4541,0.0399-0.7003,0.1179
		c-0.5564,0.1759-1.1111,0.6171-1.6475,1.0435l-0.0277,0.0217c-0.5001,0.3969-1.0157,0.8086-1.4066,0.8953
		c-0.1707,0.0381-0.3458,0.0581-0.5209,0.0581c-0.4377-0.0009-0.8311-0.1265-0.9785-0.3146
		c-0.0243-0.0312-0.0087-0.0815,0.0485-0.1543l0.0078-0.0095l1.2107-1.3043c0.9481-0.9481,1.8443-1.8434,3.9052-1.8911
		l0.1031-0.0017c1.2835,0.0009,2.5662,0.5755,2.7101,0.6422c1.2029,0.5867,2.4449,0.8849,3.6937,0.8857
		c1.3009,0,2.6433-0.3215,4.0551-0.9715c-0.1577-0.1326-0.3215-0.2617-0.4905-0.3883c-1.2402,0.5373-2.4215,0.8095-3.5611,0.8086
		c-1.1639-0.0009-2.327-0.2808-3.4563-0.832c-0.0598-0.0286-1.4759-0.6959-2.9501-0.6968l-0.1161,0.0009
		c-1.7316,0.0407-2.7075,0.6552-3.3635,1.1943c-0.6379,0.0156-1.1882,0.169-1.6779,0.3059
		c-0.4368,0.1213-0.8147,0.2271-1.1821,0.2262l-0.4489-0.0147c-0.4229-0.013-2.5558-0.5356-4.2519-1.1778
		c-0.1733,0.1231-0.3397,0.2496-0.5018,0.3779c1.7723,0.7263,3.9286,1.2887,4.6089,1.3321
		c0.1898,0.0121,0.3909,0.0338,0.5928,0.0347c0.4498,0,0.8996-0.1265,1.3347-0.2479c0.2565-0.0719,0.5399-0.1508,0.8381-0.208
		l-0.2383,0.2375l-1.2298,1.3303c-0.0971,0.0979-0.3068,0.3588-0.1681,0.6795c0.0555,0.13,0.1673,0.2531,0.3233,0.3588
		c0.2929,0.1976,0.8181,0.3311,1.3052,0.3311c0.1846,0,0.3597-0.0182,0.5209-0.0546c0.5157-0.1161,1.0565-0.5469,1.6293-1.0019
		c0.4567-0.3623,1.105-0.8233,1.6016-0.9585c0.1387-0.0381,0.3094-0.0615,0.4463-0.0615l0.1153,0.0069
		c0.3285,0.0416,0.6457,0.1534,1.2116,0.5781c1.0097,0.7583,5.4782,4.667,5.5215,4.706c0.0035,0.0026,0.2877,0.2479,0.2678,0.6569
		c-0.0104,0.2279-0.1369,0.4299-0.3571,0.5703c-0.1907,0.1213-0.3874,0.1829-0.5867,0.1829
		c-0.299-0.0009-0.5044-0.1404-0.5174-0.1499c-0.0165-0.0139-1.547-1.417-2.1103-1.8885c-0.0901-0.0745-0.1768-0.1413-0.2652-0.1413
		l-0.117,0.0555c-0.0884,0.1092,0.0104,0.26,0.1274,0.3597l1.7879,1.7975c0.0026,0.0017,0.2227,0.2089,0.247,0.4845
		c0.0139,0.2981-0.1283,0.5469-0.4247,0.741c-0.2106,0.1387-0.4247,0.2097-0.6335,0.2097c-0.2747,0-0.4671-0.1248-0.5096-0.1543
		l-0.2565-0.2531c-0.4689-0.4611-0.9525-0.9386-1.3069-1.2341c-0.0867-0.0719-0.1785-0.1378-0.2669-0.1378l-0.1127,0.0477
		c-0.0407,0.0451-0.0685,0.1257,0.0321,0.26l0.0901,0.1005l1.3052,1.4655c0.0104,0.013,0.2687,0.3198,0.0295,0.6257l-0.0459,0.0589
		l-0.1213,0.117c-0.2227,0.1829-0.52,0.2019-0.6379,0.2019l-0.1759-0.0147c-0.1291-0.0234-0.2149-0.0589-0.2574-0.1083
		l-0.0156-0.0165c-0.0711-0.0737-0.7289-0.7453-1.2731-1.1995c-0.0719-0.0598-0.1612-0.1361-0.2539-0.1361l-0.1179,0.0529
		c-0.1075,0.1179,0.0537,0.2947,0.1222,0.3588l1.1128,1.2272l-0.0425,0.0745c-0.0399,0.0555-0.1751,0.1898-0.5789,0.2409
		l-0.1482,0.0087c-0.416,0-0.8606-0.2019-1.0894-0.3233c0.104-0.2201,0.1586-0.4619,0.1586-0.7055
		c0-0.9161-0.7436-1.6614-1.6597-1.6623l-0.0598,0.0009c0.0303-0.4186-0.0295-1.2099-0.8424-1.5591
		c-0.234-0.1014-0.4671-0.1525-0.6942-0.1525c-0.1777,0-0.3484,0.0303-0.5087,0.0919c-0.1681-0.3276-0.4481-0.5659-0.8129-0.6899
		c-0.2011-0.0702-0.4021-0.1049-0.5963-0.1049c-0.338,0-0.65,0.0997-0.9282,0.2973c-0.2661-0.3311-0.6682-0.5278-1.092-0.5278
		c-0.3709,0-0.7271,0.1482-0.9915,0.4099c-0.3467-0.2643-1.7203-1.1379-5.3985-1.9725c-0.1785-0.0399-0.5867-0.1577-0.8372-0.2305
		c-0.0416,0.1993-0.0737,0.4004-0.0945,0.6032l0.8121,0.1924c3.7579,0.8346,4.9989,1.7021,5.2087,1.8659
		c-0.0711,0.1707-0.1083,0.3553-0.1083,0.5408c0,0.7765,0.6309,1.4083,1.4075,1.4092l0.2583-0.0234
		c0.117,0.5711,0.4905,1.0045,1.0617,1.2263c0.1673,0.0641,0.3363,0.0971,0.5018,0.0971c0.1075,0,0.2149-0.013,0.3207-0.0399
		c0.1057,0.2678,0.3432,0.6023,0.8736,0.8173c0.1863,0.0745,0.3727,0.1144,0.5529,0.1144c0.1473,0,0.2921-0.026,0.4299-0.0763
		c0.2539,0.6197,0.8597,1.0296,1.534,1.0296c0.4472,0.0009,0.8762-0.182,1.1899-0.5035c0.2678,0.1491,0.8337,0.4186,1.4057,0.4195
		l0.2132-0.0139c0.5677-0.0719,0.832-0.2938,0.9533-0.4663l0.0581-0.0953c0.1343,0.039,0.2817,0.0702,0.4498,0.0702
		c0.3103,0,0.6075-0.1057,0.9083-0.325c0.2955-0.2132,0.5053-0.5191,0.5356-0.7791l0.0017-0.0113
		c0.0997,0.0208,0.2019,0.0312,0.3042,0.0312c0.3189,0,0.6335-0.0997,0.9334-0.2964c0.5789-0.3796,0.6795-0.8753,0.6699-1.1995
		c0.1014,0.0208,0.2045,0.0321,0.3077,0.0321c0.2999,0,0.5937-0.0901,0.8745-0.2687c0.3588-0.2288,0.5746-0.5807,0.6075-0.9889
		c0.0225-0.2773-0.0459-0.5581-0.1933-0.7991c0.9698-0.4177,3.1859-1.2263,5.7963-1.8148
		c-0.0156-0.2028-0.0451-0.4021-0.0806-0.6015C32.9425,14.0952,30.586,15.1153,29.9958,15.3779L29.9958,15.3779z M21.1662,20.4817
		c-0.6136-0.0009-1.1119-0.4775-1.1345-1.0842c-0.0017-0.052-0.0069-0.1907-0.1239-0.1907c-0.0485,0-0.0901,0.0286-0.1378,0.0728
		c-0.1343,0.1248-0.3068,0.2522-0.5573,0.2522c-0.1135,0-0.2375-0.0269-0.3675-0.0797c-0.6474-0.2626-0.6569-0.7072-0.6301-0.8857
		c0.0069-0.0477,0.0095-0.0971-0.0234-0.1361l-0.0399-0.0355h-0.0407l-0.1127,0.0459c-0.1872,0.1317-0.3666,0.1959-0.5495,0.1959
		c-0.1005,0-0.2037-0.0199-0.3068-0.0598c-0.8528-0.3319-0.7852-1.1362-0.7436-1.3789l-0.0373-0.1127l-0.0598-0.0494l-0.0563,0.0537
		c-0.1664,0.1603-0.3831,0.2479-0.6119,0.2479c-0.4888-0.0009-0.8857-0.3969-0.8857-0.8857c0-0.4888,0.3978-0.8849,0.8866-0.8849
		c0.4411,0,0.8173,0.3319,0.8736,0.7731l0.0303,0.2375l0.1309-0.2011c0.0147-0.0234,0.3727-0.5642,1.0305-0.5642
		c0.1248,0,0.2539,0.0199,0.3839,0.0607c0.5243,0.1603,0.6136,0.6353,0.6266,0.8337c0.0095,0.1153,0.091,0.1213,0.1075,0.1213
		l0.1023-0.0537c0.0988-0.1031,0.3146-0.2747,0.6517-0.2747c0.1543,0.0009,0.3189,0.0373,0.4879,0.1101
		c0.8329,0.3579,0.455,1.417,0.4507,1.4274c-0.0719,0.1759-0.0745,0.2531-0.0069,0.2981l0.0329,0.0156h0.0243l0.1612-0.0425
		c0.1135-0.039,0.2843-0.0979,0.4446-0.0979c0.6275,0.0069,1.1379,0.5174,1.1371,1.1379
		C22.3041,19.9721,21.7937,20.4817,21.1662,20.4817z"/>
</g>
</svg>
