<svg xmlns="http://www.w3.org/2000/svg" width="28" height="25" viewBox="0 0 28 25"><g fill="#524947"><path d="M23.11 16.086l4.806-11.977c.209-.557 0-1.115-.279-1.532-.348-.557-.906-.836-1.532-.836h-22.19l-.488-1.184c0-.069-.07-.14-.139-.208l-.07-.07-.14-.139-.139-.07h-.139c-.069-.07-.139-.07-.209-.07h-1.685c-.488 0-.906.417-.906.905 0 .487.418.836.906.836h1.129l7.311 18.523c-.557.488-.975 1.254-.975 2.02 0 1.462 1.184 2.716 2.716 2.716 1.184 0 2.159-.766 2.576-1.811h5.129c.348 1.045 1.393 1.811 2.577 1.811 1.462 0 2.716-1.183 2.716-2.716 0-1.463-1.185-2.716-2.716-2.716-1.184 0-2.159.766-2.577 1.811h-5.129c-.348-1.045-1.392-1.811-2.576-1.811h-.139l-1.184-3.064h12.511s.695-.07.835-.418zm2.995-12.604l.139.139c-.488 1.253-3.622 9.122-4.526 11.282h-12.65l-4.526-11.421h21.563z"/><circle cx="10.062" cy="6.921" r="1.695"/><circle cx="21.115" cy="6.921" r="1.695"/><circle cx="15.554" cy="6.921" r="1.695"/><circle cx="12.977" cy="11.531" r="1.695"/><circle cx="18.401" cy="11.531" r="1.695"/></g></svg>