<?xml version="1.0" encoding="utf-8"?>
<!-- Generator: Adobe Illustrator 19.2.1, SVG Export Plug-In . SVG Version: 6.00 Build 0)  -->
<svg version="1.1" id="Layer_1" xmlns="http://www.w3.org/2000/svg" xmlns:xlink="http://www.w3.org/1999/xlink" x="0px" y="0px"
	 width="30px" height="27px" viewBox="0 0 30 27" style="enable-background:new 0 0 30 27;" xml:space="preserve">
<style type="text/css">
	.st0{display:none;}
	.st1{display:inline;}
	.st2{fill:none;}
	.st3{display:inline;fill:none;}
	.st4{display:inline;fill:#7D7873;}
	.st5{clip-path:url(#SVGID_2_);fill:none;stroke:#7D7873;stroke-width:0.4;stroke-miterlimit:10;}
	.st6{fill:#095B38;}
	.st7{clip-path:url(#SVGID_5_);fill:#095B38;}
	.st8{display:inline;opacity:0.5;fill:#FF33FA;enable-background:new    ;}
	.st9{fill:#524947;}
</style>
<g id="NEW" class="st0">
	<g class="st1">
		<path class="st2" d="M-12.5,41.2c0,0.5-0.5,1-1,1h-1.7c-1.1,0-1.6,0.9-1.6,1.5v3c-0.3-0.4-0.7-0.8-1-1.1c-0.7-0.8-1.4-1.6-2-2.3
			c-0.2-0.2-0.4-0.4-0.6-0.6v-2.2c0-1.2-1.2-2.5-2.5-2.5h-5.2v-4.5c0-0.5,0.5-1,1-1h13.6c0.5,0,1,0.5,1,1
			C-12.5,33.5-12.5,41.2-12.5,41.2z M-22,48.2c0,0.5-0.5,1-1,1h-5.2c-1,0-1.2,0.1-2.2,1c-0.6,0.7-1.3,1.5-2,2.3
			c-0.3,0.3-0.7,0.8-1,1.1v-3c0-0.6-0.4-1.5-1.6-1.5h-1.6c-0.4,0-1-0.5-1-1v-7.6c0-0.4,0.4-1,1-1h6.9h1.6h5.2c0.4,0,1,0.4,1,1v1.7
			v1.4v4.6H-22z M-13.5,31h-13.7c-1.2,0-2.5,1.2-2.5,2.5v4.6h-6.8c-1.3,0-2.5,1.2-2.5,2.4v7.7c0,1.3,1.1,2.5,2.5,2.5h1.7
			c0.1,0,0.2,0,0.2,0.2v4.3c0,0.4,0.3,0.7,0.5,0.8h0.2c0.6,0,1.2-0.7,2.8-2.5c0.6-0.8,1.3-1.6,1.9-2.2c0.7-0.7,0.7-0.7,1.2-0.7h5.2
			c1.3,0,2.5-1.1,2.5-2.5v-3.5c0.5,0.5,1,1.1,1.5,1.7c1.6,1.8,2.2,2.5,2.8,2.5c0.1,0,0.2,0,0.3-0.1c0.3-0.1,0.5-0.4,0.5-0.8v-4.3
			c0-0.2,0.1-0.2,0.2-0.2h1.7c1.3,0,2.5-1.1,2.5-2.5v-7.4C-11,32.2-12.2,31-13.5,31z M-49,21h48.2v45H-49V21z"/>
	</g>
	<path class="st3" d="M-16.2,15.5v1.3l0,0V15.5z M-32.6,23.7L-32.6,23.7L-32.6,23.7L-32.6,23.7z"/>
	<path class="st4" d="M18.7,11.5v-2c0-1.2-1.4-2.7-2.7-2.7h-5.2V2.7c0-0.5,0.5-1,1-1h13.3c0.5,0,1,0.5,1,1v7.5c0,0.5-0.5,1-1,1h-1.7
		c-1.1,0-1.6,0.9-1.6,1.5v2.8 M17.1,17.2c0,0.5-0.5,0.8-1,0.8h-5.3c-1,0-1.2,0.1-2.2,1c-0.6,0.7-1.3,1.7-2,2.5
		c-0.3,0.3-0.5,0.8-0.8,1.1v-3C5.9,19,5.4,18,4.3,18H2.7c-0.4,0-1-0.4-1-0.9V9.7c0-0.4,0.4-1,1-1h6.7H11h5.2c0.4,0,1,0.4,1,1
		 M25.3,0H11.7c-1.2,0-2.5,1.2-2.5,2.5v4.4H2.5C1.2,6.9,0,8.3,0,9.5v7.7c0,1.3,1.1,2.5,2.5,2.5h1.7c0.1,0,0.2,0,0.2,0.2v4.3
		c0,0.4,0.3,0.7,0.5,0.8h0.2c0.6,0,1.2-0.7,2.8-2.5c0.6-0.8,1.3-1.6,1.9-2.2c0.7-0.7,0.7-0.7,1.2-0.7h5.2c1.3,0,2.5-1.1,2.5-2.5
		v-3.5c0.5,0.5,1,1.1,1.5,1.7c1.6,1.8,2.2,2.5,2.8,2.5c0.1,0,0.2,0,0.3-0.1c0.3-0.1,0.5-0.4,0.5-0.8v-4.3c0-0.2,0.1-0.2,0.2-0.2h1.7
		c1.3,0,2.5-1.1,2.5-2.5V2.5C27.8,1.2,26.6,0,25.3,0z"/>
	<g class="st1">
		<g>
			<defs>
				<path id="SVGID_1_" d="M-32.9,15.9c0,0.5-0.5,1-1,1h-1.7c-1.1,0-1.6,0.9-1.6,1.5v3c-0.3-0.4-0.7-0.8-1-1.1
					c-0.7-0.8-1.4-1.6-2-2.3c-0.2-0.2-0.4-0.4-0.6-0.6v-2.2c0-1.2-1.2-2.5-2.5-2.5h-5.2V8.2c0-0.5,0.5-1,1-1h13.6c0.5,0,1,0.5,1,1
					V15.9z M-42.3,22.9c0,0.5-0.5,1-1,1h-5.2c-1,0-1.2,0.1-2.2,1c-0.6,0.7-1.3,1.5-2,2.3c-0.3,0.3-0.7,0.8-1,1.1v-3
					c0-0.6-0.4-1.5-1.6-1.5h-1.6c-0.4,0-1-0.5-1-1v-7.6c0-0.4,0.4-1,1-1h6.9h1.6h5.2c0.4,0,1,0.4,1,1v1.7v1.4v4.6H-42.3z M-33.9,5.7
					h-13.7c-1.2,0-2.5,1.2-2.5,2.5v4.6h-6.8c-1.3,0-2.5,1.2-2.5,2.4v7.7c0,1.3,1.1,2.5,2.5,2.5h1.7c0.1,0,0.2,0,0.2,0.2v4.3
					c0,0.4,0.3,0.7,0.5,0.8h0.2c0.6,0,1.2-0.7,2.8-2.5c0.6-0.8,1.3-1.6,1.9-2.2c0.7-0.7,0.7-0.7,1.2-0.7h5.2c1.3,0,2.5-1.1,2.5-2.5
					v-3.5c0.5,0.5,1,1.1,1.5,1.7c1.6,1.8,2.2,2.5,2.8,2.5c0.1,0,0.2,0,0.3-0.1c0.3-0.1,0.5-0.4,0.5-0.8v-4.3c0-0.2,0.1-0.2,0.2-0.2
					h1.7c1.3,0,2.5-1.1,2.5-2.5V8.2C-31.4,6.9-32.6,5.7-33.9,5.7z M-69.4-4.3h48.2v45h-48.2V-4.3z"/>
			</defs>
			<clipPath id="SVGID_2_">
				<use xlink:href="#SVGID_1_"  style="overflow:visible;"/>
			</clipPath>
			<path class="st5" d="M-32.9,15.9c0,0.5-0.5,1-1,1h-1.7c-1.1,0-1.6,0.9-1.6,1.5v3c-0.3-0.4-0.7-0.8-1-1.1c-0.7-0.8-1.4-1.6-2-2.3
				c-0.2-0.2-0.4-0.4-0.6-0.6v-2.2c0-1.2-1.2-2.5-2.5-2.5h-5.2V8.2c0-0.5,0.5-1,1-1h13.6c0.5,0,1,0.5,1,1V15.9z M-42.3,22.9
				c0,0.5-0.5,1-1,1h-5.2c-1,0-1.2,0.1-2.2,1c-0.6,0.7-1.3,1.5-2,2.3c-0.3,0.3-0.7,0.8-1,1.1v-3c0-0.6-0.4-1.5-1.6-1.5h-1.6
				c-0.4,0-1-0.5-1-1v-7.6c0-0.4,0.4-1,1-1h6.9h1.6h5.2c0.4,0,1,0.4,1,1v1.7v1.4v4.6H-42.3z M-33.9,5.7h-13.7
				c-1.2,0-2.5,1.2-2.5,2.5v4.6h-6.8c-1.3,0-2.5,1.2-2.5,2.4v7.7c0,1.3,1.1,2.5,2.5,2.5h1.7c0.1,0,0.2,0,0.2,0.2v4.3
				c0,0.4,0.3,0.7,0.5,0.8h0.2c0.6,0,1.2-0.7,2.8-2.5c0.6-0.8,1.3-1.6,1.9-2.2c0.7-0.7,0.7-0.7,1.2-0.7h5.2c1.3,0,2.5-1.1,2.5-2.5
				v-3.5c0.5,0.5,1,1.1,1.5,1.7c1.6,1.8,2.2,2.5,2.8,2.5c0.1,0,0.2,0,0.3-0.1c0.3-0.1,0.5-0.4,0.5-0.8v-4.3c0-0.2,0.1-0.2,0.2-0.2
				h1.7c1.3,0,2.5-1.1,2.5-2.5V8.2C-31.4,6.9-32.6,5.7-33.9,5.7z"/>
		</g>
	</g>
</g>
<g id="Layer_3" class="st0">
	<g class="st1">
		<g>
			<g>
				<path id="SVGID_3_" class="st6" d="M18.5,11.7V9.5C18.5,8.2,17.3,7,16,7h-4.6V2.8c0-0.5,0.5-0.9,0.9-0.9h12.8
					c0.5,0,0.9,0.5,0.9,0.9V10c0,0.5-0.5,0.9-0.9,0.9h-1.5c-1,0-1.6,0.8-1.6,1.5v2.9 M22,15.5L22,15.5 M5.7,22.5v-1.2v-1.7
					c0-0.8-0.6-1.5-1.6-1.5H2.5c-0.4,0-0.9-0.5-0.9-0.9V9.5c0-0.4,0.4-0.9,0.9-0.9h6.8h1.6H16c0.5,0,1,0.4,1,0.9v1.7v1.4v4.6l0,0
					l0,0c0,0.5-0.5,0.9-0.9,0.9H11c-1,0-1.2,0.1-2.2,1c-0.5,0.6-0.9,1.1-2,2.3c-0.1,0.1-0.2,0.2-0.5,0.5C5.9,22.2,5.8,22.4,5.7,22.5
					z M5.7,22.5L5.7,22.5L5.7,22.5L5.7,22.5z M18.6,13.6C18.6,13.7,18.6,13.7,18.6,13.6c0.1,0.2,0.3,0.3,0.4,0.5
					c0.3,0.3,0.5,0.6,1,1.2l0,0c1.5,1.7,2.4,2.5,2.4,2.5c0.3,0.1,0.6,0.2,0.9,0s0.3-0.5,0.3-0.9v-4.3c0-0.1,0-0.1,0.1-0.1h1.7
					c1.3,0,2.5-1.2,2.5-2.5V2.5C27.8,1.2,26.6,0,25.3,0H11.7c-1.2,0-2.5,1.2-2.5,2.5v4.6H2.5C1.2,7.1,0,8.3,0,9.5v7.7
					c0,1.4,1.1,2.5,2.5,2.5h1.7c0.1,0,0.1,0,0.1,0.1v4.3c0,0.4,0.2,0.7,0.5,0.8H5c0.5,0,0.8-0.3,2.8-2.5c0.6-0.8,1.3-1.6,1.9-2.2
					c0.5-0.5,0.6-0.6,0.7-0.6c0.1,0,0.2,0,0.4,0h5.1c1.3,0,2.5-1.2,2.5-2.5v-3.5H18.6z"/>
			</g>
			<g>
				<defs>
					<path id="SVGID_4_" d="M18.5,11.7V9.5C18.5,8.2,17.3,7,16,7h-4.6V2.8c0-0.5,0.5-0.9,0.9-0.9h12.8c0.5,0,0.9,0.5,0.9,0.9V10
						c0,0.5-0.5,0.9-0.9,0.9h-1.5c-1,0-1.6,0.8-1.6,1.5v2.9 M22,15.5L22,15.5 M5.7,22.5v-1.2v-1.7c0-0.8-0.6-1.5-1.6-1.5H2.5
						c-0.4,0-0.9-0.5-0.9-0.9V9.5c0-0.4,0.4-0.9,0.9-0.9h6.8h1.6H16c0.5,0,1,0.4,1,0.9v1.7v1.4v4.6l0,0l0,0c0,0.5-0.5,0.9-0.9,0.9
						H11c-1,0-1.2,0.1-2.2,1c-0.5,0.6-0.9,1.1-2,2.3c-0.1,0.1-0.2,0.2-0.5,0.5C5.9,22.2,5.8,22.4,5.7,22.5z M5.7,22.5L5.7,22.5
						L5.7,22.5L5.7,22.5z M18.6,13.6C18.6,13.7,18.6,13.7,18.6,13.6c0.1,0.2,0.3,0.3,0.4,0.5c0.3,0.3,0.5,0.6,1,1.2l0,0
						c1.5,1.7,2.4,2.5,2.4,2.5c0.3,0.1,0.6,0.2,0.9,0s0.3-0.5,0.3-0.9v-4.3c0-0.1,0-0.1,0.1-0.1h1.7c1.3,0,2.5-1.2,2.5-2.5V2.5
						C27.8,1.2,26.6,0,25.3,0H11.7c-1.2,0-2.5,1.2-2.5,2.5v4.6H2.5C1.2,7.1,0,8.3,0,9.5v7.7c0,1.4,1.1,2.5,2.5,2.5h1.7
						c0.1,0,0.1,0,0.1,0.1v4.3c0,0.4,0.2,0.7,0.5,0.8H5c0.5,0,0.8-0.3,2.8-2.5c0.6-0.8,1.3-1.6,1.9-2.2c0.5-0.5,0.6-0.6,0.7-0.6
						c0.1,0,0.2,0,0.4,0h5.1c1.3,0,2.5-1.2,2.5-2.5v-3.5H18.6z"/>
				</defs>
				<clipPath id="SVGID_5_">
					<use xlink:href="#SVGID_4_"  style="overflow:visible;"/>
				</clipPath>
				<rect x="-4.9" y="-4.9" class="st7" width="37.8" height="34.9"/>
			</g>
		</g>
	</g>
</g>
<g id="atual" class="st0">
	<path class="st8" d="M25.2,0H11.7c-1.2,0-2.5,1.2-2.5,2.5v4.6H2.5C1.2,7.1,0,8.3,0,9.5v7.7c0,1.3,1.1,2.5,2.5,2.5h1.7
		c0.1,0,0.2,0,0.2,0.2v4.3c0,0.4,0.3,0.7,0.5,0.8c0,0,0.1,0,0.2,0c0.6,0,1.2-0.7,2.8-2.5c0.6-0.8,1.3-1.6,1.9-2.2
		c0.7-0.7,0.7-0.7,1.2-0.7h5.1c1.3,0,2.5-1.1,2.5-2.5v-3.5c0.5,0.5,1,1.1,1.5,1.7c1.6,1.8,2.2,2.5,2.8,2.5c0.1,0,0.2,0,0.3-0.1
		c0.3-0.1,0.5-0.4,0.5-0.8v-4.3c0-0.2,0.1-0.2,0.2-0.2h1.7c1.3,0,2.5-1.1,2.5-2.5V2.4C27.7,1.2,26.5,0,25.2,0z M16.9,17.1
		c0,0.5-0.5,1-1,1h-5.1c-1,0-1.2,0.1-2.2,1c-0.6,0.7-1.3,1.5-2,2.3c-0.3,0.3-0.7,0.8-1,1.1v-3C5.6,18.9,5.2,18,4,18H2.5
		c-0.4,0-1-0.5-1-1V9.5c0-0.4,0.4-1,1-1h6.8h1.6H16c0.4,0,1,0.4,1,1v1.7v1.4L16.9,17.1L16.9,17.1z M26.2,10.2c0,0.5-0.5,1-1,1h-1.7
		c-1.1,0-1.6,0.9-1.6,1.5v3c-0.3-0.4-0.7-0.8-1-1.1c-0.7-0.8-1.4-1.6-2-2.3c-0.2-0.2-0.4-0.4-0.6-0.6V9.5c0-1.2-1.2-2.5-2.5-2.5
		h-5.1V2.4c0-0.5,0.5-1,1-1h13.5c0.5,0,1,0.5,1,1C26.2,2.4,26.2,10.2,26.2,10.2z"/>
</g>
<g id="FINAL">
	<path class="st9" d="M26.9,0H12.5c-1.3,0-2.7,1.3-2.7,2.7v4.9H2.7C1.3,7.6,0,8.9,0,10.2v8.3c0,1.4,1.2,2.7,2.7,2.7h1.8
		c0.1,0,0.2,0,0.2,0.2V26c0,0.4,0.3,0.8,0.5,0.9C5.3,27,5.4,27,5.5,27c0.6,0,1.3-0.8,3-2.7c0.6-0.9,1.4-1.7,2-2.4
		c0.7-0.8,0.7-0.8,1.3-0.8h5.5c1.4,0,2.7-1.2,2.7-2.7v-3.8c0.5,0.5,1.1,1.2,1.6,1.8c1.7,1.9,2.3,2.7,3,2.7c0.1,0,0.2,0,0.3-0.1
		c0.3-0.1,0.5-0.4,0.5-0.9v-4.6c0-0.2,0.1-0.2,0.2-0.2h1.8c1.4,0,2.7-1.2,2.7-2.7v-8C29.6,1.3,28.3,0,26.9,0z M17.8,18.2
		c0,0.5-0.6,1.1-1.2,1.1h-5.2c-1.1,0-1.4-0.1-2.4,0.9c-0.6,0.8-2.4,3.1-2.8,3.4v-2.7c0-0.6-0.4-1.7-1.7-1.7H3.1
		c-0.4,0-1.1-0.4-1.1-1v-7.7c0-0.4,0.4-1.1,1.1-1.1h13.8c0.4,0,1.1,0.4,1.1,1.1L17.8,18.2z M19.9,12.4V10c0-1.3-1.6-2.8-3-2.8h-5.2
		V2.9c0-0.5,0.5-1.1,1.1-1.1h13.8c0.5,0,1.1,0.5,1.1,1.1v7.7c0,0.5-0.5,1.1-1.1,1.1H25c-1.2,0-1.9,0.9-1.9,1.5V16
		C23.1,16,20.2,12.6,19.9,12.4z"/>
</g>
</svg>
