<svg xmlns="http://www.w3.org/2000/svg" width="20" height="14" viewBox="0 0 20 14"><g fill="#7D7873"><path d="M19.993 6.914l.007.192c.01.29-.082.482-.274.676-.192.194-.486.291-.683.291h-18.007c-.297 0-.5-.097-.705-.291-.206-.194-.309-.289-.319-.578l-.012-.29c-.009-.29.082-.486.274-.676.193-.196.487-.291.686-.291h18.005c.297 0 .499.095.705.292.205.189.315.48.323.675zM19.993.967l.007.192c.01.29-.082.482-.274.676-.192.194-.486.291-.683.291h-18.007c-.297 0-.5-.097-.705-.291-.206-.194-.309-.289-.319-.578l-.012-.29c-.009-.29.082-.486.274-.676.193-.196.487-.291.686-.291h18.005c.297 0 .499.095.705.292.205.189.315.48.323.675zM19.987 12.745l.011.29c.01.289-.082.484-.275.679-.191.19-.484.286-.683.286h-18.005c-.298 0-.5-.096-.706-.287-.205-.194-.314-.486-.321-.679l-.007-.193c-.012-.289.081-.483.273-.675.191-.193.486-.292.684-.292h18.005c.298 0 .501.099.706.292.202.098.307.29.318.579z"/></g></svg>