<?xml version="1.0" encoding="utf-8"?>
<!-- Generator: Adobe Illustrator 18.0.0, SVG Export Plug-In . SVG Version: 6.00 Build 0)  -->
<!DOCTYPE svg PUBLIC "-//W3C//DTD SVG 1.1//EN" "http://www.w3.org/Graphics/SVG/1.1/DTD/svg11.dtd">
<svg version="1.1" id="Layer_1" xmlns="http://www.w3.org/2000/svg" xmlns:xlink="http://www.w3.org/1999/xlink" x="0px" y="0px"
	 width="13px" height="13px" viewBox="0 0 13 13" style="enable-background:new 0 0 13 13;" xml:space="preserve">
<g>
	<path style="fill:#FDB933;" d="M6.5,1C9.5327,1,12,3.4673,12,6.5S9.5327,12,6.5,12S1,9.5327,1,6.5S3.4673,1,6.5,1 M6.5,0
		C2.9102,0,0,2.9102,0,6.5S2.9102,13,6.5,13S13,10.0899,13,6.5S10.0899,0,6.5,0L6.5,0z"/>
</g>
<path style="fill:#FDB933;" d="M6.4998,5.433c0.2899-0.3737,0.7138-0.9328,1.0031-1.2775c0.0641-0.0764-0.7977,0.0264-1.1137,0.0966
	c-0.316,0.0704-0.6126,0.1257-0.8898,0.1661c-0.2774,0.0406-0.5416,0.108-0.7618,0.1182C4.5175,4.5466,4.3407,4.5443,4.2074,4.5295
	c-0.1037-0.0093-0.174-0.0497-0.2113-0.1214c-0.0373-0.0715-0.0498-0.1582-0.0373-0.26c0.0124-0.1015,0.0603-0.2523,0.1126-0.368
	c0.052-0.1156,0.1174-0.2253,0.196-0.3292c0.0784-0.1036,0.1633-0.1952,0.2544-0.274c0.0909-0.0789,0.1837-0.1294,0.2781-0.1514
	c0.1596-0.0367,0.375-0.0341,0.6461,0.0079c0.271,0.0421,0.5607,0.0881,0.869,0.1383c0.3082,0.0504,0.6159,0.088,0.9228,0.113
	c0.3067,0.0251,0.6624-0.0182,0.8177-0.0784c0.1552-0.0602,0.2695-0.1098,0.4263-0.0706c0.1568,0.0393,0.2954,0.114,0.416,0.2241
	C9.0183,3.47,9.1069,3.6034,9.164,3.7597c0.0569,0.1565,0.0454,0.3056-0.0346,0.4474c-0.04,0.071-0.1063,0.1978-0.2681,0.3219
	C8.1841,5.0485,7.4325,5.867,6.9595,6.373c-1.0406,1.1131-1.282,1.5514-1.527,1.8815C5.098,8.7051,4.4156,9.8268,4.3183,9.9177
	c-0.1348,0.1259-0.2694,0.0798-0.3636,0.0417C3.8604,9.9211,3.7532,9.752,3.8227,9.5811c0.042-0.1034,1.228-2.043,1.485-2.431
	C5.5336,6.8371,6.148,5.8866,6.4998,5.433z"/>
</svg>
