<svg xmlns="http://www.w3.org/2000/svg" width="13" height="15" viewBox="0 0 13 15"><path fill="#E76A25" d="M10.8 8.3c-.6-1.2-.8-2.5-.8-3.9 0-.9-.3-1.5-.8-2s-1.2-.8-2.1-.9v-.2c0-.4-.3-.8-.8-.8-.3 0-.7.3-.7.8 0 .1 0 .2.1.3-.8.1-1.4.4-1.9.8-.6.5-.8 1.2-.8 2 0 1.3-.2 2.6-.8 3.9-.5 1.2-1.2 2.3-2.2 3.1 0 .3 0 .5.2.7s.5.3.7.3h3.5c0 .5.2 1 .6 1.4s.9.6 1.4.6 1-.2 1.5-.6c.4-.4.6-.9.6-1.4h3.5c.2 0 .5-.1.7-.3.2-.2.3-.5.3-.7-1-.8-1.7-1.9-2.2-3.1zm-4.4 5.5c-.4 0-.8-.2-1-.4-.2-.3-.4-.6-.4-1 0-.1.1-.2.2-.2s.2.1.2.2c0 .3.1.5.3.8.2.2.5.3.8.3.1 0 .2.1.2.2s-.2.1-.3.1zm-5-2.4c.9-.9 1.5-1.9 1.9-3.2.4-1.2.6-2.4.6-3.8s.9-2 2.5-2 2.5.7 2.5 2 .2 2.6.6 3.8c.5 1.2 1.1 2.2 1.9 3.2h-10z"/></svg>