<?xml version="1.0" encoding="utf-8"?>
<!-- Generator: Adobe Illustrator 18.0.0, SVG Export Plug-In . SVG Version: 6.00 Build 0)  -->
<!DOCTYPE svg PUBLIC "-//W3C//DTD SVG 1.1//EN" "http://www.w3.org/Graphics/SVG/1.1/DTD/svg11.dtd">
<svg version="1.1" id="Layer_1" xmlns="http://www.w3.org/2000/svg" xmlns:xlink="http://www.w3.org/1999/xlink" x="0px" y="0px"
	 width="13px" height="12px" viewBox="0 0 13 12" style="enable-background:new 0 0 13 12;" xml:space="preserve">
<path style="fill:#BCBAB7;" d="M11.3846,1.0769c0.2919,0,0.5385,0.2466,0.5385,0.5385v6.615c0,0.2919-0.2466,0.5385-0.5385,0.5385
	H2.5013c-0.2582,0-0.5077,0.0927-0.7033,0.2613L1.0783,9.6508c0-0.0024,0-0.0048,0-0.0071L1.0769,8.2304v-6.615
	c0-0.2919,0.2466-0.5385,0.5385-0.5385H11.3846 M11.3846,0H1.6154C0.7269,0,0,0.7269,0,1.6154v6.615
	c0,0.8885,0.0034,2.28,0.0034,3.7692l2.4979-2.1538h8.8834C12.2731,9.8458,13,9.1188,13,8.2304v-6.615
	C13,0.7269,12.2731,0,11.3846,0L11.3846,0z"/>
</svg>
