<svg xmlns="http://www.w3.org/2000/svg" width="28" height="25" viewBox="0 0 28 25"><g fill="#524947"><path d="M23.2 24h-17.3c-1 0-1.9-.9-1.9-1.9v-19.2c0-1 .9-1.9 1.9-1.9h17.1c1.3 0 2 .9 2 1.9v19c.2 1.2-.6 2.1-1.8 2.1zm-17.3-21.3l-.2.2v19c0 .2.2.3.3.3h17.2c.2 0 .3-.2.3-.3v-19c-.2-.2-.3-.2-.5-.2h-17.1z"/><ellipse cx="10.2" cy="8.1" rx="1.7" ry="1.7"/><ellipse cx="10.2" cy="12.8" rx="1.7" ry="1.7"/><ellipse cx="10.2" cy="17.3" rx="1.7" ry="1.7"/><path d="M12.9 7.4h7.4v1h-7.4v-1zm0 4.7h7.4v1h-7.4v-1zm0 4.6h7.4v1h-7.4v-1z"/></g></svg>