<?xml version="1.0" encoding="utf-8"?>
<!-- Generator: Adobe Illustrator 18.0.0, SVG Export Plug-In . SVG Version: 6.00 Build 0)  -->
<!DOCTYPE svg PUBLIC "-//W3C//DTD SVG 1.1//EN" "http://www.w3.org/Graphics/SVG/1.1/DTD/svg11.dtd">
<svg version="1.1" id="Layer_1" xmlns="http://www.w3.org/2000/svg" xmlns:xlink="http://www.w3.org/1999/xlink" x="0px" y="0px"
	 width="26px" height="23px" viewBox="0 0 26 23" style="enable-background:new 0 0 26 23;" xml:space="preserve">
<g>
	<g>
		<circle style="fill:#7D7873;" cx="7.3188" cy="6.5914" r="1.375"/>
		<rect x="9.8203" y="6.095" style="fill:#7D7873;" width="10.38" height="1.38"/>
	</g>
	<g>
		<circle style="fill:#7D7873;" cx="7.3188" cy="11.5914" r="1.375"/>
		<rect x="9.6784" y="11.095" style="fill:#7D7873;" width="10.38" height="1.38"/>
	</g>
</g>
<path style="fill:#7D7873;" d="M23,2c0.5421,0,1,0.4579,1,1v13c0,0.5421-0.4579,1-1,1H4.6452c-0.4795,0-0.943,0.1722-1.3061,0.4853
	l-1.3366,1.1525c0-0.0044,0-0.0089,0-0.0133L2,16V3c0-0.5421,0.4579-1,1-1H23 M23,0H3C1.35,0,0,1.35,0,3v13
	c0,1.65,0.0063,4.2344,0.0063,7l4.6389-4H23c1.65,0,3-1.35,3-3V3C26,1.35,24.65,0,23,0L23,0z"/>
</svg>
