<svg xmlns="http://www.w3.org/2000/svg" width="26" height="26" viewBox="0 0 26 26"><circle fill="#FDB933" cx="13" cy="13" r="13"/><g fill="#fff"><path d="M18.7 20.8h-11.4c-.7 0-1.4-.6-1.4-1.4v-12.8c0-.7.6-1.4 1.4-1.4h11.4c.7 0 1.4.6 1.4 1.4v12.9c0 .7-.7 1.3-1.4 1.3zm-11.4-14.5c-.1 0-.2.1-.2.2v12.9c0 .1.1.2.2.2h11.4c.1 0 .2-.1.2-.2v-12.8c0-.1-.1-.2-.2-.2 0-.1-11.4-.1-11.4-.1z"/><circle cx="10" cy="10" r="1.1"/><circle cx="10" cy="13.1" r="1.1"/><circle cx="10" cy="16.2" r="1.1"/><path d="M12 9.6h4.9v.7h-4.9v-.7zm0 3.1h4.9v.7h-4.9v-.7zm0 3.1h4.9v.7h-4.9v-.7z"/></g></svg>