<svg xmlns="http://www.w3.org/2000/svg" width="176" height="144" viewBox="0 0 176 144"><path fill="#BCBAB7" d="M142.8 95.4c2.1 0 3.9-1.3 4.8-3.1 0 0 26.8-67.1 27.5-68.9 1.3-3 0-6.5-1.5-8.8-2.1-3.1-5.3-4.9-8.8-4.9h-138.1l-.4.1-2.6-6.8c-.1-.4-.5-.8-.8-1.1l-.4-.5c-.3-.3-.6-.5-1-.6l-.6-.4c-.3-.1-.5-.1-.8-.1-.3-.1-.8-.3-1.2-.3h-13.4c-2.8-.3-5.1 1.9-5.1 4.8 0 2.8 2.3 5.1 5.1 5.1h9.9l42.2 106.7c-3.4 2.9-5.5 7-5.5 11.8 0 8.6 7 15.5 15.5 15.5 6.8 0 12.5-4.4 14.6-10.5h40c2.1 6.1 7.9 10.5 14.6 10.5 8.6 0 15.6-7 15.6-15.5 0-8.6-7-15.5-15.6-15.5-6.8 0-12.5 4.4-14.6 10.5h-40c-2.1-6.1-7.9-10.5-14.6-10.5-.3 0-.5 0-.6.1l-6.9-17.5h82.7v-.1zm21.9-75.7c.1.1.5.4.6.8-2.9 7.1-20.9 52.3-25.9 64.8h-83.4l-25.8-65.6h134.5zm-38.4 54c-6.4-4.8-14.8-8.1-26.5-8.1-11.5 0-19.8 3.5-26.3 8.1v-4.5c5.4-4.1 13.6-8.5 26.3-8.5 12.8.1 21 4.4 26.5 8.5v4.5zm-13.7-28.2c-3.8 0-6.9-3.1-6.9-6.9s3.1-6.9 6.9-6.9c3.8 0 6.9 3.1 6.9 6.9s-3 6.9-6.9 6.9zm-29.6 0c-3.8 0-6.9-3.1-6.9-6.9s3.1-6.9 6.9-6.9c3.8 0 6.9 3.1 6.9 6.9s-3.2 6.9-6.9 6.9z"/></svg>