<svg xmlns="http://www.w3.org/2000/svg" width="16" height="18" viewBox="0 0 16 18"><path fill="#DADADA" d="M5.8 7v7c0 .1 0 .2-.1.2 0 0-.1.1-.2.1h-.8c-.1 0-.2 0-.2-.1s-.1-.1-.1-.2v-7c0-.1 0-.2.1-.2s.1-.1.2-.1h.7c.1 0 .2 0 .2.1.2 0 .2 0 .2.2zm9.8-2.5h-15.3c-.1 0-.2 0-.2-.1s-.1-.1-.1-.2v-.8c0-.1 0-.2.1-.2 0 0 .1-.1.2-.1h15.2c.1 0 .2 0 .2.1 0 0 .1.1.1.2v.7c0 .1 0 .2-.1.2.1.2 0 .2-.1.2zm-6.9 2.5v7c0 .1 0 .2-.1.2 0 0-.1.1-.2.1h-.8c-.1 0-.2 0-.2-.1 0 0-.1-.1-.1-.2v-7c0-.1 0-.2.1-.2 0 0 .1-.1.2-.1h.7c.1 0 .2 0 .2.1.2 0 .2 0 .2.2zm2.9 0v7c0 .1 0 .2-.1.2s-.1.1-.2.1h-.7c-.1 0-.2 0-.2-.1s-.1-.1-.1-.2v-7c0-.1 0-.2.1-.2s.1-.1.2-.1h.7c.1 0 .2 0 .2.1s.1 0 .1.2z"/><path d="M13 4.6h-10v11.6c0 .1 0 .2.1.3h9.6l.1-.1s.1-.1.1-.3v-.4l.1-11.1z" fill="none"/><path fill="#DADADA" d="M14.5 3.1h-2.3l-.8-2c-.1-.3-.3-.5-.6-.7s-.7-.4-1-.4h-3.6c-.3 0-.6.1-.9.3-.3.2-.5.6-.6.8l-.8 2h-2.4v12.6c0 .6.1 1.1.5 1.6.3.5.8.7 1.3.7h9.5c.5 0 .9-.2 1.2-.7.3-.4.5-1 .5-1.6v-12.6zm-8.5-1.5l.1-.1h3.6l.2.1.5 1.4h-5l.6-1.4zm6.3 14.9h-8.7c-.6 0-.6-.7-.6-1.2v-10.7h10v10.6c0 .5.1 1.3-.7 1.3z"/></svg>