<svg xmlns="http://www.w3.org/2000/svg" viewBox="0 0 425 163" enable-background="new 0 0 425 163"><path d="M3.5 102.9l67-97.7h33.4v92.9h19.8v22h-19.8v39.9h-28v-39.9h-72.4v-17.2zm29.2-5.2v.4h43.2v-51.7c0-3.3.2-6.1.7-8.7l.7-4.6h-.7l-1.8 3.9c-1.1 2.4-2.6 5-4.4 7.8l-37.7 52.9zm268.2 5.2l66.9-97.7h33.4v92.9h19.8v22h-19.8v39.9h-27.9v-39.9h-72.4v-17.2zm29.2-5.2v.4h43.2v-51.7c0-3.3.2-6.1.7-8.7l.7-4.6h-.7l-1.7 3.9c-1.1 2.4-2.6 5-4.4 7.8l-37.8 52.9zm-116.8 61.9c-43.4 0-78.8-35.3-78.8-78.8s35.3-78.8 78.8-78.8c43.4 0 78.7 35.3 78.7 78.8s-35.3 78.8-78.7 78.8zm0-153.5c-41.2 0-74.8 33.5-74.8 74.8s33.5 74.8 74.8 74.8 74.7-33.6 74.7-74.8-33.5-74.8-74.7-74.8zm0 15.3c-32.9 0-59.5 26.6-59.5 59.5s26.6 59.5 59.5 59.5 59.5-26.6 59.5-59.5-26.6-59.5-59.5-59.5zm-16.8 85.9c-5.3 0-9.7-4.3-9.7-9.7 0-5.3 4.3-9.7 9.7-9.7 5.3 0 9.7 4.3 9.7 9.7 0 5.4-4.3 9.7-9.7 9.7zm0-33.5c-5.3 0-9.7-4.3-9.7-9.7 0-5.3 4.3-9.7 9.7-9.7 5.3 0 9.7 4.3 9.7 9.7 0 5.3-4.3 9.7-9.7 9.7zm34.1 33.5c-5.3 0-9.7-4.3-9.7-9.7 0-5.3 4.3-9.7 9.7-9.7 5.3 0 9.7 4.3 9.7 9.7 0 5.4-4.4 9.7-9.7 9.7zm0-33.5c-5.3 0-9.7-4.3-9.7-9.7 0-5.3 4.3-9.7 9.7-9.7 5.3 0 9.7 4.3 9.7 9.7 0 5.3-4.4 9.7-9.7 9.7z" fill="#DFDDDD"/></svg>