<svg xmlns="http://www.w3.org/2000/svg" width="122" height="26" viewBox="0 0 122 26"><path fill="#013F7D" d="M42 10c0-.7-.2-1.2-.6-1.5-.4-.3-1-.4-1.6-.4-.9 0-2.1.3-2.1 1.5 0 1.3 2.7 1.5 4.5 2.1 3.1 1.1 4.2 2.9 4.2 5 0 4.3-4.2 6.4-8.1 6.4-4.1 0-7.9-1.9-7.6-6.5h5.3c0 1 .2 1.6.7 2.1.5.4 1.1.4 2.1.4 1.1 0 2.4-.5 2.4-1.8s-1.8-1.5-4.3-2.3c-2.2-.7-4.3-1.9-4.3-4.9 0-4.1 3.9-6 7.5-6 3.8 0 7.2 1.5 7.1 5.9h-5.2zm8.8-5.4h14.8l-.9 4.6h-9.3l-.5 2.2h8.6l-.9 4.3h-8.6l-.5 2.3h9.5l-1 4.6h-15l3.8-18zm17.4 0h8.3c3.3 0 7.4 2.1 7.1 8-.3 6-4 10.1-10.3 10.1h-8.9l3.8-18.1zm2.8 13.4h2.7c3.6 0 4.5-3.8 4.5-5.4 0-2.7-1.4-3.3-3.3-3.3h-2.1c0-.1-1.8 8.7-1.8 8.7zm16.8-13.4h14.8l-.9 4.6h-9.3l-.5 2.2h8.6l-.9 4.3h-8.6l-.5 2.3h9.5l-1 4.6h-15l3.8-18zm20.5 8.5l-4.1-8.5h6l1.8 4.7 3.6-4.7h6.5l-7.4 8.5 4.3 9.5h-6.2l-2-5-4.2 5h-6.8l8.5-9.5z"/><ellipse fill="#FCDB00" cx="12.9" cy="13" rx="12.9" ry="13"/><path fill="#013F7D" d="M21.7 16.8c-.4 1.2-1.8 5.6-9.5 5.6-6.3 0-8.9-3.6-8.9-8 0-8.2 6.3-10.9 10.7-10.9 4 0 8.8 2.2 8.8 7.8 0 1-.1 2-.4 3.1h-12.7c0 1.9.7 3.5 2.8 3.5 1.5 0 2.4-.7 2.7-1.3l6.5.2zm-5.4-5.8c.1-.2.1-.4.1-.6 0-1.3-.8-2.4-2.6-2.4s-3 1.1-3.6 3h6.1z"/><path fill="#FCDB00" d="M12.7 24.7h109.3v1.3h-109.3v-1.3z"/></svg>