<svg xmlns="http://www.w3.org/2000/svg" width="116" height="28" viewBox="0 0 116 28"><path fill="#013F7D" d="M108.7 28h-108.7l7.3-28h108.7l-7.3 28z"/><path fill="#FCDB00" d="M34.1 4.3h9.4c3.5 0 5.7 1.9 5.7 6.2 0 3.9-3.2 7.3-8.2 7.3h-3.9l-1.2 5.9h-5.7l3.9-19.4zm4 8.9h2.3c2.3 0 3.1-.9 3.1-2.2 0-1.5-1.3-1.8-2.5-1.8h-2l-.9 4zm18.2-8.9h5.7l3 19.4h-5.7l-.3-2.7h-6.2l-1.5 2.8h-6l11-19.5zm-1.4 12.5h3.6l-.6-5.8-3 5.8zm30.4-.5c-.4 2-1.9 7.8-9.7 7.8-5.5 0-8.2-3.7-8.2-8.9 0-6.3 3.8-11.5 10.3-11.5 4.2 0 8 1.9 8.1 7.7h-5.5c0-1.8-.8-2.8-2.6-2.8-3.2 0-4.4 3.8-4.4 6.5 0 1.6.4 4.1 3 4.1 1.9 0 2.9-1.3 3.2-3 .1.1 5.8.1 5.8.1z"/></svg>