<svg xmlns="http://www.w3.org/2000/svg" width="112" height="26" viewBox="0 0 112 26"><path fill="#013F7D" d="M104.8 26h-104.8l7.1-26h104.8l-7.1 26z"/><path fill="#FCDB00" d="M21 9.4c0-.7-.2-1.2-.6-1.5-.4-.3-1-.4-1.7-.4-.9 0-2.2.3-2.2 1.5 0 1.3 2.7 1.4 4.5 2.1 3.2 1.1 4.3 2.8 4.3 5 0 4.3-4.3 6.4-8.3 6.4-4.2 0-8-1.9-7.8-6.5h5.5c0 1 .2 1.6.7 2.1.5.4 1.2.5 2.1.5 1.1 0 2.5-.5 2.5-1.8s-1.9-1.5-4.4-2.3c-2.2-.7-4.4-1.9-4.4-4.9 0-4.1 4-5.9 7.7-5.9 3.9 0 7.4 1.4 7.3 5.9-.1-.2-5.2-.2-5.2-.2zm8.9-5.4h15.1l-.9 4.6h-9.5l-.5 2.3h8.8l-.9 4.2h-8.8l-.5 2.3h9.7l-1 4.6h-15.3l3.8-18zm17.8 0h8.4c3.4 0 7.6 2.1 7.3 8-.2 5.9-4.1 10-10.4 10h-9c-.1 0 3.7-18 3.7-18zm2.9 13.4h2.7c3.7 0 4.5-3.8 4.5-5.4 0-2.7-1.4-3.4-3.3-3.4h-2.1l-1.8 8.8zm17.1-13.4h15.1l-.9 4.6h-9.5l-.5 2.3h8.8l-.9 4.3h-8.8l-.5 2.3h9.7l-1 4.6h-15.4c0-.1 3.9-18.1 3.9-18.1zm21 8.5l-4.3-8.5h6.1l1.8 4.7 3.7-4.7h6.7l-7.7 8.5 4.4 9.5h-6.4l-2-5-4.2 5h-6.8l8.7-9.5z"/></svg>