<svg xmlns="http://www.w3.org/2000/svg" viewBox="0 0 418 302" enable-background="new 0 0 418 302"><path fill="#DFDDDD" d="M357 161.8s-.7-9-1.1-13.5v-.30000000000000004c-.4-3.3-3.2-3.7-4.4-3.7h-.5s-5.9.5-9.2.7h-.3c-3.1 0-3.8-4.2-3.8-4.3-.2-.9-1.3-5.9-3.4-12.1-.5-1.5-.7-2.7-.7-3.7 0-3 1.9-3.6 1.9-3.6s4.7-2.4 8.5-4.3c1.7-.9 2.2-2.2 2.2-3.3 0-1.4-.7-2.6-.7-2.6s-4.4-8.7-6.4-12.6l-.1-.2h-.1c-.9-1.6-2.2-2-3.3-2-1.4 0-2.6.7-2.6.7s-6.2 3.2-8 4.1c-.4.2-.7.3-1.1.3-1.7 0-3.8-1.3-4.3-2.1-.5-1-6-8-9.1-11.7-1.2-1.5-1.6-2.7-1.6-3.5 0-1.2.8-1.7.8-1.7s3.3-4 6.2-7.3c.9-1.1 1.2-2.1 1.2-2.9 0-1.8-1.4-3-1.4-3s-8.2-7-11.2-9.6h-.1c-.9-.7-1.7-1-2.5-1-1.8 0-3.1 1.4-3.1 1.4l-.3.3c-1 1.3-4.9 5.8-6.4 7.5-.5.6-1.3.8-2 .8-1.6 0-3.5-1-3.5-1-2.2-2-10.3-5.6-13.9-7.9-1.7-1.1-2.2-2.2-2.2-3 0-.9.5-1.5.5-1.5s0-.2.2-.7c.4-1.3 1.4-4.4 2.5-7.7.2-.6.3-1.2.3-1.7 0-3.1-3.2-3.9-3.2-3.9l-.5-.2c-1.9-.6-9.4-3.1-13-4.2h-.1c-.6-.2-1.1-.3-1.5-.3-2.8 0-3.8 2.9-3.8 2.9s-2.5 7.7-3.2 9.7v.1c-.5 1.3-2.7 1.6-4.1 1.6h-1.1c-1.9-.5-8.8-1.2-13.7-1.6-4.9-.4-5-3.4-5-3.4s-.3-3.8-.7-9c-.3-3.9-2.9-4.4-4.2-4.5h-.7999999999999999s-9.7.8-13.9 1.1c-3.9.3-4 4.2-4 4.6v.2c.1 1 .5 6.8.7 9.3v.3c0 2.2-1.9 3.2-3.7 3.7l-.6.1c-2 .4-8.5 2-13.6 3.9h-.2c-.9.3-1.6.4-2.2.4-3.1 0-3.9-2.9-3.9-3 0 0-1.1-2.2-3.4-6.6v-.1l-.1-.1c-1.2-2.2-2.8-2.7-4-2.7-1 0-1.8.4-1.8.4s-9.6 4.9-13.2 6.7c-1.6.8-2.1 2.2-2.1 3.3 0 1.3.6 2.4.6 2.4s3.2 6.2 4.2 8.2c.2.5.3 1 .3 1.4 0 1.6-1.2 3.1-2.5 4-1.7 1.2-6.8 5.1-11.1 8.7l-.1.1h-.1c-1.4 1.1-2.6 1.5-3.6 1.5-1.9 0-3-1.4-3.1-1.5l-6.2-5.2c-1-.8-1.9-1.1-2.7-1.1-1.6 0-2.9 1-2.9 1s-5.8 6.7-8.9 10.4l-.6.7-.2.2c-.9 1-1.2 2-1.2 2.8 0 2 1.6 3.3 1.6 3.3s5.1 4.4 7.3 6.2c.7.6.9 1.4.9 2.3 0 1.7-1 3.5-1 3.5-1.9 2.4-4.6 7.9-7.1 12.7-1.2 2.4-2.8 3-4 3-1.1 0-2-.5-2-.5s-3.7-1.2-7.7-2.5c-.6-.2-1.2-.3-1.7-.3-2.8 0-3.9 2.6-3.9 2.6s-2.8 8.6-4.3 13.3c-1.5 4.7 2.3 6.1 2.3 6.1s7 2.3 9.5 3.1c2.5.8 2.1 5.3 2.1 5.3-.5 2.2-1.2 8.8-1.7 14-.4 4.8-3.8 5-4.3 5h-.1s-2.6.2-8 .6c-5.5.4-4.4 5.5-4.4 5.5s.5 7 1 12.6c.3 4.3 3 4.8 4.2 4.8l.6-.1s5.8-.4 8-.6h.6c2 0 4.3.9 4.8 3.9.6 3.3 3.3 10.8 4.1 14.8.8 4-1.4 4.6-1.4 4.6s-3.3 1.7-8.1 4.1c-4.8 2.4-2.1 6.6-2.1 6.6l6.3 12.3c.9 1.7 2.2 2.2 3.4 2.2 1.7 0 3.3-1 3.3-1s5.3-2.7 7.6-3.9c.4-.2.9-.3 1.3-.3 1.8 0 3.5 1.6 4.4 3.2 1.2 2 6.3 8.1 8.9 11.3 2.6 3.2.2 5.2.2 5.2s-2.8 3.2-5.6 6.6c-2.9 3.4.1 6.3.1 6.3s6.9 6.3 10.8 9.2c1.1.8 2.1 1.1 3 1.1 2.2 0 3.5-1.8 3.5-1.8s5.1-5.9 6.1-7.1c.5-.5 1.3-.8 2.3-.8 1.1 0 2.3.3 3.3 1 1.9 1.3 8.4 4.9 12.5 7 4.1 2.1 2.9 5.2 2.9 5.2s-.6 2-2.5 7.6c-1.8 5.6 2.2 6.6 2.2 6.6s7.8 2.6 13 4.2c.8.3 1.5.4 2.2.4 3.2 0 4-3 4-3s2-6.2 3-9.1c.5-1.6 2.2-2.1 3.8-2.1 1.4 0 2.7.3 3.5.4 1.7.3 6.9.9 12.2 1.3 5.3.4 4.7 4.2 4.7 4.2s.4 4.6.7 8.8c.3 3.5 3.7 3.8 4.9 3.8h.4s7.1-.5 12.6-1c5.5-.4 4.8-5.1 4.8-5.1s-.4-5-.7-8.5c-.3-3.5 3.6-4.6 5-4.8 1.4-.2 7-1.8 12.5-3.6 1.1-.3 2-.5 2.7-.5 3.2 0 3.7 2.5 3.7 2.5s2.5 4.8 4.1 8c.8 1.6 2.2 2 3.4 2 1.1 0 2.1-.3 2.1-.3s8.8-4.5 13-6.7c4.2-2.1 1.5-6.3 1.5-6.3s-2.6-5.1-3.8-7.5c-1.2-2.4.5-4.7 2.7-6.2 2.3-1.5 8.2-6.3 11.5-9 1.1-.8 2-1.1 2.8-1.1l1 .2c.8.3 1.2 1 1.2 1s2.5 2.2 6.4 5.5c1.2 1 2.4 1.4 3.3 1.4 2 0 3.3-1.6 3.4-1.7 0 0 6.3-7.3 9.2-10.8.9-1 1.2-1.9 1.2-2.7 0-2.1-2-3.5-2-3.5s-5-4.2-7.2-6.1c-.7-.6-.9-1.3-.9-2.1 0-1.8 1.3-3.7 1.3-3.7 1.1-1.5 5.2-9 7.5-13.3l.1-.1.1-.1c1-1.7 2.1-2.2 3.1-2.2 1.2 0 2.2.8 2.2.8s2.3.7 7.4 2.4h.1c.7.2 1.4.3 1.9.3 3.3 0 4-3.3 4-3.4 0 0 2.7-8.4 4.2-13 .2-.7.3-1.3.3-1.8 0-3.1-3.2-3.9-3.2-3.9l-8.4-2.7c-1.7-.6-2.7-2.2-2.7-4.2 0-.4.1-.9.1-1.4.6-2.6 1.3-11.1 1.8-15.2v-.6c.5-1.4 1.4-2.1 2.3-2.4h.1l.3-.1.2-.1h1s3.4-.3 8.4-.6c3.5-.3 4-2.8 4-4.3.9-1.4.8-1.8.8-1.8zm-136.2 105.3h-.7c-55.9-.4-100.9-45.9-100.5-101.8.4-55.6 45.6-100.5 101.1-100.5h.6c55.8.4 100.8 45.9 100.5 101.8-.3 55.7-45.5 100.5-101 100.5zM416 51.2s-.3-3.4-.4-5.1v-.1c-.1-1.2-1.2-1.4-1.7-1.4h-.2s-2.2.2-3.5.3h-.1c-1.2 0-1.5-1.6-1.5-1.6-.1-.4-.5-2.2-1.3-4.6-.2-.6-.3-1-.3-1.4 0-1.1.7-1.3.7-1.3l3.2-1.6c.7-.3.8-.8.8-1.3s-.3-1-.3-1-1.7-3.3-2.4-4.8v-.1c-.3-.6-.8-.8-1.2-.8-.5 0-1 .3-1 .3s-2.3 1.2-3 1.5c-.1.1-.3.1-.4.1-.6 0-1.4-.5-1.6-.8-.2-.4-2.3-3-3.5-4.4-.5-.6-.6-1-.6-1.3 0-.5.3-.6.3-.6s1.3-1.5 2.3-2.8c.3-.4.5-.8.5-1.1 0-.7-.5-1.1-.5-1.1s-3.1-2.7-4.2-3.6c-.3-.3-.7-.4-1-.4-.7 0-1.2.5-1.2.5l-.1.1c-.4.5-1.9 2.2-2.4 2.8-.2.2-.5.3-.8.3-.6 0-1.3-.4-1.3-.4-.8-.8-3.9-2.1-5.2-3-.6-.4-.8-.8-.8-1.1 0-.3.2-.6.2-.6s0-.1.1-.3c.2-.5.5-1.6 1-2.9.1-.2.1-.5.1-.7 0-1.2-1.2-1.5-1.2-1.5l-.2-.1-4.9-1.6c-.2-.1-.4-.1-.6-.1-1.1 0-1.4 1.1-1.4 1.1s-.9 2.9-1.2 3.7c-.2.5-1 .6-1.6.6h-.4c-.7-.2-3.3-.5-5.2-.6-1.9-.2-1.9-1.3-1.9-1.3s-.1-1.4-.3-3.4c-.1-1.5-1.1-1.7-1.6-1.7h-.3s-3.7.3-5.2.4c-1.5.1-1.5 1.6-1.5 1.8v.1c0 .4.2 2.6.3 3.5v.1c0 .8-.7 1.2-1.4 1.4h-.2c-.8.2-3.2.8-5.1 1.5-.3.1-.6.2-.8.2-1.2 0-1.5-1.1-1.5-1.1s-.4-.8-1.3-2.5c-.5-.8-1.1-1-1.5-1-.4 0-.7.2-.7.2l-5 2.5c-.6.3-.8.8-.8 1.2 0 .5.2.9.2.9s1.2 2.3 1.6 3.1c.1.2.1.4.1.5 0 .6-.4 1.2-.9 1.5-.7.4-2.6 1.9-4.2 3.3-.5.4-1 .6-1.3.6-.7 0-1.2-.5-1.2-.6l-2.3-2c-.4-.3-.7-.4-1-.4-.6 0-1.1.4-1.1.4s-2.2 2.5-3.4 3.9l-.2.3-.1.1c-.3.4-.4.7-.4 1.1 0 .7.6 1.3.6 1.3s1.9 1.6 2.8 2.3c.3.2.4.5.4.9 0 .6-.4 1.3-.4 1.3-.7.9-1.8 3-2.7 4.8-.5.9-1.1 1.1-1.5 1.1-.4 0-.7-.2-.7-.2s-1.4-.5-2.9-.9c-.2-.1-.4-.1-.6-.1-1 0-1.5 1-1.5 1s-1.1 3.3-1.6 5c-.6 1.8.9 2.3.9 2.3s2.6.9 3.6 1.2c1 .3.8 2 .8 2-.2.8-.5 3.3-.6 5.3-.2 1.8-1.4 1.9-1.6 1.9 0 0-1 .1-3 .2-2.1.2-1.7 2.1-1.7 2.1s.2 2.7.4 4.8c.1 1.6 1.1 1.8 1.6 1.8h.2s2.2-.2 3-.2h.2c.8 0 1.6.3 1.8 1.5.2 1.3 1.2 4.1 1.5 5.6.3 1.5-.5 1.7-.5 1.7s-1.2.6-3 1.6c-1.8.9-.8 2.5-.8 2.5s1.6 3.1 2.4 4.6c.3.7.8.8 1.3.8.6 0 1.2-.4 1.2-.4s2-1 2.9-1.5c.2-.1.3-.1.5-.1.7 0 1.3.6 1.6 1.2.4.7 2.4 3.1 3.4 4.3 1 1.2.1 2 .1 2s-1 1.2-2.1 2.5 0 2.4 0 2.4 2.6 2.4 4.1 3.5c.4.3.8.4 1.1.4.8 0 1.3-.7 1.3-.7s1.9-2.2 2.3-2.7c.2-.2.5-.3.9-.3s.9.1 1.3.4c.7.5 3.2 1.9 4.7 2.6 1.6.8 1.1 2 1.1 2s-.2.7-.9 2.9c-.7 2.1.8 2.5.8 2.5s3 1 4.9 1.6c.3.1.6.1.8.1 1.2 0 1.5-1.1 1.5-1.1s.8-2.3 1.1-3.5c.2-.6.8-.8 1.4-.8.5 0 1 .1 1.3.2.7.1 2.6.3 4.6.5 2 .2 1.8 1.6 1.8 1.6s.1 1.7.3 3.3c.1 1.3 1.4 1.4 1.9 1.4h.2s2.7-.2 4.8-.4c2.1-.2 1.8-1.9 1.8-1.9s-.1-1.9-.3-3.2c-.1-1.3 1.4-1.7 1.9-1.8.5-.1 2.6-.7 4.7-1.4.4-.1.7-.2 1-.2 1.2 0 1.4 1 1.4 1l1.5 3c.3.6.8.8 1.3.8.4 0 .8-.1.8-.1s3.3-1.7 4.9-2.5c1.6-.8.6-2.4.6-2.4s-1-1.9-1.5-2.8c-.5-.9.2-1.8 1-2.3.9-.6 3.1-2.4 4.4-3.4.4-.3.8-.4 1-.4l.4.1c.3.1.5.4.5.4s1 .8 2.4 2.1c.5.4.9.5 1.3.5.8 0 1.2-.6 1.3-.6 0 0 2.4-2.8 3.5-4.1.3-.4.4-.7.4-1 0-.8-.7-1.3-.7-1.3s-1.9-1.6-2.7-2.3c-.3-.2-.3-.5-.3-.8 0-.7.5-1.4.5-1.4.4-.5 2-3.4 2.8-5 .4-.6.8-.8 1.2-.8.5 0 .8.3.8.3s.9.3 2.8.9c.3.1.5.1.7.1 1.2 0 1.5-1.3 1.5-1.3s1-3.2 1.6-4.9c.1-.2.1-.5.1-.7 0-1.2-1.2-1.5-1.2-1.5l-3.2-1c-.6-.2-1-.8-1-1.6 0-.2 0-.3.1-.5.2-1 .5-4.2.7-5.8v-.1c.2-.5.5-.8.9-.9h.6s1.3-.1 3.2-.2c1.3-.1 1.5-1.1 1.5-1.6-.4-1.2-.5-1.3-.5-1.3zm-51.5 39.8h-.2c-21.1-.1-38.1-17.3-38-38.5.1-21 17.2-38 38.2-38h.2c21.1.1 38.1 17.4 38 38.5-.1 21-17.2 38-38.2 38zM102.3 247.3s-.3-3.4-.4-5.1v-.1c-.1-1.2-1.2-1.4-1.7-1.4h-.2s-2.2.2-3.5.3h-.1c-1.2 0-1.5-1.6-1.5-1.6-.1-.4-.5-2.2-1.3-4.6-.2-.6-.3-1-.3-1.4 0-1.1.7-1.3.7-1.3l3.2-1.6c.7-.3.8-.8.8-1.3s-.3-1-.3-1-1.7-3.3-2.4-4.8v-.1c-.3-.6-.8-.8-1.2-.8-.5 0-1 .3-1 .3s-2.3 1.2-3 1.5c-.1.1-.3.1-.4.1-.6 0-1.4-.5-1.6-.8-.2-.4-2.3-3-3.5-4.4-.5-.6-.6-1-.6-1.3 0-.5.3-.6.3-.6s1.3-1.5 2.3-2.8c.3-.4.5-.8.5-1.1 0-.7-.5-1.1-.5-1.1s-3.1-2.7-4.2-3.6c-.3-.3-.7-.4-1-.4-.7 0-1.2.5-1.2.5l-.1.1c-.4.5-1.9 2.2-2.4 2.8-.2.2-.5.3-.8.3-.6 0-1.3-.4-1.3-.4-.8-.8-3.9-2.1-5.2-3-.6-.4-.8-.8-.8-1.1 0-.3.2-.6.2-.6s0-.1.1-.3c.2-.5.5-1.6 1-2.9.1-.2.1-.5.1-.7 0-1.2-1.2-1.5-1.2-1.5l-.2-.1-4.9-1.6c-.2-.1-.4-.1-.6-.1-1.1 0-1.4 1.1-1.4 1.1s-.9 2.9-1.2 3.7c-.2.5-1 .6-1.6.6h-.4c-.7-.2-3.3-.5-5.2-.6-1.9-.2-1.9-1.3-1.9-1.3s-.1-1.4-.3-3.4c-.1-1.5-1.1-1.7-1.6-1.7h-.3s-3.7.3-5.2.4c-1.5.1-1.5 1.6-1.5 1.8v.1c0 .4.2 2.6.3 3.5v.1c0 .8-.7 1.2-1.4 1.4h-.2c-.8.2-3.2.8-5.1 1.5-.3.1-.6.2-.8.2-1.2 0-1.5-1.1-1.5-1.1s-.4-.8-1.3-2.5c-.5-.8-1.1-1-1.5-1-.4 0-.7.2-.7.2l-5 2.5c-.6.3-.8.8-.8 1.2 0 .5.2.9.2.9s1.2 2.3 1.6 3.1c.1.2.1.4.1.5 0 .6-.4 1.2-.9 1.5-.7.4-2.6 1.9-4.2 3.3-.5.4-1 .6-1.3.6-.7 0-1.2-.5-1.2-.6l-2.3-2c-.4-.3-.7-.4-1-.4-.6 0-1.1.4-1.1.4s-2.2 2.5-3.4 3.9l-.2.3-.1.1c-.3.4-.4.7-.4 1.1 0 .7.6 1.3.6 1.3s1.9 1.6 2.8 2.3c.3.2.4.5.4.9 0 .6-.4 1.3-.4 1.3-.7.9-1.8 3-2.7 4.8-.5.9-1.1 1.1-1.5 1.1-.4 0-.7-.2-.7-.2s-1.4-.5-2.9-.9c-.2-.1-.4-.1-.6-.1-1 0-1.5 1-1.5 1s-1.1 3.3-1.6 5c-.6 1.8.9 2.3.9 2.3s2.6.9 3.6 1.2c1 .3.8 2 .8 2-.2.8-.5 3.3-.6 5.3-.2 1.8-1.4 1.9-1.6 1.9 0 0-1 .1-3 .2-2.1.2-1.7 2.1-1.7 2.1s.2 2.7.4 4.8c.1 1.6 1.1 1.8 1.6 1.8h.2s2.2-.2 3-.2h.2c.8 0 1.6.3 1.8 1.5.2 1.3 1.2 4.1 1.5 5.6.3 1.5-.5 1.7-.5 1.7s-1.2.6-3 1.6c-1.8.9-.8 2.5-.8 2.5s1.6 3.1 2.4 4.6c.3.7.8.8 1.3.8.6 0 1.2-.4 1.2-.4s2-1 2.9-1.5c.2-.1.3-.1.5-.1.7 0 1.3.6 1.6 1.2.4.7 2.4 3.1 3.4 4.3 1 1.2.1 2 .1 2s-1 1.2-2.1 2.5 0 2.4 0 2.4 2.6 2.4 4.1 3.5c.4.3.8.4 1.1.4.8 0 1.3-.7 1.3-.7s1.9-2.2 2.3-2.7c.2-.2.5-.3.9-.3s.9.1 1.3.4c.7.5 3.2 1.9 4.7 2.6 1.6.8 1.1 2 1.1 2s-.2.7-.9 2.9c-.7 2.1.8 2.5.8 2.5s3 1 4.9 1.6c.3.1.6.1.8.1 1.2 0 1.5-1.1 1.5-1.1s.8-2.3 1.1-3.5c.2-.6.8-.8 1.4-.8.5 0 1 .1 1.3.2.7.1 2.6.3 4.6.5 2 .2 1.8 1.6 1.8 1.6s.1 1.7.3 3.3c.1 1.3 1.4 1.4 1.9 1.4h.2s2.7-.2 4.8-.4c2.1-.2 1.8-1.9 1.8-1.9s-.1-1.9-.3-3.2c-.1-1.3 1.4-1.7 1.9-1.8.5-.1 2.6-.7 4.7-1.4.4-.1.7-.2 1-.2 1.2 0 1.4 1 1.4 1l1.5 3c.3.6.8.8 1.3.8.4 0 .8-.1.8-.1s3.3-1.7 4.9-2.5c1.6-.8.6-2.4.6-2.4s-1-1.9-1.5-2.8c-.5-.9.2-1.8 1-2.3.9-.6 3.1-2.4 4.4-3.4.4-.3.8-.4 1-.4l.4.1c.3.1.5.4.5.4s1 .8 2.4 2.1c.5.4.9.5 1.3.5.8 0 1.2-.6 1.3-.6 0 0 2.4-2.8 3.5-4.1.3-.4.4-.7.4-1 0-.8-.7-1.3-.7-1.3s-1.9-1.6-2.7-2.3c-.3-.2-.3-.5-.3-.8 0-.7.5-1.4.5-1.4.4-.5 2-3.4 2.8-5 .4-.6.8-.8 1.2-.8.5 0 .8.3.8.3s.9.3 2.8.9c.3.1.5.1.7.1 1.2 0 1.5-1.3 1.5-1.3s1-3.2 1.6-4.9c.1-.2.1-.5.1-.7 0-1.2-1.2-1.5-1.2-1.5l-3.2-1c-.6-.2-1-.8-1-1.6 0-.2 0-.3.1-.5.2-1 .5-4.2.7-5.8v-.1c.2-.5.5-.8.9-.9h.6s1.3-.1 3.2-.2c1.3-.1 1.5-1.1 1.5-1.6-.5-1.1-.5-1.3-.5-1.3zm-51.5 39.8h-.2c-21.1-.1-38.1-17.3-38-38.5.1-21 17.2-38 38.2-38h.2c21.1.1 38.1 17.4 38 38.5-.1 21.1-17.2 38-38.2 38zM220.9 82.7c45.8 0 82.9 37.1 82.9 82.9s-37.1 82.9-82.9 82.9c-45.8 0-82.9-37.1-82.9-82.9s37.1-82.9 82.9-82.9m0-10c-51.2 0-92.8 41.6-92.8 92.8s41.6 92.8 92.8 92.8c51.2 0 92.8-41.6 92.8-92.8s-41.6-92.8-92.8-92.8zM364.1 85.1c-17.8 0-32.4-14.5-32.4-32.4s14.5-32.4 32.4-32.4 32.4 14.5 32.4 32.4-14.5 32.4-32.4 32.4zm0-39.8c-4.1 0-7.5 3.3-7.5 7.5s3.3 7.5 7.5 7.5 7.5-3.3 7.5-7.5-3.3-7.5-7.5-7.5zM50.5 280.9c-17.8 0-32.4-14.5-32.4-32.3 0-17.8 14.5-32.4 32.4-32.4s32.4 14.5 32.4 32.4c-.1 17.8-14.6 32.3-32.4 32.3zm0-39.8c-4.1 0-7.5 3.3-7.5 7.5 0 4.1 3.3 7.5 7.5 7.5s7.5-3.3 7.5-7.5c-.1-4.1-3.4-7.5-7.5-7.5zM175.5 181.8h90.4v7.6h-90.4zM195 155.7c-6.6 0-11.9-5.3-11.9-11.9 0-6.6 5.3-11.9 11.9-11.9 6.6 0 11.9 5.3 11.9 11.9 0 6.6-5.3 11.9-11.9 11.9zM238.3 151.7c1.4-4.1 5.2-7.4 9.7-7.4s8.3 3.3 9.7 7.4h8.2c-1.5-8.5-9-15.3-17.9-15.3-8.9 0-16.3 6.8-17.9 15.3h8.2z"/></svg>