<svg xmlns="http://www.w3.org/2000/svg" viewBox="0 0 62 42" enable-background="new 0 0 62 42"><path d="M28.6 41.1l2.4 2.4 2.3-2.3c-1.4-.8-3.2-.9-4.7-.1zM20.7 33.2l4.4 4.4c3.5-2.5 8.3-2.5 11.7.2l4.4-4.4c-5.9-5-14.6-5.1-20.5-.2zM3.5 15.9l5.2 5.2c12.6-11.5 32-11.5 44.5.2l5.2-5.2c-15.4-14.5-39.5-14.6-54.9-.2zM12.1 24.5l5.2 5.2c7.8-6.8 19.6-6.7 27.3.2l5.2-5.2c-10.7-9.7-27-9.8-37.7-.2z" fill="none"/><path fill="#FFD686" d="M58.4 16.1l3.5-3.5c-17.3-16.4-44.5-16.4-61.9-.2l3.5 3.5c15.4-14.4 39.5-14.3 54.9.2zM8.6 21.1l3.5 3.5c10.7-9.6 27.1-9.5 37.7.2l3.5-3.5c-12.6-11.7-32-11.7-44.7-.2zM17.3 29.7l3.5 3.5c5.9-4.9 14.6-4.8 20.4.2l3.5-3.5c-7.9-6.9-19.6-7-27.4-.2zM25.1 37.5l3.5 3.5c1.5-.7 3.2-.7 4.7.1l3.5-3.5c-3.4-2.5-8.2-2.6-11.7-.1z"/></svg>