<svg xmlns="http://www.w3.org/2000/svg" width="20" height="20" viewBox="0 0 20 20"><path d="M19.551 16.921l-4.783-4.783c.721-1.185 1.137-2.576 1.137-4.065-.001-4.326-3.749-8.073-8.074-8.073-4.325 0-7.831 3.506-7.831 7.831s3.747 8.072 8.072 8.072c1.438 0 2.785-.389 3.943-1.066l4.809 4.809c.471.471 1.234.471 1.704 0l1.193-1.193c.471-.469.3-1.062-.17-1.532zm-17.141-9.09c0-2.994 2.427-5.422 5.421-5.422 2.995 0 5.663 2.668 5.663 5.663 0 2.994-2.428 5.422-5.422 5.422-2.994 0-5.662-2.668-5.662-5.663z" fill="#BCBAB7"/></svg>