<?xml version="1.0" encoding="utf-8"?>
<!-- Generator: Adobe Illustrator 18.0.0, SVG Export Plug-In . SVG Version: 6.00 Build 0)  -->
<!DOCTYPE svg PUBLIC "-//W3C//DTD SVG 1.1//EN" "http://www.w3.org/Graphics/SVG/1.1/DTD/svg11.dtd">
<svg version="1.1" id="Layer_1" xmlns="http://www.w3.org/2000/svg" xmlns:xlink="http://www.w3.org/1999/xlink" x="0px" y="0px"
	 width="30px" height="25px" viewBox="0 0 30 25" style="enable-background:new 0 0 30 25;" xml:space="preserve">
<g>
	<path style="fill:#BCBAB7;" d="M24.389,16.683c0.355,0,0.675-0.216,0.806-0.546c0,0,4.591-11.771,4.719-12.093
		c0.208-0.52,0.001-1.119-0.262-1.507c-0.363-0.536-0.909-0.843-1.497-0.843H4.498c-0.025,0-0.048,0.012-0.072,0.015L3.969,0.549
		C3.967,0.546,3.964,0.544,3.963,0.541c-0.03-0.074-0.08-0.135-0.129-0.197C3.813,0.316,3.801,0.282,3.777,0.258
		C3.73,0.21,3.669,0.181,3.613,0.145c-0.037-0.023-0.069-0.056-0.11-0.074C3.467,0.055,3.424,0.056,3.385,0.045
		c-0.071-0.019-0.14-0.042-0.214-0.043C3.167,0.002,3.164,0,3.161,0H0.869C0.389,0,0,0.389,0,0.869c0,0.479,0.389,0.869,0.869,0.869
		H2.57l7.216,18.58c-0.57,0.489-0.938,1.206-0.938,2.015c0,1.474,1.194,2.668,2.667,2.668c1.168,0,2.149-0.755,2.511-1.799h6.858
		C21.245,24.246,22.227,25,23.394,25c1.474,0,2.668-1.194,2.668-2.668c0-1.473-1.194-2.667-2.668-2.667
		c-1.167,0-2.149,0.754-2.51,1.799h-6.859c-0.361-1.044-1.343-1.799-2.511-1.799c-0.039,0-0.075,0.01-0.114,0.011l-1.181-2.994
		H24.389z M28.133,3.427c0.031,0.014,0.078,0.071,0.107,0.126c-0.484,1.212-3.583,9.254-4.439,11.393H9.546
		c-0.004,0-0.008,0.002-0.012,0.002L5.106,3.431L28.133,3.427z"/>
</g>
</svg>
