<?xml version="1.0" encoding="utf-8"?>
<!-- Generator: Adobe Illustrator 19.0.1, SVG Export Plug-In . SVG Version: 6.00 Build 0)  -->
<svg version="1.1" id="Camada_1" xmlns:sketch="http://www.bohemiancoding.com/sketch/ns"
	 xmlns="http://www.w3.org/2000/svg" xmlns:xlink="http://www.w3.org/1999/xlink" x="0px" y="0px" width="53px" height="48px"
	 viewBox="-453 257 53 48" style="enable-background:new -453 257 53 48;" xml:space="preserve">
<style type="text/css">
	.st0{clip-path:url(#SVGID_2_);}
	.st1{clip-path:url(#SVGID_4_);fill:#B9B8B5;}
	.st2{clip-path:url(#SVGID_6_);}
	.st3{clip-path:url(#SVGID_8_);fill:#B9B8B5;}
	.st4{clip-path:url(#SVGID_10_);}
	.st5{clip-path:url(#SVGID_12_);fill:#B9B8B5;}
	.st6{clip-path:url(#SVGID_14_);}
	.st7{clip-path:url(#SVGID_16_);fill:#B9B8B5;}
	.st8{clip-path:url(#SVGID_18_);}
	.st9{clip-path:url(#SVGID_20_);fill:#B9B8B5;}
	.st10{clip-path:url(#SVGID_22_);}
	.st11{clip-path:url(#SVGID_24_);fill:#B9B8B5;}
</style>
<title>Fill 1</title>
<desc>Created with Sketch.</desc>
<g>
	<defs>
		<path id="SVGID_1_" d="M-403.9,264l0.3,0.3c-0.9,2.4-6.8,17.2-8.5,21.3h-23.6l-8.5-21.5H-403.9z M-409.5,287.8
			c0,0,8.7-21.9,9-22.6c0.4-1.1,0-2.1-0.5-2.9c-0.7-1.1-1.7-1.6-2.9-1.6h-41.5l-0.9-2.2c0-0.1-0.1-0.3-0.3-0.4c0,0,0-0.1-0.1-0.1
			c-0.1-0.1-0.3-0.1-0.3-0.3l-0.3-0.1h-0.3c-0.1-0.1-0.3-0.1-0.4-0.1h-3.2c-0.9,0-1.7,0.8-1.7,1.7c0,0.9,0.8,1.6,1.7,1.6h2.1
			l13.7,34.9c-1,0.9-1.8,2.4-1.8,3.8c0,2.8,2.2,5.1,5.1,5.1c2.2,0,4-1.4,4.8-3.4h9.6c0.7,2,2.6,3.4,4.8,3.4c2.7,0,5.1-2.2,5.1-5.1
			c0-2.8-2.2-5.1-5.1-5.1c-2.2,0-4,1.4-4.8,3.4h-9.6c-0.7-2-2.6-3.4-4.8-3.4h-0.3l-2.2-5.8h23.4C-411,288.6-409.7,288.4-409.5,287.8
			z"/>
	</defs>
	<clipPath id="SVGID_2_">
		<use xlink:href="#SVGID_1_"  style="overflow:visible;"/>
	</clipPath>
	<g class="st0">
		<defs>
			<rect id="SVGID_3_" x="-937.7" y="76.3" width="3552" height="2716"/>
		</defs>
		<clipPath id="SVGID_4_">
			<use xlink:href="#SVGID_3_"  style="overflow:visible;"/>
		</clipPath>
		<rect x="-457.7" y="252.4" class="st1" width="62.3" height="57.2"/>
	</g>
</g>
<g>
	<defs>
		<path id="SVGID_5_" d="M-433.9,267.3c1.7,0,3.2,1.4,3.2,3.2c0,1.8-1.4,3.2-3.2,3.2c-1.8,0-3.2-1.4-3.2-3.2
			C-437,268.7-435.6,267.3-433.9,267.3"/>
	</defs>
	<clipPath id="SVGID_6_">
		<use xlink:href="#SVGID_5_"  style="overflow:visible;"/>
	</clipPath>
	<g class="st2">
		<defs>
			<rect id="SVGID_7_" x="-937.7" y="76.3" width="3552" height="2716"/>
		</defs>
		<clipPath id="SVGID_8_">
			<use xlink:href="#SVGID_7_"  style="overflow:visible;"/>
		</clipPath>
		<rect x="-442" y="262.3" class="st3" width="16.3" height="16.4"/>
	</g>
</g>
<g>
	<defs>
		<path id="SVGID_9_" d="M-413.2,267.3c1.7,0,3.2,1.4,3.2,3.2c0,1.8-1.4,3.2-3.2,3.2c-1.8,0-3.2-1.4-3.2-3.2
			C-416.4,268.7-415,267.3-413.2,267.3"/>
	</defs>
	<clipPath id="SVGID_10_">
		<use xlink:href="#SVGID_9_"  style="overflow:visible;"/>
	</clipPath>
	<g class="st4">
		<defs>
			<rect id="SVGID_11_" x="-937.7" y="76.3" width="3552" height="2716"/>
		</defs>
		<clipPath id="SVGID_12_">
			<use xlink:href="#SVGID_11_"  style="overflow:visible;"/>
		</clipPath>
		<rect x="-421.4" y="262.3" class="st5" width="16.3" height="16.4"/>
	</g>
</g>
<g>
	<defs>
		<path id="SVGID_13_" d="M-423.6,267.3c1.7,0,3.2,1.4,3.2,3.2c0,1.8-1.4,3.2-3.2,3.2c-1.7,0-3.2-1.4-3.2-3.2
			C-426.8,268.7-425.3,267.3-423.6,267.3"/>
	</defs>
	<clipPath id="SVGID_14_">
		<use xlink:href="#SVGID_13_"  style="overflow:visible;"/>
	</clipPath>
	<g class="st6">
		<defs>
			<rect id="SVGID_15_" x="-937.7" y="76.3" width="3552" height="2716"/>
		</defs>
		<clipPath id="SVGID_16_">
			<use xlink:href="#SVGID_15_"  style="overflow:visible;"/>
		</clipPath>
		<rect x="-431.8" y="262.3" class="st7" width="16.3" height="16.4"/>
	</g>
</g>
<g>
	<defs>
		<path id="SVGID_17_" d="M-425.2,279.2c0,1.8-1.4,3.2-3.2,3.2c-1.7,0-3.2-1.4-3.2-3.2c0-1.8,1.4-3.2,3.2-3.2
			C-426.7,276-425.2,277.4-425.2,279.2z"/>
	</defs>
	<clipPath id="SVGID_18_">
		<use xlink:href="#SVGID_17_"  style="overflow:visible;"/>
	</clipPath>
	<g class="st8">
		<defs>
			<rect id="SVGID_19_" x="-937.7" y="76.3" width="3552" height="2716"/>
		</defs>
		<clipPath id="SVGID_20_">
			<use xlink:href="#SVGID_19_"  style="overflow:visible;"/>
		</clipPath>
		<rect x="-436.6" y="271" class="st9" width="16.3" height="16.4"/>
	</g>
</g>
<g>
	<defs>
		<path id="SVGID_21_" d="M-418.3,276c1.7,0,3.2,1.4,3.2,3.2c0,1.8-1.4,3.2-3.2,3.2c-1.7,0-3.2-1.4-3.2-3.2
			C-421.4,277.4-420,276-418.3,276"/>
	</defs>
	<clipPath id="SVGID_22_">
		<use xlink:href="#SVGID_21_"  style="overflow:visible;"/>
	</clipPath>
	<g class="st10">
		<defs>
			<rect id="SVGID_23_" x="-937.7" y="76.3" width="3552" height="2716"/>
		</defs>
		<clipPath id="SVGID_24_">
			<use xlink:href="#SVGID_23_"  style="overflow:visible;"/>
		</clipPath>
		<rect x="-426.4" y="271" class="st11" width="16.3" height="16.4"/>
	</g>
</g>
</svg>
