<svg xmlns="http://www.w3.org/2000/svg" width="27.73" height="25" viewBox="0 0 27.73 25"><path d="M20.417 2c1.438 0 2.777.569 3.77 1.603.995 1.035 1.542 2.413 1.542 3.88 0 2.162-1.138 4.072-2.203 5.138-1.153 1.153-6.947 6.883-9.661 9.566-2.714-2.683-8.509-8.413-9.661-9.566-1.065-1.066-2.203-2.975-2.203-5.138 0-1.467.548-2.845 1.542-3.88.993-1.034 2.332-1.603 3.77-1.603 2.865 0 4.945 2.635 4.959 2.654l1.582 2.066 1.598-2.058c.021-.027 2.1-2.662 4.965-2.662m0-2c-3.938 0-6.552 3.444-6.552 3.444s-2.614-3.444-6.552-3.444c-4.151 0-7.312 3.419-7.312 7.484 0 2.607 1.258 5.02 2.789 6.552 1.529 1.531 11.075 10.964 11.075 10.964s9.545-9.433 11.076-10.965c1.53-1.531 2.789-3.945 2.789-6.552 0-4.064-3.162-7.483-7.313-7.483z" fill="#BCBAB7"/></svg>