<svg xmlns="http://www.w3.org/2000/svg" width="24" height="26" viewBox="0 0 24 26"><path d="M14.858 12.903c0-.391-.195-.586-.391-.978l-6.648-6.647c-.194-.195-.586-.195-.977-.195s-.586.195-.978.391l-.586.587c-.195.391-.391.586-.391.977s.195.586.391.978l2.933 2.933h-7.037c-.391 0-.586.195-.783.391-.195.195-.391.391-.391.782v1.369c0 .391.195.586.391.978.195.195.586.391.783.391h7.038l-2.933 2.933c-.195.195-.391.586-.391.783s.195.783.391.978l.783.783c.195.195.586.391.978.391.391 0 .586-.195.978-.391l6.451-6.647c.194-.201.389-.593.389-.787zM18.527 0h-6.4510000000000005c-.783 0-1.369.586-1.369 1.369s.586 1.173 1.369 1.173h6.646c1.369 0 2.542 1.173 2.542 2.542v15.639c0 1.369-1.173 2.542-2.542 2.542h-6.646c-.783 0-1.369.586-1.369 1.369s.586 1.368 1.369 1.368h6.646c2.933-.002 5.278-2.349 5.278-5.28v-15.639c-.194-2.737-2.54-5.083-5.473-5.083z" fill="#BCBAB7"/></svg>