<?xml version="1.0" encoding="utf-8"?>
<!-- Generator: Adobe Illustrator 19.2.1, SVG Export Plug-In . SVG Version: 6.00 Build 0)  -->
<svg version="1.1" id="Layer_1" xmlns="http://www.w3.org/2000/svg" xmlns:xlink="http://www.w3.org/1999/xlink" x="0px" y="0px"
	 width="32px" height="27px" viewBox="0 0 32 27" enable-background="new 0 0 32 27" xml:space="preserve">
<g>
	<defs>
		<path id="SVGID_1_" d="M30.3,10.2c0,0.6-0.6,1.1-1.1,1.1H27c-1.2,0-1.8,1-1.8,1.7v3.4c-0.3-0.5-3.9-4.3-4.1-4.5v-1.8
			c0-1.4-1.4-2.8-2.8-2.8l-6,0V2.8c0-0.6,0.6-1.1,1.1-1.1l15.7,0c0.6,0,1.1,0.6,1.1,1.1V10.2z M19.4,18.1c0,0.6-0.6,1.1-1.2,1.1
			h-5.9c-1.1,0-1.4,0.1-2.5,1.1c-0.7,0.8-1.5,1.7-2.3,2.6c-0.3,0.3-0.8,0.9-1.1,1.2v-3.4c0-0.7-0.5-1.7-1.8-1.7H2.8
			c-0.5,0-1.1-0.6-1.1-1.1v-7.9C1.7,9.6,2.2,9,2.8,9h7.8h1.8h5.9c0.5,0,1.1,0.5,1.1,1.1L19.4,18.1z M28.9,0H13.4
			c-1.4,0-2.8,1.4-2.8,2.8v4.5H2.8C1.4,7.4,0,8.7,0,10.1v8.1C0,19.6,1.2,21,2.8,21h1.9C4.9,21,5,21,5,21.2v4.9
			c0,0.5,0.3,0.8,0.6,0.9h0.2c0.7,0,1.4-0.8,3.2-2.8c0.7-0.9,1.5-1.8,2.2-2.5c0.8-0.8,0.8-0.8,1.4-0.8h5.9c1.5,0,2.8-1.2,2.8-2.8v-4
			c0.6,0.6,1.1,1.2,1.7,1.9c1.8,2,2.5,2.8,3.2,2.8c0.1,0,0.2,0,0.3-0.1c0.3-0.1,0.6-0.5,0.6-0.9v-4.9c0-0.2,0.1-0.2,0.2-0.2h1.9
			c1.5,0,2.8-1.2,2.8-2.8v-7C31.8,1.4,30.4,0,28.9,0z"/>
	</defs>
	<use xlink:href="#SVGID_1_"  overflow="visible" fill-rule="evenodd" clip-rule="evenodd" fill="#BABABA"/>
	<clipPath id="SVGID_2_">
		<use xlink:href="#SVGID_1_"  overflow="visible"/>
	</clipPath>
	<rect x="-2.3" y="-2.3" clip-path="url(#SVGID_2_)" fill="#BABABA" width="36.5" height="31.5"/>
</g>
</svg>
