<svg xmlns="http://www.w3.org/2000/svg" viewBox="0 0 20 18" enable-background="new 0 0 20 18"><path fill="#7D7873" d="M20 3v.2c0 .3-.1.5-.3.7-.2.2-.5.3-.7.3h-18c-.2.1-.5 0-.7-.2-.2-.2-.3-.4-.3-.7v-.3c0-.3.1-.5.3-.7.2-.2.5-.3.7-.3h18c.3 0 .5.1.7.3.2.2.3.5.3.7zM20 8.8v.2c0 .3-.1.5-.3.7-.2.2-.5.3-.7.3h-18c-.3 0-.5-.1-.7-.3s-.3-.3-.3-.6v-.3c0-.3.1-.5.3-.7s.5-.3.7-.3h18c.3 0 .5.1.7.3.2.2.3.5.3.7zM20 14.7v.3c0 .3-.1.5-.3.7-.2.2-.5.3-.7.3h-18c-.3 0-.5-.1-.7-.3s-.3-.5-.3-.7v-.2c0-.3.1-.5.3-.7s.5-.3.7-.3h18c.3 0 .5.1.7.3.2.1.3.3.3.6z"/></svg>