<?xml version="1.0" encoding="utf-8"?>
<!-- Generator: Adobe Illustrator 18.1.1, SVG Export Plug-In . SVG Version: 6.00 Build 0)  -->
<!DOCTYPE svg PUBLIC "-//W3C//DTD SVG 1.1//EN" "http://www.w3.org/Graphics/SVG/1.1/DTD/svg11.dtd">
<svg version="1.1" id="Layer_1" xmlns="http://www.w3.org/2000/svg" xmlns:xlink="http://www.w3.org/1999/xlink" x="0px" y="0px"
	 width="16px" height="14px" viewBox="0 2 16 14" style="enable-background:new 0 2 16 14;" xml:space="preserve">
<path style="fill:#BCBAB7;" d="M14.0118,3.3254c0.3592,0,0.6627,0.3035,0.6627,0.6627v6.8725c0,0.3592-0.3035,0.6627-0.6627,0.6627
	H3.0785c-0.3177,0-0.6249,0.1141-0.8655,0.3216l-0.8858,0.7638c0-0.0029,0-0.0059,0-0.0088l-0.0018-1.7392V3.9882
	c0-0.3592,0.3035-0.6627,0.6627-0.6627h12.0237 M14.0118,2H1.9882C0.8947,2,0,2.8947,0,3.9882v6.8725
	c0,1.0935,0.0041,3.3062,0.0041,5.1391l3.0743-3.1509h10.9334c1.0935,0,1.9882-0.8947,1.9882-1.9882V3.9882
	C16,2.8947,15.1053,2,14.0118,2L14.0118,2z"/>
</svg>
