<?xml version="1.0" encoding="utf-8"?>
<!-- Generator: Adobe Illustrator 18.1.1, SVG Export Plug-In . SVG Version: 6.00 Build 0)  -->
<!DOCTYPE svg PUBLIC "-//W3C//DTD SVG 1.1//EN" "http://www.w3.org/Graphics/SVG/1.1/DTD/svg11.dtd">
<svg version="1.1" id="Layer_1" xmlns="http://www.w3.org/2000/svg" xmlns:xlink="http://www.w3.org/1999/xlink" x="0px" y="0px"
	 width="16px" height="16px" viewBox="0 0 16 16" style="enable-background:new 0 0 16 16;" xml:space="preserve">
<g>
	<path style="fill:#BCBAB7;" d="M8,1.2308c3.7326,0,6.7692,3.0367,6.7692,6.7692S11.7326,14.7692,8,14.7692S1.2308,11.7326,1.2308,8
		S4.2674,1.2308,8,1.2308 M8,0C3.5817,0,0,3.5817,0,8s3.5817,8,8,8s8-3.5817,8-8S12.4183,0,8,0L8,0z"/>
	<path style="fill:#BCBAB7;" d="M8.4736,6.6868c0.3567-0.46,0.8785-1.1481,1.2346-1.5723c0.0789-0.094-0.9817,0.0324-1.3707,0.1189
		C7.9487,5.3199,7.5835,5.388,7.2424,5.4378c-0.3414,0.05-0.6666,0.1329-0.9376,0.1454C6.0338,5.5958,5.8163,5.5929,5.6522,5.5748
		c-0.1276-0.0114-0.2141-0.0612-0.26-0.1494c-0.0459-0.088-0.0613-0.1947-0.0459-0.32c0.0152-0.125,0.0742-0.3105,0.1386-0.4529
		c0.064-0.1423,0.1445-0.2772,0.2412-0.4051c0.0965-0.1276,0.201-0.2402,0.3131-0.3372C6.1511,3.8132,6.2652,3.751,6.3814,3.7239
		c0.1965-0.0451,0.4615-0.042,0.7953,0.0097C7.5102,3.7854,7.8668,3.842,8.2462,3.9039c0.3793,0.062,0.758,0.1083,1.1357,0.1391
		c0.3775,0.0308,0.8153-0.0224,1.0064-0.0965c0.1911-0.0741,0.3317-0.1352,0.5247-0.0869c0.193,0.0484,0.3636,0.1403,0.512,0.2758
		c0.1483,0.1355,0.2574,0.2997,0.3277,0.4921c0.07,0.1927,0.0559,0.3762-0.0426,0.5507c-0.0492,0.0874-0.1309,0.2435-0.33,0.3962
		c-0.8335,0.6393-1.7585,1.6466-2.3408,2.2694c-1.2807,1.37-1.5779,1.9094-1.8794,2.3157c-0.4116,0.5547-1.2515,1.9351-1.3712,2.047
		c-0.1659,0.1549-0.3316,0.0982-0.4475,0.0513c-0.1161-0.0471-0.248-0.2551-0.1625-0.4655c0.0517-0.1273,1.5113-2.5144,1.8277-2.992
		C7.2844,8.4149,8.0406,7.2451,8.4736,6.6868z"/>
</g>
</svg>
