<svg xmlns="http://www.w3.org/2000/svg" width="22.71" height="25" viewBox="0 0 22.71 25"><g fill="#BCBAB7"><path d="M20.564 25h-18.414c-1.186 0-2.15-.964-2.15-2.15v-20.7c0-1.185.964-2.15 2.15-2.15h18.414c1.185 0 2.15.965 2.15 2.15v20.7c-.001 1.186-.965 2.15-2.15 2.15zm-18.414-23.157c-.169 0-.307.138-.307.307v20.7c0 .169.138.307.307.307h18.414c.169 0 .307-.138.307-.307v-20.7c0-.169-.138-.307-.307-.307h-18.414z"/><circle cx="6.599" cy="7.653" r="1.791"/><circle cx="6.599" cy="12.673" r="1.791"/><circle cx="6.599" cy="17.642" r="1.791"/><path d="M9.637 7.039h7.874v1.228h-7.874zM9.637 12.033h7.874v1.229h-7.874zM9.637 17.028h7.874v1.228h-7.874z"/></g></svg>