<?xml version="1.0" encoding="utf-8"?>
<!-- Generator: Adobe Illustrator 18.1.1, SVG Export Plug-In . SVG Version: 6.00 Build 0)  -->
<!DOCTYPE svg PUBLIC "-//W3C//DTD SVG 1.1//EN" "http://www.w3.org/Graphics/SVG/1.1/DTD/svg11.dtd">
<svg version="1.1" id="Layer_1" xmlns="http://www.w3.org/2000/svg" xmlns:xlink="http://www.w3.org/1999/xlink" x="0px" y="0px"
	 width="28px" height="25px" viewBox="0 0 28 25" style="enable-background:new 0 0 28 25;" xml:space="preserve">
<g>
	<g>
		<circle style="fill:#BCBAB7;" cx="7.8326" cy="7.1646" r="1.4946"/>
		<rect x="10.4289" y="6.625" style="fill:#BCBAB7;" width="11.2826" height="1.5"/>
	</g>
	<g>
		<circle style="fill:#BCBAB7;" cx="7.8326" cy="12.5993" r="1.4946"/>
		<rect x="10.2747" y="12.0597" style="fill:#BCBAB7;" width="11.2826" height="1.5"/>
	</g>
</g>
<path style="fill:#BCBAB7;" d="M24.7391,2.1739c0.5892,0,1.087,0.4978,1.087,1.087v14.1304c0,0.5892-0.4978,1.087-1.087,1.087
	h-19.69c-0.5211,0-1.0249,0.1872-1.4196,0.5275l-1.4528,1.2527c0-0.0048,0-0.0096,0-0.0144l-0.0027-2.8528V3.2609
	c0-0.5892,0.4978-1.087,1.087-1.087H24.7391 M24.7391,0H3.2609C1.4674,0,0,1.4674,0,3.2609v14.1304
	C0,19.1848,0.0068,21.9939,0.0068,25l5.0423-4.3478h19.69c1.7935,0,3.2609-1.4674,3.2609-3.2609V3.2609
	C27.9999,1.4674,26.5325,0,24.7391,0L24.7391,0z"/>
</svg>
