<?xml version="1.0" encoding="utf-8"?>
<!-- Generator: Adobe Illustrator 19.1.0, SVG Export Plug-In . SVG Version: 6.00 Build 0)  -->
<svg version="1.1" id="Layer_1" xmlns="http://www.w3.org/2000/svg" xmlns:xlink="http://www.w3.org/1999/xlink" x="0px" y="0px"
	 width="26px" height="23px" viewBox="0 0 26 23" style="enable-background:new 0 0 26 23;" xml:space="preserve">
<style type="text/css">
	.st0{fill:#FFFFFF;}
</style>
<path class="st0" d="M23.4,0H10.8C9.7,0,8.5,1.1,8.5,2.3v4.2H2.3C1.1,6.5,0,7.6,0,8.7v7.1c0,1.2,1,2.3,2.3,2.3h1.6
	c0.1,0,0.2,0,0.2,0.2v3.9c0,0.4,0.3,0.6,0.5,0.7C4.6,23,4.7,23,4.8,23c0.6,0,1.1-0.6,2.6-2.3c0.6-0.7,1.2-1.5,1.7-2
	c0.6-0.6,0.6-0.6,1.1-0.6H15c1.2,0,2.3-1,2.3-2.3v-3.2c0.5,0.5,0.9,1,1.4,1.6c1.5,1.6,2,2.3,2.6,2.3c0.1,0,0.2,0,0.3-0.1
	c0.3-0.1,0.5-0.4,0.5-0.7v-3.9c0-0.2,0.1-0.2,0.2-0.2h1.6c1.2,0,2.3-1,2.3-2.3v-7C25.7,1.1,24.6,0,23.4,0z M15.5,15.5
	c0,0.5-0.6,0.9-1,0.9H10c-0.9,0-1.2-0.1-2.1,0.7c-0.6,0.6-2.1,2.7-2.4,2.9v-2.3c0-0.5-0.4-1.5-1.5-1.5H2.7c-0.4,0-0.9-0.4-0.9-0.8V9
	c0-0.4,0.4-0.9,0.9-0.9h6h1.5h4.5c0.4,0,0.9,0.4,0.9,0.9V15.5z M17.4,10.5v-2c0-1.1-1.4-2.4-2.6-2.4h-4.5V2.5c0-0.5,0.5-0.9,0.9-0.9
	h11.9c0.5,0,0.9,0.5,0.9,0.9v6.6c0,0.5-0.5,0.9-0.9,0.9h-1.4c-1,0-1.7,0.7-1.7,1.3v2.4C20.1,13.7,17.6,10.7,17.4,10.5z"/>
</svg>
