<?xml version="1.0" encoding="utf-8"?>
<!-- Generator: Adobe Illustrator 19.1.0, SVG Export Plug-In . SVG Version: 6.00 Build 0)  -->
<svg version="1.1" id="Layer_1" xmlns="http://www.w3.org/2000/svg" xmlns:xlink="http://www.w3.org/1999/xlink" x="0px" y="0px"
	 width="20px" height="18px" viewBox="0 0 20 18" style="enable-background:new 0 0 20 18;" xml:space="preserve">
<style type="text/css">
	.st0{fill:#F3B941;}
</style>
<g id="Layer_4">
	<path class="st0" d="M17.9,0H8.3C7.4,0,6.5,0.9,6.5,1.8v3.3H1.8C0.9,5.1,0,5.9,0,6.8v5.5c0,0.9,0.8,1.8,1.8,1.8H3
		c0.1,0,0.1,0,0.1,0.1v3.1c0,0.3,0.2,0.5,0.3,0.6C3.5,18,3.6,18,3.7,18c0.4,0,0.9-0.5,2-1.8C6,15.6,6.6,15.1,7,14.6
		c0.5-0.5,0.5-0.5,0.9-0.5h3.7c0.9,0,1.8-0.8,1.8-1.8V9.7c0.3,0.3,0.7,0.8,1.1,1.2c1.1,1.3,1.5,1.8,2,1.8c0.1,0,0.1,0,0.2-0.1
		c0.2-0.1,0.3-0.3,0.3-0.6V9c0-0.1,0.1-0.1,0.1-0.1h1.2c0.9,0,1.8-0.8,1.8-1.8V1.7C19.7,0.9,18.9,0,17.9,0z M11.9,12.1
		c0,0.3-0.4,0.7-0.8,0.7H7.6c-0.7,0-0.9-0.1-1.6,0.6c-0.4,0.5-1.6,2.1-1.9,2.3v-1.8c0-0.4-0.3-1.1-1.1-1.1h-1
		c-0.3,0-0.7-0.3-0.7-0.7V7c0-0.3,0.3-0.7,0.7-0.7h4.6h1.1h3.5C11.5,6.3,12,6.5,12,7L11.9,12.1L11.9,12.1z M13.3,8.3V6.7
		c0-0.9-1.1-1.9-2-1.9H7.8V1.9c0-0.3,0.3-0.7,0.7-0.7h9.2c0.3,0,0.7,0.3,0.7,0.7v5.1c0,0.3-0.3,0.7-0.7,0.7h-1.1
		c-0.8,0-1.3,0.6-1.3,1v1.9C15.4,10.7,13.5,8.4,13.3,8.3z"/>
</g>
</svg>
