<?xml version="1.0" encoding="utf-8"?>
<!-- Generator: Adobe Illustrator 19.1.0, SVG Export Plug-In . SVG Version: 6.00 Build 0)  -->
<svg version="1.1" id="Layer_1" xmlns="http://www.w3.org/2000/svg" xmlns:xlink="http://www.w3.org/1999/xlink" x="0px" y="0px"
	 width="28px" height="25px" viewBox="2 -0.2 28 25" style="enable-background:new 2 -0.2 28 25;" xml:space="preserve">
<style type="text/css">
	.st0{fill:#7D7873;}
</style>
<path class="st0" d="M27.5-0.2H13.8c-1.2,0-2.5,1.2-2.5,2.5v4.6H4.5C3.2,6.9,2,8.1,2,9.3V17c0,1.3,1.1,2.5,2.5,2.5h1.7
	c0.1,0,0.2,0,0.2,0.2v4.3c0,0.4,0.3,0.7,0.5,0.8c0.1,0.1,0.2,0.1,0.3,0.1c0.6,0,1.2-0.7,2.8-2.5c0.6-0.8,1.3-1.6,1.9-2.2
	c0.7-0.7,0.7-0.7,1.2-0.7h5.2c1.3,0,2.5-1.1,2.5-2.5v-3.5c0.5,0.5,1,1.1,1.5,1.7c1.6,1.8,2.2,2.5,2.8,2.5c0.1,0,0.2,0,0.3-0.1
	c0.3-0.1,0.5-0.4,0.5-0.8v-4.3c0-0.2,0.1-0.2,0.2-0.2h1.7c1.3,0,2.5-1.1,2.5-2.5V2.2C30,1,28.8-0.2,27.5-0.2z M19.1,17
	c0,0.5-0.5,1-1,1h-5.2c-1,0-1.2,0.1-2.2,1c-0.6,0.7-1.3,1.5-2,2.3c-0.3,0.3-0.7,0.8-1,1.1v-3c0-0.6-0.4-1.5-1.6-1.5H4.5
	c-0.4,0-1-0.5-1-1V9.3c0-0.4,0.4-1,1-1h6.9h1.6h5.2c0.4,0,1,0.4,1,1V11v1.4V17z M28.5,10c0,0.5-0.5,1-1,1h-1.7
	c-1.1,0-1.6,0.9-1.6,1.5v3c-0.3-0.4-0.7-0.8-1-1.1c-0.7-0.8-1.4-1.6-2-2.3c-0.2-0.2-0.4-0.4-0.6-0.6V9.3c0-1.2-1.2-2.5-2.5-2.5h-5.2
	V2.2c0-0.5,0.5-1,1-1h13.6c0.5,0,1,0.5,1,1V10z"/>
</svg>
