<svg xmlns="http://www.w3.org/2000/svg" viewBox="0 0 30.6 25" enable-background="new 0 0 30.6 25"><g fill="#7D7873"><circle cx="11.6" cy="6.8" r="1.7"/><circle cx="22.9" cy="6.8" r="1.7"/><circle cx="17.2" cy="6.8" r="1.7"/><circle cx="14.6" cy="11.6" r="1.7"/><circle cx="20.1" cy="11.6" r="1.7"/><path d="M24.8 16.7c.4 0 .8-.2.8-.6 0 0 4.7-11.7 4.9-12.1.2-.6 0-1.1-.2-1.5-.4-.6-.9-.8-1.5-.8h-24.3l-.5-1.1c0-.4-.2-.6-.8-.6h-2.3c-.5 0-.9.4-.9.9s.4.8.9.8h1.7l7.4 18.6c-.6.6-.9 1.3-.9 2.1 0 1.5 1.1 2.7 2.7 2.7 1.1 0 2.1-.8 2.7-1.9h7c.4 1.1 1.3 1.9 2.7 1.9 1.5 0 2.7-1.1 2.7-2.7 0-1.5-1.1-2.7-2.7-2.7-1.1 0-2.1.8-2.7 1.9h-7c-.4-1.1-1.3-1.9-2.7-1.9h-.2l-1.1-3h14.3zm4-13.1c-.4 1.3-3.6 9.3-4.4 11.6h-14.7l-4.6-11.6h23.7z"/></g></svg>