<svg xmlns="http://www.w3.org/2000/svg" viewBox="0 0 20 18" enable-background="new 0 0 20 18"><path fill="#95918D" d="M16.2 11.7c.2 0 .5-.1.5-.4 0 0 3.1-7.6 3.2-7.9.1-.4 0-.7-.2-1-.2-.4-.6-.5-1-.5h-15.7l-.3-.8s0-.1-.1-.1c0 0-.1 0-.1-.1h-1.9c-.3-.1-.6.1-.6.5s.3.5.6.5h1.1l4.8 12.2c-.4.3-.6.8-.6 1.3 0 1 .8 1.8 1.8 1.8.8 0 1.4-.5 1.7-1.2h4.6c.2.7.9 1.2 1.7 1.2 1 0 1.8-.8 1.8-1.8s-.8-1.8-1.8-1.8c-.8 0-1.4.5-1.7 1.2h-4.6c-.2-.7-.9-1.2-1.7-1.2h-.1l-.8-2 9.4.1zm2.6-8.6c-.2.9-2.3 6.1-2.9 7.5h-9.5l-3-7.5h15.4z"/></svg>