<svg xmlns="http://www.w3.org/2000/svg" viewBox="0 0 1024 768" enable-background="new 0 0 1024 768"><path fill="#E76A25" d="M938.7 129.8v10.7c0 12-4.4 22.5-13.2 31.2s-19.2 13.2-31.2 13.2h-764.5c-12 0-22.5-4.4-31.2-13.2s-13.2-19.2-13.2-31.2v-10.7c0-12 4.4-22.5 13.2-31.2s19.2-13.2 31.2-13.2h764.4c12 0 22.5 4.4 31.2 13.2s13.3 19.1 13.3 31.2zM938.7 377.2v10.7c0 12-4.4 22.5-13.2 31.2s-19.2 13.2-31.2 13.2h-764.5c-12 0-22.5-4.4-31.2-13.2s-13.2-19.2-13.2-31.2v-10.7c0-12 4.4-22.5 13.2-31.2s19.2-13.2 31.2-13.2h764.4c12 0 22.5 4.4 31.2 13.2s13.3 19.2 13.3 31.2zM938.7 633.2v10.7c0 12-4.4 22.5-13.2 31.2s-19.2 13.2-31.2 13.2h-764.5c-12 0-22.5-4.4-31.2-13.2s-13.2-19.2-13.2-31.2v-10.7c0-12 4.4-22.5 13.2-31.2s19.2-13.2 31.2-13.2h764.4c12 0 22.5 4.4 31.2 13.2s13.3 19.2 13.3 31.2z"/></svg>