<?xml version="1.0" encoding="utf-8"?>
<!-- Generator: Adobe Illustrator 18.0.0, SVG Export Plug-In . SVG Version: 6.00 Build 0)  -->
<!DOCTYPE svg PUBLIC "-//W3C//DTD SVG 1.1//EN" "http://www.w3.org/Graphics/SVG/1.1/DTD/svg11.dtd">
<svg version="1.1" id="Layer_1" xmlns="http://www.w3.org/2000/svg" xmlns:xlink="http://www.w3.org/1999/xlink" x="0px" y="0px"
	 viewBox="0 0 20 18" enable-background="new 0 0 20 18" xml:space="preserve">
<path fill="#7D7873" d="M2,0L0,5.7c0,1.4,1.2,2.4,2.5,2.4S5,6.9,5,5.6C5,6.9,6.2,8,7.6,8s2.5-1.1,2.5-2.5c0,1.4,1.1,2.5,2.5,2.5
	s2.5-1.1,2.5-2.5c0,1.4,1.1,2.5,2.5,2.5S20,7.1,20,5.7L18,0H2z"/>
<path fill="#7D7873" d="M17,18v-2.3V9.8c-1,0-1.5-0.5-1.9-0.9c0-0.1-0.1,0-0.1,0.1v9"/>
<path fill="#7D7873" d="M3,18v-2.3V9.8c1,0,1.5-0.5,1.9-0.9C4.9,8.9,5,8.9,5,9v9"/>
<rect x="4.9" y="16" fill="#7D7873" width="10.2" height="2"/>
</svg>
