<svg xmlns="http://www.w3.org/2000/svg" viewBox="0 0 24.9 26.7" enable-background="new 0 0 24.9 26.7"><path fill="#7D7873" d="M13.6 1.9c1.6.1 3 .7 4 1.8.9.9 1.5 2.2 1.5 3.9 0 2.7.4 5 1.5 7.4 1 2.4 2.4 4.3 4.3 5.9 0 .4-.1.9-.6 1.3-.4.4-.9.6-1.3.6h-6.7c0 1-.4 1.9-1.2 2.7-.9.7-1.8 1.2-2.8 1.2s-1.9-.4-2.7-1.2-1.2-1.6-1.2-2.7h-6.6c-.4 0-.9-.1-1.3-.6-.5-.4-.5-.7-.5-1.3 1.9-1.6 3.3-3.6 4.3-5.9s1.5-4.9 1.5-7.4c0-1.6.4-3 1.5-3.9s2.2-1.5 4-1.8"/><path fill="#fff" d="M12.6 25.2c0-.1-.1-.3-.3-.3-.6 0-1-.1-1.5-.6-.4-.4-.6-.9-.6-1.5 0-.1-.1-.3-.3-.3s-.3.1-.3.3c0 .7.3 1.3.7 1.9.4.4 1.2.7 1.9.7.2.1.4-.1.4-.2zM2.7 20.9h19.3c-1.6-1.8-2.8-3.9-3.7-6.1s-1.3-4.7-1.3-7.2-1.6-3.9-4.7-3.9-4.7 1.3-4.7 3.9-.4 4.9-1.2 7.3c-.9 2.3-2.1 4.2-3.7 6z"/><circle fill="#7D7873" cx="12.3" cy="1.5" r="1.5"/></svg>