<svg xmlns="http://www.w3.org/2000/svg" viewBox="0 0 20.8 23" enable-background="new 0 0 20.8 23"><path fill="#7D7873" d="M19 23h-17.1c-1 0-1.9-.9-1.9-1.9v-19.2c0-1 .9-1.9 1.9-1.9h16.9c1.2 0 1.9.9 1.9 1.9v19c.2 1.2-.6 2.1-1.7 2.1zm-17.1-21.3l-.2.2v19c0 .2.2.3.3.3h17c.2 0 .3-.2.3-.3v-19c-.2-.2-.3-.2-.5-.2h-16.9z"/><circle fill="#7D7873" cx="6.1" cy="7.1" r="1.7"/><circle fill="#7D7873" cx="6.1" cy="11.8" r="1.7"/><circle fill="#7D7873" cx="6.1" cy="16.3" r="1.7"/><path fill="#7D7873" d="M8.8 6.4h7.3v1h-7.3v-1zm0 4.7h7.3v1h-7.3v-1zm0 4.6h7.3v1h-7.3v-1z"/></svg>