<svg xmlns="http://www.w3.org/2000/svg" viewBox="0 0 25 25" enable-background="new 0 0 25 25"><circle fill="#FDB933" cx="12.5" cy="12.5" r="12.5"/><path fill="#fff" d="M13.1 10.1c.5-.8 1.3-2.1 1.8-2.8.1-.2-1.6.2-2.3.4-.6.2-1.2.4-1.8.5-.6.1-1.1.3-1.6.4-.3.1-.7.1-1 .1-.2 0-.3-.1-.4-.2-.1-.2-.1-.4-.1-.6 0-.2.1-.5.2-.8 0-.2.1-.4.3-.7l.4-.6c.2-.2.4-.3.6-.3.3-.1.8-.1 1.3-.1l1.8.1 1.9.1c.6 0 1.4-.2 1.7-.3s.6-.3.9-.3c.3.1.6.2.9.4.3.2.5.5.6.8.1.3.1.6 0 .9-.1.2-.2.4-.5.7-1.3 1.2-2.7 3-3.6 4.2-1.9 2.5-2.4 3.4-2.8 4.2-.6 1-1.8 3.4-2 3.6-.3.3-.5.2-.7.2-.2-.1-.5-.4-.3-.8.1-.2 2.2-4.4 2.6-5.3.4-.7 1.5-2.8 2.1-3.8z"/></svg>