<svg xmlns="http://www.w3.org/2000/svg" viewBox="0 0 25 25" enable-background="new 0 0 25 25"><circle fill="#FDB933" cx="12.5" cy="12.5" r="12.5"/><g fill="#fff"><path d="M18 20h-11c-.7 0-1.3-.6-1.3-1.3v-12.4c0-.7.6-1.3 1.3-1.3h11c.7 0 1.3.6 1.3 1.3v12.4c0 .7-.6 1.3-1.3 1.3zm-11-13.9c-.1 0-.2.1-.2.2v12.4c0 .1.1.2.2.2h11c.1 0 .2-.1.2-.2v-12.4c0-.1-.1-.2-.2-.2h-11z"/><circle cx="9.6" cy="9.6" r="1.1"/><circle cx="9.6" cy="12.6" r="1.1"/><circle cx="9.6" cy="15.6" r="1.1"/><path d="M11.5 9.2h4.7v.7h-4.7zM11.5 12.2h4.7v.7h-4.7zM11.5 15.2h4.7v.7h-4.7z"/></g></svg>