<svg xmlns="http://www.w3.org/2000/svg" viewBox="0 0 50 13.3" enable-background="new 0 0 50 13.3"><path fill="#009CDE" d="M33.7 0h-3.9c-.3 0-.5.2-.5.5l-1.6 10c0 .2.1.4.3.4h2c.2 0 .3-.1.4-.3l.4-2.8c0-.3.3-.5.5-.5h1.2c2.6 0 4-1.2 4.4-3.7.2-1.1 0-1.9-.5-2.5-.4-.8-1.4-1.1-2.7-1.1m.5 3.6c-.2 1.4-1.3 1.4-2.3 1.4h-.6l.4-2.6c0-.2.2-.3.3-.3h.3c.7 0 1.4 0 1.7.4.2.3.3.7.2 1.1"/><path fill="#003087" d="M6 0h-3.9c-.3 0-.5.2-.5.5l-1.6 9.9c0 .2.1.4.3.4h1.9c.3 0 .5-.2.5-.5l.4-2.7c0-.3.3-.5.5-.5h1.2c2.6 0 4-1.2 4.4-3.7.2-1.1 0-1.9-.5-2.5-.4-.6-1.4-.9-2.7-.9m.4 3.6c-.2 1.4-1.2 1.4-2.3 1.4h-.5l.4-2.6c0-.2.2-.3.3-.3h.3c.7 0 1.4 0 1.7.4.2.3.2.7.1 1.1M17.6 3.6h-1.9c-.2 0-.3.1-.3.3l-.1.5-.1-.2c-.4-.6-1.3-.8-2.2-.8-2 0-3.8 1.6-4.1 3.8-.2 1.1 0 2.1.7 2.8.6.7 1.4.9 2.3.9 1.7 0 2.6-1.1 2.6-1.1l-.1.5c0 .2.1.4.3.4h1.7c.3 0 .5-.2.5-.5l1-6.4c.1 0-.1-.2-.3-.2m-2.6 3.6c-.2 1.1-1 1.8-2.1 1.8-.5 0-1-.2-1.3-.5-.3-.3-.4-.8-.3-1.3.2-1.1 1-1.8 2.1-1.8.5 0 1 .2 1.2.5.4.3.5.8.4 1.3"/><path fill="#009CDE" d="M45.4 3.6h-1.9c-.2 0-.3.1-.3.3l-.1.5-.1-.2c-.4-.6-1.3-.8-2.2-.8-2.1 0-3.8 1.6-4.2 3.7-.2 1.1.1 2.1.7 2.9.6.7 1.4.9 2.3.9 1.7 0 2.6-1.1 2.6-1.1l-.1.5c0 .2.1.4.3.4h1.7c.3 0 .5-.2.5-.5l1-6.4c.1 0 0-.2-.2-.2m-2.6 3.6c-.2 1.1-1 1.8-2.1 1.8-.5 0-1-.2-1.3-.5-.3-.3-.4-.8-.3-1.3.2-1.1 1-1.8 2.1-1.8.5 0 1 .2 1.2.5.3.3.5.8.4 1.3"/><path fill="#003087" d="M27.5 3.6h-1.9c-.2 0-.3.1-.4.2l-2.6 3.8-1.1-3.6c-.1-.2-.3-.4-.5-.4h-1.8c-.2 0-.4.2-.3.4l2.1 6.1-2 2.7c-.2.2 0 .5.3.5h1.9c.2 0 .3-.1.4-.2l6.2-9c.2-.2 0-.5-.3-.5"/><path fill="#009CDE" d="M47.6.3l-1.6 10.1c0 .2.1.4.3.4h1.6c.3 0 .5-.2.5-.5l1.6-10c0-.1-.1-.3-.3-.3h-1.8c-.2 0-.3.1-.3.3"/></svg>