<svg width="136" height="41" viewBox="0 0 136 41" xmlns="http://www.w3.org/2000/svg"><title>bnt-google-play</title><defs><linearGradient x1="91.604%" y1="4.61%" x2="-37.492%" y2="71.74%" id="a"><stop stop-color="#00A0FF" offset="0%"/><stop stop-color="#00A1FF" offset=".657%"/><stop stop-color="#00BEFF" offset="26.01%"/><stop stop-color="#00D2FF" offset="51.22%"/><stop stop-color="#00DFFF" offset="76.04%"/><stop stop-color="#00E3FF" offset="100%"/></linearGradient><linearGradient x1="107.815%" y1="49.336%" x2="-130.578%" y2="49.336%" id="b"><stop stop-color="#FFE000" offset="0%"/><stop stop-color="#FFBD00" offset="40.87%"/><stop stop-color="#FFA500" offset="77.54%"/><stop stop-color="#FF9C00" offset="100%"/></linearGradient><linearGradient x1="86.442%" y1="17.507%" x2="-49.835%" y2="195.465%" id="c"><stop stop-color="#FF3A44" offset="0%"/><stop stop-color="#C31162" offset="100%"/></linearGradient><linearGradient x1="-18.526%" y1="-53.775%" x2="42.328%" y2="24.83%" id="d"><stop stop-color="#32A071" offset="0%"/><stop stop-color="#2DA771" offset="6.85%"/><stop stop-color="#15CF74" offset="47.62%"/><stop stop-color="#06E775" offset="80.09%"/><stop stop-color="#00F076" offset="100%"/></linearGradient></defs><g fill="none" fill-rule="evenodd"><path d="M130.5 40.384H5.5c-2.8 0-5-2.2-5-5v-30c0-2.8 2.2-5 5-5h125c2.8 0 5 2.2 5 5v30c0 2.8-2.2 5-5 5z" fill="#000"/><path d="M130.5 1.184c2.3 0 4.2 1.9 4.2 4.2v30c0 2.3-1.9 4.2-4.2 4.2H5.5c-2.3 0-4.2-1.9-4.2-4.2v-30c0-2.3 1.9-4.2 4.2-4.2h125zm0-.8H5.5c-2.8 0-5 2.2-5 5v30c0 2.8 2.2 5 5 5h125c2.8 0 5-2.2 5-5v-30c0-2.7-2.2-5-5-5z" fill="#A6A6A6"/><path d="M68.6 22.184c-2.4 0-4.3 1.8-4.3 4.3 0 2.4 1.9 4.3 4.3 4.3s4.3-1.8 4.3-4.3-1.9-4.3-4.3-4.3zm0 6.8c-1.3 0-2.4-1.1-2.4-2.6s1.1-2.6 2.4-2.6c1.3 0 2.4 1 2.4 2.6s-1.1 2.6-2.4 2.6zm-9.3-6.8c-2.4 0-4.3 1.8-4.3 4.3 0 2.4 1.9 4.3 4.3 4.3s4.3-1.8 4.3-4.3-1.9-4.3-4.3-4.3zm0 6.8c-1.3 0-2.4-1.1-2.4-2.6s1.1-2.6 2.4-2.6c1.3 0 2.4 1 2.4 2.6s-1.1 2.6-2.4 2.6zm-11-5.5v1.8h4.3c-.1 1-.5 1.8-1 2.3-.6.6-1.6 1.3-3.3 1.3-2.7 0-4.7-2.1-4.7-4.8 0-2.7 2.1-4.8 4.7-4.8 1.4 0 2.5.6 3.3 1.3l1.3-1.3c-1.1-1-2.5-1.8-4.5-1.8-3.6 0-6.7 3-6.7 6.6 0 3.6 3.1 6.6 6.7 6.6 2 0 3.4-.6 4.6-1.9 1.2-1.2 1.6-2.9 1.6-4.2 0-.4 0-.8-.1-1.1h-6.2zm45.3 1.4c-.4-1-1.4-2.7-3.6-2.7s-4 1.7-4 4.3c0 2.4 1.8 4.3 4.2 4.3 1.9 0 3.1-1.2 3.5-1.9l-1.4-1c-.5.7-1.1 1.2-2.1 1.2s-1.6-.4-2.1-1.3l5.7-2.4-.2-.5zm-5.8 1.4c0-1.6 1.3-2.5 2.2-2.5.7 0 1.4.4 1.6.9l-3.8 1.6zm-4.7 4.1H85v-12.5h-1.9v12.5zm-3-7.3c-.5-.5-1.3-1-2.3-1-2.1 0-4.1 1.9-4.1 4.3s1.9 4.2 4.1 4.2c1 0 1.8-.5 2.2-1h.1v.6c0 1.6-.9 2.5-2.3 2.5-1.1 0-1.9-.8-2.1-1.5l-1.7.8c.5 1.1 1.7 2.5 3.8 2.5 2.2 0 4-1.3 4-4.4v-7.6H80v.6h.1zm-2.2 5.9c-1.3 0-2.4-1.1-2.4-2.6s1.1-2.6 2.4-2.6c1.3 0 2.3 1.1 2.3 2.6s-1 2.6-2.3 2.6zm24.4-11.1h-4.5v12.5h1.9v-4.7h2.6c2.1 0 4.1-1.5 4.1-3.9s-2-3.9-4.1-3.9zm.1 6.1h-2.7v-4.3h2.7c1.4 0 2.2 1.2 2.2 2.1 0 1-.8 2.2-2.2 2.2zm11.5-1.8c-1.4 0-2.8.6-3.3 1.9l1.7.7c.4-.7 1-.9 1.7-.9 1 0 1.9.6 2 1.6v.1c-.3-.2-1.1-.5-1.9-.5-1.8 0-3.6 1-3.6 2.8 0 1.7 1.5 2.8 3.1 2.8 1.3 0 1.9-.6 2.4-1.2h.1v1h1.8v-4.8c-.2-2.3-1.9-3.5-4-3.5zm-.2 6.8c-.6 0-1.5-.3-1.5-1.1 0-1 1.1-1.3 2-1.3.8 0 1.2.2 1.7.4-.2 1.2-1.2 2-2.2 2zm10.6-6.6l-2.1 5.4h-.2l-2.2-5.4h-2l3.3 7.6-1.9 4.2h1.9l5.1-11.8h-1.9zm-16.9 8h1.9v-12.5h-1.9v12.5z" fill="#FFF"/><path d="M.9 1.3c-.3.3-.5.8-.5 1.4v22.1c0 .6.2 1.1.5 1.4l.1.1 12.4-12.4v-.2L.9 1.3z" fill="url(#a)" transform="translate(10 6.684)"/><path d="M17.5 18l-4.1-4.1v-.2l4.1-4.1.1.1 4.9 2.8c1.4.8 1.4 2.1 0 2.9l-5 2.6z" fill="url(#b)" transform="translate(10 6.684)"/><path d="M17.6 18l-4.2-4.2L.9 26.2c.5.5 1.2.5 2.1.1L17.6 18" fill="url(#c)" transform="translate(10 6.684)"/><path d="M17.6 9.5L3 1.2C2.1.7 1.4.8.9 1.3l12.5 12.5 4.2-4.3z" fill="url(#d)" transform="translate(10 6.684)"/><g fill="#000"><path d="M27.5 24.584l-14.5 8.2c-.8.5-1.5.4-2 0l-.1.1.1.1c.5.4 1.2.5 2 0l14.5-8.4z" opacity=".2"/><path d="M10.9 32.784c-.3-.3-.5-.8-.5-1.4v.1c0 .6.2 1.1.5 1.4v-.1z" opacity=".12"/></g><path d="M32.5 21.684l-5 2.8.1.1 4.9-2.8c.7-.4 1-.9 1-1.4 0 .5-.3 1-1 1.3z" fill="#000" opacity=".12"/><path d="M13 8.084l19.5 11.1c.6.4 1 .8 1 1.3 0-.5-.3-1-1-1.4L13 7.884c-1.4-.8-2.5-.1-2.5 1.5v.1c0-1.6 1.1-2.2 2.5-1.4z" fill="#FFF" opacity=".25"/><g stroke="#FFF" stroke-width=".2" fill="#FFF"><path d="M43.3 12.684v-6h1.8c.9 0 1.7.3 2.2.8.6.6.8 1.3.8 2.2 0 .9-.3 1.6-.8 2.2-.6.6-1.3.8-2.2.8h-1.8zm.8-.7h1.1c.7 0 1.2-.2 1.6-.6.4-.4.6-1 .6-1.7s-.2-1.3-.6-1.7c-.4-.4-1-.6-1.6-.6h-1.1v4.6zM49.3 12.684v-6h.8v6zM53.1 12.784c-.4 0-.9-.1-1.3-.4-.4-.3-.7-.7-.8-1.2l.7-.3c.1.3.3.6.5.8.3.2.6.3.9.3.3 0 .6-.1.9-.3.2-.2.4-.4.4-.7 0-.3-.1-.6-.4-.8-.2-.2-.6-.4-1.1-.5-.5-.2-.9-.4-1.2-.6-.3-.3-.4-.6-.4-1s.2-.8.5-1.1c.3-.3.8-.5 1.3-.5s.9.1 1.2.4c.3.3.5.5.6.8l-.7.3c-.1-.2-.2-.4-.4-.5-.2-.2-.5-.2-.8-.2-.3 0-.5.1-.8.2-.1.2-.2.4-.2.7 0 .2.1.4.3.6.2.2.5.3.9.4.3.1.5.2.7.3.2.1.4.2.6.4.2.1.4.3.5.6.1.2.2.5.2.8 0 .3-.1.6-.2.8-.1.2-.3.4-.5.5l-.6.3c-.3-.1-.5-.1-.8-.1zM57 12.684h-.8v-6h2c.5 0 .9.2 1.3.5s.6.8.6 1.3-.2.9-.6 1.3c-.4.3-.8.5-1.3.5H57v2.4zm0-3.2h1.3c.3 0 .6-.1.8-.3.2-.2.3-.5.3-.7 0-.3-.1-.5-.3-.7-.2-.2-.5-.3-.8-.3H57v2zM66 11.884c-.6.6-1.3.9-2.2.9-.9 0-1.6-.3-2.2-.9-.6-.6-.9-1.3-.9-2.2 0-.9.3-1.6.9-2.2.6-.6 1.3-.9 2.2-.9.9 0 1.6.3 2.2.9.6.6.9 1.3.9 2.2 0 .9-.3 1.6-.9 2.2zm-3.8-.5c.4.4 1 .7 1.6.7.6 0 1.2-.2 1.6-.7.4-.4.7-1 .7-1.7s-.2-1.3-.7-1.7c-.4-.4-1-.7-1.6-.7-.6 0-1.2.2-1.6.7-.4.4-.7 1-.7 1.7s.3 1.3.7 1.7zM68 12.684v-6h.9l2.9 4.7v-4.7h.8v6h-.8l-3.1-4.9v4.9zM74 12.684v-6h.8v6H74zm.7-6.5H74l.4-1.1h.8l-.5 1.1zM77.6 12.684l-2.1-6h.9l1.6 4.9 1.7-4.9h.9l-2.2 6zM85 7.384h-2.7v1.9h2.5v.7h-2.5v1.9H85v.8h-3.5v-6H85zM86.2 12.684v-6h.8v5.3h2.6v.7zM92.6 12.684v-6h.9l2.9 4.7v-4.7h.8v6h-.8l-3.1-4.9v4.9zM103.5 11.884c-.6.6-1.3.9-2.2.9-.9 0-1.6-.3-2.2-.9-.6-.6-.9-1.3-.9-2.2 0-.9.3-1.6.9-2.2.6-.6 1.3-.9 2.2-.9.9 0 1.6.3 2.2.9.6.6.9 1.3.9 2.2-.1.9-.4 1.6-.9 2.2zm-3.9-.5c.4.4 1 .7 1.6.7.6 0 1.2-.2 1.6-.7.4-.4.7-1 .7-1.7s-.2-1.3-.7-1.7c-.4-.4-1-.7-1.6-.7-.6 0-1.2.2-1.6.7-.4.4-.7 1-.7 1.7s.3 1.3.7 1.7z"/></g></g></svg>