<svg width="135" height="41" viewBox="0 0 135 41" xmlns="http://www.w3.org/2000/svg"><title>btn-baixar-na-appstore</title><g fill="none" fill-rule="evenodd"><path d="M130.197 40.684H4.73C2.12 40.684 0 38.556 0 35.95V5.41C0 2.804 2.122.684 4.73.684h125.467c2.606 0 4.803 2.12 4.803 4.726v30.54c0 2.606-2.197 4.734-4.803 4.734z" fill="#A6A6A6"/><path d="M134.032 35.952c0 2.116-1.714 3.83-3.834 3.83H4.728c-2.118 0-3.838-1.714-3.838-3.83V5.41c0-2.116 1.72-3.836 3.84-3.836h125.467c2.12 0 3.834 1.72 3.834 3.835l.002 30.542z" fill="#000"/><g fill="#FFF"><path d="M30.128 20.468c-.03-3.223 2.64-4.79 2.76-4.864-1.51-2.203-3.852-2.504-4.675-2.528-1.967-.207-3.875 1.177-4.877 1.177-1.022 0-2.565-1.157-4.228-1.123-2.14.033-4.142 1.272-5.24 3.196-2.266 3.923-.576 9.688 1.595 12.86 1.086 1.552 2.355 3.286 4.016 3.225 1.624-.066 2.23-1.035 4.192-1.035 1.943 0 2.513 1.036 4.207.997 1.743-.028 2.84-1.56 3.89-3.127 1.254-1.78 1.758-3.533 1.778-3.623-.04-.014-3.387-1.29-3.42-5.154zM26.928 10.99c.874-1.093 1.472-2.58 1.306-4.09-1.265.057-2.847.876-3.758 1.945-.806.942-1.526 2.486-1.34 3.938 1.42.106 2.88-.717 3.792-1.793z"/></g><g fill="#FFF"><path d="M53.717 32.188h-2.27l-1.245-3.91h-4.324l-1.185 3.91h-2.21l4.283-13.308h2.646l4.305 13.308zm-3.89-5.55l-1.124-3.474c-.12-.355-.342-1.19-.67-2.507h-.04c-.132.566-.343 1.402-.633 2.507l-1.105 3.475h3.573zM64.734 27.272c0 1.632-.44 2.922-1.323 3.87-.79.842-1.77 1.263-2.94 1.263-1.265 0-2.173-.454-2.726-1.362h-.04v5.055h-2.132V25.75c0-1.025-.027-2.078-.08-3.158h1.876l.12 1.52h.04c.71-1.145 1.79-1.717 3.237-1.717 1.132 0 2.077.447 2.833 1.342.758.896 1.136 2.074 1.136 3.535zm-2.172.078c0-.934-.21-1.704-.632-2.31-.46-.632-1.08-.948-1.856-.948-.526 0-1.004.176-1.43.523-.43.35-.71.807-.84 1.373-.066.264-.1.48-.1.65v1.6c0 .698.215 1.287.643 1.768.428.48.984.72 1.668.72.803 0 1.428-.31 1.875-.927.448-.62.672-1.436.672-2.45zM75.77 27.272c0 1.632-.44 2.922-1.323 3.87-.79.842-1.77 1.263-2.94 1.263-1.265 0-2.173-.454-2.725-1.362h-.04v5.055H66.61V25.75c0-1.025-.027-2.078-.08-3.158h1.876l.12 1.52h.04c.71-1.145 1.788-1.717 3.237-1.717 1.13 0 2.076.447 2.834 1.342.756.896 1.134 2.074 1.134 3.535zm-2.17.078c0-.934-.21-1.704-.633-2.31-.46-.632-1.078-.948-1.855-.948-.527 0-1.004.176-1.432.523-.428.35-.707.807-.838 1.373-.065.264-.1.48-.1.65v1.6c0 .698.215 1.287.64 1.768.43.48.985.72 1.67.72.804 0 1.43-.31 1.876-.927.447-.62.672-1.436.672-2.45zM88.11 28.456c0 1.132-.392 2.053-1.18 2.764-.868.777-2.075 1.165-3.626 1.165-1.432 0-2.58-.276-3.45-.83l.495-1.776c.935.565 1.962.85 3.08.85.804 0 1.43-.183 1.878-.545.447-.362.67-.848.67-1.454 0-.54-.184-.994-.553-1.363-.367-.37-.98-.712-1.836-1.03-2.33-.868-3.495-2.14-3.495-3.815 0-1.094.408-1.99 1.225-2.69.814-.698 1.9-1.047 3.258-1.047 1.21 0 2.217.21 3.02.632l-.533 1.738c-.75-.408-1.598-.612-2.547-.612-.75 0-1.336.185-1.756.553-.355.33-.533.73-.533 1.205 0 .527.202.962.61 1.304.355.316 1 .658 1.936 1.027 1.145.462 1.986 1 2.527 1.62.54.615.808 1.386.808 2.306zM95.16 24.192h-2.35v4.66c0 1.184.414 1.776 1.244 1.776.38 0 .697-.033.947-.1l.06 1.62c-.42.157-.973.236-1.658.236-.842 0-1.5-.257-1.975-.77-.473-.514-.71-1.376-.71-2.587V24.19h-1.4v-1.6h1.4v-1.757l2.093-.632v2.39h2.35v1.602zM105.764 27.31c0 1.476-.422 2.687-1.264 3.634-.883.975-2.055 1.46-3.516 1.46-1.408 0-2.53-.466-3.365-1.4-.837-.934-1.255-2.113-1.255-3.534 0-1.487.43-2.705 1.293-3.652.86-.948 2.023-1.422 3.484-1.422 1.408 0 2.54.467 3.396 1.402.817.907 1.226 2.078 1.226 3.513zm-2.213.07c0-.885-.188-1.644-.57-2.277-.448-.766-1.087-1.148-1.915-1.148-.857 0-1.508.383-1.955 1.148-.383.634-.572 1.405-.572 2.317 0 .885.19 1.644.572 2.276.46.766 1.105 1.148 1.936 1.148.814 0 1.453-.39 1.914-1.168.394-.645.59-1.412.59-2.296zM112.693 24.467c-.21-.04-.436-.06-.672-.06-.75 0-1.33.284-1.737.85-.355.5-.533 1.133-.533 1.896v5.035h-2.13l.02-6.574c0-1.106-.028-2.113-.08-3.02h1.856l.078 1.835h.06c.224-.632.58-1.14 1.065-1.52.474-.344.987-.515 1.54-.515.197 0 .375.014.533.04v2.032zM122.23 26.936c0 .382-.026.704-.08.967h-6.395c.025.948.334 1.673.928 2.173.54.447 1.236.67 2.092.67.947 0 1.81-.15 2.588-.453l.334 1.48c-.908.396-1.98.593-3.217.593-1.488 0-2.656-.438-3.506-1.313-.848-.875-1.273-2.05-1.273-3.524 0-1.448.396-2.653 1.187-3.614.828-1.026 1.947-1.54 3.355-1.54 1.383 0 2.43.514 3.14 1.54.563.815.847 1.823.847 3.02zm-2.035-.553c.014-.632-.125-1.178-.414-1.64-.368-.592-.935-.888-1.698-.888-.697 0-1.264.29-1.697.87-.355.46-.566 1.013-.63 1.657h4.44z"/></g><g fill="#FFF"><path d="M48.045 12.245c0 .53-.197.97-.592 1.32-.452.406-1.23.61-2.327.61-.505 0-.964-.026-1.378-.078v-6.43c.438-.09.98-.137 1.626-.137.8 0 1.404.146 1.814.437.41.29.614.692.614 1.203 0 .31-.095.593-.283.85-.19.254-.455.443-.794.566v.03c.368.09.672.264.91.522.274.305.41.674.41 1.107zm-1.29-2.968c0-.64-.425-.96-1.273-.96-.297 0-.524.02-.686.06v1.92h.646c.405 0 .726-.095.96-.282.236-.188.353-.434.353-.738zm.195 2.94c0-.39-.15-.683-.454-.883-.27-.18-.63-.272-1.08-.272h-.62v2.28c.13.026.342.04.64.04.442 0 .794-.088 1.05-.263.31-.203.464-.503.464-.904zM53.167 14.117h-.94l-.078-.543h-.03c-.323.433-.782.65-1.377.65-.446 0-.806-.143-1.077-.427-.246-.258-.368-.58-.368-.96 0-.576.24-1.015.723-1.32.482-.303 1.16-.452 2.033-.445v-.088c0-.62-.326-.93-.978-.93-.465 0-.875.116-1.23.348l-.212-.688c.438-.27.98-.407 1.617-.407 1.233 0 1.85.65 1.85 1.95v1.736c0 .47.023.846.067 1.124zm-1.086-1.62v-.727c-1.156-.02-1.734.297-1.734.95 0 .246.067.43.202.553.135.123.306.184.51.184.232 0 .446-.073.643-.218.198-.146.318-.332.363-.56.012-.05.018-.112.018-.183zM56.096 7.996c0 .188-.062.34-.184.456-.123.117-.28.175-.476.175-.175 0-.322-.06-.44-.18-.12-.12-.18-.27-.18-.45s.06-.33.184-.447c.123-.116.274-.175.456-.175.18 0 .333.06.456.175.123.116.184.265.184.446zm-.116 6.12h-1.048V9.404h1.048v4.714zM61.684 14.117H60.5l-.61-.99c-.137-.22-.285-.48-.447-.785h-.02c-.097.188-.245.45-.445.786l-.582.99H57.25l1.61-2.407-1.552-2.308h1.164l.592.94c.116.182.262.43.437.748h.03c.142-.278.284-.534.427-.766l.553-.922h1.145l-1.562 2.27 1.59 2.445zM66.514 14.117h-.94l-.078-.543h-.03c-.322.433-.78.65-1.376.65-.446 0-.806-.143-1.077-.427-.246-.258-.368-.58-.368-.96 0-.576.24-1.015.723-1.32.48-.303 1.16-.452 2.032-.445v-.088c0-.62-.326-.93-.978-.93-.465 0-.875.116-1.23.348l-.212-.688c.438-.27.98-.407 1.617-.407 1.233 0 1.85.65 1.85 1.95v1.736c0 .47.022.846.067 1.124zm-1.087-1.62v-.727c-1.157-.02-1.735.297-1.735.95 0 .246.067.43.202.553.135.123.306.184.51.184.232 0 .446-.073.643-.218.197-.146.317-.332.362-.56.01-.05.017-.112.017-.183zM70.77 10.325c-.103-.02-.212-.03-.33-.03-.366 0-.65.14-.853.418-.174.246-.262.556-.262.93v2.475h-1.047l.01-3.23c0-.543-.013-1.038-.038-1.484h.912l.04.902h.028c.11-.31.283-.56.523-.747.232-.17.484-.253.756-.253.097 0 .185.006.26.02v.998zM79.037 14.117h-1.05v-2.7c0-.832-.315-1.248-.948-1.248-.312 0-.563.113-.76.342-.192.23-.29.5-.29.808v2.796h-1.047V10.75c0-.414-.014-.863-.04-1.35h.923l.05.738h.028c.12-.23.303-.418.543-.57.283-.175.602-.264.95-.264.44 0 .806.142 1.097.427.36.35.543.87.543 1.563v2.824zM84.41 14.117h-.94l-.077-.543h-.03c-.323.433-.782.65-1.376.65-.447 0-.807-.143-1.078-.427-.247-.258-.368-.58-.368-.96 0-.576.24-1.015.723-1.32.48-.303 1.158-.452 2.03-.445v-.088c0-.62-.325-.93-.976-.93-.466 0-.876.116-1.23.348l-.214-.688c.44-.27.98-.407 1.617-.407 1.234 0 1.85.65 1.85 1.95v1.736c0 .47.022.846.067 1.124zm-1.086-1.62v-.727c-1.158-.02-1.736.297-1.736.95 0 .246.068.43.203.553.136.123.306.184.51.184.233 0 .446-.073.644-.218.195-.147.316-.332.36-.56.014-.05.02-.112.02-.183z"/></g></g></svg>