<svg xmlns="http://www.w3.org/2000/svg" width="33" height="33" viewBox="0 0 33 33"><circle fill="#FDB933" cx="16.5" cy="16.5" r="16.5"/><path fill="#fff" d="M3.3 12.3h2.7c1.3 0 2.3.7 2.3 1.9 0 .7-.4 1.3-.9 1.6.9.3 1.2 1 1.2 1.7 0 1.5-1.2 2.2-2.6 2.2h-2.7v-7.4zm3.7 2.2c0-.6-.3-1-1-1h-1.3v1.9h1.3s1-.1 1-.9zm.2 3.2c0-.6-.4-1.1-1.1-1.1h-1.4v2.3h1.4c.1 0 1.1 0 1.1-1.2zm2.6-5.4h1.3v6.4h3.3v1.2h-4.6v-7.6zm8.7 0c2.2 0 3.8 1.6 3.8 3.8s-1.6 3.9-3.8 3.9-3.8-1.7-3.8-3.9c-.1-2.1 1.6-3.8 3.8-3.8zm0 6.6c1.3 0 2.5-1.1 2.5-2.7 0-1.4-1.1-2.6-2.5-2.6s-2.5 1.1-2.5 2.6 1.1 2.7 2.5 2.7zm8.4-6.6c1.8 0 2.8 1 2.8 1l-.7 1s-.8-.7-2-.7c-1.6 0-2.6 1.1-2.6 2.6 0 1.6 1.1 2.7 2.5 2.7 1.1 0 1.9-.8 1.9-.8v-1h-1.1v-1.1h2.4v3.8h-1.1v-.7s-.8.8-2.2.8c-2 0-3.6-1.5-3.6-3.8-.2-2.1 1.5-3.8 3.7-3.8z"/></svg>