<svg xmlns="http://www.w3.org/2000/svg" width="33" height="33" viewBox="0 0 33 33"><path fill="#FDB933" d="M10.9 13.9c0-1.6-.4-3.4-1.3-5.1-.3-.8-.9-1.5-1.6-2-.6-.5-1.4-.8-2.3-.8-1.2 0-2.1.5-2.9 1.5-.7 1-1 2-1 3.2 0 1.6.5 3.2 1.4 4.9.5.8 1 1.5 1.7 2 .7.6 1.5.8 2.4.8 1.2 0 2-.5 2.8-1.3.4-.6.6-1.1.7-1.7.1-.6.1-1.1.1-1.5zm1.9 18.7c.2-.5.5-1 .5-1.7 0-1.1-.4-2-1.1-2.8-.8-.8-1.9-1.7-3.5-2.8h-1c-.2 0-.8 0-1.6.1s-1.8.3-2.7.6c-.1 0-.2.1-.4.1 2.4 3.2 5.8 5.6 9.8 6.5zm-5.3-8.6l-.9-1.3c-.3-.5-.4-1-.4-1.7 0-.4.1-.7.2-1l.3-.8c-.5.1-1 .1-1.4.1-2.3 0-4.1-.8-5.2-2.1l-.1-.1c.1 2.7.9 5.3 2.2 7.6.5-.2 1.1-.3 1.5-.4 1.6-.1 2.9-.3 3.8-.3zm9-24c-4.7 0-8.9 1.9-11.9 5h.1c1.3-.3 2.6-.4 3.7-.4h8.6l-2.6 1.9h-2.6c.3 0 .6.2.9.6.3.3.7.7 1 1.2.3.5.6 1 .8 1.6.2.6.3 1.4.3 2.1 0 1.6-.4 2.7-1.1 3.7-.3.5-.7.9-1.1 1.3-.4.4-.8.8-1.3 1.2-.3.3-.5.6-.7.9-.3.4-.4.8-.4 1.3s.1.8.4 1.1l.7.8 1.5 1.2c.9.8 1.7 1.6 2.4 2.4.7.9 1 2.1 1 3.6 0 1.4-.4 2.5-1.1 3.7l1.5.1c9-.3 16.4-7.7 16.4-16.8s-7.5-16.5-16.5-16.5zm7.7 11.4v4.9h-1.9v-4.9h-4.8v-2h4.8v-4.8h1.9v4.9h4.8v1.9h-4.8z"/><path fill="#fff" d="M15.1 25.6c-.7-.9-1.5-1.7-2.4-2.4l-1.5-1.2c-.2-.2-.4-.5-.7-.8-.3-.3-.4-.7-.4-1.1 0-.5.1-.9.4-1.3.2-.3.5-.7.7-.9.5-.4.9-.8 1.3-1.2.4-.4.7-.8 1.1-1.3.7-1 1-2.1 1.1-3.7 0-.9-.1-1.6-.3-2.2-.2-.6-.5-1.2-.8-1.6-.3-.5-.6-.7-1-1.1-.3-.3-.6-.5-.9-.5h2.6l2.6-1.9h-8.5c-1.1.2-2.4.3-3.7.6h-.1c-2.9 3-4.6 7-4.6 11.5v.7l.1.1c1.2 1.5 2.9 2.1 5.2 2.1.4 0 .9 0 1.4-.1-.1.2-.2.5-.3.8-.1.3-.2.6-.2 1 0 .7.1 1.2.4 1.7s.5.9.9 1.3c-1 0-2.2.2-3.8.4-.5.1-1.1.2-1.5.4l.7 1.1c.3-.1.4-.1.5-.2 1-.3 1.8-.5 2.7-.6s1.5-.1 1.6-.1h1c1.6 1.2 2.8 2 3.5 2.8s1.1 1.7 1.1 2.8c0 .6-.1 1.2-.4 1.8l2.3.3c.8-1.2.9-2.4.9-3.8 0-1.2-.3-2.4-1-3.4zm-7.7-7.4c-.9 0-1.6-.3-2.4-.8-.7-.6-1.3-1.3-1.7-2-.9-1.6-1.4-3.3-1.4-4.9 0-1.2.3-2.2 1-3.2.7-.8 1.6-1.3 2.8-1.4.9 0 1.6.3 2.3.8.7.6 1.3 1.3 1.7 2.1.9 1.7 1.3 3.4 1.3 5.1 0 .4 0 .9-.1 1.5s-.3 1.2-.7 1.7c-.8.8-1.7 1.1-2.8 1.1zm16.8-8.8v-4.8h-1.9v4.9h-4.8v1.9h4.8v4.9h1.9v-4.9h4.8v-2h-4.8z"/></svg>