<svg xmlns="http://www.w3.org/2000/svg" width="33" height="33" viewBox="0 0 33 33"><path fill="#fff" d="M17.7 6.3c-5.9 0-8.9 4.3-8.9 7.8 0 2.1.8 4.1 2.5 4.8.3.1.6 0 .6-.3l.3-1c.1-.3.1-.4-.2-.7-.5-.6-.8-1.4-.8-2.4 0-3.1 2.3-5.9 6.1-5.9 3.3 0 5.1 2 5.1 4.8 0 3.6-1.6 6.6-4 6.6-1.3 0-2.2-1.1-1.9-2.4.4-1.6 1.1-3.3 1.1-4.5 0-1.1-.6-1.8-1.7-1.8-1.4 0-2.4 1.4-2.4 3.2 0 1.2.4 1.9.4 1.9s-1.4 5.7-1.6 6.8c-.5 2-.1 4.5 0 4.8 0 .2.2.2.3.1.1-.2 1.7-2.1 2.2-4.1.2-.6.9-3.4.9-3.4.4.9 1.7 1.6 3 1.6 4 0 6.7-3.7 6.7-8.5.1-4-3-7.4-7.7-7.4z"/><circle fill="#FDB933" cx="16.5" cy="16.5" r="16.5"/><path fill="#fff" d="M17.1 5.6c-6.2 0-9.3 4.5-9.3 8.2 0 2.2.9 4.3 2.7 4.9.3.1.6 0 .7-.3.1-.2.2-.8.3-1.1.1-.3.1-.5-.2-.7-.5-.6-.9-1.5-.9-2.5 0-3.3 2.4-6.2 6.4-6.2 3.5 0 5.4 2.1 5.4 5 0 3.8-1.7 7-4.2 7-1.4 0-2.4-1.2-2-2.5.4-1.7 1.2-3.4 1.2-4.7 0-1.1-.6-1.9-1.7-1.9-1.4 0-2.5 1.5-2.5 3.4 0 1.3.4 2 .4 2s-1.5 6-1.6 7.1c-.5 2.1-.1 4.7 0 5 0 .2.2.2.3.1.1-.2 1.7-2.2 2.3-4.3.2-.6.9-3.6.9-3.6.5.9 1.7 1.7 3.2 1.7 4.2 0 7.1-3.8 7.1-8.9-.3-4.1-3.6-7.7-8.5-7.7z"/></svg>