<svg xmlns="http://www.w3.org/2000/svg" width="33" height="33" viewBox="0 0 33 33"><circle fill="#FDB933" cx="16.5" cy="16.5" r="16.5"/><g fill="#fff"><circle cx="16.5" cy="16.2" r="1.9"/><path d="M20.4 16.2c0 2.1-1.7 3.9-3.9 3.9s-3.9-1.7-3.9-3.9c0-1.2.5-2.2 1.4-2.9h-6.2v7.8c0 2.1 1.7 3.9 3.9 3.9h9.7c2.1 0 3.9-1.7 3.9-3.9v-7.8h-6.3c.9.7 1.4 1.7 1.4 2.9zm1-8.7h-9.7c-2.1 0-3.9 1.7-3.9 3.9v1h17.5v-1c-.1-2.2-1.8-3.9-3.9-3.9zm1.9 2.9c0 .5-.5 1-1 1h-1c-.5 0-1-.5-1-1v-1c0-.5.5-1 1-1h1c.5 0 1 .5 1 1v1z"/></g></svg>