<svg width="37" height="36" viewBox="0 0 37 36" xmlns="http://www.w3.org/2000/svg"><title>ic-blog-hover</title><g transform="translate(.515)" fill="none" fill-rule="evenodd"><ellipse fill="#FDB933" cx="18" cy="18" rx="18" ry="18"/><path d="M6.545 21.19h2.277c1.116 0 2.043-.613 2.043-1.81 0-.71-.378-1.34-1.044-1.54v-.017c.487-.252.793-.747.793-1.368 0-1.026-.774-1.62-1.845-1.62H6.545v6.354zm.89-3.682v-1.9H8.75c.612 0 .954.38.954.937 0 .558-.36.963-.936.963H7.436zm0 2.907v-2.17H8.86c.666 0 1.098.442 1.098 1.09 0 .648-.405 1.08-1.09 1.08h-1.43zm4.816.774h3.736v-.775h-2.844v-5.58h-.89v6.354zm4.33-3.223c0 1.872 1.43 3.33 3.267 3.33 1.836 0 3.258-1.458 3.258-3.33 0-1.827-1.422-3.24-3.258-3.24s-3.267 1.413-3.267 3.24zm.918 0c0-1.386 1.053-2.43 2.35-2.43 1.295 0 2.34 1.044 2.34 2.43 0 1.43-1.045 2.51-2.34 2.51-1.297 0-2.35-1.08-2.35-2.51zm6.48.036c0 1.944 1.413 3.294 3.123 3.294 1.26 0 1.954-.774 1.954-.774h.018s-.01.135-.01.27v.396h.784v-3.196H28v.774h1.036v.918s-.702.792-1.8.792c-1.332 0-2.34-1.017-2.34-2.493 0-1.36.9-2.448 2.394-2.448 1.08 0 1.79.62 1.79.62l.45-.665s-.79-.765-2.312-.765c-1.854 0-3.24 1.44-3.24 3.276z" fill="#FFF"/></g></svg>