<svg width="160" height="41" viewBox="0 0 160 41" xmlns="http://www.w3.org/2000/svg" xmlns:xlink="http://www.w3.org/1999/xlink"><title>ic-compra-segura</title><defs><path id="a" d="M160 0v40H0V0z"/><mask id="b" x="0" y="0" width="160" height="40" fill="#fff"><use xlink:href="#a"/></mask></defs><g fill="none" fill-rule="evenodd"><use stroke="#DADADA" mask="url(#b)" stroke-width="2" fill="#FBFBFB" xlink:href="#a"/><g fill="#91BA3E"><path d="M41.34 28.914s1.148 1.03 2.38 1.03c.517 0 1.062-.167 1.062-.78 0-1.114-4.474-1.114-4.474-4.01 0-1.783 1.49-2.897 3.5-2.897 2.092 0 3.153 1.114 3.153 1.114l-1.06 1.867s-.975-.863-2.18-.863c-.515 0-1.06.25-1.06.78 0 1.197 4.473 1.03 4.473 4.01 0 1.616-1.233 2.98-3.498 2.98-2.295 0-3.585-1.364-3.585-1.364l1.29-1.866zM48.797 22.34h2.38v9.554h-2.38M55.364 24.402H52.38V22.37h8.433V24.4H57.83v7.576h-2.38v-7.576M62.046 22.34h6.137v2.034h-3.785v1.7h2.982v2.032h-2.982v1.783h3.957v2.032H61.96v-9.637h.086M73.288 22.34h4.13c1.92 0 3.24 1.365 3.24 3.315s-1.32 3.315-3.24 3.315h-1.75v2.98h-2.38v-9.61zm3.584 4.624c.89 0 1.234-.5 1.234-1.28s-.43-1.282-1.234-1.282H75.64v2.562h1.232zM82.063 22.34h3.413c.975 0 1.49.084 1.92.25 1.148.42 1.837 1.366 1.837 2.814 0 1.03-.517 2.117-1.492 2.646 0 0 .173.168.345.585l1.922 3.315h-2.725l-1.75-3.23h-1.146v3.23h-2.38v-9.61h.057zm3.413 4.374c.803 0 1.233-.418 1.233-1.198 0-.67-.26-1.198-1.492-1.198h-.803v2.312h1.06v.084zM95.915 22.174c2.982 0 5.19 2.116 5.19 4.846 0 2.813-2.18 5.04-5.19 5.04-2.983 0-5.19-2.227-5.19-5.04.028-2.702 2.207-4.846 5.19-4.846zm0 7.77c1.49 0 2.638-1.197 2.638-2.896 0-1.532-1.233-2.73-2.638-2.73-1.406 0-2.64 1.198-2.64 2.73-.085 1.7 1.148 2.896 2.64 2.896zM104.604 24.402h-2.983V22.37h8.433V24.4h-2.983v7.576h-2.466M111.2 22.34h6.137v2.034h-3.786v1.7h2.984v2.032h-2.983v1.783h3.96v2.032h-6.396v-9.637h.086M123.818 22.174c2.552 0 3.786 1.28 3.786 1.28l-1.148 1.783s-.975-.863-2.38-.863c-2.093 0-2.896 1.28-2.896 2.73 0 1.782 1.32 2.896 2.81 2.896 1.147 0 2.008-.668 2.008-.668v-.752h-1.406v-1.95h3.5v5.376h-2.008v-.67s-.975.865-2.64.865c-2.55 0-4.817-1.866-4.817-4.93.03-2.952 2.21-5.096 5.19-5.096zM129.87 22.34h2.38v9.554h-2.38M134.63 22.34h3.498c3.07 0 5.076 1.783 5.076 4.763s-2.007 4.763-5.076 4.763h-3.498V22.34zm3.412 7.604c1.664 0 2.725-.947 2.725-2.813 0-1.78-1.06-2.728-2.725-2.728h-.975v5.542h.975zM149.456 22.174c2.983 0 5.19 2.116 5.19 4.846 0 2.813-2.18 5.04-5.19 5.04-3.01 0-5.19-2.227-5.19-5.04 0-2.702 2.208-4.846 5.19-4.846zm0 7.77c1.49 0 2.64-1.197 2.64-2.896 0-1.532-1.235-2.73-2.64-2.73-1.49 0-2.638 1.198-2.638 2.73-.086 1.7 1.147 2.896 2.638 2.896z"/></g><path d="M45.383 9.936c-1.716 0-2.504 1.174-2.504 2.43 0 1.258.87 2.596 2.503 2.596 1.293 0 2.334-1.093 2.334-1.093l1.125 1.502s-1.21 1.42-3.516 1.42c-2.756 0-4.64-1.912-4.64-4.425s1.968-4.425 4.64-4.425c2.138 0 3.263 1.174 3.263 1.174L47.547 10.7c.057.083-.956-.764-2.165-.764zm9.28 6.856c-2.67 0-4.555-1.912-4.555-4.425 0-2.43 1.97-4.344 4.556-4.344 2.672 0 4.557 1.913 4.557 4.344.085 2.513-1.884 4.425-4.556 4.425zm0-6.856c-1.293 0-2.418 1.092-2.418 2.43 0 1.42 1.04 2.596 2.42 2.596 1.293 0 2.418-1.093 2.418-2.595 0-1.42-1.125-2.43-2.42-2.43zm13.868 6.774l-.253-3.85c-.084-.657 0-1.422 0-1.422s-.253.93-.506 1.42l-.955 2.514h-1.8l-.956-2.513c-.17-.493-.508-1.422-.508-1.422s.085.765 0 1.42L63.3 16.71h-2.167l.675-8.523h2.335l1.294 3.606c.168.574.422 1.42.422 1.42s.252-.846.42-1.42l1.294-3.606h2.335l.674 8.523H68.53zm8.185-2.677h-1.462v2.677h-2.138V8.105h3.63c1.714 0 2.84 1.257 2.84 2.923-.057 1.667-1.154 3.005-2.87 3.005zm-.365-4.097h-1.125v2.35h1.04c.788 0 1.125-.493 1.125-1.176 0-.737-.337-1.174-1.04-1.174zm10.238 3.196s.084.164.337.492l1.716 3.004h-2.418l-1.547-2.84h-1.04v2.84h-2.138V8.105h3.094c.873 0 1.295.082 1.717.164 1.04.327 1.63 1.256 1.63 2.513-.055.928-.477 1.912-1.35 2.35zm-2.222-3.196h-.675v2.076h.957c.675 0 1.125-.328 1.125-1.093-.112-.63-.28-.984-1.406-.984zm11.11 6.774l-.507-1.748h-2.757l-.506 1.748h-2.25l3.01-8.523h2.25l3.01 8.523h-2.25zM93.9 11.547c-.168-.49-.337-1.502-.337-1.502s-.17.93-.337 1.502l-.507 1.667h1.715l-.534-1.667zm11.448-1.61c-.422 0-.956.163-.956.654 0 1.094 3.966.93 3.966 3.607 0 1.42-1.125 2.677-3.094 2.677-2.054 0-3.18-1.256-3.18-1.256l1.126-1.585s1.04.93 2.054.93c.422 0 .956-.165.956-.657 0-1.01-3.966-1.01-3.966-3.605 0-1.584 1.378-2.595 3.094-2.595 1.885 0 2.84 1.01 2.84 1.01l-.955 1.668c.028-.082-.844-.847-1.885-.847zm10.773 4.943v1.748h-5.68V8.105h5.512v1.75h-3.347v1.583h2.672v1.748h-2.672v1.667h3.516v.027zm6.89-1.256v-1.75h3.18v4.836h-1.8v-.573s-.872.765-2.335.765c-2.25 0-4.303-1.667-4.303-4.426 0-2.513 1.884-4.425 4.64-4.425 2.25 0 3.348 1.175 3.348 1.175l-1.04 1.585s-.873-.765-2.14-.765c-1.8 0-2.586 1.175-2.586 2.43 0 1.586 1.125 2.596 2.503 2.596 1.04 0 1.8-.572 1.8-.572v-.656h-1.266v-.218zm8.946 3.168c-2.25 0-3.713-1.338-3.713-3.25V8.105h2.138v5.437c0 .928.59 1.338 1.548 1.338.956 0 1.547-.492 1.547-1.338V8.105h2.137v5.437c-.028 1.912-1.406 3.25-3.656 3.25zm11.278-3.66s.085.164.338.492l1.716 3.004h-2.42l-1.546-2.84h-1.04v2.84h-2.138V8.105h3.093c.872 0 1.294.082 1.716.164 1.04.327 1.63 1.256 1.63 2.513-.055.928-.505 1.912-1.35 2.35zm-2.165-3.196h-.676v2.076h.956c.675 0 1.125-.328 1.125-1.093-.113-.63-.366-.984-1.406-.984zm11.11 6.774l-.508-1.748h-2.756l-.506 1.748h-2.25l3.01-8.523h2.25l3.01 8.523h-2.25zm-1.548-5.163c-.17-.49-.338-1.502-.338-1.502s-.17.93-.337 1.502l-.507 1.667h1.716l-.534-1.667z" fill="#9E9E9E"/><path d="M5 5h31v31H5V5z" fill="#91BA3E"/><path d="M30.607 19.873c-.39-.392-.808-.55-1.278-.55h-.626v-3.68c0-2.403-.886-4.387-2.554-6.084C24.482 7.81 22.397 7 20.077 7c-2.32 0-4.38.888-6.073 2.56-1.694 1.67-2.554 3.76-2.554 6.083v3.68h-.626c-.47 0-.964.158-1.277.55-.39.39-.547.81-.547 1.28v11.096c0 .47.156.965.547 1.28.39.39.808.547 1.277.547H29.33c.47 0 .964-.157 1.277-.548.39-.393.547-.81.547-1.28V21.15c0-.47-.235-.94-.547-1.28zm-15.482-4.23c0-1.358.47-2.56 1.433-3.525.965-.966 2.164-1.436 3.52-1.436 1.354 0 2.553.47 3.517 1.436.965.966 1.434 2.167 1.434 3.525v3.68h-9.905v-3.68zm10.92 8.956l-6.072 6.083h-.08l-.806.81c-.157.156-.39.156-.548 0l-4.536-4.466c-.156-.157-.156-.392 0-.548l1.2-1.202c.155-.157.39-.157.546 0l3.102 3.107 5.5-5.51c.156-.156.39-.156.547 0l1.198 1.2c.13.132.13.367-.053.524z" fill="#FFF"/></g></svg>