<svg width="14" height="14" viewBox="0 0 14 14" xmlns="http://www.w3.org/2000/svg"><title>ic-footer-android</title><g fill="none" fill-rule="evenodd"><g fill="#FFF"><path d="M10.95 4.504c0-2.05-1.79-3.7-3.985-3.7-2.196 0-3.985 1.65-3.985 3.7 0 2.05 1.79 3.7 3.985 3.7 2.196 0 3.985-1.65 3.985-3.7zm-7.385 0c0-1.715 1.517-3.116 3.4-3.116s3.4 1.4 3.4 3.116c0 1.716-1.517 3.117-3.4 3.117s-3.4-1.4-3.4-3.116z"/><path d="M4.165 3.944h5.6c.332 0 .6.27.6.6v5.6c0 .333-.268.602-.6.602h-5.6c-.33 0-.6-.27-.6-.6v-5.6c0-.333.27-.602.6-.602zm-1.185 6.2c0 .655.53 1.186 1.185 1.186h5.6c.655 0 1.185-.53 1.185-1.185v-5.6c0-.654-.53-1.185-1.185-1.185h-5.6c-.654 0-1.185.53-1.185 1.185v5.6z"/></g><path d="M6.468 2.815c.11.197.038.447-.16.557-.197.11-.447.038-.557-.16L4.316.622c-.11-.2-.038-.448.16-.558.198-.11.447-.038.557.16l1.436 2.59z" fill="#A4C639"/><path d="M4.617.32C4.56.35 4.54.422 4.57.48l1.437 2.59c.03.057.103.078.16.046.057-.03.077-.103.046-.16L4.777.366c-.032-.058-.104-.078-.16-.047zm1.85 2.495c.11.197.04.447-.16.557-.196.11-.446.038-.556-.16L4.316.622c-.11-.2-.038-.448.16-.558.198-.11.447-.038.557.16l1.436 2.59z" fill="#FFF"/><path d="M12.914 8.927c0 .62-.5 1.12-1.12 1.12-.618 0-1.12-.5-1.12-1.12V5.48c0-.62.502-1.122 1.12-1.122.62 0 1.12.502 1.12 1.12v3.45z" fill="#A4C639"/><path d="M11.794 4.65c-.457 0-.828.37-.828.83v3.447c0 .458.37.828.828.828.457 0 .828-.37.828-.828V5.48c0-.46-.37-.83-.828-.83zm1.12 4.277c0 .62-.5 1.12-1.12 1.12-.618 0-1.12-.5-1.12-1.12V5.48c0-.62.502-1.122 1.12-1.122.62 0 1.12.502 1.12 1.12v3.45z" fill="#FFF"/><path d="M9.465 12.863c0 .62-.5 1.12-1.12 1.12-.62 0-1.12-.5-1.12-1.12V9.415c0-.62.5-1.12 1.12-1.12.62 0 1.12.5 1.12 1.12v3.448z" fill="#A4C639"/><path d="M8.345 8.587c-.457 0-.828.37-.828.828v3.448c0 .458.37.83.828.83.457 0 .828-.372.828-.83V9.415c0-.458-.37-.828-.828-.828zm1.12 4.276c0 .62-.5 1.12-1.12 1.12-.62 0-1.12-.5-1.12-1.12V9.415c0-.62.5-1.12 1.12-1.12.62 0 1.12.5 1.12 1.12v3.448z" fill="#FFF"/><g><path d="M7.462 2.815c-.11.197-.038.447.16.557.198.11.447.038.557-.16L9.614.622c.11-.2.04-.448-.16-.558-.197-.11-.447-.038-.557.16l-1.436 2.59z" fill="#A4C639"/><path d="M9.314.32c.057.03.077.103.046.16L7.924 3.07c-.032.057-.104.078-.16.046-.057-.03-.078-.103-.046-.16L9.154.366c.03-.058.103-.078.16-.047zM7.462 2.814c-.11.197-.038.447.16.557.198.11.447.038.557-.16L9.614.622c.11-.2.04-.448-.16-.558-.197-.11-.447-.038-.557.16l-1.436 2.59z" fill="#FFF"/><path d="M1.016 8.927c0 .62.502 1.12 1.12 1.12.62 0 1.12-.5 1.12-1.12V5.48c0-.62-.5-1.122-1.12-1.122-.618 0-1.12.502-1.12 1.12v3.45z" fill="#A4C639"/><path d="M2.136 4.65c.458 0 .828.37.828.83v3.447c0 .458-.37.828-.828.828-.457 0-.828-.37-.828-.828V5.48c0-.46.37-.83.828-.83zm-1.12 4.277c0 .62.502 1.12 1.12 1.12.62 0 1.12-.5 1.12-1.12V5.48c0-.62-.5-1.122-1.12-1.122-.618 0-1.12.502-1.12 1.12v3.45z" fill="#FFF"/><path d="M4.466 12.863c0 .62.5 1.12 1.12 1.12.618 0 1.12-.5 1.12-1.12V9.415c0-.62-.502-1.12-1.12-1.12-.62 0-1.12.5-1.12 1.12v3.448z" fill="#A4C639"/><path d="M5.586 8.587c.457 0 .827.37.827.828v3.448c0 .458-.37.83-.827.83-.458 0-.828-.372-.828-.83V9.415c0-.458.37-.828.828-.828zm-1.12 4.276c0 .62.5 1.12 1.12 1.12.618 0 1.12-.5 1.12-1.12V9.415c0-.62-.502-1.12-1.12-1.12-.62 0-1.12.5-1.12 1.12v3.448z" fill="#FFF"/></g><g transform="translate(3.272 1.096)" fill="#A4C639"><ellipse cx="3.693" cy="3.409" rx="3.693" ry="3.409"/><rect width="7.386" height="10" rx="3.693"/></g><g fill="#FFF"><path d="M5.57 2.84c0-.17-.14-.308-.31-.308-.17 0-.308.138-.308.31 0 .17.14.307.31.307.17 0 .307-.14.307-.31zM8.978 2.84c0-.17-.138-.308-.308-.308-.17 0-.31.138-.31.31 0 .17.14.307.31.307.17 0 .308-.14.308-.31zM10.824 4.768V4.5H3.11v.268"/></g></g></svg>