<svg width="14" height="14" viewBox="0 0 14 14" xmlns="http://www.w3.org/2000/svg"><title>ic-footer-ios</title><path d="M12.545 10.91c-.21.49-.462.94-.752 1.354-.396.564-.72.954-.97 1.17-.387.357-.802.54-1.246.55-.32 0-.704-.09-1.15-.275-.45-.184-.863-.275-1.24-.275-.396 0-.82.09-1.275.274-.454.183-.82.28-1.1.29-.427.017-.85-.17-1.275-.565-.27-.236-.61-.64-1.014-1.213-.435-.612-.793-1.32-1.073-2.13-.3-.874-.45-1.72-.45-2.54 0-.937.203-1.746.61-2.424.318-.545.743-.975 1.274-1.29.53-.316 1.105-.476 1.724-.487.338 0 .782.106 1.333.312.55.206.904.31 1.06.31.114 0 .507-.122 1.17-.366.63-.226 1.16-.32 1.595-.283 1.178.095 2.063.56 2.652 1.396-1.054.638-1.575 1.532-1.565 2.678.01.894.334 1.637.97 2.227.29.274.612.486.97.636-.077.227-.16.443-.247.65zM9.845.28c0 .7-.257 1.354-.767 1.96-.615.718-1.36 1.134-2.166 1.068-.01-.084-.017-.172-.017-.265 0-.672.293-1.39.813-1.98.26-.297.59-.545.99-.742.398-.194.776-.302 1.13-.32.012.094.016.187.016.28z" fill="#7D7873" fill-rule="evenodd"/></svg>