<svg width="37" height="36" viewBox="0 0 37 36" xmlns="http://www.w3.org/2000/svg"><title>ic-googleplus</title><g transform="translate(.455)" fill="none" fill-rule="evenodd"><path d="M0 0h36v36H0z"/><ellipse fill="#7D7873" cx="18" cy="18" rx="18" ry="18"/><g fill="#FFF"><path d="M6.565 17.594c.063-3.773 3.533-7.077 7.308-6.952 1.81-.083 3.51.703 4.895 1.808-.59.672-1.204 1.32-1.858 1.924-1.665-1.15-4.034-1.48-5.7-.15-2.382 1.646-2.49 5.535-.2 7.308 2.23 2.02 6.442 1.017 7.058-2.077-1.396-.02-2.795 0-4.19-.046-.005-.833-.008-1.665-.005-2.498 2.334-.007 4.667-.01 7.004.007.14 1.958-.12 4.042-1.322 5.66-1.823 2.564-5.482 3.313-8.337 2.214-2.865-1.09-4.894-4.115-4.653-7.2M25.97 15.12h2.08c.005.695.008 1.394.015 2.09.696.007 1.396.007 2.092.014v2.08c-.696.007-1.392.01-2.092.018-.007.7-.01 1.395-.014 2.09h-2.084c-.007-.695-.007-1.39-.014-2.087l-2.092-.02v-2.08c.696-.008 1.392-.012 2.092-.015.004-.7.01-1.395.018-2.09"/></g></g></svg>