<svg width="36" height="36" viewBox="0 0 36 36" xmlns="http://www.w3.org/2000/svg"><title>ic-instagram-hover</title><g fill="none" fill-rule="evenodd"><ellipse fill="#FDB933" cx="18" cy="18" rx="18" ry="18"/><path d="M23.02 9.818H12.98c-1.743 0-3.162 1.418-3.162 3.163v10.04c0 1.744 1.42 3.162 3.163 3.162h10.04c1.743 0 3.162-1.418 3.162-3.163V12.98c0-1.744-1.42-3.162-3.163-3.162zm.907 1.887l.36-.002v2.774l-2.764.008-.01-2.773 2.414-.007zm-8.262 4.615c.523-.725 1.374-1.2 2.335-1.2.96 0 1.812.475 2.335 1.2.342.474.546 1.053.546 1.68 0 1.587-1.292 2.88-2.88 2.88-1.587 0-2.88-1.293-2.88-2.88 0-.627.204-1.206.545-1.68zm8.923 6.7c0 .864-.704 1.568-1.57 1.568H12.982c-.864 0-1.568-.704-1.568-1.57V16.32h2.444c-.21.52-.33 1.086-.33 1.68 0 2.467 2.007 4.475 4.474 4.475 2.468 0 4.475-2.008 4.475-4.475 0-.594-.12-1.16-.33-1.68h2.443v6.7z" fill="#FFF"/></g></svg>