<svg width="37" height="36" viewBox="0 0 37 36" xmlns="http://www.w3.org/2000/svg"><title>ic-linkedin</title><g transform="translate(.515)" fill="none" fill-rule="evenodd"><path d="M0 0h36v36H0z"/><ellipse fill="#7D7873" cx="18" cy="18" rx="18" ry="18"/><path d="M10.23 15.065h3.19V26.18h-3.19V15.066zm1.514-1.39h-.023c-1.153 0-1.902-.85-1.902-1.926 0-1.1.77-1.932 1.948-1.932 1.177 0 1.9.83 1.924 1.928 0 1.076-.747 1.93-1.946 1.93zm14.438 12.507h-3.617V20.43c0-1.507-.565-2.534-1.81-2.534-.95 0-1.48.693-1.726 1.362-.094.24-.08.573-.08.91v6.014H15.37s.046-10.19 0-11.117h3.583v1.745c.212-.763 1.357-1.852 3.184-1.852 2.267 0 4.048 1.6 4.048 5.042v6.182z" fill="#FFF"/></g></svg>