<svg width="37" height="36" viewBox="0 0 37 36" xmlns="http://www.w3.org/2000/svg"><title>ic-pinterest-hover</title><g transform="translate(.606)" fill="none" fill-rule="evenodd"><ellipse fill="#FDB933" cx="18" cy="18" rx="18" ry="18"/><path d="M9.818 16.633c0 2.102.79 3.972 2.487 4.668.278.115.527.005.608-.305.056-.214.188-.755.247-.98.082-.307.05-.414-.175-.68-.488-.582-.8-1.333-.8-2.398 0-3.087 2.295-5.852 5.977-5.852 3.26 0 5.052 2.005 5.052 4.683 0 3.523-1.55 6.497-3.85 6.497-1.27 0-2.22-1.058-1.915-2.354.364-1.547 1.07-3.218 1.07-4.335 0-1-.534-1.834-1.637-1.834-1.298 0-2.342 1.352-2.342 3.163 0 1.154.39 1.933.39 1.933l-1.563 6.66c-.464 1.976-.07 4.398-.036 4.642.02.145.205.18.29.07.12-.157 1.665-2.08 2.192-3.998.148-.544.853-3.36.853-3.36.422.81 1.655 1.524 2.966 1.524 3.904 0 6.552-3.58 6.552-8.374 0-3.625-3.05-7-7.687-7-5.768 0-8.677 4.162-8.677 7.633z" fill="#FFF"/></g></svg>