<svg xmlns="http://www.w3.org/2000/svg" width="33" height="33" viewBox="0 0 33 33"><circle fill="#95918D" cx="16.5" cy="16.5" r="16.5"/><path fill="#fff" d="M28.1 10.4c-.8.4-1.6.6-2.5.7.9-.6 1.6-1.4 1.9-2.4-.9.5-1.7.9-2.8 1.1-.8-.9-1.9-1.4-3.2-1.4-2.4 0-4.4 1.9-4.4 4.4 0 .4 0 .7.1 1-3.7-.2-6.9-1.9-9-4.6-.4.7-.6 1.4-.6 2.2 0 1.6.8 2.8 1.9 3.7-.7 0-1.4-.2-1.9-.6v.1c0 2.1 1.6 3.9 3.5 4.3-.4.1-.8.1-1.2.1h-.7c.6 1.7 2.1 3 4.1 3-1.5 1.2-3.4 1.8-5.4 1.8h-1.1c1.9 1.3 4.3 1.9 6.7 1.9 8.1 0 12.4-6.7 12.4-12.4v-.6c.9-.7 1.7-1.4 2.2-2.3z"/></svg>