<?xml version="1.0" encoding="utf-8"?>
<!-- Generator: Adobe Illustrator 18.0.0, SVG Export Plug-In . SVG Version: 6.00 Build 0)  -->
<!DOCTYPE svg PUBLIC "-//W3C//DTD SVG 1.1//EN" "http://www.w3.org/Graphics/SVG/1.1/DTD/svg11.dtd">
<svg version="1.1" id="Layer_1" xmlns="http://www.w3.org/2000/svg" xmlns:xlink="http://www.w3.org/1999/xlink" x="0px" y="0px"
	 width="32px" height="32px" viewBox="0 0 32 32" style="enable-background:new 0 0 32 32;" xml:space="preserve">
<g>
	<defs>
		<circle id="SVGID_3_" cx="16" cy="16" r="16"/>
	</defs>
	<use xlink:href="#SVGID_3_"  style="overflow:visible;fill:#BADEDE;"/>
	<clipPath id="SVGID_1_">
		<use xlink:href="#SVGID_3_"  style="overflow:visible;"/>
	</clipPath>
	<g style="clip-path:url(#SVGID_1_);">
		<circle style="fill:#FFFFFF;" cx="15.738" cy="13.879" r="9.025"/>
		<path style="fill:#FFFFFF;" d="M21.867,23.344c0,0-0.014,0.001-0.034,0.002c-1.606,1.475-3.742,2.109-6.095,2.109
			c-2.345,0-4.474-0.628-6.079-2.094c-2.578,1.618-4.256,4.23-4.256,7.176c0,0.077,0,2.217,0.007,2.292h20.737v-2.292
			C26.147,27.583,24.461,24.961,21.867,23.344z"/>
		<g>
			<path style="fill:#339898;" d="M26.147,30.536v2.292H5.41c-0.007-0.075-0.007-2.214-0.007-2.292c0-2.957,1.69-5.578,4.285-7.195
				c0,0,1.881,3.274,6.092,6.934c4.139-3.173,6.068-6.909,6.087-6.931C24.461,24.961,26.147,27.583,26.147,30.536z M12.87,15.876
				c0.598,0.114,1.111-0.403,0.993-1.001c-0.065-0.33-0.335-0.599-0.665-0.661c-0.594-0.111-1.104,0.404-0.991,0.999
				C12.269,15.543,12.539,15.813,12.87,15.876z M19.58,8.104c0,0,1.855,5.401,5.218,6.01c0.015-0.202,0.025-0.406,0.025-0.61
				c0-5.039-4.086-9.126-9.129-9.126c-5.036,0-9.123,4.087-9.123,9.126c0,0.202,0.01,0.401,0.02,0.598
				C8.131,13.957,14.959,11.726,19.58,8.104z"/>
			<g>
				<path style="fill:#339898;" d="M15.704,23.46c-4.975,0-9.023-4.047-9.023-9.023s4.048-9.023,9.023-9.023
					s9.023,4.048,9.023,9.023S20.679,23.46,15.704,23.46z M15.704,6.219c-4.532,0-8.219,3.687-8.219,8.219
					c0,4.532,3.687,8.218,8.219,8.218s8.219-3.687,8.219-8.218C23.922,9.906,20.236,6.219,15.704,6.219z"/>
			</g>
			<path style="fill:#339898;" d="M21.838,20.495c0.014,0.141,0.022,0.275,0.054,0.428c0.345,1.691,1.526,2.997,4.091,2.775
				c-2.44-0.667-2.105-4.421-2.079-6.509c0.047-0.16,0.093-0.321,0.13-0.485C24.033,16.704,23.474,18.382,21.838,20.495z"/>
			<circle style="fill:#339898;" cx="18.39" cy="15.056" r="0.846"/>
			<path style="fill:#339898;" d="M22.829,19.382c0.009,0.094,0.015,0.183,0.036,0.285c0.23,1.127,1.017,1.997,2.726,1.849
				c-1.626-0.445-1.402-2.946-1.386-4.337c0.031-0.107,0.062-0.214,0.087-0.323C24.292,16.856,23.919,17.974,22.829,19.382z"/>
			<path style="fill:#339898;" d="M7.375,16.714c0.037,0.164,0.083,0.325,0.13,0.485c0.025,2.089,0.361,5.842-2.079,6.509
				c2.565,0.221,3.746-1.085,4.091-2.775c0.032-0.153,0.04-0.287,0.054-0.428C7.934,18.392,7.375,16.714,7.375,16.714z"/>
			<path style="fill:#339898;" d="M7.116,16.866c0.025,0.109,0.055,0.217,0.087,0.323c0.017,1.392,0.24,3.893-1.386,4.337
				c1.709,0.147,2.496-0.723,2.726-1.849c0.021-0.102,0.026-0.191,0.036-0.285C7.488,17.984,7.116,16.866,7.116,16.866z"/>
		</g>
	</g>
</g>
</svg>
