<?xml version="1.0" encoding="utf-8"?>
<!-- Generator: Adobe Illustrator 18.0.0, SVG Export Plug-In . SVG Version: 6.00 Build 0)  -->
<!DOCTYPE svg PUBLIC "-//W3C//DTD SVG 1.1//EN" "http://www.w3.org/Graphics/SVG/1.1/DTD/svg11.dtd">
<svg version="1.1" id="Layer_1" xmlns="http://www.w3.org/2000/svg" xmlns:xlink="http://www.w3.org/1999/xlink" x="0px" y="0px"
	 width="32px" height="32px" viewBox="0 0 32 32" style="enable-background:new 0 0 32 32;" xml:space="preserve">
<g>
	<defs>
		<circle id="SVGID_1_" cx="16" cy="16" r="16"/>
	</defs>
	<use xlink:href="#SVGID_1_"  style="overflow:visible;fill:#BADEDE;"/>
	<clipPath id="SVGID_2_">
		<use xlink:href="#SVGID_1_"  style="overflow:visible;"/>
	</clipPath>
	<g style="clip-path:url(#SVGID_2_);">
		<circle style="fill:#FFFFFF;" cx="15.955" cy="13.927" r="8.984"/>
		<g>
			<g>
				<path style="fill:#339898;" d="M15.365,7.717c0,0,0.301,1.263,0.084,3.839c0,0,3.931-0.586,5.403-3.198
					c0,0,1.781,5.721,4.424,5.966c0.005-0.138,0.009-0.596,0.009-0.735c0-0.193-0.033-0.524-0.044-0.714
					c-0.297-4.801-4.465-8.498-9.34-8.498c-4.884,0-8.89,3.834-9.169,8.65c-0.012,0.178-0.017,0.356-0.017,0.536
					c0,0.047,0.015,0.701,0.017,0.75C7.936,13.947,14.417,10.97,15.365,7.717z"/>
				<g>
					<path style="fill:#339898;" d="M15.931,23.415c-5,0-9.067-4.067-9.067-9.067s4.067-9.067,9.067-9.067s9.067,4.067,9.067,9.067
						S20.931,23.415,15.931,23.415z M15.931,6.089c-4.554,0-8.259,3.705-8.259,8.259c0,4.554,3.705,8.259,8.259,8.259
						s8.259-3.705,8.259-8.259C24.19,9.794,20.485,6.089,15.931,6.089z"/>
				</g>
				<circle style="fill:#339898;" cx="13.281" cy="14.883" r="0.86"/>
				<circle style="fill:#339898;" cx="18.693" cy="14.883" r="0.86"/>
			</g>
			<path style="fill:#339898;" d="M26.54,29.052c0-2.761-1.57-5.152-3.863-6.34c-1.81,1.561-4.165,2.507-6.743,2.507
				c-2.556,0-4.893-0.93-6.697-2.467c-2.251,1.202-3.784,3.571-3.784,6.301c0,0-0.001,2.643-0.001,3.757l21.095,0.018
				C26.548,31.424,26.54,29.052,26.54,29.052z"/>
		</g>
	</g>
</g>
</svg>
