<?xml version="1.0" encoding="utf-8"?>
<!-- Generator: Adobe Illustrator 18.0.0, SVG Export Plug-In . SVG Version: 6.00 Build 0)  -->
<!DOCTYPE svg PUBLIC "-//W3C//DTD SVG 1.1//EN" "http://www.w3.org/Graphics/SVG/1.1/DTD/svg11.dtd">
<svg version="1.1" id="Layer_1" xmlns="http://www.w3.org/2000/svg" xmlns:xlink="http://www.w3.org/1999/xlink" x="0px" y="0px"
	 width="24px" height="24px" viewBox="0 0 24 24" style="enable-background:new 0 0 24 24;" xml:space="preserve">
<g>
	<path style="fill:#3C569F;" d="M24,22.884C24,23.5,23.5,24,22.884,24H1.116C0.5,24,0,23.5,0,22.884V1.116C0,0.5,0.5,0,1.116,0
		h21.767C23.5,0,24,0.5,24,1.116V22.884z"/>
	<path style="fill:#FFFFFF;" d="M18.471,7.075h1.864V3.712c-0.748-0.022-1.731-0.048-3.019-0.076
		c-4.651-0.102-4.482,4.686-4.482,4.686v2.754H9.637v3.594h3.198V24h3.723v-9.33h3.127l0.446-3.594h-3.574V8.661
		C16.558,6.912,18.471,7.075,18.471,7.075z"/>
</g>
</svg>
