<?xml version="1.0" encoding="UTF-8" standalone="no"?>
<svg width="18px" height="20px" viewBox="0 0 18 20" version="1.1" xmlns="http://www.w3.org/2000/svg" xmlns:xlink="http://www.w3.org/1999/xlink">
    <!-- Generator: Sketch 3.8.3 (29802) - http://www.bohemiancoding.com/sketch -->
    <title>ic-copy-url</title>
    <desc>Created with Sketch.</desc>
    <defs></defs>
    <g id="Fluxo-3" stroke="none" stroke-width="1" fill="none" fill-rule="evenodd">
        <g id="THREAD---RECEBEU-AVALIAÇÃO-Copy-4" transform="translate(-38.000000, -1780.000000)" fill="#7D7873">
            <g id="Group-10">
                <g id="Group-8" transform="translate(0.000000, 1172.000000)">
                    <g id="Group-9" transform="translate(0.000000, 142.595201)">
                        <g id="Group-7" transform="translate(0.000000, 431.000000)">
                            <g id="Group-4" transform="translate(38.000000, 35.000000)">
                                <g id="Group-3">
                                    <path d="M13.2631579,6.75015599e-14 L1.89473684,6.75015599e-14 C0.847894737,6.75015599e-14 0,0.772954545 0,1.72727273 L0,13.8181818 L1.89473684,13.8181818 L1.89473684,1.72727273 L13.2631579,1.72727273 L13.2631579,6.75015599e-14 L13.2631579,6.75015599e-14 Z M16.1052632,3.45454545 L5.68421053,3.45454545 C4.63736842,3.45454545 3.78947368,4.22836364 3.78947368,5.18181818 L3.78947368,17.2727273 C3.78947368,18.2261818 4.63736842,19 5.68421053,19 L16.1052632,19 C17.1511579,19 18,18.2261818 18,17.2727273 L18,5.18181818 C18,4.22836364 17.1511579,3.45454545 16.1052632,3.45454545 L16.1052632,3.45454545 Z M5.68421053,5.18181818 L16.1052632,5.18181818 L16.1052632,17.2727273 L5.68421053,17.2727273 L5.68421053,5.18181818 Z" id="ic-copy-url"></path>
                                </g>
                            </g>
                        </g>
                    </g>
                </g>
            </g>
        </g>
    </g>
</svg>