<?xml version="1.0" encoding="UTF-8" standalone="no"?>
<svg width="40px" height="40px" viewBox="0 0 40 40" version="1.1" xmlns="http://www.w3.org/2000/svg" xmlns:xlink="http://www.w3.org/1999/xlink">
    <!-- Generator: Sketch 3.7.2 (28276) - http://www.bohemiancoding.com/sketch -->
    <title>ic-negative-feedback-on</title>
    <desc>Created with Sketch.</desc>
    <defs></defs>
    <g id="Page-1" stroke="none" stroke-width="1" fill="none" fill-rule="evenodd">
        <path d="M20,0 C8.972,0 9.09494702e-13,8.972 9.09494702e-13,20 C9.09494702e-13,31.028 8.972,40 20,40 C31.028,40 40,31.028 40,20 C40,8.972 31.028,0 20,0 L20,0 Z M20,38.6666667 C9.70733333,38.6666667 1.33333333,30.2926667 1.33333333,20 C1.33333333,9.70733333 9.70733333,1.33333333 20,1.33333333 C30.2926667,1.33333333 38.6666667,9.70733333 38.6666667,20 C38.6666667,30.2926667 30.2926667,38.6666667 20,38.6666667 L20,38.6666667 Z M13,20 C11.346,20 10,21 10,23 L11.3333333,23 C11.3333333,21.6666667 12.0806667,21.3333333 13,21.3333333 C13.9193333,21.3333333 14.6666667,21.6666667 14.6666667,23 L16,23 C16,21 14.654,20 13,20 L13,20 Z M27,21.3333333 C27.9193333,21.3333333 28.6666667,21.6666667 28.6666667,23 L30,23 C30,21 28.654,20 27,20 C25.346,20 24,21 24,23 L25.3333333,23 C25.3333333,21.6666667 26.0806667,21.3333333 27,21.3333333 L27,21.3333333 Z M13.0201254,11.5403151 L11.8774663,12.2964729 C12.6826039,13.5478931 13.699125,14.6455557 14.9837331,15.417426 C19.5524348,18.162579 25.7590343,16.2531522 28.1625454,12.2530381 L27.0196556,11.5663206 C24.9597314,14.9959047 19.5984325,16.6595942 15.6600345,14.2931659 C14.5525743,13.6277367 13.7140129,12.6183371 13.0201254,11.5403151 L13.0201254,11.5403151 Z" id="ic-negative-feedback-on" fill="#C83E27" transform="translate(20.000000, 20.000000) scale(1, -1) translate(-20.000000, -20.000000) "></path>
    </g>
</svg>