<?xml version="1.0" encoding="UTF-8" standalone="no"?>
<svg width="40px" height="40px" viewBox="0 0 40 40" version="1.1" xmlns="http://www.w3.org/2000/svg" xmlns:xlink="http://www.w3.org/1999/xlink">
    <!-- Generator: Sketch 3.7.2 (28276) - http://www.bohemiancoding.com/sketch -->
    <title>ic-positive-feedback-off</title>
    <desc>Created with Sketch.</desc>
    <defs></defs>
    <g id="Page-1" stroke="none" stroke-width="1" fill="none" fill-rule="evenodd">
        <path d="M20,0 C8.972,0 0,8.972 0,20 C0,31.028 8.972,40 20,40 C31.028,40 40,31.028 40,20 C40,8.972 31.028,0 20,0 L20,0 Z M20,38.6666667 C9.70733333,38.6666667 1.33333333,30.2926667 1.33333333,20 C1.33333333,9.70733333 9.70733333,1.33333333 20,1.33333333 C30.2926667,1.33333333 38.6666667,9.70733333 38.6666667,20 C38.6666667,30.2926667 30.2926667,38.6666667 20,38.6666667 L20,38.6666667 Z M13,12.3333333 C11.346,12.3333333 10,13.3333333 10,15.3333333 L11.3333333,15.3333333 C11.3333333,14 12.0806667,13.6666667 13,13.6666667 C13.9193333,13.6666667 14.6666667,14 14.6666667,15.3333333 L16,15.3333333 C16,13.3333333 14.654,12.3333333 13,12.3333333 L13,12.3333333 Z M27,13.6666667 C27.9193333,13.6666667 28.6666667,14 28.6666667,15.3333333 L30,15.3333333 C30,13.3333333 28.654,12.3333333 27,12.3333333 C25.346,12.3333333 24,13.3333333 24,15.3333333 L25.3333333,15.3333333 C25.3333333,14 26.0806667,13.6666667 27,13.6666667 L27,13.6666667 Z M12.9825051,19.3044995 L11.8669316,20.1000748 C12.7152527,21.3226339 13.7694624,22.3841516 15.0802258,23.1107197 C19.7419489,25.6947549 25.8781295,23.5698841 28.1405744,19.4883254 L26.9744148,18.8419126 C25.0354362,22.3412977 19.7354651,24.1910804 15.7168791,21.9635418 C14.5868705,21.3371678 13.7135923,20.3576484 12.9825051,19.3044995 L12.9825051,19.3044995 Z" id="ic-positive-feedback-off" fill="#9F9F9F"></path>
    </g>
</svg>