<?xml version="1.0" encoding="UTF-8" standalone="no"?>
<svg width="30px" height="30px" viewBox="0 0 30 30" version="1.1" xmlns="http://www.w3.org/2000/svg" xmlns:xlink="http://www.w3.org/1999/xlink">
    <!-- Generator: Sketch 3.8.3 (29802) - http://www.bohemiancoding.com/sketch -->
    <title>ic-neutral-desktop</title>
    <desc>Created with Sketch.</desc>
    <defs></defs>
    <g id="Page-1" stroke="none" stroke-width="1" fill="none" fill-rule="evenodd">
        <g id="VENDEDOR-DESKTOP---LISTA-AVALIACOES" transform="translate(-690.000000, -952.000000)" fill="#FDB933">
            <g id="Group-4">
                <g>
                    <g id="pedido1-+-modulo-loja" transform="translate(190.000000, 934.000000)">
                        <g id="pedido1">
                            <g id="User-+-avaliação-+-card_bg-copy-+-Hint-text" transform="translate(11.000000, 14.000000)">
                                <g id="User-+-avaliação">
                                    <path d="M504,4 C495.729,4 489,10.729 489,19 C489,27.271 495.729,34 504,34 C512.271,34 519,27.271 519,19 C519,10.729 512.271,4 504,4 L504,4 Z M504,33 C496.2805,33 490,26.7195 490,19 C490,11.2805 496.2805,5 504,5 C511.7195,5 518,11.2805 518,19 C518,26.7195 511.7195,33 504,33 L504,33 Z M498.083606,13 L498.083606,14 L510,14 L510,13.0332331 L498,13 L498.083606,13 Z M499,23.8234863 C500.104569,23.8234863 501,22.9280558 501,21.8234863 C501,20.7189168 500.104569,19.8234863 499,19.8234863 C497.895431,19.8234863 497,20.7189168 497,21.8234863 C497,22.9280558 497.895431,23.8234863 499,23.8234863 Z M499,22.8234863 C499.552285,22.8234863 500,22.3757711 500,21.8234863 C500,21.2712016 499.552285,20.8234863 499,20.8234863 C498.447715,20.8234863 498,21.2712016 498,21.8234863 C498,22.3757711 498.447715,22.8234863 499,22.8234863 Z M509,23.8234863 C510.104569,23.8234863 511,22.9280558 511,21.8234863 C511,20.7189168 510.104569,19.8234863 509,19.8234863 C507.895431,19.8234863 507,20.7189168 507,21.8234863 C507,22.9280558 507.895431,23.8234863 509,23.8234863 Z M509,22.8234863 C509.552285,22.8234863 510,22.3757711 510,21.8234863 C510,21.2712016 509.552285,20.8234863 509,20.8234863 C508.447715,20.8234863 508,21.2712016 508,21.8234863 C508,22.3757711 508.447715,22.8234863 509,22.8234863 Z" id="ic-neutral-desktop" transform="translate(504.000000, 19.000000) scale(1, -1) translate(-504.000000, -19.000000) "></path>
                                </g>
                            </g>
                        </g>
                    </g>
                </g>
            </g>
        </g>
    </g>
</svg>