<?xml version="1.0" encoding="UTF-8" standalone="no"?>
<svg width="30px" height="30px" viewBox="0 0 30 30" version="1.1" xmlns="http://www.w3.org/2000/svg" xmlns:xlink="http://www.w3.org/1999/xlink">
    <!-- Generator: Sketch 3.8.3 (29802) - http://www.bohemiancoding.com/sketch -->
    <title>ic_negative_desktop</title>
    <desc>Created with Sketch.</desc>
    <defs></defs>
    <g id="Page-1" stroke="none" stroke-width="1" fill="none" fill-rule="evenodd">
        <g id="AVALIAÇÃO-BUYER---LISTA-AVALIAÇÕES" transform="translate(-730.000000, -952.000000)" fill="#C83E27">
            <g id="Group-14">
                <g id="Group-12">
                    <g id="Group-6">
                        <g id="Group-4" transform="translate(190.000000, 92.000000)">
                            <g id="pedido1-+-modulo-loja" transform="translate(0.000000, 842.000000)">
                                <g id="pedido1">
                                    <g id="User-+-avaliação-+-card_bg-copy-+-Hint-text" transform="translate(11.000000, 14.000000)">
                                        <g id="User-+-avaliação">
                                            <path d="M544,4 C535.729,4 529,10.729 529,19 C529,27.271 535.729,34 544,34 C552.271,34 559,27.271 559,19 C559,10.729 552.271,4 544,4 L544,4 Z M544,33 C536.2805,33 530,26.7195 530,19 C530,11.2805 536.2805,5 544,5 C551.7195,5 558,11.2805 558,19 C558,26.7195 551.7195,33 544,33 L544,33 Z M538.75,19 C537.5095,19 536.5,19.75 536.5,21.25 L537.5,21.25 C537.5,20.25 538.0605,20 538.75,20 C539.4395,20 540,20.25 540,21.25 L541,21.25 C541,19.75 539.9905,19 538.75,19 L538.75,19 Z M549.25,20 C549.9395,20 550.5,20.25 550.5,21.25 L551.5,21.25 C551.5,19.75 550.4905,19 549.25,19 C548.0095,19 547,19.75 547,21.25 L548,21.25 C548,20.25 548.5605,20 549.25,20 L549.25,20 Z M538.765094,12.6552364 L537.9081,13.2223547 C538.511953,14.1609198 539.274344,14.9841667 540.2378,15.5630695 C543.664326,17.6219342 548.319276,16.1898641 550.121909,13.1897786 L549.264742,12.6747405 C547.719799,15.2469285 543.698824,16.4946956 540.745026,14.7198744 C539.914431,14.2208025 539.28551,13.4637528 538.765094,12.6552364 L538.765094,12.6552364 Z" id="ic_negative_desktop" transform="translate(544.000000, 19.000000) scale(1, -1) translate(-544.000000, -19.000000) "></path>
                                        </g>
                                    </g>
                                </g>
                            </g>
                        </g>
                    </g>
                </g>
            </g>
        </g>
    </g>
</svg>