<?xml version="1.0" encoding="UTF-8" standalone="no"?>
<svg width="30px" height="30px" viewBox="0 0 30 30" version="1.1" xmlns="http://www.w3.org/2000/svg" xmlns:xlink="http://www.w3.org/1999/xlink">
    <!-- Generator: Sketch 3.8.3 (29802) - http://www.bohemiancoding.com/sketch -->
    <title>ic_positive_desktop</title>
    <desc>Created with Sketch.</desc>
    <defs></defs>
    <g id="Page-1" stroke="none" stroke-width="1" fill="none" fill-rule="evenodd">
        <g id="AVALIAÇÃO-BUYER---LISTA-AVALIAÇÕES" transform="translate(-684.000000, -951.000000)" fill="#0DB66F">
            <g id="Group-14">
                <g id="Group-12">
                    <g id="Group-6">
                        <g id="Group-4" transform="translate(190.000000, 92.000000)">
                            <g id="pedido1-+-modulo-loja" transform="translate(0.000000, 842.000000)">
                                <g id="pedido1">
                                    <g id="User-+-avaliação-+-card_bg-copy-+-Hint-text" transform="translate(11.000000, 14.000000)">
                                        <g id="User-+-avaliação">
                                            <path d="M498,3 C489.729,3 483,9.729 483,18 C483,26.271 489.729,33 498,33 C506.271,33 513,26.271 513,18 C513,9.729 506.271,3 498,3 L498,3 Z M498,32 C490.2805,32 484,25.7195 484,18 C484,10.2805 490.2805,4 498,4 C505.7195,4 512,10.2805 512,18 C512,25.7195 505.7195,32 498,32 L498,32 Z M492.75,12.25 C491.5095,12.25 490.5,13 490.5,14.5 L491.5,14.5 C491.5,13.5 492.0605,13.25 492.75,13.25 C493.4395,13.25 494,13.5 494,14.5 L495,14.5 C495,13 493.9905,12.25 492.75,12.25 L492.75,12.25 Z M503.25,13.25 C503.9395,13.25 504.5,13.5 504.5,14.5 L505.5,14.5 C505.5,13 504.4905,12.25 503.25,12.25 C502.0095,12.25 501,13 501,14.5 L502,14.5 C502,13.5 502.5605,13.25 503.25,13.25 L503.25,13.25 Z M492.736879,17.4783746 L491.900199,18.0750561 C492.536439,18.9919754 493.327097,19.7881137 494.310169,20.3330397 C497.806462,22.2710662 502.408597,20.677413 504.105431,17.6162441 L503.230811,17.1314345 C501.776577,19.7559733 497.801599,21.1433103 494.787659,19.4726564 C493.940153,19.0028758 493.285194,18.2682363 492.736879,17.4783746 L492.736879,17.4783746 Z" id="ic_positive_desktop"></path>
                                        </g>
                                    </g>
                                </g>
                            </g>
                        </g>
                    </g>
                </g>
            </g>
        </g>
    </g>
</svg>