<?xml version="1.0" encoding="UTF-8" standalone="no"?>
<svg width="18px" height="20px" viewBox="0 0 18 20" version="1.1" xmlns="http://www.w3.org/2000/svg" xmlns:xlink="http://www.w3.org/1999/xlink">
    <!-- Generator: Sketch 3.8.3 (29802) - http://www.bohemiancoding.com/sketch -->
    <title>ic_share</title>
    <desc>Created with Sketch.</desc>
    <defs></defs>
    <g id="Comprador" stroke="none" stroke-width="1" fill="none" fill-rule="evenodd">
        <g id="Avaliações-expanded-Copy-8" transform="translate(-246.000000, -1118.000000)" fill="#34989A">
            <g id="LISTA-AVALIAÇÕES-VISITANTE">
                <g id="Group-3" transform="translate(0.000000, 318.000000)">
                    <g id="header+badges" transform="translate(1.000000, 0.000000)">
                        <g id="header" transform="translate(0.000000, 507.000000)">
                            <g id="Responder-+-Shape-+-Responder-+-Shape-+-Responder-+-Shape" transform="translate(20.000000, 278.000000)">
                                <g id="Responder-+-Shape" transform="translate(225.000000, 10.000000)">
                                    <path d="M15,19.1365462 C14.24,19.1365462 13.56,19.437751 13.04,19.9096386 L5.91,15.7429719 C5.96,15.5120482 6,15.2811245 6,15.0401606 C6,14.7991968 5.96,14.5682731 5.91,14.3373494 L12.96,10.2108434 C13.5,10.7128514 14.21,11.0240964 15,11.0240964 C16.66,11.0240964 18,9.67871486 18,8.01204819 C18,6.34538153 16.66,5 15,5 C13.34,5 12,6.34538153 12,8.01204819 C12,8.25301205 12.04,8.48393574 12.09,8.71485944 L5.04,12.8413655 C4.5,12.3393574 3.79,12.0281124 3,12.0281124 C1.34,12.0281124 0,13.373494 0,15.0401606 C0,16.7068273 1.34,18.0522088 3,18.0522088 C3.79,18.0522088 4.5,17.7409639 5.04,17.2389558 L12.16,21.4156627 C12.11,21.626506 12.08,21.8473896 12.08,22.0682731 C12.08,23.684739 13.39,25 15,25 C16.61,25 17.92,23.684739 17.92,22.0682731 C17.92,20.4518072 16.61,19.1365462 15,19.1365462 L15,19.1365462 Z" id="ic_share"></path>
                                </g>
                            </g>
                        </g>
                    </g>
                </g>
            </g>
        </g>
    </g>
</svg>