<?xml version="1.0" encoding="UTF-8" standalone="no"?>
<svg width="20px" height="20px" viewBox="0 0 20 20" version="1.1" xmlns="http://www.w3.org/2000/svg" xmlns:xlink="http://www.w3.org/1999/xlink">
    <!-- Generator: Sketch 3.8.3 (29802) - http://www.bohemiancoding.com/sketch -->
    <title>icon-whatsapp</title>
    <desc>Created with Sketch.</desc>
    <defs></defs>
    <g id="Page-1" stroke="none" stroke-width="1" fill="none" fill-rule="evenodd">
        <g id="DETALHE-AVALIA&quot;CAO---VISITANTE" transform="translate(-457.000000, -676.000000)">
            <g id="Group-4">
                <g id="pedido1-+-modulo-loja" transform="translate(190.000000, 96.000000)">
                    <g id="pedido1">
                        <g id="Responder-+-Shape-+-Rectangle-51-+-tooltip-mensagem-+-Contatar" transform="translate(10.000000, 569.000000)">
                            <g id="Responder-+-Shape" transform="translate(10.000000, 12.000000)">
                                <g id="Group-8" transform="translate(120.000000, 0.000000)">
                                    <g id="icon-whatsapp" transform="translate(128.000000, 0.000000)">
                                        <g id="Group-19" transform="translate(0.000000, 0.071982)" stroke="#E6E6E6" fill="#FEFEFE">
                                            <path d="M2.19460083,15.7380343 C3.09352625,15.453852 3.90239388,15.1843267 4.72117614,14.9498152 C4.89137709,14.9009587 5.13345903,14.9253869 5.2863094,15.0117002 C6.68179197,15.8031763 8.16567988,16.1394723 9.77763162,16.0100024 C13.8161863,15.6859206 16.9335076,11.9321087 16.4394291,7.95844233 C15.9222165,3.79993532 12.1199603,0.939384081 7.93103391,1.55660521 C2.70520369,2.32691021 -0.00644450209,8.3110238 2.88945035,12.6983423 C3.05304156,12.9450679 3.08278541,13.1445655 2.97950813,13.4238622 C2.7060299,14.1599676 2.47221015,14.91073 2.19460083,15.7380343 M0.000165243644,17.8600373 C0.500027265,16.3829408 0.983364922,14.9856433 1.43778494,13.5785746 C1.49975131,13.3847769 1.48405316,13.1079231 1.38821185,12.9312253 C-1.44241176,7.72067377 1.54849818,1.43609238 7.43447676,0.251320946 C12.1488779,-0.697310477 16.8963278,2.51500795 17.71511,7.20686568 C18.5512429,11.9996936 15.420702,16.4554113 10.5972401,17.2916727 C8.72998693,17.6157545 6.92056903,17.3657718 5.2185595,16.5205534 C4.9417764,16.3821265 4.70960908,16.3764266 4.4245638,16.469254 C3.04312694,16.9179201 1.65590655,17.3470435 0.271164819,17.7834953 C0.205067361,17.8038522 0.137317468,17.820952 0.000165243644,17.8600373" id="Fill-17"></path>
                                        </g>
                                        <g id="Group-3" transform="translate(1.577644, 1.505928)">
                                            <path d="M3.21970976,5.3696906 C3.25854202,5.5993164 3.24367009,5.85581331 3.34446871,6.05449663 C3.69561145,6.74255977 4.02527252,7.45342263 4.47473523,8.07715797 C5.70001685,9.77736604 7.34832219,10.8953669 9.43617562,11.3456614 C10.6234512,11.6013441 11.785114,10.8888526 11.940443,9.83517963 C11.9999308,9.43537017 11.8958273,9.19597305 11.5025474,9.05836043 C11.2522033,8.9712329 11.0208622,8.832806 10.7796064,8.7179931 C9.60059305,8.15614273 9.72700444,8.24652735 9.13791085,9.0827887 C8.88674051,9.43944155 8.60747875,9.4679412 8.21750375,9.29531471 C7.2400876,8.86211993 6.45931139,8.20907066 5.83634285,7.3597809 C5.35135276,6.69858887 5.34061192,6.68718901 5.88426351,6.07403925 C6.15113199,5.77275717 6.23375382,5.49753192 6.0379401,5.12377928 C5.84790991,4.7614265 5.71654121,4.36894552 5.55625488,3.9911215 C5.25881632,3.29491561 4.53257051,3.14753167 3.96413237,3.6735539 C3.4708801,4.13036268 3.24036521,4.70035581 3.21970976,5.3696906 M0.617122376,14.3039258 C0.894731696,13.4766215 1.12855145,12.7258591 1.40202968,11.9905679 C1.50530696,11.7112713 1.47473688,11.5117737 1.3119719,11.2642338 C-1.58392295,6.87691529 1.12772523,0.893615982 6.35355546,0.123310981 C10.5424818,-0.494724426 14.3447381,2.36582681 14.8619507,6.52433383 C15.3560292,10.4988145 12.2387078,14.2518121 8.19932695,14.5767082 C6.58820143,14.7053638 5.10431351,14.3698821 3.70883094,13.5784059 C3.55598057,13.4912784 3.31389864,13.4676644 3.14369768,13.516521 C2.32408921,13.7502182 1.5160478,14.0197435 0.617122376,14.3039258" id="Fill-20" fill="#43B549"></path>
                                            <path d="M3.21970976,5.3696906 C3.24036521,4.70035581 3.4708801,4.13036268 3.96413237,3.6735539 C4.53257051,3.14753167 5.25881632,3.29491561 5.55625488,3.9911215 C5.71654121,4.36894552 5.84790991,4.7614265 6.0379401,5.12377928 C6.23375382,5.49753192 6.15113199,5.77275717 5.88426351,6.07403925 C5.34061192,6.68718901 5.35135276,6.69858887 5.83634285,7.3597809 C6.45931139,8.20907066 7.2400876,8.86211993 8.21750375,9.29531471 C8.60747875,9.4679412 8.88674051,9.43944155 9.13791085,9.0827887 C9.72700444,8.24652735 9.60059305,8.15614273 10.7796064,8.7179931 C11.0208622,8.832806 11.2522033,8.9712329 11.5025474,9.05836043 C11.8958273,9.19597305 11.9999308,9.43537017 11.940443,9.83517963 C11.785114,10.8888526 10.6234512,11.6013441 9.43617562,11.3456614 C7.34832219,10.8953669 5.70001685,9.77736604 4.47473523,8.07715797 C4.02527252,7.45342263 3.69561145,6.74255977 3.34446871,6.05449663 C3.24367009,5.85581331 3.25854202,5.5993164 3.21970976,5.3696906" id="Fill-22" fill="#FEFEFE"></path>
                                        </g>
                                    </g>
                                </g>
                            </g>
                        </g>
                    </g>
                </g>
            </g>
        </g>
    </g>
</svg>