<?xml version="1.0" encoding="utf-8"?>
<!-- Generator: Adobe Illustrator 18.0.0, SVG Export Plug-In . SVG Version: 6.00 Build 0)  -->
<!DOCTYPE svg PUBLIC "-//W3C//DTD SVG 1.1//EN" "http://www.w3.org/Graphics/SVG/1.1/DTD/svg11.dtd">
<svg version="1.1" id="Layer_1" xmlns="http://www.w3.org/2000/svg" xmlns:xlink="http://www.w3.org/1999/xlink" x="0px" y="0px"
	 width="14px" height="14px" viewBox="0 0 14 14" style="enable-background:new 0 0 14 14;" xml:space="preserve">
<g>
	<path style="fill:#7E7974;" d="M13.685,11.844l-3.348-3.348c0.505-0.829,0.796-1.803,0.796-2.846C11.133,2.623,8.509,0,5.482,0
		C2.454,0,0,2.454,0,5.482s2.623,5.65,5.65,5.65c1.007,0,1.949-0.273,2.76-0.746l3.367,3.367c0.329,0.33,0.864,0.33,1.193,0
		l0.835-0.835C14.134,12.589,14.015,12.174,13.685,11.844z M1.687,5.482c0-2.096,1.699-3.795,3.795-3.795
		c2.096,0,3.964,1.868,3.964,3.964c0,2.096-1.699,3.795-3.795,3.795C3.555,9.446,1.687,7.578,1.687,5.482z"/>
</g>
</svg>
