<svg xmlns="http://www.w3.org/2000/svg" width="100" height="24" viewBox="0 0 100 24"><path fill="#013F7D" d="M93.607 24h-93.607l6.395-24h93.605z"/><g fill="#FCDB00"><path d="M29.187 3.736h8.194c3.032 0 5 1.667 5 5.324 0 3.333-2.8 6.203-7.152 6.203h-3.425l-1.042 5h-5.023l3.448-16.527zm3.449 7.592h1.944c2.037 0 2.708-.764 2.708-1.875 0-1.273-1.134-1.482-2.199-1.482h-1.736l-.717 3.357zM48.521 3.736h5l2.569 16.526h-5l-.277-2.361h-5.393l-1.273 2.361h-5.185l9.559-16.526zm-1.25 10.625h3.172l-.556-4.953h-.047l-2.569 4.953zM73.821 13.991c-.301 1.69-1.597 6.666-8.472 6.666-4.791 0-7.106-3.101-7.106-7.523 0-5.347 3.333-9.791 8.958-9.791 3.681 0 6.967 1.597 7.059 6.55h-4.815c.047-1.551-.694-2.431-2.268-2.431-2.824 0-3.842 3.241-3.842 5.578 0 1.366.324 3.495 2.661 3.495 1.597 0 2.5-1.087 2.824-2.547h5v.003z"/></g></svg>