<svg xmlns="http://www.w3.org/2000/svg" width="100" height="24" viewBox="0 0 100 24"><path d="M93.676 24h-93.679l6.322-24h93.679l-6.322 24z" fill="#013F7D"/><path d="M18.738 8.763c.038-.647-.19-1.066-.571-1.333s-.876-.38-1.485-.38c-.838 0-1.942.267-1.942 1.333 0 1.219 2.437 1.295 4.037 1.866 2.856.99 3.808 2.551 3.808 4.532 0 3.922-3.808 5.788-7.388 5.788-3.77 0-7.159-1.714-6.931-5.903h4.874c0 .876.19 1.447.609 1.866.419.381 1.028.419 1.866.419.99 0 2.209-.495 2.209-1.599 0-1.181-1.676-1.333-3.922-2.094-1.98-.647-3.922-1.714-3.922-4.455 0-3.694 3.58-5.369 6.855-5.369 3.465 0 6.626 1.295 6.512 5.331-.001-.002-4.609-.002-4.609-.002zm7.997-4.95h13.519l-.838 4.189h-8.492l-.457 2.056h7.845l-.8 3.884h-7.845l-.419 2.056h8.644l-.876 4.189h-13.708l3.427-16.374zm15.918 0h7.54c3.008 0 6.778 1.866 6.512 7.235-.267 5.446-3.694 9.139-9.368 9.139h-8.073l3.389-16.374zm2.552 12.186h2.437c3.313 0 4.037-3.427 4.037-4.912 0-2.437-1.257-3.046-2.97-3.046h-1.866c-.001-.001-1.638 7.958-1.638 7.958zm15.27-12.186h13.519l-.838 4.189h-8.492l-.419 2.056h7.845l-.8 3.884h-7.883l-.419 2.056h8.644l-.876 4.189h-13.708l3.427-16.374zm18.736 7.692l-3.77-7.692h5.484l1.599 4.265 3.237-4.265h5.979l-6.816 7.692 3.96 8.644h-5.674l-1.828-4.57-3.77 4.57h-6.169l7.768-8.644z" fill="#FCDB00"/></svg>