<?xml version="1.0" encoding="utf-8"?>
<!-- Generator: Adobe Illustrator 18.0.0, SVG Export Plug-In . SVG Version: 6.00 Build 0)  -->
<!DOCTYPE svg PUBLIC "-//W3C//DTD SVG 1.1//EN" "http://www.w3.org/Graphics/SVG/1.1/DTD/svg11.dtd">
<svg version="1.1" id="Layer_1" xmlns="http://www.w3.org/2000/svg" xmlns:xlink="http://www.w3.org/1999/xlink" x="0px" y="0px"
	 width="11px" height="6px" viewBox="0 0 11 6" style="enable-background:new 0 0 11 6;" xml:space="preserve">
<path style="fill:#887D7D;" d="M11,5.058c0,0.241-0.092,0.482-0.276,0.666c-0.368,0.368-0.964,0.368-1.332,0
	c0,0-3.237-3.004-3.564-3.332S5.175,2.389,5.175,2.389L1.607,5.724c-0.368,0.368-0.964,0.368-1.332,0
	c-0.368-0.367-0.368-0.964,0-1.331L4.37,0.53C4.5,0.401,4.893,0.006,5.486,0C6.107,0.006,6.5,0.401,6.63,0.53l4.094,3.862
	C10.908,4.576,11,4.817,11,5.058z"/>
</svg>
