<?xml version="1.0" encoding="utf-8"?>
<!-- Generator: Adobe Illustrator 18.0.0, SVG Export Plug-In . SVG Version: 6.00 Build 0)  -->
<!DOCTYPE svg PUBLIC "-//W3C//DTD SVG 1.1//EN" "http://www.w3.org/Graphics/SVG/1.1/DTD/svg11.dtd">
<svg version="1.1" id="Layer_1" xmlns="http://www.w3.org/2000/svg" xmlns:xlink="http://www.w3.org/1999/xlink" x="0px" y="0px"
	 width="11px" height="6px" viewBox="0 0 11 6" style="enable-background:new 0 0 11 6;" xml:space="preserve">
<path style="fill:#887D7D;" d="M0,0.942C0,0.701,0.092,0.46,0.276,0.276c0.368-0.368,0.964-0.368,1.332,0
	c0,0,3.237,3.004,3.564,3.332s0.653,0.003,0.653,0.003l3.567-3.335c0.368-0.368,0.964-0.368,1.332,0
	c0.368,0.367,0.368,0.964,0,1.331L6.63,5.47C6.5,5.599,6.107,5.993,5.514,6C4.893,5.993,4.5,5.599,4.37,5.47L0.276,1.607
	C0.092,1.423,0,1.183,0,0.942z"/>
</svg>
