<?xml version="1.0" encoding="utf-8"?>
<!-- Generator: Adobe Illustrator 18.0.0, SVG Export Plug-In . SVG Version: 6.00 Build 0)  -->
<!DOCTYPE svg PUBLIC "-//W3C//DTD SVG 1.1//EN" "http://www.w3.org/Graphics/SVG/1.1/DTD/svg11.dtd">
<svg version="1.1" id="Layer_1" xmlns="http://www.w3.org/2000/svg" xmlns:xlink="http://www.w3.org/1999/xlink" x="0px" y="0px"
	 width="30px" height="30px" viewBox="0 0 30 30" style="enable-background:new 0 0 30 30;" xml:space="preserve">
<g>
	<path style="fill:#2AB56F;" d="M14.999,0C6.728,0,0,6.731,0,15.001C0,23.272,6.728,30,14.999,30C23.27,30,30,23.272,30,15.001
		C30,6.731,23.27,0,14.999,0z M14.999,28.681c-7.543,0-13.68-6.137-13.68-13.68S7.456,1.319,14.999,1.319
		c7.545,0,13.682,6.139,13.682,13.682S22.544,28.681,14.999,28.681z"/>
	<g>
		<path style="fill:#2AB56F;" d="M10.279,12.468c-1.159,0-2.097-0.941-2.097-2.099c0-1.162,0.939-2.101,2.097-2.101
			c1.162,0,2.101,0.939,2.101,2.101C12.38,11.528,11.441,12.468,10.279,12.468L10.279,12.468z"/>
		<path style="fill:#2AB56F;" d="M15.001,21.734c-3.279,0-6.028-2.24-6.82-5.271h13.639C21.029,19.494,18.278,21.734,15.001,21.734
			L15.001,21.734z"/>
		<path style="fill:#2AB56F;" d="M19.72,12.468c-1.16,0-2.101-0.941-2.101-2.099c0-1.162,0.941-2.101,2.101-2.101
			c1.16,0,2.101,0.939,2.101,2.101C21.821,11.528,20.88,12.468,19.72,12.468L19.72,12.468z"/>
	</g>
</g>
</svg>
