<?xml version="1.0" encoding="utf-8"?>
<!-- Generator: Adobe Illustrator 18.0.0, SVG Export Plug-In . SVG Version: 6.00 Build 0)  -->
<!DOCTYPE svg PUBLIC "-//W3C//DTD SVG 1.1//EN" "http://www.w3.org/Graphics/SVG/1.1/DTD/svg11.dtd">
<svg version="1.1" id="Layer_1" xmlns="http://www.w3.org/2000/svg" xmlns:xlink="http://www.w3.org/1999/xlink" x="0px" y="0px"
	 width="19px" height="22px" viewBox="0 0 19 22" style="enable-background:new 0 0 19 22;" xml:space="preserve">
<path style="fill:#AAD037;" d="M17.71,8.995h-1.574V6.303c0,0-0.001-6.303-6.304-6.303C3.531,0,3.529,6.303,3.529,6.303v2.692H1.29
	C0.578,8.995,0,9.573,0,10.285V20.71C0,21.422,0.578,22,1.29,22h16.42c0.713,0,1.29-0.578,1.29-1.29V10.285
	C19,9.573,18.423,8.995,17.71,8.995z"/>
<path style="fill:#FFFFFF;" d="M6.231,6.304c0.01-0.754-0.001-3.602,3.602-3.602s3.592,2.86,3.602,3.602v2.691H6.231V6.304z"/>
<polygon style="fill:#FFFFFF;" points="8.095,19.676 4.25,15.832 5.427,14.513 8.095,17.181 13.574,11.701 14.75,13.021 "/>
</svg>
