<svg xmlns="http://www.w3.org/2000/svg" viewBox="0 0 40 40" enable-background="new 0 0 40 40"><path fill="#929497" d="M20 0c2.2 0 2.4 11.9 0 11.9s-2.2-11.9 0-11.9zM20 28.1c2.2 0 2.4 11.9 0 11.9s-2.2-11.9 0-11.9z"/><path fill="#D1D2D3" d="M40 20c0 2.2-11.9 2.4-11.9 0s11.9-2.2 11.9 0z"/><path fill="#929497" d="M11.9 20c0 2.2-11.9 2.4-11.9 0s11.9-2.2 11.9 0z"/><path fill="#BBBDBF" d="M37.3 30c-1.1 1.9-11.5-3.9-10.3-5.9 1.2-2.1 11.4 4 10.3 5.9z"/><path fill="#929497" d="M13 15.9c-1.1 2-11.5-3.8-10.3-5.9 1.2-2.1 11.4 4 10.3 5.9z"/><path fill="#A6A8AC" d="M30 37.3c-1.9 1.1-8.1-9.1-6-10.3 2.2-1.2 7.9 9.2 6 10.3z"/><path fill="#929497" d="M15.9 13c-1.9 1.1-8-9.1-5.9-10.3 2.1-1.2 7.8 9.2 5.9 10.3zM10 37.3c-1.9-1.1 3.9-11.5 5.9-10.3 2.1 1.2-4 11.4-5.9 10.3z"/><path fill="#F2F2F2" d="M24 13c-1.9-1.1 3.9-11.5 6-10.3 2.1 1.2-4.1 11.4-6 10.3z"/><path fill="#929497" d="M2.7 30c-1.1-1.9 9.1-8.1 10.3-6 1.2 2.2-9.2 7.9-10.3 6z"/><path fill="#E7E7E7" d="M27 15.9c-1.1-1.9 9.1-8.1 10.3-6 1.2 2.2-9.2 7.9-10.3 6z"/></svg>