<svg version="1" xmlns="http://www.w3.org/2000/svg" viewBox="0 0 43.7 36" enable-background="new 0 0 43.7 36"><path fill="#fff" d="M35.5 23.9c.5 0 1-.3 1.2-.8 0 0 6.7-16.7 6.9-17.2.3-.8 0-1.6-.4-2.2-.5-.8-1.3-1.2-2.2-1.2h-34.5l-.7-1.7c0-.1-.1-.2-.2-.3 0 0 0-.1-.1-.1-.1-.1-.2-.1-.2-.2l-.2-.1h-.2c-.1-.1-.2-.1-.3-.1h-3.3c-.7 0-1.3.6-1.3 1.3s.6 1.2 1.3 1.2h2.5l10.5 26.6c-.8.7-1.4 1.8-1.4 2.9 0 2.1 1.7 3.9 3.9 3.9 1.7 0 3.1-1.1 3.7-2.6h10c.5 1.5 2 2.6 3.7 2.6 2.1 0 3.9-1.7 3.9-3.9 0-2.1-1.7-3.9-3.9-3.9-1.7 0-3.1 1.1-3.7 2.6h-10c-.5-1.5-2-2.6-3.7-2.6h-.2l-1.7-4.4h20.6v.2zm5.5-18.9l.2.2c-.7 1.8-5.2 13.1-6.5 16.2h-20.8l-6.5-16.4h33.6z"/></svg>