<?xml version="1.0" encoding="UTF-8" standalone="no"?>
<svg width="20px" height="16px" viewBox="0 0 20 16" version="1.1" xmlns="http://www.w3.org/2000/svg" xmlns:xlink="http://www.w3.org/1999/xlink" xmlns:sketch="http://www.bohemiancoding.com/sketch/ns">
    <!-- Generator: Sketch 3.5.1 (25234) - http://www.bohemiancoding.com/sketch -->
    <title>envelope-contatar-vendedor</title>
    <desc>Created with Sketch.</desc>
    <defs></defs>
    <g id="Labels-e-filtros" stroke="none" stroke-width="1" fill="none" fill-rule="evenodd" sketch:type="MSPage">
        <g id="Artboard-5-Copy" sketch:type="MSArtboardGroup" stroke="#F9A90E">
            <g id="envelope-contatar-vendedor" sketch:type="MSLayerGroup">
                <path d="M12.8180163,9.53748298 C12.9114409,9.62650843 13.0218991,9.73921014 13.1617337,9.88188481 C14.4929901,11.2401799 16.4898748,13.9567702 16.4898748,13.2776226 C16.4898748,12.6016891 16.4899286,9.84275846 16.4899286,9.84275846 C16.4899286,9.84275846 16.5186528,9.20273725 17.1555031,9.20273725 L18.4867595,9.20273725 C19.1523877,9.20273725 19.818016,8.52358969 19.818016,7.80908692 C19.818016,7.80908692 19.818016,2.41126166 19.818016,1.73211411 C19.818016,1.05296655 19.1523877,0.373818987 18.4867595,0.373818987 L7.83670786,0.373818987 C7.17107963,0.373818987 6.5054514,1.05296655 6.50545199,1.73211411 C6.50545199,1.73211411 6.50545191,2.43939546 6.50545182,3.37381899 L11.4867599,3.37381899 C12.1523882,3.37381899 12.8180164,4.05296655 12.8180158,4.73211411 C12.8180158,4.73211411 12.8180161,7.73176052 12.8180163,9.53748298 Z" id="Stroke-1-Copy-2" sketch:type="MSShapeGroup"></path>
                <path d="M13.654279,3.92706956 C13.6542796,3.247922 12.9886513,2.56877444 12.3230231,2.56877444 L1.67297147,2.56877444 C1.00734324,2.56877444 0.341715012,3.247922 0.341715012,3.92706956 C0.341715012,4.60621712 0.341715012,10.0040424 0.341715012,10.0040424 C0.341715012,10.7185451 1.00734324,11.3976927 1.67297147,11.3976927 L3.00422793,11.3976927 C3.64107818,11.3976927 3.66980236,12.0377139 3.66980236,12.0377139 C3.66980236,12.0377139 3.66985615,14.7966446 3.66985615,15.4725781 C3.66985615,16.1517256 5.66674084,13.4351354 6.99799729,12.0768403 C7.66362552,11.3976927 7.66362552,11.3976927 8.32925375,11.3976927 L12.3230231,11.3976927 C12.9886513,11.3976927 13.6542796,10.7185451 13.6542796,10.0040424 C13.6542796,9.36025003 13.654279,3.92706956 13.654279,3.92706956 Z" id="Stroke-1-Copy" sketch:type="MSShapeGroup"></path>
            </g>
        </g>
    </g>
</svg>