<?xml version="1.0" encoding="utf-8"?>
<!-- Generator: Adobe Illustrator 18.0.0, SVG Export Plug-In . SVG Version: 6.00 Build 0)  -->
<!DOCTYPE svg PUBLIC "-//W3C//DTD SVG 1.1//EN" "http://www.w3.org/Graphics/SVG/1.1/DTD/svg11.dtd">
<svg version="1.1" id="Layer_1" xmlns="http://www.w3.org/2000/svg" xmlns:xlink="http://www.w3.org/1999/xlink" x="0px" y="0px"
	 width="20px" height="18px" viewBox="0 0 20 18" style="enable-background:new 0 0 20 18;" xml:space="preserve">
<path style="fill:#BCBAB7;" d="M14.735,1.44c1.035,0,1.999,0.41,2.715,1.154c0.716,0.745,1.11,1.738,1.11,2.794
	c0,1.557-0.82,2.932-1.586,3.699c-0.83,0.83-5.019,4.956-6.974,6.888c-1.954-1.932-6.144-6.057-6.974-6.888
	C2.259,8.32,1.44,6.945,1.44,5.388c0-1.056,0.394-2.049,1.11-2.794C3.265,1.85,4.23,1.44,5.265,1.44
	c2.063,0,3.578,1.898,3.588,1.911l1.139,1.488l1.15-1.482C11.157,3.338,12.672,1.44,14.735,1.44 M14.735,0C11.9,0,10,2.48,10,2.48
	S8.1,0,5.265,0C2.276,0,0,2.462,0,5.388c0,1.877,0.906,3.614,2.008,4.717C3.109,11.208,10,18,10,18s6.89-6.792,7.992-7.895
	C19.094,9.003,20,7.265,20,5.388C20,2.462,17.723,0,14.735,0L14.735,0z"/>
</svg>
