<svg width="50" height="50" viewBox="0 0 50 50" xmlns="http://www.w3.org/2000/svg"><title>ic-funcionalidades</title><g fill="#95918D" fill-rule="evenodd"><path d="M22.595 33.845c.015-.096.038-.17.037-.243-.015-2.972-1.992-5.694-4.824-6.647-.677-.227-.744-.316-.745-1.027-.002-1.362 0-2.724-.002-4.086 0-.163-.015-.326-.024-.486h-2.068c0 1.576-.01 3.123.006 4.67.005.47-.19.747-.624.907-2.027.744-3.415 2.173-4.324 4.094-.418.883-.635 1.816-.62 2.818h13.19zm-9.017-12.52c-.2 0-.35.004-.502 0-.595-.015-.9-.26-.89-.71.01-.432.31-.67.877-.675.65-.007 1.297-.002 1.946-.002h3.802c.17.002.388-.04.498.046.21.163.45.384.505.62.076.32-.12.61-.482.678-.27.05-.547.052-.88.08v1.715c0 .774.017 1.548-.01 2.32-.01.33.137.438.41.56 2.882 1.294 4.647 3.496 5.098 6.627.557 3.858-2.006 7.617-5.787 8.656-4.556 1.25-9.223-1.653-10.043-6.298-.44-2.49.36-4.665 1.948-6.572.882-1.06 1.962-1.872 3.222-2.443.116-.053.274-.194.275-.296.018-1.417.013-2.836.013-4.304zM28.314 33.838h8.144c-.1-.212-.174-.377-.255-.538-.71-1.423-1.437-2.837-2.12-4.272-.172-.36-.278-.788-.286-1.187-.033-1.53-.013-3.064-.015-4.597 0-.163-.015-.327-.023-.49h-2.767v.536c0 1.516.02 3.034-.014 4.55-.01.4-.117.826-.287 1.188-.6 1.27-1.245 2.518-1.872 3.774-.162.328-.32.657-.506 1.036m1.29-11.12c-.253 0-.436.008-.618 0-.485-.026-.765-.28-.77-.686-.004-.408.278-.672.756-.698.17-.01.34-.003.51-.003 1.997 0 3.993 0 5.99.002.154 0 .31 0 .462.014.407.04.615.292.62.678.002.393-.22.635-.62.68-.228.023-.46.023-.733.037-.01.164-.026.313-.026.46-.002 1.518-.01 3.034.007 4.55.004.25.074.522.185.747 1.944 3.91 3.9 7.812 5.852 11.717.04.083.086.164.123.248.266.592-.027 1.06-.685 1.066-1.377.01-2.755.003-4.132.003h-12.21c-.93 0-1.196-.433-.777-1.27 1.96-3.92 3.922-7.835 5.87-11.758.12-.238.186-.526.19-.792.016-1.486.007-2.97.007-4.457v-.535M31.705 12.272c.386-.008.69-.333.675-.724-.014-.395-.334-.69-.726-.67-.372.018-.655.32-.654.698 0 .388.32.704.705.696m-.055 1.39c-1.14-.016-2.074-.994-2.045-2.14.03-1.15.994-2.062 2.15-2.035 1.12.025 2.043.99 2.022 2.116-.02 1.154-.974 2.077-2.127 2.06M18.448 10.175c-.003-.395-.315-.7-.708-.69-.39.007-.687.327-.672.723.015.374.313.667.683.67.386.004.7-.314.698-.703m-.706 2.094c-1.145-.007-2.09-.972-2.07-2.116.02-1.155.968-2.077 2.122-2.06 1.125.014 2.05.96 2.05 2.09-.003 1.148-.954 2.092-2.102 2.085M28.904 15.737c-.01-.385-.34-.695-.724-.68-.384.016-.69.355-.668.737.02.365.336.66.7.658.384-.003.702-.332.692-.715m1.392.052c-.008 1.11-.972 2.06-2.085 2.053-1.148-.008-2.088-.952-2.09-2.098-.002-1.135.965-2.088 2.11-2.078 1.138.01 2.075.97 2.066 2.122M16.364 16.457c.003-.39-.305-.698-.702-.7-.39 0-.7.318-.692.71.008.366.308.665.678.675.39.01.712-.3.716-.685m-2.786-.014c0-1.145.96-2.09 2.107-2.077 1.134.013 2.063.94 2.07 2.07.007 1.147-.937 2.1-2.084 2.102-1.147.003-2.093-.944-2.092-2.095M33.757 17.152c-.387.01-.692.34-.672.727.018.365.33.657.697.657.388 0 .704-.32.696-.706-.007-.388-.325-.687-.72-.678m2.112.687c.002 1.146-.95 2.097-2.096 2.09-1.15-.005-2.086-.952-2.08-2.105.005-1.124.937-2.054 2.07-2.066 1.147-.013 2.104.932 2.106 2.08M22.615 14.348c.395.01.713-.293.716-.68.003-.39-.304-.696-.702-.697-.37 0-.67.288-.69.663-.02.385.283.706.677.715m.032 1.396c-1.146.01-2.098-.934-2.1-2.08-.004-1.144.95-2.092 2.096-2.085 1.132.006 2.07.934 2.08 2.056.008 1.147-.93 2.1-2.076 2.108"/></g></svg>