<svg xmlns="http://www.w3.org/2000/svg" width="108" height="108" viewBox="0 0 108 108"><path fill="#FCB934" d="M102 108h-96c-3.3 0-6-2.7-6-6v-96c0-3.3 2.7-6 6-6h96c3.3 0 6 2.7 6 6v96c0 3.3-2.7 6-6 6z"/><g fill="#fff"><path d="M27.8 64.1c-.2.2-.5.4-2.1 1.1-.7.3-2.5.9-3.9 1-1.1.1-3.3.2-4.6-1-1.2-1.1-1.3-2.7-1.2-3.4.1-1 .2-1.5.5-2.5.9.1 1.9.1 3-.1 1.2-.1 2.4-.4 4-1.1 1.1-.5 2.3-1.4 3.3-2.4s1.8-2 2.4-3.2c.6-1.1 1.1-2.3 1.2-3.5.2-1.2.1-2.2-.3-3.2-.4-.9-1-1.6-2-2.2-1-.5-2.4-.7-4.2-.5-2.7.2-5.1 1.1-7.1 2.5s-3.5 3.1-4.7 5.1c-.7 1.3-1.3 2.6-1.7 3.9-.5-.1-1.6.1-1.8 1.2-.2 1.1.8 1.7 1.2 1.8-.2 1.9 0 3.7.5 5.3.6 1.8 2 3.6 3.5 4.6 1.5.9 4.2 1.7 6 1.6 1.8 0 3.7-.4 5.1-.8 1.4-.4 3.9-1.6 4.3-2 1.7-1.1 0-3.1-1.4-2.2zm-8.8-11.1c.6-1.2 1.3-2.2 2-3.2s1.5-1.7 2.2-2.3c.7-.6 1.4-.9 2.1-1 .8-.1 1.3.3 1.6 1 .2.7.2 1.6-.1 2.6-.3 1-.8 2-1.6 3.1-.8 1-2.1 2-2.9 2.4-.9.4-1.6.7-2.4.9-.8.1-1.8.1-2.5.1.5-1.4 1-2.5 1.6-3.6zM52.5 52.2c-.8 1.3-1.5 2.6-2 4s-.8 2.7-1 4c-.1 1.3-.1 2.5.2 3.7.3 1.1.8 2.1 1.5 3 .7.8 1.7 1.4 2.9 1.8 1.2.4 4.3.9 6.9-.1 2.6-.9 4.9-3.4 6.2-5.1 1.3-1.7 2.3-3.4 3-5.3.8-1.8 1.3-3.6 1.5-5.5.3-1.8.2-3.4-.1-4.9-.3-1.4-.9-2.6-1.9-3.5-.9-.9-2.2-1.3-3.7-1.3-2.2.1-4.2.6-6.1 1.6-1.9 1-3.6 2.4-5.1 4-1.3 1.8-1.4 2.3-2.3 3.6zm3.7 9.5c0-1.3.2-2.8.6-4.4.4-1.6 1-3.2 1.7-4.6.4-.8.8-1.5 1.5-2.5s1.6-1.8 2.5-2.4c.9-.6 2.5-1 3.5-1.1 1.1-.1 1.9.3 2.3 1.1.5.8.7 1.9.7 3.3 0 1.3-.3 2.8-.8 4.4-.5 1.6-1.2 3.2-2 4.6 0 0-.9 1.5-2.1 2.7-1 1-1.4 1.4-2.2 2-.8.6-2.3 1.1-3 1.1-.7.1-1.6-.2-2.1-1-.4-.8-.6-1.9-.6-3.2zM49.4 37.8c-.3-.5-.6-.9-1.1-1.3-.4-.4-.9-.8-1.5-1.1-.6-.3-1.1-.5-1.6-.7-.5-.1-1-.1-1.4 0-.4.1-.7.4-.9.8-.1.3-.5 1.1-1 2.2s-1.1 2.5-1.8 4.2c-.7 1.6-1.4 3.5-2.1 5.4-.7 2-1.6 4.5-2.2 6.5-.6 2-1.1 3.9-1.4 5.8-.3 1.9-.6 3.7-.5 5.1.1 1.1.6 2.4 1.2 3.2.9 1.2 2.4 1.3 3.3 1.4.8.1 2.6-.2 3.5-.5.9-.3 2.4-.9 3.3-1.4.7-.4 1.3-.7 1.6-.9 1.2-1.1-.1-3.3-1.8-2.2-.3.2-.7.4-1.2.7-1 .6-2.2 1.2-3.5 1.3-1.4.1-2.4-.5-2.5-1.6-.2-1.1 1.4-4.4 2.1-5.9.7-1.5 1.4-3 2.2-4.6.8-1.6 1.8-3.7 2.7-5.2.8-1.6 1.6-3 2.3-4.3.7-1.3 1.3-2.5 1.8-3.4.5-.9.7-1.6.8-1.9 0-.7-.1-1.1-.3-1.6zM87 46.5c1.2-1.9 3-4.8 4.3-6.5.3-.4-3.8.5-5.3.9-1.5.5-2.9.9-4.2 1.2-1.3.3-2.5.7-3.6.9-1 .1-1.9.2-2.5.2-.5 0-.9-.2-1.1-.5-.2-.3-.3-.7-.3-1.2s.2-1.2.4-1.8c.2-.6.5-1.1.8-1.7.3-.5.7-1 1.1-1.4.4-.4.8-.7 1.3-.8.7-.2 1.8-.3 3.1-.2 1.3.1 2.7.2 4.2.3 1.5.1 3 .2 4.5.2s3.2-.4 3.9-.7 1.2-.6 2-.5c.8.1 1.5.4 2.1.9.6.5 1.1 1.1 1.4 1.8.3.7.3 1.4 0 2.2-.2.4-.4 1-1.1 1.7-3 2.8-6.3 7-8.3 9.6-4.5 5.8-5.5 8-6.5 9.6-1.4 2.3-4.2 8-4.6 8.4-.6.7-1.3.5-1.7.4-.5-.1-1.1-.9-.8-1.8.2-.5 5-10.3 6.1-12.3.8-1.8 3.3-6.6 4.8-8.9z"/></g></svg>