<svg xmlns="http://www.w3.org/2000/svg" viewBox="0 0 50 50" enable-background="new 0 0 50 50"><path fill="#253B80" d="M36.1 3.8c-2.3-2.7-6.5-3.8-11.9-3.8h-15.5c-1.1 0-2 .8-2.2 1.9l-6.5 41c-.1.8.5 1.5 1.3 1.5h9.6l2.4-15.3-.1.5c.2-1.1 1.1-1.9 2.2-1.9h4.6c9 0 16-3.6 18-14.2l.2-.9c.6-3.8 0-6.4-2.1-8.8M36.1 3.8c-2.3-2.7-6.5-3.8-11.9-3.8h-15.5c-1.1 0-2 .8-2.2 1.9l-6.5 41c-.1.8.5 1.5 1.3 1.5h9.6l2.4-15.3-.1.5c.2-1.1 1.1-1.9 2.2-1.9h4.6c9 0 16-3.6 18-14.2l.2-.9c.6-3.8 0-6.4-2.1-8.8"/><path fill="#253B80" d="M15.9 12.8c.1-.7.5-1.2 1.1-1.5.3-.1.5-.2.8-.2h12.2c1.4 0 2.8.1 4 .3.4.1.7.1 1 .2.3.1.7.2 1 .2l.5.1c.6.2 1.2.4 1.7.7.6-3.9 0-6.5-2.1-8.9-2.3-2.6-6.5-3.7-11.9-3.7h-15.5c-1.1 0-2 .8-2.2 1.9l-6.5 41c-.1.8.5 1.5 1.3 1.5h9.6l2.4-15.3 2.6-16.3z"/><path fill="#179BD7" d="M38.2 12.7c0 .3-.1.6-.2.9-2 10.5-9 14.2-18 14.2h-4.6c-1.1 0-2 .8-2.2 1.9l-2.3 14.8-.7 4.2c-.1.7.4 1.3 1.2 1.3h8.1c1 0 1.8-.7 1.9-1.6l.1-.4 1.5-9.7.1-.5c.1-.9 1-1.6 1.9-1.6h1.2c7.8 0 14-3.2 15.8-12.4.7-3.8.4-7.1-1.6-9.3-.6-.8-1.3-1.3-2.2-1.8"/><path fill="#222D65" d="M36 11.8c-.3-.1-.6-.2-1-.2l-1-.2c-1.2-.2-2.6-.3-4-.3h-12.2c-.3 0-.6.1-.8.2-.6.3-1 .8-1.1 1.5l-2.6 16.4-.1.5c.2-1.1 1.1-1.9 2.2-1.9h4.6c9 0 16-3.6 18-14.2l.2-.9c-.5-.3-1.1-.5-1.7-.7-.1-.1-.3-.1-.5-.2"/></svg>