<svg xmlns="http://www.w3.org/2000/svg" viewBox="0 0 200 50" enable-background="new 0 0 200 50"><linearGradient id="a" gradientUnits="userSpaceOnUse" x1="100" y1="49.5" x2="100" y2=".5"><stop offset="0" stop-color="#F8F8F8"/><stop offset="1" stop-color="#fff"/></linearGradient><path fill="url(#a)" d="M.5.5h199v49h-199z"/><path fill="#DBDADA" d="M199 1v48h-198v-48h198m1-1h-200v50h200v-50z"/><linearGradient id="b" gradientUnits="userSpaceOnUse" x1="25.715" y1="45.715" x2="25.715" y2="5.715"><stop offset="0" stop-color="#91BA3E"/><stop offset="1" stop-color="#AED136"/></linearGradient><path fill-rule="evenodd" clip-rule="evenodd" fill="url(#b)" d="M5.7 5.7h40v40h-40v-40z"/><path fill="#9E9E9E" d="M61.1 14.1c-2 0-2.9 1.4-2.9 2.9s1 3.1 2.9 3.1c1.5 0 2.7-1.3 2.7-1.3l1.3 1.8s-1.4 1.7-4.1 1.7c-3.2 0-5.4-2.3-5.4-5.3s2.3-5.3 5.4-5.3c2.5 0 3.8 1.4 3.8 1.4l-1.2 1.9c.1.1-1.1-.9-2.5-.9zm10.8 8.2c-3.1 0-5.3-2.3-5.3-5.3 0-2.9 2.3-5.2 5.3-5.2 3.1 0 5.3 2.3 5.3 5.2.1 3-2.2 5.3-5.3 5.3zm0-8.2c-1.5 0-2.8 1.3-2.8 2.9 0 1.7 1.2 3.1 2.8 3.1 1.5 0 2.8-1.3 2.8-3.1 0-1.7-1.3-2.9-2.8-2.9zm16.1 8.1l-.3-4.6c-.1-.8 0-1.7 0-1.7s-.3 1.1-.6 1.7l-1.1 3h-2.1l-1.1-3c-.2-.6-.6-1.7-.6-1.7s.1.9 0 1.7l-.3 4.6h-2.5l.8-10.2h2.7l1.5 4.3c.2.7.5 1.7.5 1.7s.3-1 .5-1.7l1.5-4.3h2.7l.8 10.2h-2.4zm9.5-3.2h-1.7v3.2h-2.5v-10.3h4.2c2 0 3.3 1.5 3.3 3.5s-1.3 3.6-3.3 3.6zm-.4-4.9h-1.3v2.8h1.2c.9 0 1.3-.6 1.3-1.4 0-.9-.4-1.4-1.2-1.4zm11.9 3.8s.1.2.4.6l2 3.6h-2.8l-1.8-3.4h-1.2v3.4h-2.5v-10.2h3.6c1 0 1.5.1 2 .2 1.2.4 1.9 1.5 1.9 3-.1 1.1-.6 2.3-1.6 2.8zm-2.6-3.8h-.8v2.5h1.1c.8 0 1.3-.4 1.3-1.3-.1-.8-.3-1.2-1.6-1.2zm12.9 8.1l-.6-2.1h-3.2l-.6 2.1h-2.6l3.5-10.2h2.6l3.5 10.2h-2.6zm-1.8-6.2c-.2-.6-.4-1.8-.4-1.8s-.2 1.1-.4 1.8l-.6 2h2l-.6-2zm13.3-1.9c-.5 0-1.1.2-1.1.8 0 1.3 4.6 1.1 4.6 4.3 0 1.7-1.3 3.2-3.6 3.2-2.4 0-3.7-1.5-3.7-1.5l1.3-1.9s1.2 1.1 2.4 1.1c.5 0 1.1-.2 1.1-.8 0-1.2-4.6-1.2-4.6-4.3 0-1.9 1.6-3.1 3.6-3.1 2.2 0 3.3 1.2 3.3 1.2l-1.1 2c0-.1-1-1-2.2-1zm12.5 5.9v2.1h-6.6v-10.2h6.4v2.1h-3.9v1.9h3.1v2.1h-3.1v2h4.1zm8-1.5v-2.1h3.7v5.8h-2.1v-.7s-1 .9-2.7.9c-2.6 0-5-2-5-5.3 0-3 2.2-5.3 5.4-5.3 2.6 0 3.9 1.4 3.9 1.4l-1.2 1.9s-1-.9-2.5-.9c-2.1 0-3 1.4-3 2.9 0 1.9 1.3 3.1 2.9 3.1 1.2 0 2.1-.7 2.1-.7v-.8h-1.5v-.2zm10.4 3.8c-2.6 0-4.3-1.6-4.3-3.9v-6.5h2.5v6.5c0 1.1.7 1.6 1.8 1.6s1.8-.6 1.8-1.6v-6.5h2.5v6.5c-.1 2.3-1.7 3.9-4.3 3.9zm13.1-4.4s.1.2.4.6l2 3.6h-2.8l-1.8-3.4h-1.2v3.4h-2.5v-10.2h3.6c1 0 1.5.1 2 .2 1.2.4 1.9 1.5 1.9 3-.1 1.1-.6 2.3-1.6 2.8zm-2.5-3.8h-.8v2.5h1.1c.8 0 1.3-.4 1.3-1.3-.1-.8-.4-1.2-1.6-1.2zm12.9 8.1l-.6-2.1h-3.2l-.6 2.1h-2.6l3.5-10.2h2.6l3.5 10.2h-2.6zm-1.8-6.2c-.2-.6-.4-1.8-.4-1.8s-.2 1.1-.4 1.8l-.6 2h2l-.6-2z"/><path clip-rule="evenodd" fill="none" d="M-95-9.6h40v40h-40v-40z"/><path fill="#fff" d="M39.8 24.1c-.5-.5-1-.7-1.6-.7h-.8v-4.6c0-3-1.1-5.5-3.2-7.6-2.1-2.2-4.7-3.2-7.6-3.2s-5.5 1.1-7.6 3.2c-2.1 2.1-3.2 4.7-3.2 7.6v4.6h-.8c-.6 0-1.2.2-1.6.7-.5.5-.7 1-.7 1.6v13.9c0 .6.2 1.2.7 1.6.5.5 1 .7 1.6.7h23.2c.6 0 1.2-.2 1.6-.7.5-.5.7-1 .7-1.6v-13.9c0-.6-.3-1.2-.7-1.6zm-19.4-5.3c0-1.7.6-3.2 1.8-4.4 1.2-1.2 2.7-1.8 4.4-1.8 1.7 0 3.2.6 4.4 1.8 1.2 1.2 1.8 2.7 1.8 4.4v4.6h-12.4v-4.6zm13.7 11.2l-7.6 7.6h-.1l-1 1c-.2.2-.5.2-.7 0l-5.7-5.6c-.2-.2-.2-.5 0-.7l1.5-1.5c.2-.2.5-.2.7 0l3.9 3.9 6.9-6.9c.2-.2.5-.2.7 0l1.5 1.5c.1.2.1.5-.1.7z"/><linearGradient id="c" gradientUnits="userSpaceOnUse" x1="60.456" y1="38.914" x2="60.456" y2="27.308"><stop offset="0" stop-color="#91BA3E"/><stop offset="1" stop-color="#AED136"/></linearGradient><path fill="url(#c)" d="M57.9 35.2s1.3 1.2 2.7 1.2c.6 0 1.2-.2 1.2-.9 0-1.3-5.1-1.3-5.1-4.7 0-2.1 1.7-3.4 4-3.4 2.4 0 3.6 1.3 3.6 1.3l-1.2 2.2s-1.1-1-2.5-1c-.6 0-1.2.3-1.2.9 0 1.4 5.1 1.2 5.1 4.7 0 1.9-1.4 3.5-4 3.5s-4.1-1.6-4.1-1.6l1.5-2.2z"/><linearGradient id="d" gradientUnits="userSpaceOnUse" x1="67.749" y1="38.726" x2="67.749" y2="27.496"><stop offset="0" stop-color="#91BA3E"/><stop offset="1" stop-color="#AED136"/></linearGradient><path fill="url(#d)" d="M66.4 27.5h2.7v11.2h-2.7v-11.2z"/><linearGradient id="e" gradientUnits="userSpaceOnUse" x1="75.29" y1="38.726" x2="75.29" y2="27.496"><stop offset="0" stop-color="#91BA3E"/><stop offset="1" stop-color="#AED136"/></linearGradient><path fill="url(#e)" d="M73.9 29.9h-3.4v-2.4h9.6v2.4h-3.4v8.9h-2.7v-8.9z"/><linearGradient id="f" gradientUnits="userSpaceOnUse" x1="85.088" y1="38.726" x2="85.088" y2="27.496"><stop offset="0" stop-color="#91BA3E"/><stop offset="1" stop-color="#AED136"/></linearGradient><path fill="url(#f)" d="M81.5 27.5h7v2.4h-4.3v2h3.4v2.4h-3.4v2.1h4.5v2.4h-7.3v-11.3z"/><linearGradient id="g" gradientUnits="userSpaceOnUse" x1="98.461" y1="38.726" x2="98.461" y2="27.496"><stop offset="0" stop-color="#91BA3E"/><stop offset="1" stop-color="#AED136"/></linearGradient><path fill="url(#g)" d="M94.3 27.5h4.7c2.2 0 3.7 1.6 3.7 3.9s-1.5 3.9-3.7 3.9h-2v3.5h-2.7v-11.3zm4.1 5.4c1 0 1.4-.6 1.4-1.5s-.5-1.5-1.4-1.5h-1.4v3h1.4z"/><linearGradient id="h" gradientUnits="userSpaceOnUse" x1="108.809" y1="38.726" x2="108.809" y2="27.496"><stop offset="0" stop-color="#91BA3E"/><stop offset="1" stop-color="#AED136"/></linearGradient><path fill="url(#h)" d="M104.3 27.5h3.9c1.1 0 1.7.1 2.2.3 1.3.5 2.1 1.6 2.1 3.3 0 1.2-.6 2.5-1.7 3.1 0 0 .2.2.4.7l2.2 3.9h-3.1l-2-3.8h-1.3v3.8h-2.7v-11.3zm3.9 5.1c.9 0 1.4-.5 1.4-1.4 0-.8-.3-1.4-1.7-1.4h-.9v2.7h1.2z"/><linearGradient id="i" gradientUnits="userSpaceOnUse" x1="120.053" y1="38.914" x2="120.053" y2="27.308"><stop offset="0" stop-color="#91BA3E"/><stop offset="1" stop-color="#AED136"/></linearGradient><path fill="url(#i)" d="M120.1 27.3c3.4 0 5.9 2.5 5.9 5.7 0 3.3-2.5 5.9-5.9 5.9-3.4 0-5.9-2.6-5.9-5.9 0-3.2 2.5-5.7 5.9-5.7zm0 9.1c1.7 0 3-1.4 3-3.4 0-1.8-1.4-3.2-3-3.2s-3 1.4-3 3.2c-.1 2 1.3 3.4 3 3.4z"/><linearGradient id="j" gradientUnits="userSpaceOnUse" x1="131.33" y1="38.726" x2="131.33" y2="27.496"><stop offset="0" stop-color="#91BA3E"/><stop offset="1" stop-color="#AED136"/></linearGradient><path fill="url(#j)" d="M130 29.9h-3.4v-2.4h9.6v2.4h-3.4v8.9h-2.8v-8.9z"/><linearGradient id="k" gradientUnits="userSpaceOnUse" x1="141.128" y1="38.726" x2="141.128" y2="27.496"><stop offset="0" stop-color="#91BA3E"/><stop offset="1" stop-color="#AED136"/></linearGradient><path fill="url(#k)" d="M137.5 27.5h7v2.4h-4.3v2h3.4v2.4h-3.4v2.1h4.5v2.4h-7.3v-11.3z"/><linearGradient id="l" gradientUnits="userSpaceOnUse" x1="151.374" y1="38.914" x2="151.374" y2="27.308"><stop offset="0" stop-color="#91BA3E"/><stop offset="1" stop-color="#AED136"/></linearGradient><path fill="url(#l)" d="M151.9 27.3c2.9 0 4.3 1.5 4.3 1.5l-1.3 2.1s-1.1-1-2.7-1c-2.4 0-3.3 1.5-3.3 3.2 0 2.1 1.5 3.4 3.2 3.4 1.3 0 2.3-.8 2.3-.8v-.9h-1.6v-2.3h4v6.3h-2.3v-.8s-1.1 1-3 1c-2.9 0-5.5-2.2-5.5-5.8 0-3.4 2.5-5.9 5.9-5.9z"/><linearGradient id="m" gradientUnits="userSpaceOnUse" x1="160.215" y1="38.726" x2="160.215" y2="27.496"><stop offset="0" stop-color="#91BA3E"/><stop offset="1" stop-color="#AED136"/></linearGradient><path fill="url(#m)" d="M158.8 27.5h2.7v11.2h-2.7v-11.2z"/><linearGradient id="n" gradientUnits="userSpaceOnUse" x1="169.124" y1="38.726" x2="169.124" y2="27.496"><stop offset="0" stop-color="#91BA3E"/><stop offset="1" stop-color="#AED136"/></linearGradient><path fill="url(#n)" d="M164.2 27.5h4c3.5 0 5.8 2.1 5.8 5.6 0 3.5-2.3 5.6-5.8 5.6h-4v-11.2zm3.9 8.9c1.9 0 3.1-1.1 3.1-3.3 0-2.1-1.2-3.2-3.1-3.2h-1.1v6.5h1.1z"/><linearGradient id="o" gradientUnits="userSpaceOnUse" x1="181.06" y1="38.914" x2="181.06" y2="27.308"><stop offset="0" stop-color="#91BA3E"/><stop offset="1" stop-color="#AED136"/></linearGradient><path fill="url(#o)" d="M181.1 27.3c3.4 0 5.9 2.5 5.9 5.7 0 3.3-2.5 5.9-5.9 5.9s-5.9-2.6-5.9-5.9c0-3.2 2.5-5.7 5.9-5.7zm0 9.1c1.7 0 3-1.4 3-3.4 0-1.8-1.4-3.2-3-3.2-1.7 0-3 1.4-3 3.2-.1 2 1.3 3.4 3 3.4z"/></svg>