<svg xmlns="http://www.w3.org/2000/svg" width="21" height="18" viewBox="0 0 21 18"><g><path d="M9 7.4l4.8-4.8c-.3-.1-.6-.2-.9-.2h-9.2c-1.1 0-2 .9-2 2v9.1c0 1.2 1 2.2 2.2 2.2h9.1c1.1 0 2-.9 2-2v-1.2l-.5.5-5.5-5.6z" fill="none"/><path fill="#DADADA" d="M14.9 12.4v1.2c0 1.1-.9 2-2 2h-9c-1.2 0-2.2-1-2.2-2.2v-9c0-1.1.9-2 2-2h9.3c.3 0 .6.1.9.2l1.3-1.3c-.5-.3-1.1-.5-1.7-.5h-10.3c-1.8-.1-3.2 1.3-3.2 3.1v10.2c0 1.8 1.4 3.2 3.2 3.2h10.2c1.8 0 3.2-1.4 3.2-3.2v-3.3l-1.7 1.6z"/></g><g fill="#DADADA"><path d="M20.7 3.2l-2.1-2.1c-.4-.4-1-.4-1.3 0l-1.2 1.2 3.4 3.4 1.2-1.2c.4-.3.4-.9 0-1.3zM15.4 3.1l-8 8v3.4h3.4l8-8-3.4-3.4zm-5.1 10.3h-.6v-1.2h-1.1v-.7l1.4-1.4 1.8 1.8-1.5 1.5z"/></g></svg>