<svg xmlns="http://www.w3.org/2000/svg" width="31" height="31" viewBox="0 0 31 31"><path fill="#0DBB6F" d="M15.5 0c-8.6 0-15.5 6.9-15.5 15.5s6.9 15.5 15.5 15.5 15.5-6.9 15.5-15.5-6.9-15.5-15.5-15.5zm0 29.6c-7.8 0-14.1-6.3-14.1-14.1s6.3-14.1 14.1-14.1 14.1 6.3 14.1 14.1-6.3 14.1-14.1 14.1zm-4.9-16.7c-1.2 0-2.2-1-2.2-2.2s1-2.2 2.2-2.2 2.2 1 2.2 2.2-1 2.2-2.2 2.2zm4.9 9.5c-3.4 0-6.2-2.3-7.1-5.5h14.1c-.8 3.2-3.6 5.5-7 5.5zm4.9-9.5c-1.2 0-2.2-1-2.2-2.2s1-2.2 2.2-2.2c1.2 0 2.2 1 2.2 2.2s-1 2.2-2.2 2.2z"/></svg>