<svg xmlns="http://www.w3.org/2000/svg" xmlns:xlink="http://www.w3.org/1999/xlink" width="33" height="33" viewBox="0 0 33 33"><g><circle fill="#B9DEDE" cx="16.5" cy="16.5" r="16.5"/><defs><circle id="a" cx="16.5" cy="16.5" r="16.5"/></defs><clipPath id="b"><use xlink:href="#a" overflow="visible"/></clipPath><g clip-path="url(#b)"><circle fill="#fff" cx="16.1" cy="14.2" r="9.2"/><path fill="#fff" d="M22.6 24.1c-1.7 1.5-3.9 2.2-6.3 2.2s-4.6-.7-6.2-2.2c-2.6 1.7-4.4 4.4-4.4 7.4v2.3h21.3v-2.3c-.1-3.1-1.8-5.8-4.4-7.4z"/><path fill="#339898" d="M26.9 31.5v2.3h-21.3v-2.3c0-3.1 1.7-5.8 4.4-7.4 0 0 1.9 3.4 6.3 7.1 4.3-3.3 6.2-7.1 6.3-7.1 2.6 1.6 4.3 4.3 4.3 7.4zm-13.6-15.1c.6.1 1.1-.4 1-1-.1-.4-.4-.6-.7-.7-.6-.1-1.1.4-1 1 .1.3.4.6.7.7zm6.9-8.1s1.9 5.6 5.4 6.2v-.6c0-5.2-4.2-9.4-9.4-9.4s-9.4 4.2-9.4 9.4v.6c1.6-.1 8.6-2.4 13.4-6.2zm-4 15.9c-5.2 0-9.3-4.2-9.3-9.3s4.1-9.3 9.3-9.3 9.3 4.2 9.3 9.3-4.2 9.3-9.3 9.3zm0-17.8c-4.7 0-8.5 3.8-8.5 8.5s3.8 8.5 8.5 8.5 8.5-3.8 8.5-8.5-3.8-8.5-8.5-8.5zm6.3 14.7c0 .1 0 .3.1.4.4 1.7 1.6 3.1 4.2 2.9-2.5-.7-2.2-4.6-2.2-6.7.1-.2.1-.4.1-.5.1 0-.5 1.8-2.2 3.9z"/><circle fill="#339898" cx="19" cy="15.5" r=".9"/><path fill="#339898" d="M23.5 20c0 .1 0 .2.1.3.2 1.1 1 2 2.8 1.9-1.7-.5-1.4-3.1-1.4-4.5.1-.1.1-.2.1-.4 0 .1-.4 1.2-1.6 2.7zm-15.9-2.8c.1.2.1.4.1.5 0 2.2.4 6-2.2 6.7 2.6.2 3.8-1.1 4.2-2.9.1-.2.1-.3.1-.4-1.6-2.1-2.2-3.9-2.2-3.9zm-.3.2c0 .1.1.2.1.4 0 1.4.2 4-1.4 4.5 1.7.2 2.6-.7 2.8-1.9 0-.1 0-.2.1-.3-1.2-1.6-1.6-2.7-1.6-2.7z"/></g></g><g><circle fill="#B9DEDE" cx="16.5" cy="16.5" r="16.5"/><path fill="#fff" d="M23.5 23.5c-1.8 1.7-4.3 2.8-7 2.8s-5.2-1.1-7-2.8c-1.7 1.2-3 2.8-3.7 4.6-.1.3 6.5 3.9 10.7 3.9s10.6-4.2 10.3-4.8c-.7-1.4-1.8-2.7-3.3-3.7z"/><path fill="#339898" d="M7.3 16.8s.8 4.9-1.3 5.5c.9.1 1.3-.1 1.5-.1-.2.7-.6 2-2 2.2 4.1.2 4.1-2.8 4.3-3.2.2-.4-2.5-4.4-2.5-4.4z"/><circle fill="#fff" cx="16.4" cy="14.6" r="8.9"/><path fill="#339898" d="M16.4 24c-5.2 0-9.4-4.2-9.4-9.4s4.2-9.4 9.4-9.4 9.4 4.2 9.4 9.4-4.2 9.4-9.4 9.4zm0-17.8c-4.6 0-8.4 3.8-8.4 8.4 0 4.6 3.8 8.4 8.4 8.4s8.4-3.8 8.4-8.4c0-4.6-3.8-8.4-8.4-8.4zM6.6 14.7c0-6.2 4.2-10.4 9.8-10.4 5.6 0 9.8 4.1 9.8 10.6-2.3-.3-5.1-3.5-6-6.6-3.4 2.9-9.9 5.7-13.6 6.4z"/><circle fill="#339898" cx="13.8" cy="15.4" r=".9"/><circle fill="#339898" cx="19.3" cy="15.4" r=".9"/><path fill="#339898" d="M23.5 23.5l-7 6.9-7-6.9c-2 1.4-3.4 3.1-3.9 5.3 2.9 2.6 6.7 4.2 11 4.2s8-1.6 11-4.2c-.7-2.2-2.1-3.9-4.1-5.3zM25.6 16.7s-.8 5 1.3 5.6c-.9.1-1.3-.1-1.5-.1.2.7.6 2 2 2.2-4.1.2-4.1-2.8-4.3-3.2-.3-.4 2.5-4.5 2.5-4.5z"/></g></svg>