<svg xmlns="http://www.w3.org/2000/svg" width="33" height="33" viewBox="0 0 33 33"><circle fill="#B9DEDE" cx="16.5" cy="16.5" r="16.5"/><circle fill="#fff" cx="16.4" cy="14.6" r="8.9"/><path fill="#339898" d="M16.4 24c-5.2 0-9.4-4.2-9.4-9.4s4.2-9.4 9.4-9.4 9.4 4.2 9.4 9.4-4.2 9.4-9.4 9.4zm0-17.8c-4.6 0-8.4 3.8-8.4 8.4 0 4.6 3.8 8.4 8.4 8.4s8.4-3.8 8.4-8.4c0-4.6-3.8-8.4-8.4-8.4zM15.9 12.2s.3-3-.1-4.2c-.3 2.3-5.5 6-9.2 6.8 0-6.2 4.2-10.4 9.8-10.4 5.6 0 9.8 4.1 9.8 10.6-2.3-.3-3.7-3.3-4.7-6.1-2.5 3.3-5.6 3.3-5.6 3.3z"/><g fill="#339898"><circle cx="13.8" cy="15.4" r=".9"/><circle cx="19.3" cy="15.4" r=".9"/></g><path fill="#339898" d="M23.5 23.3c-1.8 1.7-4.3 2.8-7 2.8s-5.2-1.1-7-2.8c-2 1.4-3.4 3.3-3.9 5.5 2.9 2.6 6.7 4.2 11 4.2s8-1.6 11-4.2c-.7-2.2-2.1-4.1-4.1-5.5z"/></svg>