<?xml version="1.0" encoding="utf-8"?>
<!-- Generator: Adobe Illustrator 18.0.0, SVG Export Plug-In . SVG Version: 6.00 Build 0)  -->
<!DOCTYPE svg PUBLIC "-//W3C//DTD SVG 1.1//EN" "http://www.w3.org/Graphics/SVG/1.1/DTD/svg11.dtd">
<svg version="1.1" id="Layer_1" xmlns="http://www.w3.org/2000/svg" xmlns:xlink="http://www.w3.org/1999/xlink" x="0px" y="0px"
	 width="36px" height="36px" viewBox="0 0 36 36" style="enable-background:new 0 0 36 36;" xml:space="preserve">
<g>
	<rect style="fill:#BADEDE;" width="36" height="36"/>
	<g>
		<rect x="5.6157" y="15.1022" style="fill:#FFFFFF;" width="24.7688" height="15.3847"/>
		<path style="fill:#75BFBE;" d="M29.7583,15.7282v14.1325H6.2417V15.7282H29.7583 M31.0104,14.4761H4.9896V31.113h26.0209V14.4761
			L31.0104,14.4761z"/>
	</g>
	<g>
		<rect x="8.7461" y="15.1022" style="fill:#FFFFFF;" width="9.0876" height="10.5032"/>
		<path style="fill:#75BFBE;" d="M17.2075,15.7282v9.251H9.3722v-9.251H17.2075 M18.4597,14.4761H8.12v11.7554h10.3397V14.4761
			L18.4597,14.4761z"/>
	</g>
	<g>
		<rect x="21.6511" y="21.7217" style="fill:#FFFFFF;" width="5.6348" height="8.7652"/>
		<path style="fill:#75BFBE;" d="M26.6599,22.3477v7.513h-4.3826v-7.513H26.6599 M27.912,21.0956h-6.887V31.113h6.887V21.0956
			L27.912,21.0956z"/>
	</g>
	<g>
		<path style="fill:#FFFFFF;" d="M11.1982,18.7157c-1.1945,0-2.2579-0.7225-2.5861-1.8048C8.534,16.6533,8.3001,16.5,8.0312,16.5
			c-0.0061,0-0.0124,0-0.0185,0c-0.2615,0-0.4965,0.1294-0.5874,0.3761c-0.3996,1.0851-1.4679,1.856-2.5401,1.856
			c-1.2633,0-2.6243-0.6781-2.6913-2.1868L5.5807,8.5h24.838l3.3878,8.0379c-0.0523,1.4061-1.0446,2.1781-2.5585,2.1781
			c-1.2182,0-2.2573-0.8393-2.586-1.9923c-0.077-0.2698-0.3237-0.4868-0.6019-0.4868c-0.0095,0-0.0186-0.016-0.0281-0.0156
			c-0.2898,0.0128-0.5325,0.2149-0.5873,0.4998c-0.221,1.1556-1.1825,1.8695-2.5095,1.8695c-0.0217,0-0.0431-0.0039-0.0645-0.0054
			c0,0-0.0893-0.0056-0.0987-0.0056c-0.0092,0-0.0994,0.0044-0.0994,0.0044c-0.0211,0.0012-0.0425,0.0028-0.0639,0.0028
			c-1.177,0-2.206-0.7399-2.5603-1.8409c-0.0835-0.2588-0.3244-0.4343-0.5961-0.4343c-0.2718,0-0.5127,0.1754-0.5961,0.4342
			c-0.3543,1.101-1.3833,1.8408-2.5606,1.8408c-0.0217,0-0.0428-0.0018-0.0639-0.0031c0,0-0.0897-0.0049-0.099-0.0049
			c-0.0093,0-0.0987,0.0046-0.0987,0.0046c-0.0212,0.0015-0.0425,0.0034-0.0642,0.0034c-1.1418,0-2.2307-0.8566-2.648-1.8566
			C15.2243,16.4967,14.9963,16.5,14.7439,16.5c-0.0023,0-0.0046,0-0.0069,0c-0.2551,0-0.483,0.0052-0.5761,0.2428
			c-0.3467,0.8852-1.121,1.737-2.0713,1.8841c-0.0378,0.0058-0.0749-0.0235-0.1111-0.0109
			C11.7162,18.7079,11.4536,18.7157,11.1982,18.7157z"/>
		<path style="fill:#75BFBE;" d="M29.7221,8.6326l3.3127,7.7627c-0.09,0.9923-0.7261,1.5711-1.8556,1.5711
			c-0.9357,0-1.6984-0.5949-1.9493-1.4758c-0.1538-0.5399-0.6296-0.9107-1.1865-0.9107c-0.0185,0-0.0285-0.0003-0.0471,0.0005
			c-0.5795,0.0256-1.0612,0.4454-1.1702,1.0151c-0.2359,1.2322-1.4017,1.3651-1.8832,1.3652l-0.0326-0.0021
			c-0.0271-0.0018-0.0538-0.0035-0.0811-0.0048c-0.0192-0.0009-0.0382-0.0014-0.0574-0.0014c-0.0192,0-0.0383,0.0004-0.0575,0.0013
			c-0.0273,0.0013-0.0543,0.003-0.0815,0.0047l-0.024,0.0019c-0.9184,0-1.6893-0.552-1.9642-1.4063
			c-0.1665-0.5176-0.6481-0.8686-1.1919-0.8687c-0.5438,0-1.0254,0.3509-1.192,0.8685c-0.275,0.8544-1.0462,1.4065-1.9551,1.4066
			l-0.0338-0.0021l-0.0805-0.0047c-0.0194-0.0009-0.0389-0.0014-0.0584-0.0014c-0.0195,0-0.039,0.0005-0.0585,0.0014l-0.0801,0.0047
			l-0.0243,0.0019c-0.8963,0-1.7476-0.8852-2.0703-1.6585c-0.1947-0.4667-0.6508-0.802-1.1555-0.802c-0.0046,0-0.0093,0-0.0139,0
			c-0.5103,0-0.9661,0.3524-1.1521,0.8276c-0.2644,0.6752-0.8565,1.4746-1.5839,1.5871c-0.0757,0.0117-0.1502,0.0384-0.2225,0.0637
			c-0.1955,0.0685-0.3884,0.1072-0.5733,0.1072c-0.9065,0-1.7421-0.5842-1.9869-1.3918c-0.1561-0.515-0.6238-0.8716-1.1616-0.8874
			c-0.0124-0.0004-0.0246,0-0.037,0c-0.5231,0-0.993,0.3263-1.1747,0.8196C6.5307,17.46,5.6912,18.089,4.8852,18.089
			c-0.9328,0-1.935-0.7027-2.0557-1.7657L6.0013,8.5H29.5 M30.8394,7.5H5.1601l-3.5948,8.7333c0,1.8551,1.5931,3.1439,3.32,3.1439
			c1.3725,0,2.6574-1.0234,3.1277-2.3002c0.4152,1.3697,1.7526,2.2737,3.1853,2.2737c0.3381,0,0.6704-0.0671,0.9873-0.1781
			c1.1811-0.1827,2.1383-0.9683,2.5584-2.0412c0.5009,1.2004,1.781,2.0823,3.2259,2.0823c0.0551,0,0.1086-0.006,0.1629-0.0085
			c0.0544,0.0025,0.1079,0.0077,0.163,0.0077c1.4935,0,2.7281-0.9434,3.1568-2.2751c0.4285,1.3318,1.6627,2.2749,3.1562,2.2749
			c0.0552,0,0.1087-0.0055,0.1632-0.008c0.0545,0.0025,0.1081,0.008,0.1633,0.008c1.6246,0,2.8437-0.9131,3.1249-2.382
			c0.3953,1.3879,1.6545,2.382,3.1881,2.382c1.8586,0,3.1866-1.1242,3.1866-2.9793L30.8394,7.5L30.8394,7.5z"/>
	</g>
</g>
</svg>
