<?xml version="1.0" encoding="utf-8"?>
<!-- Generator: Adobe Illustrator 18.0.0, SVG Export Plug-In . SVG Version: 6.00 Build 0)  -->
<!DOCTYPE svg PUBLIC "-//W3C//DTD SVG 1.1//EN" "http://www.w3.org/Graphics/SVG/1.1/DTD/svg11.dtd">
<svg version="1.1" id="Layer_1" xmlns="http://www.w3.org/2000/svg" xmlns:xlink="http://www.w3.org/1999/xlink" x="0px" y="0px"
	 width="12px" height="15px" viewBox="0 0 12 15" style="enable-background:new 0 0 12 15;" xml:space="preserve">
<path style="fill:#AAD037;" d="M11.1202,6.1329h-0.9364V4.2977c0,0-0.0005-4.2977-4.2978-4.2977C1.5889,0,1.588,4.2977,1.588,4.2977
	v1.8353H0.8798C0.3939,6.1329,0,6.5268,0,7.0127v7.1075C0,14.6061,0.3939,15,0.8798,15h10.2405C11.6061,15,12,14.6061,12,14.1202
	V7.0127C12,6.5268,11.6061,6.1329,11.1202,6.1329z"/>
<path style="fill:#FFFFFF;" d="M3.4298,4.298C3.4369,3.784,3.429,1.8421,5.8856,1.8421S8.3344,3.792,8.3413,4.298v1.8349H3.4298
	V4.298z"/>
<polygon style="fill:#FFFFFF;" points="5.0969,13.4157 2.4755,10.7946 3.278,9.8952 5.0969,11.714 8.8324,7.9782 9.6343,8.8776 "/>
</svg>
