<?xml version="1.0" encoding="UTF-8" standalone="no"?>
<svg width="233px" height="143px" viewBox="0 0 233 143" version="1.1" xmlns="http://www.w3.org/2000/svg" xmlns:xlink="http://www.w3.org/1999/xlink" xmlns:sketch="http://www.bohemiancoding.com/sketch/ns">
    <!-- Generator: Sketch 3.4.4 (17249) - http://www.bohemiancoding.com/sketch -->
    <title>carrinho-vazio</title>
    <desc>Created with Sketch.</desc>
    <defs>
        <path id="path-1" d="M38.2364616,1.00725121 C34.4835049,6.02894459 30.2923704,11.7017106 24.5421943,14.5086649 L24.5421943,14.5086649 C21.0325353,16.2228123 16.9660756,15.9436945 12.9982666,15.6651834 L12.9982666,15.6651834 C11.1602196,15.5359398 9.34335518,15.4073029 7.61243176,15.4758687 L7.61243176,15.4758687 C4.84719081,15.5856955 2.31011703,16.141504 0.0363130788,17.1857687 L0.0363130788,17.1857687 C1.20680465,18.080766 2.31374834,19.0740613 3.345645,20.1601937 L3.345645,20.1601937 C6.15869817,19.3707757 9.14786978,19.492738 12.0365752,19.6322969 L12.0365752,19.6322969 C15.1697887,19.7833846 18.2999761,19.9951501 21.4271374,19.6177343 L21.4271374,19.6177343 C24.2589523,19.2761183 26.8565479,18.1086778 29.1848215,16.4752318 L29.1848215,16.4752318 C34.2051046,12.9528865 38.0415814,8.03070468 41.6898354,3.15039053 L41.6898354,3.15039053 C42.8052521,1.65832383 41.3817794,0.151694459 39.9038371,0.151694459 L39.9038371,0.151694459 C39.30104,0.151694459 38.6885594,0.402293706 38.2364616,1.00725121 L38.2364616,1.00725121 Z"></path>
        <path id="path-3" d="M0.467228281,9.36197526 C0.467228281,14.265347 22.6805438,18.2403486 50.0817879,18.2403486 L50.0817879,18.2403486 C77.4836372,18.2403486 99.6963475,14.265347 99.6963475,9.36197526 L99.6963475,9.36197526 C99.6963475,4.45860355 77.4836372,0.483601937 50.0817879,0.483601937 L50.0817879,0.483601937 C22.6805438,0.483601937 0.467228281,4.45860355 0.467228281,9.36197526 L0.467228281,9.36197526 Z"></path>
        <path id="path-5" d="M0.501120488,9.4839376 C0.501120488,14.3879161 22.7138308,18.3629177 50.1150749,18.3629177 L50.1150749,18.3629177 C77.5169242,18.3629177 99.7302397,14.3879161 99.7302397,9.4839376 L99.7302397,9.4839376 C99.7302397,4.58117267 77.5169242,0.605564282 50.1150749,0.605564282 L50.1150749,0.605564282 C22.7138308,0.605564282 0.501120488,4.58117267 0.501120488,9.4839376 L0.501120488,9.4839376 Z"></path>
        <path id="path-7" d="M3.03516817,0.559449166 C1.63469377,0.559449166 0.499304834,1.70383217 0.499304834,3.1158042 L0.499304834,3.1158042 L0.499304834,33.0809209 C0.499304834,34.492893 1.63469377,35.6378827 3.03516817,35.6378827 L3.03516817,35.6378827 L3.09387432,35.6378827 C4.49374351,35.6378827 5.62852722,34.492893 5.62852722,33.0809209 L5.62852722,33.0809209 L5.62852722,3.1158042 C5.62852722,1.70383217 4.49374351,0.559449166 3.09387432,0.559449166 L3.09387432,0.559449166 L3.03516817,0.559449166 Z"></path>
        <path id="path-9" d="M2.55038857,0.559449166 C1.14991416,0.559449166 0.0151304495,1.70383217 0.0151304495,3.1158042 L0.0151304495,3.1158042 L0.0151304495,33.0809209 C0.0151304495,34.492893 1.14991416,35.6378827 2.55038857,35.6378827 L2.55038857,35.6378827 L2.60909471,35.6378827 C4.0089639,35.6378827 5.14435283,34.492893 5.14435283,33.0809209 L5.14435283,33.0809209 L5.14435283,3.1158042 C5.14435283,1.70383217 4.0089639,0.559449166 2.60909471,0.559449166 L2.60909471,0.559449166 L2.55038857,0.559449166 Z"></path>
        <path id="path-11" d="M34.7970078,0.466612157 L34.7970078,6.06838515 C34.5071084,8.57437762 32.8469955,13.0730285 24.968873,15.9115352 L24.968873,15.9115352 C24.9428486,15.9212437 24.9192451,15.9303453 24.893826,15.939447 L24.893826,15.939447 C20.9986431,17.373263 17.4175683,18.8835331 15.0451138,19.7633609 L15.0451138,19.7633609 C14.3690853,19.9769467 13.7087925,20.2245121 13.0642353,20.5042367 L13.0642353,20.5042367 C13.0527362,20.5078774 13.038211,20.5139451 13.0315536,20.516979 L13.0315536,20.516979 L13.0357901,20.516979 C5.58132022,23.7559591 0.361315134,31.229035 0.361315134,39.9344766 L0.361315134,39.9344766 L0.361315134,86.7928951 C0.361315134,98.4654804 9.74461471,107.928181 21.320619,107.928181 L21.320619,107.928181 L84.1846107,107.928181 C95.7600098,107.928181 105.143309,98.4654804 105.143309,86.7928951 L105.143309,86.7928951 L105.143309,39.9344766 C105.143309,30.3989629 98.8811189,22.3421668 90.2785505,19.7087509 L90.2785505,19.7087509 C87.8855186,18.8222485 84.910267,17.3441377 81.0937624,15.939447 L81.0937624,15.939447 C81.0677381,15.9303453 81.045345,15.9212437 81.0193206,15.9115352 L81.0193206,15.9115352 C73.1411982,13.0730285 71.4810852,8.57437762 71.1905806,6.06838515 L71.1905806,6.06838515 L71.1905806,0.466612157 L34.7970078,0.466612157 Z"></path>
        <path id="path-13" d="M34.6414668,0.344043034 L34.6414668,5.94520925 C34.3509621,8.4518085 32.6908492,12.9498526 24.813332,15.7889661 L24.813332,15.7889661 C24.7867024,15.7980678 24.7637041,15.8071694 24.7376797,15.8168779 L24.7376797,15.8168779 C20.8424968,17.2506939 17.2620272,18.7603572 14.8889675,19.640185 L14.8889675,19.640185 C14.2129391,19.8537708 13.5526462,20.101943 12.9086943,20.3816676 L12.9086943,20.3816676 C12.8965899,20.3853082 12.8832752,20.391376 12.8754073,20.3938031 L12.8754073,20.3938031 L12.8802491,20.3938031 C5.4257792,23.6327832 0.205168895,31.1064658 0.205168895,39.8106939 L0.205168895,39.8106939 L0.205168895,86.6697192 C0.205168895,94.1955847 4.10882487,100.797934 9.98246537,104.54236 L9.98246537,104.54236 C8.83799817,101.779094 8.20433494,98.7476321 8.20433494,95.5656891 L8.20433494,95.5656891 L8.20433494,43.8785325 C8.20433494,34.2762733 13.4443122,26.0331963 21.6661985,22.4604884 L21.6661985,22.4604884 L21.6613567,22.4604884 C21.6698298,22.4568478 21.6849602,22.4513868 21.698275,22.4459258 L21.698275,22.4459258 C22.4094062,22.1382894 23.1374834,21.8646326 23.8825067,21.628596 L23.8825067,21.628596 C26.5000745,20.6583583 31.0210528,18.9921463 35.3181005,17.41149 L35.3181005,17.41149 C35.3465457,17.400568 35.3719649,17.3908596 35.4010153,17.3805444 L35.4010153,17.3805444 C44.0907351,14.248964 45.9215195,9.2867348 46.2416798,6.52225498 L46.2416798,6.52225498 L46.2416798,0.344043034 L34.6414668,0.344043034 Z"></path>
        <path id="path-15" d="M0.767416399,7.03801614 C1.92277752,9.28188058 3.74327321,8.27159548 6.57085162,7.78556643 L6.57085162,7.78556643 C9.4280857,7.29468316 11.0869882,7.33897795 14.4332384,7.63023131 L14.4332384,7.63023131 C17.1343262,7.86505433 19.9098559,8.32074449 18.452491,4.79475847 L18.452491,4.79475847 C16.9957313,1.26998601 12.5994279,0.456296934 9.93707402,0.456296934 L9.93707402,0.456296934 C3.55626085,0.456296934 -0.388549944,4.79475847 0.767416399,7.03801614 L0.767416399,7.03801614 Z"></path>
        <path id="path-17" d="M0.390365597,7.17514793 C0.390365597,10.9584077 3.43219117,14.0250629 7.18333221,14.0250629 L7.18333221,14.0250629 C10.9344733,14.0250629 13.9762988,10.9584077 13.9762988,7.17514793 L13.9762988,7.17514793 C13.9762988,3.39188811 10.9344733,0.325232921 7.18333221,0.325232921 L7.18333221,0.325232921 C3.43219117,0.325232921 0.390365597,3.39188811 0.390365597,7.17514793 L0.390365597,7.17514793 Z"></path>
        <path id="path-19" d="M0.415784753,4.74803658 C0.415784753,7.16908015 2.36156056,9.13200646 4.76246029,9.13200646 L4.76246029,9.13200646 C6.49943589,9.13200646 7.98645647,8.09805702 8.68185193,6.61327165 L8.68185193,6.61327165 C6.5702464,5.623617 6.39231231,4.74803658 6.39231231,4.74803658 L6.39231231,4.74803658 C6.39231231,4.74803658 6.47341152,3.61275524 8.38347947,2.33730823 L8.38347947,2.33730823 C7.60516914,1.15105756 6.27792611,0.364066703 4.76246029,0.364066703 L4.76246029,0.364066703 C2.36156056,0.364066703 0.415784753,2.32699301 0.415784753,4.74803658 L0.415784753,4.74803658 Z"></path>
        <path id="path-21" d="M0.505962232,5.46828187 C0.505962232,8.29101237 2.77492444,10.5797784 5.57466282,10.5797784 L5.57466282,10.5797784 C8.37379598,10.5797784 10.642153,8.29101237 10.642153,5.46828187 L10.642153,5.46828187 C10.642153,2.64555137 8.37379598,0.356785368 5.57466282,0.356785368 L5.57466282,0.356785368 C2.77492444,0.356785368 0.505962232,2.64555137 0.505962232,5.46828187 L0.505962232,5.46828187 Z"></path>
        <path id="path-23" d="M0.445440434,7.17514793 C0.445440434,10.9584077 3.48666079,14.0250629 7.23780183,14.0250629 L7.23780183,14.0250629 C10.9895481,14.0250629 14.0307684,10.9584077 14.0307684,7.17514793 L14.0307684,7.17514793 C14.0307684,3.39188811 10.9895481,0.325232921 7.23780183,0.325232921 L7.23780183,0.325232921 C3.48666079,0.325232921 0.445440434,3.39188811 0.445440434,7.17514793 L0.445440434,7.17514793 Z"></path>
        <path id="path-25" d="M0.469649153,4.74803658 C0.469649153,7.16908015 2.41603018,9.13200646 4.81692991,9.13200646 L4.81692991,9.13200646 C6.55390551,9.13200646 8.04092609,8.09805702 8.73692677,6.61327165 L8.73692677,6.61327165 C6.62532123,5.623617 6.44738715,4.74803658 6.44738715,4.74803658 L6.44738715,4.74803658 C6.44738715,4.74803658 6.52727592,3.61275524 8.43734387,2.33730823 L8.43734387,2.33730823 C7.65963876,1.15105756 6.33300095,0.364066703 4.81692991,0.364066703 L4.81692991,0.364066703 C2.41603018,0.364066703 0.469649153,2.32699301 0.469649153,4.74803658 L0.469649153,4.74803658 Z"></path>
        <path id="path-27" d="M0.559826632,5.46828187 C0.559826632,8.29101237 2.82999928,10.5797784 5.62913244,10.5797784 L5.62913244,10.5797784 C8.4282656,10.5797784 10.6972278,8.29101237 10.6972278,5.46828187 L10.6972278,5.46828187 C10.6972278,2.64555137 8.4282656,0.356785368 5.62913244,0.356785368 L5.62913244,0.356785368 C2.82999928,0.356785368 0.559826632,2.64555137 0.559826632,5.46828187 L0.559826632,5.46828187 Z"></path>
        <path id="path-29" d="M1.83017917,0.646218397 L1.66313901,0.748157074 C0.400654303,1.51209037 0.207589767,3.27113932 1.26672123,4.30084131 L1.26672123,4.30084131 C3.62041396,6.58900054 8.22551757,10.0986036 15.5238412,11.7623884 L15.5238412,11.7623884 C17.4302778,12.1956278 18.0028141,12.6986466 19.3633441,13.2338246 L19.3633441,13.2338246 C20.2554354,13.5857558 21.2685703,13.3351565 21.887103,12.5967079 L21.887103,12.5967079 C21.9736492,12.4935557 22.0608006,12.3897967 22.147952,12.2860377 L22.147952,12.2860377 C23.1193269,11.1301259 22.7023317,9.3498397 21.3175929,8.7612652 L21.3175929,8.7612652 C19.1158099,7.82682733 17.7873564,7.11082948 15.4851073,6.71703066 L15.4851073,6.71703066 C10.2608656,5.82324691 6.33905313,2.6831716 4.5004009,0.933224314 L4.5004009,0.933224314 C4.07795875,0.530930608 3.53144692,0.324626143 2.97948812,0.324626143 L2.97948812,0.324626143 C2.584886,0.324626143 2.18665256,0.430812265 1.83017917,0.646218397 L1.83017917,0.646218397 Z"></path>
        <path id="path-31" d="M80.3771843,0.413215707 L0.169461035,0.413215707 L0.169461035,16.3077612 C0.169461035,25.0848026 7.22630269,32.2010931 15.9305477,32.2010931 L15.9305477,32.2010931 L80.3771843,32.2010931 C89.0820346,32.2010931 96.1376658,25.0848026 96.1376658,16.3077612 L96.1376658,16.3077612 L96.1376658,0.413215707 L80.3771843,0.413215707 Z"></path>
        <path id="path-33" d="M0.212431511,0.413215707 C0.642741495,4.87363959 4.36967382,8.36079182 8.90517737,8.36079182 L8.90517737,8.36079182 L87.4031599,8.36079182 C91.9386634,8.36079182 95.6655958,4.87363959 96.0953005,0.413215707 L96.0953005,0.413215707 L0.212431511,0.413215707 Z"></path>
        <path id="path-35" d="M8.9499635,0.323412587 C4.15905796,0.323412587 0.276584617,4.23955675 0.276584617,9.06950834 L0.276584617,9.06950834 L0.276584617,9.27277891 C0.276584617,14.1039441 4.15905796,18.0188747 8.9499635,18.0188747 L8.9499635,18.0188747 L51.7691356,18.0188747 C56.5588307,18.0188747 60.4413041,14.1039441 60.4413041,9.27277891 L60.4413041,9.27277891 L60.4413041,9.06950834 C60.4413041,4.23955675 56.5588307,0.323412587 51.7691356,0.323412587 L51.7691356,0.323412587 L8.9499635,0.323412587 Z"></path>
        <path id="path-37" d="M2.29256571,0.323412587 C1.61714244,0.323412587 0.959270499,0.401686928 0.328633363,0.548527165 L0.328633363,0.548527165 L0.328633363,17.7937601 C0.959270499,17.9412071 1.61714244,18.0188747 2.29256571,18.0188747 L2.29256571,18.0188747 L3.02003772,18.0188747 L3.02003772,0.323412587 L2.29256571,0.323412587 Z"></path>
        <path id="path-39" d="M0.337106415,2.42286391 L0.337106415,13.492312 C1.06820974,14.4225024 1.98390454,15.1979645 3.02790556,15.764695 L3.02790556,15.764695 L3.02790556,0.150480904 C1.98390454,0.717211404 1.06820974,1.49328026 0.337106415,2.42286391 L0.337106415,2.42286391 Z"></path>
        <path id="path-41" d="M0.501725706,18.0188747 L3.19252485,18.0188747 L3.19252485,0.323412587 L0.501725706,0.323412587 L0.501725706,18.0188747 Z"></path>
        <path id="path-43" d="M0.37462993,18.0188747 L3.06542907,18.0188747 L3.06542907,0.323412587 L0.37462993,0.323412587 L0.37462993,18.0188747 Z"></path>
        <path id="path-45" d="M0.381892546,18.0188747 L3.07269169,18.0188747 L3.07269169,0.323412587 L0.381892546,0.323412587 L0.381892546,18.0188747 Z"></path>
        <path id="path-47" d="M0.546511836,18.0188747 L3.23731098,18.0188747 L3.23731098,0.323412587 L0.546511836,0.323412587 L0.546511836,18.0188747 Z"></path>
        <path id="path-49" d="M0.420021279,18.0188747 L3.11082042,18.0188747 L3.11082042,0.323412587 L0.420021279,0.323412587 L0.420021279,18.0188747 Z"></path>
        <path id="path-51" d="M0.426678676,18.0188747 L3.11808304,18.0188747 L3.11808304,0.323412587 L0.426678676,0.323412587 L0.426678676,18.0188747 Z"></path>
        <path id="path-53" d="M0.591903185,18.0188747 L3.28270233,18.0188747 L3.28270233,0.323412587 L0.591903185,0.323412587 L0.591903185,18.0188747 Z"></path>
        <path id="path-55" d="M0.464807409,17.9873222 C1.41318398,17.906014 2.3191953,17.6705842 3.15560655,17.3059107 L3.15560655,17.3059107 L3.15560655,1.03637655 C2.3191953,0.671703066 1.41318398,0.436273265 0.464807409,0.354965035 L0.464807409,0.354965035 L0.464807409,17.9873222 Z"></path>
        <path id="path-57" d="M0.472070025,18.0188747 L3.16286917,18.0188747 L3.16286917,0.323412587 L0.472070025,0.323412587 L0.472070025,18.0188747 Z"></path>
        <path id="path-59" d="M0.031471335,13.3867327 C1.35024131,12.2041226 2.30951181,10.6228596 2.72227048,8.82861754 L2.72227048,8.82861754 L2.72227048,4.65944701 C2.30951181,2.86581173 1.35024131,1.28454868 0.031471335,0.101938677 L0.031471335,0.101938677 L0.031471335,13.3867327 Z"></path>
        <path id="path-61" d="M0.0647583239,0.369527703 C1.18622724,3.89005272 4.4598513,6.43791286 8.32356289,6.43791286 L8.32356289,6.43791286 L51.142735,6.43791286 C55.0064466,6.43791286 58.2800707,3.89005272 59.4015396,0.369527703 L59.4015396,0.369527703 L0.0647583239,0.369527703 Z"></path>
        <path id="path-63" d="M0.30866117,0.369527703 L0.30866117,6.21340506 C0.939298306,6.36024529 1.59656503,6.43791286 2.27138308,6.43791286 L2.27138308,6.43791286 L2.99946031,6.43791286 L2.99946031,0.369527703 L0.30866117,0.369527703 Z"></path>
        <path id="path-65" d="M0.315318568,0.369527703 L0.315318568,3.12369231 C1.04702711,4.05388273 1.96211669,4.83055836 3.00672293,5.39728886 L3.00672293,5.39728886 L3.00672293,0.369527703 L0.315318568,0.369527703 Z"></path>
        <path id="path-67" d="M0.480543077,6.43791286 L3.17134222,6.43791286 L3.17134222,0.369527703 L0.480543077,0.369527703 L0.480543077,6.43791286 Z"></path>
        <path id="path-69" d="M0.353447301,6.43791286 L3.04424644,6.43791286 L3.04424644,0.369527703 L0.353447301,0.369527703 L0.353447301,6.43791286 Z"></path>
        <path id="path-71" d="M0.360709916,6.43791286 L3.05150906,6.43791286 L3.05150906,0.369527703 L0.360709916,0.369527703 L0.360709916,6.43791286 Z"></path>
        <path id="path-73" d="M0.525329207,6.43791286 L3.21673357,6.43791286 L3.21673357,0.369527703 L0.525329207,0.369527703 L0.525329207,6.43791286 Z"></path>
        <path id="path-75" d="M0.398838649,6.43791286 L3.08963779,6.43791286 L3.08963779,0.369527703 L0.398838649,0.369527703 L0.398838649,6.43791286 Z"></path>
        <path id="path-77" d="M0.405496047,6.43791286 L3.09690041,6.43791286 L3.09690041,0.369527703 L0.405496047,0.369527703 L0.405496047,6.43791286 Z"></path>
        <path id="path-79" d="M0.570720556,6.43791286 L3.2615197,6.43791286 L3.2615197,0.369527703 L0.570720556,0.369527703 L0.570720556,6.43791286 Z"></path>
        <path id="path-81" d="M0.44362478,0.369527703 L0.44362478,6.40636041 C1.39200136,6.32505218 2.29801267,6.08962238 3.13442392,5.72555568 L3.13442392,5.72555568 L3.13442392,0.369527703 L0.44362478,0.369527703 Z"></path>
        <path id="path-83" d="M0.450887396,6.43791286 L3.14168654,6.43791286 L3.14168654,0.369527703 L0.450887396,0.369527703 L0.450887396,6.43791286 Z"></path>
        <path id="path-85" d="M0.0102887057,0.369527703 L0.0102887057,4.23227542 C1.15657156,3.20500054 2.03111154,1.87676385 2.5110494,0.369527703 L2.5110494,0.369527703 L0.0102887057,0.369527703 Z"></path>
        <path id="path-87" d="M0.0139200136,0.6789844 C-0.06294267,1.10312211 0.216668037,1.51148359 0.637899752,1.59097149 L0.637899752,1.59097149 C0.732918974,1.60856805 2.98069855,2.05151587 3.00188118,3.80874449 L3.00188118,3.80874449 C3.00672293,4.2383432 3.35411805,4.58177945 3.77837585,4.58177945 L3.77837585,4.58177945 L3.78805934,4.58177945 C4.21715889,4.57631845 4.5609227,4.22196019 4.55608096,3.78872082 L4.55608096,3.78872082 C4.52582006,1.34644002 2.16062819,0.27487036 0.913879151,0.048542227 L0.913879151,0.048542227 C0.868487802,0.0406541151 0.823096454,0.0364066703 0.778310323,0.0364066703 L0.778310323,0.0364066703 C0.409127355,0.0364066703 0.0835200813,0.300961807 0.0139200136,0.6789844 L0.0139200136,0.6789844 Z"></path>
        <path id="path-89" d="M0.269322001,0.6789844 C0.1918541,1.10312211 0.472070025,1.51148359 0.892696521,1.59097149 L0.892696521,1.59097149 C0.988320962,1.60856805 3.23549532,2.05151587 3.25667795,3.80874449 L3.25667795,3.80874449 C3.2615197,4.2383432 3.60952004,4.58177945 4.03377784,4.58177945 L4.03377784,4.58177945 L4.04346133,4.58177945 C4.47195566,4.57631845 4.81571947,4.22196019 4.81087773,3.78872082 L4.81087773,3.78872082 C4.78122205,1.34644002 2.41603018,0.27487036 1.16928114,0.048542227 L1.16928114,0.048542227 C1.12328457,0.0406541151 1.07789322,0.0364066703 1.03310709,0.0364066703 L1.03310709,0.0364066703 C0.663924125,0.0364066703 0.338316851,0.300961807 0.269322001,0.6789844 L0.269322001,0.6789844 Z"></path>
    </defs>
    <g id="Page-2" stroke="none" stroke-width="1" fill="none" fill-rule="evenodd" sketch:type="MSPage">
        <g id="esvaziar-carrinho-com-mensagem" sketch:type="MSArtboardGroup" transform="translate(-163.000000, -341.000000)">
            <g id="carrinho-vazio" sketch:type="MSLayerGroup" transform="translate(163.000000, 341.000000)">
                <g id="Group-3" transform="translate(85.940953, 49.149005)">
                    <mask id="mask-2" sketch:name="Clip 2" fill="white">
                        <use xlink:href="#path-1"></use>
                    </mask>
                    <g id="Clip-2"></g>
                    <path d="M-4.90105521,-4.79839914 L47.0260423,-4.79839914 L47.0260423,25.1096805 L-4.90105521,25.1096805 L-4.90105521,-4.79839914 Z" id="Fill-1" fill="#5EBAB1" sketch:type="MSShapeGroup" mask="url(#mask-2)"></path>
                </g>
                <g id="Group-6" transform="translate(5.446962, 123.175901)">
                    <mask id="mask-4" sketch:name="Clip 5" fill="white">
                        <use xlink:href="#path-3"></use>
                    </mask>
                    <g id="Clip-5"></g>
                    <path d="M-4.46953479,-4.46588488 L104.633111,-4.46588488 L104.633111,23.1904422 L-4.46953479,23.1904422 L-4.46953479,-4.46588488 Z" id="Fill-4" fill="#D8D6D1" sketch:type="MSShapeGroup" mask="url(#mask-4)"></path>
                </g>
                <g id="Group-9" transform="translate(133.134741, 124.376547)">
                    <mask id="mask-6" sketch:name="Clip 8" fill="white">
                        <use xlink:href="#path-5"></use>
                    </mask>
                    <g id="Clip-8"></g>
                    <path d="M-4.4362478,-4.34392254 L104.666398,-4.34392254 L104.666398,23.3124045 L-4.4362478,23.3124045 L-4.4362478,-4.34392254 Z" id="Fill-7" fill="#D8D6D1" sketch:type="MSShapeGroup" mask="url(#mask-6)"></path>
                </g>
                <g id="Group-12" transform="translate(33.892207, 99.511565)">
                    <mask id="mask-8" sketch:name="Clip 11" fill="white">
                        <use xlink:href="#path-7"></use>
                    </mask>
                    <g id="Clip-11"></g>
                    <path d="M-4.43745823,-4.39003765 L10.5658955,-4.39003765 L10.5658955,40.5879763 L-4.43745823,40.5879763 L-4.43745823,-4.39003765 Z" id="Fill-10" fill="#4AADA1" sketch:type="MSShapeGroup" mask="url(#mask-8)"></path>
                </g>
                <g id="Group-15" transform="translate(65.968760, 99.511565)">
                    <mask id="mask-10" sketch:name="Clip 14" fill="white">
                        <use xlink:href="#path-9"></use>
                    </mask>
                    <g id="Clip-14"></g>
                    <path d="M-4.92223784,-4.39003765 L10.0811159,-4.39003765 L10.0811159,40.5879763 L-4.92223784,40.5879763 L-4.92223784,-4.39003765 Z" id="Fill-13" fill="#4AADA1" sketch:type="MSShapeGroup" mask="url(#mask-10)"></path>
                </g>
                <g id="Group-18" transform="translate(0.000000, 8.494890)">
                    <mask id="mask-12" sketch:name="Clip 17" fill="white">
                        <use xlink:href="#path-11"></use>
                    </mask>
                    <g id="Clip-17"></g>
                    <path d="M-4.57544793,-4.48287466 L110.080678,-4.48287466 L110.080678,112.878274 L-4.57544793,112.878274 L-4.57544793,-4.48287466 Z" id="Fill-16" fill="#5EBAB1" sketch:type="MSShapeGroup" mask="url(#mask-12)"></path>
                </g>
                <g id="Group-21" transform="translate(0.605218, 8.494890)">
                    <mask id="mask-14" sketch:name="Clip 20" fill="white">
                        <use xlink:href="#path-13"></use>
                    </mask>
                    <g id="Clip-20"></g>
                    <path d="M-4.73159417,-4.60605056 L51.1790481,-4.60605056 L51.1790481,109.491847 L-4.73159417,109.491847 L-4.73159417,-4.60605056 Z" id="Fill-19" fill="#4AADA1" sketch:type="MSShapeGroup" mask="url(#mask-14)"></path>
                </g>
                <g id="Group-24" transform="translate(43.575695, 61.891339)">
                    <mask id="mask-16" sketch:name="Clip 23" fill="white">
                        <use xlink:href="#path-15"></use>
                    </mask>
                    <g id="Clip-23"></g>
                    <path d="M-4.36967382,-4.49318989 L23.791724,-4.49318989 L23.791724,13.3873394 L-4.36967382,13.3873394 L-4.36967382,-4.49318989 Z" id="Fill-22" fill="#8B3F3E" sketch:type="MSShapeGroup" mask="url(#mask-16)"></path>
                </g>
                <g id="Group-27" transform="translate(24.208719, 47.328671)">
                    <mask id="mask-18" sketch:name="Clip 26" fill="white">
                        <use xlink:href="#path-17"></use>
                    </mask>
                    <g id="Clip-26"></g>
                    <path d="M-4.54639747,-4.6242539 L18.9130619,-4.6242539 L18.9130619,18.9751565 L-4.54639747,18.9751565 L-4.54639747,-4.6242539 Z" id="Fill-25" fill="#FFFFFE" sketch:type="MSShapeGroup" mask="url(#mask-18)"></path>
                </g>
                <g id="Group-30" transform="translate(26.629591, 49.755783)">
                    <mask id="mask-20" sketch:name="Clip 29" fill="white">
                        <use xlink:href="#path-19"></use>
                    </mask>
                    <g id="Clip-29"></g>
                    <path d="M-4.52158353,-4.5860269 L13.6192202,-4.5860269 L13.6192202,14.0814933 L-4.52158353,14.0814933 L-4.52158353,-4.5860269 Z" id="Fill-28" fill="#FFFFFE" sketch:type="MSShapeGroup" mask="url(#mask-20)"></path>
                </g>
                <g id="Group-33" transform="translate(27.234809, 48.542227)">
                    <mask id="mask-22" sketch:name="Clip 32" fill="white">
                        <use xlink:href="#path-21"></use>
                    </mask>
                    <g id="Clip-32"></g>
                    <path d="M-4.43080084,-4.59270145 L15.5795213,-4.59270145 L15.5795213,15.5292652 L-4.43080084,15.5292652 L-4.43080084,-4.59270145 Z" id="Fill-31" fill="#0B0C09" sketch:type="MSShapeGroup" mask="url(#mask-22)"></path>
                </g>
                <g id="Group-36" transform="translate(66.573978, 47.328671)">
                    <mask id="mask-24" sketch:name="Clip 35" fill="white">
                        <use xlink:href="#path-23"></use>
                    </mask>
                    <g id="Clip-35"></g>
                    <path d="M-4.49132263,-4.6242539 L18.9675315,-4.6242539 L18.9675315,18.9751565 L-4.49132263,18.9751565 L-4.49132263,-4.6242539 Z" id="Fill-34" fill="#FFFFFE" sketch:type="MSShapeGroup" mask="url(#mask-24)"></path>
                </g>
                <g id="Group-39" transform="translate(68.994850, 49.755783)">
                    <mask id="mask-26" sketch:name="Clip 38" fill="white">
                        <use xlink:href="#path-25"></use>
                    </mask>
                    <g id="Clip-38"></g>
                    <path d="M-4.46711391,-4.5860269 L13.6742951,-4.5860269 L13.6742951,14.0814933 L-4.46711391,14.0814933 L-4.46711391,-4.5860269 Z" id="Fill-37" fill="#FFFFFE" sketch:type="MSShapeGroup" mask="url(#mask-26)"></path>
                </g>
                <g id="Group-42" transform="translate(69.600068, 48.542227)">
                    <mask id="mask-28" sketch:name="Clip 41" fill="white">
                        <use xlink:href="#path-27"></use>
                    </mask>
                    <g id="Clip-41"></g>
                    <path d="M-4.37633122,-4.59270145 L15.6345961,-4.59270145 L15.6345961,15.5292652 L-4.37633122,15.5292652 L-4.37633122,-4.59270145 Z" id="Fill-40" fill="#0B0C09" sketch:type="MSShapeGroup" mask="url(#mask-28)"></path>
                </g>
                <g id="Group-45" transform="translate(68.994850, 24.877891)">
                    <mask id="mask-30" sketch:name="Clip 44" fill="white">
                        <use xlink:href="#path-29"></use>
                    </mask>
                    <g id="Clip-44"></g>
                    <path d="M-4.35696424,-4.6242539 L27.6142808,-4.6242539 L27.6142808,18.3410737 L-4.35696424,18.3410737 L-4.35696424,-4.6242539 Z" id="Fill-43" fill="#FFFFFE" sketch:type="MSShapeGroup" mask="url(#mask-30)"></path>
                </g>
                <g id="Group-48" transform="translate(4.236526, 78.881119)">
                    <mask id="mask-32" sketch:name="Clip 47" fill="white">
                        <use xlink:href="#path-31"></use>
                    </mask>
                    <g id="Clip-47"></g>
                    <path d="M-4.76730203,-4.53627111 L101.075034,-4.53627111 L101.075034,37.1505799 L-4.76730203,37.1505799 L-4.76730203,-4.53627111 Z" id="Fill-46" fill="#16847D" sketch:type="MSShapeGroup" mask="url(#mask-32)"></path>
                </g>
                <g id="Group-51" transform="translate(4.236526, 78.881119)">
                    <mask id="mask-34" sketch:name="Clip 50" fill="white">
                        <use xlink:href="#path-33"></use>
                    </mask>
                    <g id="Clip-50"></g>
                    <path d="M-4.72433156,-4.53627111 L101.032064,-4.53627111 L101.032064,13.3102786 L-4.72433156,13.3102786 L-4.72433156,-4.53627111 Z" id="Fill-49" fill="#4AADA1" sketch:type="MSShapeGroup" mask="url(#mask-34)"></path>
                </g>
                <g id="Group-54" transform="translate(22.393065, 0.000000)">
                    <mask id="mask-36" sketch:name="Clip 53" fill="white">
                        <use xlink:href="#path-35"></use>
                    </mask>
                    <g id="Clip-53"></g>
                    <path d="M-4.66017845,-6.40454008 L65.3786724,-6.40454008 L65.3786724,25.0174502 L-4.66017845,25.0174502 L-4.66017845,-6.40454008 Z" id="Fill-52" fill="#B7B5AE" sketch:type="MSShapeGroup" mask="url(#mask-36)"></path>
                </g>
                <g id="Group-57" transform="translate(29.050463, 0.000000)">
                    <mask id="mask-38" sketch:name="Clip 56" fill="white">
                        <use xlink:href="#path-37"></use>
                    </mask>
                    <g id="Clip-56"></g>
                    <path d="M-4.6081297,-4.62607423 L7.95680079,-4.62607423 L7.95680079,22.9689683 L-4.6081297,22.9689683 L-4.6081297,-4.62607423 Z" id="Fill-55" fill="#D8D6D1" sketch:type="MSShapeGroup" mask="url(#mask-38)"></path>
                </g>
                <g id="Group-60" transform="translate(24.208719, 1.213556)">
                    <mask id="mask-40" sketch:name="Clip 59" fill="white">
                        <use xlink:href="#path-39"></use>
                    </mask>
                    <g id="Clip-59"></g>
                    <path d="M-4.60026187,-5.83962991 L7.96466862,-5.83962991 L7.96466862,21.7554126 L-4.60026187,21.7554126 L-4.60026187,-5.83962991 Z" id="Fill-58" fill="#D8D6D1" sketch:type="MSShapeGroup" mask="url(#mask-40)"></path>
                </g>
                <g id="Group-63" transform="translate(33.892207, 0.000000)">
                    <mask id="mask-42" sketch:name="Clip 62" fill="white">
                        <use xlink:href="#path-41"></use>
                    </mask>
                    <g id="Clip-62"></g>
                    <path d="M-4.43564258,-4.62607423 L8.12928792,-4.62607423 L8.12928792,22.9689683 L-4.43564258,22.9689683 L-4.43564258,-4.62607423 Z" id="Fill-61" fill="#D8D6D1" sketch:type="MSShapeGroup" mask="url(#mask-42)"></path>
                </g>
                <g id="Group-66" transform="translate(44.180913, 0.000000)">
                    <mask id="mask-44" sketch:name="Clip 65" fill="white">
                        <use xlink:href="#path-43"></use>
                    </mask>
                    <g id="Clip-65"></g>
                    <path d="M-4.56213314,-4.62607423 L8.00279736,-4.62607423 L8.00279736,22.9689683 L-4.56213314,22.9689683 L-4.56213314,-4.62607423 Z" id="Fill-64" fill="#D8D6D1" sketch:type="MSShapeGroup" mask="url(#mask-44)"></path>
                </g>
                <g id="Group-69" transform="translate(39.339169, 0.000000)">
                    <mask id="mask-46" sketch:name="Clip 68" fill="white">
                        <use xlink:href="#path-45"></use>
                    </mask>
                    <g id="Clip-68"></g>
                    <path d="M-4.55547574,-4.62607423 L8.00945475,-4.62607423 L8.00945475,22.9689683 L-4.55547574,22.9689683 L-4.55547574,-4.62607423 Z" id="Fill-67" fill="#D8D6D1" sketch:type="MSShapeGroup" mask="url(#mask-46)"></path>
                </g>
                <g id="Group-72" transform="translate(49.022656, 0.000000)">
                    <mask id="mask-48" sketch:name="Clip 71" fill="white">
                        <use xlink:href="#path-47"></use>
                    </mask>
                    <g id="Clip-71"></g>
                    <path d="M-4.39025123,-4.62607423 L8.17467926,-4.62607423 L8.17467926,22.9689683 L-4.39025123,22.9689683 L-4.39025123,-4.62607423 Z" id="Fill-70" fill="#D8D6D1" sketch:type="MSShapeGroup" mask="url(#mask-48)"></path>
                </g>
                <g id="Group-75" transform="translate(59.311362, 0.000000)">
                    <mask id="mask-50" sketch:name="Clip 74" fill="white">
                        <use xlink:href="#path-49"></use>
                    </mask>
                    <g id="Clip-74"></g>
                    <path d="M-4.51734701,-4.62607423 L8.04758349,-4.62607423 L8.04758349,22.9689683 L-4.51734701,22.9689683 L-4.51734701,-4.62607423 Z" id="Fill-73" fill="#D8D6D1" sketch:type="MSShapeGroup" mask="url(#mask-50)"></path>
                </g>
                <g id="Group-78" transform="translate(54.469618, 0.000000)">
                    <mask id="mask-52" sketch:name="Clip 77" fill="white">
                        <use xlink:href="#path-51"></use>
                    </mask>
                    <g id="Clip-77"></g>
                    <path d="M-4.51008439,-4.62607423 L8.0548461,-4.62607423 L8.0548461,22.9689683 L-4.51008439,22.9689683 L-4.51008439,-4.62607423 Z" id="Fill-76" fill="#D8D6D1" sketch:type="MSShapeGroup" mask="url(#mask-52)"></path>
                </g>
                <g id="Group-81" transform="translate(64.153106, 0.000000)">
                    <mask id="mask-54" sketch:name="Clip 80" fill="white">
                        <use xlink:href="#path-53"></use>
                    </mask>
                    <g id="Clip-80"></g>
                    <path d="M-4.3454651,-4.62607423 L8.21946539,-4.62607423 L8.21946539,22.9689683 L-4.3454651,22.9689683 L-4.3454651,-4.62607423 Z" id="Fill-79" fill="#D8D6D1" sketch:type="MSShapeGroup" mask="url(#mask-54)"></path>
                </g>
                <g id="Group-84" transform="translate(74.441812, 0.000000)">
                    <mask id="mask-56" sketch:name="Clip 83" fill="white">
                        <use xlink:href="#path-55"></use>
                    </mask>
                    <g id="Clip-83"></g>
                    <path d="M-4.47195566,-4.62607423 L8.09297484,-4.62607423 L8.09297484,22.9689683 L-4.47195566,22.9689683 L-4.47195566,-4.62607423 Z" id="Fill-82" fill="#D8D6D1" sketch:type="MSShapeGroup" mask="url(#mask-56)"></path>
                </g>
                <g id="Group-87" transform="translate(69.600068, 0.000000)">
                    <mask id="mask-58" sketch:name="Clip 86" fill="white">
                        <use xlink:href="#path-57"></use>
                    </mask>
                    <g id="Clip-86"></g>
                    <path d="M-4.46529826,-4.62607423 L8.09963223,-4.62607423 L8.09963223,22.9689683 L-4.46529826,22.9689683 L-4.46529826,-4.62607423 Z" id="Fill-85" fill="#D8D6D1" sketch:type="MSShapeGroup" mask="url(#mask-58)"></path>
                </g>
                <g id="Group-90" transform="translate(79.888773, 2.427111)">
                    <mask id="mask-60" sketch:name="Clip 89" fill="white">
                        <use xlink:href="#path-59"></use>
                    </mask>
                    <g id="Clip-89"></g>
                    <path d="M-4.90589695,-7.05318558 L7.65903354,-7.05318558 L7.65903354,20.5418569 L-4.90589695,20.5418569 L-4.90589695,-7.05318558 Z" id="Fill-88" fill="#D8D6D1" sketch:type="MSShapeGroup" mask="url(#mask-60)"></path>
                </g>
                <g id="Group-93" transform="translate(22.998283, 11.528779)">
                    <mask id="mask-62" sketch:name="Clip 92" fill="white">
                        <use xlink:href="#path-61"></use>
                    </mask>
                    <g id="Clip-92"></g>
                    <path d="M-5.28657906,-17.9855019 L64.752877,-17.9855019 L64.752877,13.4364884 L-5.28657906,13.4364884 L-5.28657906,-17.9855019 Z" id="Fill-91" fill="#A4A29B" sketch:type="MSShapeGroup" mask="url(#mask-62)"></path>
                </g>
                <g id="Group-96" transform="translate(29.050463, 11.528779)">
                    <mask id="mask-64" sketch:name="Clip 95" fill="white">
                        <use xlink:href="#path-63"></use>
                    </mask>
                    <g id="Clip-95"></g>
                    <path d="M-4.62870712,-4.6242539 L7.93622338,-4.6242539 L7.93622338,11.4480775 L-4.62870712,11.4480775 L-4.62870712,-4.6242539 Z" id="Fill-94" fill="#C3C3BE" sketch:type="MSShapeGroup" mask="url(#mask-64)"></path>
                </g>
                <g id="Group-99" transform="translate(24.208719, 11.528779)">
                    <mask id="mask-66" sketch:name="Clip 98" fill="white">
                        <use xlink:href="#path-65"></use>
                    </mask>
                    <g id="Clip-98"></g>
                    <path d="M-4.6214445,-4.6242539 L7.943486,-4.6242539 L7.943486,11.4480775 L-4.6214445,11.4480775 L-4.6214445,-4.6242539 Z" id="Fill-97" fill="#C3C3BE" sketch:type="MSShapeGroup" mask="url(#mask-66)"></path>
                </g>
                <g id="Group-102" transform="translate(33.892207, 11.528779)">
                    <mask id="mask-68" sketch:name="Clip 101" fill="white">
                        <use xlink:href="#path-67"></use>
                    </mask>
                    <g id="Clip-101"></g>
                    <path d="M-4.45682521,-4.6242539 L8.10810529,-4.6242539 L8.10810529,11.4480775 L-4.45682521,11.4480775 L-4.45682521,-4.6242539 Z" id="Fill-100" fill="#C3C3BE" sketch:type="MSShapeGroup" mask="url(#mask-68)"></path>
                </g>
                <g id="Group-105" transform="translate(44.180913, 11.528779)">
                    <mask id="mask-70" sketch:name="Clip 104" fill="white">
                        <use xlink:href="#path-69"></use>
                    </mask>
                    <g id="Clip-104"></g>
                    <path d="M-4.58331577,-4.6242539 L7.98161473,-4.6242539 L7.98161473,11.4480775 L-4.58331577,11.4480775 L-4.58331577,-4.6242539 Z" id="Fill-103" fill="#C3C3BE" sketch:type="MSShapeGroup" mask="url(#mask-70)"></path>
                </g>
                <g id="Group-108" transform="translate(39.339169, 11.528779)">
                    <mask id="mask-72" sketch:name="Clip 107" fill="white">
                        <use xlink:href="#path-71"></use>
                    </mask>
                    <g id="Clip-107"></g>
                    <path d="M-4.57665837,-4.6242539 L7.98827213,-4.6242539 L7.98827213,11.4480775 L-4.57665837,11.4480775 L-4.57665837,-4.6242539 Z" id="Fill-106" fill="#C3C3BE" sketch:type="MSShapeGroup" mask="url(#mask-72)"></path>
                </g>
                <g id="Group-111" transform="translate(49.022656, 11.528779)">
                    <mask id="mask-74" sketch:name="Clip 110" fill="white">
                        <use xlink:href="#path-73"></use>
                    </mask>
                    <g id="Clip-110"></g>
                    <path d="M-4.41082864,-4.6242539 L8.15410185,-4.6242539 L8.15410185,11.4480775 L-4.41082864,11.4480775 L-4.41082864,-4.6242539 Z" id="Fill-109" fill="#C3C3BE" sketch:type="MSShapeGroup" mask="url(#mask-74)"></path>
                </g>
                <g id="Group-114" transform="translate(59.311362, 11.528779)">
                    <mask id="mask-76" sketch:name="Clip 113" fill="white">
                        <use xlink:href="#path-75"></use>
                    </mask>
                    <g id="Clip-113"></g>
                    <path d="M-4.53852964,-4.6242539 L8.02640086,-4.6242539 L8.02640086,11.4480775 L-4.53852964,11.4480775 L-4.53852964,-4.6242539 Z" id="Fill-112" fill="#C3C3BE" sketch:type="MSShapeGroup" mask="url(#mask-76)"></path>
                </g>
                <g id="Group-117" transform="translate(54.469618, 11.528779)">
                    <mask id="mask-78" sketch:name="Clip 116" fill="white">
                        <use xlink:href="#path-77"></use>
                    </mask>
                    <g id="Clip-116"></g>
                    <path d="M-4.53126702,-4.6242539 L8.03366347,-4.6242539 L8.03366347,11.4480775 L-4.53126702,11.4480775 L-4.53126702,-4.6242539 Z" id="Fill-115" fill="#C3C3BE" sketch:type="MSShapeGroup" mask="url(#mask-78)"></path>
                </g>
                <g id="Group-120" transform="translate(64.153106, 11.528779)">
                    <mask id="mask-80" sketch:name="Clip 119" fill="white">
                        <use xlink:href="#path-79"></use>
                    </mask>
                    <g id="Clip-119"></g>
                    <path d="M-4.36604251,-4.6242539 L8.19888798,-4.6242539 L8.19888798,11.4480775 L-4.36604251,11.4480775 L-4.36604251,-4.6242539 Z" id="Fill-118" fill="#C3C3BE" sketch:type="MSShapeGroup" mask="url(#mask-80)"></path>
                </g>
                <g id="Group-123" transform="translate(74.441812, 11.528779)">
                    <mask id="mask-82" sketch:name="Clip 122" fill="white">
                        <use xlink:href="#path-81"></use>
                    </mask>
                    <g id="Clip-122"></g>
                    <path d="M-4.49313829,-4.6242539 L8.07179221,-4.6242539 L8.07179221,11.4480775 L-4.49313829,11.4480775 L-4.49313829,-4.6242539 Z" id="Fill-121" fill="#C3C3BE" sketch:type="MSShapeGroup" mask="url(#mask-82)"></path>
                </g>
                <g id="Group-126" transform="translate(69.600068, 11.528779)">
                    <mask id="mask-84" sketch:name="Clip 125" fill="white">
                        <use xlink:href="#path-83"></use>
                    </mask>
                    <g id="Clip-125"></g>
                    <path d="M-4.48587567,-4.6242539 L8.07905482,-4.6242539 L8.07905482,11.4480775 L-4.48587567,11.4480775 L-4.48587567,-4.6242539 Z" id="Fill-124" fill="#C3C3BE" sketch:type="MSShapeGroup" mask="url(#mask-84)"></path>
                </g>
                <g id="Group-129" transform="translate(79.888773, 11.528779)">
                    <mask id="mask-86" sketch:name="Clip 128" fill="white">
                        <use xlink:href="#path-85"></use>
                    </mask>
                    <g id="Clip-128"></g>
                    <path d="M-4.92647436,-4.6242539 L7.49501947,-4.6242539 L7.49501947,11.4480775 L-4.92647436,11.4480775 L-4.92647436,-4.6242539 Z" id="Fill-127" fill="#C3C3BE" sketch:type="MSShapeGroup" mask="url(#mask-86)"></path>
                </g>
                <g id="Group-132" transform="translate(32.681771, 49.755783)">
                    <mask id="mask-88" sketch:name="Clip 131" fill="white">
                        <use xlink:href="#path-87"></use>
                    </mask>
                    <g id="Clip-131"></g>
                    <path d="M-4.93555263,-4.91247337 L9.49284403,-4.91247337 L9.49284403,9.53187305 L-4.93555263,9.53187305 L-4.93555263,-4.91247337 Z" id="Fill-130" fill="#FFFFFE" sketch:type="MSShapeGroup" mask="url(#mask-88)"></path>
                </g>
                <g id="Group-135" transform="translate(75.047030, 49.755783)">
                    <mask id="mask-90" sketch:name="Clip 134" fill="white">
                        <use xlink:href="#path-89"></use>
                    </mask>
                    <g id="Clip-134"></g>
                    <path d="M-4.68075586,-4.91247337 L9.7476408,-4.91247337 L9.7476408,9.53187305 L-4.68075586,9.53187305 L-4.68075586,-4.91247337 Z" id="Fill-133" fill="#FFFFFE" sketch:type="MSShapeGroup" mask="url(#mask-90)"></path>
                </g>
                <g id="Group-150" transform="translate(124.674904, 47.328671)" sketch:type="MSShapeGroup">
                    <path d="M90.2786716,37.103858 C87.0728319,37.103858 84.0782133,37.0607768 81.0878313,37.1566477 C80.7023074,37.16939 80.1073782,37.849588 80.0057015,38.3095256 C79.4573741,40.7785046 79.0258536,43.273575 78.5701245,45.7631845 C78.1519189,48.0470963 77.7542907,50.334042 77.3463737,52.6246283 C82.539144,53.3533685 86.9705501,50.5652243 88.2832679,45.7977708 C89.0464477,43.0254029 89.5790396,40.1893233 90.2786716,37.103858 L90.2786716,37.103858 Z M44.9472396,37.1020377 C46.1740164,42.1747004 47.3233254,46.9761334 48.5137891,51.7666444 C48.6100188,52.1519484 48.9816226,52.7623669 49.2376299,52.7684346 C52.0876013,52.8406412 54.9399937,52.813943 57.7917808,52.813943 L57.7917808,37.1020377 L56.4639325,37.1020377 L44.9472396,37.1020377 Z M29.6237255,37.103858 C30.9963599,42.2123206 32.2975786,47.1429973 33.6883695,52.0481893 C33.7906513,52.4086154 34.5320434,52.786638 34.9926142,52.8090888 C36.8070578,52.8970715 38.6287639,52.846709 40.4474439,52.8473158 C41.9272019,52.8479225 43.4069598,52.8473158 45.0374171,52.8473158 C43.8027724,47.6824228 42.6776722,42.8840237 41.4738936,38.1056482 C41.372217,37.7033545 40.7500529,37.1554341 40.3596873,37.1469392 C36.8500282,37.0723055 33.3373431,37.103858 29.6237255,37.103858 L29.6237255,37.103858 Z M91.1592637,33.192568 C92.4967955,27.241291 93.7974089,21.4550576 95.1143632,15.5960108 L84.160523,15.5960108 C83.077788,21.4605186 82.0053418,27.268596 80.9111076,33.192568 L91.1592637,33.192568 Z M61.7856142,37.1718171 L61.7856142,52.8473158 C65.2057011,52.8473158 68.5319791,52.7781431 71.8528101,52.8800818 C73.2605472,52.923163 73.92084,52.4698999 73.9626,51.0676364 C73.9747044,50.6623088 74.1066419,50.2606218 74.1804785,49.8565078 C74.9478949,45.6606391 75.7141008,41.4647703 76.4990686,37.1718171 L61.7856142,37.1718171 Z M23.8681025,15.5863023 C25.451958,21.5017795 27.0140256,27.3329145 28.5797245,33.1786122 L40.3209533,33.1786122 C38.8980859,27.2382571 37.5066897,21.4289661 36.1074258,15.5863023 L23.8681025,15.5863023 Z M57.773019,33.1913545 L57.773019,15.6069328 L39.8010711,15.6069328 C41.2227281,21.530298 42.6183608,27.3432297 44.0224665,33.1913545 L57.773019,33.1913545 Z M61.7801673,33.1628359 L77.2549858,33.1628359 C78.3346947,27.3256331 79.4095618,21.5133082 80.4898759,15.6712512 L61.7801673,15.6712512 L61.7801673,33.1628359 Z M32.487617,63.9343604 L34.7608158,63.9343604 C51.3449989,63.9343604 67.9297872,63.9343604 84.5139703,63.935574 C85.1016369,63.935574 85.8230568,63.7456525 86.2454989,64.0162754 C86.8555587,64.4070403 87.5551906,65.0981603 87.6393159,65.7377041 C87.7095212,66.2716686 87.0673849,67.0877848 86.523294,67.4573125 C86.05425,67.7764777 85.2789658,67.7006304 84.6386452,67.7012372 C66.9372297,67.7115524 49.235209,67.7121592 31.5337935,67.7066982 C28.6668759,67.7060914 28.1149171,67.0295342 28.528281,64.1782851 C29.0348484,60.6808176 29.5474681,57.1845637 29.9959346,53.679815 C30.0812703,53.0093254 29.9741467,52.2769446 29.7980283,51.61495 C26.0444664,37.513433 22.2739584,23.4161635 18.4937669,9.32192792 C17.65554,6.19702205 16.006321,4.93189026 12.777483,4.90883271 C9.77862796,4.8869887 6.77856243,4.8869887 3.77970733,4.91125982 C2.47788346,4.92218182 1.51740252,4.51321356 1.56400431,3.05209252 C1.60758,1.69776439 2.54506265,1.34522647 3.76336645,1.35614847 C6.99765133,1.38466703 10.2325414,1.3415858 13.4668263,1.37192469 C17.3922702,1.40893814 20.6005307,3.84333082 21.7226048,7.60838731 C22.1396,9.00822378 22.5027308,10.4238365 22.9154894,11.921971 L25.1112203,11.921971 C48.6348327,11.921971 72.1584452,11.921971 95.6826629,11.9225777 C99.1529828,11.9225777 99.5021936,12.3594578 98.7432502,15.7307154 C96.4942602,25.7219193 94.2549537,35.7149435 91.9962802,45.7037203 C90.5007866,52.3169919 85.4883712,56.3720882 78.7365594,56.3811899 C64.328135,56.4012136 49.9197105,56.4060678 35.5112861,56.3593459 C34.0357646,56.3544917 33.2574543,56.6202604 33.1981429,58.3058892 C33.134595,60.1092329 32.7587547,61.9022614 32.487617,63.9343604 L32.487617,63.9343604 Z" id="Fill-136" fill="#FFA536"></path>
                    <path d="M30.1491153,79.4545846 C30.0547013,81.9781736 31.9072735,84.0254421 34.3753524,84.1255604 C36.7956191,84.2232516 38.9187238,82.2281661 38.9889291,79.7907395 C39.0579239,77.3963942 37.1750908,75.3630817 34.7947685,75.261143 C32.1983833,75.1494959 30.2441345,76.913399 30.1491153,79.4545846 M42.5681882,79.5747266 C42.5984491,84.0515335 39.0264526,87.6843124 34.5799161,87.6982683 C30.1006978,87.712831 26.5093343,84.1358756 26.51115,79.6627094 C26.5135709,75.201072 30.1479048,71.5725405 34.5829422,71.604093 C38.9538264,71.6350386 42.5385325,75.2132075 42.5681882,79.5747266" id="Fill-138" fill="#008C8A"></path>
                    <path d="M78.8444698,79.5513657 C78.7887898,82.0531107 80.7133829,84.0882436 83.1741992,84.1301112 C85.597492,84.1713721 87.6788367,82.1283512 87.6933619,79.695172 C87.7072819,77.2899047 85.8050818,75.3245513 83.401156,75.259626 C80.81627,75.1898466 78.9019655,76.9925835 78.8444698,79.5513657 M91.2702002,79.6563382 C91.2653584,84.1246502 87.6643114,87.7131344 83.2002236,87.6985717 C78.7379514,87.6834023 75.1611132,84.0481962 75.2143724,79.580491 C75.2658159,75.177711 78.8051306,71.6389827 83.1905401,71.6043963 C87.6110523,71.56981 91.2750419,75.221399 91.2702002,79.6563382" id="Fill-140" fill="#008C8A"></path>
                    <path d="M90.2810924,37.1165396 C87.0752528,37.1165396 84.0806342,37.0734584 81.0902522,37.1693293 C80.7047283,37.1820717 80.109799,37.8622696 80.0081224,38.3222072 C79.4597949,40.7911862 79.0282745,43.2862567 78.5725454,45.7758662 C78.1543397,48.0597779 77.7567115,50.3467236 77.3487946,52.63731 C82.5415649,53.3660501 86.9729709,50.577906 88.2856887,45.8104525 C89.0488686,43.0380846 89.5814604,40.2020049 90.2810924,37.1165396 L90.2810924,37.1165396 Z M44.9496605,37.1147193 C46.1764373,42.187382 47.3257463,46.9888151 48.5168152,51.7793261 C48.6124397,52.16463 48.9840435,52.7750485 49.2400507,52.7811163 C52.0900222,52.8533229 54.9424145,52.8266246 57.7942017,52.8266246 L57.7942017,37.1147193 L56.4663534,37.1147193 L44.9496605,37.1147193 Z M29.6261464,37.1165396 C30.9987808,42.2250023 32.2999994,47.155679 33.6907904,52.0614778 C33.7930722,52.421297 34.5344642,52.7993196 34.9950351,52.8217704 C36.8094786,52.9097532 38.6311847,52.8593906 40.4498648,52.8599974 C41.9296227,52.8606042 43.4093807,52.8599974 45.0398379,52.8599974 C43.8051933,47.6957112 42.680093,42.8967053 41.4763145,38.1183299 C41.3746378,37.7160361 40.7524738,37.1681158 40.3621082,37.1596209 C36.8524491,37.0849872 33.3397639,37.1165396 29.6261464,37.1165396 L29.6261464,37.1165396 Z M91.1616846,33.2052497 C92.4992163,27.2539727 93.7998298,21.4677392 95.1167841,15.6086924 L84.1629439,15.6086924 C83.0802089,21.4732002 82.0077626,27.2812777 80.9135285,33.2052497 L91.1616846,33.2052497 Z M61.7880351,37.1844988 L61.7880351,52.8599974 C65.2081219,52.8599974 68.5343999,52.7908247 71.855231,52.8927634 C73.262968,52.9358446 73.9232608,52.4825816 73.9650209,51.080318 C73.9771252,50.6749904 74.1090628,50.2733035 74.1828994,49.8691895 C74.9503158,45.6733207 75.7171269,41.477452 76.5014894,37.1844988 L61.7880351,37.1844988 Z M23.8705234,15.598984 C25.4549841,21.5144611 27.0164465,27.3455961 28.5821454,33.1912938 L40.3233742,33.1912938 C38.9005067,27.2509388 37.5091106,21.4416478 36.1098466,15.598984 L23.8705234,15.598984 Z M57.7754399,33.2040361 L57.7754399,15.6196144 L39.803492,15.6196144 C41.225149,21.5429797 42.6207817,27.3559114 44.0248874,33.2040361 L57.7754399,33.2040361 Z M61.7825882,33.1755176 L77.2574067,33.1755176 C78.3371156,27.3383148 79.4119827,21.5259899 80.4922968,15.6839329 L61.7825882,15.6839329 L61.7825882,33.1755176 Z" id="Fill-142" fill="#EED08E"></path>
                    <path d="M30.1515361,79.4673269 C30.0571221,81.990916 31.9096944,84.0381844 34.3777733,84.1383027 C36.79804,84.235994 38.9211447,82.2409084 38.99135,79.8034819 C39.0603448,77.4091365 37.1775117,75.375824 34.7971894,75.2738853 C32.2008042,75.1622382 30.2465554,76.9261414 30.1515361,79.4673269" id="Fill-144" fill="#5CC0BE"></path>
                    <path d="M78.8469512,79.5640473 C78.7912711,82.0657924 80.7158643,84.1009252 83.1766806,84.1427929 C85.5999734,84.1840538 87.6813181,82.1410328 87.6952381,79.7078537 C87.7097633,77.3031931 85.8075632,75.3372329 83.4036374,75.2723077 C80.8187514,75.2025282 78.9044469,77.0052652 78.8469512,79.5640473" id="Fill-146" fill="#5CC0BE"></path>
                    <path d="M9.5055536,6.2061844 L2.96133158,6.2061844 C1.41621007,6.2061844 0.151909713,4.9386255 0.151909713,3.38952168 L0.151909713,3.06125487 C0.151909713,1.51154427 1.41621007,0.243985368 2.96133158,0.243985368 L9.5055536,0.243985368 C11.0506751,0.243985368 12.3149755,1.51154427 12.3149755,3.06125487 L12.3149755,3.38952168 C12.3149755,4.9386255 11.0506751,6.2061844 9.5055536,6.2061844" id="Fill-148" fill="#008C8A"></path>
                </g>
            </g>
        </g>
    </g>
</svg>