<svg xmlns="http://www.w3.org/2000/svg" width="13" height="13" viewBox="0 0 13 13"><path fill="#929497" d="M6.5 0c.7 0 .8 3.8 0 3.8s-.7-3.8 0-3.8zm0 9.1c.7 0 .8 3.8 0 3.8s-.7-3.8 0-3.8z"/><path fill="#D1D2D3" d="M12.9 6.5c0 .7-3.8.8-3.8 0s3.8-.7 3.8 0z"/><path fill="#929497" d="M3.8 6.5c0 .7-3.8.8-3.8 0s3.8-.7 3.8 0z"/><path fill="#BBBDBF" d="M12.1 9.7c-.4.6-3.7-1.3-3.3-1.9.3-.7 3.6 1.3 3.3 1.9z"/><path fill="#929497" d="M4.2 5.1c-.4.7-3.7-1.2-3.3-1.9s3.7 1.3 3.3 1.9z"/><path fill="#A6A8AC" d="M9.7 12.1c-.6.4-2.6-2.9-1.9-3.3.7-.5 2.5 2.9 1.9 3.3z"/><path fill="#929497" d="M5.1 4.2c-.6.4-2.5-2.9-1.9-3.3s2.6 2.9 1.9 3.3zm-1.9 7.9c-.6-.4 1.3-3.7 1.9-3.3.7.3-1.3 3.6-1.9 3.3z"/><path fill="#F2F2F2" d="M7.8 4.2c-.7-.4 1.2-3.7 1.9-3.3s-1.3 3.7-1.9 3.3z"/><path fill="#929497" d="M.9 9.7c-.4-.6 2.9-2.6 3.3-1.9.4.7-3 2.5-3.3 1.9z"/><path fill="#E7E7E7" d="M8.7 5.1c-.4-.6 2.9-2.6 3.3-1.9.5.7-2.9 2.6-3.3 1.9z"/></svg>