<?xml version="1.0" encoding="utf-8"?>
<!-- Generator: Adobe Illustrator 18.0.0, SVG Export Plug-In . SVG Version: 6.00 Build 0)  -->
<!DOCTYPE svg PUBLIC "-//W3C//DTD SVG 1.1//EN" "http://www.w3.org/Graphics/SVG/1.1/DTD/svg11.dtd">
<svg version="1.1" id="Layer_1" xmlns="http://www.w3.org/2000/svg" xmlns:xlink="http://www.w3.org/1999/xlink" x="0px" y="0px"
	 width="13px" height="12px" viewBox="0 0 13 12" style="enable-background:new 0 0 13 12;" xml:space="preserve">
<g>
	<path style="fill:#FFFFFF;" d="M6.5,11.2744c-1.0869-1.1436-4.2412-4.4585-4.8408-5.0596C1.0986,5.6548,0.5,4.6479,0.5,3.5024
		C0.5,1.8467,1.811,0.5,3.4224,0.5c1.5654,0,2.6704,1.4028,2.6816,1.417l0.395,0.5103L6.896,1.917
		C6.9072,1.9028,8.0117,0.5,9.5781,0.5C11.1895,0.5,12.5,1.8467,12.5,3.5024c0,1.1455-0.5986,2.1523-1.1582,2.7124
		C10.7412,6.8159,7.5869,10.1309,6.5,11.2744z"/>
	<path style="fill:#FDB931;" d="M9.5777,1C10.936,1,12,2.0992,12,3.5024c0,0.9922-0.5231,1.8694-1.0124,2.3592
		C10.4407,6.4088,7.8027,9.1789,6.5,10.5486c-1.3028-1.3697-3.9409-4.1397-4.4876-4.687C1.523,5.3719,1,4.495,1,3.5024
		C1,2.0992,2.064,1,3.4223,1C4.7335,1,5.7,2.2123,5.7061,2.2201L6.5,3.2565l0.7939-1.0364C7.3032,2.2079,8.2651,1,9.5777,1
		 M9.5777,0C7.7347,0,6.5,1.612,6.5,1.612S5.2652,0,3.4223,0C1.4796,0,0,1.6003,0,3.5024c0,1.2199,0.5888,2.3494,1.3051,3.0662
		C2.0211,7.2853,6.5,12,6.5,12s4.4785-4.7147,5.1949-5.4315C12.4109,5.8518,13,4.7223,13,3.5024C13,1.6003,11.52,0,9.5777,0
		L9.5777,0z"/>
</g>
</svg>
