<?xml version="1.0" encoding="utf-8"?>
<!-- Generator: Adobe Illustrator 18.0.0, SVG Export Plug-In . SVG Version: 6.00 Build 0)  -->
<!DOCTYPE svg PUBLIC "-//W3C//DTD SVG 1.1//EN" "http://www.w3.org/Graphics/SVG/1.1/DTD/svg11.dtd">
<svg version="1.1" id="Layer_1" xmlns="http://www.w3.org/2000/svg" xmlns:xlink="http://www.w3.org/1999/xlink" x="0px" y="0px"
	 width="38px" height="38px" viewBox="0 0 38 38" style="enable-background:new 0 0 38 38;" xml:space="preserve">
<circle style="fill:#FFFFFF;" cx="19" cy="19" r="19"/>
<g>
	<path style="fill:#FDB931;" d="M19,28.702l-0.351-0.346c0,0-6.893-6.795-7.995-7.897C9.305,19.109,8.5,17.214,8.5,15.388
		c0-3.247,2.586-5.888,5.765-5.888c2.297,0,4,1.459,4.735,2.224c0.735-0.765,2.438-2.224,4.735-2.224
		c3.179,0,5.765,2.642,5.765,5.888c0,1.825-0.806,3.721-2.154,5.071c-1.103,1.103-7.995,7.897-7.995,7.897L19,28.702z M14.265,10.5
		c-2.627,0-4.765,2.193-4.765,4.888c0,1.566,0.696,3.198,1.861,4.364c0.952,0.952,6.222,6.148,7.639,7.546
		c1.417-1.397,6.687-6.594,7.639-7.546c1.165-1.167,1.861-2.798,1.861-4.364c0-2.695-2.138-4.888-4.765-4.888
		c-2.56,0-4.321,2.261-4.338,2.284L19.001,13.3l-0.398-0.516C18.586,12.762,16.812,10.5,14.265,10.5z"/>
</g>
</svg>
