<?xml version="1.0" encoding="UTF-8" standalone="no"?>
<svg width="4px" height="16px" viewBox="0 0 4 16" version="1.1" xmlns="http://www.w3.org/2000/svg" xmlns:xlink="http://www.w3.org/1999/xlink">
    <!-- Generator: Sketch 3.6.1 (26313) - http://www.bohemiancoding.com/sketch -->
    <title>ellipsis-menu</title>
    <desc>Created with Sketch.</desc>
    <defs></defs>
    <g id="Mensagens-2.0" stroke="none" stroke-width="1" fill="none" fill-rule="evenodd">
        <g id="marcar-lidas" transform="translate(-964.000000, -130.000000)" fill="#BCBAB7">
            <g id="ellipsis-menu" transform="translate(964.000000, 130.000000)">
                <path d="M6.33126059e-05,1.95160471 C0.00183606557,0.91116549 0.863837196,0.0594635294 1.91159751,0.0627262745 C2.9577117,0.0659890196 3.8124952,0.923212549 3.809013,1.96540863 C3.80553081,3.01689098 2.96562578,3.84117333 1.89823855,3.84060863 C0.837309214,3.84004392 -0.00177275297,3.0050949 6.33126059e-05,1.95160471" id="Fill-1"></path>
                <path d="M1.89615422e-13,14.0819388 C0.00151950254,13.0289506 0.844146976,12.1981427 1.90691238,12.2017192 C2.97562917,12.2053584 3.80875975,13.0304565 3.80894969,14.0855153 C3.80913963,15.1264565 2.94802487,15.9820486 1.90267044,15.9795388 C0.856302996,15.977029 -0.00151950254,15.1214996 1.89615422e-13,14.0819388" id="Fill-4"></path>
                <path d="M3.8086078,8.03008627 C3.80455579,9.07861961 2.95363437,9.91388235 1.89530085,9.90817255 C0.834308197,9.90246275 -0.00540689655,9.06236863 0.000291237988,8.01220392 C0.00592605992,6.96065882 0.851339288,6.13060392 1.91347157,6.13386667 C2.9708554,6.13706667 3.81265981,6.97935686 3.8086078,8.03008627" id="Fill-7"></path>
            </g>
        </g>
    </g>
</svg>