<?xml version="1.0" encoding="utf-8"?>
<!-- Generator: Adobe Illustrator 18.0.0, SVG Export Plug-In . SVG Version: 6.00 Build 0)  -->
<!DOCTYPE svg PUBLIC "-//W3C//DTD SVG 1.1//EN" "http://www.w3.org/Graphics/SVG/1.1/DTD/svg11.dtd">
<svg version="1.1" id="Layer_1" xmlns="http://www.w3.org/2000/svg" xmlns:xlink="http://www.w3.org/1999/xlink" x="0px" y="0px"
	 width="20px" height="16px" viewBox="0 0 20 16" style="enable-background:new 0 0 20 16;" xml:space="preserve">
<g>
	<path style="fill:#F8A91B;" d="M20,1.7857v12.4284c0,0.4911-0.1749,0.9115-0.5246,1.2612
		c-0.3497,0.3497-0.7701,0.5246-1.2612,0.5246H1.7857c-0.4911,0-0.9115-0.1749-1.2612-0.5246C0.1749,15.1256,0,14.7052,0,14.2141
		V1.7857c0-0.4911,0.1749-0.9115,0.5246-1.2612S1.2946,0,1.7857,0h16.4286c0.4911,0,0.9115,0.1749,1.2612,0.5246
		S20,1.2946,20,1.7857z"/>
	<g>
		<path style="fill:#FFFFFF;" d="M18.5714,14.2141v-8.857c-0.2381,0.2679-0.4948,0.5134-0.7701,0.7366
			c-1.994,1.5327-3.5789,2.7902-4.7545,3.7723c-0.3795,0.3199-0.6882,0.5692-0.9263,0.7478
			c-0.2381,0.1786-0.5599,0.359-0.9654,0.5413c-0.4055,0.1823-0.7868,0.2734-1.144,0.2734H10H9.9888
			c-0.3571,0-0.7385-0.0911-1.144-0.2734c-0.4055-0.1823-0.7273-0.3627-0.9654-0.5413c-0.2381-0.1786-0.5469-0.4278-0.9263-0.7478
			C5.7775,8.8839,4.1927,7.6265,2.1987,6.0938C1.9234,5.8705,1.6667,5.625,1.4286,5.3571v8.857c0,0.0967,0.0353,0.1804,0.106,0.2511
			s0.1544,0.106,0.2511,0.106h16.4286c0.0967,0,0.1804-0.0353,0.2511-0.106C18.5361,14.3946,18.5714,14.3109,18.5714,14.2141z"/>
		<path style="fill:#FFFFFF;" d="M18.5714,2.1987V1.9252c0,0-0.0019-0.0484-0.0056-0.1451
			c-0.0037-0.0967-0.0149-0.1432-0.0335-0.1395s-0.0391-0.0298-0.0614-0.1004c-0.0223-0.0707-0.1972-0.0781-0.2567-0.1116H1.7857
			c-0.0967,0-0.1804,0.0353-0.2511,0.106c-0.0707,0.0707-0.106,0.1544-0.106,0.2511c0,1.25,0.5469,2.3065,1.6406,3.1696
			c1.436,1.131,2.9278,2.3103,4.4754,3.5379c0.0446,0.0372,0.1749,0.1469,0.3906,0.3292C8.151,9.0048,8.3222,9.1443,8.4487,9.2411
			c0.1265,0.0967,0.292,0.2139,0.4967,0.3516c0.2046,0.1376,0.3925,0.24,0.5636,0.3069C9.6801,9.9665,9.84,10,9.9888,10H10h0.0112
			c0.1488,0,0.3088-0.0335,0.4799-0.1004c0.1711-0.067,0.359-0.1693,0.5636-0.3069c0.2046-0.1376,0.3702-0.2548,0.4967-0.3516
			c0.1265-0.0967,0.2976-0.2362,0.5134-0.4185c0.2158-0.1823,0.346-0.292,0.3906-0.3292c1.5476-1.2277,3.0394-2.407,4.4754-3.5379
			c0.4018-0.3199,0.7757-0.7496,1.1217-1.2891C18.3984,3.1269,18.5714,2.6376,18.5714,2.1987z"/>
	</g>
</g>
</svg>
