<svg width="100" height="100" viewBox="0 0 100 100" xmlns="http://www.w3.org/2000/svg"><title>ic-funcionalidades</title><g fill="#95918D" fill-rule="evenodd"><path d="M45.76 67.93c.03-.19.075-.334.074-.48-.03-5.855-3.925-11.22-9.506-13.097-1.335-.45-1.467-.623-1.47-2.024-.003-2.685.002-5.37-.002-8.053 0-.32-.033-.642-.05-.958h-4.074c0 3.105-.02 6.153.01 9.2.01.93-.37 1.474-1.23 1.79-3.993 1.465-6.727 4.28-8.52 8.067-.824 1.74-1.25 3.58-1.222 5.554h25.99zM27.99 43.26c-.39 0-.69.007-.988 0-1.172-.032-1.77-.513-1.753-1.403.016-.85.608-1.317 1.727-1.33 1.278-.01 2.557-.002 3.835-.002 2.498 0 4.996-.002 7.494.003.334 0 .764-.083.98.087.412.323.886.757.997 1.225.15.626-.238 1.198-.95 1.332-.53.1-1.078.103-1.737.16v3.38c0 1.524.035 3.05-.017 4.573-.023.65.27.86.804 1.1 5.682 2.55 9.16 6.89 10.05 13.06 1.094 7.602-3.955 15.01-11.407 17.057-8.98 2.466-18.175-3.257-19.79-12.41-.868-4.91.706-9.194 3.838-12.952 1.738-2.086 3.866-3.687 6.348-4.813.23-.105.54-.382.544-.583.036-2.795.024-5.592.024-8.484zM57.03 67.915h16.05c-.198-.416-.345-.74-.504-1.06-1.398-2.803-2.83-5.59-4.176-8.417-.34-.712-.548-1.553-.565-2.34-.064-3.02-.025-6.04-.028-9.06 0-.322-.03-.644-.047-.964h-5.45v1.055c0 2.988.038 5.98-.027 8.967-.017.787-.23 1.626-.565 2.34-1.18 2.504-2.453 4.962-3.688 7.438-.322.645-.635 1.295-1 2.04m2.54-21.91c-.496 0-.857.015-1.216-.004-.955-.05-1.508-.548-1.516-1.35-.008-.803.548-1.323 1.49-1.374.334-.018.67-.005 1.005-.005 3.934 0 7.867 0 11.8.002.305 0 .612-.002.914.028.8.078 1.21.574 1.218 1.336.008.774-.43 1.252-1.218 1.337-.45.048-.905.05-1.445.075-.02.322-.052.615-.053.908-.005 2.988-.02 5.976.013 8.964.006.494.143 1.028.363 1.472 3.83 7.702 7.683 15.394 11.53 23.088.082.163.17.324.244.49.523 1.167-.053 2.09-1.35 2.1-2.715.018-5.43.006-8.142.006h-24.06c-1.833 0-2.358-.856-1.534-2.505 3.86-7.72 7.73-15.438 11.57-23.17.233-.468.364-1.036.37-1.56.035-2.927.017-5.854.017-8.782v-1.054M63.713 25.417c.76-.015 1.358-.655 1.33-1.424-.027-.78-.658-1.362-1.43-1.323-.733.038-1.29.633-1.29 1.376.002.766.632 1.387 1.39 1.37m-.108 2.743c-2.248-.035-4.087-1.96-4.03-4.22.057-2.263 1.958-4.062 4.236-4.01 2.207.05 4.026 1.953 3.986 4.17-.042 2.275-1.92 4.094-4.19 4.06M37.588 21.286c-.006-.778-.62-1.378-1.395-1.36-.77.015-1.354.645-1.323 1.426.028.735.617 1.313 1.345 1.32.76.007 1.38-.62 1.373-1.386m-1.39 4.127c-2.257-.012-4.12-1.914-4.08-4.168.038-2.277 1.908-4.093 4.182-4.062 2.216.03 4.042 1.894 4.038 4.12-.004 2.263-1.878 4.123-4.14 4.11M58.194 32.247c-.02-.76-.67-1.37-1.428-1.34-.756.032-1.36.698-1.316 1.45.042.72.662 1.304 1.38 1.298.756-.005 1.384-.653 1.364-1.408m2.742.102c-.016 2.19-1.916 4.062-4.108 4.046-2.265-.016-4.118-1.875-4.122-4.134-.003-2.236 1.903-4.115 4.156-4.094 2.246.02 4.09 1.913 4.074 4.18M33.48 33.666c.01-.77-.598-1.376-1.382-1.378-.77-.002-1.38.624-1.363 1.395.016.724.607 1.313 1.337 1.332.766.02 1.402-.59 1.41-1.35m-5.49-.027c.003-2.256 1.893-4.12 4.152-4.094 2.235.025 4.066 1.856 4.08 4.077.013 2.263-1.846 4.14-4.11 4.145-2.26.006-4.123-1.86-4.12-4.127M67.757 35.035c-.764.02-1.365.668-1.325 1.432.037.72.648 1.298 1.374 1.297.764 0 1.387-.633 1.372-1.39-.015-.768-.642-1.358-1.42-1.34m4.162 1.355c.004 2.26-1.874 4.133-4.13 4.12-2.27-.01-4.11-1.876-4.1-4.15.01-2.214 1.848-4.047 4.082-4.07 2.26-.024 4.144 1.838 4.148 4.1M45.8 29.51c.778.02 1.406-.577 1.41-1.34.006-.77-.6-1.372-1.383-1.373-.732-.002-1.324.565-1.363 1.302-.04.76.56 1.39 1.337 1.41m.063 2.75c-2.26.02-4.135-1.84-4.14-4.1-.007-2.253 1.874-4.122 4.133-4.108 2.23.014 4.08 1.844 4.097 4.054.018 2.26-1.83 4.137-4.09 4.155"/></g></svg>