<?xml version="1.0" encoding="utf-8"?>
<!-- Generator: Adobe Illustrator 18.0.0, SVG Export Plug-In . SVG Version: 6.00 Build 0)  -->
<!DOCTYPE svg PUBLIC "-//W3C//DTD SVG 1.1//EN" "http://www.w3.org/Graphics/SVG/1.1/DTD/svg11.dtd">
<svg version="1.1" id="Layer_1" xmlns="http://www.w3.org/2000/svg" xmlns:xlink="http://www.w3.org/1999/xlink" x="0px" y="0px"
	 width="16px" height="15.8px" viewBox="0 0 16 15.8" style="enable-background:new 0 0 16 15.8;" xml:space="preserve">
<g>
	<path style="fill:#228B8B;" d="M9.3,0c0,0,0,0.1,0,0.1c0,0.5,0,1,0,1.5c0,0.1,0,0.1,0.1,0.1c2.1,0,4.3,0,6.4,0c0,0,0.1,0,0.1,0
		c0,0,0,0.1,0,0.1c0,4.2,0,8.3,0,12.5c0,0.1,0,0.1-0.1,0.1c-2.1,0-4.2,0-6.4,0c0,0-0.1,0-0.1,0c-0.1,0-0.1,0-0.1,0.1
		c0,0.4,0,0.8,0,1.3c0,0,0,0.1,0,0.1c-0.2,0-0.3-0.1-0.5-0.1c-1-0.2-2.1-0.4-3.1-0.5c-1.7-0.3-3.3-0.6-5-0.9c-0.2,0-0.4-0.1-0.6-0.1
		c-0.1,0-0.1,0-0.1-0.1c0,0,0,0,0-0.1C0,10,0,5.9,0,1.7c0-0.1,0-0.1,0.1-0.2c1.4-0.2,2.7-0.5,4.1-0.7c1.5-0.3,2.9-0.5,4.4-0.8
		C8.8,0.1,9.1,0,9.3,0z M10.5,11.3C10.5,11.3,10.5,11.3,10.5,11.3c0,0.4,0,0.7,0,1c0,0.1,0,0.1-0.1,0.1c-0.3,0-0.7,0-1,0
		c-0.1,0-0.1,0-0.1,0.1c0,0.3,0,0.7,0,1c0,0.1,0,0.1,0.1,0.1c1.9,0,3.7,0,5.6,0c0.1,0,0.1,0,0.1-0.1c0-3.6,0-7.2,0-10.8
		c0,0,0-0.1,0-0.1c-1.9,0-3.9,0-5.8,0c0,0.4,0,0.8,0,1.1c0,0,0.1,0,0.1,0c0.3,0,0.6,0,1,0c0.1,0,0.1,0,0.1,0.1c0,0.3,0,0.6,0,0.9
		c0,0,0,0.1,0,0.1c0,0-0.1,0-0.1,0c-0.3,0-0.6,0-1,0c-0.1,0-0.1,0-0.1,0.1c0,0.2,0,0.4,0,0.6c0,0.1,0,0.1,0.1,0.1c0.3,0,0.6,0,1,0
		c0.1,0,0.1,0,0.1,0.1c0,0.3,0,0.6,0,0.9c0,0,0,0.1,0,0.1c-0.4,0-0.8,0-1.2,0c0,0,0,0.1,0,0.1c0,0.2,0,0.4,0,0.6
		c0,0.1,0,0.1,0.1,0.1c0.3,0,0.6,0,1,0c0,0,0.1,0,0.1,0c0,0.4,0,0.7,0,1.1c0,0-0.1,0-0.1,0c-0.3,0-0.7,0-1,0c-0.1,0-0.1,0-0.1,0.1
		c0,0.2,0,0.4,0,0.6c0,0,0,0.1,0,0.1c0,0,0.1,0,0.1,0c0.3,0,0.6,0,1,0c0.1,0,0.1,0,0.1,0.1c0,0.3,0,0.6,0,0.9c0,0.1,0,0.1-0.1,0.1
		c-0.3,0-0.7,0-1,0c-0.1,0-0.1,0-0.1,0.1c0,0.2,0,0.4,0,0.6c0,0.1,0,0.1,0.1,0.1C9.7,11.3,10.1,11.3,10.5,11.3
		C10.4,11.3,10.5,11.3,10.5,11.3z M6.8,11c0,0,0-0.1-0.1-0.1c-0.5-1-1-2-1.6-3c0-0.1,0-0.1,0-0.2c0.5-0.9,1-1.8,1.5-2.8
		c0,0,0-0.1,0-0.1c0,0,0,0-0.1,0c-0.4,0-0.9,0-1.3,0.1c0,0-0.1,0-0.1,0.1C5,5.5,4.8,6.1,4.5,6.7c0,0.1-0.1,0.1-0.1,0.2
		c0,0,0-0.1,0-0.1C4.2,6.2,3.9,5.6,3.6,5c0,0,0-0.1-0.1-0.1c-0.3,0-0.7,0-1,0C2.5,5,2.4,5,2.3,5c0,0,0,0.1,0,0.1
		c0.4,0.9,0.8,1.7,1.3,2.6c0,0.1,0,0.1,0,0.2c-0.4,0.8-0.8,1.5-1.2,2.3c-0.1,0.1-0.1,0.2-0.2,0.3c0,0,0,0,0,0c0.4,0,0.8,0.1,1.2,0.1
		c0,0,0.1,0,0.1-0.1c0.3-0.6,0.5-1.2,0.8-1.8c0,0,0,0,0-0.1c0,0,0,0,0,0.1c0.3,0.7,0.6,1.4,0.9,2c0,0.1,0.1,0.1,0.1,0.1
		c0.4,0,0.8,0.1,1.1,0.1C6.6,10.9,6.7,10.9,6.8,11z"/>
	<path style="fill:#228B8B;" d="M11.3,3.7c0.9,0,1.8,0,2.6,0c0,0.4,0,0.7,0,1.1c-0.9,0-1.8,0-2.6,0C11.3,4.5,11.3,4.1,11.3,3.7z"/>
	<path style="fill:#228B8B;" d="M11.3,10.5c0-0.4,0-0.7,0-1.1c0.9,0,1.8,0,2.6,0c0,0,0,0,0,0.1c0,0.3,0,0.6,0,0.9
		c0,0.1,0,0.1-0.1,0.1C13,10.5,12.2,10.5,11.3,10.5C11.3,10.5,11.3,10.5,11.3,10.5z"/>
	<path style="fill:#228B8B;" d="M14,11.3c0,0.1,0,0.2,0,0.3c0,0.2,0,0.5,0,0.7c0,0.1,0,0.1-0.1,0.1c-0.8,0-1.7,0-2.5,0c0,0,0,0,0,0
		c0-0.4,0-0.7,0-1.1C12.2,11.3,13.1,11.3,14,11.3z"/>
	<path style="fill:#228B8B;" d="M11.3,6.7c0-0.4,0-0.7,0-1c0,0,0,0,0.1-0.1c0,0,0,0,0.1,0c0.8,0,1.6,0,2.4,0c0.1,0,0.1,0,0.1,0.1
		c0,0.3,0,0.6,0,0.9c0,0,0,0.1,0,0.1C13.1,6.7,12.2,6.7,11.3,6.7z"/>
	<path style="fill:#228B8B;" d="M11.3,8.6c0-0.4,0-0.7,0-1.1c0.9,0,1.8,0,2.6,0c0,0.4,0,0.7,0,1.1C13.1,8.6,12.2,8.6,11.3,8.6z"/>
</g>
</svg>
