<?xml version="1.0" encoding="UTF-8" standalone="no"?>
<svg width="20px" height="20px" viewBox="0 0 20 20" version="1.1" xmlns="http://www.w3.org/2000/svg" xmlns:xlink="http://www.w3.org/1999/xlink">
    <!-- Generator: Sketch 3.8.3 (29802) - http://www.bohemiancoding.com/sketch -->
    <title>icone_facebook</title>
    <desc>Created with Sketch.</desc>
    <defs></defs>
    <g id="Page-1" stroke="none" stroke-width="1" fill="none" fill-rule="evenodd">
        <g id="modal-add-avatar" transform="translate(-417.000000, -537.000000)">
            <g id="modal" transform="translate(245.000000, 65.000000)">
                <g id="botoes" transform="translate(167.000000, 411.000000)">
                    <g id="link-foto-facebook" transform="translate(5.000000, 61.000000)">
                        <g id="icone_facebook">
                            <path d="M20,18.6647619 C20,19.1333333 19.6,19.5238095 19.12,19.5238095 L0.88,19.5238095 C0.4,19.5238095 0,19.1333333 0,18.6647619 L0,0.859047619 C0,0.39047619 0.4,0 0.88,0 L18.96,0 C19.6,0 20,0.39047619 20,0.859047619 L20,18.6647619 L20,18.6647619 Z" id="Shape" fill="#3C569F"></path>
                            <path d="M16.3,6.27391771 L16.3,3.62738802 C15.6873874,3.62738802 14.9216216,3.62738802 13.9261261,3.55177289 C10.1738739,3.47615775 10.4036036,7.25691446 10.4036036,7.25691446 L10.4036036,9.44975335 L7.8,9.44975335 L7.8,12.3231284 L10.4036036,12.3231284 L10.4036036,19.6577965 L13.3900901,19.6577965 L13.3900901,12.3231284 L15.8405405,12.3231284 L16.2234234,9.44975335 L13.3900901,9.44975335 L13.3900901,7.63499013 C13.3135135,6.19830258 14.845045,6.34953285 14.7684685,6.27391771 L16.3,6.27391771 Z" id="Shape" fill="#FFFFFF"></path>
                        </g>
                    </g>
                </g>
            </g>
        </g>
    </g>
</svg>