<svg xmlns="http://www.w3.org/2000/svg" width="25" height="22" viewBox="0 0 25 22"><path fill="#253B80" d="M15.8 1.7c-1-1.2-2.8-1.7-5.2-1.7h-6.8c-.5 0-.9.4-1 .8l-2.8 18.1c0 .4.2.7.6.7h4.2l1.1-6.7v.2c.1-.5.5-.8 1-.8h2c3.9 0 7-1.6 7.9-6.2l.1-.4c.1-1.8-.1-3-1.1-4m0 0c-1-1.2-2.8-1.7-5.2-1.7h-6.8c-.5 0-.9.4-1 .8l-2.8 18.1c0 .4.2.7.6.7h4.2l1.1-6.7v.2c.1-.5.5-.8 1-.8h2c3.9 0 7-1.6 7.9-6.2l.1-.4c.1-1.8-.1-3-1.1-4"/><path fill="#253B80" d="M7 5.6c0-.3.2-.5.5-.6.1 0 .2-.1.4-.1h5.4c.6 0 1.2 0 1.8.1.2 0 .3 0 .4.1l.4.1h.2c.3.1.5.2.7.3.3-1.7 0-2.9-.9-3.9-1.1-1.1-2.9-1.6-5.3-1.6h-6.8c-.5 0-.9.4-1 .8l-2.8 18.1c0 .4.2.7.6.7h4.2l1.1-6.7c-.1-.1 1.1-7.3 1.1-7.3z"/><path fill="#179BD7" d="M16.8 5.6c0 .1 0 .3-.1.4-.9 4.6-3.9 6.2-7.9 6.2h-2c-.5 0-.9.4-1 .8l-1 6.5-.3 1.8c-.1.4.2.7.5.7h3.6c.4 0 .8-.3.8-.7v-.2l.7-4.3v-.2c0-.4.4-.7.8-.7h.5c3.4 0 6.1-1.4 6.9-5.5.3-1.7.2-3.1-.7-4.1-.1-.3-.4-.5-.8-.7"/><path fill="#222D65" d="M15.8 5.2l-.4-.1-.5-.1c-.5-.1-1.1-.1-1.8-.1h-5.3c-.1 0-.3 0-.4.1-.2.1-.4.3-.4.6l-1.1 7.2v.2c.1-.5.5-.8 1-.8h2c3.9 0 7-1.6 7.9-6.2l.1-.4-.7-.3c-.2-.1-.3-.1-.4-.1"/></svg>