<?xml version="1.0" encoding="utf-8"?>
<!-- Generator: Adobe Illustrator 19.0.0, SVG Export Plug-In . SVG Version: 6.00 Build 0)  -->
<svg version="1.1" id="Layer_1" xmlns="http://www.w3.org/2000/svg" xmlns:xlink="http://www.w3.org/1999/xlink" x="0px" y="0px"
	 width="38.2px" height="38.8px" viewBox="0 0 38.2 38.8" style="enable-background:new 0 0 38.2 38.8;" xml:space="preserve">
<style type="text/css">
	.st0{fill-rule:evenodd;clip-rule:evenodd;fill:none;}
	.st1{clip-path:url(#XMLID_10_);fill:#FDB931;}
	.st2{clip-path:url(#XMLID_51_);fill:#FFFFFF;}
	.st3{clip-path:url(#XMLID_111_);fill:#FFFFFF;}
</style>
<rect id="XMLID_7_" x="-210.3" y="-184.5" class="st0" width="1323" height="859"/>
<rect id="XMLID_3_" x="-210.3" y="-184.5" class="st0" width="1323" height="859"/>
<rect id="XMLID_56_" x="-203.7" y="-184.6" class="st0" width="1323" height="859"/>
<rect id="XMLID_13_" x="-203.7" y="-184.6" class="st0" width="1323" height="859"/>
<rect id="XMLID_9_" x="-203.7" y="-184.6" class="st0" width="1323" height="859"/>
<g id="XMLID_113_">
	<defs>
		<path id="XMLID_114_" d="M19,0c10.5,0,19,8.5,19,19c0,10.5-8.5,19-19,19S0,29.5,0,19C0,8.5,8.5,0,19,0"/>
	</defs>
	<clipPath id="XMLID_10_">
		<use xlink:href="#XMLID_114_"  style="overflow:visible;"/>
	</clipPath>
	<rect id="XMLID_115_" x="-5" y="-5" class="st1" width="48" height="48"/>
</g>
<rect id="XMLID_112_" x="-207.3" y="-184.5" class="st0" width="1323" height="859"/>
<g id="XMLID_53_">
	<defs>
		<path id="XMLID_54_" d="M15.8,23.7h-3.6c-0.1,0-0.2,0.3-0.2,0.7c0,0.4,0.1,0.7,0.2,0.7h3.6c0.1,0,0.2-0.3,0.2-0.7
			C16,24.1,15.9,23.7,15.8,23.7z M23.4,17.7H12.6c-0.3,0-0.6,0.3-0.6,0.7c0,0.4,0.3,0.7,0.6,0.7h10.8c0.3,0,0.6-0.3,0.6-0.7
			C24,18.1,23.7,17.7,23.4,17.7z M12.7,13.2h13.5c0.4,0,0.8-0.3,0.8-0.7c0-0.4-0.3-0.7-0.8-0.7H12.7c-0.4,0-0.7,0.3-0.7,0.7
			C12,12.9,12.3,13.2,12.7,13.2z"/>
	</defs>
	<clipPath id="XMLID_51_">
		<use xlink:href="#XMLID_54_"  style="overflow:visible;"/>
	</clipPath>
	<rect id="XMLID_59_" x="7" y="6.7" class="st2" width="25" height="23.5"/>
</g>
<rect id="XMLID_52_" x="-207.3" y="-184.5" class="st0" width="1323" height="859"/>
<g id="XMLID_12_">
	<defs>
		<path id="XMLID_49_" d="M22.7,27.4c-0.2,0.2-0.5,0.2-0.6,0l-4-4.1c-0.2-0.2-0.2-0.5,0-0.6l0.9-1c0.2-0.2,0.5-0.2,0.6,0
			c0,0,1.4,1.5,2.1,2.2c0.2,0.2,0.6,0.6,0.6,0.6l5.3-5.4c0.2-0.2,0.5-0.2,0.6,0l0.9,1c0.2,0.2,0.2,0.5,0,0.6L22.7,27.4z"/>
	</defs>
	<clipPath id="XMLID_111_">
		<use xlink:href="#XMLID_49_"  style="overflow:visible;"/>
	</clipPath>
	<rect id="XMLID_50_" x="13" y="14" class="st3" width="21.4" height="18.5"/>
</g>
<rect id="XMLID_11_" x="-207.3" y="-184.5" class="st0" width="1323" height="859"/>
</svg>
