<?xml version="1.0" encoding="utf-8"?>
<!-- Generator: Adobe Illustrator 19.0.0, SVG Export Plug-In . SVG Version: 6.00 Build 0)  -->
<svg version="1.1" id="Layer_1" xmlns="http://www.w3.org/2000/svg" xmlns:xlink="http://www.w3.org/1999/xlink" x="0px" y="0px"
	 width="38.2px" height="38.8px" viewBox="0 0 38.2 38.8" style="enable-background:new 0 0 38.2 38.8;" xml:space="preserve">
<style type="text/css">
	.st0{fill-rule:evenodd;clip-rule:evenodd;fill:none;}
	.st1{clip-path:url(#XMLID_12_);fill:#FFFFFF;}
	.st2{clip-path:url(#XMLID_55_);fill:#FCBC3B;}
	.st3{fill:#F8B42A;}
	.st4{font-family:'MuseoSans-500';}
	.st5{font-size:11px;}
</style>
<rect id="XMLID_7_" x="-210.3" y="-184.5" class="st0" width="1323" height="859"/>
<rect id="XMLID_3_" x="-210.3" y="-184.5" class="st0" width="1323" height="859"/>
<g id="XMLID_57_">
	<defs>
		<path id="XMLID_58_" d="M19,0c10.5,0,19,8.5,19,19c0,10.5-8.5,19-19,19S0,29.5,0,19C0,8.5,8.5,0,19,0"/>
	</defs>
	<clipPath id="XMLID_12_">
		<use xlink:href="#XMLID_58_"  style="overflow:visible;"/>
	</clipPath>
	<rect id="XMLID_59_" x="-5" y="-5" class="st1" width="48" height="48"/>
</g>
<rect id="XMLID_56_" x="-203.7" y="-184.6" class="st0" width="1323" height="859"/>
<g id="XMLID_49_">
	<defs>
		<path id="XMLID_50_" d="M20.3,24h-8.1c-0.2,0-0.4,0.3-0.4,0.8c0,0.4,0.2,0.7,0.4,0.7h8.1c0.2,0,0.4-0.3,0.4-0.7
			C20.8,24.3,20.6,24,20.3,24z M26,18H12.5c-0.4,0-0.7,0.3-0.7,0.7c0,0.4,0.3,0.7,0.7,0.7H26c0.4,0,0.8-0.3,0.8-0.7
			C26.8,18.3,26.4,18,26,18z M12.5,13.5H26c0.4,0,0.8-0.3,0.8-0.7c0-0.4-0.3-0.7-0.8-0.7H12.5c-0.4,0-0.7,0.3-0.7,0.7
			C11.8,13.2,12.1,13.5,12.5,13.5z"/>
	</defs>
	<clipPath id="XMLID_55_">
		<use xlink:href="#XMLID_50_"  style="overflow:visible;"/>
	</clipPath>
	<rect id="XMLID_54_" x="6.8" y="7" class="st2" width="25" height="23.5"/>
</g>
<rect id="XMLID_13_" x="-203.7" y="-184.6" class="st0" width="1323" height="859"/>
<text id="XMLID_11_" transform="matrix(1 0 0 1 22 28)" class="st3 st4 st5">+</text>
<text id="XMLID_10_" transform="matrix(1 0 0 1 22 28)" class="st3 st4 st5">+</text>
<rect id="XMLID_9_" x="-203.7" y="-184.6" class="st0" width="1323" height="859"/>
</svg>
