<?xml version="1.0" encoding="utf-8"?>
<!-- Generator: Adobe Illustrator 18.0.0, SVG Export Plug-In . SVG Version: 6.00 Build 0)  -->
<!DOCTYPE svg PUBLIC "-//W3C//DTD SVG 1.1//EN" "http://www.w3.org/Graphics/SVG/1.1/DTD/svg11.dtd">
<svg version="1.1" id="Layer_1" xmlns="http://www.w3.org/2000/svg" xmlns:xlink="http://www.w3.org/1999/xlink" x="0px" y="0px"
	 width="89px" height="34px" viewBox="0 0 89 34" style="enable-background:new 0 0 89 34;" xml:space="preserve">
<g>
	<path style="fill:#FDB930;" d="M18.736,28.935c-0.242,0.152-0.497,0.385-2.055,1.075c-0.731,0.323-2.463,0.911-3.852,1.001
		c-1.056,0.068-3.226,0.192-4.471-0.99c-1.184-1.124-1.269-2.678-1.213-3.289c0.09-0.997,0.16-1.438,0.45-2.466
		c0.846,0.088,1.838,0.066,2.973-0.066c1.134-0.131,2.404-0.411,3.928-1.091c1.11-0.496,2.228-1.371,3.205-2.343
		c0.954-0.949,1.739-1.992,2.367-3.112c0.628-1.12,1.037-2.262,1.226-3.426c0.189-1.163,0.105-2.196-0.246-3.103
		c-0.353-0.905-1.021-1.613-2.002-2.125c-0.982-0.511-2.354-0.69-4.116-0.535c-2.693,0.234-5.005,1.042-6.934,2.422
		c-1.931,1.38-3.456,3.038-4.577,4.977c-0.717,1.239-1.264,2.519-1.643,3.841H1.775c-0.457-0.104-1.594,0.116-1.757,1.191
		c-0.157,1.031,0.76,1.65,1.199,1.738c-0.186,1.89-0.023,3.64,0.493,5.247c0.575,1.79,1.928,3.574,3.422,4.504
		c1.438,0.894,4.169,1.62,5.939,1.606c1.729-0.014,3.642-0.361,5.047-0.744s3.863-1.598,4.247-1.948
		C21.802,29.988,20.109,28.072,18.736,28.935z M10.168,17.983c0.626-1.152,1.293-2.196,2.003-3.13
		c0.709-0.934,1.425-1.699,2.148-2.295c0.723-0.596,1.405-0.922,2.046-0.978c0.801-0.07,1.313,0.249,1.536,0.956
		s0.192,1.557-0.092,2.551c-0.285,0.993-0.816,2.002-1.601,3.022c-0.787,1.024-2.025,1.947-2.863,2.355
		c-0.898,0.437-1.568,0.722-2.38,0.857c-0.812,0.136-1.784,0.144-2.406,0.085C9.036,20.203,9.543,19.136,10.168,17.983z"/>
	<path style="fill:#FDB930;" d="M43.004,17.284c-0.793,1.264-1.436,2.58-1.931,3.946c-0.493,1.367-0.807,2.687-0.938,3.957
		c-0.131,1.271-0.066,2.467,0.193,3.592c0.26,1.123,0.748,2.09,1.464,2.899c0.717,0.809,1.665,1.413,2.847,1.81
		c1.182,0.397,4.227,0.859,6.815-0.073c2.587-0.931,4.843-3.337,6.088-4.979c1.245-1.643,2.242-3.362,2.988-5.154
		c0.748-1.792,1.245-3.581,1.493-5.362c0.248-1.781,0.214-3.377-0.104-4.786s-0.924-2.543-1.824-3.4
		c-0.898-0.859-2.121-1.267-3.667-1.228c-2.158,0.06-4.169,0.598-6.034,1.617c-1.864,1.019-3.519,2.318-4.962,3.897
		C44.055,15.519,43.955,15.931,43.004,17.284z M46.634,26.549c0.015-1.309,0.227-2.756,0.637-4.342
		c0.411-1.586,0.972-3.104,1.684-4.554c0.359-0.793,0.77-1.495,1.432-2.45c0.69-0.965,1.536-1.77,2.444-2.344
		c0.908-0.574,2.47-0.961,3.399-1.042c1.057-0.093,1.825,0.277,2.3,1.106c0.477,0.83,0.7,1.901,0.668,3.211
		c-0.031,1.31-0.283,2.762-0.757,4.353c-0.474,1.591-1.134,3.101-1.977,4.532c0,0-0.908,1.428-2.047,2.636
		c-0.967,1.026-1.38,1.38-2.207,1.932s-2.225,1.057-2.938,1.116c-0.713,0.059-1.598-0.183-2.024-0.986
		C46.825,28.913,46.62,27.858,46.634,26.549z"/>
	<path style="fill:#FDB930;" d="M39.951,3.138c-0.256-0.456-0.604-0.889-1.042-1.299c-0.438-0.411-0.93-0.768-1.475-1.074
		c-0.545-0.305-1.076-0.519-1.594-0.642s-0.985-0.13-1.401-0.023c-0.416,0.108-0.715,0.37-0.897,0.786
		c-0.142,0.319-0.463,1.035-0.96,2.15c-0.498,1.115-1.074,2.476-1.728,4.083c-0.652,1.608-1.335,3.388-2.047,5.339
		c-0.712,1.951-1.538,4.387-2.114,6.345c-0.576,1.958-1.031,3.861-1.367,5.709s-0.582,3.605-0.453,5.005
		c0.101,1.095,0.546,2.326,1.172,3.147c0.867,1.134,2.315,1.314,3.286,1.388c0.798,0.06,2.528-0.214,3.414-0.535
		c0.849-0.308,2.351-0.916,3.241-1.354c0.734-0.36,1.312-0.718,1.54-0.931c1.156-1.076-0.086-3.23-1.806-2.206
		c-0.277,0.164-0.717,0.409-1.19,0.678c-0.967,0.548-2.207,1.171-3.416,1.286c-1.338,0.126-2.346-0.459-2.503-1.575
		c-0.157-1.116,1.353-4.347,2.028-5.818c0.675-1.472,1.409-2.99,2.205-4.558c0.796-1.566,1.788-3.6,2.615-5.138
		c0.827-1.536,1.583-2.954,2.27-4.253c0.686-1.299,1.26-2.404,1.718-3.318c0.46-0.912,0.719-1.535,0.779-1.866
		C40.299,4.034,40.208,3.594,39.951,3.138z"/>
	<path style="fill:#FDB930;" d="M76.922,11.642c1.208-1.876,2.967-4.677,4.185-6.416c0.27-0.385-3.737,0.453-5.192,0.913
		c-1.456,0.461-2.826,0.843-4.112,1.147c-1.286,0.305-2.5,0.731-3.53,0.869c-1.03,0.14-1.861,0.201-2.493,0.186
		c-0.49-0.001-0.838-0.162-1.043-0.483c-0.205-0.32-0.299-0.723-0.282-1.206c0.016-0.482,0.179-1.21,0.377-1.775
		s0.459-1.106,0.785-1.627c0.326-0.519,0.686-0.985,1.082-1.393c0.394-0.408,0.809-0.683,1.245-0.826
		c0.735-0.238,1.747-0.315,3.038-0.23c1.29,0.086,2.67,0.182,4.139,0.29c1.469,0.11,2.93,0.159,4.382,0.149s3.104-0.359,3.809-0.707
		c0.705-0.348,1.221-0.627,1.973-0.508c0.753,0.12,1.435,0.414,2.047,0.88c0.612,0.467,1.083,1.057,1.416,1.768
		c0.331,0.712,0.34,1.417,0.022,2.117c-0.159,0.351-0.418,0.974-1.127,1.623c-2.967,2.721-6.16,6.875-8.173,9.448
		c-4.43,5.659-5.383,7.819-6.396,9.47c-1.384,2.255-4.127,7.806-4.547,8.275c-0.581,0.646-1.232,0.486-1.691,0.346
		c-0.459-0.141-1.032-0.89-0.776-1.723c0.155-0.504,4.925-10.105,5.973-12.035C72.962,18.638,75.455,13.918,76.922,11.642z"/>
</g>
</svg>
