<?xml version="1.0" encoding="utf-8"?>
<!-- Generator: Adobe Illustrator 18.1.1, SVG Export Plug-In . SVG Version: 6.00 Build 0)  -->
<svg version="1.1"
	 id="svg3037" xmlns:dc="http://purl.org/dc/elements/1.1/" xmlns:cc="http://creativecommons.org/ns#" xmlns:rdf="http://www.w3.org/1999/02/22-rdf-syntax-ns#" xmlns:inkscape="http://www.inkscape.org/namespaces/inkscape" xmlns:sodipodi="http://sodipodi.sourceforge.net/DTD/sodipodi-0.dtd" xmlns:svg="http://www.w3.org/2000/svg" inkscape:version="0.48.3.1 r9886" sodipodi:docname="print_font_awesome.svg"
	 xmlns="http://www.w3.org/2000/svg" xmlns:xlink="http://www.w3.org/1999/xlink" x="0px" y="0px" viewBox="25.7 51.4 668.6 617.1"
	 enable-background="new 25.7 51.4 668.6 617.1" xml:space="preserve">
<sodipodi:namedview  inkscape:cy="896" inkscape:cx="896" inkscape:zoom="0.13169643" showgrid="false" guidetolerance="10" gridtolerance="10" pagecolor="#ffffff" borderopacity="1" bordercolor="#666666" objecttolerance="10" id="namedview3043" inkscape:current-layer="svg3037" inkscape:window-maximized="0" inkscape:window-y="25" inkscape:window-x="0" inkscape:window-height="480" inkscape:window-width="640" inkscape:pageshadow="2" inkscape:pageopacity="0">
	</sodipodi:namedview>
<g id="g3039" transform="matrix(1,0,0,-1,53.152542,1270.2373)">
	<path id="path3041" inkscape:connector-curvature="0" fill="#359C9C" d="M126.8,653.1h360V756h-360V653.1z M126.8,910.2h360v154.3
		h-64.3c-10.7,0-19.8,3.8-27.3,11.2c-7.5,7.5-11.2,16.6-11.2,27.3v64.3H126.8V910.2z M589.7,884.5c0,7-2.5,13-7.6,18.1
		c-5.1,5.1-11.1,7.6-18.1,7.6s-13-2.5-18.1-7.6c-5.1-5.1-7.6-11.1-7.6-18.1s2.5-13,7.6-18.1c5.1-5.1,11.1-7.6,18.1-7.6
		s13,2.5,18.1,7.6C587.2,871.5,589.7,877.6,589.7,884.5z M641.1,884.5V717.4c0-3.5-1.3-6.5-3.8-9c-2.5-2.5-5.6-3.8-9-3.8h-90v-64.3
		c0-10.7-3.8-19.8-11.2-27.3c-7.5-7.5-16.6-11.2-27.3-11.2H114c-10.7,0-19.8,3.8-27.3,11.2c-7.5,7.5-11.2,16.6-11.2,27.3v64.3h-90
		c-3.5,0-6.5,1.3-9,3.8c-2.5,2.5-3.8,5.6-3.8,9v167.1c0,21.2,7.6,39.3,22.7,54.4c15.1,15.1,33.3,22.7,54.4,22.7h25.7v218.6
		c0,10.7,3.8,19.8,11.2,27.3c7.5,7.5,16.6,11.2,27.3,11.2h270c10.7,0,22.5-2.7,35.4-8c12.9-5.4,23-11.8,30.5-19.3l61.1-61.1
		c7.5-7.5,13.9-17.7,19.3-30.5c5.4-12.9,8-24.6,8-35.4V961.7H564c21.2,0,39.3-7.6,54.4-22.7C633.6,923.8,641.1,905.7,641.1,884.5z"
		/>
</g>
</svg>
