<svg xmlns="http://www.w3.org/2000/svg" width="140" height="35" viewBox="0 0 140 35"><linearGradient id="a" gradientUnits="userSpaceOnUse" x1="154" y1="-129.2" x2="154" y2="145.2" gradientTransform="matrix(.125 0 0 -.125 50.75 18.5)"><stop offset="0" stop-color="#F8F8F8"/><stop offset="1" stop-color="#fff"/></linearGradient><path fill="url(#a)" d="M.3.3h139.3v34.3h-139.3v-34.3z"/><path fill="#DBDADA" d="M139.3.7v33.6h-138.6v-33.6h138.6m.7-.7h-140v35h140v-35z"/><linearGradient id="b" gradientUnits="userSpaceOnUse" x1="-262.08" y1="-107.92" x2="-262.08" y2="116.08" gradientTransform="matrix(.125 0 0 -.125 50.75 18.5)"><stop offset="0" stop-color="#91BA3E"/><stop offset="1" stop-color="#AED136"/></linearGradient><path fill="url(#b)" d="M4 4h28v28h-28v-28z"/><path fill="#9E9E9E" d="M42.8 9.9c-1.4 0-2 1-2 2s.7 2.2 2 2.2c1 0 1.9-.9 1.9-.9l.9 1.3s-1 1.2-2.9 1.2c-2.2 0-3.8-1.6-3.8-3.7s1.6-3.7 3.8-3.7c1.8 0 2.7 1 2.7 1l-.8 1.3s-.8-.7-1.8-.7zm7.5 5.7c-2.2 0-3.7-1.6-3.7-3.7 0-2 1.6-3.6 3.7-3.6 2.2 0 3.7 1.6 3.7 3.6.1 2.1-1.5 3.7-3.7 3.7zm0-5.7c-1 0-2 .9-2 2 0 1.2.8 2.2 2 2.2 1 0 2-.9 2-2.2 0-1.2-.9-2-2-2zm11.3 5.6l-.2-3.2c-.1-.6 0-1.2 0-1.2s-.2.8-.4 1.2l-.8 2.1h-1.5l-.7-2.1c-.1-.4-.4-1.2-.4-1.2s.1.6 0 1.2l-.2 3.2h-1.8l.6-7.1h1.8l1 3c.1.5.3 1.2.3 1.2s.2-.7.4-1.2l1-3h1.9l.6 7.1h-1.6zm6.6-2.2h-1.2v2.2h-1.8v-7.2h2.9c1.4 0 2.3 1.1 2.3 2.5s-.7 2.5-2.2 2.5zm-.2-3.4h-.9v2h.8c.6 0 .9-.4.9-1 0-.7-.3-1-.8-1zm8.3 2.6s.1.1.3.4l1.4 2.5h-2l-1.3-2.4h-.8v2.4h-1.8v-7.1h2.5c.7 0 1.1.1 1.4.1.8.3 1.3 1.1 1.3 2.1 0 .8-.3 1.7-1 2zm-1.8-2.6h-.6v1.7h.8c.6 0 .9-.3.9-.9-.1-.6-.2-.8-1.1-.8zm9 5.6l-.4-1.5h-2.2l-.4 1.5h-1.8l2.4-7.1h1.8l2.5 7.1h-1.9zm-1.3-4.3c-.1-.4-.2-1.3-.2-1.3s-.1.8-.3 1.3l-.4 1.4h1.4l-.5-1.4zm9.4-1.3c-.4 0-.8.1-.8.6 0 .9 3.2.8 3.2 3 0 1.2-.9 2.2-2.5 2.2-1.7 0-2.6-1.1-2.6-1.1l.9-1.3s.8.8 1.7.8c.3 0 .8-.1.8-.6 0-.8-3.2-.8-3.2-3 0-1.3 1.1-2.2 2.5-2.2 1.5 0 2.3.8 2.3.8l-.8 1.4s-.7-.6-1.5-.6zm8.7 4.1v1.5h-4.6v-7.2h4.5v1.5h-2.7v1.3h2.2v1.5h-2.2v1.4h2.8zm5.6-1.1v-1.5h2.6v4.1h-1.5v-.5s-.7.6-1.9.6c-1.8 0-3.5-1.4-3.5-3.7 0-2.1 1.5-3.7 3.8-3.7 1.8 0 2.7 1 2.7 1l-.8 1.3s-.7-.6-1.8-.6c-1.5 0-2.1 1-2.1 2 0 1.3.9 2.2 2 2.2.8 0 1.5-.5 1.5-.5v-.6h-1.1c.1.1.1-.1.1-.1zm7.3 2.7c-1.8 0-3-1.1-3-2.7v-4.6h1.8v4.6c0 .8.5 1.1 1.3 1.1s1.3-.4 1.3-1.1v-4.6h1.8v4.6c-.3 1.6-1.4 2.7-3.2 2.7zm9.2-3.1s.1.1.3.4l1.4 2.5h-2l-1.3-2.4h-.8v2.4h-1.8v-7.1h2.5c.7 0 1.1.1 1.4.1.8.3 1.3 1.1 1.3 2.1 0 .8-.3 1.7-1 2zm-1.8-2.6h-.6v1.7h.8c.6 0 .9-.3.9-.9 0-.6-.2-.8-1.1-.8zm9 5.6l-.4-1.5h-2.2l-.4 1.5h-1.8l2.4-7.1h1.8l2.4 7.1h-1.8zm-1.2-4.3c-.1-.4-.3-1.3-.3-1.3s-.1.8-.3 1.3l-.4 1.4h1.4l-.4-1.4z"/><path fill="#fff" d="M27.9 16.9c-.3-.4-.7-.5-1.1-.5h-.6v-3.2c0-2.1-.8-3.9-2.2-5.3-1.5-1.5-3.3-2.2-5.3-2.2s-3.9.8-5.3 2.2-2.2 3.3-2.2 5.3v3.2h-.6c-.4 0-.8.1-1.1.5-.5.3-.6.7-.6 1.1v9.7c0 .4.1.8.5 1.1.3.4.7.5 1.1.5h16.2c.4 0 .8-.1 1.1-.5.4-.4.5-.7.5-1.1v-9.7c.1-.4-.2-.9-.4-1.1zm-13.6-3.7c0-1.2.4-2.2 1.3-3.1.8-.8 1.9-1.3 3.1-1.3 1.2 0 2.2.4 3.1 1.3.8.8 1.3 1.9 1.3 3.1v3.2h-8.7v-3.2zm9.6 7.8l-5.3 5.3h-.1l-.7.7c-.1.1-.4.1-.5 0l-4-3.9c-.1-.1-.1-.4 0-.5l1.1-1c.1-.1.3-.1.5 0l2.7 2.7 4.8-4.8c.1-.1.4-.1.5 0l1.1 1c0 .2 0 .4-.1.5z"/><linearGradient id="c" gradientUnits="userSpaceOnUse" x1="-67.48" y1="-69.918" x2="-67.48" y2="-4.958" gradientTransform="matrix(.125 0 0 -.125 50.75 18.5)"><stop offset="0" stop-color="#91BA3E"/><stop offset="1" stop-color="#AED136"/></linearGradient><path fill="url(#c)" d="M40.5 24.6s.9.8 1.9.8c.4 0 .8-.1.8-.6 0-.9-3.6-.9-3.6-3.3 0-1.5 1.2-2.4 2.8-2.4 1.7 0 2.5.9 2.5.9l-.8 1.5s-.8-.7-1.8-.7c-.4 0-.8.2-.8.6 0 1 3.6.8 3.6 3.3 0 1.3-1 2.4-2.8 2.4-1.8 0-2.9-1.1-2.9-1.1l1.1-1.4z"/><linearGradient id="d" gradientUnits="userSpaceOnUse" x1="-26.6" y1="-68.866" x2="-26.6" y2="-5.978" gradientTransform="matrix(.125 0 0 -.125 50.75 18.5)"><stop offset="0" stop-color="#91BA3E"/><stop offset="1" stop-color="#AED136"/></linearGradient><path fill="url(#d)" d="M46.5 19.2h1.9v7.8h-1.9v-7.8z"/><linearGradient id="e" gradientUnits="userSpaceOnUse" x1="15.68" y1="-68.866" x2="15.68" y2="-5.978" gradientTransform="matrix(.125 0 0 -.125 50.75 18.5)"><stop offset="0" stop-color="#91BA3E"/><stop offset="1" stop-color="#AED136"/></linearGradient><path fill="url(#e)" d="M51.7 20.9h-2.4v-1.7h6.7v1.7h-2.4v6.2h-1.9v-6.2z"/><linearGradient id="f" gradientUnits="userSpaceOnUse" x1="70.28" y1="-68.866" x2="70.28" y2="-5.978" gradientTransform="matrix(.125 0 0 -.125 50.75 18.5)"><stop offset="0" stop-color="#91BA3E"/><stop offset="1" stop-color="#AED136"/></linearGradient><path fill="url(#f)" d="M57 19.2h5v1.7h-3v1.4h2.4v1.7h-2.4v1.5h3.1v1.7h-5.1v-8z"/><linearGradient id="g" gradientUnits="userSpaceOnUse" x1="145.6" y1="-68.866" x2="145.6" y2="-5.978" gradientTransform="matrix(.125 0 0 -.125 50.75 18.5)"><stop offset="0" stop-color="#91BA3E"/><stop offset="1" stop-color="#AED136"/></linearGradient><path fill="url(#g)" d="M66 19.2h3.3c1.5 0 2.6 1.1 2.6 2.7s-1.1 2.7-2.6 2.7h-1.4v2.5h-1.9v-7.9zm2.9 3.8c.7 0 1-.4 1-1s-.3-1.1-1-1.1h-1v2.1h1z"/><linearGradient id="h" gradientUnits="userSpaceOnUse" x1="203.56" y1="-68.866" x2="203.56" y2="-5.978" gradientTransform="matrix(.125 0 0 -.125 50.75 18.5)"><stop offset="0" stop-color="#91BA3E"/><stop offset="1" stop-color="#AED136"/></linearGradient><path fill="url(#h)" d="M73 19.2h2.7c.8 0 1.2.1 1.5.2.9.4 1.5 1.1 1.5 2.3 0 .8-.4 1.8-1.2 2.2 0 0 .1.1.3.5l1.5 2.7h-2.2l-1.4-2.7h-.9v2.7h-1.8v-7.9zm2.7 3.6c.6 0 1-.4 1-1s-.2-1-1.2-1h-.6v1.9l.8.1z"/><linearGradient id="i" gradientUnits="userSpaceOnUse" x1="266.56" y1="-69.918" x2="266.56" y2="-4.958" gradientTransform="matrix(.125 0 0 -.125 50.75 18.5)"><stop offset="0" stop-color="#91BA3E"/><stop offset="1" stop-color="#AED136"/></linearGradient><path fill="url(#i)" d="M84.1 19.1c2.4 0 4.1 1.8 4.1 4 0 2.3-1.8 4.1-4.1 4.1-2.4 0-4.1-1.8-4.1-4.1-.1-2.2 1.7-4 4.1-4zm0 6.4c1.2 0 2.1-1 2.1-2.4 0-1.3-1-2.2-2.1-2.2s-2.1 1-2.1 2.2c-.1 1.4.9 2.4 2.1 2.4z"/><linearGradient id="j" gradientUnits="userSpaceOnUse" x1="329.84" y1="-68.866" x2="329.84" y2="-5.978" gradientTransform="matrix(.125 0 0 -.125 50.75 18.5)"><stop offset="0" stop-color="#91BA3E"/><stop offset="1" stop-color="#AED136"/></linearGradient><path fill="url(#j)" d="M91 20.9h-2.4v-1.7h6.7v1.7h-2.3v6.2h-2v-6.2z"/><linearGradient id="k" gradientUnits="userSpaceOnUse" x1="383.88" y1="-68.866" x2="383.88" y2="-5.978" gradientTransform="matrix(.125 0 0 -.125 50.75 18.5)"><stop offset="0" stop-color="#91BA3E"/><stop offset="1" stop-color="#AED136"/></linearGradient><path fill="url(#k)" d="M96.2 19.2h4.9v1.7h-3v1.4h2.4v1.7h-2.4v1.5h3.2v1.7h-5.1v-8z"/><linearGradient id="l" gradientUnits="userSpaceOnUse" x1="441.84" y1="-69.918" x2="441.84" y2="-4.925" gradientTransform="matrix(.125 0 0 -.125 50.75 18.5)"><stop offset="0" stop-color="#91BA3E"/><stop offset="1" stop-color="#AED136"/></linearGradient><path fill="url(#l)" d="M106.3 19.1c2 0 3 1.1 3 1.1l-.9 1.5s-.8-.7-1.9-.7c-1.7 0-2.3 1-2.3 2.2 0 1.5 1.1 2.4 2.2 2.4.9 0 1.6-.6 1.6-.6v-.6h-1v-1.6h2.8v4.4h-1.6v-.6s-.8.7-2.1.7c-2 0-3.8-1.5-3.8-4.1-.1-2.3 1.6-4.1 4-4.1z"/><linearGradient id="m" gradientUnits="userSpaceOnUse" x1="490.84" y1="-68.866" x2="490.84" y2="-5.978" gradientTransform="matrix(.125 0 0 -.125 50.75 18.5)"><stop offset="0" stop-color="#91BA3E"/><stop offset="1" stop-color="#AED136"/></linearGradient><path fill="url(#m)" d="M111.2 19.2h1.9v7.8h-1.9v-7.8z"/><linearGradient id="n" gradientUnits="userSpaceOnUse" x1="540.96" y1="-68.866" x2="540.96" y2="-5.978" gradientTransform="matrix(.125 0 0 -.125 50.75 18.5)"><stop offset="0" stop-color="#91BA3E"/><stop offset="1" stop-color="#AED136"/></linearGradient><path fill="url(#n)" d="M114.9 19.2h2.8c2.4 0 4.1 1.5 4.1 3.9 0 2.5-1.6 3.9-4.1 3.9h-2.8v-7.8zm2.8 6.3c1.3 0 2.2-.8 2.2-2.3 0-1.5-.8-2.2-2.2-2.2h-.8v4.6h.8z"/><linearGradient id="o" gradientUnits="userSpaceOnUse" x1="608.16" y1="-69.918" x2="608.16" y2="-4.958" gradientTransform="matrix(.125 0 0 -.125 50.75 18.5)"><stop offset="0" stop-color="#91BA3E"/><stop offset="1" stop-color="#AED136"/></linearGradient><path fill="url(#o)" d="M126.8 19.1c2.4 0 4.1 1.8 4.1 4 0 2.3-1.8 4.1-4.1 4.1-2.4 0-4.1-1.8-4.1-4.1-.1-2.2 1.7-4 4.1-4zm0 6.4c1.2 0 2.1-1 2.1-2.4 0-1.3-1-2.2-2.1-2.2-1.2 0-2.1 1-2.1 2.2-.1 1.4.9 2.4 2.1 2.4z"/></svg>