<?xml version="1.0" encoding="utf-8"?>
<!-- Generator: Adobe Illustrator 18.0.0, SVG Export Plug-In . SVG Version: 6.00 Build 0)  -->
<!DOCTYPE svg PUBLIC "-//W3C//DTD SVG 1.1//EN" "http://www.w3.org/Graphics/SVG/1.1/DTD/svg11.dtd">
<svg version="1.1" id="Layer_1" xmlns="http://www.w3.org/2000/svg" xmlns:xlink="http://www.w3.org/1999/xlink" x="0px" y="0px"
	 width="30px" height="30px" viewBox="0 0 30 30" style="enable-background:new 0 0 30 30;" xml:space="preserve">
<path style="fill:#92928C;" d="M15,2.5c6.8926,0,12.5,5.6075,12.5,12.5S21.8926,27.5,15,27.5S2.5,21.8925,2.5,15S8.1074,2.5,15,2.5
	 M15,0C6.7158,0,0,6.7158,0,15c0,8.2843,6.7158,15,15,15s15-6.7157,15-15C30,6.7158,23.2842,0,15,0L15,0z"/>
<path style="fill:#92928C;" d="M15.1099,15.945L15.1099,15.945c-0.55,0-1-0.45-1-1v-10c0-0.55,0.45-1,1-1h0c0.55,0,1,0.45,1,1v10
	C16.1099,15.495,15.6599,15.945,15.1099,15.945z"/>
<path style="fill:#92928C;" d="M14.1099,14.945L14.1099,14.945c0-0.55,0.45-1,1-1h6c0.55,0,1,0.45,1,1v0c0,0.55-0.45,1-1,1h-6
	C14.5599,15.945,14.1099,15.495,14.1099,14.945z"/>
</svg>
