<?xml version="1.0" encoding="utf-8"?>
<!-- Generator: Adobe Illustrator 18.0.0, SVG Export Plug-In . SVG Version: 6.00 Build 0)  -->
<!DOCTYPE svg PUBLIC "-//W3C//DTD SVG 1.1//EN" "http://www.w3.org/Graphics/SVG/1.1/DTD/svg11.dtd">
<svg version="1.1" id="Layer_1" xmlns="http://www.w3.org/2000/svg" xmlns:xlink="http://www.w3.org/1999/xlink" x="0px" y="0px"
	 width="70px" height="55px" viewBox="0 0 70 55" style="enable-background:new 0 0 70 55;" xml:space="preserve">
<g>
	<path style="opacity:0.5;fill:#818181;" d="M67,55H3c-1.65,0-3-1.35-3-3V3c0-1.65,1.35-3,3-3h64c1.65,0,3,1.35,3,3v49
		C70,53.65,68.65,55,67,55z"/>
	<g>
		<g>
			<path style="fill:#FFFFFF;" d="M51.236,39.265l-8.132-8.132c1.226-2.014,1.932-4.38,1.932-6.911
				c0-7.352-6.371-13.723-13.724-13.723C23.961,10.5,18,16.461,18,23.813s6.37,13.723,13.722,13.723
				c2.445,0,4.734-0.662,6.703-1.812l8.176,8.176c0.8,0.8,2.097,0.8,2.897,0l2.028-2.027C52.326,41.072,52.036,40.065,51.236,39.265
				z M22.097,23.813c0-5.091,4.126-9.217,9.216-9.217c5.091,0,9.627,4.536,9.627,9.626c0,5.09-4.127,9.217-9.217,9.217
				C26.632,33.44,22.097,28.904,22.097,23.813z"/>
		</g>
		<g>
			<rect x="30.133" y="18.762" style="fill:#FFFFFF;" width="2.125" height="10.625"/>
			<rect x="25.883" y="23.012" style="fill:#FFFFFF;" width="10.625" height="2.125"/>
		</g>
	</g>
</g>
</svg>
