<?xml version="1.0" encoding="utf-8"?>
<!-- Generator: Adobe Illustrator 18.0.0, SVG Export Plug-In . SVG Version: 6.00 Build 0)  -->
<!DOCTYPE svg PUBLIC "-//W3C//DTD SVG 1.1//EN" "http://www.w3.org/Graphics/SVG/1.1/DTD/svg11.dtd">
<svg version="1.1" id="Layer_1" xmlns="http://www.w3.org/2000/svg" xmlns:xlink="http://www.w3.org/1999/xlink" x="0px" y="0px"
	 width="16px" height="16px" viewBox="0 0 16 16" style="enable-background:new 0 0 16 16;" xml:space="preserve">
<g>
	<g>
		<path style="fill:#92928C;" d="M15.6404,13.5365l-3.8267-3.8267c0.5769-0.948,0.9092-2.0611,0.9092-3.2522
			C12.7229,2.9979,9.7249,0,6.2646,0C2.805,0,0,2.805,0,6.265s2.9978,6.4577,6.4575,6.4577c1.1505,0,2.2278-0.3115,3.1543-0.8527
			l3.8475,3.8475c0.3766,0.3766,0.9869,0.3766,1.3631,0l0.9543-0.954C16.1533,14.3869,16.0168,13.913,15.6404,13.5365z
			 M1.9278,6.265c0-2.3956,1.9419-4.3374,4.3368-4.3374c2.3958,0,4.5305,2.1345,4.5305,4.5301c0,2.3955-1.9421,4.3374-4.3376,4.3374
			C4.0623,10.7951,1.9278,8.6606,1.9278,6.265z"/>
	</g>
	<g>
		<rect x="5.7095" y="3.8879" style="fill:#92928C;" width="1" height="5"/>
		<rect x="3.7095" y="5.8879" style="fill:#92928C;" width="5" height="1"/>
	</g>
</g>
</svg>
