<?xml version="1.0" encoding="iso-8859-1"?>
<!-- Generator: Adobe Illustrator 18.1.1, SVG Export Plug-In . SVG Version: 6.00 Build 0)  -->
<svg version="1.1" id="Layer_1" xmlns="http://www.w3.org/2000/svg" xmlns:xlink="http://www.w3.org/1999/xlink" x="0px" y="0px"
	 viewBox="0 0 39.806 39.806" style="enable-background:new 0 0 39.806 39.806;" xml:space="preserve">
<rect x="-426.241" y="-357.518" style="fill-rule:evenodd;clip-rule:evenodd;fill:none;" width="960" height="723"/>
<g>
	<g>
		<defs>
			<circle id="SVGID_1_" cx="19.903" cy="19.903" r="19.903"/>
		</defs>
		<clipPath id="SVGID_2_">
			<use xlink:href="#SVGID_1_"  style="overflow:visible;"/>
		</clipPath>
		
			<circle style="clip-path:url(#SVGID_2_);fill:none;stroke:#FDB931;stroke-width:2;stroke-miterlimit:10;" cx="19.903" cy="19.903" r="19.903"/>
	</g>
	<g>
		<defs>
			<path id="SVGID_3_" d="M21.869,17.298c0.761-1.136,1.871-2.833,2.639-3.886c0.17-0.233-2.356,0.275-3.274,0.553
				c-0.918,0.279-1.782,0.511-2.593,0.695c-0.811,0.185-1.576,0.443-2.226,0.527c-0.649,0.084-1.174,0.122-1.572,0.113
				c-0.309,0-0.528-0.098-0.657-0.293c-0.129-0.194-0.189-0.438-0.178-0.73c0.01-0.292,0.113-0.733,0.238-1.075
				c0.124-0.342,0.289-0.67,0.495-0.985c0.205-0.315,0.433-0.596,0.682-0.843c0.249-0.247,0.51-0.414,0.784-0.5
				c0.463-0.144,1.102-0.191,1.916-0.139c0.814,0.052,1.684,0.11,2.61,0.176c0.926,0.066,1.847,0.096,2.763,0.091
				c0.915-0.005,1.958-0.218,2.402-0.428c0.444-0.21,0.77-0.38,1.244-0.308c0.475,0.073,0.905,0.25,1.291,0.534
				c0.386,0.283,0.683,0.64,0.893,1.071c0.209,0.431,0.214,0.858,0.014,1.282c-0.1,0.212-0.263,0.589-0.71,0.983
				c-1.871,1.647-3.884,4.164-5.154,5.722c-2.793,3.427-3.394,4.735-4.033,5.735c-0.873,1.366-2.603,4.728-2.867,5.011
				c-0.366,0.392-0.777,0.294-1.066,0.21c-0.289-0.085-0.651-0.539-0.49-1.043c0.098-0.305,3.105-6.12,3.766-7.288
				C19.372,21.535,20.945,18.677,21.869,17.298"/>
		</defs>
		<clipPath id="SVGID_4_">
			<use xlink:href="#SVGID_3_"  style="overflow:visible;"/>
		</clipPath>
		<rect x="9.006" y="5.25" style="clip-path:url(#SVGID_4_);fill:#FDB931;" width="25.48" height="30.64"/>
	</g>
</g>
<rect x="-426.241" y="-357.518" style="fill-rule:evenodd;clip-rule:evenodd;fill:none;" width="960" height="723"/>
</svg>
