<svg xmlns="http://www.w3.org/2000/svg" width="30" height="24" viewBox="0 0 30 24"><path d="M30 4.687c0 .539-.189.997-.566 1.374l-13.313 14.626-2.747 2.747c-.377.377-.835.566-1.374.566s-.997-.189-1.374-.566l-2.747-2.747-7.313-7.313c-.377-.377-.566-.835-.566-1.374s.189-.997.566-1.374l2.747-2.747c.377-.377.835-.566 1.374-.566s.997.189 1.374.566l5.939 5.959 11.94-13.272c.377-.377.835-.566 1.373-.566s.997.189 1.374.566l2.747 2.747c.378.377.566.835.566 1.374z" fill-rule="evenodd" clip-rule="evenodd" fill="#369946"/></svg>