<svg xmlns="http://www.w3.org/2000/svg" width="16" height="13" viewBox="0 0 16 13"><path d="M16 1.429v10.143c0 .393-.14.729-.42 1.009-.28.28-.616.42-1.009.42h-13.142c-.393 0-.729-.14-1.009-.42-.28-.28-.42-.617-.42-1.01v-10.142c0-.393.14-.73.42-1.009s.616-.42 1.009-.42h13.143c.393 0 .729.14 1.009.42s.419.616.419 1.009z" fill="#BCBAB7"/><path d="M14.857 11.571v-7.285c-.19.214-.396.411-.616.589-1.595 1.226-2.863 2.232-3.804 3.018-.304.256-.551.455-.741.598-.19.143-.448.287-.772.433-.324.146-.629.219-.915.219h-.018c-.286 0-.591-.073-.915-.219-.324-.146-.582-.29-.772-.433-.19-.143-.438-.342-.741-.598-.94-.786-2.208-1.792-3.804-3.018-.22-.179-.426-.375-.616-.589v7.286c0 .077.028.144.085.201.057.057.124.085.201.085h13.143c.077 0 .144-.028.201-.085.056-.057.084-.124.084-.202zM14.857 1.759v-.219l-.004-.116-.027-.112-.049-.08-.08-.067-.125-.022h-13.143c-.077 0-.144.028-.201.085-.057.056-.085.123-.085.201 0 1 .438 1.845 1.312 2.536 1.149.905 2.342 1.848 3.58 2.83l.312.263.411.335.398.281c.164.11.314.192.451.246.137.053.265.08.384.08h.018c.119 0 .247-.027.384-.08.137-.054.287-.136.451-.246l.397-.281.411-.335.312-.263c1.238-.982 2.432-1.926 3.58-2.83.321-.256.621-.6.897-1.031s.416-.824.416-1.175z" fill="#fff"/></svg>