<?xml version="1.0" encoding="utf-8"?>
<!-- Generator: Adobe Illustrator 18.0.0, SVG Export Plug-In . SVG Version: 6.00 Build 0)  -->
<!DOCTYPE svg PUBLIC "-//W3C//DTD SVG 1.1//EN" "http://www.w3.org/Graphics/SVG/1.1/DTD/svg11.dtd">
<svg version="1.1" id="Layer_1" xmlns="http://www.w3.org/2000/svg" xmlns:xlink="http://www.w3.org/1999/xlink" x="0px" y="0px"
	 width="50px" height="50px" viewBox="0 0 50 50" style="enable-background:new 0 0 50 50;" xml:space="preserve">
<g>
	<polygon style="fill-rule:evenodd;clip-rule:evenodd;fill:#004282;" points="50.003,50 50.003,0 0,0 0,50 50.003,50 	"/>
	<polygon style="fill-rule:evenodd;clip-rule:evenodd;fill:#FFFFFF;" points="32.4844,20.1736 25.6663,26.9985 25.6663,33.2844 
		38.7809,20.1653 25.6663,7.0476 25.6663,13.3514 32.4844,20.1736 	"/>
	<polygon style="fill-rule:evenodd;clip-rule:evenodd;fill:#FFFFFF;" points="17.472,20.1736 24.3036,13.3514 24.3036,7.0408 
		11.1778,20.1653 24.3036,33.291 24.3036,27.001 17.472,20.1736 	"/>
	<path style="fill-rule:evenodd;clip-rule:evenodd;fill:#FFFFFF;" d="M14.2904,35.6188h0.212l-0.5667,2.4419h-0.2142
		c-0.0289-0.6628-0.1982-1.162-0.4951-1.4878c-0.2986-0.3258-0.6931-0.4836-1.1768-0.4836c-0.5169,0-1.0437,0.2142-1.5564,0.6625
		c-0.5171,0.4454-0.957,1.1343-1.3158,2.0483c-0.2876,0.7425-0.4344,1.474-0.4344,2.2015c0,0.6462,0.158,1.1438,0.4814,1.4886
		c0.3185,0.3441,0.7517,0.5089,1.3016,0.5089c0.4579,0,0.8701-0.0959,1.236-0.2943c0.374-0.1922,0.7425-0.5128,1.1235-0.9526h0.2723
		c-0.4704,0.6985-0.9433,1.1903-1.4163,1.4767c-0.481,0.283-1.0655,0.4234-1.7574,0.4234c-0.9222,0-1.6647-0.2792-2.2312-0.8429
		C7.1867,42.254,6.899,41.5226,6.899,40.6178c0-0.8455,0.2298-1.6527,0.6752-2.4237c0.4484-0.7673,1.1014-1.3846,1.9467-1.8643
		c0.8361-0.4705,1.6831-0.711,2.5177-0.711c0.3122,0,0.7069,0.0689,1.177,0.205c0.2404,0.0713,0.4122,0.103,0.506,0.103
		C13.9137,35.9268,14.0981,35.8238,14.2904,35.6188L14.2904,35.6188z"/>
	<path style="fill-rule:evenodd;clip-rule:evenodd;fill:#FFFFFF;" d="M18.7314,38.0332l-0.1473,2.5063h-1.9949L18.7314,38.0332
		L18.7314,38.0332z M18.3754,42.863c-0.0894,0.1582-0.1827,0.2724-0.2861,0.3232c-0.0575,0.0247-0.2405,0.0535-0.5704,0.0826
		L17.45,43.4806h3.3284l0.0579-0.2119c-0.2407-0.0179-0.4124-0.0868-0.5131-0.2012c-0.1043-0.1222-0.1622-0.3076-0.1622-0.5661
		c0-0.0619,0.0111-0.2627,0.0223-0.5884l0.2515-6.2942h-0.2515l-5.4446,6.4992c-0.4014,0.4769-0.6981,0.7851-0.9167,0.932
		c-0.1583,0.1114-0.3302,0.1828-0.539,0.2187l-0.0565,0.2119h2.2879v-0.2119c-0.2229-0.0111-0.377-0.0579-0.4812-0.1334
		c-0.0893-0.0785-0.1361-0.1609-0.1361-0.2505c0-0.0865,0.0108-0.1715,0.0534-0.2625c0.0511-0.1142,0.1294-0.2392,0.2339-0.3795
		l0.5373-0.6531l0.481-0.5882h2.3814l-0.0466,0.9786C18.5115,42.3971,18.4618,42.6911,18.3754,42.863L18.3754,42.863z"/>
	<path style="fill-rule:evenodd;clip-rule:evenodd;fill:#FFFFFF;" d="M26.3302,36.2032c0.3081-0.0137,0.5595,0.0798,0.7427,0.2624
		c0.1828,0.183,0.2762,0.4236,0.2762,0.7207c0,0.3163-0.0862,0.6418-0.2695,0.9968c-0.1787,0.3546-0.4194,0.6104-0.7092,0.7643
		c-0.3055,0.1539-0.7041,0.2366-1.2194,0.2407l0.8674-2.9806L26.3302,36.2032L26.3302,36.2032z M24.0853,36.1603
		c0.1141,0.0868,0.1607,0.1968,0.1607,0.3263c0,0.162-0.0645,0.4811-0.2075,0.9608l-1.3598,4.7268
		c-0.1142,0.3768-0.2186,0.631-0.297,0.7468c-0.0825,0.118-0.1828,0.2048-0.3231,0.261c-0.1294,0.0577-0.3505,0.0868-0.6626,0.0868
		l-0.073,0.2119h3.1965c1.1906,0,2.014-0.0938,2.4735-0.2657c0.4455-0.1759,0.8001-0.455,1.0767-0.8318
		c0.2719-0.3807,0.4081-0.7645,0.4081-1.152c0-0.4194-0.1362-0.7849-0.4081-1.093c-0.2835-0.3162-0.7674-0.5707-1.4892-0.7712
		c0.6862-0.1543,1.191-0.3259,1.5207-0.5088c0.3344-0.1829,0.5858-0.4207,0.7426-0.7c0.1729-0.2872,0.2555-0.5595,0.2555-0.8359
		c0-0.3257-0.1043-0.6268-0.3092-0.8921c-0.2076-0.2558-0.5087-0.4347-0.8925-0.5239c-0.2876-0.0687-0.7685-0.1118-1.4491-0.1118
		h-3.037l-0.0575,0.2119C23.7304,36.0203,23.9698,36.071,24.0853,36.1603l1.9465,3.5722c0.1981,0.0755,0.3591,0.2118,0.4924,0.4123
		c0.1253,0.2008,0.1827,0.4263,0.1827,0.6847c0,0.5346-0.1621,1.0367-0.4918,1.5069c-0.3331,0.4687-0.9172,0.7095-1.7531,0.7095
		c-0.1005,0-0.2406-0.0069-0.4234-0.0178l0.976-3.4181c0.4795,0,0.8098,0.0467,1.0172,0.1225L24.0853,36.1603L24.0853,36.1603z"/>
	<path style="fill-rule:evenodd;clip-rule:evenodd;fill:#FFFFFF;" d="M34.2015,38.0332l-0.1429,2.5063h-1.9867L34.2015,38.0332
		L34.2015,38.0332z M33.8465,42.863c-0.0933,0.1582-0.1826,0.2724-0.2869,0.3232c-0.0496,0.0247-0.2395,0.0535-0.5735,0.0826
		l-0.0538,0.2119h3.3177l0.0605-0.2119c-0.2433-0.0179-0.4164-0.0868-0.5196-0.2012c-0.1043-0.1222-0.1472-0.3076-0.1472-0.5661
		c0-0.0619,0-0.2627,0.0109-0.5884l0.2503-6.2942h-0.2503l-5.4469,6.4992c-0.3879,0.4769-0.6972,0.7851-0.9051,0.932
		c-0.1606,0.1114-0.3434,0.1828-0.5483,0.2187l-0.0576,0.2119h2.2986v-0.2119c-0.2297-0.0111-0.3863-0.0579-0.4795-0.1334
		c-0.1007-0.0785-0.1474-0.1609-0.1474-0.2505c0-0.0865,0.018-0.1715,0.0578-0.2625c0.0464-0.1142,0.1247-0.2392,0.2295-0.3795
		l0.5486-0.6531l0.4797-0.5882h2.3746l-0.0536,0.9786C33.9829,42.3971,33.936,42.6911,33.8465,42.863L33.8465,42.863z"/>
	<path style="fill-rule:evenodd;clip-rule:evenodd;fill:#FFFFFF;" d="M43.8161,41.3218l-0.8498,2.1587h-6.136l0.0577-0.2119
		c0.3726,0,0.6375-0.0688,0.8027-0.2119c0.172-0.1429,0.3301-0.4591,0.4704-0.9569l1.427-4.9318
		c0.0826-0.2723,0.1153-0.4838,0.1153-0.6379c0-0.154-0.0438-0.2763-0.173-0.3628c-0.1003-0.0896-0.3299-0.1473-0.6629-0.1613
		l0.0717-0.2119h3.683l-0.064,0.2119c-0.359,0.0074-0.6245,0.0857-0.7936,0.2409c-0.1786,0.1498-0.3326,0.4592-0.4689,0.9211
		l-1.3061,4.5151c-0.1609,0.5706-0.25,0.9211-0.25,1.0476c0,0.0742,0.0466,0.1471,0.1249,0.2115
		c0.0935,0.0608,0.2295,0.1034,0.4165,0.1034c0.623,0,1.2293-0.15,1.8136-0.4373c0.5856-0.2831,1.0764-0.7135,1.478-1.2867H43.8161
		L43.8161,41.3218z"/>
</g>
</svg>
