<?xml version="1.0" encoding="utf-8"?>
<!-- Generator: Adobe Illustrator 18.0.0, SVG Export Plug-In . SVG Version: 6.00 Build 0)  -->
<!DOCTYPE svg PUBLIC "-//W3C//DTD SVG 1.1//EN" "http://www.w3.org/Graphics/SVG/1.1/DTD/svg11.dtd">
<svg version="1.1" id="Layer_1" xmlns="http://www.w3.org/2000/svg" xmlns:xlink="http://www.w3.org/1999/xlink" x="0px" y="0px"
	 width="91.33px" height="50px" viewBox="0 0 91.33 50" style="enable-background:new 0 0 91.33 50;" xml:space="preserve">
<g>
	<rect style="fill:#0D5BA5;" width="91.3298" height="50"/>
	<path style="fill:#FFFFFF;" d="M62.5837,32.1496c-2.8271,7.4135-10.0347,12.7306-18.441,12.7306
		c-8.4256,0-15.6143-5.2906-18.4288-12.73l2.1519-0.0006c2.7055,6.3091,8.9677,10.7291,16.2674,10.7291
		c7.2826,0,13.5413-4.4427,16.2567-10.7291h2.1928L62.5837,32.1496z"/>
	<path style="fill:#FFFFFF;" d="M62.5837,32.1496l-0.1869-0.0715C59.5983,39.4166,52.463,44.6808,44.143,44.68
		c-8.3402,0.0003-15.456-5.2375-18.2416-12.6009l-0.1871,0.0711v0.1999l2.1519-0.0006v-0.1999l-0.1836,0.0787
		c2.7356,6.3806,9.069,10.8503,16.4515,10.8507c7.3659-0.0005,13.6946-4.4928,16.4394-10.8504l-0.1837-0.079v0.1999h2.1937v-0.2009
		l-0.1869-0.0715l0.1887,0.0715v-0.2h-2.3251l-0.0524,0.1209c-2.6848,6.2159-8.8731,10.6086-16.0725,10.6083
		c-7.2175,0-13.4083-4.3703-16.0832-10.608l-0.0518-0.1212l-2.5737,0.0006l0.1026,0.2708
		c2.8419,7.5149,10.1044,12.8591,18.616,12.8594c8.4926-0.0008,15.7726-5.3703,18.6282-12.8594l0.1035-0.2714h-0.2904v0.2009
		L62.5837,32.1496z"/>
	<path style="fill:#FFFFFF;" d="M60.5592,18.0422c-0.5256-1.2319-1.208-2.3922-1.9834-3.4608
		c-0.3232,0.1177-0.7051,0.1947-1.0689,0.1947c-1.6782,0-3.0387-1.3608-3.0387-3.0388c0-0.3776,0.0686-0.7402,0.1956-1.0736
		c-2.9162-2.1219-6.51-3.3763-10.3926-3.3763c-7.3081,0-13.5766,4.4246-16.2689,10.7492h-2.1351
		c2.8204-7.4138,10.0102-12.7449,18.4136-12.7449c4.3545,0,8.3867,1.4322,11.6456,3.8257c0.4688-0.2915,1.0104-0.4548,1.6034-0.4548
		c1.6902,0,3.0605,1.3706,3.0605,3.0603c0,0.5784-0.1553,1.111-0.4329,1.5718c1.0562,1.4311,1.9336,3.0556,2.5655,4.742
		l-2.163,0.0061L60.5592,18.0422z"/>
	<path style="fill:#FFFFFF;" d="M60.5592,18.0422l0.184-0.0784c-0.5321-1.2479-1.2221-2.4208-2.0054-3.4999l-0.0886-0.1218
		l-0.1414,0.0511c-0.3026,0.1104-0.665,0.1831-1.001,0.1828c-0.7845,0-1.4932-0.3174-2.0074-0.8316
		c-0.5143-0.5146-0.8313-1.2228-0.8313-2.0073c0-0.3534,0.0641-0.6917,0.1827-1.0023l0.0543-0.1431l-0.1237-0.0898
		c-2.949-2.1459-6.5844-3.4147-10.5105-3.4147c-7.3904,0-13.7304,4.4749-16.4531,10.8707l0.1842,0.0787v-0.2002h-2.1351v0.2002
		l0.1869,0.0712c2.7921-7.339,9.9096-12.6167,18.2264-12.6161c4.3099,0,8.3007,1.417,11.5273,3.787l0.109,0.0799l0.1149-0.0714
		c0.4388-0.2726,0.9416-0.4245,1.498-0.4248c0.7903,0,1.5044,0.32,2.0223,0.8381c0.5181,0.5183,0.8381,1.232,0.8381,2.0223
		c-0.0003,0.5427-0.1446,1.0378-0.4043,1.4683l-0.069,0.1146l0.0796,0.1073c1.0444,1.4158,1.9137,3.0248,2.5393,4.6937
		l0.1871-0.0703l-0.0006-0.2002l-2.1636,0.0055v0.1994l0.184-0.0784l-0.1842,0.0776l0.0006,0.2l2.4513-0.0061l-0.1008-0.2696
		c-0.6385-1.7038-1.5243-3.3439-2.5919-4.7907l-0.161,0.1189l0.1712,0.1031c0.2961-0.4906,0.462-1.0606,0.4617-1.6748
		c-0.0003-1.8004-1.4599-3.26-3.2606-3.2605c-0.6299,0-1.2104,0.1744-1.7092,0.4853l0.1058,0.1697l0.1183-0.161
		c-3.2915-2.4181-7.3653-3.8646-11.764-3.8646c-8.4899,0.0006-15.7513,5.3847-18.6008,12.8737l-0.1027,0.2714h2.5572l0.0519-0.1218
		c2.6624-6.2529,8.8594-10.6279,16.0847-10.6274c3.8397,0,7.3912,1.24,10.2751,3.338l0.1175-0.1618l-0.1871-0.0712
		c-0.1356,0.356-0.2087,0.7427-0.2087,1.1448c0,1.7884,1.4494,3.2389,3.2387,3.2389c0.3923-0.0003,0.7932-0.0819,1.1372-0.2066
		l-0.0682-0.1881l-0.1618,0.1177c0.7678,1.0579,1.4426,2.2056,1.9612,3.4217l0.0521,0.1218l0.1326-0.0003l0.003-0.1994
		L60.5592,18.0422z"/>
	<path style="fill:#F26A21;" d="M55.8573,11.6969c0-0.9229,0.748-1.6715,1.6709-1.6715c0.9247,0,1.6732,0.7486,1.6732,1.6715
		c0,0.9223-0.7484,1.6703-1.6732,1.6703c-0.9224,0-1.6713-0.7481-1.6713-1.6703"/>
	<path style="fill:#F26A21;" d="M55.8573,11.6969h0.033c0-0.4522,0.1834-0.8618,0.4798-1.1585
		c0.2964-0.2965,0.7055-0.4798,1.1579-0.4798c0.453,0,0.8628,0.1833,1.1596,0.4798c0.297,0.2967,0.4802,0.7063,0.4802,1.1585
		c0,0.4521-0.1833,0.8611-0.4799,1.1575c-0.2968,0.2964-0.707,0.4796-1.1599,0.4796c-0.4525,0-0.8615-0.1833-1.1579-0.4796
		s-0.4798-0.7052-0.4798-1.1575h-0.0676c0,0.9401,0.7631,1.7031,1.7041,1.7035c0.9427,0,1.7059-0.7634,1.7062-1.7035
		c-0.0003-0.9415-0.7635-1.7047-1.7062-1.7047c-0.9412,0-1.7041,0.7634-1.7041,1.7047h0.0342L55.8573,11.6969z"/>
	<path style="fill:#FFFFFF;" d="M7.6375,21.8826c0.4308-0.4318,0.9135-0.7515,1.4493-0.9602
		c0.5483-0.2224,1.1037-0.333,1.6651-0.333c0.5612,0,1.1097,0.1107,1.6452,0.333c0.5493,0.2087,1.0387,0.5283,1.4692,0.9602
		l0.6076,0.6066l-1.2147,1.2349l-0.6267-0.6076c-0.2609-0.2614-0.5551-0.4568-0.8816-0.5872
		c-0.3259-0.1315-0.6594-0.1954-0.9988-0.1954c-0.3396,0-0.6726,0.0639-0.9988,0.1954c-0.3267,0.1304-0.6207,0.326-0.8818,0.5872
		C8.61,23.3647,8.4145,23.652,8.2842,23.978c-0.1311,0.3265-0.1968,0.6594-0.1968,0.999c0,0.3391,0.0658,0.6731,0.1968,0.999
		c0.1301,0.3268,0.3257,0.621,0.5871,0.8822c0.523,0.5213,1.1492,0.7832,1.8806,0.7832c0.3524,0,0.6923-0.0651,1.0185-0.1956
		c0.3264-0.1306,0.6137-0.3264,0.8622-0.5874l0.6267-0.6083l1.2147,1.2343l-0.6076,0.6086
		c-0.4305,0.4303-0.9198,0.7564-1.4692,0.9783c-0.5355,0.2088-1.0839,0.3142-1.6452,0.3142c-0.5614,0-1.1168-0.1053-1.6651-0.3142
		c-0.5358-0.2219-1.0185-0.548-1.4493-0.9783c-0.4314-0.4314-0.7513-0.915-0.9605-1.4511c-0.2085-0.5356-0.313-1.0833-0.313-1.6447
		c0-0.5745,0.1044-1.1293,0.313-1.6657c0.209-0.5358,0.529-1.0183,0.9603-1.4491"/>
	<path style="fill:#FFFFFF;" d="M7.6375,21.8826l0.1414,0.1411c0.4134-0.4137,0.8713-0.7162,1.3806-0.9151l0.0023-0.0009
		c0.5264-0.2131,1.0552-0.318,1.5901-0.318c0.5347,0,1.0558,0.1047,1.5683,0.3177l0.0017,0.0003l0.0041,0.0018
		c0.5227,0.1989,0.9865,0.5016,1.3984,0.9142l0.4675,0.4667l-0.9358,0.952l-0.4842-0.4694l-0.1393,0.1435l0.1419-0.1416
		c-0.2787-0.2789-0.597-0.4914-0.9491-0.6317c-0.3484-0.14-0.7086-0.2101-1.0733-0.2101c-0.3652,0-0.7247,0.07-1.0736,0.2104
		c-0.3519,0.1402-0.6699,0.3525-0.9485,0.6314l0.1414,0.1416l-0.1379-0.1449c-0.281,0.2668-0.4944,0.5796-0.6346,0.9322
		c-0.1405,0.3481-0.2117,0.708-0.2114,1.0733c-0.0003,0.3649,0.0709,0.7252,0.2114,1.0736c0.14,0.3524,0.3521,0.6702,0.6314,0.9489
		c0.5541,0.556,1.2424,0.8439,2.0217,0.8421c0.3773,0,0.7436-0.0699,1.0929-0.2099c0.3527-0.1414,0.6659-0.3544,0.9328-0.636
		l-0.1451-0.1375l0.1396,0.1434l0.4839-0.4697l0.9361,0.9515l-0.4675,0.4681c-0.4124,0.4122-0.8783,0.7221-1.4025,0.9343
		l0.0747,0.1854l-0.0726-0.1868c-0.5137,0.2005-1.0364,0.3009-1.5725,0.3009s-1.0664-0.1003-1.594-0.3014l-0.0711,0.1872
		l0.0763-0.1848c-0.5107-0.2117-0.9701-0.5216-1.3841-0.9352c-0.4134-0.4137-0.7166-0.8724-0.9156-1.3818
		c-0.1999-0.5139-0.2991-1.0358-0.2991-1.5722c0-0.5503,0.0992-1.0791,0.2994-1.5934c0.1988-0.5086,0.5019-0.9672,0.9153-1.3798
		l-0.1414-0.14L7.496,21.7424c-0.4492,0.4477-0.7862,0.9555-1.0052,1.5174c-0.2178,0.5592-0.3271,1.1399-0.3267,1.7386
		c-0.0003,0.5863,0.1093,1.1597,0.3265,1.7172c0.2193,0.5629,0.5564,1.0711,1.0055,1.5197c0.4477,0.4477,0.9533,0.79,1.5139,1.0217
		l0.0027,0.0009l0.0026,0.0014c0.57,0.2168,1.1501,0.3274,1.7366,0.3274c0.5863,0,1.1605-0.1108,1.7179-0.328l0.0023-0.0008
		c0.5742-0.2318,1.0874-0.5742,1.5356-1.0223l0.7478-0.7491l-1.4929-1.5173l-0.7726,0.7498l-0.0024,0.0023
		c-0.2297,0.2416-0.4917,0.4194-0.7917,0.5399c-0.3029,0.1209-0.6159,0.1808-0.9439,0.1808
		c-0.6835-0.002-1.2479-0.2373-1.7392-0.7245c-0.2434-0.2434-0.4224-0.5133-0.5425-0.8144
		c-0.1224-0.3044-0.1827-0.6121-0.1827-0.9252c0-0.3134,0.0603-0.6201,0.1824-0.9241c0.1199-0.3002,0.298-0.5617,0.5393-0.7912
		l0.0012-0.0014l0.0024-0.0023c0.2435-0.2434,0.5136-0.4227,0.8145-0.5431c0.3041-0.1222,0.6102-0.181,0.9247-0.181
		c0.3142,0,0.621,0.0589,0.924,0.181c0.3015,0.1204,0.572,0.2999,0.8153,0.5431l0.0009,0.0012l0.7707,0.7465l1.4929-1.5177
		l-0.7481-0.7468c-0.4489-0.4504-0.9637-0.787-1.5395-1.0057l-0.0711,0.1871l0.0766-0.1846
		c-0.5583-0.2321-1.1345-0.3487-1.7217-0.3484c-0.5874,0-1.1699,0.1163-1.7404,0.3478l0.0753,0.1852l-0.0729-0.1863
		c-0.5623,0.219-1.0693,0.5554-1.5182,1.0051l0.1416,0.14L7.6375,21.8826z"/>
	<path style="fill:#FFFFFF;" d="M18.0391,23.0973c-0.5223,0.5227-0.7836,1.1494-0.7836,1.8799c0,0.406,0.0912,0.7908,0.2744,1.1564
		c0.1568-0.1569,0.3913-0.3913,0.7043-0.7054c0.327-0.326,0.6663-0.6656,1.0188-1.0183c0.3656-0.3655,0.7115-0.7118,1.0378-1.0378
		c0.3404-0.326,0.6014-0.5813,0.7844-0.764c-0.4968-0.2487-1.0255-0.3332-1.587-0.2545c-0.548,0.0776-1.0305,0.3257-1.4476,0.7428
		 M22.4093,26.2503l1.2336,1.2339l-0.607,0.608c-0.4178,0.4181-0.8946,0.7378-1.4305,0.9597
		c-0.5352,0.2221-1.0967,0.3329-1.6847,0.3329c-0.5869,0-1.1492-0.1108-1.6844-0.3329c-0.5355-0.2219-1.0121-0.5416-1.4302-0.9597
		c-0.4302-0.4314-0.7501-0.9147-0.9588-1.4499c-0.2088-0.5484-0.3142-1.104-0.3142-1.666c0-0.56,0.1053-1.109,0.3142-1.6456
		c0.2088-0.5349,0.5288-1.0179,0.9588-1.4489c0.4317-0.4306,0.9147-0.7504,1.4502-0.9602c0.5486-0.2213,1.1036-0.3327,1.6645-0.3327
		c0.5626,0,1.1107,0.1113,1.6458,0.3327c0.5487,0.2098,1.0389,0.5296,1.4695,0.9602l0.607,0.6067l-4.8776,4.8787
		c0.4968,0.2474,1.0188,0.3323,1.5674,0.2545c0.5617-0.0916,1.0507-0.3463,1.4692-0.7643l0.6104-0.6089L22.4093,26.2503z"/>
	<path style="fill:#FFFFFF;" d="M18.0391,23.0973l-0.1417-0.1414c-0.5565,0.5544-0.8439,1.2427-0.8421,2.0211
		c-0.0003,0.4358,0.0989,0.8539,0.2956,1.2457l0.1242,0.2483l0.1962-0.1962c0.1568-0.1566,0.3912-0.3918,0.7043-0.7052
		c0.327-0.3262,0.6663-0.6656,1.0188-1.0185c0.3656-0.3656,0.7115-0.7118,1.0378-1.0378l-0.1414-0.1414l0.1385,0.1445
		c0.3408-0.3268,0.6028-0.5828,0.787-0.7669l0.197-0.1962l-0.2484-0.1239c-0.4031-0.2024-0.8316-0.3046-1.2765-0.3046
		c-0.1411,0-0.284,0.0102-0.4282,0.0306c-0.5915,0.0837-1.1191,0.3557-1.563,0.8007l0.1416,0.1416l0.1411,0.1419
		c0.3926-0.391,0.8306-0.6143,1.336-0.6879c0.1263-0.0174,0.2504-0.026,0.3723-0.026c0.3839,0,0.7465,0.0858,1.0972,0.2617
		l0.0895-0.179l-0.1414-0.1416c-0.1817,0.181-0.4416,0.4356-0.7813,0.7611l-0.0018,0.0014l-0.0009,0.0017
		c-0.3267,0.3262-0.6728,0.672-1.0381,1.0378c-0.3525,0.3525-0.6917,0.692-1.0188,1.018c-0.3136,0.3142-0.5478,0.5487-0.7046,0.7057
		l0.1417,0.1416l0.1789-0.0897c-0.1697-0.3393-0.2533-0.6908-0.2533-1.0667c0.002-0.6822,0.2372-1.2473,0.725-1.7383l-0.1446-0.1416
		L18.0391,23.0973z M22.4078,26.2512l-0.1414,0.1417l1.0923,1.0923l-0.4661,0.4665c-0.3997,0.4003-0.8538,0.7043-1.3654,0.916
		c-0.5114,0.2122-1.0453,0.3178-1.608,0.3178c-0.562,0-1.0964-0.1056-1.6077-0.3178c-0.5118-0.2117-0.9647-0.5157-1.3652-0.9163
		c-0.4124-0.4137-0.7154-0.8724-0.9144-1.3812l0.0006,0.0017c-0.2008-0.5274-0.3006-1.0574-0.3006-1.5948
		c0-0.5349,0.0999-1.0584,0.3-1.5727c0.1989-0.5084,0.502-0.9672,0.9144-1.3806c0.4137-0.4124,0.8725-0.7154,1.3817-0.915
		l0.0018-0.0006c0.5265-0.2126,1.0549-0.3181,1.5894-0.3181c0.5361,0,1.0568,0.1053,1.5695,0.3171l0.0026,0.0014l0.0023,0.0006
		c0.5223,0.2002,0.9873,0.5034,1.3995,0.915l0.4652,0.4655l-4.9323,4.9333l0.2487,0.1239c0.4034,0.2014,0.8285,0.304,1.2674,0.304
		c0.1379,0,0.2772-0.0103,0.4174-0.0301l0.0023-0.0003l0.0018-0.0008c0.602-0.0973,1.1342-0.3751,1.5782-0.82l0.6076-0.6067
		l-0.1431-0.1431l-0.1414,0.1417l0.1416-0.1416l-0.1414-0.1414l-0.6075,0.6067c-0.3927,0.3909-0.8387,0.6229-1.3599,0.7084
		l0.032,0.1976l-0.028-0.1982c-0.1224,0.0172-0.2429,0.0259-0.3612,0.0259c-0.377,0-0.7367-0.0862-1.089-0.2615l-0.0892,0.1793
		l0.1414,0.1413l5.0192-5.0199l-0.7484-0.7484c-0.4492-0.4492-0.9641-0.7856-1.5394-1.0057l-0.0715,0.1872l0.0767-0.1849
		c-0.558-0.2311-1.1334-0.3478-1.7225-0.3478c-0.5876,0-1.1692,0.1169-1.7392,0.3472l0.0747,0.1856l-0.0729-0.1866
		c-0.5618,0.2201-1.0693,0.5567-1.5185,1.0051c-0.4484,0.449-0.7848,0.9562-1.0043,1.5181
		c-0.2171,0.558-0.3276,1.1329-0.3276,1.7181c0,0.5868,0.1101,1.1678,0.3268,1.7371l0.0024,0.005l-0.0017-0.0033
		c0.2193,0.5615,0.5557,1.0695,1.004,1.5185c0.4356,0.4361,0.9354,0.7714,1.4951,1.0034c0.5592,0.2318,1.1489,0.348,1.761,0.348
		c0.6131,0,1.2021-0.1161,1.7614-0.348c0.5595-0.2318,1.0596-0.5673,1.4952-1.0034l0.7483-0.7495l-1.5162-1.5165l-0.1414,0.1416
		l0.1416,0.14L22.4078,26.2512z"/>
	<path style="fill:#FFFFFF;" d="M24.6986,24.9772c0-0.6136,0.1105-1.1812,0.3324-1.7035c0.2355-0.5356,0.5484-0.999,0.9408-1.391
		c0.4043-0.405,0.8749-0.7182,1.4092-0.9413c0.5361-0.2338,1.1045-0.3516,1.7054-0.3516c0.6139,0,1.1818,0.1177,1.7047,0.3516
		c0.5346,0.2232,1.0049,0.5361,1.41,0.9413c0.4043,0.392,0.7185,0.8553,0.9404,1.391c0.2343,0.5224,0.3522,1.0899,0.3522,1.7035
		v4.4085H31.75v-4.4085c0-0.3649-0.0712-0.704-0.2152-1.018c-0.1303-0.3262-0.32-0.6076-0.5684-0.8425
		c-0.2343-0.2483-0.5154-0.4376-0.8425-0.5682c-0.3262-0.1431-0.672-0.2145-1.0375-0.2145c-0.3659,0-0.7115,0.0714-1.0387,0.2145
		c-0.313,0.1306-0.5938,0.3201-0.8422,0.5682c-0.2343,0.2349-0.4244,0.5165-0.5681,0.8425c-0.1301,0.314-0.1953,0.653-0.1953,1.018
		v4.4085h-1.7436v-4.408L24.6986,24.9772z"/>
	<path style="fill:#FFFFFF;" d="M24.6986,24.9772h0.1999c0-0.5894,0.1056-1.1291,0.3169-1.6254l-0.1843-0.0782l0.183,0.0805
		c0.2265-0.5146,0.5253-0.9561,0.8993-1.3301c0.3863-0.3866,0.8332-0.6847,1.3448-0.8978l0.0026-0.0011l0.0006-0.0003
		c0.5108-0.2225,1.0504-0.3347,1.6251-0.3347c0.5883,0,1.1267,0.1122,1.6229,0.3341l0.0026,0.0014l0.0021,0.0006
		c0.5119,0.2131,0.9588,0.5111,1.3457,0.8978l0.0009,0.0011l0.0014,0.0014c0.3847,0.3731,0.6822,0.8125,0.8947,1.3237l0.0006,0.0017
		l0.0017,0.0035c0.2222,0.4959,0.3347,1.034,0.3347,1.6217v4.2083h-1.3436l0.0003-4.2083c0-0.3906-0.0775-0.7608-0.234-1.1014
		l-0.1817,0.0836l0.1857-0.074c-0.1402-0.3516-0.3471-0.6589-0.6166-0.9139l-0.1373,0.1454l0.1454-0.1373
		c-0.2542-0.2693-0.5614-0.4761-0.9135-0.6169l-0.0744,0.186l0.0805-0.1834c-0.3516-0.1545-0.7265-0.2315-1.118-0.2314
		c-0.3921-0.0003-0.7669,0.0769-1.1189,0.2314l0.0802,0.1834l-0.077-0.1848c-0.3373,0.141-0.6407,0.3464-0.9066,0.6116
		c-0.253,0.2533-0.4568,0.5565-0.6096,0.9036l-0.0009,0.0023l-0.0006,0.0017c-0.1411,0.339-0.2111,0.7061-0.2108,1.0946v4.2083
		h-1.3435v-4.2083h-0.3967v4.6088h2.1438v-4.6088c0-0.341,0.0603-0.6529,0.1802-0.941l-0.1849-0.077l0.1831,0.0808
		c0.135-0.306,0.3107-0.5652,0.5264-0.7821c0.2314-0.2306,0.4894-0.4046,0.7781-0.5251l0.003-0.0012
		c0.302-0.1321,0.6186-0.1977,0.9584-0.1977c0.3393,0,0.6564,0.0656,0.9573,0.1977l0.0043,0.0015l0.0018,0.0006
		c0.3015,0.1213,0.5568,0.2938,0.771,0.5206l0.0041,0.004l0.004,0.004c0.2276,0.2148,0.3994,0.47,0.52,0.7708l0.002,0.0059
		l0.002,0.0037c0.1318,0.2865,0.1971,0.5955,0.1971,0.9343v4.6088h2.144V24.977c0.0003-0.6392-0.1236-1.2365-0.3696-1.7853
		l-0.1828,0.0817l0.1846-0.0767c-0.232-0.5594-0.562-1.0472-0.9859-1.4579l-0.1393,0.1437l0.1414-0.1417
		c-0.4233-0.4236-0.9168-0.7521-1.4747-0.9841l-0.0767,0.1845l0.0814-0.1824c-0.5489-0.246-1.1468-0.3696-1.7861-0.3693
		c-0.627-0.0003-1.2243,0.1238-1.7853,0.3684l0.0799,0.1833l-0.0769-0.1845c-0.5577,0.2318-1.0511,0.5605-1.4741,0.9841
		c-0.4101,0.4099-0.7375,0.8955-0.9819,1.452l-0.0009,0.0021c-0.2337,0.5487-0.3489,1.1447-0.3487,1.782h0.2023L24.6986,24.9772z"/>
	<path style="fill:#FFFFFF;" d="M35.8241,21.8826c0.4314-0.4318,0.9141-0.7515,1.4499-0.9602
		c0.5484-0.2224,1.1028-0.333,1.6651-0.333c0.5615,0,1.11,0.1107,1.6455,0.333c0.5484,0.2087,1.0381,0.5283,1.4689,0.9602
		l0.6076,0.6066l-1.2145,1.2349l-0.6268-0.6076c-0.2617-0.2614-0.5547-0.4568-0.8815-0.5872
		c-0.3274-0.1315-0.6603-0.1954-0.9991-0.1954c-0.3396,0-0.6726,0.0639-0.9995,0.1954c-0.3268,0.1304-0.6198,0.326-0.8815,0.5872
		c-0.261,0.2483-0.4568,0.5355-0.588,0.8615c-0.1295,0.3265-0.1956,0.6594-0.1956,0.999c0,0.3391,0.0661,0.6731,0.1956,0.999
		c0.1312,0.3268,0.327,0.621,0.588,0.8822c0.5223,0.5213,1.1489,0.7832,1.8809,0.7832c0.3524,0,0.6914-0.0651,1.0182-0.1956
		c0.3264-0.1306,0.614-0.3264,0.8625-0.5874l0.6268-0.6083l1.2145,1.2343l-0.6076,0.6086
		c-0.4308,0.4303-0.9205,0.7564-1.4689,0.9783c-0.5355,0.2088-1.0838,0.3142-1.6455,0.3142c-0.5623,0-1.1167-0.1053-1.6651-0.3142
		c-0.5358-0.2219-1.0185-0.548-1.4499-0.9783c-0.4311-0.4314-0.7515-0.915-0.9596-1.4511
		c-0.2093-0.5356-0.3142-1.0833-0.3142-1.6447c0-0.5745,0.1047-1.1293,0.3142-1.6657c0.207-0.5358,0.5267-1.0183,0.9574-1.4491"/>
	<path style="fill:#FFFFFF;" d="M35.8241,21.8826l0.1414,0.1411c0.4137-0.4134,0.8719-0.7162,1.3809-0.9151l0.0026-0.0009
		c0.5265-0.2131,1.0538-0.318,1.59-0.318c0.5352,0,1.0561,0.1047,1.5684,0.3177l0.0026,0.0009l0.0029,0.0012
		c0.5223,0.1989,0.9865,0.5016,1.399,0.9142l0.4672,0.4667l-0.9361,0.952l-0.4839-0.4694l-0.1393,0.1435l0.1414-0.1416
		c-0.279-0.2789-0.5964-0.491-0.9488-0.6317c-0.3492-0.14-0.7089-0.2101-1.0733-0.2101c-0.365,0-0.725,0.07-1.0742,0.2101
		c-0.3518,0.1408-0.6691,0.3528-0.9482,0.6317l0.1414,0.1416l-0.1384-0.1449c-0.2804,0.2668-0.4938,0.5796-0.6353,0.9322
		c-0.1385,0.3489-0.2101,0.708-0.2101,1.0733s0.0715,0.7252,0.2098,1.0727c0.1413,0.3533,0.3538,0.6711,0.6323,0.9495
		c0.5541,0.5564,1.2427,0.8442,2.0227,0.8424c0.3769,0,0.7427-0.0699,1.0923-0.2099c0.353-0.1414,0.6666-0.3544,0.9334-0.636
		l-0.1451-0.1375l0.1393,0.1431l0.4839-0.4694l0.9361,0.9515l-0.4672,0.4681c-0.4128,0.4122-0.8789,0.7221-1.4025,0.9343
		l0.075,0.1854l-0.0729-0.1868c-0.5136,0.2005-1.0364,0.3009-1.5725,0.3009c-0.5375,0-1.0664-0.1003-1.5943-0.3014l-0.0708,0.1872
		l0.0763-0.1848c-0.5107-0.2117-0.9704-0.5216-1.3847-0.9352c-0.4134-0.4137-0.7166-0.8724-0.9147-1.3815
		c-0.2008-0.5142-0.3-1.0364-0.3-1.5725c0-0.55,0.0995-1.0791,0.3-1.5931c0.198-0.5089,0.5013-0.9675,0.9147-1.3801l-0.1446-0.1431
		l-0.1414-0.1414c-0.4489,0.4477-0.7862,0.9555-1.0046,1.5177c-0.2181,0.5586-0.3277,1.1393-0.3277,1.7383
		c0,0.5863,0.1099,1.16,0.3277,1.7176c0.2186,0.5624,0.5554,1.0707,1.0046,1.5193c0.4481,0.4477,0.9539,0.79,1.5146,1.0217
		l0.0017,0.0009l0.0038,0.0014c0.5693,0.2168,1.1494,0.3274,1.7363,0.3274c0.5863,0,1.1608-0.1108,1.7179-0.328l0.0021-0.0011
		c0.5737-0.2315,1.0871-0.574,1.5356-1.022l0.7478-0.7491l-1.4934-1.5173l-0.7713,0.7489l-0.0032,0.0032
		c-0.2298,0.2413-0.4921,0.4194-0.792,0.5399c-0.3037,0.1209-0.6157,0.1808-0.9437,0.1808
		c-0.6844-0.002-1.2488-0.2373-1.7398-0.7242c-0.2429-0.2437-0.4224-0.5139-0.5433-0.815
		c-0.1209-0.3041-0.1814-0.6119-0.1814-0.9249c0-0.3134,0.0606-0.6204,0.1817-0.9252c0.1199-0.2988,0.2982-0.5608,0.5393-0.7902
		l0.0015-0.0014l0.0021-0.002c0.2445-0.2442,0.5137-0.423,0.8145-0.5434c0.3044-0.1222,0.6108-0.181,0.9253-0.181
		c0.3139,0,0.6198,0.0589,0.9244,0.181c0.3012,0.1204,0.5707,0.2994,0.8148,0.5434l0.7713,0.7474l1.4929-1.5177l-0.7478-0.7468
		c-0.4492-0.4504-0.9643-0.787-1.5391-1.0057l-0.0712,0.1871l0.0767-0.1846c-0.5588-0.2321-1.1345-0.3487-1.7222-0.3484
		c-0.5888,0-1.1699,0.1163-1.7401,0.3478l0.075,0.1852l-0.0729-0.1863c-0.5623,0.219-1.0696,0.5551-1.5185,1.0051l0.1446,0.1431
		L35.8241,21.8826z"/>
	<path style="fill:#FFFFFF;" d="M45.4426,24.9772c0,0.3671,0.065,0.7131,0.1959,1.0393c0.1441,0.3259,0.3327,0.6136,0.5679,0.8618
		c0.2483,0.2346,0.5355,0.4238,0.8618,0.5676c0.3256,0.1315,0.6728,0.1961,1.0387,0.1961c0.365,0,0.7115-0.0645,1.0374-0.1961
		c0.327-0.1437,0.6073-0.333,0.843-0.5676c0.248-0.2483,0.437-0.536,0.5681-0.8618c0.1435-0.3264,0.2152-0.6722,0.2152-1.0393
		c0-0.3649-0.0717-0.704-0.2152-1.018c-0.1311-0.3262-0.3203-0.6076-0.5681-0.8415c-0.2356-0.2493-0.516-0.4381-0.843-0.5687
		c-0.326-0.1437-0.6723-0.2151-1.0374-0.2151c-0.3659,0-0.7133,0.0714-1.0387,0.2151c-0.3265,0.1306-0.6136,0.3195-0.8618,0.5687
		c-0.2353,0.2338-0.4238,0.5154-0.5679,0.8415c-0.1324,0.3151-0.1964,0.653-0.1964,1.0183 M43.7176,24.9775
		c0-0.6127,0.1108-1.1812,0.3327-1.7035c0.2352-0.5356,0.5487-0.999,0.9401-1.391c0.405-0.405,0.8755-0.7182,1.4104-0.9402
		c0.5355-0.2349,1.1034-0.3525,1.705-0.3525c0.613,0,1.1818,0.1177,1.7039,0.3525c0.5353,0.2221,1.0052,0.5352,1.4107,0.9402
		c0.404,0.392,0.7182,0.8553,0.9399,1.391c0.2352,0.5224,0.3525,1.0908,0.3525,1.7035c0,0.6017-0.1174,1.1696-0.3525,1.705
		c-0.2218,0.535-0.536,1.0057-0.9399,1.411c-0.4054,0.4046-0.8754,0.7236-1.4107,0.9597c-0.5223,0.2218-1.0909,0.3329-1.7039,0.3329
		c-0.6016,0-1.1696-0.111-1.705-0.3329c-0.5349-0.2361-1.0052-0.555-1.4104-0.9597c-0.3914-0.4052-0.7049-0.876-0.9401-1.411
		c-0.2207-0.5358-0.3318-1.1036-0.3318-1.7048"/>
	<path style="fill:#FFFFFF;" d="M45.4426,24.9772h-0.2c-0.0003,0.3909,0.0693,0.7635,0.2107,1.1139l0.0006,0.0021l0.0015,0.0041
		c0.1527,0.3449,0.3541,0.6532,0.606,0.9183l0.0041,0.0044l0.0032,0.0032c0.2655,0.251,0.5729,0.4536,0.9189,0.6057l0.0035,0.0015
		l0.002,0.0011c0.3509,0.1416,0.7244,0.2108,1.1138,0.2108c0.3885,0,0.7617-0.0693,1.1125-0.2108l0.0012-0.0008l0.0041-0.0015
		c0.3478-0.153,0.65-0.3565,0.9039-0.6098c0.267-0.2665,0.472-0.5787,0.6124-0.9285l-0.1857-0.0746l0.1834,0.0802
		c0.1543-0.3509,0.2321-0.7264,0.2318-1.1196c0.0003-0.3912-0.0776-0.7608-0.2333-1.101l-0.1819,0.0831l0.1857-0.0746
		c-0.1408-0.351-0.3474-0.6583-0.6165-0.9122l-0.1373,0.1454l0.1451-0.1373c-0.2548-0.2699-0.5614-0.4769-0.9139-0.6171
		l-0.0741,0.1857l0.0808-0.183c-0.3516-0.1554-0.7267-0.2326-1.1183-0.2323c-0.3921-0.0003-0.7682,0.0769-1.1196,0.2323
		l0.0808,0.183l-0.0743-0.1857c-0.3509,0.1402-0.6623,0.3455-0.9293,0.613l0.0006-0.0006
		c-0.2542,0.2527-0.4568,0.5565-0.6099,0.9029l-0.0009,0.002l-0.0006,0.0017c-0.1422,0.3393-0.2116,0.7067-0.2113,1.0949h0.3988
		c0-0.3413,0.0603-0.6529,0.1804-0.9407l-0.1845-0.0773L45.82,24.04c0.1353-0.3063,0.3098-0.5652,0.5259-0.7804l0.0009-0.0006
		c0.2297-0.2305,0.4923-0.4034,0.7944-0.5242l0.0035-0.0017l0.003-0.0012c0.3003-0.1324,0.6177-0.198,0.9579-0.198
		c0.339,0,0.6562,0.0656,0.9565,0.198l0.0035,0.0015l0.0032,0.0014c0.302,0.1209,0.5559,0.2924,0.7717,0.5204l0.0032,0.0035
		l0.0047,0.0044c0.2265,0.2139,0.3985,0.4691,0.52,0.7707l0.0017,0.004l0.002,0.0044c0.1311,0.2871,0.1971,0.5961,0.1971,0.9349
		c0,0.341-0.0661,0.6576-0.1985,0.9588l-0.0009,0.0029l-0.0014,0.0029c-0.1215,0.3023-0.295,0.5658-0.5241,0.7949
		c-0.2174,0.2172-0.4754,0.392-0.7818,0.5264l0.0802,0.1831l-0.0747-0.1857c-0.3014,0.1215-0.6209,0.1817-0.9626,0.1817
		c-0.3429,0-0.6628-0.0603-0.9641-0.1817l-0.0746,0.1857l0.0805-0.1828c-0.3069-0.1356-0.5737-0.3116-0.8048-0.53l-0.1376,0.1454
		l0.1449-0.1379c-0.2189-0.2306-0.3941-0.4979-0.5299-0.8048l-0.183,0.0808l0.1854-0.0749
		c-0.1207-0.3017-0.1813-0.6207-0.1813-0.9644h-0.2015L45.4426,24.9772z M43.718,24.9772h0.2c0-0.5885,0.1059-1.1291,0.3171-1.6254
		l-0.1843-0.0782l0.1834,0.0805c0.2257-0.5146,0.5251-0.9561,0.8981-1.3301c0.3869-0.3866,0.834-0.6844,1.3456-0.8967l0.0021-0.0009
		l0.0018-0.0006c0.5101-0.2236,1.0491-0.3358,1.6245-0.3358c0.5873,0,1.1262,0.1122,1.6217,0.3347l0.0032,0.0017l0.0024,0.0009
		c0.5119,0.2123,0.9585,0.5101,1.3456,0.8967l0.0046,0.0044l-0.0026-0.0026c0.3847,0.3735,0.6822,0.813,0.8947,1.3241l0.0011,0.0032
		l0.0012,0.0024c0.2227,0.4956,0.3347,1.0346,0.335,1.6214c-0.0003,0.5755-0.1117,1.1142-0.3356,1.6249l-0.002,0.0043l0.0003-0.0003
		c-0.2127,0.5113-0.5108,0.9588-0.8972,1.3457c-0.3874,0.3868-0.8357,0.6914-1.3492,0.9179l0.0805,0.1831l-0.0782-0.1842
		c-0.4962,0.211-1.0369,0.3169-1.6258,0.3169c-0.577,0-1.1179-0.1056-1.6283-0.3175l-0.0767,0.1848l0.0805-0.1831
		c-0.5134-0.2265-0.9622-0.5311-1.3495-0.9182l-0.1414,0.1417l0.1441-0.1391c-0.3748-0.388-0.6751-0.8375-0.9011-1.3523
		l-0.1831,0.0804l0.1846-0.0761c-0.2117-0.5111-0.3174-1.0521-0.3174-1.6289h-0.3991c0,0.6258,0.1155,1.2218,0.348,1.7818
		l0.0015,0.0037c0.2439,0.5557,0.5716,1.0469,0.9798,1.4693l0.002,0.002l0.0003,0.0006c0.4227,0.4219,0.9147,0.7562,1.4709,1.0013
		l0.0024,0.0012l0.002,0.0006c0.56,0.2318,1.1556,0.3483,1.7817,0.3483c0.6369,0,1.2337-0.1158,1.7823-0.3489l0.0023-0.0012
		c0.5567-0.2451,1.0485-0.5796,1.4712-1.001c0.4227-0.4238,0.7519-0.9174,0.9836-1.4759l-0.1848-0.0769l0.1831,0.0805
		c0.2463-0.5608,0.3699-1.1581,0.3696-1.7855c0.0003-0.6379-0.123-1.2365-0.3702-1.7855l-0.1825,0.082l0.1848-0.0767
		c-0.2318-0.5594-0.562-1.0472-0.9858-1.4579l-0.139,0.1437l0.1411-0.1417c-0.4233-0.4236-0.9165-0.7521-1.4748-0.9832
		l-0.0769,0.1846l0.0819-0.1824c-0.5489-0.247-1.1473-0.3706-1.7858-0.3703c-0.6276-0.0003-1.225,0.1238-1.7853,0.3696
		l0.0802,0.1831l-0.0767-0.1846c-0.558,0.2311-1.0521,0.5595-1.4751,0.9832c-0.4095,0.4099-0.7375,0.8955-0.9819,1.4523
		l-0.0015,0.0035l0.0006-0.0018c-0.2333,0.5487-0.3486,1.1454-0.3486,1.782h0.2012L43.718,24.9772z"/>
	<path style="fill:#FFFFFF;" d="M61.5045,20.5903v1.7442h-5.3079c-0.2483,0-0.4568,0.0836-0.6268,0.2545
		c-0.1702,0.1691-0.255,0.3781-0.255,0.6262c0,0.2484,0.0848,0.4633,0.255,0.6465c0.17,0.1703,0.3786,0.2544,0.6268,0.2544h3.5261
		c0.3658,0,0.7058,0.0718,1.018,0.2158c0.3268,0.13,0.6078,0.313,0.8427,0.5484c0.2481,0.2352,0.4372,0.5156,0.5685,0.8416
		c0.1428,0.3134,0.2152,0.6535,0.2152,1.0194c0,0.3656-0.0725,0.7125-0.2152,1.0387c-0.1314,0.3137-0.3204,0.5939-0.5685,0.8408
		c-0.2349,0.2352-0.5159,0.4254-0.8427,0.5688c-0.3123,0.1309-0.6522,0.1964-1.018,0.1964h-5.2891V27.642h5.2891
		c0.2614,0,0.4761-0.0846,0.6462-0.2548c0.1697-0.1702,0.2551-0.3848,0.2551-0.646c0-0.248-0.0854-0.4571-0.2551-0.627
		c-0.17-0.1696-0.3848-0.2551-0.6462-0.2551h-3.5261c-0.3655,0-0.7121-0.065-1.0387-0.1954
		c-0.3128-0.1434-0.5874-0.333-0.822-0.5682c-0.2352-0.2481-0.4242-0.5291-0.5684-0.8418c-0.1308-0.3267-0.1953-0.673-0.1953-1.0384
		c0-0.3661,0.0645-0.7048,0.1953-1.0185c0.1441-0.3267,0.3332-0.6075,0.5684-0.843c0.2346-0.2343,0.5093-0.4177,0.822-0.5483
		c0.3267-0.1435,0.6733-0.2152,1.0387-0.2152h5.3055L61.5045,20.5903z"/>
	<path style="fill:#FFFFFF;" d="M61.5045,20.5903h-0.2v1.5441h-5.1079c-0.2932-0.0023-0.565,0.1059-0.7688,0.3133
		c-0.2058,0.2023-0.3148,0.4742-0.3131,0.7678c-0.0015,0.2942,0.1067,0.5676,0.3084,0.7827l0.0023,0.0029l0.0024,0.0026
		c0.2041,0.2063,0.4757,0.3148,0.7688,0.313h3.5261c0.3396,0,0.6489,0.0665,0.9346,0.1976l0.004,0.002l0.0055,0.0023
		c0.3035,0.1204,0.5595,0.2881,0.7748,0.504l0.0018,0.0012l0.0026,0.0024c0.2273,0.2158,0.3993,0.47,0.5207,0.7711l0.0015,0.0044
		l0.0021,0.004c0.1301,0.2868,0.1968,0.5968,0.1971,0.9363c0,0.339-0.0668,0.6573-0.1985,0.9585l-0.0026,0.0056l0.0012-0.0029
		c-0.1213,0.2897-0.2948,0.5472-0.525,0.7763c-0.2177,0.2177-0.4763,0.3932-0.7821,0.5276l0.0804,0.1834l-0.0772-0.1846
		c-0.2868,0.1201-0.5991,0.1808-0.941,0.1808h-5.0887v-1.3438h5.0887c0.3034,0.0018,0.5822-0.1046,0.7879-0.3143
		c0.2075-0.2046,0.3154-0.4827,0.3136-0.7867c0.002-0.2938-0.1079-0.565-0.314-0.7685c-0.2047-0.2075-0.483-0.3157-0.7873-0.3139
		h-3.5261c-0.342,0-0.6621-0.0601-0.9649-0.1808l-0.0738,0.1857l0.0836-0.1817c-0.2923-0.1344-0.5465-0.3101-0.7643-0.528
		l-0.1414,0.1416l0.1451-0.1375c-0.2201-0.2323-0.3965-0.4942-0.5318-0.7882l-0.1816,0.0839l0.186-0.0741
		c-0.1212-0.3023-0.1811-0.6221-0.1811-0.9643c0-0.3425,0.0601-0.6533,0.1799-0.9415l-0.1846-0.0772l0.1828,0.0805
		c0.1356-0.3064,0.3105-0.565,0.527-0.7822c0.2161-0.2155,0.4681-0.3837,0.7579-0.5049l0.0033-0.0017
		c0.3012-0.1323,0.6186-0.1977,0.9582-0.198h5.3079v-0.2044h-0.2h0.1971v-0.2H56.194c-0.3912-0.0003-0.7673,0.0772-1.1196,0.2321
		l0.0808,0.1831l-0.0772-0.1845c-0.3355,0.14-0.6335,0.3382-0.8864,0.5912c-0.2536,0.2539-0.4568,0.5565-0.6102,0.9037
		l-0.0011,0.0027l-0.0006,0.0017c-0.1416,0.3393-0.2108,0.7055-0.2105,1.095c-0.0003,0.3892,0.069,0.7621,0.2094,1.113
		l0.0024,0.0053l0.002,0.0038c0.1527,0.332,0.3547,0.6317,0.6048,0.8958l0.0018,0.0023l0.0018,0.0017
		c0.2518,0.2521,0.5474,0.456,0.8803,0.6086l0.0047,0.0023l0.0044,0.0017c0.351,0.1406,0.7239,0.2099,1.1132,0.2099h3.5261
		c0.2183,0.0021,0.3703,0.0651,0.5043,0.1968c0.1339,0.1364,0.1944,0.2833,0.1968,0.4853
		c-0.0024,0.2181-0.0648,0.3699-0.1968,0.5043c-0.1341,0.1321-0.2851,0.1941-0.5043,0.1964h-5.4891v2.1446h5.4891
		c0.3894,0,0.7568-0.0708,1.0956-0.212l0.0024-0.0014l0.0003-0.0003c0.3481-0.1522,0.6504-0.3571,0.904-0.6107
		c0.2652-0.2636,0.4702-0.5675,0.6116-0.9049l-0.1846-0.0773l0.1831,0.0801c0.1539-0.3512,0.2321-0.7267,0.2321-1.1189
		c0-0.3923-0.0784-0.7623-0.2333-1.102l-0.1819,0.0827l0.1856-0.0744c-0.141-0.3516-0.3472-0.6573-0.6166-0.9122l-0.1375,0.1451
		l0.1417-0.1414c-0.2545-0.2553-0.5603-0.4538-0.9104-0.5929l-0.0738,0.1859l0.0839-0.1814
		c-0.3397-0.1566-0.7099-0.2349-1.1019-0.2346h-3.5261c-0.2031-0.0018-0.3489-0.0616-0.4857-0.1954l-0.1411,0.1414l0.1467-0.1359
		c-0.1379-0.1518-0.1999-0.3079-0.2014-0.5105c0.002-0.2026,0.0624-0.3489,0.1958-0.4847c0.1373-0.1346,0.2827-0.1942,0.4857-0.1961
		h5.5081v-2.1444h-0.2v0.1989L61.5045,20.5903z"/>
	<path style="fill:#FFFFFF;" d="M72.219,20.5903v4.3875c0,0.6011-0.1175,1.1693-0.353,1.705
		c-0.2213,0.5344-0.5352,1.0051-0.9398,1.411c-0.4049,0.4046-0.8752,0.7236-1.4107,0.9587
		c-0.5223,0.2222-1.0899,0.3338-1.7039,0.3338c-0.6006,0-1.1692-0.1116-1.7041-0.3338c-0.5359-0.235-1.0055-0.5541-1.4103-0.9587
		c-0.3918-0.406-0.7055-0.8766-0.9405-1.411c-0.2224-0.5358-0.333-1.1039-0.333-1.705v-4.3875h1.743v4.3875
		c0,0.3671,0.0658,0.7124,0.1962,1.0393c0.1438,0.3253,0.3327,0.6128,0.5681,0.8611c0.2486,0.2347,0.5284,0.4238,0.8427,0.5682
		c0.3262,0.1304,0.672,0.1956,1.0378,0.1956c0.3652,0,0.7113-0.0651,1.0383-0.1956c0.3262-0.1445,0.607-0.3335,0.8428-0.5682
		c0.2475-0.2483,0.4366-0.536,0.567-0.8611c0.1441-0.327,0.2158-0.6722,0.2158-1.0393v-4.3875h1.7429H72.219z"/>
	<path style="fill:#FFFFFF;" d="M72.219,20.5903h-0.2v4.3875c-0.0005,0.5749-0.1116,1.1139-0.3361,1.6249L71.682,26.605
		l-0.0006,0.0015c-0.2125,0.511-0.5105,0.9585-0.8972,1.346c-0.3869,0.3868-0.8349,0.6914-1.3489,0.9168l0.0802,0.1831
		l-0.0782-0.184c-0.4965,0.2116-1.0361,0.3178-1.6258,0.3178c-0.5757,0-1.1168-0.1062-1.6275-0.3184l-0.0766,0.1846l0.0801-0.1831
		c-0.5139-0.2254-0.9617-0.53-1.3488-0.9171l-0.1416,0.1417l0.1438-0.1391c-0.3754-0.3883-0.6754-0.8383-0.9014-1.3523
		l-0.183,0.0804l0.1849-0.0764c-0.2122-0.5111-0.318-1.0524-0.318-1.6286v-4.1873h1.3428v4.1873
		c-0.0003,0.3909,0.0705,0.7632,0.2104,1.1132l0.0017,0.0033l0.0014,0.0035c0.1524,0.3446,0.3539,0.6526,0.6063,0.9177
		l0.0041,0.0044l0.0032,0.0032c0.2636,0.2495,0.5627,0.4518,0.8966,0.6051l0.0049,0.0023l0.0041,0.002
		c0.3503,0.14,0.723,0.2099,1.1124,0.2099c0.3889,0,0.7615-0.0699,1.1124-0.2099l0.0027-0.0011l0.0041-0.0018
		c0.3466-0.1536,0.649-0.3569,0.9033-0.6098c0.2667-0.267,0.4716-0.579,0.6116-0.929l-0.1859-0.0738l0.1831,0.0808
		c0.1554-0.3521,0.2329-0.727,0.2329-1.1202v-4.1873h1.5433v-0.1999h-0.2h0.1948v-0.2h-1.9433v4.5876
		c-0.0003,0.3413-0.0662,0.6567-0.1989,0.9585l-0.002,0.0037l-0.0011,0.0026c-0.1204,0.3014-0.2938,0.5646-0.5229,0.7941
		c-0.2174,0.2163-0.4763,0.3915-0.7821,0.5271l0.0808,0.1828l-0.0744-0.1857c-0.3025,0.1206-0.6221,0.1811-0.9638,0.1811
		c-0.3422,0-0.6617-0.0606-0.9637-0.1811l-0.0741,0.1857l0.0834-0.1814c-0.2951-0.1358-0.5556-0.3122-0.7882-0.5321l-0.1379,0.1454
		l0.1454-0.1378c-0.219-0.2311-0.3953-0.4984-0.5306-0.8045l-0.1828,0.0811l0.1859-0.0743
		c-0.1209-0.3032-0.1821-0.6217-0.1821-0.9651v-4.5876h-2.1431v4.5876c0,0.6255,0.1157,1.2212,0.3486,1.7818l0.0009,0.0023
		l0.0008,0.0018c0.244,0.5545,0.5708,1.0459,0.9797,1.469l0.0021,0.002l0.0003,0.0006c0.4219,0.4218,0.9139,0.7559,1.4712,1.0002
		l0.0023,0.0014l0.0015,0.0006c0.5599,0.2324,1.1558,0.3492,1.7809,0.3492c0.6381,0,1.2342-0.1167,1.7822-0.3501l0.0024-0.0011
		c0.557-0.2443,1.0492-0.5783,1.4715-1.0002c0.4233-0.4241,0.7523-0.918,0.9833-1.4756l-0.1849-0.0769l0.1833,0.0805
		c0.2469-0.5614,0.3703-1.1584,0.37-1.7855v-4.5876H72.214v0.202L72.219,20.5903z"/>
	<path style="fill:#FFFFFF;" d="M77.6836,27.641c0.3652,0,0.7058-0.0648,1.0194-0.195c0.3262-0.1445,0.6058-0.3338,0.8416-0.5688
		c0.2483-0.248,0.4379-0.5356,0.5678-0.8611c0.1441-0.3267,0.2159-0.6719,0.2159-1.0393v-2.6432h-2.6448
		c-0.3659,0-0.7115,0.0708-1.0378,0.2146c-0.3267,0.1308-0.6137,0.3204-0.8615,0.5684c-0.2361,0.2349-0.4245,0.5157-0.5684,0.8416
		c-0.1306,0.3142-0.1962,0.6538-0.1962,1.0185c0,0.3675,0.0656,0.7127,0.1962,1.0393c0.1439,0.3256,0.3324,0.6131,0.5684,0.8611
		c0.2478,0.235,0.5349,0.4244,0.8615,0.5688c0.3257,0.1309,0.6713,0.1948,1.0366,0.1948 M82.0706,17.0647v7.9127
		c0,0.6014-0.1178,1.1696-0.3531,1.7057c-0.2212,0.5343-0.5346,1.0049-0.9395,1.4106c-0.392,0.4043-0.855,0.7239-1.3911,0.9587
		c-0.5354,0.2225-1.1037,0.3338-1.7044,0.3338c-0.6003,0-1.1684-0.1113-1.7038-0.3338c-0.5359-0.2347-1.0057-0.5544-1.4107-0.9587
		c-0.4046-0.4057-0.7246-0.8763-0.9597-1.4106c-0.2221-0.5361-0.3335-1.1043-0.3335-1.7057c0-0.6131,0.1114-1.1815,0.3335-1.703
		c0.2352-0.5361,0.555-0.9998,0.9597-1.391c0.4049-0.4053,0.8748-0.7186,1.4107-0.9413c0.5355-0.2337,1.1034-0.3518,1.7038-0.3518
		h2.6448v-3.5258h1.7444L82.0706,17.0647z"/>
	<path style="fill:#FFFFFF;" d="M77.6836,27.641v0.2002c0.3892,0,0.7571-0.0693,1.096-0.211l0.0038-0.0015
		c0.3474-0.1533,0.6489-0.3569,0.9025-0.6098c0.2668-0.2673,0.4729-0.5787,0.6125-0.929l-0.186-0.0741l0.1833,0.0808
		c0.1556-0.3521,0.2326-0.7268,0.2326-1.1202V22.133h-2.8448c-0.3915-0.0003-0.7669,0.0767-1.1188,0.2315l0.0808,0.1831
		l-0.0744-0.1857c-0.3513,0.1402-0.6623,0.3461-0.9287,0.6124c-0.2545,0.2533-0.4577,0.5564-0.6098,0.9029l-0.0017,0.0033
		c-0.1417,0.3396-0.2119,0.707-0.2119,1.0955c0,0.3915,0.0702,0.7638,0.2108,1.1139l0.0017,0.004l0.0011,0.002
		c0.1521,0.3452,0.3538,0.6532,0.6061,0.9186l0.0032,0.0032l0.0041,0.004c0.2649,0.251,0.572,0.4535,0.9183,0.6063l0.0027,0.0009
		l0.0036,0.002c0.3503,0.14,0.723,0.2096,1.1124,0.2096v-0.3974c-0.3422,0-0.6614-0.0601-0.9638-0.1808l-0.074,0.186l0.0805-0.1831
		c-0.3072-0.1356-0.5736-0.3122-0.8046-0.5311l-0.1375,0.1454l0.1451-0.1378c-0.2193-0.2308-0.3955-0.4977-0.5303-0.8039
		l-0.1831,0.0805l0.1862-0.0743c-0.1216-0.3029-0.1821-0.6212-0.1821-0.9651c0-0.3411,0.0604-0.6529,0.1808-0.9413l-0.1848-0.0773
		l0.1831,0.0808c0.1347-0.3056,0.309-0.5643,0.5265-0.7806c0.2295-0.2302,0.4924-0.4035,0.7944-0.5245l0.003-0.0014l0.0035-0.0017
		c0.3006-0.132,0.6172-0.1974,0.9573-0.1974h2.4447v2.4432c-0.0003,0.3414-0.0658,0.6573-0.1988,0.9588l-0.0017,0.0033
		l-0.0011,0.0032c-0.1206,0.3009-0.2942,0.5646-0.5235,0.7938c-0.2175,0.2166-0.4755,0.3918-0.7812,0.5271l0.0808,0.1831
		l-0.0772-0.1851c-0.2878,0.1199-0.6005,0.1801-0.9422,0.1801v0.2029L77.6836,27.641z M82.072,17.065h-0.2v7.9127
		c-0.0003,0.5752-0.112,1.1145-0.3359,1.6252l-0.0017,0.0037c-0.2125,0.511-0.5101,0.9582-0.8969,1.346l-0.0021,0.0026
		l0.0003-0.0003c-0.3742,0.3854-0.8141,0.6894-1.3278,0.9147l0.0802,0.1831l-0.0769-0.1846
		c-0.5108,0.2122-1.0515,0.3184-1.6275,0.3184c-0.5755,0-1.116-0.1062-1.6273-0.3184L75.98,29.0526l0.0798-0.1831
		c-0.5134-0.2254-0.9612-0.5303-1.3489-0.9171c-0.3871-0.3878-0.6924-0.8372-0.9183-1.3494l-0.1828,0.0805l0.1848-0.0766
		c-0.2116-0.5119-0.318-1.0527-0.318-1.6292c0-0.5889,0.1064-1.1294,0.3174-1.6249l-0.1842-0.0782l0.1831,0.0801
		c0.2256-0.5139,0.53-0.9544,0.9156-1.3275l0.0026-0.0024c0.3868-0.3868,0.8332-0.6844,1.3456-0.8978l0.0033-0.0012
		c0.5108-0.223,1.0497-0.335,1.624-0.335h2.8448v-3.5259h1.5433v-0.2046h-0.2h0.1964v-0.2002h-1.9435v3.5258h-2.4447
		c-0.6264-0.0003-1.2234,0.1233-1.7841,0.3685l0.0802,0.1833l-0.077-0.1849c-0.5591,0.2321-1.052,0.5611-1.475,0.9844l0.1414,0.1419
		l-0.1391-0.1441c-0.4233,0.4096-0.7589,0.8962-1.0036,1.4546l-0.0021,0.0037l0.0011-0.0015
		c-0.2332,0.5478-0.3495,1.1442-0.3495,1.7814c0,0.6258,0.1166,1.2218,0.3484,1.7821l0.0011,0.0023l0.0011,0.0018
		c0.2445,0.5557,0.579,1.0482,1.001,1.4713c0.4227,0.4222,0.9144,0.7565,1.4718,1.0008l0.0021,0.0008l0.0018,0.0006
		c0.56,0.2324,1.1553,0.3492,1.7805,0.3492c0.6255,0,1.2212-0.1168,1.7809-0.3492l0.0035-0.0014
		c0.5588-0.2446,1.0445-0.5796,1.4546-1.0031l-0.1435-0.139l0.1416,0.1413c0.4233-0.4238,0.7518-0.9177,0.983-1.4748l-0.1851-0.0769
		l0.1834,0.0801c0.2461-0.5611,0.3703-1.1584,0.37-1.7858v-8.1128h-0.2002v0.2018L82.072,17.065z"/>
</g>
</svg>
