<?xml version="1.0" encoding="utf-8"?>
<!-- Generator: Adobe Illustrator 18.0.0, SVG Export Plug-In . SVG Version: 6.00 Build 0)  -->
<!DOCTYPE svg PUBLIC "-//W3C//DTD SVG 1.1//EN" "http://www.w3.org/Graphics/SVG/1.1/DTD/svg11.dtd">
<svg version="1.1" id="Layer_1" xmlns="http://www.w3.org/2000/svg" xmlns:xlink="http://www.w3.org/1999/xlink" x="0px" y="0px"
	 width="42.13px" height="50px" viewBox="0 0 42.13 50" style="enable-background:new 0 0 42.13 50;" xml:space="preserve">
<g>
	<g>
		<g>
			<path style="fill:#C4161C;" d="M0.6503,12.0778v26.0209c0,0-0.2859,3.1539,3.9127,4.1175
				c4.1991,0.9636,33.1133,7.7094,33.1133,7.7094s4.4499,1.0372,4.4499-4.6391c0-5.5196,0-41.3563,0-41.3563
				s-0.3462-5.082-6.1668-3.5923C28.8622,2.1535,4.5629,7.96,4.5629,7.96S0.6503,8.5734,0.6503,12.0778z"/>
			<path style="fill:#F15A22;" d="M0.0041,12.0133v26.0203c0,0-0.2862,3.1544,3.9129,4.118
				c4.1991,0.9636,33.1133,7.7099,33.1133,7.7099s4.4496,1.0364,4.4496-4.6396c0-5.5196,0-41.3567,0-41.3567
				s-0.3456-5.0814-6.1663-3.5919C28.2163,2.0887,3.917,7.8954,3.917,7.8954S0.0041,8.5086,0.0041,12.0133z"/>
			<g>
				<g>
					<g>
						<g>
							<path style="fill:#FFFFFF;" d="M3.518,28.901h2.2118l2.9811,5.6397L8.6984,28.901h1.5767v7.7344H8.1974l-2.958-5.7842H5.2173
								v5.7842l-0.8911,0.0277L3.518,28.901z"/>
							<path style="fill:#FFFFFF;" d="M16.1788,30.9289l1.5569,0.0317l0.1359,0.7496c0,0,0.3251-0.9143,1.2103-0.9143
								c0.1449,0,0.2995,0,0.4554,0.0444v1.4959c-0.1333-0.0776-0.3995-0.1223-0.6649-0.1223c-1.2087,0-1.2087,1.5071-1.2087,2.3274
								v2.0942h-1.4849V30.9289z"/>
							<path style="fill:#FFFFFF;" d="M20.0407,31.228c0.5759-0.266,1.3513-0.4321,1.9834-0.4321
								c1.7395,0,2.459,0.7204,2.459,2.4043v0.7318c0,0.5762,0.0128,1.0082,0.0226,1.429c0.0118,0.4321,0.0339,0.8318,0.0672,1.2744
								h-0.4364c-0.6818,0-0.9267-0.6751-0.9377-0.8534h-0.0218c-0.3444,0.6321-1.087,0.9869-1.7626,0.9869
								c-1.0082,0-1.9939-0.6103-1.9939-1.6965c0-0.8523,0.4092-1.3516,0.9746-1.6287c0.5649-0.2764,1.2969-0.3318,1.9172-0.3318
								h0.82c0-0.9199-0.41-1.2304-1.2852-1.2304c-0.6313,0-1.2641,0.2437-1.7618,0.6205L20.0407,31.228z M21.7805,35.6826
								c0.4539,0,0.809-0.1992,1.0411-0.5098c0.2449-0.3213,0.3108-0.7316,0.3108-1.1747h-0.6421
								c-0.6646,0-1.6521,0.1108-1.6521,0.9862C20.8382,35.4718,21.2484,35.6826,21.7805,35.6826z"/>
							<path style="fill:#FFFFFF;" d="M24.7165,30.9289h1.9667v0.7758h0.0215c0.4667-0.6537,1.0975-0.9088,1.8734-0.9088
								c1.3518,0,1.9395,0.9527,1.9395,2.2386v3.6009h-1.4849v-3.047c0-0.6985-0.0108-1.6404-0.9644-1.6404
								c-1.0744,0-1.3077,1.164-1.3077,1.895l0.0159,2.7744l-0.7231,0.009L24.7165,30.9289z"/>
						</g>
						<path style="fill:#FFFFFF;" d="M30.5058,38.5926c0.8003-0.0446,0.9118-0.1995,0.9118-1.089v-6.6278l1.36,0.0001l0.1297,0.1641
							v5.9823c0,0.8105-0.2333,2.0447-1.7226,2.0447c-0.2449,0-0.5456-0.0328-0.7339-0.0887L30.5058,38.5926z"/>
					</g>
				</g>
				<path style="fill:#FFFFFF;" d="M15.6101,35.361c-0.0108-0.4208-0.0226-0.8529-0.0226-1.429v-0.7318
					c0-1.6839-0.72-2.4043-2.46-2.4043c-0.6308,0-1.4067,0.166-1.9834,0.4321l0.0451,1.2741
					c0.498-0.3768,1.1298-0.6205,1.7613-0.6205c0.8749,0,1.2854,0.3105,1.2854,1.2304h-0.82c-0.6203,0-1.3511,0.0554-1.9172,0.3318
					c-0.2785,0.1369-0.5195,0.3285-0.6921,0.5893l0.3485,2.3031c0.3716,0.2826,0.8646,0.4328,1.3636,0.4328
					c0.6756,0,1.4175-0.3549,1.7613-0.9869h0.0218c0.0126,0.1782,0.1851,0.8534,0.9011,0.8534h0.4744
					C15.6434,36.1928,15.6216,35.7931,15.6101,35.361z M13.9254,35.1728c-0.2318,0.3105-0.5862,0.5098-1.041,0.5098
					c-0.5313,0-0.9421-0.2108-0.9421-0.6982c0-0.8754,0.9857-0.9862,1.6513-0.9862h0.6423
					C14.236,34.4412,14.1696,34.8515,13.9254,35.1728z"/>
				<path style="fill:#FFFFFF;" d="M38.4183,35.361c-0.0116-0.4208-0.0226-0.8529-0.0226-1.429v-0.7318
					c0-1.6839-0.7205-2.4043-2.4595-2.4043c-0.6315,0-1.4067,0.166-1.9836,0.4321l0.0441,1.2741
					c0.4985-0.3768,1.1308-0.6205,1.7626-0.6205c0.8746,0,1.2841,0.3105,1.2841,1.2304h-0.8187
					c-0.6203,0-1.3521,0.0554-1.9172,0.3318c-0.2449,0.12-0.4572,0.2851-0.6231,0.4985l0.8864,2.7073
					c0.24,0.0785,0.4967,0.1195,0.7556,0.1195c0.6764,0,1.419-0.3549,1.7616-0.9869h0.0226
					c0.0108,0.1782,0.1533,0.6169,0.938,0.8534h0.4362C38.4516,36.1928,38.4288,35.7931,38.4183,35.361z M36.7337,35.1728
					c-0.2326,0.3105-0.5877,0.5098-1.0416,0.5098c-0.5318,0-0.9413-0.2108-0.9413-0.6982c0-0.8754,0.9849-0.9862,1.6511-0.9862
					h0.6415C37.0434,34.4412,36.978,34.8515,36.7337,35.1728z"/>
				<path style="fill:#FFFFFF;" d="M34.4736,0.4487L34.212,0.5163c1.2244,10.9046,3.6911,22.0001,7.2679,31.7448v-0.1454V31.445
					C38.0245,21.8615,35.6695,11.1262,34.4736,0.4487z M27.4463,2.1749c1.2149,16.6687,5.4827,33.0964,12.1992,47.3177
					c0.0744-0.0474,0.1485-0.099,0.2233-0.1557C33.1726,35.1449,28.9171,18.7465,27.7104,2.1112L27.4463,2.1749z M5.6494,7.4431
					l-0.2872,0.07c-1.2131,5.8227-1.919,11.6287-1.9844,17.4132c-0.0028,0.3032-0.0051,0.6057-0.0051,0.9081
					c0,5.6083,0.5815,11.1315,1.7836,16.6624l0.2895,0.0662c-1.2167-5.5535-1.8052-11.0972-1.8052-16.7286
					c-0.0005-0.3017,0.001-0.6029,0.0049-0.9045C3.7111,19.1232,4.4237,13.2936,5.6494,7.4431z M9.8474,19.6191
					c0-4.4118,0.3143-8.9655,0.8828-13.4035L10.452,6.2826C9.8905,10.7,9.5797,15.228,9.5797,19.6191
					c0,0.1981,0.0005,0.3953,0.0021,0.5926c0.0538,8.1347,1.1867,16.1963,3.3544,24.0705l0.2969,0.0685
					c-2.1864-7.8961-3.3298-15.982-3.3842-24.1407C9.8477,20.0136,9.8474,19.8162,9.8474,19.6191z M21.5346,3.6039l-0.2669,0.0645
					c0.0108,1.083,0.0308,2.1711,0.0667,3.2493c0.499,14.5649,3.4139,28.4236,8.7551,41.3372l0.3215,0.0739
					C25.0352,35.3956,22.102,21.5106,21.6023,6.909C21.5654,5.8123,21.5446,4.7053,21.5346,3.6039z M15.9906,10.7333
					c0-1.9378,0.0477-3.8802,0.1451-5.8244l-0.271,0.0656c-0.0951,1.9219-0.1428,3.8432-0.1428,5.7587
					c0,0.8864,0.0103,1.7722,0.0287,2.6562c0.2387,11.3056,2.1949,22.3612,5.8783,32.8879l0.3069,0.0702
					c-3.7093-10.5461-5.6781-21.6285-5.9181-32.9637C15.9994,12.5019,15.9906,11.6179,15.9906,10.7333z"/>
			</g>
		</g>
	</g>
	<g>
		<g>
			<g>
				
					<ellipse transform="matrix(1 0.0039 -0.0039 1 0.0939 -0.1368)" style="fill:#FFFFFF;" cx="34.7987" cy="23.7752" rx="3.1914" ry="3.1498"/>
				<path style="fill:#F15A22;" d="M36.2562,21.9152c0.192-0.2023,0.4131-0.3866,0.669-0.5463c0,0-0.4313-0.4065-1.0921-0.6517
					c0,0-1.0488,1.0474-1.2031,1.4783c-0.0077,0.0224-0.0164,0.0494-0.0256,0.0796c-0.3018-0.2376-0.6754-0.3799-1.0806-0.3814
					c-1.0069-0.0041-1.8251,0.8561-1.8292,1.9207c-0.0041,1.0164,0.7369,1.8503,1.6785,1.9275
					c-0.2974,0.3085-0.5923,0.5155-0.5923,0.5155s0.6092,0.4609,0.8895,0.5964c0,0,0.6357-0.0514,1.3793-1.4217
					c0.2872,0.2053,0.6341,0.3249,1.0062,0.3262c1.0057,0.0038,1.8247-0.8554,1.8288-1.92
					C37.888,22.84,37.1747,22.0167,36.2562,21.9152z M33.4746,24.6154c-0.4223-0.0017-0.7636-0.3655-0.7621-0.8106
					c0.0023-0.4465,0.3467-0.8074,0.7682-0.8056c0.4216,0.0015,0.7626,0.3649,0.7605,0.8112
					C34.2397,24.2559,33.8961,24.6173,33.4746,24.6154z M36.0465,24.6256c-0.4216-0.0019-0.7616-0.3655-0.76-0.8108
					c0.0015-0.4467,0.3446-0.8073,0.7667-0.8056c0.4221,0.0015,0.7626,0.3651,0.7605,0.8116
					C36.8116,24.2658,36.469,24.6271,36.0465,24.6256z"/>
				
					<radialGradient id="SVGID_1_" cx="47.6321" cy="-8.0854" r="2.2682" gradientTransform="matrix(0.9998 -0.021 0.021 0.9998 -12.808 32.7267)" gradientUnits="userSpaceOnUse">
					<stop  offset="0.5824" style="stop-color:#6A7982"/>
					<stop  offset="0.66" style="stop-color:#6C7B84"/>
					<stop  offset="0.7268" style="stop-color:#74838C"/>
					<stop  offset="0.7897" style="stop-color:#83919A"/>
					<stop  offset="0.8501" style="stop-color:#98A5AD"/>
					<stop  offset="0.9089" style="stop-color:#B6C1C7"/>
					<stop  offset="0.9655" style="stop-color:#DCE2E6"/>
					<stop  offset="1" style="stop-color:#FFFFFF"/>
				</radialGradient>
				<path style="opacity:0.92;fill:url(#SVGID_1_);" d="M33.349,25.715c-0.4123-0.0331-0.7864-0.2069-1.0759-0.4757
					c0.2605,0.2831,0.6051,0.4828,0.9944,0.5558C33.2943,25.7695,33.3218,25.743,33.349,25.715z M37.0065,21.5703
					c0,0-0.0413-0.0387-0.1187-0.0983c-0.251,0.1538-0.468,0.3307-0.6562,0.5224c0.0626,0.0071,0.1226,0.0167,0.1826,0.0303
					C36.5875,21.8579,36.7839,21.7046,37.0065,21.5703z"/>
			</g>
		</g>
	</g>
</g>
</svg>
