<?xml version="1.0" encoding="utf-8"?>
<!-- Generator: Adobe Illustrator 18.0.0, SVG Export Plug-In . SVG Version: 6.00 Build 0)  -->
<!DOCTYPE svg PUBLIC "-//W3C//DTD SVG 1.1//EN" "http://www.w3.org/Graphics/SVG/1.1/DTD/svg11.dtd">
<svg version="1.1" id="Layer_1" xmlns="http://www.w3.org/2000/svg" xmlns:xlink="http://www.w3.org/1999/xlink" x="0px" y="0px"
	 width="113.81px" height="50px" viewBox="0 0 113.81 50" style="enable-background:new 0 0 113.81 50;" xml:space="preserve">
<path style="fill:#F0B91C;" d="M17.9434,6.033v9.7797l-5.2909-8.463l2.7891,9.4207L7.9363,9.8516l5.3746,8.3792l-9.1932-4.8479
	l7.5054,6.9069L1.4005,17.716l9.1932,4.86L0,22.5042l10.2226,2.5736L0,27.4957h10.5937l-9.1932,4.86l10.2226-2.5735l-7.5054,6.9067
	l9.1932-4.8478l-5.3746,8.379l7.5054-6.9067l-2.7891,9.4086l5.2909-8.463v9.7078l2.6454-9.1093
	c-0.7301-3.3397-1.1013-6.5957-1.1013-9.7798c0-3.2439,0.3712-6.5239,1.1013-9.8515L17.9434,6.033L17.9434,6.033z"/>
<path style="fill:#1E3B6F;" d="M24.1201,6.6914l-0.5147,1.2568c-1.0295,2.5497-1.7955,4.9678-2.2864,7.278
	c-0.6823,3.0285-1.0295,6.3203-1.0295,9.8515c0,3.4356,0.3472,6.6913,1.0295,9.7798c0.4908,2.2982,1.2569,4.7283,2.2864,7.2779
	l0.5147,1.245c1.0774,2.406,2.2745,4.6085,3.603,6.6195c-1.5201-3.244-2.7292-6.4759-3.603-9.708
	c-1.3766-5.0992-2.0588-10.1746-2.0588-15.2142c0-5.1472,0.6822-10.2465,2.0588-15.2981C24.994,6.5477,26.203,3.2919,27.7232,0
	C26.4902,1.9153,25.2932,4.1417,24.1201,6.6914L24.1201,6.6914z"/>
<path style="fill:#1E3B6F;" d="M36.6889,14.9988h-2.5736v20.0024h2.5736V22.4324c0-2.0589,0.4908-3.627,1.4723-4.7164
	c0.826-0.8738,1.9034-1.3167,3.232-1.3167c2.6933,0,4.046,1.5441,4.046,4.6325v13.9694h2.5736v-14.113
	c0-1.8195-0.3232-3.2201-0.9576-4.2016c-0.9337-1.4245-2.5976-2.1307-5.0036-2.1307c-2.0589,0-3.8185,0.9337-5.2909,2.801h-0.0718
	V14.9988L36.6889,14.9988z"/>
<path style="fill:#1E3B6F;" d="M53.8903,23.6773c-0.2993,0.0958-0.5865,0.1916-0.8738,0.2993
	c-2.3102,0.9696-3.4594,2.8131-3.4594,5.5063c0,1.7598,0.4908,3.1842,1.4723,4.2615c0.5388,0.5386,1.197,0.9575,1.9871,1.2569
	c0.7302,0.2514,1.5681,0.3712,2.4899,0.3712c2.7411,0,4.8-0.9578,6.1767-2.8731h0.0837v2.5019h2.7173l-0.2994-15.1424
	c0-2.2146-0.8617-3.7347-2.5735-4.5607c-0.9816-0.4908-2.3822-0.7421-4.1897-0.7421c-1.7597,0-3.232,0.3231-4.4051,0.9575
	c-0.2035,0.0958-0.3711,0.1916-0.5147,0.2993c-1.4724,0.8739-2.2624,2.2505-2.3582,4.1179h2.7891
	c0-0.2993,0.0239-0.5626,0.0837-0.8139c0.1436-0.7782,0.5387-1.3886,1.1731-1.8315c0.7302-0.5866,1.7357-0.8858,3.0166-0.8858
	c1.6639,0,2.813,0.4429,3.4475,1.3167c0.6343,0.7422,0.9576,1.8913,0.9576,3.4595v1.6878L53.8903,23.6773L53.8903,23.6773z
	 M61.6112,28.3817c0,1.3764-0.5387,2.5496-1.6159,3.5313c-1.0773,1.0293-2.3464,1.5441-3.8186,1.5441
	c-1.2809,0-2.2624-0.395-2.9448-1.1732c-0.0957-0.1076-0.1676-0.2035-0.2154-0.2991c-0.4908-0.6825-0.7421-1.5682-0.7421-2.6455
	c0-0.9816,0.2513-1.7956,0.7421-2.4299c0.5387-0.7782,1.3886-1.3168,2.5736-1.6162l6.0211-0.5147V28.3817L61.6112,28.3817z"/>
<path style="fill:#1E3B6F;" d="M71.4628,10.6655h-2.5737v4.3333h-3.5313v1.8434h3.5313v14.3286
	c0,1.2808,0.3232,2.2383,0.9575,2.8729c0.6825,0.6343,1.8915,0.9575,3.6031,0.9575l2.4301-0.0718v-2.0589l-2.0589,0.1436
	c-0.9816,0-1.6159-0.2154-1.9153-0.6584c-0.2991-0.4427-0.4427-1.3287-0.4427-2.6453V16.8422h4.417v-1.8434h-4.417V10.6655
	L71.4628,10.6655z"/>
<polygon style="fill:#1E3B6F;" points="80.8714,14.927 78.0105,14.927 78.0105,35.0012 80.8714,35.0012 80.8714,14.927 "/>
<polygon style="fill:#1E3B6F;" points="78.0105,10.6655 78.0105,13.5983 80.8714,13.5983 80.8714,10.6655 78.0105,10.6655 "/>
<polygon style="fill:#1E3B6F;" points="85.5038,14.9988 82.6429,14.9988 89.1906,35.0012 92.1236,35.0012 98.5994,14.9988 
	96.1694,14.9988 90.8068,31.9129 90.723,31.9129 85.5038,14.9988 "/>
<path style="fill:#1E3B6F;" d="M110.067,17.716c0.5863,0.7422,0.8857,1.8913,0.8857,3.4595v1.6878l-7.7209,0.8139
	c-2.8967,0.826-4.3452,2.7652-4.3452,5.8056c0,1.7598,0.5148,3.1842,1.5441,4.2615c1.0296,1.0892,2.5258,1.6281,4.4888,1.6281
	c2.7412,0,4.7762-0.9578,6.105-2.8731h0.1436v2.5019h2.6455c-0.1436-1.5682-0.2154-3.2679-0.2154-5.0754v-10.067
	c0-3.5312-2.2865-5.3028-6.8471-5.3028c-2.047,0-3.7109,0.4189-4.9916,1.2568c-1.4244,0.8739-2.1787,2.2505-2.2863,4.1179h2.801
	c0-1.1851,0.4189-2.0589,1.2448-2.6454c0.7302-0.5866,1.7598-0.8858,3.0885-0.8858
	C108.2235,16.3993,109.3845,16.8422,110.067,17.716L110.067,17.716z M105.578,33.4571c-1.2688,0-2.2743-0.395-3.0165-1.1732
	c-0.6343-0.7421-0.9456-1.7238-0.9456-2.9447c0-2.1069,1.1011-3.4595,3.3037-4.046l6.0331-0.5147v3.6032
	c0,1.3764-0.5148,2.5496-1.5441,3.5313C108.3192,32.9423,107.0503,33.4571,105.578,33.4571L105.578,33.4571z"/>
<polygon style="fill:#F0B91C;" points="82.6429,40.8068 83.6006,40.8068 84.0434,38.2331 86.6171,41.2498 87.3473,36.6889 
	86.5334,36.6889 86.0186,39.2626 83.4449,36.2462 82.6429,40.8068 "/>
<path style="fill:#F0B91C;" d="M95.7266,37.8621c0.2992-0.2872,0.6343-0.4311,1.0294-0.4311c0.443,0,0.754,0.1438,0.9575,0.4311
	l0.2994,0.2991l0.1436-1.0293v-0.0718l-1.3287-0.3712c-0.6345,0-1.1971,0.1916-1.6877,0.5866
	c-0.5386,0.395-0.838,0.8857-0.886,1.4723l-0.0718,0.2994c0,0.4427,0.1677,0.8259,0.5148,1.1729
	c0.3471,0.395,0.838,0.5866,1.4723,0.5866l1.4005-0.3712l0.0718-0.0718l0.2154-1.1011l-0.4427,0.3709l-1.1732,0.443l-0.8857-0.3712
	c-0.2395-0.2512-0.3352-0.5625-0.2872-0.9575l0.6582-0.8857H95.7266z"/>
<path style="fill:#F0B91C;" d="M89.849,39.7054h1.3886l0.2994,1.1014h0.9575l-1.4005-4.5606l-2.8609,4.5606h0.9576L89.849,39.7054
	L89.849,39.7054z M90.8068,38.1613l0.2154,0.802h-0.6584L90.8068,38.1613L90.8068,38.1613z"/>
<path style="fill:#F0B91C;" d="M107.0503,37.2755c-0.2991-0.395-0.7901-0.5866-1.4723-0.5866c-0.6343,0-1.197,0.1916-1.6877,0.5866
	c-0.5387,0.395-0.8619,0.8619-0.9576,1.4005c-0.0959,0.5866,0.0477,1.1014,0.4428,1.5441c0.395,0.395,0.9098,0.5866,1.5441,0.5866
	l1.688-0.5148l0.9575-1.4723C107.6608,38.2331,107.4933,37.7185,107.0503,37.2755L107.0503,37.2755z M106.3922,37.7903
	c0.2991,0.2514,0.3948,0.5386,0.2872,0.8857l-0.5866,0.9575c-0.2994,0.2994-0.6584,0.443-1.1012,0.443
	c-0.395,0-0.6825-0.1198-0.886-0.3712c-0.2393-0.2512-0.3352-0.5625-0.2872-0.9575l0.5866-0.8857
	c0.3471-0.2874,0.7061-0.4311,1.1011-0.4311C105.9012,37.4311,106.1885,37.5508,106.3922,37.7903L106.3922,37.7903z"/>
<polygon style="fill:#F0B91C;" points="100.5863,36.6889 99.8442,40.8068 100.7302,40.8068 101.3884,36.6889 100.5863,36.6889 "/>
<polygon style="fill:#F0B91C;" points="113.7419,36.6889 112.8559,36.6889 112.4132,39.2626 109.7676,36.2462 109.0374,40.8068 
	109.9232,40.8068 110.3542,38.2331 112.9279,41.2498 113.7419,36.6889 "/>
</svg>
