<?xml version="1.0" encoding="utf-8"?>
<!-- Generator: Adobe Illustrator 18.0.0, SVG Export Plug-In . SVG Version: 6.00 Build 0)  -->
<!DOCTYPE svg PUBLIC "-//W3C//DTD SVG 1.1//EN" "http://www.w3.org/Graphics/SVG/1.1/DTD/svg11.dtd">
<svg version="1.1" id="Layer_1" xmlns="http://www.w3.org/2000/svg" xmlns:xlink="http://www.w3.org/1999/xlink" x="0px" y="0px"
	 width="64.17px" height="50px" viewBox="0 0 64.17 50" style="enable-background:new 0 0 64.17 50;" xml:space="preserve">
<g>
	<g>
		<path style="fill-rule:evenodd;clip-rule:evenodd;fill:#E03160;" d="M11.1336,8.8964L45.1427,0l5.9685,22.072l13.0631-3.3783
			L51.642,35.1276l-0.1297,0.0338c0,0-1.1407,0.3111-1.5036,0.1037c-0.3629-0.2073,0.4148-1.6591,0.8296-2.6442
			c0.4148-0.9852,1.1925-3.3702,1.8665-4.7183c0.674-1.3481,1.6592-2.4368,1.9184-2.5406c0.2592-0.1037,0.4148-1.037,0.3111-1.4517
			c-0.1037-0.4148,0-0.8814-0.4148-0.8814c-0.4148,0-0.7259,1.2443-1.2962,1.9702c-0.5704,0.7259-1.8665,3.1817-2.9554,5.4298
			c-1.0889,2.2481-3.2268,4.8307-4.2902,5.8876c-1.1406,0.9026-0.2206-0.844-0.1169-1.3624
			c0.1037-0.5184,0.7777-1.9703,0.7777-1.9703s0.9333-1.0369-0.2592-0.674c-1.1925,0.363-2.2813,2.1258-2.2813,2.1258
			s-2.9554,3.6812-3.9923,4.4071c-1.037,0.7259-0.7778-0.4147-0.5704-1.5554c0.2074-1.1407,1.5036-2.4888,1.5036-2.4888
			l0.5185-0.2074c0,0-0.3111,1.1407-0.0518,1.0888c0.2592-0.0518,0.5704-0.5185,0.6222-0.9333c0.0518-0.4148,0-2.1258-0.3111-1.9184
			c-0.3111,0.2073-1.9702,1.711-2.4887,2.3332c-0.5185,0.6222-2.385,2.9554-3.059,4.0442c-0.674,1.0888-0.2074-0.5703-0.2074-0.5703
			s0.2592-0.9333,0.3111-1.3481c0.0518-0.4148-0.5185-0.2074-0.5185-0.2074l-0.7778,0.7777c0,0-0.1555,0.1556-0.1555,0.7778
			c0,0.6221-0.7778,1.5036-1.5555,1.9702c-0.7778,0.4666-0.4666-0.4147-0.4666-0.4147s0.2592-1.0888,1.0369-2.385
			c0.7778-1.2962,1.6073-1.3999,2.0739-1.6073c0.4667-0.2074,0.2593-0.5185,0.1037-0.7778s-0.6688-0.0721-0.8296,0.0518
			c-0.3559,0.2804-6.1274,5.1032-6.3773,5.9626c-0.25,0.8595,0.5703,0.2074,0.5703,0.2074l2.2818-2.4801l0.1033-0.1123
			l-0.0518,0.5704c0,0-0.674,1.1925-0.5185,2.0221c0.1701,0.6696,0.6748,0.5232,1.0378,0.5005
			c0.3629-0.0518,1.088-1.0709,1.5547-1.4338c0.4666-0.363,0.5185,0.0518,0.674,0.3629c0.1556,0.3111,0.8296-0.1037,0.8296-0.1037
			s1.5555-2.1258,1.9184-2.5925c0.363-0.4666,0.8296-0.4666,0.8296-0.4666s-0.2074,0.6222,0.3111,1.4518
			c0.5185,0.8296,1.4518,0.2074,2.0221-0.1556c0.5704-0.363,2.3851-2.6443,2.7999-3.2146c0.4148-0.5704,0.9851-0.674,0.9851-0.674
			s-0.3111,1.8147-0.2074,2.2813c0.1037,0.4666,0.8816,0.5702,1.8148-0.3111c0.9331-0.8814,2.8902-3.7574,2.8902-3.7574
			s-0.5051,1.4242-0.3497,2.513c0.1554,1.0887,1.0846,0.775,1.4864,0.6504c0.3254-0.2155,0.6902-0.4114,0.9942-0.569L40.3004,50
			l-14.4487-6.3269c0.4646-1.3846,2.067-6.1595,2.1258-6.3357c1.5899-0.4989,3.1316-0.9847,3.1316-0.9847
			c0.1528-0.3708,0.3219-0.8968,0.6655-1.5153c0.3435-0.6185-0.4811-0.4811-0.4811-0.4811s-1.4047,1.0352-2.0232,1.2414
			c-0.8548,0.4425-0.5197-0.4854-0.5197-0.4854s1.2371-2.5429,1.6494-3.5738c0.4124-1.0309,1.5808-1.0309,2.543-1.4433
			c0.9622-0.4124,7.4913-2.4742,8.5909-2.8866c1.0996-0.4124,0.8935-2.0619,0.8935-2.0619s-1.1684,0.6186-2.0619,0.8935
			c-0.8934,0.2749-6.9415,2.6117-7.6287,2.9553c-0.6873,0.3436-0.3436-0.2749-0.3436-0.756c0-0.4811-0.3436-0.2749-0.3436-0.2749
			s-0.8247,0.4123-1.3745,0.5498c-0.5499,0.1375-0.8935,1.0996-0.8935,1.0996s-5.4295,2.4742-6.5978,3.8488
			c-1.1684,1.3745,0.6873,0.7559,0.6873,0.7559s5.2233-3.0927,4.8109-2.3367c-0.4124,0.756-2.1993,4.9484-2.1993,4.9484
			s-1.7182,1.1684-2.3367,1.6495c-0.6186,0.481-0.3436,1.4433-0.3436,1.4433s2.4742-1.9931,2.1993-1.3745
			c-0.2292,0.5155-1.031,3.6079-1.2919,4.6243L4.0391,34.1216l12.6126-3.3784L11.1336,8.8964L11.1336,8.8964z M37.2398,33.7573
			c0,0,1.3888-1.6532,1.5871-2.1823c0.1984-0.529,1.0581-0.5951,0.992,0c-0.0661,0.5952-1.4549,1.7855-1.4549,1.7855
			s-0.6613,0.7936-0.992,0.7936C37.0414,34.1541,37.2398,33.7573,37.2398,33.7573L37.2398,33.7573z M46.867,31.0079
			c0,0-0.4356,0.0622-0.3734-0.6846c0.0623-0.7468,0.2489-0.6223,0.6223-0.9335c0.3734-0.3111,0.6846-0.7468,0.6846-0.1244
			c0,0.6223-0.0622,0.9335-0.3734,1.3069C47.116,30.9456,46.867,31.0079,46.867,31.0079L46.867,31.0079z"/>
	</g>
	<g>
		<path style="fill:#FFFFFF;" d="M1.3375,20.4419l7.6029-1.9718c1.381-0.3582,2.5415-0.5276,3.4815-0.5084
			c0.9884-0.0162,1.8113,0.1335,2.4686,0.4491c0.6573,0.3155,1.1515,0.802,1.4827,1.4595c0.1376,0.2731,0.2463,0.588,0.3263,0.9447
			c0.5278,2.6305-1.3534,4.5022-5.6433,5.6147l-2.6666,0.6916l0.8601,3.6365l-5.2009,1.3488L1.3375,20.4419L1.3375,20.4419z
			 M31.6718,12.9287l0.0446,0c0.1678-0.1166,0.3425-0.2294,0.5238-0.3382c0.9567-0.5741,2.1035-1.0345,3.4404-1.3812
			c0.7199-0.1867,1.3536-0.3138,1.9009-0.3814c0.5473-0.0676,1.146-0.0828,1.7959-0.0455c1.1226,0.052,2.0999,0.3103,2.9318,0.775
			c0.8321,0.4647,1.4595,1.1167,1.8824,1.9562l0.0305,0.0607l-2.8111,0.7291l0,1.3208l3.2894-0.8531l1.4769,6.4441l-3.3057,0.8573
			l-0.4909-1.0735c-0.2759,0.3693-0.5993,0.7065-0.9698,1.0122v0.0216h-0.0263c-0.8783,0.717-2.0187,1.2577-3.4221,1.6216
			c-2.0275,0.5258-3.8118,0.5369-5.3528,0.0331c-1.5412-0.5038-2.6326-1.3929-3.2745-2.6673l-0.3219-0.6885L28.8697,19.7
			c-0.4254-1.8338-0.071-3.5209,1.0632-5.0617c0.4616-0.628,1.0411-1.1873,1.7389-1.6784L31.6718,12.9287L31.6718,12.9287z
			 M7.183,21.8077l0.5617,2.599l2.2478-0.583c0.6464-0.1676,1.131-0.4505,1.4536-0.8487c0.3227-0.3981,0.3771-0.8096,0.163-1.2344
			c-0.321-0.6372-1.2822-0.7482-2.8835-0.3329L7.183,21.8077L7.183,21.8077z M18.1298,16.087l5.3111-1.3774l8.3969,10.1902
			l-5.1789,1.3431l-0.9981-1.3879L20.46,26.2038l-0.214,1.7022l-5.0686,1.3145L18.1298,16.087L18.1298,16.087z M20.9004,23.5164
			l3.2836-0.8515l-2.6107-3.7486L20.9004,23.5164L20.9004,23.5164z M52.451,6.86c2.336-0.6058,4.2909-0.6325,5.8649-0.0801
			c0.7473,0.2637,1.4253,0.6367,2.0339,1.1194c0.2844,0.235,0.5385,0.4921,0.7623,0.7715c0.2237,0.2793,0.4273,0.601,0.6107,0.9652
			l0.2904,0.5765l0.1488,0.4932c0.2942,1.0787,0.2408,2.1847-0.1601,3.3179c-0.4009,1.1332-1.1837,2.1596-2.3484,3.0791
			c-1.1647,0.9196-2.6212,1.6061-4.3695,2.0595c-2.3653,0.6135-4.3425,0.6373-5.9314,0.0716
			c-1.5889-0.5657-2.7044-1.4857-3.3463-2.7602l-0.1478-0.4419l-0.1861-0.5179l-0.1555-0.4571
			c-0.2265-1.142-0.1481-2.2231,0.2352-3.243c0.3832-1.02,1.1548-1.9862,2.3146-2.8989C49.2266,8.0022,50.688,7.3173,52.451,6.86
			L52.451,6.86z M53.0688,9.7189c-2.2625,0.5867-2.9142,2.2939-1.9551,5.1214c0.7082,1.4059,1.8777,1.8974,3.5085,1.4745
			c1.2929-0.3353,2.0767-1.0217,2.3514-2.0593c0.2747-1.0375,0.1598-2.057-0.3446-3.0583c-0.3312-0.6575-0.7943-1.1235-1.3893-1.398
			C54.6446,9.5247,53.921,9.4979,53.0688,9.7189L53.0688,9.7189z"/>
		<path style="fill:#FFFFFF;" d="M4.0486,33.4438c-0.242,0-0.4818-0.0657-0.6924-0.1932c-0.3084-0.1867-0.5285-0.49-0.61-0.8412
			L0.035,20.7447c-0.1641-0.7065,0.2646-1.415,0.9667-1.597l7.6029-1.9717c1.5033-0.3898,2.7551-0.5712,3.8197-0.5514
			c1.1859-0.0165,2.2072,0.1789,3.045,0.5811c0.3319,0.1593,0.6355,0.3505,0.9098,0.573l0.4461-1.9849
			c0.1099-0.4889,0.484-0.8752,0.9689-1.001l5.3111-1.3773c0.5034-0.1306,1.0369,0.0426,1.3676,0.4439l2.9296,3.5553
			c0.1447-1.2559,0.6301-2.4502,1.4536-3.5689c0.4973-0.6764,1.1145-1.2905,1.837-1.8278c0.1273-0.1368,0.2831-0.2469,0.4576-0.3208
			c0.1316-0.0869,0.2662-0.1717,0.4021-0.2532c1.0615-0.6371,2.3375-1.1515,3.7922-1.5288
			c0.7728-0.2004,1.4701-0.3398,2.0729-0.4141c0.6238-0.0772,1.3078-0.0954,2.0361-0.0536
			c1.3119,0.0608,2.4968,0.3781,3.5075,0.9426c0.5601,0.3128,1.0513,0.6957,1.4701,1.1452
			c0.0221-0.0641,0.0452-0.1281,0.0691-0.1918c0.4687-1.2469,1.3902-2.4175,2.7393-3.4793
			c1.3006-1.0232,2.9409-1.7965,4.8756-2.2983c2.5912-0.6722,4.8212-0.6867,6.6432-0.0476
			c0.8863,0.3129,1.7004,0.7612,2.4221,1.3334c0.007,0.0056,0.0142,0.0114,0.0212,0.0173c0.3538,0.2924,0.6745,0.6174,0.9538,0.9661
			c0.2811,0.351,0.5373,0.7547,0.7612,1.1998l0.2903,0.576c0.035,0.0692,0.0637,0.1413,0.086,0.2156l0.1488,0.4932
			c0.0036,0.0114,0.0068,0.0229,0.0099,0.0344c0.3657,1.3413,0.3021,2.726-0.1896,4.1157
			c-0.4842,1.3693-1.4198,2.6084-2.7804,3.6825c-1.3053,1.0308-2.9413,1.8061-4.8623,2.3044
			c-2.6228,0.6803-4.8769,0.6917-6.7157,0.0369c-0.6278-0.2235-1.1976-0.4971-1.7083-0.8199l0.2849,1.2431
			c0.1616,0.7054-0.2671,1.4113-0.9676,1.5929l-3.3057,0.8573c-0.3903,0.1017-0.7892,0.0196-1.101-0.1976
			c-0.0034,0.0021-0.0068,0.0043-0.0102,0.0064c-1.0055,0.7839-2.2821,1.38-3.7978,1.7731
			c-1.8787,0.4873-3.6069,0.5749-5.1591,0.2587c-0.0084,0.0353-0.0181,0.0704-0.0296,0.1053
			c-0.1409,0.4343-0.4939,0.7668-0.936,0.8813l-5.179,1.343c-0.5353,0.1388-1.0987-0.0654-1.4213-0.5136l-0.4632-0.6443
			l-3.4364,0.8913l-0.1009,0.8024c-0.0684,0.5433-0.461,0.99-0.9911,1.1274l-5.0686,1.3144
			c-0.4508,0.1172-0.9306-0.0091-1.2656-0.3334c-0.335-0.3242-0.4768-0.7993-0.3748-1.2541l0.5095-2.2663
			c-0.8217,0.3974-1.809,0.7567-2.9906,1.0631l-1.3999,0.3631l0.559,2.363c0.1673,0.7077-0.2616,1.4195-0.9655,1.6021L4.3843,33.401
			C4.2737,33.4296,4.1611,33.4438,4.0486,33.4438z M2.9348,21.4089l2.1058,9.0591l2.6065-0.676l-0.559-2.363
			c-0.1673-0.7077,0.2616-1.4195,0.9655-1.6021l2.6666-0.6916c3.3132-0.8592,4.3604-1.9669,4.6456-2.8499l0.0777-0.3459
			c0.0454-0.3466-0.0108-0.6409-0.0519-0.846c-0.0551-0.242-0.1266-0.4512-0.2127-0.6221
			c-0.1991-0.3951-0.4745-0.6669-0.8671-0.8552c-0.4404-0.2115-1.0281-0.3188-1.7469-0.3188l-0.1212,0.001
			c-0.0165,0.0001-0.033,0.0002-0.0494-0.0001c-0.8114-0.0165-1.8631,0.1405-3.1183,0.4658L2.9348,21.4089z M17.9641,22.9204
			l-1.0017,4.4558l2.0702-0.5368l0.1007-0.8024c0.0684-0.5433,0.461-0.99,0.9911-1.1274l0.4111-0.1067
			c-0.1928-0.0547-0.3738-0.1529-0.5278-0.291c-0.3334-0.2991-0.4951-0.7454-0.4303-1.1888l0.6727-4.6002
			c0.0795-0.5428,0.4824-0.982,1.0163-1.108c0.5335-0.1262,1.0904,0.0871,1.404,0.5373l2.6108,3.7486
			c0.2501,0.3591,0.3086,0.8178,0.1569,1.2281c-0.0682,0.1842-0.1747,0.3482-0.31,0.4829l0.1971-0.051
			c0.5353-0.1386,1.0987,0.0655,1.4213,0.5136l0.4632,0.6443l2.2627-0.5867l-6.5213-7.9139l-3.6958,0.9584l-1.2053,5.3619
			C18.0271,22.6654,17.9986,22.7927,17.9641,22.9204z M30.5376,20.4348c0.4809,0.9434,1.2947,1.5918,2.4876,1.9817
			c1.2884,0.4213,2.8364,0.4014,4.6018-0.0563c1.2082-0.3133,2.188-0.772,2.9122-1.3631c0.0043-0.0036,0.0088-0.0072,0.0131-0.0107
			c0.0025-0.0021,0.0052-0.0042,0.0077-0.0063c0.2876-0.2374,0.5398-0.5002,0.7497-0.7812
			c0.2826-0.3783,0.7434-0.5792,1.2132-0.5294c0.4696,0.0501,0.8777,0.3442,1.0741,0.7737l0.0244,0.0537l0.9624-0.2496
			l-0.8793-3.8365l-1.9577,0.5076c-0.4005,0.1037-0.8267,0.0166-1.154-0.2367c-0.3271-0.2533-0.5188-0.6437-0.5188-1.0575v-1.3208
			c0-0.6092,0.4118-1.1413,1.0014-1.2942l0.7391-0.1917c-0.0512-0.0319-0.1034-0.0628-0.1569-0.0927
			c-0.6457-0.3605-1.4335-0.5647-2.342-0.6068c-0.6073-0.0345-1.1057-0.0204-1.5701,0.0369
			c-0.4874,0.0603-1.0692,0.1776-1.7293,0.3487c-1.2069,0.313-2.2458,0.7281-3.0879,1.2335
			c-0.1544,0.0926-0.3057,0.1901-0.4495,0.2901c-0.0059,0.0041-0.012,0.0081-0.0178,0.0121
			c-0.0065,0.0047-0.0131,0.0095-0.0196,0.0141c-0.5761,0.4055-1.0577,0.8687-1.4313,1.377
			c-0.8999,1.2225-1.1737,2.52-0.8378,3.9674l0.1131,0.4976L30.5376,20.4348z M47.2416,15.9515
			c0.4921,0.923,1.3304,1.5851,2.5594,2.0226c1.3225,0.471,3.0639,0.4342,5.1474-0.1061c1.5597-0.4046,2.8639-1.0151,3.8764-1.8147
			c0.9583-0.7565,1.6031-1.5894,1.9164-2.4754c0.3088-0.8731,0.3531-1.6926,0.1352-2.5045l-0.1095-0.3631l-0.2382-0.4725
			c-0.1409-0.2795-0.2955-0.5253-0.4603-0.7312c-0.1628-0.2031-0.351-0.3942-0.5601-0.5681
			c-0.4867-0.3839-1.0376-0.686-1.6376-0.8977c-1.3035-0.4574-3.0276-0.4198-5.084,0.1136
			c-1.5749,0.4085-2.8849,1.018-3.8933,1.8114c-0.9595,0.7553-1.5954,1.5353-1.8898,2.3184
			c-0.2876,0.7653-0.3501,1.561-0.191,2.4301l0.3041,0.865c0.0036,0.0096,0.0068,0.0192,0.0102,0.0288L47.2416,15.9515z
			 M7.7447,25.7439c-0.2454,0-0.4885-0.0676-0.7012-0.1987c-0.3102-0.191-0.5289-0.5002-0.6057-0.8561l-0.5617-2.599
			c-0.1515-0.701,0.277-1.3967,0.9712-1.5768l1.5428-0.4c0.7488-0.1941,1.3807-0.2886,1.9322-0.2886
			c1.5828,0,2.2338,0.8234,2.481,1.3142c0.4513,0.8956,0.3352,1.8717-0.3185,2.6781c-0.5048,0.623-1.2304,1.0608-2.1568,1.301
			L8.0804,25.701C7.9698,25.7296,7.8571,25.7439,7.7447,25.7439z M53.5652,17.7987c-0.0002,0-0.0002,0-0.0005,0
			c-1.1213-0.0001-2.6641-0.4091-3.6452-2.3569c-0.028-0.0556-0.0519-0.1131-0.072-0.172
			c-0.6597-1.9448-0.6608-3.5479-0.0038-4.7651c0.5542-1.0267,1.5263-1.7266,2.8894-2.08c1.1527-0.2992,2.1914-0.2436,3.0666,0.1603
			c0.8739,0.4033,1.5548,1.0797,2.0237,2.0107c0.6536,1.2974,0.8026,2.6439,0.4429,4.002c-0.2795,1.0547-1.08,2.4334-3.3084,3.0113
			C54.4729,17.7348,54.0045,17.7987,53.5652,17.7987z M52.3486,14.317c0.382,0.7073,0.8098,0.8074,1.2164,0.8074c0,0,0,0,0.0002,0
			c0.2129,0,0.4556-0.035,0.7213-0.1038c1.0482-0.2719,1.2958-0.7346,1.3945-1.1073c0.1901-0.7171,0.1095-1.4088-0.2461-2.1145
			c-0.1955-0.3883-0.4355-0.6379-0.7554-0.7854c-0.3061-0.1413-0.7366-0.1396-1.2748-0.0001
			c-0.9263,0.2402-1.1382,0.6328-1.2078,0.7619C51.9187,12.2902,51.9713,13.1678,52.3486,14.317z"/>
	</g>
	<g>
		<path style="fill:#506185;" d="M1.5139,20.4419l7.6029-1.9718c1.381-0.3582,2.5415-0.5276,3.4815-0.5084
			c0.9884-0.0162,1.8113,0.1335,2.4686,0.4491c0.6573,0.3155,1.1515,0.802,1.4827,1.4595c0.1376,0.2731,0.2463,0.588,0.3263,0.9447
			c0.5278,2.6305-1.3534,4.5022-5.6433,5.6147l-2.6666,0.6916l0.8601,3.6365L4.225,32.1067L1.5139,20.4419L1.5139,20.4419z
			 M7.3594,21.8077l0.5617,2.599l2.2478-0.583c0.6464-0.1676,1.131-0.4505,1.4536-0.8487c0.3227-0.3982,0.3771-0.8096,0.163-1.2344
			c-0.321-0.6372-1.2822-0.7482-2.8835-0.3329L7.3594,21.8077L7.3594,21.8077z M18.3062,16.087l5.3111-1.3774l8.3969,10.1902
			l-5.1789,1.3431l-0.9981-1.3879l-5.2008,1.3488l-0.214,1.7022l-5.0686,1.3144L18.3062,16.087L18.3062,16.087z M21.0768,23.5164
			l3.2836-0.8516l-2.6107-3.7486L21.0768,23.5164L21.0768,23.5164z M38.3559,19.1382l-0.5972-2.5211l7.1181-1.846l1.477,6.4441
			l-3.3057,0.8573l-0.4909-1.0735c-0.9327,1.2483-2.4054,2.1334-4.4182,2.6554c-2.0275,0.5258-3.8117,0.5369-5.3528,0.0331
			c-1.5412-0.5038-2.6326-1.3929-3.2745-2.6673l-0.3219-0.6885L29.0461,19.7c-0.4254-1.8338-0.071-3.5209,1.0632-5.0617
			c0.5816-0.7912,1.3507-1.4738,2.3073-2.0478c0.9567-0.5741,2.1035-1.0345,3.4404-1.3812
			c0.7199-0.1867,1.3536-0.3138,1.9009-0.3814c0.5474-0.0676,1.146-0.0828,1.796-0.0455c1.1226,0.052,2.0999,0.3103,2.9318,0.7749
			c0.8321,0.4647,1.4595,1.1167,1.8824,1.9562l0.0305,0.0607l-4.9364,1.2802c-0.6253-0.8785-1.6357-1.1369-3.0314-0.7749
			c-2.2919,0.5944-2.921,2.3299-1.8872,5.2067c0.6776,1.3452,1.9199,1.7835,3.727,1.3148c0.5582-0.1448,1.0824-0.4151,1.5724-0.8109
			c0.49-0.3958,0.7509-0.8095,0.7828-1.2409L38.3559,19.1382L38.3559,19.1382z M52.6275,6.86
			c2.336-0.6058,4.2909-0.6325,5.8649-0.0801c0.7473,0.2637,1.4253,0.6367,2.0339,1.1194c0.2844,0.235,0.5385,0.4921,0.7623,0.7715
			c0.2237,0.2794,0.4273,0.601,0.6107,0.9652l0.2904,0.5765l0.1488,0.4932c0.2942,1.0787,0.2408,2.1847-0.1602,3.3179
			c-0.4009,1.1332-1.1837,2.1596-2.3484,3.0791c-1.1646,0.9196-2.6212,1.6061-4.3695,2.0595
			c-2.3653,0.6135-4.3425,0.6373-5.9314,0.0716c-1.5889-0.5657-2.7044-1.4857-3.3463-2.7602l-0.1478-0.4419l-0.1861-0.5179
			l-0.1555-0.4571c-0.2265-1.142-0.1481-2.2231,0.2352-3.243c0.3832-1.02,1.1548-1.9862,2.3146-2.8989
			C49.403,8.0022,50.8645,7.3173,52.6275,6.86L52.6275,6.86z M53.2452,9.7189c-2.2625,0.5867-2.9142,2.2939-1.9551,5.1214
			c0.7082,1.4059,1.8777,1.8974,3.5085,1.4745c1.2929-0.3353,2.0767-1.0217,2.3514-2.0593c0.2747-1.0375,0.1598-2.057-0.3446-3.0583
			c-0.3312-0.6574-0.7943-1.1235-1.3893-1.398C54.821,9.5247,54.0974,9.4979,53.2452,9.7189L53.2452,9.7189z"/>
		<path style="fill:#506185;" d="M4.0534,32.39L1.2376,20.2747l7.8212-2.0284c1.3958-0.3619,2.5869-0.5355,3.5443-0.5157
			c0.0409-0.0008,0.0898-0.0012,0.1384-0.0012c0.9556,0,1.7717,0.1593,2.4255,0.4732c0.7012,0.3366,1.2358,0.8627,1.5891,1.5638
			c0.1217,0.2413,0.223,0.5164,0.3021,0.8194l1.0536-4.6872l5.5903-1.4497l5.8156,7.0576c-0.0754-0.1236-0.1463-0.251-0.2124-0.3823
			l-0.3409-0.7411l-0.1438-0.6317c-0.4389-1.8931-0.0682-3.6597,1.1026-5.25c0.5969-0.8121,1.3958-1.5217,2.3745-2.109
			c0.9712-0.5828,2.1494-1.0562,3.5014-1.4068c0.726-0.1883,1.3755-0.3185,1.9304-0.3872c0.5585-0.0686,1.1762-0.0844,1.8374-0.047
			c1.1511,0.0534,2.1717,0.3238,3.0314,0.804c0.8691,0.4853,1.5342,1.1764,1.9762,2.0541l0.1598,0.3164l-5.368,1.3923
			l-0.0923-0.1297c-0.57-0.8011-1.4866-1.0219-2.7853-0.6852c-0.9301,0.2412-1.5708,0.6835-1.9042,1.3147
			c-0.4384,0.8299-0.3806,2.033,0.1718,3.5765c0.6305,1.2401,1.7654,1.6211,3.4563,1.1827c0.5235-0.1357,1.0233-0.3937,1.485-0.7669
			c0.3007-0.2428,0.5057-0.4907,0.6129-0.7404l-2.125,0.5512l-0.7039-2.9711l7.5675-1.9626l1.5805,6.8951l-3.7109,0.9624
			l-0.4156-0.9085c-0.9671,1.1303-2.4135,1.951-4.306,2.4417c-2.0611,0.5347-3.9064,0.5443-5.4824,0.029
			c-0.9046-0.2957-1.6652-0.7249-2.2758-1.283l1.9846,2.4082l-5.6831,1.4738l-0.9983-1.3878l-4.8957,1.2696l-0.214,1.7023
			l-5.5869,1.4489l1.2258-5.453c-0.9425,1.093-2.6056,1.9512-4.9806,2.5672l-2.4478,0.6347l0.8601,3.6365L4.0534,32.39z
			 M1.79,20.6091l2.6065,11.2143l4.7523-1.2325l-0.8601-3.6365l2.8858-0.7485c4.1875-1.086,5.9784-2.8344,5.4745-5.3454
			c-0.0745-0.332-0.1777-0.6318-0.3059-0.8861c-0.3063-0.6077-0.7694-1.0636-1.3762-1.3551
			c-0.591-0.2837-1.3396-0.4275-2.2255-0.4275l-0.1393,0.0011c-0.0551-0.001-0.102-0.0015-0.1497-0.0015
			c-0.8895,0-1.992,0.1691-3.2777,0.5025L1.79,20.6091z M18.5009,16.2753l-2.8384,12.6263l4.5503-1.18l0.214-1.7023l5.5057-1.4279
			l0.9983,1.3878l4.6744-1.2122l-8.0725-9.7967L18.5009,16.2753z M29.4098,20.2561l0.3115,0.6662
			c0.607,1.2054,1.6636,2.0638,3.1368,2.5454c1.4916,0.4879,3.2484,0.4751,5.2228-0.0371c1.9514-0.5059,3.3951-1.3707,4.2911-2.57
			l0.2332-0.3122l0.5725,1.2517l2.9005-0.7522l-1.3737-5.9932L38.036,16.784l0.4903,2.0711l2.3539-0.6105l-0.0239,0.322
			c-0.0368,0.4959-0.3289,0.9681-0.8682,1.4035c-0.5134,0.4149-1.0717,0.7025-1.6595,0.8549
			c-1.9166,0.4972-3.2655,0.0062-3.9915-1.4348l-0.0111-0.0257c-0.6025-1.6773-0.6533-3.0104-0.1503-3.9624
			c0.3966-0.7507,1.1358-1.271,2.197-1.5463c1.4222-0.3682,2.4946-0.1171,3.1809,0.7363l4.5045-1.1683
			c-0.3973-0.7024-0.9633-1.2616-1.685-1.6647c-0.7967-0.4448-1.7487-0.6958-2.8298-0.7459
			c-0.6411-0.0365-1.2263-0.0213-1.7568,0.0441c-0.5353,0.066-1.1649,0.1925-1.8713,0.3758
			c-1.3091,0.3395-2.4463,0.7957-3.3795,1.3556c-0.9258,0.5556-1.6794,1.2239-2.2399,1.9865
			c-1.087,1.4768-1.4317,3.1161-1.0242,4.8724L29.4098,20.2561z M7.746,24.6909l-0.6594-3.0513l1.7575-0.4558
			c1.734-0.4496,2.7711-0.2949,3.1481,0.4526c0.2537,0.5041,0.1883,1.0172-0.1899,1.484c-0.3533,0.4357-0.8831,0.7475-1.5753,0.9271
			L7.746,24.6909z M7.6325,21.9758l0.4639,2.1467l2.0146-0.5226c0.5944-0.1541,1.0425-0.4134,1.3319-0.7705
			c0.2662-0.3282,0.3093-0.6413,0.1361-0.9847c-0.1531-0.3039-0.5064-0.4516-1.0805-0.4516c-0.4111,0-0.9285,0.0803-1.5385,0.2385
			L7.6325,21.9758z M20.7975,23.8277l0.7235-4.9448l0.4183-0.0987l2.8005,4.0211L20.7975,23.8277z M21.894,19.5278l-0.538,3.6774
			l2.6248-0.6808L21.894,19.5278z M52.084,19.8721c-0.9631,0-1.8489-0.1414-2.6327-0.4205
			c-1.6394-0.5837-2.8086-1.5507-3.475-2.8741l-0.0126-0.0306l-0.1479-0.4419l-0.3492-1.0034
			c-0.2339-1.1797-0.1513-2.3133,0.2456-3.3694c0.3964-1.0549,1.1997-2.0641,2.388-2.9991c1.1796-0.9283,2.6833-1.6338,4.4692-2.097
			c2.3713-0.6148,4.3884-0.6399,5.9996-0.0744c0.7685,0.2712,1.4751,0.6602,2.1009,1.1563
			c0.2987,0.2466,0.5662,0.5175,0.7992,0.8081c0.2325,0.2902,0.4465,0.6286,0.6366,1.0057l0.3052,0.6137l0.1488,0.4932
			c0.3075,1.1257,0.2517,2.2885-0.1634,3.4619c-0.4138,1.1696-1.229,2.2407-2.423,3.1835
			c-1.1845,0.9353-2.6833,1.6425-4.4548,2.1019C54.2747,19.7086,53.1193,19.8721,52.084,19.8721z M46.3966,16.3842
			c0.6125,1.2062,1.6925,2.0916,3.2098,2.6318c1.5372,0.5471,3.4888,0.521,5.796-0.0777c1.709-0.4432,3.1504-1.1219,4.2841-2.0171
			c1.1247-0.8879,1.8896-1.8887,2.274-2.9748c0.3831-1.0829,0.4353-2.1529,0.1549-3.1801l-0.1413-0.4679L61.6927,9.74
			c-0.1756-0.3485-0.3723-0.6595-0.5845-0.9247c-0.2133-0.2659-0.4585-0.5142-0.7292-0.7378
			c-0.582-0.4613-1.2439-0.8256-1.9636-1.0796c-1.5214-0.5338-3.4513-0.5049-5.7301,0.0859
			c-1.7236,0.447-3.1703,1.1243-4.2995,2.0127c-1.1209,0.8821-1.8747,1.8236-2.2408,2.7984
			c-0.3646,0.9698-0.4411,2.0133-0.2278,3.102L46.3966,16.3842z M53.7415,16.6927h-0.0002
			c-1.1791-0.0001-2.0733-0.5883-2.6578-1.7485l-0.0124-0.0297c-0.5569-1.6418-0.5831-2.9488-0.0779-3.8844
			c0.4023-0.7453,1.1405-1.2617,2.1941-1.535c0.901-0.2338,1.6841-0.2019,2.3257,0.0941c0.6409,0.2958,1.1452,0.8018,1.499,1.504
			c0.528,1.0486,0.6497,2.1325,0.3614,3.2214c-0.2964,1.1194-1.1432,1.8677-2.5167,2.224
			C54.4623,16.6408,54.0871,16.6927,53.7415,16.6927z M51.5038,14.7506c0.5059,0.9956,1.238,1.4797,2.2374,1.4798h0.0002
			c0.3066,0,0.6427-0.047,0.9992-0.1394c1.2168-0.3156,1.9318-0.9353,2.1857-1.8946c0.2585-0.9764,0.1483-1.9505-0.3276-2.8952
			c-0.3054-0.6064-0.736-1.0412-1.2796-1.292c-0.5432-0.2506-1.2211-0.2724-2.016-0.0665c-0.924,0.2397-1.5645,0.6794-1.9033,1.3071
			C50.96,12.065,50.9947,13.2429,51.5038,14.7506z"/>
	</g>
</g>
</svg>
