<?xml version="1.0" encoding="utf-8"?>
<!-- Generator: Adobe Illustrator 18.0.0, SVG Export Plug-In . SVG Version: 6.00 Build 0)  -->
<!DOCTYPE svg PUBLIC "-//W3C//DTD SVG 1.1//EN" "http://www.w3.org/Graphics/SVG/1.1/DTD/svg11.dtd">
<svg version="1.1" id="Layer_1" xmlns="http://www.w3.org/2000/svg" xmlns:xlink="http://www.w3.org/1999/xlink" x="0px" y="0px"
	 width="161.5px" height="50px" viewBox="0 0 161.5 50" style="enable-background:new 0 0 161.5 50;" xml:space="preserve">
<g>
	<path style="fill:#11A6DF;" d="M137.4005,49.3914c-3.2293-0.1455-6.338-0.7831-9.1975-2.3525
		c-4.1484-2.2767-6.5329-5.8981-7.7538-10.3637c-0.6481-2.3705-0.8704-4.7967-0.8646-7.2563
		c0.0208-8.7895,0.0067-17.5792,0.0094-26.3687c0.0005-1.6688,0.9641-2.7643,2.526-2.895c0.2982-0.128,0.612-0.0642,0.9178-0.0644
		c6.4759-0.0043,12.9517-0.0031,19.4259-0.0034c0.2716-0.012,0.4511,0.0601,0.3398,0.3864c-0.093,0.2728-0.2507,0.514-0.4485,0.7129
		c-1.0957,1.1024-2.0755,2.3122-3.18,3.4069c-0.6705,0.6645-1.4942,0.884-2.395,0.8995c-1.2999,0.0223-2.6003-0.0071-3.9001,0.0126
		c-0.9531,0.0144-1.1599,0.1983-1.162,1.1515c-0.0152,6.8961-0.0347,13.7924,0.0176,20.6883
		c0.0085,1.1229,0.1015,2.2545,0.1649,3.3812c0.2092,3.7183,2.6522,6.6175,6.2774,7.5084c1.0187,0.2504,2.0485,0.4084,3.1042,0.3715
		c1.0076-0.0352,1.1311-0.133,1.1358-1.1275c0.0103-2.1762,0.0026-4.3525,0.0037-6.5287c0.0002-0.3108-0.0114-0.6225,0.0211-0.9321
		c0.0923-0.8792,0.4212-1.2103,1.2959-1.2413c0.9602-0.0341,1.922,0.0072,2.8826-0.0136c4.1747-0.0906,7.8788-1.439,10.9481-4.2974
		c1.3064-1.2166,2.309-2.7034,3.0773-4.3323c0.1725-0.3656,0.2739-0.8402,0.8459-0.7952c0,9.0472,0,18.0944,0,27.1415
		c-0.4248,2.2124-1.3491,2.963-3.6534,2.9657c-6.5067,0.0004-13.0116,0.001-19.5165-0.0023
		C138.0152,49.4432,137.7028,49.4938,137.4005,49.3914z"/>
	<path style="fill:#E6EEF5;" d="M137.4005,49.3914c6.901,0.0004,13.8019,0.0008,20.7029,0.0012
		c0.0521,0.0326,0.0688,0.0643,0.0505,0.0952c-0.018,0.0303-0.036,0.0455-0.0541,0.0455c-6.8985,0-13.797,0-20.6954,0
		C137.4038,49.486,137.4025,49.4387,137.4005,49.3914z"/>
	<path style="fill:#82B7D7;" d="M142.663,0c0.0002,0.0556,0.0024,0.1112,0.0066,0.1666
		c-6.8498-0.0038-13.6997-0.0076-20.5496-0.0115c0.0159-0.0506,0.0216-0.1023,0.0172-0.1551C128.9791,0,135.8211,0,142.663,0z"/>
	<path style="fill:#FDFEFE;" d="M158.0998,49.5333c0.0007-0.0469,0.0019-0.0939,0.0036-0.1407
		c1.8563-0.1255,2.8864-1.2122,3.3891-2.9127c0,0.9047-0.0163,1.8099,0.0093,2.7139c0.0084,0.2955-0.0535,0.3559-0.3488,0.3488
		C160.1357,49.5184,159.1176,49.5333,158.0998,49.5333z"/>
	<path style="fill:#818385;" d="M62.4259,14.7591c0-2.2611-0.0033-4.5223,0.0016-6.7834c0.0021-0.9932,0.1962-1.1839,1.179-1.1937
		c0.4804-0.0048,0.9612,0.0097,1.4414-0.0033c0.3923-0.0106,0.7167,0.1607,0.7585,0.5246c0.0918,0.7991,0.5337,0.4935,0.8751,0.295
		c1.2757-0.7417,2.6384-1.0118,4.1089-1.0002c2.9492,0.0233,4.2488,1.7815,4.5174,4.2002
		c0.4029,3.6281,0.0941,7.2754,0.1806,10.9131c0.0167,0.7027-0.3172,1.0213-1.02,1.0232c-3.0557,0.0084-2.5421,0.1094-2.5615-2.4225
		c-0.0178-2.3175-0.0273-4.6357,0.0092-6.9528c0.0125-0.7947-0.1308-1.5664-0.1794-2.3504
		c-0.0448-0.7228-0.4406-1.2214-1.1872-1.3025c-1.4795-0.1607-2.9089-0.0253-4.2406,0.7463
		c-0.3764,0.2181-0.2943,0.4995-0.2947,0.7862c-0.0058,3.42-0.003,6.84-0.0042,10.2599c-0.0004,1.0771-0.1428,1.225-1.2086,1.2312
		c-2.5367,0.0149-2.3893,0.1782-2.3772-2.3745C62.433,18.49,62.4259,16.6246,62.4259,14.7591z"/>
	<path style="fill:#818385;" d="M41.9909,6.7811c1.8386,0.0569,1.6672-0.4395,2.1539,1.805
		c0.7576,3.4938,1.5792,6.9739,2.3956,10.4546c0.0902,0.3846,0.1504,0.9254,0.6952,0.933c0.5506,0.0077,0.6172-0.5323,0.7063-0.9175
		c0.8817-3.81,1.7482-7.6235,2.5962-11.4411c0.1299-0.5846,0.3624-0.8909,1.0121-0.8447c0.6746,0.0479,1.3558,0.0267,2.0331,0.0061
		c0.6164-0.0188,0.8199,0.227,0.6523,0.8281c-0.8398,3.0133-1.6499,6.035-2.5092,9.0427c-0.4211,1.4739-0.6742,3.0066-1.3356,4.4002
		c-0.7224,1.5221-2.0504,1.9659-3.6375,1.8573c-1.2729-0.0871-2.4405-0.97-2.8225-2.2949
		c-1.0444-3.6224-2.0439-7.2578-3.0551-10.8897c-0.1948-0.6995-0.3076-1.4267-0.557-2.1048
		c-0.2654-0.7215,0.045-0.8586,0.6551-0.8365C41.3125,6.7912,41.6519,6.7811,41.9909,6.7811z"/>
	<path style="fill:#818385;" d="M77.6865,14.7362c-0.0258-1.6281-0.0812-3.2448,0.6654-4.7852
		c0.9722-2.0057,2.6231-3.0447,4.7267-3.3003c1.4684-0.1784,2.9729-0.1066,4.4397,0.2745c0.5026,0.1306,0.6847,0.3794,0.7034,0.8784
		c0.0709,1.8872,0.0818,1.8845-1.7336,1.8678c-0.7628-0.007-1.5296,0.0473-2.2878-0.0119
		c-2.0088-0.1567-2.7476,1.0548-2.9028,2.7221c-0.146,1.5686-0.1432,3.1714-0.0014,4.7408c0.1516,1.6781,0.9049,2.8935,2.8915,2.731
		c1.1206-0.0917,2.2557,0.1265,3.3704-0.128c0.1961-0.0448,0.3475,0.0052,0.4436,0.1494c0.4479,0.6719,0.1793,1.4249,0.1825,2.1361
		c0.0021,0.4791-0.4744,0.5224-0.8788,0.6047c-1.7774,0.3618-3.5361,0.4594-5.3241,0.0002
		c-2.7307-0.7013-4.1321-3.2311-4.2868-5.5919C77.6445,16.2645,77.6865,15.499,77.6865,14.7362z"/>
	<path style="fill:#818385;" d="M16.4549,14.7259c0-2.2023-0.0052-4.4047,0.0022-6.607c0.0039-1.1504,0.1929-1.3341,1.3055-1.3376
		c0.4518-0.0014,0.9036-0.0054,1.3552,0.0025C19.4715,6.79,19.8385,6.876,19.916,7.2585c0.1521,0.7504,0.5457,0.5509,0.9285,0.262
		c0.8438-0.6368,1.8281-0.8034,2.834-0.9051c0.6322-0.0639,0.9612,0.2229,0.9243,0.8814c-0.0095,0.1689-0.0013,0.3387-0.0013,0.5081
		c0.0003,1.5854-0.0175,1.6068-1.5596,1.667c-0.9165,0.0358-1.7336,0.4248-2.5683,0.7357
		c-0.4077,0.1519-0.2834,0.5719-0.2839,0.8961c-0.0051,3.3035-0.0023,6.607-0.0035,9.9105
		c-0.0005,1.289-0.2291,1.4998-1.5092,1.5207c-2.0119,0.0328-2.2621,0.1778-2.2277-2.2491
		C16.4766,18.5661,16.4549,16.6459,16.4549,14.7259z"/>
	<path style="fill:#818385;" d="M59.5642,14.8251c0,2.2863-0.0224,4.573,0.013,6.8587c0.0114,0.7344-0.295,1.0367-0.9794,1.0451
		c-0.5644,0.0069-1.1291,0.0047-1.6935,0.0004c-0.6198-0.0048-0.9236-0.3274-0.9237-0.942c-0.0004-4.6855,0-9.3711-0.0004-14.0566
		c-0.0001-0.6694,0.353-0.9593,1.0007-0.9509c0.5362,0.007,1.0738,0.024,1.6086-0.0042c0.7423-0.0391,0.9891,0.3152,0.9827,1.0212
		C59.5511,10.1395,59.5642,12.4824,59.5642,14.8251z"/>
	<path style="fill:#818385;" d="M90.5629,14.7438c0-2.2854-0.0023-4.5708,0.0011-6.8563c0.0015-0.9938,0.1169-1.1018,1.1359-1.106
		c0.5079-0.0021,1.0158-0.0034,1.5236,0.0013c0.6184,0.0057,0.9228,0.3276,0.9229,0.9411
		c0.0006,4.6273,0.0023,9.2545-0.0015,13.8818c-0.0006,0.7715-0.3265,1.1443-1.1767,1.1406
		c-2.9067-0.0126-2.3739,0.0046-2.4011-2.416C90.5462,18.4684,90.5629,16.606,90.5629,14.7438z"/>
	<path style="fill:#818385;" d="M92.3449,1.0135c1.807-0.0001,1.807-0.0001,1.807,1.774c0,0.2536-0.0083,0.5075,0.0014,0.7607
		c0.0228,0.5932-0.2465,0.8917-0.8502,0.8858c-0.6761-0.0067-1.3536-0.0273-2.0282,0.0063
		c-0.5515,0.0275-0.7968-0.2926-0.8366-0.739c-0.0573-0.6429-0.0521-1.2972-0.0045-1.9416
		c0.0373-0.5055,0.3183-0.8146,0.8975-0.7526C91.6655,1.0429,92.0068,1.0136,92.3449,1.0135z"/>
	<path style="fill:#818385;" d="M57.863,1.0135c1.8491,0,1.8494,0,1.8483,1.8428c-0.0002,0.2819,0.034,0.5711-0.0167,0.8441
		c-0.0827,0.4452-0.2892,0.7682-0.8423,0.7401c-0.675-0.0343-1.3531-0.0111-2.0299-0.0073
		c-0.5957,0.0033-0.8804-0.2893-0.8654-0.8827c0.005-0.1973,0.0024-0.3948,0.0002-0.5921
		C55.9343,0.9162,55.8573,0.9869,57.863,1.0135z"/>
	<path style="fill:#10A6E0;" d="M142.8326,15.0381c0-1.2705-0.0037-2.5411,0.0011-3.8116c0.004-1.0712,0.328-1.4078,1.4208-1.3909
		c1.3899,0.0216,2.7531-0.1013,4.1026,0.6171c2.7059,1.4404,3.622,5.125,1.727,7.6492c-1.0755,1.4327-2.5125,2.1972-4.3523,2.0978
		c-0.5067-0.0274-1.0162-0.0014-1.5244-0.0048c-1.0477-0.0071-1.3672-0.3146-1.3731-1.3452
		C142.8272,17.5791,142.8326,16.3086,142.8326,15.0381z"/>
	<path style="fill:#818385;" d="M14.5282,6.7358c-0.2666-1.7652-1.1521-3.2083-2.8046-4.1572
		C9.9902,1.5833,8.0847,1.4053,6.2128,1.4198C4.7153,1.4315,3.1872,1.4402,1.6812,1.6814C0.211,1.9168,0.0004,2.0894,0.0004,3.6055
		c-0.0001,2.8814,0,5.7628,0,8.6441c0,2.9944-0.001,5.9887,0.0005,8.9831c0.0006,1.2494,0.2422,1.4974,1.4452,1.4982
		c0.4237,0.0003,0.8475,0.0035,1.2712-0.0006c0.9826-0.0096,1.1805-0.2027,1.1831-1.1892c0.0051-1.9774,0.0374-3.9558-0.0171-5.9318
		C3.863,14.8766,4.1007,14.7217,4.785,14.741c1.3755,0.0388,2.7528,0.0964,4.1283-0.1358c2.0319-0.343,3.701-1.2239,4.8523-2.9821
		C14.7579,10.1076,14.7795,8.3997,14.5282,6.7358z M8.4959,11.4486c-1.4108,0.3869-2.8358,0.2677-4.2632,0.1085
		c-0.397-0.0443-0.3244-0.318-0.326-0.5553c-0.0065-0.958-0.0027-1.9161-0.0028-2.8742c-0.0001-0.9581,0.0103-1.9163-0.005-2.8742
		c-0.0064-0.3993,0.09-0.6649,0.5488-0.6557c1.3186,0.0266,2.6456-0.1605,3.9527,0.1577c1.6163,0.3935,2.4043,1.4188,2.4405,3.1777
		C10.881,9.8822,10.1421,10.9972,8.4959,11.4486z"/>
	<path style="fill:#818385;" d="M39.0061,12.6358c-0.2307-1.8148-0.8115-3.4558-2.3637-4.6316
		c-1.3878-1.0512-2.9165-1.4283-4.6362-1.4108c-2.564,0.026-5.0846,1.6882-5.9391,4.2681
		c-0.6785,2.0488-0.5008,4.1251-0.3788,6.1855c0.0788,1.3315,0.609,2.6015,1.5163,3.6607c1.6647,1.9433,3.8718,2.4917,6.2494,2.1544
		c2.443-0.3465,4.2687-1.643,5.138-4.1182c0.4633-1.3191,0.4471-2.6451,0.4285-3.9915
		C39.0205,14.0462,39.0945,13.3307,39.0061,12.6358z M35.2454,17.6156c-0.43,1.4472-1.4347,2.2327-2.9009,2.2306
		c-1.4811-0.0022-2.5234-0.7528-2.879-2.2419c-0.4501-1.8854-0.4477-3.8049-0.001-5.6911c0.3506-1.4804,1.3976-2.2371,2.8791-2.2424
		c1.457-0.0053,2.4808,0.7966,2.9027,2.2316c0.2768,0.9416,0.1918,1.9008,0.2068,2.8567
		C35.4384,15.715,35.5249,16.6748,35.2454,17.6156z"/>
	<path style="fill:#818385;" d="M108.736,16.7183c0-1.6111,0.0819-3.2274-0.0187-4.8322c-0.1591-2.538-0.9725-4.0962-3.3629-4.8592
		c-2.4657-0.787-4.9487-0.4186-7.4172-0.0148c-0.6758,0.1105-0.9172,0.9876-0.7338,2.0985
		c0.1175,0.7115,0.6226,0.5815,1.0935,0.5675c1.5191-0.0451,3.0339-0.288,4.555-0.1618c0.83,0.0689,1.7869,0.098,2.0683,1.1025
		c0.1854,0.6618,0.2704,1.3719,0.2424,2.0841c-0.0159,0.403-0.1445,0.5455-0.5456,0.5341c-1.0975-0.0312-2.1895,0.0375-3.2845,0.149
		c-3.0513,0.3107-5.2103,1.9136-4.9941,5.3857c0.1248,2.0044,1.3097,3.5267,3.2407,3.9745
		c1.6867,0.3911,3.2786,0.1408,4.7987-0.6771c0.3818-0.2054,0.8669-0.7482,1.0312,0.2546c0.0531,0.3244,0.5049,0.4013,0.8553,0.4054
		c0.4522,0.0052,0.9053-0.0157,1.3566,0.0058c0.7806,0.0372,1.1318-0.3063,1.1216-1.0983
		C108.7212,19.9973,108.7359,18.3577,108.736,16.7183z M105.1426,16.3222c-0.0367,0.3917-0.0071,0.7896-0.0071,1.1847
		c0,0.1129,0,0.2258,0,0.3387c0,1.6756,0.0026,1.6857-1.5868,2.0902c-0.8786,0.2237-1.7679,0.2452-2.6626,0.0555
		c-0.3086-0.0654-0.4973-0.27-0.6626-0.4879c-0.969-1.2775-0.117-3.41,1.4414-3.7365c0.9263-0.1941,1.852-0.097,2.7753-0.1639
		C105.0148,15.5611,105.1935,15.7788,105.1426,16.3222z"/>
	<path style="fill:#A0DCF1;" d="M135.3932,50c0.1678-0.2962,0.3357-0.2717,0.5035,0C135.7288,50,135.561,50,135.3932,50z"/>
	<path style="fill:#11A7E0;" d="M73.6883,34.0072c0,2.8424,0,5.5856,0,8.3288c0,1.5934-0.0068,3.1868,0.0033,4.7802
		c0.0042,0.6626-0.1385,1.1964-0.9449,1.1706c-0.7501-0.024-0.8205-0.5544-0.8197-1.1501c0.006-4.864,0.0108-9.7281-0.0043-14.5921
		c-0.0025-0.8038,0.2298-1.4263,1.0524-1.6351c0.9016-0.2288,1.5225,0.1603,1.9312,0.9881
		c1.9467,3.9427,3.9072,7.8786,5.8656,11.8156c0.2569,0.5165,0.5303,1.0249,1.0076,1.5357c0-0.343,0-0.6861,0-1.0291
		c0-3.9416,0.0061-7.8831-0.0055-11.8247c-0.0021-0.7212,0.0362-1.4487,0.9587-1.4386c0.8712,0.0095,0.8615,0.7437,0.8614,1.3908
		c-0.0009,4.7383-0.0044,9.4765,0.0011,14.2148c0.001,0.8547-0.1413,1.637-1.1119,1.8617
		c-0.9904,0.2293-1.5501-0.3387-1.9634-1.1742c-2.0054-4.0539-4.0255-8.1005-6.0537-12.143
		C74.2893,34.754,74.2146,34.3176,73.6883,34.0072z"/>
	<path style="fill:#13A7E0;" d="M86.0165,39.698c-0.0001-2.0117-0.0152-4.0234,0.0047-6.0349
		c0.0157-1.588,0.599-2.2965,2.1653-2.5765c2.16-0.3861,4.3439-0.1296,6.5167-0.1495c0.5548-0.0051,0.9416,0.3647,0.8988,0.9874
		c-0.0409,0.5942-0.4656,0.7391-0.9731,0.74c-1.7183,0.0031-3.4366-0.0035-5.1548,0.0043c-1.5391,0.0069-1.7098,0.1824-1.725,1.7591
		c-0.0092,0.9638,0.0534,1.9319-0.0172,2.8906c-0.0678,0.9195,0.3168,1.1345,1.1636,1.1082c1.7585-0.0546,3.52-0.0279,5.28-0.01
		c0.587,0.006,1.3875-0.2292,1.4209,0.7514c0.0366,1.0747-0.7769,0.9885-1.5044,0.9861c-1.7602-0.0056-3.5214,0.0331-5.2801-0.0173
		c-0.8142-0.0233-1.1183,0.228-1.0798,1.0645c0.0596,1.2965,0.0568,2.5993,0.0044,3.8964
		c-0.0465,1.1505,0.4953,1.5861,1.5783,1.5752c1.7181-0.0173,3.4365-0.0044,5.1548-0.0039
		c0.5736,0.0002,1.1563,0.0289,1.1298,0.8155c-0.025,0.7426-0.5809,0.8264-1.1639,0.823c-1.9693-0.0113-3.9407,0.027-5.9072-0.0541
		c-1.7176-0.0708-2.4901-0.9339-2.5071-2.6465C86.0016,43.6376,86.0166,41.6677,86.0165,39.698z"/>
	<path style="fill:#17A7E0;" d="M103.1961,40.4284c0,2.1359,0.0081,4.2719-0.0049,6.4077
		c-0.0039,0.6375,0.2026,1.4895-0.8629,1.4431c-0.9942-0.0433-0.8505-0.868-0.8522-1.5161
		c-0.0106-4.0624,0.0029-8.1248-0.0087-12.1872c-0.0062-2.1622,0.2688-1.8844-1.9683-1.9074
		c-0.67-0.0069-1.3403,0.0031-2.0099-0.016c-0.4654-0.0133-0.8083-0.2001-0.8462-0.7294c-0.0361-0.5041,0.2346-0.7883,0.6828-0.9146
		c0.2375-0.0669,0.4931-0.0966,0.7406-0.0971c3.0154-0.0066,6.0308-0.0033,9.0462-0.006c0.5711-0.0005,1.1413,0.0465,1.283,0.7273
		c0.1406,0.6757-0.1945,1.0321-0.8911,1.0324c-0.9632,0.0005-1.9348,0.0821-2.8876-0.0172
		c-1.2133-0.1264-1.4867,0.382-1.4438,1.4993C103.2532,36.2382,103.1961,38.3344,103.1961,40.4284z"/>
</g>
</svg>
