<?xml version="1.0" encoding="utf-8"?>
<!-- Generator: Adobe Illustrator 18.0.0, SVG Export Plug-In . SVG Version: 6.00 Build 0)  -->
<!DOCTYPE svg PUBLIC "-//W3C//DTD SVG 1.1//EN" "http://www.w3.org/Graphics/SVG/1.1/DTD/svg11.dtd">
<svg version="1.1" id="Layer_1" xmlns="http://www.w3.org/2000/svg" xmlns:xlink="http://www.w3.org/1999/xlink" x="0px" y="0px"
	 width="112.36px" height="50px" viewBox="0 0 112.36 50" style="enable-background:new 0 0 112.36 50;" xml:space="preserve">
<ellipse transform="matrix(0.9189 -0.3945 0.3945 0.9189 2.9223 30.7278)" style="fill:#E93F2E;" cx="76.1901" cy="8.257" rx="8.3063" ry="5.8273"/>
<path style="fill:#373379;" d="M63.7808,25.3928l-11.7752,0.0486l-1.2115,3.0531h1.3081c0,0,0.7266,0.2418,0.4362,1.0173
	L48.0327,40.754h4.457l1.745-4.2156h5.3788c0,0,2.6162-0.0486,4.0701-2.5685l2.4223-6.0085
	C66.1059,27.9614,66.8818,25.926,63.7808,25.3928z M61.0188,29.7057l-1.2601,2.8589c0,0-0.2418,0.7756-1.4539,0.7756l-2.8592-0.0969
	l1.8422-4.6035h3.101C60.3888,28.6397,61.2606,28.6397,61.0188,29.7057z"/>
<path style="fill:#373379;" d="M78.8995,31.6438l2.5195-6.2027h-9.3043c0,0-3.7304,0.388-4.7487,2.811l-1.9867,4.7487
	c0,0-0.969,3.101,1.6964,3.3435h12.017l1.2601-3.0041C80.3527,33.3402,78.0756,33.6308,78.8995,31.6438z M73.9083,33.3402h-3.2468
	c0,0-0.6781-0.0973-0.3397-1.2601c0,0,1.0177-3.4889,2.4723-3.5855l2.8592,0.0966L73.9083,33.3402z"/>
<path style="fill:#373379;" d="M95.0132,28.6687l-1.649-1.7683c-0.6894-0.6291,0.0606-1.2588,0.0606-1.2588l0.8092-0.5695
	l-2.0693-2.2178c-6.2033,3.1173-11.2678,6.564-11.2678,6.564c-0.9597,1.1689-0.06,2.5176-0.06,2.5176l3.9262,4.0761
	c0.3889,1.1092-0.7493,1.3487-0.7493,1.3487l-2.788-0.0299l-1.3787,3.027c0.7193,0,4.9758-0.06,4.9758-0.06
	c3.8656-1.9477,4.9452-3.5066,4.9452-3.5066c0.6887-0.9594-0.0306-1.9481-0.0306-1.9481c-0.5102-0.6294,0.3303-0.8992,0.3303-0.8992
	c3.2063-1.7682,4.7055-3.2069,4.7055-3.2069C95.5826,29.748,95.0132,28.6687,95.0132,28.6687z M90.3371,30.2871l-3.3561,2.1283
	c-0.5095,0.2694-0.8092-0.0899-0.8092-0.0899L84.823,30.797c-0.3603-0.4496,0.2092-1.1093,0.2092-1.1093l2.5781-1.6481
	c1.139-0.4795,1.5885,0.0297,1.5885,0.0297l1.1383,1.1092C90.7273,29.7779,90.3371,30.2871,90.3371,30.2871z"/>
<path style="fill:#373379;" d="M111.6737,29.0473c0,0-3.3567-3.3268-4.1653-3.6564c0,0-1.7989-0.8092-3.5372,0.03
	c0,0-5.2742,2.6374-7.7325,4.2855c0,0-1.5278,1.1692-0.9591,2.6677c0,0,3.1164,3.6268,4.0761,4.076c0,0,1.1988,0.8396,3.2968,0.2099
	c0,0,5.9942-2.3074,8.992-5.155C111.6444,31.505,112.5428,30.4859,111.6737,29.0473z M106.6992,31.2652
	c-0.0306,0.1498-3.0278,1.7383-3.0278,1.7383c-0.959,0.5095-1.6484,0.0603-1.6484,0.0603c-0.4795-0.2697-1.4386-1.439-1.4386-1.439
	c-0.3604-0.3899,0.0293-0.959,0.0293-0.959c0.5994-0.5994,3.1483-1.8882,3.1483-1.8882c0.5995-0.3896,1.5572,0.09,1.5572,0.09
	l1.38,1.2588C107.268,30.6657,106.6992,31.2652,106.6992,31.2652z"/>
<path style="fill:#E93F2E;" d="M50.1426,25.4508h-4.4357c0,0-2.8179,6.8634-3.0873,7.7925c0,0-0.5395,1.678,0.2694,2.3374
	c0,0,0.8698,0.8695,1.8283,0.8695l3.087-0.0299l1.3187-3.057h-0.9884c0,0-1.1389-0.2398-0.66-1.3187L50.1426,25.4508z"/>
<path style="fill:#E93F2E;" d="M48.1046,21.0151c0,0,1.6484-0.5398,2.5775,0.0899c0,0,1.1989,0.719,0.2398,2.0081
	c0,0-0.7499,1.2584-2.8173,1.2887c0,0-1.739,0.2095-1.8588-1.2291C46.2458,23.1727,46.1558,21.7041,48.1046,21.0151z"/>
<path style="fill:#E93F2E;" d="M42.3496,26.1401c0,0-0.5991-0.6593-2.0976-0.7795l-11.2994,0.0303l-1.1689,3.117h0.9591
	c0,0,1.049,0,0.4496,1.5285L24.996,40.766l4.4058,0.0303l1.6185-4.4061l5.7248,0.03c0,0,1.6484,0.1798,3.147-1.6484
	c0,0,2.2781-3.6265,2.8772-6.3538C42.7691,28.4179,43.339,26.9194,42.3496,26.1401z M37.764,29.7663
	c0,0.5998-1.1389,2.7577-1.1389,2.7577c-0.5691,0.7793-1.4985,0.7793-1.4985,0.7793h-2.8473l1.9185-4.6455h2.9671
	C38.1836,28.6877,37.764,29.7663,37.764,29.7663z"/>
<path style="fill:#E93F2E;" d="M25.1758,31.5349l2.488-6.1441l-8.9317-0.0303c-1.3487,0-2.8472,0.6896-2.8472,0.6896
	c-1.7384,0.8392-2.1283,2.0377-2.1283,2.0377c-0.659,0.9894-2.0078,4.7957-2.0078,4.7957c-0.7793,1.8882,0,2.5476,0,2.5476
	c0.7493,1.049,2.1879,1.019,2.1879,1.019l11.4489,0.03l1.2588-3.0271l-1.4086-0.2398
	C24.5465,32.8836,25.1758,31.5349,25.1758,31.5349z M20.1407,33.2433l-2.9671,0.0599c0,0-1.0789-0.0596-0.5994-1.4686
	c0,0,0.5395-1.8882,1.1389-2.5179c0,0,0.3893-0.719,1.5585-0.719l2.6074,0.0599L20.1407,33.2433z"/>
<path style="fill:#E93F2E;" d="M13.4872,25.4209l-1.319,3.1769H8.6619c0,0-0.9594-0.1798-1.5589,1.1685l-2.6074,6.6539l-4.4956,0.06
	l4.3757-11.0893L13.4872,25.4209z"/>
<path style="fill:#373379;" d="M74.8987,0.0348c0,0-4.3458,1.4686-5.8144,3.1769c0,0-2.4876,2.2179-3.2975,5.7245
	c0,0-0.3883,3.2967,1.2295,4.9152c0,0,1.4986,1.9185,2.9678,2.428c0,0,2.0973,0.8691,5.2136,0.5697c0,0,5.2156-0.6597,7.943-3.6568
	c0,0-1.3187,2.7873-5.5139,5.6349c0,0-2.8779,2.0976-7.4941,3.1466c0,0-4.2259,1.1089-7.9124,0.1798
	c0,0-3.7757-0.7492-5.5446-2.9971c0,0-1.9181-1.8882-1.9481-4.5855c0,0-0.2398-3.0271,2.2478-6.4438
	c0,0,2.5475-3.1173,5.0957-4.6158c0,0,3.3274-1.8882,5.8436-2.6371C67.9148,0.8743,71.3028-0.205,74.8987,0.0348z"/>
<polyline style="fill:none;stroke:#000000;" points="3.7566,43.2556 0.9097,48.3126 0.1731,43.1956 "/>
<path style="fill:none;stroke:#000000;" d="M8.8537,47.8947c0,0-1.7716,1.6723-2.2698-0.5178c0,0,0-2.5685,1.5928-2.6481
	c0,0,1.2149-0.1792,0.8962,0.9558c0,0-0.1592,0.5771-0.8362,0.8561c0,0-1.1546,0.1193-1.4332,0.0793"/>
<line style="fill:none;stroke:#000000;" x1="13.6431" y1="44.6932" x2="12.9937" y2="48.5527"/>
<path style="fill:none;stroke:#000000;" d="M13.4389,45.8996c0,0,1.2987-1.2248,1.8183-1.0953c0,0,0.7422-0.0183,0.6311,0.8162
	l-0.6311,2.8766"/>
<line style="fill:none;stroke:#000000;" x1="20.6569" y1="43.858" x2="21.9743" y2="43.06"/>
<line style="fill:none;stroke:#000000;" x1="20.7498" y1="44.7305" x2="19.8773" y2="48.6084"/>
<path style="fill:none;stroke:#000000;" d="M27.0584,44.9529c0,0-1.1875-0.6677-1.8555,0.093c0,0-0.6307,0.8904,0.1854,1.2614
	c0,0,1.3917,0.4638,1.2987,1.0763c0,0,0.093,0.8162-1.2987,1.0763c0,0-0.8352,0.1112-1.2431-0.3523"/>
<path style="fill:none;stroke:#000000;" d="M28.7098,48.2374c0,0,0.0183-0.5011,0.4825-0.3713c0,0,0.3336,0.2971-0.0373,0.5198
	C29.155,48.3859,28.9139,48.627,28.7098,48.2374z"/>
<path style="fill:none;stroke:#000000;" d="M29.155,48.3859c0,0-0.1116,0.8532-0.7979,1.1132"/>
<line style="fill:none;stroke:#000000;" x1="38.7111" y1="44.7861" x2="37.6534" y2="50"/>
<path style="fill:none;stroke:#000000;" d="M38.5256,45.8623c0,0,0.9091-0.9841,1.6141-1.0023c0,0,1.0021-0.0739,0.9281,0.9277
	c0,0,0.0373,1.5402-0.6311,2.0597c0,0-0.6311,0.8348-2.2452,0.4452"/>
<path style="fill:none;stroke:#000000;" d="M47.358,48.4598c0,0-0.1305-0.6866,0-1.2804l0.4076-1.7253c0,0,0.2418-1.095-1.41-0.5755
	c0,0-1.0203,0.6501-1.2248,1.8742c0,0-0.3709,1.3174,0.4269,1.5771c0,0,0.5754,0.297,1.6324-0.7606"/>
<path style="fill:none;stroke:#000000;" d="M47.358,48.4598c0,0-0.1305-0.6866,0-1.2804l0.4076-1.7253c0,0,0.2418-1.095-1.41-0.5755
	c0,0-1.0203,0.6501-1.2248,1.8742c0,0-0.3709,1.3174,0.4269,1.5771c0,0,0.5754,0.297,1.6324-0.7606"/>
<path style="fill:none;stroke:#000000;" d="M54.6869,45.2686c0,0-0.5195-1.095-1.7623-0.2041c0,0-1.0577,0.7975-1.1136,1.7066
	c0,0-0.3343,1.5216,0.7053,1.6328c0,0,0.983-0.055,1.7623-0.9644C54.2787,47.4395,54.8728,45.7881,54.6869,45.2686z"/>
<path style="fill:none;stroke:#000000;" d="M54.4644,46.8084c0,0-0.2038,1.8739-0.6493,2.5796c0,0-0.9284,1.2058-2.728,0.1851"/>
<line style="fill:none;stroke:#000000;" x1="61.8493" y1="43.0234" x2="60.3088" y2="43.9325"/>
<path style="fill:none;stroke:#000000;" d="M60.9542,48.4935c0,0-0.1299-0.6863,0-1.2801l0.4076-1.7257
	c0,0,0.2411-1.095-1.41-0.5751c0,0-1.0203,0.6494-1.2241,1.8742c0,0-0.3716,1.317,0.4263,1.5771c0,0,0.5755,0.2967,1.6325-0.7606"/>
<path style="fill:none;stroke:#000000;" d="M67.8222,44.9495c0,0-1.1875-0.6677-1.8562,0.0933c0,0-0.63,0.8901,0.1865,1.2614
	c0,0,1.3914,0.4638,1.2987,1.0759c0,0,0.0926,0.8166-1.2987,1.0763c0,0-0.8352,0.1119-1.2434-0.3523"/>
<line style="fill:none;stroke:#000000;" x1="76.2854" y1="44.6935" x2="76.7861" y2="48.5158"/>
<path style="fill:none;stroke:#000000;" d="M78.8648,44.842c0,0-1.5219,2.9685-1.9668,3.7291c0,0-0.4276,0.9284-1.2621,1.355"/>
<path style="fill:none;stroke:#000000;" d="M87.3439,48.6084c0,0-0.6673-0.1292-0.4076-1.4656l0.8353-4.2306"/>
<path style="fill:none;" d="M92.3164,43.2462c0,0,0.2051-0.0746,0.2232,0.1852c0,0-0.0366,0.4086-0.2232,0.2414
	C92.3164,43.6728,92.0207,43.2275,92.3164,43.2462z"/>
<line style="fill:none;stroke:#000000;" x1="92.1507" y1="44.6006" x2="91.2222" y2="48.627"/>
<path style="fill:none;stroke:#000000;" d="M98.3366,44.9422c0,0-1.1875-0.6673-1.8555,0.0932c0,0-0.6307,0.8905,0.1858,1.2614
	c0,0,1.3914,0.4639,1.2987,1.0763c0,0,0.0926,0.8162-1.2987,1.0763c0,0-0.8352,0.1112-1.2441-0.3527"/>
<path style="fill:none;stroke:#000000;" d="M103.2279,43.6545c0,0-0.7606,2.5419-0.927,3.8779c0,0-0.3157,1.3174,0.983,0.9092"/>
<line style="fill:none;stroke:#000000;" x1="104.0264" y1="44.8603" x2="102.077" y2="44.823"/>
<path style="fill:none;stroke:#000000;" d="M109.0729,44.8047c0,0,1.1322-0.0742,1.0583,1.373c0,0-0.2045,1.2062-0.8172,1.7999
	c0,0-1.3914,1.0393-1.8735-0.0926c0,0-0.353-1.4845,0.2598-2.1712C107.7002,45.7138,108.2377,44.7491,109.0729,44.8047z"/>
<path style="fill:none;stroke:#000000;" d="M112.0973,47.8478c0,0,0.2598,0.0186,0.2598,0.2411c0,0-0.0366,0.3713-0.2598,0.2231
	C112.0973,48.312,111.6524,48.0519,112.0973,47.8478z"/>
</svg>
