<?xml version="1.0" encoding="utf-8"?>
<!-- Generator: Adobe Illustrator 18.0.0, SVG Export Plug-In . SVG Version: 6.00 Build 0)  -->
<!DOCTYPE svg PUBLIC "-//W3C//DTD SVG 1.1//EN" "http://www.w3.org/Graphics/SVG/1.1/DTD/svg11.dtd">
<svg version="1.1" id="Layer_1" xmlns="http://www.w3.org/2000/svg" xmlns:xlink="http://www.w3.org/1999/xlink" x="0px" y="0px"
	 width="50px" height="50px" viewBox="0 0 50 50" style="enable-background:new 0 0 50 50;" xml:space="preserve">
<g>
	<circle style="fill:#FDD306;" cx="25" cy="25" r="25"/>
	<path style="fill:#FFE87C;" d="M33.5724,21.4885c0.05,0.0224,0.1013,0.0257,0.1538,0.0099c0,0.2714,0,0.5429,0,0.8143
		C33.5331,22.0644,33.5459,21.7777,33.5724,21.4885z"/>
	<path style="fill:#006C4A;" d="M30.4839,20.9791c-0.0165,0.2011-0.033,0.4022-0.0587,0.7153
		c-0.1741-0.3775-0.1376-0.6178,0.0421-0.8424C30.5008,20.8907,30.5063,20.9331,30.4839,20.9791z"/>
	<path style="fill:#FEDB14;" d="M24.1171,49.6743c0.6515-0.2505,1.3029-0.2509,1.9544,0
		C25.42,49.6743,24.7685,49.6743,24.1171,49.6743z"/>
	<path style="fill:#017148;" d="M3.5547,22.4744c1.5159-9.3088,6.7201-15.4487,15.74-18.2992
		c0.6673-0.2109,1.3472-0.4094,2.0601-0.4197c0.0576,0.0619,0.1484,0.0517,0.213,0.0981c-0.0068-0.0349-0.0318-0.0739-0.0749-0.1171
		c2.2777-0.5035,4.565-0.4048,6.8535-0.0957c0.071,0.0096,0.1242,0.1515,0.1857,0.2317c0.5878,0.1023,1.1392,0.5247,1.7754,0.202
		c3.2882,0.7113,6.1473,2.276,8.7134,4.4092c0.7448,0.6192,1.4839,1.2525,2.0617,2.0441c0.0062,0.4889-0.3569,0.2237-0.6357,0.2975
		c0.4447,0.4368,0.9537,0.8062,0.9708,1.3413c0.1184,0.2077,0.1533,0.1406,0.1479,0.134c-0.3163-0.3903-0.5197-0.7769,0.1381-1.0404
		c0.7314,0.6887,1.2223,1.5573,1.7817,2.3751c0.1544,0.2257,0.1673,0.4117-0.0015,0.6521c-1.0341,1.473-2.0525,2.957-3.0761,4.4373
		c-0.7641-0.2249-0.0695-0.8082-0.3103-1.1618c0.2423,0.3582-0.4588,0.9394,0.3024,1.1751
		c-1.1236,1.7917-2.3219,3.5328-3.5575,5.2485c-0.4226-0.1395-0.3388-0.5013-0.3444-0.812
		c-0.0245-1.3474,0.0328-2.6956-0.0311-4.0427c-0.0323-0.0935-0.0825-0.1762-0.1507-0.2481
		c-0.9627,0.0108-1.9254,0.0216-2.888,0.0324c-0.1646,0.1522-0.1066,0.353-0.1068,0.535
		c-0.0032,4.0275-0.0035,8.0551,0.0009,12.0826c0.0002,0.1775-0.0748,0.3852,0.1262,0.5188
		c0.9044-0.0002,1.8087-0.0003,2.7131-0.0005c0.0467-0.0614,0.0936-0.1226,0.1411-0.1846c0.0409-0.0702,0.0714-0.1436,0.0904-0.2227
		c0.0756-1.2783-0.0515-2.5591,0.0682-3.8356c0.0103-0.0417,0.0206-0.0833,0.0309-0.125c0.3343-0.4147,0.6687-0.8295,1.063-1.3186
		c1.1021,1.958,2.1551,3.8288,3.2081,5.6995c1.0333,0.2284,2.0801,0.0403,3.119,0.1002c0.205,0.0118,0.4766-0.0747,0.4656,0.2727
		c-0.0131,0.4145,0.6364,0.6829,0.2482,1.1744c-0.1289,0.1632-0.2658,0.1563-0.4296,0.0382
		c0.1999,0.3511,0.4782-0.1543,0.6795,0.0789c-1.0884,2.7132-2.7931,4.9993-4.89,7.0056c-1.7315,1.6567-3.682,3.0094-5.8794,3.9678
		c-1.6275,0.7098-3.2799,1.3779-5.0761,1.5551c-0.0469-0.0536-0.103-0.0946-0.1685-0.1228c-0.2646-0.0258-0.4319-0.19-0.5951-0.3832
		c-0.1369-0.162-0.3009-0.3416-0.5432-0.1339c-0.1323,0.1286-0.2739,0.2311-0.4743,0.1711
		c-0.3224-0.2832-0.4155,0.0951-0.6009,0.2081c-1.0117,0.3142-1.962-0.0135-2.6284-0.132c0.6889,0.1067,1.6567,0.4963,2.6878,0.0933
		c0.1047-0.1522,0.2159-0.2943,0.4326-0.2607c0.3186,0.2849,0.4939-0.0468,0.7191-0.1674c0.3096,0.035,0.4703,0.2168,0.5124,0.5166
		c-0.0121,0.0784-0.0417,0.1495-0.0883,0.2132c-0.064,0.0456-0.1356,0.0702-0.2141,0.0736
		c-0.2951,0.0632-0.5965,0.0805-0.8951,0.1166c-0.1328,0.0626-0.2944,0.0189-0.419,0.1129
		c-0.3028,0.0103-0.6055,0.0206-0.9083,0.0309c-0.4818,0.1046-0.9636,0.1042-1.4454,0.0003
		c-0.7011,0.0293-1.4014,0.0484-2.0847-0.158c0.0517-0.1092,0.1507-0.0956,0.245-0.0945c-0.126-0.0005-0.2592-0.034-0.3612,0.0775
		c-2.4866-0.2226-4.8048-1.0087-7.0047-2.1505c-2.0805-1.0799-3.9851-2.4081-5.5613-4.1677
		c0.0615-0.6871-0.2114-1.0652-0.9425-1.0198c-2.6285-3.0054-4.277-6.4702-4.8847-10.4227
		c0.1365-0.2485,0.1365-0.2485-0.0354-0.2872c-0.3871-1.4569-0.2705-2.9508-0.3266-4.4321
		C3.2737,23.4332,3.3799,22.9506,3.5547,22.4744z"/>
	<path style="fill:#017148;" d="M43.3189,30.4636c-0.4833-0.8173-0.9665-1.6346-1.4497-2.4519
		c-0.0696-0.4952,0.0098-0.992,0.0019-1.665c-0.173,0.4122-0.1539,0.7692-0.4998,0.8724c-0.4931-0.7948-0.9695-1.6007-1.4881-2.3785
		c-0.192-0.288-0.1376-0.467,0.0565-0.7066c0.8805-1.0861,1.7466-2.1839,2.6178-3.2775c0.3288-0.0771,0.3693,0.2583,0.6073,0.4253
		c0.0793-0.219-0.015-0.4239,0.0069-0.6166c0.0188-0.1653,0.0608-0.3189,0.1847-0.438c0.1016-0.0977,0.2599-0.2023,0.3604-0.1428
		c0.7218,0.4271,1.4061-0.7372,2.1214-0.0392c0.1791,0.5234-0.6165,0.4901-0.5523,0.9056c0.0112-0.3957,0.6701-0.4272,0.6088-0.9111
		c0.0641-0.0529,0.1296-0.0549,0.1967-0.0065c-0.0087,0.6213,0.4518,1.1547,0.3368,1.796
		c-0.1081,0.1122-0.0639,0.2607-0.0936,0.3916c0.0209-0.0948,0.0115-0.2022,0.1102-0.2646
		c0.4943,2.6964,0.3452,5.3651-0.3442,8.0106c-0.2839,0.2669-0.5858,0.2962-0.9072,0.069c-0.0301-0.033-0.0661-0.0583-0.105-0.08
		c0.0455,0.0205,0.0829,0.0521,0.1145,0.0974c0.0275,0.7623-0.53,1.1308-1.208,0.7937
		C43.7635,30.7321,43.5999,30.4945,43.3189,30.4636z"/>
	<path style="fill:#057146;" d="M43.3189,30.4636c0.2342-0.2743,0.4134-0.1383,0.6612,0.0264
		c0.6314,0.4198,0.9398,0.2629,1.1467-0.5227c0.3246-0.017,0.6492-0.1038,0.9738-0.0005c-0.2214,1.3198-0.6497,2.5705-1.2547,3.7625
		c-0.1102,0.0754-0.2323,0.1381-0.3285,0.2284c-0.4187,0.3925-0.4575-0.3239-0.7848-0.2728
		c-0.0844,0.0132-0.081-0.2256,0.0247-0.3345c0.3191-0.3284,0.4635,0.1178,0.7408,0.2246
		c-0.0019-0.5514-0.3661-0.7089-0.7269-0.8808c0.1338-0.1008,0.2562-0.193,0.4124-0.3106
		c-0.1063-0.0569-0.1718-0.1229-0.2359-0.1216c-1.0264,0.0209-2.0561-0.1074-3.0794,0.0746
		c-0.4271,0.076-0.3932-0.0556-0.1052-0.2715c0.9899,0.0057,1.9799,0.006,2.9696,0.0198c0.3709,0.0052,0.5104-0.0839,0.2756-0.4509
		C43.7645,31.2529,43.5476,30.8545,43.3189,30.4636z"/>
	<path style="fill:#077146;" d="M46.0914,20.0333c-0.05-0.0003-0.1-0.0005-0.15-0.0007c-0.0545,0.1096-0.1089,0.1095-0.1633,0
		c-0.3184-0.0048-0.6182,0.0549-0.8624,0.2753c-0.2999,0.2707-0.5909,0.4447-0.9641,0.0927
		c-0.1012-0.0954-0.3107-0.1789-0.4447-0.0469c-0.1369,0.135-0.1377,0.3371-0.0696,0.5201c0.0157,0.0421,0.0917,0.058,0.1211,0.0993
		c0.204,0.2869,0.0223,0.5646-0.0417,0.8381c-0.0243,0.104-0.199,0.1556-0.2688,0.0787c-0.1944-0.2137-0.6282-0.2606-0.5106-0.7059
		c0.0397-0.1502-0.0617-0.2498-0.1796-0.3275c0.8777-1.1503,1.7553-2.3006,2.7075-3.5485
		C45.6686,18.2769,45.9724,19.1253,46.0914,20.0333z"/>
	<path style="fill:#037146;" d="M41.7038,11.2603c-0.2023,0.381-0.175,0.3571,0.1398,0.7172
		c0.1429,0.1634,0.2701,0.4486,0.1321,0.6782c-0.1222,0.2033-0.4061,0.1614-0.4523-0.032c-0.2174-0.911-1.2801-1.1182-1.5801-1.9534
		c-0.0516-0.1438-0.2269-0.2713-0.0897-0.4196c0.1513-0.1635,0.2821,0.0533,0.4258,0.0798
		c0.2724,0.0503,0.4755,0.3839,0.8033,0.1973C41.3404,10.729,41.5722,10.9521,41.7038,11.2603z"/>
	<path style="fill:#0B7245;" d="M41.3713,27.2191c0.056-0.3426,0.0955-0.6891,0.1734-1.0267
		c0.0593-0.2569,0.2775-0.3205,0.5096-0.2781c0.2663,0.0486,0.242,0.2643,0.1862,0.4447c-0.1677,0.5417,0.1167,1.1847-0.3713,1.6526
		C41.7032,27.7475,41.5373,27.4833,41.3713,27.2191z"/>
	<path style="fill:#097245;" d="M8.6622,39.0815c0.3-0.0853,0.3317-0.7091,0.5615-0.5367c0.2837,0.2129,0.6445,0.4108,0.844,0.6969
		c0.3364,0.4826-0.4042,0.5128-0.463,0.8595C9.2309,39.8165,8.9147,39.4785,8.6622,39.0815z"/>
	<path style="fill:#0C7246;" d="M30.3076,4.0745c-0.0714,0.2285-0.1429,0.4571-0.2001,0.64
		C29.5277,4.498,28.86,4.4812,28.532,3.8725C29.1668,3.5634,29.7256,3.9211,30.3076,4.0745z"/>
	<path style="fill:#036C4A;" d="M36.5053,18.8901c0.3379,1.159,0.0674,2.3442,0.1503,3.5144
		c0.0376,0.5308-0.0881,1.0796,0.1869,1.5821c-0.0654,0.1405-0.1308,0.281-0.1962,0.4214c-0.1265,0.026-0.2229-0.0268-0.2205-0.1516
		C36.4597,22.4678,36.3005,20.6761,36.5053,18.8901z"/>
	<path style="fill:#82A53F;" d="M36.5053,18.8901c-0.0005,1.5854-0.0053,3.1709,0.0028,4.7563
		c0.0013,0.2569-0.0953,0.5426,0.1381,0.7617c-0.4937,0.159-0.287-0.2593-0.2889-0.4033c-0.0189-1.4092-0.0089-2.8187-0.0116-4.2281
		c-0.0006-0.2975-0.0189-0.5951-0.0293-0.8927C36.3792,18.886,36.4423,18.888,36.5053,18.8901z"/>
	<path style="fill:#FDD901;" d="M36.3085,32.0619l-0.0746,0.0117c0,0-0.0723-0.0215-0.0724-0.0215
		c0.0034-1.2815,0.0068-2.563,0.0102-3.8446c0.0005-0.1937,0.0389-0.3725,0.195-0.506
		C36.5415,29.1576,36.652,30.6128,36.3085,32.0619z"/>
	<path style="fill:#9CAD3B;" d="M36.3085,32.0619c0.0193-1.4535,0.0386-2.907,0.0581-4.3605
		c0.0416-0.0076,0.0834-0.0134,0.1254-0.0172c0,0,0.0747,0.0163,0.0747,0.0163c-0.0417,1.4597,0.1343,2.9238-0.0911,4.3797
		C36.42,32.0741,36.3642,32.068,36.3085,32.0619z"/>
	<path style="fill:#FCD803;" d="M3.5547,22.4744c-0.0464,0.4883-0.0928,0.9767-0.1392,1.465
		C3.2536,23.4313,3.0484,22.9191,3.5547,22.4744z"/>
	<path style="fill:#016E4B;" d="M3.7421,28.3716c0.0139-0.1526,0.0278-0.3052,0.0417-0.4578
		c0.0629,0.2542,0.4858,0.5251-0.0063,0.7451C3.7657,28.5631,3.7539,28.4673,3.7421,28.3716z"/>
	<path style="fill:#0F7246;" d="M26.7252,46.5633c0.1123-0.0514,0.2246-0.1028,0.3369-0.1542
		c0.2804-0.1,0.5591-0.1378,0.8323,0.0233C27.5195,46.6083,27.122,46.5826,26.7252,46.5633z"/>
	<path style="fill:#006D49;" d="M21.493,3.7365c0.1965,0.0153,0.3929,0.0306,0.708,0.0552
		c-0.3803,0.1699-0.6203,0.1342-0.8462-0.0362C21.3972,3.7225,21.4433,3.7161,21.493,3.7365z"/>
	<path style="fill:#006C4B;" d="M27.8944,46.4323c-0.2775-0.0077-0.5551-0.0155-0.8324-0.0233
		c0.2907-0.2423,0.639-0.1255,0.9638-0.155c0.1102,0.0582,0.1081,0.1121-0.0062,0.1617l-0.0597,0.0298L27.8944,46.4323z"/>
	<path style="fill:#006C4B;" d="M29.0026,46.0899c-0.0007,0.056-0.0015,0.112-0.0022,0.168c0,0-0.0413,0.0291-0.0413,0.0291
		l-0.0475-0.017c-0.2422,0.0765-0.4836,0.12-0.7203-0.0182c-0.0009-0.0532-0.0016-0.1063-0.0022-0.1595
		C28.4596,45.8751,28.7311,45.97,29.0026,46.0899z"/>
	<path style="fill:#016B4C;" d="M22.1707,46.4195c0.1729-0.1471,0.354-0.2347,0.6396-0.0452
		c-0.2184,0.0259-0.3709,0.0441-0.5234,0.0622c0,0-0.0613,0.0135-0.0613,0.0135L22.1707,46.4195z"/>
	<path style="fill:#0F7246;" d="M28.1913,46.2519c0.2399,0.0061,0.4798,0.0123,0.72,0.0183c-0.276,0.177-0.5845,0.157-0.8917,0.1457
		c0.0033-0.0539,0.0054-0.1078,0.0061-0.1617C28.0809,46.2533,28.1361,46.2526,28.1913,46.2519z"/>
	<path style="fill:#FCD207;" d="M27.0668,29.1138c-0.9646-1.9632-2.1252-3.825-3.0163-5.8267
		c-0.0366-0.0823-0.1659-0.1233-0.2521-0.1836c-0.2306,0.748,0.0308,1.5271-0.1445,2.2797
		c-0.0582,1.9411-0.0049,3.8814-0.0299,5.8214c-0.004,0.3122,0.0967,0.6537-0.1674,0.9234
		c-0.6472,0.0835-1.2978,0.0006-1.9443,0.0427c-0.5381,0.035-0.7317-0.2282-0.7297-0.7224
		c0.0012-0.2975-0.0042-0.5951-0.0041-0.8926c0.0002-3.5707-0.0041-7.1415,0.0023-10.7122c0.002-1.1013,0.0952-1.1858,1.2163-1.1938
		c0.5951-0.0042,1.1902-0.0007,1.7854,0.0009c0.3412,0.0009,0.6491,0.0564,0.825,0.3952c0.8584,1.6683,1.7874,3.2967,2.7703,4.8945
		c0.2436,0.0614,0.4109,0.2154,0.5261,0.4327c0.1755,0.3808,0.3274,0.7745,0.5972,1.1046c0.2901,0.4619,0.4502,0.9748,0.5315,1.2683
		c-0.1115-0.3911-0.3057-1.0086-0.1462-1.6664c0.1081-1.763,0.0043-3.5244,0.0366-5.2848c0.018-0.9785,0.1637-1.1237,1.1451-1.1451
		c2.0294-0.0441,2.0159-0.044,2.0323,1.9287c0.03,3.6069-0.084,7.2145,0.0603,10.8207c0.0206,0.5161-0.1562,0.8316-0.7554,0.7714
		c-0.9017-0.0907-1.8214,0.1512-2.7141-0.139c-0.3855-0.8269-0.82-1.6265-1.3258-2.3865
		C27.0821,29.5713,27.1239,29.3148,27.0668,29.1138z"/>
	<path style="fill:#FCD208;" d="M7.9946,18.9031c2.4276-0.1684,2.4241-0.1684,2.4285,2.2064
		c0.0052,2.7871,0.0172,5.5742,0.0262,8.3613c0.0786,0.0632,0.1682,0.095,0.2693,0.0954c1.1636-0.012,2.3269-0.009,3.4902-0.0013
		c0.3151,0.0021,0.663-0.0656,0.8881,0.2622c0.1232,0.591,0.0464,1.1878,0.0544,1.7817c0.0045,0.3384-0.1104,0.5658-0.5162,0.5597
		c-2.3274-0.0351-4.6557,0.059-6.9827-0.0508c-0.2129-0.1766-0.2223-0.424-0.2229-0.6687c-0.0106-3.9-0.0064-7.8-0.0042-11.7001
		C7.4255,19.3314,7.5204,18.9938,7.9946,18.9031z"/>
	<path style="fill:#EC2826;" d="M16.4664,16.2826c-1.1168-1.5741-0.1649-3.1597,1.2971-3.2662
		c0.9282-0.0676,1.6467,0.3807,1.9819,1.2199c0.3149,0.7885,0.108,1.6111-0.5601,2.1976c-0.1405,0.1233-0.2978,0.2275-0.4473,0.3405
		C17.9389,17.4734,16.9309,17.2551,16.4664,16.2826z"/>
	<path style="fill:#037145;" d="M24.6076,19.0458c-1.1038-0.3774-2.2397-0.1292-3.3594-0.1473
		c-0.4495-0.0073-0.2758,0.4562-0.2768,0.7106c-0.0128,3.5682-0.0089,7.1365-0.0089,10.7048c0,1.7724,0.0001,1.7735,1.7736,1.7668
		c0.2426-0.0009,0.4852-0.019,0.7278-0.0292c0.1837-1.048,0.0416-2.1046,0.0816-3.1565c0.0462-1.2165-0.0812-2.4365,0.0705-3.6511
		c0.0066-0.7137,0.0127-1.4273,0.022-2.141c0.0003-0.02,0.0385-0.0589,0.0498-0.0558c0.0391,0.0108,0.0741,0.0364,0.1106,0.0563
		c-0.002,2.7346-0.0297,5.4696,0.0104,8.2036c0.0113,0.7697-0.256,0.9938-0.9851,0.9544c-0.7535-0.0407-1.5129,0.0222-2.2695,0.0471
		c-0.3036,0.01-0.593-0.0121-0.8344-0.2239c-0.0395-0.0363-0.0789-0.0725-0.1184-0.1088c-0.1716-0.3005-0.1228-0.6321-0.1231-0.953
		c-0.0043-3.5436-0.0053-7.0872,0.0013-10.6309c0.0006-0.3436-0.0764-0.7097,0.1743-1.0135c0.5174-0.195,0.5385,0.166,0.5481,0.5067
		c0.0177,0.6237,0.0061,1.2479,0.0062,1.8718c0.0005,2.7672,0.0004,5.5344,0.0002,7.6473c0.0646-2.8532-0.1008-6.3623,0.073-9.8689
		c0.0039-0.0779,0.0863-0.1255,0.1677-0.1444c0.0814,0.0215,0.1744,0.0656,0.1777,0.1439c0.1552,3.6856,0.029,7.3732,0.07,11.0386
		c-0.0089-3.9166,0.0211-7.8121-0.0197-11.709c0.061-0.1463,0.1646-0.2486,0.3104-0.3091c1.1213,0.0139,2.2426,0.0114,3.3638,0.0101
		c0.0978,0.0347,0.1828,0.0893,0.2548,0.164C24.6065,18.8352,24.607,18.9405,24.6076,19.0458z"/>
	<path style="fill:#037145;" d="M7.6697,32.0515c2.27,0.0099,4.5401,0.0097,6.8098,0.0381
		c0.4554,0.0057,0.5464-0.1909,0.5268-0.5821c-0.0284-0.5661-0.0243-1.1338-0.034-1.7008
		c-0.0406-0.0522-0.0847-0.1012-0.1328-0.1473c-0.0549-0.0418-0.116-0.0687-0.1833-0.0831
		c-0.3216-0.0854-0.7262,0.1368-0.9621-0.2614c1.2306-0.4291,1.4826-0.7738,1.4616-2.1514c-0.04-2.6273,0.1042-5.2561-0.0732-7.8828
		c-0.0237-0.3509,0.0875-0.7109,0.3064-1.0402c0,3.3283,0,6.6566,0,9.9849c0.0321,0.0006,0.0642,0.0012,0.0963,0.0018
		c0-0.711,0-1.4219,0-2.1329c0-1.9249-0.0028-3.8498,0.0028-5.7747c0.0009-0.3187-0.0727-0.6566,0.1601-0.9384
		c0.0324,0.0366,0.0648,0.0732,0.0973,0.1097c0.1494,1.6236,0.0358,3.2508,0.0617,4.8761c0.0194,1.2178,0.0034,2.4362,0.0041,3.6543
		c-0.0006-2.5505-0.0014-5.1011,0.0014-7.6516c0.0003-0.2968-0.0355-0.5977,0.059-0.8902c0.0556-0.108,0.1402-0.1423,0.2549-0.1042
		c0.3119,0.2362,0.2491,0.5829,0.25,0.8996c0.0075,2.7668,0.0074,5.5337,0,8.3005c-0.0008,0.3163,0.0659,0.663-0.241,0.9031
		c-0.4842-0.4232-0.4928,0.3397-0.8128,0.3259c-0.2329,0.7457,0.066,1.5288-0.1597,2.2751
		c-0.1759,0.1577-0.3917,0.1682-0.6115,0.1682c-2.1981-0.0004-4.3962-0.0002-6.5943,0c-0.2194,0-0.4366-0.0056-0.6051-0.178
		c0.0414-0.0456,0.0925-0.0735,0.1533-0.0837C7.5658,31.9936,7.6206,32.0155,7.6697,32.0515z"/>
	<path style="fill:#037145;" d="M28.6913,32.0316c0.8386,0.017,1.6792,0.0041,2.5151,0.0613
		c0.5772,0.0395,0.7279-0.164,0.7238-0.7294c-0.025-3.4411-0.0128-6.8825-0.013-10.3238c0-0.5419-0.0238-1.0852,0.0067-1.6254
		c0.0246-0.4355-0.1541-0.5366-0.5634-0.5551c-2.2001-0.0996-2.1993-0.1105-2.1998,2.077
		c-0.0003,1.4896-0.0016,2.9792-0.0024,4.4689c-0.3023,0.1706-0.5838,0.1024-0.8563-0.0739
		c-0.1195-0.1494-0.1882-0.3255-0.2591-0.5005c-0.1527-0.5656,0.5215-0.5967,0.6389-0.9899
		c0.1908-0.2206,0.1912-0.4657,0.1823-0.7502c-0.044-1.3986-0.0279-2.7985-0.0238-4.198c-0.1242-0.5097,0.1961-0.1659,0.3333-0.1736
		c0.6452-0.2555,1.3173-0.1842,1.9808-0.1369c0.211,0.015,0.4129,0.1217,0.6174-0.0154c0.0543-0.0544,0.1086-0.1087,0.1629-0.1631
		c0.4543,0.1236,0.2309,0.497,0.2321,0.74c0.0175,3.6486,0.0102,7.2973,0.0147,10.946c0.0005,0.428-0.0535,0.8589,0.1308,1.278
		c0.1184,0.2693,0.0359,0.5313-0.2146,0.717c-0.022,0.0482-0.0454,0.1392-0.0658,0.1385
		C30.9168,32.1867,29.7829,32.4661,28.6913,32.0316z"/>
	<path style="fill:#037047;" d="M32.0976,32.0848c0-4.2211,0.0019-8.4422-0.0035-12.6633
		c-0.0004-0.3437,0.0873-0.7093-0.1594-1.0178c0.0753-0.0736,0.1417-0.1953,0.2277-0.2114c0.225-0.0419,0.166,0.1321,0.1612,0.2628
		c-0.1435,3.8766-0.0261,7.7546-0.0593,11.6319c-0.0029,0.3442-0.0884,0.711,0.1587,1.0204c0.1562-0.279,0.077-0.5825,0.0776-0.8732
		c0.0064-3.3759-0.0014-6.7517,0.0157-10.1275c0.0012-0.2395-0.2211-0.6091,0.2327-0.7256l0-0.0001
		c0.1299,0.1976,0.0783,0.4202,0.0793,0.6324c0.0161,3.7317-0.0233,7.4636,0.0188,11.1953c0.0021,0.1849,0.0142,0.3812-0.098,0.5502
		C32.529,31.8617,32.6574,32.661,32.0976,32.0848z"/>
	<path style="fill:#037145;" d="M19.7197,32.0847c-0.0992,0.3186-0.3483,0.164-0.5423,0.167
		c-0.9159,0.0139-1.832,0.0144-2.7477,0.0356c-0.4271,0.0099-0.4777-0.0933-0.1442-0.3658
		c0.1373-0.0332,0.2724-0.0756,0.4123-0.0976c0.4238-0.1221,0.8599-0.088,1.2924-0.1022c0.9058-0.0297,1.0316-0.1389,1.037-1.0538
		c0.0161-2.7644,0.0047-5.5288,0.0061-8.2933c0.0003-0.6505,0.0066-1.301-0.0025-1.9513c-0.0147-1.0583-0.1223-1.1623-1.1741-1.1675
		c-0.1356-0.0007-0.2709,0.008-0.4053,0.0181c-0.2527,0.0175-0.4945-0.0555-0.7395-0.0934
		c-0.074,0.0057-0.1484,0.0135-0.2213,0.0286c-0.1684,0.0673-0.3482,0.1015-0.5161,0.1718l-0.0008,0.0002
		c-0.1086,0.0963-0.2172,0.0963-0.3258,0c-0.0543-0.8469,0.3761-1.3545,1.1401-1.6287c-0.182,0.387,0.6164,0.3819,0.325,0.8126
		c0.6301,0.0399,1.2602,0.0031,1.8892-0.0183c0.275-0.0094,0.5303-0.055,0.7023,0.2258c0.0396,0.0883,0.0575,0.178,0.0566,0.2742
		c-0.0548,0.2652-0.1284,0.5199-0.1279,0.7971c0.0072,3.9233,0.0045,7.8466,0.0058,11.7699
		c0.0001,0.1602-0.0247,0.3268,0.0801,0.4701L19.7197,32.0847z"/>
	<path style="fill:#047144;" d="M10.9249,28.6644l-0.0813,0l-0.0813-0.0001c-0.154-0.2795-0.0768-0.5829-0.0776-0.874
		c-0.0069-2.5384-0.0063-5.0768-0.0006-7.6152c0.0006-0.2647-0.0684-0.5411,0.0776-0.7935c0.0438-0.116,0.0876-0.232,0.1797-0.4762
		c0.1969,0.8036,0.1432,1.4721,0.1446,2.1354c0.0047,2.1701,0.0019,4.3402,0.0017,6.5103
		C11.0876,27.93,11.1181,28.3137,10.9249,28.6644L10.9249,28.6644z"/>
	<path style="fill:#057145;" d="M19.5746,18.9085c-0.0081-0.0616-0.0163-0.1232-0.0244-0.1848
		c-0.6908-0.2193-1.4202,0.0742-2.11-0.1586c0.64-0.3237,1.3567-0.1975,2.0325-0.3428c1.6045-0.3449,3.2131,0.5351,4.8342,0.051
		c0.3562-0.1063,0.4785,0.3969,0.8696,0.2507c-0.1542,0.4281-0.3951,0.1689-0.5706,0.2059
		c-0.0599-0.0027-0.1198-0.0055-0.1796-0.0082c-1.0464-0.1646-2.0998-0.0299-3.1481-0.0735
		c-0.5802-0.168-0.9136,0.5978-1.5029,0.4001C19.7019,19.0116,19.635,18.9647,19.5746,18.9085z"/>
	<path style="fill:#FDD901;" d="M7.6697,32.0515l-0.0668,0.0222l-0.0701-0.0062c-0.2516-0.2391-0.1876-0.5533-0.1879-0.8447
		c-0.0046-3.8273-0.0043-7.6546-0.0006-11.4818c0.0003-0.2933-0.0536-0.6042,0.179-0.8513c0.1571,0.0045,0.3141,0.009,0.4712,0.0135
		c-0.3887,0.2895-0.3272,0.7108-0.3271,1.1146C7.6684,24.029,7.669,28.0402,7.6697,32.0515z"/>
	<path style="fill:#4F8F41;" d="M16.4899,32.0739c-0.068-0.0508-0.136-0.1016-0.2042-0.1524
		c0.0004-0.2205,0.001-0.4409,0.0015-0.6614c-0.0886-0.1485-0.0677-0.3135-0.0683-0.4741c-0.0127-3.8345,0.0227-7.669-0.018-11.5035
		c-0.0015-0.1366,0.0224-0.2686,0.094-0.3883c0.061-0.0019,0.122-0.0037,0.1829-0.0056c0.2034,0.2137,0.2252,0.4815,0.2251,0.7557
		c-0.0014,3.9719,0.0185,7.9438-0.0101,11.9157c-0.0006,0.0817-0.023,0.1602-0.0378,0.2399
		C16.6149,31.9004,16.5598,31.9916,16.4899,32.0739z"/>
	<path style="fill:#789F3F;" d="M7.5233,18.8896c0.0031,4.3926,0.0062,8.7852,0.0094,13.1778
		c-0.0602,0.0008-0.1204,0.0016-0.1806,0.0023c0.0001-0.0001-0.0015,0.0139-0.0015,0.0139
		c-0.1317-0.1657-0.0882-0.362-0.0883-0.5471C7.2599,27.507,7.26,23.4776,7.2619,19.4482c0.0001-0.1864-0.0366-0.3807,0.0764-0.5527
		C7.4,18.8935,7.4616,18.8915,7.5233,18.8896z"/>
	<path style="fill:#026B4C;" d="M7.3383,18.8955c0.004,4.396,0.0081,8.792,0.0122,13.1881
		c-0.2078-0.2239-0.1703-0.5037-0.1704-0.7721c-0.0015-3.8795-0.0015-7.759,0-11.6386C7.1803,19.4046,7.142,19.1253,7.3383,18.8955z
		"/>
	<path style="fill:#037245;" d="M32.749,19.3811c-0.2472,0.3086-0.1587,0.6744-0.1594,1.0182
		c-0.0059,3.3029,0.002,6.6058-0.0142,9.9087c-0.0013,0.2611,0.1841,0.5905-0.1523,0.7995c0-4.1078,0-8.2156,0-12.5234
		C32.8336,18.9553,32.7131,19.183,32.749,19.3811z"/>
	<path style="fill:#006C4B;" d="M16.295,18.8942c-0.0025,4.122-0.005,8.2441-0.0076,12.366
		c-0.2968-0.5731-0.0857-1.1893-0.1518-1.7819c0.0004-3.054,0.0026-6.108-0.0016-9.162c-0.0004-0.3177,0.0726-0.6545-0.1593-0.9355
		C16.0814,19.2186,16.1882,19.0564,16.295,18.8942z"/>
	<path style="fill:#037245;" d="M32.7491,31.7589c0-4.1259-0.0001-8.2519-0.0001-12.3778c0.2466,0.3077,0.1574,0.6724,0.1596,1.0155
		c0.0225,3.563,0.0371,7.1261,0.0561,10.6891C32.9661,31.3364,32.9291,31.569,32.7491,31.7589z"/>
	<path style="fill:#0D7045;" d="M16.4664,16.2826c0.6667,0.582,1.4247,0.7424,2.2717,0.4918
		c0.1743,1.0419-0.7425,0.5638-1.1356,0.8152c-0.3313-0.1646-0.6886-0.2928-0.9863-0.5048
		C16.3524,16.8971,15.9506,16.652,16.4664,16.2826z"/>
	<path style="fill:#017049;" d="M10.7616,19.3816c0.0002,3.0942,0.0004,6.1885,0.0006,9.2827
		c-0.2816-0.0799-0.1561-0.3142-0.1566-0.4741c-0.0088-2.7052-0.0063-5.4104-0.0058-8.1156
		C10.5999,19.8314,10.5852,19.584,10.7616,19.3816z"/>
	<path style="fill:#057145;" d="M27.0668,29.1138c0.1641,0.1408,0.2498,0.3257,0.2987,0.5313
		c-0.5088,0.2161-0.0803,0.6027-0.1709,0.886c-0.0488,0.1528,0.1816,0.4189-0.1372,0.457
		c-0.3326,0.0397-0.2335-0.2341-0.2156-0.3926c0.0711-0.629-0.2886-1.0523-0.6389-1.5046
		c-0.1883-0.2431-0.2753-0.5648-0.4641-0.9721C26.3938,28.3214,26.2261,29.4073,27.0668,29.1138z"/>
	<path style="fill:#037145;" d="M40.3999,18.7381c-0.3332,0.1679-0.6473,0.2542-0.5509-0.3031
		c0.0546-0.3156,0.1488-0.6013-0.0241-0.9185c-0.1423-0.261,0.1004-0.4513,0.2436-0.626c0.0426-0.052,0.2529-0.0056,0.3641,0.0449
		c0.3449,0.1565,0.0209,0.3637,0.0099,0.5401c-0.0262,0.4167-0.4074,0.819-0.0348,1.2493
		C40.4079,18.7248,40.3999,18.7381,40.3999,18.7381z"/>
	<path style="fill:#0D7246;" d="M29.0014,24.426c-0.2094,0.2621-0.7668-0.3345-0.8132,0.3296
		c-0.2894,0.1304-0.2896-0.2865-0.5171-0.2732c-0.157-0.1486-0.2509-0.3314-0.2932-0.5421
		c0.0396-0.0352,0.0861-0.1062,0.1178-0.1002c0.5156,0.099,0.9004-0.2455,1.3441-0.387
		C29.0472,23.7519,28.7962,24.1269,29.0014,24.426z"/>
	<path style="fill:#0F7246;" d="M26.7229,45.9283c-0.4092,0.3953-0.823,0.4094-1.3934,0.2601
		c-0.741-0.194-1.5432-0.1574-2.2591-0.6141C24.2797,45.8017,25.4862,46.123,26.7229,45.9283L26.7229,45.9283z"/>
	<path style="fill:#037145;" d="M5.7086,17.0426c0.2307,0.6193-0.3799,1.1348-0.0208,1.6403
		c-0.3538,0.0665-0.483,0.6178-1.0685,0.4398C5.3049,18.5957,5.2319,17.7842,5.7086,17.0426z"/>
	<path style="fill:#006E48;" d="M29.0014,24.426c-0.2478-0.2921-0.1322-0.6445-0.1617-0.9728
		c0.0001-0.0546,0.0002-0.1091,0.0003-0.1637c-0.1231-1.4657-0.1512-2.9313,0.0004-4.397c0,0-0.0001,0.0002-0.0001,0.0002
		c0.2566,0.3346,0.1535,0.7257,0.1563,1.0934C29.0075,21.4659,29.0012,22.946,29.0014,24.426z"/>
	<path style="fill:#037145;" d="M28.8403,18.8925c-0.0001,1.4657-0.0003,2.9313-0.0004,4.397
		c-0.3309-0.6955-0.1146-1.4329-0.1556-2.1497c-0.0446-0.7799,0.1401-1.6007-0.4956-2.2472v-0.0001
		C28.4059,19.1226,28.6231,18.9912,28.8403,18.8925z"/>
	<path style="fill:#0D7245;" d="M33.1651,44.54c-0.487,0.3421-1.0287,0.3356-1.6232,0.1833
		C32.1869,44.1056,32.6865,44.0706,33.1651,44.54z"/>
	<path style="fill:#729C3F;" d="M14.9955,29.4919c-0.0035,0.0567-0.007,0.1134-0.0106,0.1702
		c-1.5164,0.0779-3.0327,0.1426-4.5474-0.0318c-0.0093-0.0542-0.0055-0.1074,0.0116-0.1596
		c0.0544,0.0026,0.1083-0.0011,0.1618-0.0112C12.0732,29.3772,13.5352,29.3186,14.9955,29.4919z"/>
	<path style="fill:#006B4A;" d="M36.4757,32.0801c0.0883-1.4587-0.0844-2.9228,0.0911-4.3797
		C36.6614,29.1629,36.8263,30.6269,36.4757,32.0801z"/>
	<path style="fill:#006B4B;" d="M14.9955,29.4919c-1.4615-0.0107-2.9231-0.0215-4.3845-0.0323
		c1.0154-0.3112,2.057-0.0634,3.0831-0.1448C14.1281,29.3723,14.5966,29.1768,14.9955,29.4919z"/>
	<path style="fill:#037145;" d="M29.1659,18.5669c0.6265-0.307,1.3676-0.0715,1.9918-0.4191c0.074-0.0412,0.2313,0.067,0.35,0.106
		c-0.075,0.104-0.15,0.2079-0.225,0.3119C30.5772,18.6989,29.8716,18.6972,29.1659,18.5669z"/>
	<path style="fill:#037145;" d="M10.9248,28.6645c0.9113,0.3545,1.8734,0.0406,2.8024,0.3544c-0.8559,0-1.7119,0.0033-2.5677-0.0022
		C10.9264,29.0153,10.9446,28.8213,10.9248,28.6645L10.9248,28.6645z"/>
	<path style="fill:#037145;" d="M8.3604,36.8599c-0.0823,0.5581-0.3845,1.1611,0.7775,1.1848
		c-0.6294,0.2814-0.9089,0.2519-1.0125-0.1581C8.0413,37.5538,7.7435,37.1413,8.3604,36.8599z"/>
	<path style="fill:#006C4B;" d="M17.4402,18.5651c0.7016,0.0767,1.427-0.1631,2.1101,0.1587
		c-0.9898-0.0001-1.9795-0.0001-3.0605-0.0001c0.234-0.2213,0.4427-0.1304,0.6233-0.1586
		C17.2221,18.5651,17.3312,18.5651,17.4402,18.5651z"/>
	<path style="fill:#006C4B;" d="M33.6755,18.6005c0.8478,0,1.6955,0,2.5433,0c0.0004,0.0262,0.0008,0.0524,0.0012,0.0786
		c-0.8373,0-1.6745,0-2.5118,0C33.6973,18.6528,33.6864,18.6267,33.6755,18.6005z"/>
	<path style="fill:#037145;" d="M36.6308,7.4066c-0.3885,0.0574-0.7946,0.2001-1.0668-0.1728
		c-0.0346-0.0475,0.0353-0.2555,0.0867-0.2683C36.0786,6.8596,36.2689,7.319,36.6308,7.4066z"/>
	<path style="fill:#006C4B;" d="M7.7812,18.6007c0.7936,0,1.5871,0,2.3807,0c0.0003,0.0264,0.0006,0.0527,0.0009,0.0791
		c-0.784,0-1.568,0-2.352,0C7.8009,18.6534,7.7911,18.6271,7.7812,18.6007z"/>
	<path style="fill:#0F7245;" d="M16.5489,44.2703c-0.8273,0.2074-0.9701-0.4316-1.3477-0.7066
		C15.7737,43.5541,16.0229,44.0874,16.5489,44.2703z"/>
	<path style="fill:#037145;" d="M4.4526,24.4264c-0.1163,0.4155-0.1919,0.6855-0.2695,0.9625
		C3.6429,24.9787,3.6438,24.9732,4.4526,24.4264z"/>
	<path style="fill:#006C4B;" d="M29.1659,18.5669c0.7056-0.0004,1.4112-0.0008,2.1168-0.0012
		c0.163,0.0004,0.3261,0.0007,0.4891,0.0011c-0.8488,0.3457-1.7342,0.07-2.5984,0.1524
		C29.1693,18.6684,29.1668,18.6177,29.1659,18.5669z"/>
	<path style="fill:#047145;" d="M15.356,14.0026c0.5196,0.5304,0.3899,0.8281-0.2559,1.0151
		C15.0694,14.6528,15.2496,14.3681,15.356,14.0026z"/>
	<path style="fill:#016E49;" d="M15.163,32.0793c0.0006-0.7465,0.0012-1.493,0.0022-2.2395c0-0.0265-0.0044-0.0595,0.0089-0.0786
		c0.0877-0.1255,0.113-0.021,0.1486,0.043C15.2471,30.5611,15.4906,31.3402,15.163,32.0793z"/>
	<path style="fill:#0F7246;" d="M29.0026,46.0899c-0.2712,0.0008-0.5424,0.0016-0.8136,0.0025
		c-0.0341-0.2919-0.1965-0.4558-0.4889-0.4898C28.3083,45.3,28.5789,45.8996,29.0026,46.0899z"/>
	<path style="fill:#037145;" d="M17.6024,17.5896c-0.1736,0.5433-0.5355,0.1454-0.8143,0.1629
		c-0.1221-0.1004-0.2441-0.2008-0.5552-0.4567C16.8554,17.406,17.2016,17.6672,17.6024,17.5896z"/>
	<path style="fill:#186F44;" d="M16.1887,13.4494c-0.1521,0.2095-0.3322,0.1537-0.484,0.156
		c-0.1369,0.0021-0.1696-0.1186-0.1236-0.2323c0.062-0.1531,0.1463-0.3177,0.3503-0.1904
		C16.0357,13.2477,16.1083,13.3635,16.1887,13.4494z"/>
	<path style="fill:#037145;" d="M28.1887,18.8926c-0.0034-0.0261-0.0077-0.0521-0.01-0.0784
		c-0.0171-0.1971-0.1582-0.4191,0.0933-0.5623c0.032-0.0182,0.1557,0.0473,0.1757,0.0981
		C28.5512,18.6135,28.4903,18.8146,28.1887,18.8926L28.1887,18.8926z"/>
	<path style="fill:#0F7245;" d="M16.4604,44.2746c0.2627-0.0202,0.5254-0.0404,0.9495-0.0731
		C17.0093,44.5195,16.7463,44.5368,16.4604,44.2746z"/>
	<path style="fill:#0F7246;" d="M27.7001,45.6026c0.1369,0.37-0.1836,0.3644-0.372,0.4059
		c-0.2258,0.0498-0.1407-0.1288-0.1167-0.243h0.0001C27.3744,45.7112,27.5373,45.6569,27.7001,45.6026z"/>
	<path style="fill:#0F7246;" d="M27.2114,45.7655c-0.1628,0.0543-0.3257,0.1086-0.4885,0.1629h-0.0001
		c-0.05-0.1132-0.2833-0.2223-0.1532-0.3189c0.2252-0.1672,0.4491,0.0049,0.6419,0.156H27.2114z"/>
	<path style="fill:#037145;" d="M45.7781,20.0326c0.0544,0,0.1088,0,0.1633,0c-0.2391,0.6277-0.4781,1.2554-0.7817,2.0527
		C44.8749,21.088,45.2539,20.5341,45.7781,20.0326z"/>
	<path style="fill:#057146;" d="M43.2731,29.7603c0.6766-0.0033,0.9109,0.3326,1.1492,0.6583
		C44.1064,30.2376,43.7905,30.0567,43.2731,29.7603z"/>
	<path style="fill:#057146;" d="M45.1305,29.9655c-0.2103,0.0986-0.4059,0.0717-0.6912-0.085
		C44.7483,29.7734,44.9434,29.8056,45.1305,29.9655z"/>
	<path style="fill:#0D7246;" d="M28.3525,25.2443c0.296-0.0836,0.5904-0.159,0.8059,0.1608c0.0682,0.816,0.1365,1.632,0.2047,2.448
		c-0.0501,0.0117-0.1001,0.0235-0.1502,0.0352c-0.3352-0.7748-0.6705-1.5496-1.0057-2.3244
		C28.2718,25.4648,28.2129,25.3094,28.3525,25.2443z"/>
	<path style="fill:#FCD901;" d="M23.616,25.2439c0.0221,2.121,0.0462,4.2419,0.0623,6.3629
		c0.0013,0.1697,0.0611,0.3959-0.2143,0.4447c0.0005-1.9542-0.0015-3.9084,0.0042-5.8626
		C23.4691,25.8689,23.3995,25.5324,23.616,25.2439z"/>
	<path style="fill:#0D7149;" d="M28.3525,25.2443c-0.0484,0.1066-0.0969,0.2132-0.1453,0.3197
		c-0.2208-0.3397-0.4459-0.6771-0.5361-1.0815c0.5277-0.5816,0.2717,0.3204,0.5171,0.2732
		C28.2429,24.9185,28.2977,25.0814,28.3525,25.2443z"/>
	<path style="fill:#FDD801;" d="M10.4376,29.6303c1.5158,0.0106,3.0315,0.0211,4.5473,0.0317
		c0.0163,0.05,0.0121,0.0982-0.0126,0.1446c-1.2315-0.0007-2.4629,0.0011-3.6943-0.004
		C10.9886,29.8015,10.6825,29.8583,10.4376,29.6303z"/>
	<path style="fill:#017047;" d="M19.7179,18.8936c0.4604-0.008,0.7912-0.535,1.3058-0.3261
		c0.1085,0.0422,0.1114,0.0908,0.0087,0.1456c-0.0648,0.0709-0.1297,0.1418-0.1945,0.2127
		c-0.1246,0.4263-0.0549,0.8626-0.0558,1.2933c-0.007,3.4458-0.0017,6.8916-0.008,10.3374
		c-0.0005,0.2922,0.0785,0.5972-0.079,0.8774c-0.2447-0.3098-0.157-0.6757-0.1576-1.02c-0.0059-3.333-0.0013-6.6661-0.0079-9.9991
		c-0.0005-0.2543,0.0805-0.5255-0.1909-0.9534c0,3.9898,0,7.7915,0,11.797c-0.3851-0.4074-0.288-0.7092-0.2886-0.9705
		c-0.0072-3.333-0.001-6.6661-0.0108-9.9991c-0.001-0.3248,0.1489-0.7332-0.3185-0.9071
		C19.6081,19.2196,19.6044,19.057,19.7179,18.8936z"/>
	<path style="fill:#006A4C;" d="M20.6952,31.4339c0.0006-3.8567-0.0007-7.7134,0.0051-11.57
		c0.0005-0.3161-0.0818-0.6519,0.1378-0.9384c-0.0002,4.2938-0.0002,8.5872-0.0002,12.9078
		C20.6123,31.7418,20.7394,31.5577,20.6952,31.4339z"/>
	<path style="fill:#006A4C;" d="M19.7179,18.8936c0.001,0.1627,0.002,0.3253,0.003,0.488
		c-0.0005,4.2341-0.0011,8.4682-0.0016,12.7023c-0.193-0.2303-0.1539-0.5085-0.1538-0.7755c0.0016-4.1334,0.0055-8.2668,0.009-12.4
		C19.6221,18.9004,19.6698,18.8954,19.7179,18.8936z"/>
	<path style="fill:#006C4B;" d="M21.0324,18.7132c-0.0052-0.0484-0.0081-0.097-0.0087-0.1456
		c1.133,0.0814,2.2815-0.1797,3.4029,0.1542C23.295,18.7188,22.1637,18.716,21.0324,18.7132z"/>
	<path style="fill:#027047;" d="M15.648,19.3811c0.1086,0,0.2172,0,0.3258,0c0,3.1082,0,6.2165,0,9.3247
		c-0.4543-0.6862-0.297-1.4494-0.32-2.1841c-0.0254-0.8107-0.0058-1.6227-0.0058-2.4342c0-0.7844,0-1.5688,0-2.3532
		C15.648,20.9499,15.648,20.1655,15.648,19.3811z"/>
	<path style="fill:#FBD208;" d="M16.4899,32.0739c-0.0128-0.0511-0.011-0.1018,0.0054-0.1519
		c0.1115-1.7578,0.0327-3.5173,0.0448-5.276c0.0156-2.2758,0.0234-4.5521-0.0097-6.8276c-0.0084-0.5804,0.1099-0.9232,0.7454-0.9147
		c2.1485-0.1482,2.1485-0.1482,2.1485,1.9232c0,3.4954-0.013,6.9909,0.0126,10.4861c0.0043,0.5848-0.114,0.8354-0.7534,0.7824
		C17.9566,32.0352,17.2214,32.0766,16.4899,32.0739z"/>
	<path style="fill:#FDD702;" d="M17.2757,18.9037c-0.5035,0.1577-0.669,0.4741-0.6645,1.0212
		c0.032,3.8641,0.0242,7.7285,0.0339,11.5927c0.0004,0.1619,0.0562,0.3265-0.1498,0.4043
		c-0.0059-4.3444-0.0117-8.6888-0.0175-13.0332C16.7439,18.8937,17.0098,18.8987,17.2757,18.9037z"/>
</g>
</svg>
