<?xml version="1.0" encoding="utf-8"?>
<!-- Generator: Adobe Illustrator 18.0.0, SVG Export Plug-In . SVG Version: 6.00 Build 0)  -->
<!DOCTYPE svg PUBLIC "-//W3C//DTD SVG 1.1//EN" "http://www.w3.org/Graphics/SVG/1.1/DTD/svg11.dtd">
<svg version="1.1" id="Layer_1" xmlns="http://www.w3.org/2000/svg" xmlns:xlink="http://www.w3.org/1999/xlink" x="0px" y="0px"
	 width="82.59px" height="50px" viewBox="0 0 82.59 50" style="enable-background:new 0 0 82.59 50;" xml:space="preserve">
<g>
	<path style="fill:#F5D96E;" d="M82.5939,3.3463c0.0029-1.7583-1.4187-3.1868-3.1794-3.1908L3.2798,0
		C1.5211-0.0035,0.0925,1.4195,0.089,3.1782L0.0439,24.9008l82.505,0.1678L82.5939,3.3463z"/>
	<path style="fill:#0774B5;" d="M82.5042,46.8216c-0.0038,1.7572-1.4316,3.1807-3.1903,3.1784L3.1786,49.8431
		C1.4191,49.8406-0.0031,48.4108,0,46.6528l0.0448-21.7226l82.5028,0.1683L82.5042,46.8216z"/>
	
		<linearGradient id="SVGID_1_" gradientUnits="userSpaceOnUse" x1="-92.54" y1="163.062" x2="-45.0681" y2="204.0871" gradientTransform="matrix(0.9949 0.1012 -0.1012 0.9949 123.7977 -166.9987)">
		<stop  offset="0" style="stop-color:#F7D53E"/>
		<stop  offset="0.0546" style="stop-color:#F7D341"/>
		<stop  offset="0.4001" style="stop-color:#F8CF4A"/>
		<stop  offset="1" style="stop-color:#F8CE4C"/>
	</linearGradient>
	<path style="fill:url(#SVGID_1_);" d="M82.5939,3.3463c0.0029-1.7583-1.4187-3.1868-3.1794-3.1908L3.2798,0
		C1.5211-0.0035,0.0925,1.4195,0.089,3.1782L0.0439,24.9008l82.505,0.1678L82.5939,3.3463z"/>
	<g>
		
			<linearGradient id="SVGID_2_" gradientUnits="userSpaceOnUse" x1="-95.6616" y1="233.7481" x2="-19.471" y2="190.378" gradientTransform="matrix(0.9949 0.1012 -0.1012 0.9949 121.4737 -168.883)">
			<stop  offset="0" style="stop-color:#0C4384"/>
			<stop  offset="0.1804" style="stop-color:#054585"/>
			<stop  offset="0.3864" style="stop-color:#004B88"/>
			<stop  offset="0.6051" style="stop-color:#00548E"/>
			<stop  offset="0.8309" style="stop-color:#006095"/>
			<stop  offset="1" style="stop-color:#006A9D"/>
		</linearGradient>
		<path style="fill:url(#SVGID_2_);" d="M82.5042,46.8216l0.0435-21.7231l-11.3172-0.0231l-2.1193-8.9322L65.02,16.1334
			l-5.0407,8.9192l-1.1117-0.0029l1.0309-6.1064l2.0262,0.087l0.4884-2.9031l-7.7749-0.0196l-0.4904,2.9039l2.0511-0.0776
			l-1.0309,6.1086l-2.9556-0.0062l0.4101-2.435l-3.2257-0.0084l0.1477-0.8777l2.8472,0.0069l0.3919-2.3233l-2.8454-0.0068
			l0.1422-0.852l3.1193,0.0075l0.4133-2.4422l-6.846-0.0159l-1.5065,8.9331l-4.0991-0.0086
			c1.5071-0.3655,2.6444-1.4645,2.8875-2.908l1.0173-6.021l-3.6178-0.0087l-0.896,5.3101
			c-0.0631,0.3805-0.2176,0.9707-0.8117,0.9706c-0.5804-0.0016-1.0561-0.5716-1.0561-0.5716l-1.4942,2.3913
			c0.4704,0.3687,1.0949,0.6666,1.7605,0.8328l-1.6157-0.0032l-1.7239-2.9082c-0.1592-0.2614-0.3639-0.4043-0.5313-0.5351
			l0.0117-0.0704c1.4463-0.3991,2.1365-0.9676,2.3638-2.319c0.3801-2.2521-1.4196-3.1095-3.714-3.1158l-4.4689-0.0105l-1.5073,8.937
			l3.6163,0.0078l0.4852-2.869l0.0671,0.0012l1.1357,2.8725l2.448,0.0065L0.0449,24.9302L0,46.6528
			c-0.0031,1.758,1.4191,3.1878,3.1786,3.1903L79.3139,50C81.0726,50.0023,82.5004,48.5788,82.5042,46.8216z M32.478,20.0152
			l-0.256-0.002l0.2561-1.5148l0.282,0.0006c0.6354,0.0015,1.1751,0.085,1.0585,0.773
			C33.707,19.9355,33.0866,20.0161,32.478,20.0152z M66.5286,19.1121l0.1356,0.0007c0.0049,0.3802,0.0058,0.7711,0.0506,1.1507
			l0.1644,1.5771l-1.4845-0.0034L66.5286,19.1121z M64.3746,23.9564l2.7956,0.0073l0.1497,1.1032l-3.4251-0.0065L64.3746,23.9564z"
			/>
		
			<linearGradient id="SVGID_3_" gradientUnits="userSpaceOnUse" x1="-111.3704" y1="208.909" x2="-35.1812" y2="165.5398" gradientTransform="matrix(0.9949 0.1012 -0.1012 0.9949 123.7977 -166.9987)">
			<stop  offset="0" style="stop-color:#0C4384"/>
			<stop  offset="0.1804" style="stop-color:#054585"/>
			<stop  offset="0.3864" style="stop-color:#004B88"/>
			<stop  offset="0.6051" style="stop-color:#00548E"/>
			<stop  offset="0.8309" style="stop-color:#006095"/>
			<stop  offset="1" style="stop-color:#006A9D"/>
		</linearGradient>
		<polygon style="fill:url(#SVGID_3_);" points="10.8341,24.9432 14.5327,24.9523 15.5655,18.8371 17.5899,18.9241 18.0794,16.0203 
			10.3033,16.0017 9.8141,18.9056 11.8651,18.8282 		"/>
		
			<linearGradient id="SVGID_4_" gradientUnits="userSpaceOnUse" x1="-106.58" y1="214.5657" x2="-30.392" y2="171.1971" gradientTransform="matrix(0.9949 0.1012 -0.1012 0.9949 121.4737 -168.883)">
			<stop  offset="0" style="stop-color:#0C4384"/>
			<stop  offset="0.1804" style="stop-color:#054585"/>
			<stop  offset="0.3864" style="stop-color:#004B88"/>
			<stop  offset="0.6051" style="stop-color:#00548E"/>
			<stop  offset="0.8309" style="stop-color:#006095"/>
			<stop  offset="1" style="stop-color:#006A9D"/>
		</linearGradient>
		<path style="fill:url(#SVGID_4_);" d="M19.5566,24.9639l0.4851-1.1137l2.7952,0.0063l0.148,1.1154l3.9143,0.0101l-2.1223-8.9453
			l-4.0893-0.0103l-5.0453,8.9288L19.5566,24.9639z M22.1953,19.0065l0.1356,0.0007c0.004,0.3788,0.0044,0.7702,0.0487,1.1497
			l0.1661,1.5781l-1.4844-0.0037L22.1953,19.0065z"/>
		
			<linearGradient id="SVGID_5_" gradientUnits="userSpaceOnUse" x1="-97.2993" y1="230.859" x2="-21.1139" y2="187.4919" gradientTransform="matrix(0.9949 0.1012 -0.1012 0.9949 121.4737 -168.883)">
			<stop  offset="0" style="stop-color:#0C4384"/>
			<stop  offset="0.1804" style="stop-color:#054585"/>
			<stop  offset="0.3864" style="stop-color:#004B88"/>
			<stop  offset="0.6051" style="stop-color:#00548E"/>
			<stop  offset="0.8309" style="stop-color:#006095"/>
			<stop  offset="1" style="stop-color:#006A9D"/>
		</linearGradient>
		<path style="fill:url(#SVGID_5_);" d="M73.7624,21.1992c1.2663,0.0027,2.2821-1.0159,2.2834-2.2743
			c0.0037-1.264-1.0089-2.2803-2.273-2.2825c-1.2639-0.0027-2.2794,1.0091-2.2821,2.2737
			C71.4884,20.1737,72.4997,21.1961,73.7624,21.1992z M73.7716,17.2168c0.9164,0.0016,1.7021,0.791,1.7012,1.7071
			c-0.0019,0.9102-0.7923,1.7024-1.7082,1.7015c-0.9152-0.0021-1.7023-0.7981-1.6998-1.7085
			C72.0668,18.0009,72.8571,17.2148,73.7716,17.2168z"/>
		
			<linearGradient id="SVGID_6_" gradientUnits="userSpaceOnUse" x1="-97.3249" y1="230.8124" x2="-21.1406" y2="187.4459" gradientTransform="matrix(0.9949 0.1012 -0.1012 0.9949 121.4737 -168.883)">
			<stop  offset="0" style="stop-color:#0C4384"/>
			<stop  offset="0.1804" style="stop-color:#054585"/>
			<stop  offset="0.3864" style="stop-color:#004B88"/>
			<stop  offset="0.6051" style="stop-color:#00548E"/>
			<stop  offset="0.8309" style="stop-color:#006095"/>
			<stop  offset="1" style="stop-color:#006A9D"/>
		</linearGradient>
		<path style="fill:url(#SVGID_6_);" d="M73.3632,19.9764l0.0016-0.9468l0.2931,0.001l0.456,0.9475l0.6174,0.0011l-0.4933-0.9482
			c0.3494-0.0294,0.5633-0.1935,0.563-0.6089c0.001-0.2384-0.0595-0.458-0.2672-0.587c-0.1644-0.1039-0.4149-0.0986-0.6108-0.0998
			l-1.0921-0.0013l-0.0054,2.2414L73.3632,19.9764z M73.8136,18.1271c0.1769-0.0006,0.4507,0.0003,0.4509,0.2392
			c-0.0005,0.2311-0.1538,0.2743-0.3609,0.2736l-0.5384-0.0007l0.001-0.5138L73.8136,18.1271z"/>
	</g>
	<g>
		
			<linearGradient id="SVGID_7_" gradientUnits="userSpaceOnUse" x1="-111.7058" y1="189.772" x2="-64.2298" y2="230.8007" gradientTransform="matrix(0.9949 0.1012 -0.1012 0.9949 121.4737 -168.883)">
			<stop  offset="0" style="stop-color:#F7D53E"/>
			<stop  offset="0.0546" style="stop-color:#F7D341"/>
			<stop  offset="0.4001" style="stop-color:#F8CF4A"/>
			<stop  offset="1" style="stop-color:#F8CE4C"/>
		</linearGradient>
		<path style="fill:url(#SVGID_7_);" d="M10.0276,32.5431l0.1387,0.1229c0.4931,0.4239,1.107,0.7693,1.8213,0.7713
			c0.3038,0.0015,0.8087-0.1206,0.8633-0.4985c0.0582-0.3768-0.3448-0.4125-0.6189-0.4679l-0.6054-0.1115
			c-1.1781-0.2165-2.0902-0.9163-1.8959-2.2296c0.2983-1.9874,2.3051-3.095,4.1584-3.0917
			c0.9736,0.0024,1.8304,0.2376,2.5922,0.7378l-1.1549,2.1446c-0.4786-0.3582-1.0354-0.6354-1.7036-0.6368
			c-0.271-0.0014-0.6818,0.0972-0.7316,0.4445c-0.0474,0.3089,0.3294,0.3533,0.559,0.41l0.6777,0.1563
			c1.2678,0.2925,2.1135,0.9837,1.903,2.4049c-0.2991,2.0005-2.2996,2.9864-4.1418,2.9831
			c-1.0733-0.0019-2.2756-0.2938-3.1626-0.7726L10.0276,32.5431z"/>
		
			<linearGradient id="SVGID_8_" gradientUnits="userSpaceOnUse" x1="-107.6679" y1="185.1044" x2="-60.1966" y2="226.129" gradientTransform="matrix(0.9949 0.1012 -0.1012 0.9949 121.4737 -168.883)">
			<stop  offset="0" style="stop-color:#F7D53E"/>
			<stop  offset="0.0546" style="stop-color:#F7D341"/>
			<stop  offset="0.4001" style="stop-color:#F8CF4A"/>
			<stop  offset="1" style="stop-color:#F8CE4C"/>
		</linearGradient>
		<path style="fill:url(#SVGID_8_);" d="M17.8146,27.179l2.9833,0.0057l-0.4207,2.8223l1.9002,0.0044l0.4195-2.8229l2.9839,0.0053
			l-1.2486,8.3791l-2.9834-0.0052l0.4342-2.9122l-1.8994-0.0039l-0.4349,2.9127l-2.9826-0.0065L17.8146,27.179z"/>
		
			<linearGradient id="SVGID_9_" gradientUnits="userSpaceOnUse" x1="-103.0645" y1="179.7743" x2="-55.5904" y2="220.8013" gradientTransform="matrix(0.9949 0.1012 -0.1012 0.9949 121.4737 -168.883)">
			<stop  offset="0" style="stop-color:#F7D53E"/>
			<stop  offset="0.0546" style="stop-color:#F7D341"/>
			<stop  offset="0.4001" style="stop-color:#F8CF4A"/>
			<stop  offset="1" style="stop-color:#F8CE4C"/>
		</linearGradient>
		<path style="fill:url(#SVGID_9_);" d="M31.0902,29.8285c0.9836,0.0025,1.4815,0.7471,1.3484,1.6379
			c-0.1419,0.9542-0.8944,1.6084-1.8327,1.6063c-0.9383-0.0009-1.497-0.6576-1.3547-1.6129
			C29.384,30.5701,30.1052,29.8272,31.0902,29.8285z M31.4989,27.073c-2.5871-0.0049-4.9672,1.7036-5.3611,4.3358
			c-0.3996,2.6887,1.4722,4.3048,4.0722,4.3098c2.601,0.0058,4.9547-1.6017,5.3551-4.2912
			C35.958,28.7938,34.0881,27.0792,31.4989,27.073z"/>
		
			<linearGradient id="SVGID_10_" gradientUnits="userSpaceOnUse" x1="-98.9724" y1="175.041" x2="-51.4996" y2="216.0668" gradientTransform="matrix(0.9949 0.1012 -0.1012 0.9949 121.4737 -168.883)">
			<stop  offset="0" style="stop-color:#F7D53E"/>
			<stop  offset="0.0546" style="stop-color:#F7D341"/>
			<stop  offset="0.4001" style="stop-color:#F8CF4A"/>
			<stop  offset="1" style="stop-color:#F8CE4C"/>
		</linearGradient>
		<path style="fill:url(#SVGID_10_);" d="M39.9324,29.5132l0.2944,0.0004c0.5086,0.0007,1.1357,0.0358,1.0395,0.6901
			c-0.102,0.6785-0.7024,0.7672-1.245,0.7664l-0.3061-0.0003L39.9324,29.5132z M36.04,35.5974l2.9844,0.0057l0.3757-2.5232
			l1.5849,0.0024c1.7268,0.0037,2.9726-1.0608,3.2277-2.7725c0.3092-2.0777-1.0107-3.0807-3.0001-3.0852l-3.9233-0.0068
			L36.04,35.5974z"/>
		
			<linearGradient id="SVGID_11_" gradientUnits="userSpaceOnUse" x1="-95.0706" y1="170.5195" x2="-47.5947" y2="211.5482" gradientTransform="matrix(0.9949 0.1012 -0.1012 0.9949 121.4737 -168.883)">
			<stop  offset="0" style="stop-color:#F7D53E"/>
			<stop  offset="0.0546" style="stop-color:#F7D341"/>
			<stop  offset="0.4001" style="stop-color:#F8CF4A"/>
			<stop  offset="1" style="stop-color:#F8CE4C"/>
		</linearGradient>
		<path style="fill:url(#SVGID_11_);" d="M48.1607,29.5287l0.2943,0.0009c0.5073,0.0011,1.1356,0.0361,1.0394,0.6901
			c-0.1009,0.679-0.7038,0.7686-1.2449,0.7665l-0.3045,0L48.1607,29.5287z M44.2694,35.6134l2.9834,0.0051l0.3774-2.5228
			l1.5812,0.0031c1.7303,0.0038,2.975-1.0612,3.2291-2.7734c0.311-2.0778-1.0109-3.0795-2.9987-3.084l-3.923-0.0079L44.2694,35.6134
			z"/>
		
			<linearGradient id="SVGID_12_" gradientUnits="userSpaceOnUse" x1="-91.7448" y1="166.666" x2="-44.2665" y2="207.6967" gradientTransform="matrix(0.9949 0.1012 -0.1012 0.9949 121.4737 -168.883)">
			<stop  offset="0" style="stop-color:#F7D53E"/>
			<stop  offset="0.0546" style="stop-color:#F7D341"/>
			<stop  offset="0.4001" style="stop-color:#F8CF4A"/>
			<stop  offset="1" style="stop-color:#F8CE4C"/>
		</linearGradient>
		<path style="fill:url(#SVGID_12_);" d="M53.769,27.2503l3.0969,0.0056l-1.25,8.3803l-3.0961-0.0066L53.769,27.2503z"/>
		
			<linearGradient id="SVGID_13_" gradientUnits="userSpaceOnUse" x1="-88.3184" y1="162.709" x2="-40.8443" y2="203.736" gradientTransform="matrix(0.9949 0.1012 -0.1012 0.9949 121.4737 -168.883)">
			<stop  offset="0" style="stop-color:#F7D53E"/>
			<stop  offset="0.0546" style="stop-color:#F7D341"/>
			<stop  offset="0.4001" style="stop-color:#F8CF4A"/>
			<stop  offset="1" style="stop-color:#F8CE4C"/>
		</linearGradient>
		<path style="fill:url(#SVGID_13_);" d="M58.2574,27.2591l2.9722,0.0054l2.0885,4.6513l0.0902-0.0002
			c-0.02-0.6995-0.049-1.422,0.0573-2.1339l0.3762-2.5117l2.9611,0.0054l-1.2486,8.3794l-2.9628-0.0057l-2.0669-4.4058
			l-0.092,0.0004c0.0156,0.5782,0.0263,1.1218-0.0575,1.6775l-0.4059,2.7234l-2.9615-0.0064L58.2574,27.2591z"/>
		
			<linearGradient id="SVGID_14_" gradientUnits="userSpaceOnUse" x1="-83.5626" y1="157.2099" x2="-36.0908" y2="198.235" gradientTransform="matrix(0.9949 0.1012 -0.1012 0.9949 121.4737 -168.883)">
			<stop  offset="0" style="stop-color:#F7D53E"/>
			<stop  offset="0.0546" style="stop-color:#F7D341"/>
			<stop  offset="0.4001" style="stop-color:#F8CF4A"/>
			<stop  offset="1" style="stop-color:#F8CE4C"/>
		</linearGradient>
		<path style="fill:url(#SVGID_14_);" d="M76.6528,30.7432c-0.2234,1.3655-0.3955,2.5093-1.5607,3.5745
			c-1.0503,0.9666-2.5171,1.4852-3.8389,1.4825c-2.6006-0.0051-4.4677-1.5886-4.0667-4.2782
			c0.409-2.7323,2.7001-4.3724,5.3795-4.367c1.4776,0.0031,3.4068,0.7288,3.8587,2.1637l-3.0491,1.0383
			c-0.1739-0.4217-0.5817-0.6464-1.0799-0.6464c-1.1084-0.0022-1.8569,0.9307-2.0078,1.9424
			c-0.1377,0.9208,0.3206,1.7898,1.326,1.7912c0.4874,0.0012,1.1418-0.2187,1.3661-0.731l-1.4019-0.0035l0.2959-1.9778
			L76.6528,30.7432z"/>
	</g>
</g>
</svg>
