<svg xmlns="http://www.w3.org/2000/svg" width="39" height="26" viewBox="0 0 39 26"><g><path fill="#F3F4F4" d="M36.9 25.6h-34.8c-.9 0-1.7-.8-1.7-1.7v-21.8c0-.9.8-1.7 1.7-1.7h34.9c.9 0 1.7.8 1.7 1.7v21.9c-.1.9-.8 1.6-1.8 1.6z"/><path fill="#DBDAD9" d="M36.9 26h-34.8c-1.2 0-2.1-.9-2.1-2.1v-21.8c0-1.2.9-2.1 2.1-2.1h34.8c1.2 0 2.1.9 2.1 2.1v21.8c0 1.2-.9 2.1-2.1 2.1zm-34.8-25.2c-.7 0-1.3.6-1.3 1.3v21.8c0 .7.6 1.3 1.3 1.3h34.8c.7 0 1.3-.6 1.3-1.3v-21.8c0-.7-.6-1.3-1.3-1.3h-34.8z"/></g><g><path fill="#099DD9" d="M9.1 2.5h20.9v21h-20.9z"/><path fill="#fff" d="M10.9 11.5l-.4-1-.4 1m9.7-.4l-.3.1h-.7v-.5h1c.1 0 .1.1.1.2s0 .2-.1.2zm5.1.4l-.4-1-.4 1h.8zm-9.5 1.1h-.6v-1.9l-.9 1.9h-.5l-.9-1.9v1.9h-1.2l-.2-.6h-1.2l-.2.6h-.7l1.1-2.5h.9l1 2.3v-2.3h1l.8 1.7.7-1.7h1l-.1 2.5zm2.4 0h-2v-2.5h2v.5h-1.4v.4h1.3v.5h-1.3v.5h1.4v.6zm2.8-1.8c0 .4-.3.6-.4.7.1 0 .2.1.3.2.1.1.1.2.1.5v.5h-.6v-.3c0-.1 0-.4-.1-.5-.1-.1-.2-.1-.4-.1h-.6v.9h-.6v-2.5h1.4c.3 0 .5 0 .7.1.1.1.2.2.2.5zm.9 1.8h-.6v-2.5h.6v2.5zm7 0h-.8l-1.1-1.9v1.9h-1.2l-.3-.6h-1.2l-.2.6h-.7c-.3 0-.6-.1-.9-.3-.2-.2-.3-.5-.3-.9s.1-.7.3-1c.2-.2.5-.3.9-.3h.6v.5h-.6c-.2 0-.3 0-.5.1-.1.1-.2.3-.2.6s.1.5.2.6c.1.1.3.1.4.1h.3l.8-1.9h1l1 2.3v-2.3h.9l1 1.7v-1.7h.6v2.5zm-19.5.5h1l.2-.5h.5l.2.5h2v-.4l.2.4h1l.2-.4v.4h4.9v-.9h.1c.1 0 .1 0 .1.1v.8h2.6v-.2c.2.1.5.2.9.2h1.1l.2-.5h.5l.2.5h2.1v-.5l.3.5h1.7v-3.5h-1.6v.4l-.2-.4h-1.7v.4l-.2-.4h-2.3c-.4 0-.7.1-1 .2v-.2h-1.6v.2c-.2-.2-.4-.2-.7-.2h-5.7l-.4.9-.4-.9h-1.8v.4l-.2-.4h-1.5l-.7 1.7v1.8zM30 14.9h-1.3c-.1 0-.1.1-.1.2s.1.2.1.2h.5c.3 0 .5.1.7.2l.1.1m0 .9c-.1.2-.4.3-.8.3h-1.1v-.5h1.1c.1 0 .2 0 .2-.1 0 0 .1-.1.1-.2s0-.1-.1-.2c0 0-.1-.1-.2-.1-.6 0-1.2 0-1.2-.8 0-.4.2-.7.8-.7h1.2v-.5h-1.1c-.3 0-.6.1-.7.2v-.2h-1.6c-.3 0-.6.1-.7.2v-.2h-2.9v.2c-.2-.2-.6-.2-.8-.2h-1.9v.2c-.2-.2-.6-.2-.8-.2h-2.1l-.5.5-.5-.5h-3.2v3.4h3.1l.5-.5.5.5h1.9v-.8h.2c.3 0 .6 0 .8-.1v.9h1.6v-.9h.1c.1 0 .1 0 .1.1v.8h4.8c.3 0 .6-.1.8-.2v.2h1.5c.3 0 .6 0 .9-.2v-.4zm-2.3-1c.1.1.2.3.2.5 0 .5-.3.8-.9.8h-1.1v-.5h1.1c.1 0 .2 0 .2-.1 0 0 .1-.1.1-.2s0-.1-.1-.2c0 0-.1-.1-.2-.1-.6 0-1.2 0-1.2-.8 0-.4.2-.7.8-.7h1.2v.5h-1.3c-.1 0-.1.1-.1.2s.1.2.1.2h.5c.3.2.5.3.7.4zm-5.4-.1l-.3.1h-.7v-.6h1c.1 0 .1.1.1.2.1.2 0 .2-.1.3zm.4.3c.1 0 .2.1.3.2.1.1.1.2.1.5v.5h-.6v-.3c0-.1 0-.4-.1-.5-.1-.1-.2-.1-.4-.1h-.6v.9h-.6v-2.5h1.4c.3 0 .5 0 .7.1.2.1.3.3.3.5-.1.4-.3.6-.5.7zm.7-1.3h2v.5h-1.4v.4h1.3v.5h-1.3v.5h1.4v.5h-2v-2.4zm-3.9 1.1h-.8v-.6h.8c.2 0 .4.1.4.3-.1.2-.2.3-.4.3zm-1.4 1.1l-.9-1 .9-1v2zm-2.3-.3h-1.5v-.5h1.3v-.5h-1.3v-.4h1.5l.6.7-.6.7zm4.7-1.1c0 .7-.5.8-1 .8h-.7v.8h-1.1l-.9-.8-.8.8h-2.3v-2.5h2.4l.7.8.8-.8h1.9c.4.1 1 .2 1 .9z"/></g></svg>