<?xml version="1.0" encoding="utf-8"?>
<!-- Generator: Adobe Illustrator 18.0.0, SVG Export Plug-In . SVG Version: 6.00 Build 0)  -->
<!DOCTYPE svg PUBLIC "-//W3C//DTD SVG 1.1//EN" "http://www.w3.org/Graphics/SVG/1.1/DTD/svg11.dtd">
<svg version="1.1" id="Layer_1" xmlns="http://www.w3.org/2000/svg" xmlns:xlink="http://www.w3.org/1999/xlink" x="0px" y="0px"
	 width="39px" height="26px" viewBox="0 0 39 26" enable-background="new 0 0 39 26" xml:space="preserve">
<g>
	<path fill="#F3F4F4" d="M36.9,25.6H2.1c-0.9,0-1.7-0.8-1.7-1.7V2.1c0-0.9,0.8-1.7,1.7-1.7H37c0.9,0,1.7,0.8,1.7,1.7V24
		C38.6,24.9,37.9,25.6,36.9,25.6z"/>
	<path fill="#DBDAD9" d="M36.9,26H2.1C0.9,26,0,25.1,0,23.9V2.1C0,0.9,0.9,0,2.1,0h34.8C38.1,0,39,0.9,39,2.1v21.8
		C39,25.1,38.1,26,36.9,26z M2.1,0.8c-0.7,0-1.3,0.6-1.3,1.3v21.8c0,0.7,0.6,1.3,1.3,1.3h34.8c0.7,0,1.3-0.6,1.3-1.3V2.1
		c0-0.7-0.6-1.3-1.3-1.3C36.9,0.8,2.1,0.8,2.1,0.8z"/>
</g>
<path fill="#007DC5" d="M7.3,22.2h0.2c1,0,2.2-0.4,2.2-1.6c0-0.7-0.5-1.3-1.3-1.4c0.6-0.2,1-0.6,1-1.3c0-1.2-1.1-1.5-2.1-1.5v1.1
	c0.4,0,0.9,0.1,0.9,0.6s-0.4,0.6-0.8,0.6H7.3v1.1h0.1c0.4,0,1,0.1,1,0.6S8,21.1,7.6,21.1H7.3C7.3,21.1,7.3,22.2,7.3,22.2z M5.2,22.2
	h2.1v-1.1H6.4v-1.3h0.9v-1.1H6.4v-1.2h0.9v-1.1H5.2V22.2z M12.7,22.2h1.1v-2c0-1.3-0.4-2-1.8-2h-0.1V19c0.4,0,0.8,0.3,0.8,0.7h-0.8
	v0.8h0.7v0.3c0,0.4-0.4,0.6-0.9,0.6l0.1,0.9c0.3-0.1,0.6-0.3,0.7-0.5v0.4L12.7,22.2z M12,18.2c-0.6,0-1.2,0.2-1.7,0.6l0.6,0.7
	c0.3-0.3,0.6-0.5,1-0.5L12,18.2C11.9,18.2,12,18.2,12,18.2z M12,19.7c-0.9,0.1-1.9,0.3-1.9,1.4c0,0.8,0.7,1.2,1.4,1.2
	c0.2,0,0.4,0,0.5-0.1v-0.8h-0.2c-0.3,0-0.6-0.1-0.6-0.4c0-0.4,0.4-0.5,0.8-0.5C12,20.5,12,19.7,12,19.7z M14.5,22.2h1.2v-2
	c0-0.5,0.1-1,0.7-1c0.6,0,0.6,0.6,0.6,1v1.9h1.2V20c0-1.1-0.2-1.9-1.5-1.9c-0.6,0-1,0.3-1.2,0.6v-0.5h-1.2v4H14.5z M19,22.2h1.2
	v-1.6c0-0.8,0.1-1.3,1-1.3c0.2,0,0.3,0,0.5,0.1v-1.1h-0.4c-0.5,0-0.9,0.3-1.1,0.7v-0.6H19V22.2z M22.4,22.2h1.2v-3.9h-1.2V22.2z
	 M22.3,17c0,0.4,0.3,0.7,0.7,0.7c0.4,0,0.7-0.3,0.7-0.7c0-0.4-0.3-0.7-0.7-0.7C22.6,16.3,22.3,16.6,22.3,17z M27.4,18.7
	c-0.4-0.4-0.9-0.5-1.5-0.5c-0.8,0-1.7,0.4-1.7,1.3c0,1.5,2.1,1,2.1,1.6c0,0.2-0.3,0.3-0.6,0.3c-0.4,0-0.6-0.2-0.9-0.4l-0.7,0.8
	c0.4,0.4,1,0.5,1.5,0.5c0.8,0,1.8-0.3,1.8-1.3c0-1.5-2.1-1-2.1-1.6c0-0.2,0.2-0.3,0.4-0.3c0.3,0,0.5,0.1,0.7,0.3
	C26.4,19.4,27.4,18.7,27.4,18.7z M31.9,18.2h-1.2v2c0,0.5-0.1,1-0.7,1s-0.6-0.6-0.6-1v-1.9h-1.2v2.2c0,1.1,0.2,1.9,1.5,1.9
	c0.6,0,1-0.3,1.2-0.6v0.5h1.2v-4.1H31.9z M32.6,16.1h1.2v6.1h-1.2V16.1z"/>
<path fill="#007DC5" d="M19.4,6.5h3.3c0,0.1,0,0.2-0.1,0.3l-0.8,1.3H20c-0.3,0-0.4,0.1-0.6,0.4V6.5z M19.4,14.7
	c0.1,0,0.3-0.1,0.4-0.2l1.8-2.8c0.1-0.1,0.1-0.2,0.1-0.3h4c0,0.1,0,0.2-0.1,0.3l-1.8,2.8c-0.1,0.1-0.2,0.2-0.3,0.2H19.4z M19.4,11.8
	c0.1-0.1,0.1-0.2,0.1-0.3h-0.1V11.8z M19.4,8.5l-0.8,1.3h-2.1c-0.1,0-0.2,0-0.2-0.1c0.1,0.1,0.3,0.1,0.4-0.1l1.9-2.7
	c0.1-0.1,0.1-0.2,0.1-0.3h0.7C19.4,6.6,19.4,8.5,19.4,8.5z M19.4,11.5v0.3l-1.8,2.7c-0.1,0.1-0.2,0.2-0.3,0.2h-4.1
	c0.1,0,0.3-0.1,0.4-0.2l1.8-2.8c0.1-0.1,0.1-0.2,0.1-0.3h3.9C19.4,11.4,19.4,11.5,19.4,11.5z"/>
<path fill="#00C0F3" d="M19.5,11.2l0.1,0.3h-0.1V11.2z M19.5,8.5c0.1-0.1,0.3-0.1,0.4,0.1l1.6,2.5c0.1,0.1,0.1,0.2,0.1,0.4h4
	c0-0.1,0-0.3-0.1-0.4l-1.8-2.8c-0.1-0.1-0.2-0.2-0.3-0.2H20C19.8,8.2,19.6,8.3,19.5,8.5z M19.5,6.5V3.2h1c0.1,0,0.2,0,0.3,0.2
	l1.8,2.8c0.1,0.1,0.1,0.2,0.1,0.3C22.7,6.5,19.5,6.5,19.5,6.5z M13.3,8.2h1.9L16,9.4c0.1,0.2,0.2,0.3,0.3,0.3l0.2,0.1h2.1l0.8,1.3
	v0.4h-4c0-0.1,0-0.3-0.1-0.4l-1.8-2.8C13.6,8.2,13.4,8.2,13.3,8.2z M19.5,3.2v3.3h-0.8c0-0.1,0-0.2-0.1-0.3l-1.8-2.8
	c-0.1-0.1-0.3-0.2-0.4-0.2C16.4,3.2,19.5,3.2,19.5,3.2z"/>
</svg>
