<svg xmlns="http://www.w3.org/2000/svg" width="39" height="26" viewBox="0 0 39 26"><g><path fill="#F3F4F4" d="M36.9 25.6h-34.8c-.9 0-1.7-.8-1.7-1.7v-21.8c0-.9.8-1.7 1.7-1.7h34.9c.9 0 1.7.8 1.7 1.7v21.9c-.1.9-.8 1.6-1.8 1.6z"/><path fill="#DBDAD9" d="M36.9 26h-34.8c-1.2 0-2.1-.9-2.1-2.1v-21.8c0-1.2.9-2.1 2.1-2.1h34.8c1.2 0 2.1.9 2.1 2.1v21.8c0 1.2-.9 2.1-2.1 2.1zm-34.8-25.2c-.7 0-1.3.6-1.3 1.3v21.8c0 .7.6 1.3 1.3 1.3h34.8c.7 0 1.3-.6 1.3-1.3v-21.8c0-.7-.6-1.3-1.3-1.3h-34.8z"/></g><g><path fill="#FFF200" d="M3.9 4.2h31.4v17.5h-31.4v-17.5z"/><g fill="#0060A9"><path d="M24.2 18.5c.1 0 .1 0 .2-.1.3-.1.4-.3.4-.7 0-.7-.5-.8-1-.8h-1.3v3.2h1.3c.3 0 1.1 0 1.1-.8-.1-.5-.2-.8-.7-.8zm-.9-1.1h.4c.2 0 .4.2.4.4 0 .3-.2.4-.3.4h-.4v-.8zm.3 2.2h-.3v-.9h.4c.3 0 .4.2.4.5-.1.4-.4.4-.5.4zM33 19.7v-2.2h-.7v2.6h1.4v-.4zM16.8 18.4c0-.5-.2-1-1-1s-1 .4-1 1v.4c0 .7 0 1.4 1 1.4s1-.7 1-1.4c.1-.1.1-.3 0-.4zm-1 1.4c-.3 0-.3-.3-.3-1v-.4c0-.4.1-.6.3-.6.2 0 .3.2.3.6v.4c.1.7 0 1-.3 1zM19.5 18.8v-.4c-.1-.6-.3-.9-.9-.9h-1v2.6h1c1 0 .9-.9.9-1.3zm-1 .9h-.3v-1.8h.3c.3 0 .3.2.4.5v.4c0 .7-.1.9-.4.9zM21.8 18.4c0-.6-.2-1-1-1s-1 .4-1 1v.4c0 .7 0 1.4 1 1.4s1-.7 1-1.4v-.4zm-1 1.4c-.3 0-.3-.3-.3-1v-.4c0-.4.1-.6.3-.6.2 0 .3.2.3.6v.4c0 .7 0 1-.3 1zM30 18.4c-.1-.1-.1-.1-.1-.2 0-.2.1-.3.3-.3h.6v-.4h-.8c-.7 0-.9.3-.9.7v.2c.2.6 1.2.6 1.2 1 0 .2-.1.3-.3.3h-.9l-.4-1.3-.3-.9h-.8l-.6 2.4-.5-1c.3 0 .4-.2.5-.4v-.2c0-.4-.3-.7-.7-.7h-1.2v2.6h.7v-2.2h.2c.2 0 .4.1.4.4v.1c0 .2-.1.3-.3.3h-.2l.6 1.4h1.1l.2-.6h.7l.2.6h1.6c.4 0 .9-.1.9-.7-.2-.8-.9-.8-1.2-1.1zm-2.2.7l.2-1.1.3 1.1h-.5zM7.3 18.4h.2c.3-.1.4-.3.4-.7 0-.7-.5-.8-1-.8h-1.4v3.2h1.3c.3 0 1.1 0 1.1-.8 0-.5-.1-.8-.6-.9zm-1-1h.3c.3 0 .4.2.4.4 0 .3-.2.4-.4.4h-.30000000000000004v-.8zm.3 2.2h-.3v-.9h.30000000000000004c.4 0 .5.2.5.5 0 .4-.4.4-.5.4zM14 19.2c0 .2 0 .5-.3.5s-.3-.2-.3-1v-.4c0-.5.1-.6.3-.6.2 0 .3.1.3.5h.6c0-.6-.3-.9-.9-.9-.8 0-.9.4-.9 1v.4c0 .8 0 1.4 1 1.4.6 0 .9-.2.9-.9h-.7zM11.9 19.2l-.7-1.7h-.8v2.6h.6v-1.7l.7 1.7h.8v-2.6h-.6zM31.3 17.5h.7v2.6h-.7zM9.5 17.5h-.8l-.3.9-.5 1.7h.7l.2-.6h.7l.2.6h.7l-.5-1.7-.4-.9zm-.7 1.6l.2-.7.1-.3.1.3.2.7h-.6z"/></g><path fill-rule="evenodd" clip-rule="evenodd" fill="#0060A9" d="M22.4 7.1l1 .7 1-.6v-1.3l-2 1.2zm-5.6 7l-1-.7-1 .7v1.3l2-1.3zm3.7-5.7l1 .6-4.5 3.1 2.8 1.9 1.3-.9-1-.7 2.3-1.6 2 1.3-4.7 3.2-4.7-3.1 5.5-3.8zm-1.8 4.4l-1-.6 4.5-3.1-2.8-1.9-1.3.9 1 .7-2.3 1.6-2-1.3 4.7-3.2 4.8 3.1-5.6 3.8z"/><path fill="#0060A9" d="M5.5 18.4"/></g></svg>