<svg xmlns="http://www.w3.org/2000/svg" width="39" height="26" viewBox="0 0 39 26"><g><path fill="#F3F4F4" d="M36.9 25.6h-34.8c-.9 0-1.7-.8-1.7-1.7v-21.8c0-.9.8-1.7 1.7-1.7h34.9c.9 0 1.7.8 1.7 1.7v21.9c-.1.9-.8 1.6-1.8 1.6z"/><path fill="#DBDAD9" d="M36.9 26h-34.8c-1.2 0-2.1-.9-2.1-2.1v-21.8c0-1.2.9-2.1 2.1-2.1h34.8c1.2 0 2.1.9 2.1 2.1v21.8c0 1.2-.9 2.1-2.1 2.1zm-34.8-25.2c-.7 0-1.3.6-1.3 1.3v21.8c0 .7.6 1.3 1.3 1.3h34.8c.7 0 1.3-.6 1.3-1.3v-21.8c0-.7-.6-1.3-1.3-1.3h-34.8z"/><path fill="#282827" d="M3.6 3.6h2.1v10.3h-2.1v-10.3zm5.5 0h3.3v10.3h-3.3v-10.3zm14.4 0h2.7v10.3h-2.7v-10.3zm4 0h2.7v10.3h-2.7v-10.3zm-12.4 0h1.5v10.3h-1.5v-10.3zm19.6 0h.9v10.3h-.9v-10.3zm-27.8 0h.6v10.3h-.6v-10.3zm10.3 0h.6v10.3h-.6v-10.3zm15.1 0h1.5v10.3h-1.5v-10.3zm-13.3 0h2.4v10.3h-2.4v-10.3z"/><path d="M3.8 16.6h2.1c1 0 1.7.5 1.7 1.4 0 .6-.3 1-.7 1.2.6.2 1 .7 1 1.4 0 1.1-.9 1.6-1.9 1.6h-2.2v-5.6zm2.1 2.4c.5 0 .9-.4.9-.9s-.3-.8-.9-.8h-1.2v1.7h1.2zm.1 2.6c.6 0 1-.4 1-1s-.4-1-1-1h-1.3v1.9h1.3zM11.8 16.6c1.7 0 3 1.3 3 2.9 0 1.7-1.3 3-3 3s-3-1.3-3-3c-.1-1.7 1.3-2.9 3-2.9zm0 5.1c1.2 0 2.2-1 2.2-2.2 0-1.2-1-2.2-2.2-2.2s-2.2.9-2.2 2.2c0 1.2 1 2.2 2.2 2.2zM16 16.6h.8v5h2.6v.7h-3.4v-5.7zM20.4 16.6h3.4v.7h-2.6v1.8h2.1v.7h-2.1v1.8h2.8v.7h-3.6v-5.7zM26.5 17.3h-2v-.7h4.9v.7h-2v5h-.8v-5zM32.7 16.6c1.7 0 3 1.3 3 2.9 0 1.7-1.3 3-3 3s-3-1.3-3-3 1.3-2.9 3-2.9zm0 5.1c1.2 0 2.2-1 2.2-2.2 0-1.2-1-2.2-2.2-2.2s-2.2.9-2.2 2.2c0 1.2 1 2.2 2.2 2.2z"/></g></svg>