<svg xmlns="http://www.w3.org/2000/svg" width="39" height="26" viewBox="0 0 39 26"><g><path fill="#F3F4F4" d="M36.9 25.6h-34.8c-.9 0-1.7-.8-1.7-1.7v-21.8c0-.9.8-1.7 1.7-1.7h34.9c.9 0 1.7.8 1.7 1.7v21.9c-.1.9-.8 1.6-1.8 1.6z"/><path fill="#DBDAD9" d="M36.9 26h-34.8c-1.2 0-2.1-.9-2.1-2.1v-21.8c0-1.2.9-2.1 2.1-2.1h34.8c1.2 0 2.1.9 2.1 2.1v21.8c0 1.2-.9 2.1-2.1 2.1zm-34.8-25.2c-.7 0-1.3.6-1.3 1.3v21.8c0 .7.6 1.3 1.3 1.3h34.8c.7 0 1.3-.6 1.3-1.3v-21.8c0-.7-.6-1.3-1.3-1.3h-34.8z"/></g><g><path fill="#55565A" d="M28.6 22.3c0 .1.1.4.4.7l-.3.1s-.4.1-.8.1c-.9 0-1.7-.6-1.7-1.7s.7-1.7 1.7-1.7c.3 0 .5.1.7.1l.3.2c-.2.2-.3.5-.4.7-.2-.1-.3-.2-.6-.2-.4 0-.7.3-.7.9 0 .5.4.9.8.9l.6-.1c-.1-.1-.1 0 0 0m-21.7.9h1.7c.7 0 1.5-.2 1.5-1.3 0-.5-.3-.9-.8-1 .4-.2.7-.5.7-1 0-.8-.5-1.1-1.2-1.1h-1.9v4.4zm1-1.9h.4c.4 0 .8 0 .8.5s-.4.5-.8.5h-.4v-1zm0-1.8h.4c.3 0 .7 0 .7.4s-.3.5-.7.5h-.4v-.9zm11.6-.8h-1v1.6c-.3-.4-.6-.5-1-.5-.8 0-1.2.9-1.2 1.7 0 1 .5 1.8 1.3 1.8.4 0 .8-.2 1-.6v.5h.9v-4.5zm-1.6 3.6c-.4 0-.6-.4-.6-.9 0-.4.2-.8.6-.8.4 0 .6.4.6.9s-.3.8-.6.8m11.1-.8c0 1.1.7 1.7 1.7 1.7.9 0 1.7-.6 1.7-1.7s-.7-1.7-1.7-1.7c-1-.1-1.7.6-1.7 1.7m2.3 0c0 .5-.2.9-.6.9-.5 0-.6-.4-.6-.9s.2-.9.6-.9c.5-.1.6.4.6.9m-16.5 1.7v-.4c-.2.3-.5.5-.9.5-.6 0-1.1-.3-1.1-1 0-1 1-1.1 1.5-1.1h.5c0-.5-.3-.6-.7-.6-.3 0-.6.1-.9.2v-.8c.3-.2.7-.2 1.1-.2.7 0 1.4.4 1.4 1.4v1.2c0 .3 0 .5.1.8h-1zm0-1.5h-.4c-.3 0-.6.1-.6.4 0 .2.2.4.4.4.3 0 .5-.1.6-.3v-.5zm-2.4-2c-.4 0-.7.3-.8.7v-.6h-.9v3.3h1v-1.4c0-.7.3-1 .7-1.1.1 0 .3 0 .3.1v-.9l-.3-.1m10.6 2.1h-2c.1.5.4.6.8.6.3 0 .6-.1.9-.3v.9c-.3.1-.7.2-1.1.2-.9 0-1.7-.6-1.7-1.7s.6-1.7 1.5-1.7c1.1 0 1.4.9 1.4 1.9v.1zm-.9-.6c0-.4-.2-.7-.5-.7-.4 0-.5.3-.5.7h1zm2.5-1.5c-.6 0-1.2.3-1.2 1.1 0 1.2 1.4.8 1.4 1.4 0 .2-.2.3-.4.3-.4 0-.7-.1-.9-.2v.7c.3.1.6.2 1 .2.6 0 1.3-.2 1.3-1.1 0-1.3-1.5-.9-1.5-1.4 0-.2.2-.2.5-.2.2 0 .6.1.8.2v-.8c-.3-.1-.6-.2-1-.2"/><path fill="#CF0A2C" d="M12.9 3.1h13.4v13.4h-13.4z"/><path fill="#fff" d="M18.4 11.2h.7v3.4h-.7zM19.6 9.9h1.1v4.6h-1.1zM17.8 6.7s1.1-1.1 2.9-.7c0 0 .8.1 1.4.7 0 0 .1.1.2 0 0 0 .1-.1 0-.2 0 0-.5-.7-1.6-1.1 0 0-1.4-.5-2.9.2 0 0-.9.4-1.4 1.4 0 0-.7.2-1.3.5 0 0-.2.1-.1.2 0 0 .1.1.2 0 0 0 .5-.2 1-.3 0 0-.4 1 0 2.3.2.6.5 1.1 1 1.6 0 0 .1.1.2 0 0 0 .1-.1 0-.1 0 0-.4-.6-.6-1.5-.1-.7-.1-1.7.4-2.4 0 0 1.9-.3 3.4.3 0 0 2.7.9 2 2.5 0 0-.2.6-.9 1.1 0 0-.1.1-.1.2 0 0 .1.1.2 0 0 0 1.1-.4 1.6-1.3 0 0 1-1.5-1.4-2.8 0 0-.6-.3-1.5-.5.2.1-1.3-.3-2.7-.1"/></g></svg>