<svg xmlns="http://www.w3.org/2000/svg" width="39" height="26" viewBox="0 0 39 26"><path fill="#F3F4F4" d="M36.9 25.6h-34.8c-.9 0-1.7-.8-1.7-1.7v-21.8c0-.9.8-1.7 1.7-1.7h34.9c.9 0 1.7.8 1.7 1.7v21.9c-.1.9-.8 1.6-1.8 1.6z"/><path fill="#DBDAD9" d="M36.9 26h-34.8c-1.2 0-2.1-.9-2.1-2.1v-21.8c0-1.2.9-2.1 2.1-2.1h34.8c1.2 0 2.1.9 2.1 2.1v21.8c0 1.2-.9 2.1-2.1 2.1zm-34.8-25.2c-.7 0-1.3.6-1.3 1.3v21.8c0 .7.6 1.3 1.3 1.3h34.8c.7 0 1.3-.6 1.3-1.3v-21.8c0-.7-.6-1.3-1.3-1.3h-34.8z"/><text transform="translate(3.975 11.991)"><tspan x="0" y="0" font-family="'MuseoSans-700'" font-size="6">DEPÓSITO</tspan><tspan x="0" y="7.2" font-family="'MuseoSans-700'" font-size="6">EM CONTA</tspan></text></svg>