<svg xmlns="http://www.w3.org/2000/svg" width="39" height="26" viewBox="0 0 39 26"><path fill="#F3F4F4" d="M36.9 25.6h-34.8c-.9 0-1.7-.8-1.7-1.7v-21.8c0-.9.8-1.7 1.7-1.7h34.9c.9 0 1.7.8 1.7 1.7v21.9c-.1.9-.8 1.6-1.8 1.6z"/><path fill="#DBDAD9" d="M36.9 26h-34.8c-1.2 0-2.1-.9-2.1-2.1v-21.8c0-1.2.9-2.1 2.1-2.1h34.8c1.2 0 2.1.9 2.1 2.1v21.8c0 1.2-.9 2.1-2.1 2.1zm-34.8-25.2c-.7 0-1.3.6-1.3 1.3v21.8c0 .7.6 1.3 1.3 1.3h34.8c.7 0 1.3-.6 1.3-1.3v-21.8c0-.7-.6-1.3-1.3-1.3h-34.8z"/><path fill="#004A97" d="M20.7 14.2c3.1 0 5.9-2.5 5.9-5.6 0-3.4-2.8-5.7-5.9-5.7h-2.7c-3.1 0-5.7 2.3-5.7 5.7 0 3.1 2.6 5.6 5.7 5.6h2.7z"/><path fill="#fff" d="M19.2 11.6v-6.1c1.2.5 2.1 1.7 2.1 3.1 0 1.3-.9 2.5-2.1 3m-4.4-3.1c0-1.4.9-2.6 2.1-3.1v6.1c-1.3-.4-2.1-1.6-2.1-3m3.2-5.1c-2.8 0-5.2 2.3-5.2 5.2s2.3 5.2 5.2 5.2 5.2-2.3 5.2-5.2-2.3-5.2-5.2-5.2"/><path d="M6.5 18c0 .5.4.5.7.5 1.3 0 1.7-1 1.7-1.9 0-1.1-.7-1.9-1.9-1.9h-.5v3.3zm-.6-2.8c0-.5-.2-.5-.4-.5v-.2h1.7c1.5 0 2.4 1 2.4 2.1 0 .6-.3 2.1-2.5 2.1h-1.7v-.2c.4 0 .5 0 .5-.5v-2.8zm4.5-.1c-.2 0-.3-.1-.3-.3 0-.1.1-.3.3-.3s.3.1.3.3c0 .1-.1.3-.3.3m-.6 3.5h.1c.2 0 .3 0 .3-.2v-1.6c0-.3-.1-.3-.3-.4v-.1l.6-.2h.1v2.4c0 .2.1.2.3.2h.1v.2h-1.2v-.3zm1.5-2.2v-.1l.8-.3v.5c.3-.2.6-.4 1-.4.5 0 .7.4.7.8v1.5c0 .2.1.2.3.2h.1v.2h-1.2v-.2c.2 0 .3 0 .3-.2v-1.5c0-.3-.2-.5-.5-.5-.2 0-.5.2-.7.3v1.8c0 .2.1.2.3.2h.1v.2h-1.2v-.2h.1c.2 0 .3 0 .3-.2v-1.7s-.2-.3-.4-.4zm4.4.5c.1 0 .2-.1.2-.1 0-.3-.2-.5-.5-.5-.4 0-.6.2-.7.6h1zm-1.1.2v.3c0 .6.4 1 .9 1 .3 0 .6-.2.8-.4l.1.1c-.3.4-.6.7-1.1.7-.9 0-1.1-.9-1.1-1.3 0-1.2.8-1.5 1.2-1.5.5 0 1 .3 1 .9v.1l-1.8.1zm1.9 1.5h.2c.2 0 .3 0 .3-.2v-1.7c0-.2-.2-.2-.3-.3v-.1c.4-.2.7-.3.7-.3s.1 0 .1.1v.5c.1-.2.4-.6.8-.6.1 0 .3.1.3.3 0 .2-.1.3-.3.3l-.4-.1c-.1 0-.4.1-.4.5v1.4c0 .2.1.2.3.2h.3v.2h-1.5v-.2h-.1zm2.3-.7c.1.4.3.7.8.7.4 0 .5-.2.5-.4 0-.7-1.3-.5-1.3-1.4 0-.3.3-.8.9-.8.2 0 .4.1.7.2v.6h-.1c-.1-.4-.3-.6-.6-.6-.2 0-.5.1-.5.4 0 .7 1.4.5 1.4 1.4 0 .4-.3.8-1 .8-.2 0-.5-.1-.7-.2l-.1-.7zm7.1-2.3h-.1c-.1-.7-.6-1-1.3-1-.7 0-1.7.5-1.7 1.9 0 1.2.9 2.1 1.8 2.1.6 0 1.1-.4 1.2-1h.1l-.1.9c-.3.2-.9.3-1.3.3-1.4 0-2.3-.9-2.3-2.2 0-1.2 1.1-2.1 2.3-2.1.5 0 .9.2 1.4.3v.8zm.3 3c.2 0 .3 0 .3-.2v-3.4c0-.4-.1-.4-.3-.5v-.1c.2-.1.5-.2.6-.3.1 0 .1-.1.1-.1v4.2c0 .2.1.2.3.2h.1v.2h-1.1zm3.9-.1h.2v.1c-.3 0-.7.1-.9.2v-.5c-.4.3-.6.5-1.1.5-.3 0-.7-.2-.7-.7v-1.5c0-.2 0-.3-.4-.3v-.1h.8c.1 0 .1 0 .1.2v1.5c0 .2 0 .7.5.7.2 0 .5-.2.7-.4v-1.6c0-.1-.3-.2-.5-.2v-.1c.5 0 .9-.1.9-.1v2.2s.3.1.4.1zm1.6.1c.6 0 .9-.6.9-1.2s-.5-1.2-1-1.2c-.2 0-.4.1-.6.3v1.5s.3.6.7.6zm-.6-2.3c.2-.2.6-.3.9-.3.7 0 1.1.6 1.1 1.3 0 .8-.6 1.6-1.4 1.6-.4 0-.7-.1-.8-.2l-.2.1-.1-.1c.1-.4.1-.7.1-1.1v-2.6c0-.4-.1-.4-.3-.5v-.1c.2-.1.5-.2.6-.3.1 0 .1-.1.1-.1v2.3z"/><g fill="#050505"><path d="M6.5 22.3h-1v-.1c.1 0 .2 0 .2-.2v-1.7c0-.2-.1-.2-.2-.2v-.1h1v.1c-.1 0-.2 0-.2.2v1.7c0 .2.1.2.2.2h.1l-.1.1zM8.7 21.6zm0 0zm.2.7h-.1l-1.7-1.9v1.3c0 .3 0 .4.3.4h.1v.1h-.8v-.1c.2 0 .3-.1.3-.4v-1.4c0-.2-.1-.3-.3-.3h-.1v-.1h.7l1.4 1.6v-1.2c0-.3-.2-.3-.3-.3v-.1h.9v.1c-.1 0-.3 0-.3.4v1.6c-.1.1-.1.2-.1.3zM9.7 20.1c-.2 0-.2 0-.3.3h-.1v-.6h.1c0 .1.1.1.2.1h1.7c.1 0 .2 0 .2-.1h.1v.6h-.1c0-.1 0-.3-.2-.3h-.5v1.7c0 .2.1.3.3.3h-.1v.1h-1.1v-.1h.1c.2 0 .3 0 .3-.3v-1.7h-.6"/><path d="M13.5 22.3h-1.8v-.1c.1 0 .2 0 .2-.2v-1.7c0-.2-.1-.2-.2-.2h-.1v-.1h1.6v.5h-.1c0-.2 0-.4-.4-.4h-.4v.8h.4c.2 0 .2-.1.2-.3h.1v.8h-.1c0-.2 0-.3-.2-.3h-.4v.7c0 .2.2.2.4.2.4 0 .6 0 .7-.4h.1c.1.3 0 .5 0 .7zM14.6 21c.3 0 .5-.1.5-.5 0-.3-.2-.5-.5-.5h-.2v1h.2zm1.4 1.3h-.6c-.3-.3-.5-.7-.7-1.1h-.2v.7c0 .2.1.2.3.2h.1v.1h-1.1v-.1h.1c.1 0 .2-.1.2-.2v-1.7c0-.2-.1-.2-.2-.2h-.1v-.1h1c.4 0 .8.1.8.6 0 .3-.2.5-.4.6l.6.8c.1.1.1.2.3.2l-.1.2zM18.2 21.6zm0 0zm.2.7h-.1l-1.7-1.9v1.3c0 .3 0 .4.3.4h.1v.1h-.8v-.1c.2 0 .3-.1.3-.4v-1.4c0-.2-.1-.3-.3-.3h-.1v-.1h.7l1.4 1.6v-1.2c0-.3-.2-.3-.3-.3h-.1v-.1h.9v.1c-.1 0-.3 0-.3.4v1.9000000000000001zM19.7 20.3l-.3.9h.6l-.3-.9zm-.5 1.5l-.1.3c0 .1.1.1.2.1v.1h-.8v-.1c.1 0 .2-.1.3-.2l.5-1.5.1-.4.3-.1v.1l.6 1.7.1.3c0 .1.1.1.2.1v.1h-1v-.1c.1 0 .2 0 .2-.1 0 0 0-.1-.1-.2l-.1-.4h-.7l.3.3zM21.1 20.1c-.2 0-.2 0-.3.3h-.1v-.6h.1c0 .1.1.1.2.1h1.7c.1 0 .2 0 .2-.1h.1v.6h-.1c0-.1 0-.3-.2-.3h-.5v1.7c0 .2.1.3.3.3h.1v.1h-1.1v-.1h.1c.2 0 .3 0 .3-.3v-1.7h-.8"/><path d="M24.1 22.3h-1v-.1c.1 0 .2 0 .2-.2v-1.7c0-.2-.1-.2-.2-.2h-.1v-.1h1v.1c-.1 0-.2 0-.2.2v1.7c0 .2.1.2.2.2h.1v.1zM25.5 22.1c.6 0 .7-.6.7-1 0-.5-.3-1.1-.8-1.1-.6 0-.7.5-.7 1 0 .6.3 1.1.8 1.1m-.1-2.2c.7 0 1.3.4 1.3 1.1 0 .8-.5 1.3-1.2 1.3s-1.2-.5-1.2-1.2c-.1-.7.5-1.2 1.1-1.2"/><path d="M29 21.6v-1.2c0-.3-.2-.3-.3-.3h-.1v-.1h.9c-.1 0-.3 0-.3.4v1.9000000000000001h-.2l-1.7-1.9v1.4c0 .3.1.4.3.4h.1v.1h-.8v-.1c.2 0 .3-.2.3-.4v-1.4c0-.2-.2-.3-.3-.3v-.1h.7l1.4 1.6zM30.3 20.3l-.3 1h.6l-.3-1zm-.4 1.5l-.1.3c0 .1.1.1.2.1v.1h-.8v-.1c.1 0 .2-.1.3-.2l.5-1.5.1-.4.3-.1v.1l.6 1.7.1.3c0 .1.1.1.2.1v.1h-1v-.1c.1 0 .2 0 .2-.1 0 0 0-.1-.1-.2l-.1-.4h-.3l-.1.3zM32.5 21.9c0 .1.1.2.2.2h.4c.1 0 .3-.1.3-.2.1-.1.1-.2.1-.2h.1l-.1.6h-1.8v-.1c.1 0 .2 0 .2-.2v-1.7c0-.2-.1-.2-.2-.2v-.1h1-.1c-.1 0-.2 0-.2.2v1.7z"/></g></svg>