<?xml version="1.0" encoding="utf-8"?>
<!-- Generator: Adobe Illustrator 18.0.0, SVG Export Plug-In . SVG Version: 6.00 Build 0)  -->
<!DOCTYPE svg PUBLIC "-//W3C//DTD SVG 1.1//EN" "http://www.w3.org/Graphics/SVG/1.1/DTD/svg11.dtd">
<svg version="1.1" id="Layer_1" xmlns="http://www.w3.org/2000/svg" xmlns:xlink="http://www.w3.org/1999/xlink" x="0px" y="0px"
	 width="39px" height="26px" viewBox="0 0 39 26" enable-background="new 0 0 39 26" xml:space="preserve">
<path fill="#F3F4F4" d="M36.9,25.6H2.1c-0.9,0-1.7-0.8-1.7-1.7V2.1c0-0.9,0.8-1.7,1.7-1.7H37c0.9,0,1.7,0.8,1.7,1.7V24
	C38.6,24.9,37.9,25.6,36.9,25.6z"/>
<path fill="#DBDAD9" d="M36.9,26H2.1C0.9,26,0,25.1,0,23.9V2.1C0,0.9,0.9,0,2.1,0h34.8C38.1,0,39,0.9,39,2.1v21.8
	C39,25.1,38.1,26,36.9,26z M2.1,0.8c-0.7,0-1.3,0.6-1.3,1.3v21.8c0,0.7,0.6,1.3,1.3,1.3h34.8c0.7,0,1.3-0.6,1.3-1.3V2.1
	c0-0.7-0.6-1.3-1.3-1.3C36.9,0.8,2.1,0.8,2.1,0.8z"/>
<g>
	<path fill="#981B1E" d="M12,5.9H8.6c-1.5,0-2.7,0.6-3.1,1.9c-0.2,0.6-0.3,1.4-0.4,2L3,20.1h26.3c2,0,3.4-0.4,3.8-2l0.5-2.4
		c0.7-3.2,1.3-6.4,2-9.7L12,5.9z"/>
	<path fill="#FFFFFF" d="M11.7,10.9c0.1-0.1,0.3-0.5,0.1-0.7c-0.1-0.1-0.2-0.1-0.3,0l-0.3,0.1c-0.1,0.1-0.2,0.5,0,0.6
		C11.3,11,11.6,11,11.7,10.9z M9.7,10.2c-0.1,0.7-0.2,1.3-0.3,1.9H7.2c0.1-0.6,0.2-1.3,0.4-1.9H6.7c-0.3,1.6-0.5,3.2-0.9,4.8h0.8
		c0.1-0.8,0.2-1.6,0.4-2.4h2.2L8.9,15h0.8c0.3-1.6,0.5-3.3,0.9-4.8H9.7z M21.1,11.6c-0.6-0.3-1.1,0.2-1.4,0.6
		c0.1-0.2,0.1-0.4,0.1-0.6h-0.6c-0.2,1.2-0.4,2.3-0.6,3.4h0.7c0.1-0.7,0.1-1.6,0.4-2.2c0.2-0.5,0.6-0.9,1.3-0.7
		C21.1,11.9,21.1,11.7,21.1,11.6z M21.5,14.2c-0.1-0.2-0.1-0.4-0.1-0.7c0-0.5,0.2-1.1,0.5-1.3c0.4-0.4,1.1-0.3,1.7-0.1l0.1-0.6
		c-1-0.2-1.9-0.1-2.3,0.4c-0.5,0.5-0.8,1.6-0.6,2.3c0.3,0.8,1.4,0.9,2.3,0.6c0-0.2,0.1-0.4,0.1-0.5C22.7,14.6,21.8,14.8,21.5,14.2z
		 M29.5,11.6c-0.6-0.3-1.1,0.2-1.4,0.5c0.1-0.2,0.1-0.4,0.1-0.5h-0.6c-0.2,1.2-0.4,2.3-0.6,3.4h0.7c0-0.5,0.1-0.8,0.2-1.2
		c0.2-1,0.4-2,1.5-1.7C29.4,11.9,29.5,11.7,29.5,11.6z M11,11.6c-0.2,1.2-0.4,2.3-0.6,3.4h0.7c0.2-1.2,0.4-2.3,0.6-3.4H11z
		 M17.2,11.5c-0.5,0-0.9,0.2-1.3,0.5c-0.4,0.4-0.7,1.3-0.6,2.1c0.1,1.1,1.6,1.1,2.7,0.8l0.1-0.6c-0.5,0.2-1.3,0.4-1.8,0.1
		c-0.4-0.2-0.4-0.8-0.2-1.3h2.3c0-0.4,0.2-0.8,0.1-1.1C18.4,11.6,17.8,11.5,17.2,11.5z M17.9,12.8h-1.7c0.1-0.4,0.4-0.8,0.9-0.8
		C17.7,11.9,18,12.1,17.9,12.8z M14.5,11.6c-0.6-0.2-1.3,0-1.6,0.3v-0.3h-0.6l-0.9,5h0.7l0.3-1.9c0.2,0.6,1.2,0.5,1.7,0.3
		C15.1,14.4,15.8,12,14.5,11.6z M14,14.4c-0.4,0.4-1.3,0.4-1.4-0.3l0.1-0.9c0.1-0.3,0.1-0.6,0.1-0.9c0.4-0.5,1.5-0.5,1.6,0.2
		S14.3,14,14,14.4z M32.1,10.1l-0.2,1.5c-1.7-0.6-2.8,0.7-2.8,2.3c0,0.3,0.1,0.6,0.2,0.8c0.3,0.4,1.3,0.5,1.7,0.1l0.2-0.2
		c0-0.1,0.1-0.2,0.1-0.2l-0.1,0.5h0.6c0.1-1.8,0.5-3.3,0.8-4.9L32.1,10.1L32.1,10.1z M30.6,14.6c-0.5,0-0.7-0.3-0.7-0.8
		c0-0.9,0.4-1.8,1.1-1.9c0.4,0,0.6,0,0.9,0.1C31.6,13,31.7,14.6,30.6,14.6z M24.4,11.6l-0.1,0.6c0.4-0.1,1.7-0.4,1.8,0.1
		c0,0.2,0,0.4-0.1,0.5c-1.2-0.1-2.1,0.1-2.4,0.9c-0.2,0.6,0,1.1,0.4,1.3c0.7,0.3,1.5,0,1.8-0.5c0,0.2-0.1,0.3,0,0.5h0.6
		c0-0.6,0.1-1.1,0.2-1.6c0.1-0.4,0.2-0.9,0.2-1.3C26.8,11.2,25.3,11.5,24.4,11.6z M25.6,14.3c-0.4,0.4-1.4,0.5-1.3-0.4
		c0.1-0.7,0.9-0.9,1.7-0.8C25.9,13.6,25.9,14.1,25.6,14.3z"/>
</g>
</svg>
