<svg xmlns="http://www.w3.org/2000/svg" width="39" height="26" viewBox="0 0 39 26"><g><path fill="#F3F4F4" d="M36.9 25.6h-34.8c-.9 0-1.7-.8-1.7-1.7v-21.8c0-.9.8-1.7 1.7-1.7h34.9c.9 0 1.7.8 1.7 1.7v21.9c-.1.9-.8 1.6-1.8 1.6z"/><path fill="#DBDAD9" d="M36.9 26h-34.8c-1.2 0-2.1-.9-2.1-2.1v-21.8c0-1.2.9-2.1 2.1-2.1h34.8c1.2 0 2.1.9 2.1 2.1v21.8c0 1.2-.9 2.1-2.1 2.1zm-34.8-25.2c-.7 0-1.3.6-1.3 1.3v21.8c0 .7.6 1.3 1.3 1.3h34.8c.7 0 1.3-.6 1.3-1.3v-21.8c0-.7-.6-1.3-1.3-1.3h-34.8z"/><g fill-rule="evenodd" clip-rule="evenodd"><path fill="#2E3192" d="M12.6 2.4h14.2c1 0 1.8.4 2.5 1 .7.7 1 1.6 1 2.6v14.2c0 1-.4 1.8-1.1 2.5-.7.7-1.5 1-2.5 1h-14.1c-1 0-1.8-.4-2.5-1-.7-.7-1-1.5-1-2.5v-14.2c0-1 .4-1.8 1-2.5.7-.7 1.5-1.1 2.5-1.1z"/><path fill="#FFF200" d="M25.3 14.5h1.2l1.4-1.4h-1.6l-1 1.4zm-.4.3h-1.6v3.1c0 .8.2 1.4.6 1.8.4.4.8.5 1.4.5.8 0 1.4-.3 1.8-1v.8h1.5v-5.3h-1.6v3.4c-.2.4-.5.7-1 .7-.6 0-1-.4-1-1.3v-2.7h-.1zm-4.3 1.8c-1.1 0-1.9.2-2.5.5-.6.4-.9.9-.9 1.6 0 .4.2.8.5 1.1.4.3.8.5 1.3.5.7 0 1.3-.2 1.6-.7v.6h1.5v-3.2c0-.7-.2-1.2-.5-1.6-.4-.4-1.1-.7-1.9-.7-.9 0-1.6.2-2.2.5l.3 1c.5-.3 1-.4 1.6-.4.9 0 1.2.3 1.2.8zm-4-1.8h-1v-1.8h-1.6v1.8h-.8v1.2h.8v2.1c0 .7.1 1.3.4 1.6.3.3.8.5 1.3.5.4 0 .6 0 .9-.1v-1.2s-.1.1-.3.1c-.3 0-.4-.1-.6-.3-.1-.1-.1-.4-.1-.7v-1.9h1v-1.3zm2.2 3.7c0-.6.6-.9 1.9-.9v.8999999999999999c-.1.2-.2.4-.4.5-.2.2-.4.2-.7.2-.5 0-.8-.2-.8-.7zm-8-5.5v7.1h1.7v-7.1h-1.7z"/></g></g></svg>