<svg xmlns="http://www.w3.org/2000/svg" width="39" height="26" viewBox="0 0 39 26"><path fill="#F3F4F4" d="M36.9 25.6h-34.8c-.9 0-1.7-.8-1.7-1.7v-21.8c0-.9.8-1.7 1.7-1.7h34.9c.9 0 1.7.8 1.7 1.7v21.9c-.1.9-.8 1.6-1.8 1.6z"/><path fill="#DBDAD9" d="M36.9 26h-34.8c-1.2 0-2.1-.9-2.1-2.1v-21.8c0-1.2.9-2.1 2.1-2.1h34.8c1.2 0 2.1.9 2.1 2.1v21.8c0 1.2-.9 2.1-2.1 2.1zm-34.8-25.2c-.7 0-1.3.6-1.3 1.3v21.8c0 .7.6 1.3 1.3 1.3h34.8c.7 0 1.3-.6 1.3-1.3v-21.8c0-.7-.6-1.3-1.3-1.3h-34.8z"/><path fill="#F89820" d="M18.8 19.5c1.5 1.4 3.6 2.3 5.9 2.3 4.8 0 8.7-3.9 8.7-8.7 0-4.8-3.9-8.7-8.7-8.7-2.3 0-4.3.9-5.9 2.3-1.8 1.6-2.9 3.9-2.9 6.5 0 2.4 1.1 4.7 2.9 6.3"/><path fill="#CB2128" d="M21.6 12.1l-.1-.9h-5.3l.3-.9h4.8c-.1-.3-.2-.6-.4-.9h-4.1c.1-.4.2-.7.4-1h3.1c-.2-.3-.4-.6-.7-.9h-1.8l.9-.9c-1.5-1.4-3.6-2.3-5.9-2.3-4.8 0-8.7 3.9-8.7 8.7 0 4.8 3.9 8.7 8.7 8.7 2.3 0 4.3-.9 5.9-2.3l.9-.9h-1.8l-.7-.9h3.1c.2-.3.4-.6.5-.9h-4.1l-.4-.9h4.8l.3-.9c.1-.3.1-.6.1-.9v-.9c.2-.4.2-.7.2-1"/><path fill="#fff" d="M32.2 15c0-.2.1-.3.3-.3.2 0 .3.1.3.3s-.1.3-.3.3c-.2 0-.3-.1-.3-.3m.3.2c.1 0 .2-.1.2-.2s-.1-.2-.2-.2-.2.1-.2.2.1.2.2.2m-.1 0l-.1-.2h.2v.30000000000000004h-.1v-.1zm0-.2zM24.5 11l-.2 1c-.3-.2-.6-.2-.8-.2-.7 0-1.2.7-1.2 1.7 0 .7.3 1.1.9 1.1.2 0 .5-.1.8-.2l-.2 1c-.3.1-.6.1-.8.1-1 0-1.7-.7-1.7-1.9 0-1.6.9-2.7 2.1-2.7h.4l.4.1h.3M21.5 11.7c0-.1-.1-.1 0 0-.4 0-.6.2-.9.6l.1-.5h-.9l-.6 3.6h.9c.3-2.2.4-2.6.9-2.6h.1c.2-.5.3-.8.4-1.1M16.1 15.2c-.3.1-.5.1-.7.1-.5 0-.7-.3-.7-.8v-.3l.1-.4v-.3l.4-2.5h.9l-.1.7h.5l-.1.9h-.5l-.2 1.5v.1c0 .2.1.3.3.3h.3l-.2.7M12.4 12.8c0 .5.2.8.7 1 .4.2.4.2.4.4s-.2.3-.5.3-.5 0-.8-.1l-.1.8h.9c1 0 1.5-.4 1.5-1.2 0-.5-.2-.8-.7-1-.4-.2-.4-.2-.4-.4s.2-.3.5-.3c.2 0 .4 0 .7.1l.1-.8-.8-.1c-1.1.1-1.5.7-1.5 1.3M31.8 15.3h-.9v-.4c-.3.3-.5.4-.9.4-.7 0-1.1-.6-1.1-1.5 0-1.2.7-2.2 1.5-2.2.4 0 .6.2.9.5l.2-1.3h.9l-.6 4.5m-1.4-.9c.4 0 .8-.5.8-1.2 0-.5-.2-.7-.5-.7-.4 0-.7.5-.7 1.2-.1.5.1.7.4.7"/><path fill="#fff" d="M18.9 15.2c-.3.1-.6.1-1 .1-1.1 0-1.6-.6-1.6-1.6 0-1.2.7-2.1 1.7-2.1.8 0 1.3.5 1.3 1.3 0 .3 0 .5-.1.9h-1.9v.1c0 .4.3.6.8.6.3 0 .6-.1 1-.2l-.2.9m-.5-2.1v-.2c0-.3-.2-.5-.4-.5-.3 0-.5.2-.6.6l1 .1zM8.8 15.3h-.9l.5-3.4-1.2 3.4h-.6l-.1-3.4-.6 3.4h-.9l.8-4.4h1.3l.1 2.7.9-2.7h1.5zM11.2 13.7h-.2c-.5 0-.8.2-.8.5 0 .2.1.4.3.4.4 0 .6-.4.7-.9m.6 1.6h-.8v-.4c-.2.3-.6.4-1 .4-.5 0-.9-.4-.9-1 0-.9.6-1.4 1.7-1.4h.4v-.2c0-.2-.2-.3-.6-.3-.3 0-.6 0-.8.1h-.2l.1-.8c.5-.1.8-.2 1.1-.2.8 0 1.2.4 1.2 1.1 0 .2 0 .3-.1.7l-.2 1.3v.4l.1.3zM26.1 13.7h-.2c-.5 0-.8.2-.8.5 0 .2.1.4.3.4.4 0 .7-.4.7-.9m.7 1.6h-.8v-.4c-.2.3-.6.4-1 .4-.5 0-.9-.4-.9-1 0-.9.6-1.4 1.7-1.4h.4v-.2c0-.2-.2-.3-.6-.3-.3 0-.6 0-.8.1h-.2l.1-.8c.5-.1.8-.2 1.1-.2.8 0 1.2.4 1.2 1.1 0 .2 0 .3-.1.7l-.2 1.3v.4l.1.3zM29.3 11.7c0-.1-.1-.1 0 0-.4 0-.6.2-.9.6l.1-.5h-.9l-.6 3.6h1c.3-2.2.4-2.6.9-2.6h.1c.1-.5.2-.8.3-1.1"/></svg>