<svg xmlns="http://www.w3.org/2000/svg" width="39" height="26" viewBox="0 0 39 26"><path fill="#F3F4F4" d="M36.9 25.6h-34.8c-.9 0-1.7-.8-1.7-1.7v-21.8c0-.9.8-1.7 1.7-1.7h34.9c.9 0 1.7.8 1.7 1.7v21.9c-.1.9-.8 1.6-1.8 1.6z"/><path fill="#DBDAD9" d="M36.9 26h-34.8c-1.2 0-2.1-.9-2.1-2.1v-21.8c0-1.2.9-2.1 2.1-2.1h34.8c1.2 0 2.1.9 2.1 2.1v21.8c0 1.2-.9 2.1-2.1 2.1zm-34.8-25.2c-.7 0-1.3.6-1.3 1.3v21.8c0 .7.6 1.3 1.3 1.3h34.8c.7 0 1.3-.6 1.3-1.3v-21.8c0-.7-.6-1.3-1.3-1.3h-34.8z"/><path fill="#009BDE" d="M24.9 9.6h-2.4c-.2 0-.3.1-.3.3l-1 6.2c0 .1.1.2.2.2h1.2c.1 0 .2-.1.2-.2l.3-1.8c0-.2.2-.3.3-.3h.8c1.6 0 2.5-.8 2.8-2.3.1-.7 0-1.2-.3-1.6-.4-.3-1-.5-1.8-.5zm.3 2.2c-.1.9-.8.9-1.4.9h-.4l.3-1.6c0-.1.1-.2.2-.2h.1c.4 0 .8 0 1.1.2.1.2.2.4.1.7z"/><path fill="#002F87" d="M7.7 9.6h-2.4c-.2 0-.3.1-.4.2l-.9 6.2c0 .1.1.2.2.2h1.2c.2 0 .3-.1.3-.3l.3-1.7c0-.2.2-.3.3-.3h.7c1.6 0 2.5-.8 2.8-2.3.1-.7 0-1.2-.3-1.6-.4-.2-1-.4-1.8-.4zm.3 2.2c-.1.9-.8.9-1.4.9h-.4l.3-1.6c0-.1.1-.2.2-.2h.2c.4 0 .8 0 1.1.2v.7zM14.9 11.8h-1.2c-.1 0-.2.1-.2.2l-.1.3-.1-.1c-.3-.4-.8-.5-1.4-.5-1.3 0-2.4 1-2.6 2.3-.1.7 0 1.3.4 1.8.4.4.9.6 1.5.6 1 0 1.6-.7 1.6-.7l.1.3c0 .1.1.2.2.2h1c.2 0 .3-.1.3-.3l.6-4c.1 0 0-.1-.1-.1zm-1.6 2.2c-.1.7-.6 1.1-1.3 1.1-.3 0-.6-.1-.8-.3-.1-.2-.2-.5-.2-.8.1-.7.6-1.1 1.3-1.1.3 0 .6.1.8.3.2.2.3.5.2.8z"/><path fill="#009BDE" d="M32.2 11.8h-1.2c-.1 0-.2.1-.2.2l-.1.3-.1-.1c-.3-.4-.8-.5-1.4-.5-1.3 0-2.4 1-2.6 2.3-.1.7 0 1.3.4 1.8.4.4.9.6 1.5.6 1 0 1.6-.7 1.6-.7l.1.3c0 .1.1.2.2.2h1c.2 0 .3-.1.3-.3l.6-4c.1 0 0-.1-.1-.1zm-1.7 2.2c-.1.7-.6 1.1-1.3 1.1-.3 0-.6-.1-.8-.3-.2-.2-.2-.5-.2-.8.1-.7.6-1.1 1.3-1.1.3 0 .6.1.8.3.2.2.3.5.2.8z"/><path fill="#002F87" d="M21.1 11.8h-1.2l-.3.1-1.6 2.4-.6-2.3c0-.1-.2-.2-.3-.2h-1.1c-.1 0-.2.1-.2.3l1.3 3.8-1.2 1.7c-.1.1 0 .3.2.3h1.2l.3-.1 3.9-5.6c-.2-.2-.3-.4-.4-.4z"/><path fill="#009BDE" d="M33.5 9.7l-1 6.3c0 .1.1.2.2.2h1c.2 0 .3-.1.3-.3l1-6.2c0-.1-.1-.2-.2-.2h-1.1c-.1.1-.2.1-.2.2z"/></svg>