<svg xmlns="http://www.w3.org/2000/svg" width="39" height="26" viewBox="0 0 39 26"><path fill="#F3F4F4" d="M36.9 25.6h-34.8c-.9 0-1.7-.8-1.7-1.7v-21.8c0-.9.8-1.7 1.7-1.7h34.9c.9 0 1.7.8 1.7 1.7v21.9c-.1.9-.8 1.6-1.8 1.6z"/><path fill="#DBDAD9" d="M36.9 26h-34.8c-1.2 0-2.1-.9-2.1-2.1v-21.8c0-1.2.9-2.1 2.1-2.1h34.8c1.2 0 2.1.9 2.1 2.1v21.8c0 1.2-.9 2.1-2.1 2.1zm-34.8-25.2c-.7 0-1.3.6-1.3 1.3v21.8c0 .7.6 1.3 1.3 1.3h34.8c.7 0 1.3-.6 1.3-1.3v-21.8c0-.7-.6-1.3-1.3-1.3h-34.8z"/><path fill-rule="evenodd" clip-rule="evenodd" fill="#EF3E33" d="M19.4 19.7v-.5c-.2-1.6-4.2-5.5-4.2-6.8-3.6.9-6.7 2.8-6.6 5 0 3 5 5.4 11.1 5.4 6.2 0 11.1-2.5 11.1-5.5 0-2.3-2.8-4.2-6.7-5 0 0 .1-.3.1-.6 0-2.8-4.2-5.5-4.2-8v-.9s-1.2.6-1.2 2.6c0 3.5 4 5.3 4 8.4 0 1.8-1 2.2-1 2.2v-.7c0-2.3-4.4-5-4.4-7.5v-1s-1.1.6-1.1 2.6c0 3.4 4 4.9 4 8.4 0 1.4-.9 1.9-.9 1.9z"/></svg>