<svg xmlns="http://www.w3.org/2000/svg" width="39" height="26" viewBox="0 0 39 26"><path fill="#F3F4F4" d="M36.9 25.6h-34.8c-.9 0-1.7-.8-1.7-1.7v-21.8c0-.9.8-1.7 1.7-1.7h34.9c.9 0 1.7.8 1.7 1.7v21.9c-.1.9-.8 1.6-1.8 1.6z"/><path fill="#DBDAD9" d="M36.9 26h-34.8c-1.2 0-2.1-.9-2.1-2.1v-21.8c0-1.2.9-2.1 2.1-2.1h34.8c1.2 0 2.1.9 2.1 2.1v21.8c0 1.2-.9 2.1-2.1 2.1zm-34.8-25.2c-.7 0-1.3.6-1.3 1.3v21.8c0 .7.6 1.3 1.3 1.3h34.8c.7 0 1.3-.6 1.3-1.3v-21.8c0-.7-.6-1.3-1.3-1.3h-34.8z"/><g fill-rule="evenodd" clip-rule="evenodd"><path fill="#263F84" d="M5 2.8h28.9c1.1 0 1.5.4 1.5 1.5v3.7h-31.8v-3.8c0-1.1.3-1.4 1.4-1.4z"/><path fill="#fff" d="M3.6 7.4h31.8v11.7h-31.8z"/><path fill="#263F84" d="M14.1 9.3l-2 5.3-.1-1-.7-3.6c-.1-.5-.5-.6-.9-.7h-3.3v.1c.8.2 1.5.5 2.1.8l1.8 6.8h2.1l3.2-7.8h-2.2zM15.8 17.1l1.3-7.8h2l-1.3 7.8zM25.1 9.5c-.4-.2-1-.3-1.8-.3-2 0-3.4 1.1-3.4 2.6 0 1.1 1 1.7 1.8 2.1.8.4 1 .6 1 1 0 .5-.6.8-1.2.8-.8 0-1.2-.1-1.9-.4l-.3-.1-.3 1.7c.5.2 1.3.4 2.2.4 2.1 0 3.5-1 3.5-2.7 0-.9-.5-1.6-1.7-2.1-.7-.4-1.1-.6-1.1-1 0-.3.4-.7 1.2-.7.7 0 1.1.1 1.5.3l.2.1.3-1.7zM27.8 14.4c.2-.4.8-2.2.8-2.2s.2-.5.3-.7l.1.7s.4 1.9.5 2.2h-1.7zm2.4-5.1h-1.5c-.5 0-.8.1-1.1.6l-3 7.1h2.1s.3-1 .4-1.2h2.6c.1.3.2 1.2.2 1.2h1.9l-1.6-7.7z"/><path fill="#E2A327" d="M35.4 19.1h-31.8v3.1c0 1.1.4 1.5 1.5 1.5h28.9c1.1 0 1.5-.4 1.5-1.5v-3.1z"/></g></svg>